<?xml version="1.0" encoding="UTF-8" standalone="no"?>
<!DOCTYPE svg PUBLIC "-//W3C//DTD SVG 1.1//EN" "http://www.w3.org/Graphics/SVG/1.1/DTD/svg11.dtd">
<svg width="100%" height="100%" viewBox="0 0 5348 2483" version="1.1" xmlns="http://www.w3.org/2000/svg" xmlns:xlink="http://www.w3.org/1999/xlink" xml:space="preserve" xmlns:serif="http://www.serif.com/" style="fill-rule:evenodd;clip-rule:evenodd;">
    <g transform="matrix(4.16667,0,0,4.16667,43.368,44.9949)">
        <clipPath id="_clip1">
            <rect x="783.457" y="332.976" width="268.232" height="240.024"/>
        </clipPath>
        <g clip-path="url(#_clip1)">
            <g transform="matrix(1.45165,0,0,-1.45109,783.457,572.999)">
                <rect x="0" y="0" width="184.777" height="165.409" style="fill:rgb(248,224,255);stroke:rgb(214,170,227);stroke-width:4px;"/>
            </g>
            <g>
                <clipPath id="_clip2">
                    <rect x="801.48" y="389.451" width="42.138" height="41.412"/>
                </clipPath>
                <g clip-path="url(#_clip2)">
                    <g transform="matrix(1.45165,0,0,-1.45109,801.48,430.863)">
                        <rect x="0" y="0" width="29.027" height="28.539" style="fill:rgb(239,253,253);stroke:rgb(188,226,255);stroke-width:4px;"/>
                    </g>
                </g>
            </g>
            <g>
                <clipPath id="_clip3">
                    <rect x="864.862" y="389.451" width="42.138" height="41.412"/>
                </clipPath>
                <g clip-path="url(#_clip3)">
                    <g transform="matrix(1.45165,0,0,-1.45109,864.862,430.863)">
                        <rect x="0" y="0" width="29.027" height="28.539" style="fill:rgb(239,253,253);stroke:rgb(188,226,255);stroke-width:4px;"/>
                    </g>
                </g>
            </g>
            <g>
                <clipPath id="_clip4">
                    <rect x="928.77" y="389.451" width="42.138" height="41.412"/>
                </clipPath>
                <g clip-path="url(#_clip4)">
                    <g transform="matrix(1.45165,0,0,-1.45109,928.77,430.863)">
                        <rect x="0" y="0" width="29.027" height="28.539" style="fill:rgb(239,253,253);stroke:rgb(188,226,255);stroke-width:4px;"/>
                    </g>
                </g>
            </g>
            <g>
                <clipPath id="_clip5">
                    <rect x="992.685" y="389.451" width="42.138" height="41.412"/>
                </clipPath>
                <g clip-path="url(#_clip5)">
                    <g transform="matrix(1.45165,0,0,-1.45109,992.685,430.863)">
                        <rect x="0" y="0" width="29.027" height="28.539" style="fill:rgb(239,253,253);stroke:rgb(188,226,255);stroke-width:4px;"/>
                    </g>
                </g>
            </g>
            <g>
                <clipPath id="_clip6">
                    <rect x="801.48" y="452.749" width="42.138" height="41.412"/>
                </clipPath>
                <g clip-path="url(#_clip6)">
                    <g transform="matrix(1.45165,0,0,-1.45109,801.48,494.161)">
                        <rect x="0" y="0" width="29.027" height="28.539" style="fill:rgb(239,253,253);stroke:rgb(188,226,255);stroke-width:4px;"/>
                    </g>
                </g>
            </g>
            <g>
                <clipPath id="_clip7">
                    <rect x="864.862" y="452.749" width="42.138" height="41.412"/>
                </clipPath>
                <g clip-path="url(#_clip7)">
                    <g transform="matrix(1.45165,0,0,-1.45109,864.862,494.161)">
                        <rect x="0" y="0" width="29.027" height="28.539" style="fill:rgb(239,253,253);stroke:rgb(188,226,255);stroke-width:4px;"/>
                    </g>
                </g>
            </g>
            <g>
                <clipPath id="_clip8">
                    <rect x="928.77" y="452.749" width="42.138" height="41.412"/>
                </clipPath>
                <g clip-path="url(#_clip8)">
                    <g transform="matrix(1.45165,0,0,-1.45109,928.77,494.161)">
                        <rect x="0" y="0" width="29.027" height="28.539" style="fill:rgb(239,253,253);stroke:rgb(188,226,255);stroke-width:4px;"/>
                    </g>
                </g>
            </g>
            <g>
                <clipPath id="_clip9">
                    <rect x="992.685" y="452.749" width="42.138" height="41.412"/>
                </clipPath>
                <g clip-path="url(#_clip9)">
                    <g transform="matrix(1.45165,0,0,-1.45109,992.685,494.161)">
                        <rect x="0" y="0" width="29.027" height="28.539" style="fill:rgb(239,253,253);stroke:rgb(188,226,255);stroke-width:4px;"/>
                    </g>
                </g>
            </g>
            <g>
                <clipPath id="_clip10">
                    <rect x="801.48" y="516.332" width="42.138" height="41.412"/>
                </clipPath>
                <g clip-path="url(#_clip10)">
                    <g transform="matrix(1.45165,0,0,-1.45109,801.48,557.744)">
                        <rect x="0" y="0" width="29.027" height="28.539" style="fill:rgb(239,253,253);stroke:rgb(188,226,255);stroke-width:4px;"/>
                    </g>
                </g>
            </g>
            <g>
                <clipPath id="_clip11">
                    <rect x="864.862" y="516.332" width="42.138" height="41.412"/>
                </clipPath>
                <g clip-path="url(#_clip11)">
                    <g transform="matrix(1.45165,0,0,-1.45109,864.862,557.744)">
                        <rect x="0" y="0" width="29.027" height="28.539" style="fill:rgb(239,253,253);stroke:rgb(188,226,255);stroke-width:4px;"/>
                    </g>
                </g>
            </g>
            <g>
                <clipPath id="_clip12">
                    <rect x="928.77" y="516.332" width="42.138" height="41.412"/>
                </clipPath>
                <g clip-path="url(#_clip12)">
                    <g transform="matrix(1.45165,0,0,-1.45109,928.77,557.744)">
                        <rect x="0" y="0" width="29.027" height="28.539" style="fill:rgb(239,253,253);stroke:rgb(188,226,255);stroke-width:4px;"/>
                    </g>
                </g>
            </g>
            <g>
                <clipPath id="_clip13">
                    <rect x="992.685" y="516.332" width="42.138" height="41.412"/>
                </clipPath>
                <g clip-path="url(#_clip13)">
                    <g transform="matrix(1.45165,0,0,-1.45109,992.685,557.744)">
                        <rect x="0" y="0" width="29.027" height="28.539" style="fill:rgb(239,253,253);stroke:rgb(188,226,255);stroke-width:4px;"/>
                    </g>
                </g>
            </g>
        </g>
    </g>
    <g transform="matrix(4.16667,0,0,4.16667,43.368,44.9949)">
        <clipPath id="_clip14">
            <rect x="1.56" y="1.17" width="833.417" height="245.771"/>
        </clipPath>
        <g clip-path="url(#_clip14)">
            <g transform="matrix(1.45165,0,0,-1.45109,1.56,246.94)">
                <rect x="0" y="0" width="574.116" height="169.37" style="fill:rgb(248,224,255);stroke:rgb(214,170,227);stroke-width:4px;"/>
            </g>
            <g>
                <clipPath id="_clip15">
                    <rect x="51.585" y="51.37" width="150.893" height="142.927"/>
                </clipPath>
                <g clip-path="url(#_clip15)">
                    <g transform="matrix(1.45165,0,0,-1.45109,51.585,194.297)">
                        <rect x="0" y="0" width="103.945" height="98.496" style="fill:rgb(239,253,253);stroke:rgb(188,226,255);stroke-width:4px;"/>
                    </g>
                </g>
            </g>
            <g>
                <clipPath id="_clip16">
                    <rect x="246.007" y="51.37" width="150.893" height="142.927"/>
                </clipPath>
                <g clip-path="url(#_clip16)">
                    <g transform="matrix(1.45165,0,0,-1.45109,246.007,194.297)">
                        <rect x="0" y="0" width="103.945" height="98.496" style="fill:rgb(239,253,253);stroke:rgb(188,226,255);stroke-width:4px;"/>
                    </g>
                </g>
            </g>
            <g>
                <clipPath id="_clip17">
                    <rect x="440.445" y="51.37" width="150.893" height="142.927"/>
                </clipPath>
                <g clip-path="url(#_clip17)">
                    <g transform="matrix(1.45165,0,0,-1.45109,440.445,194.297)">
                        <rect x="0" y="0" width="103.945" height="98.496" style="fill:rgb(239,253,253);stroke:rgb(188,226,255);stroke-width:4px;"/>
                    </g>
                </g>
            </g>
            <g>
                <clipPath id="_clip18">
                    <rect x="509.872" y="153.645" width="42.138" height="40.651"/>
                </clipPath>
                <g clip-path="url(#_clip18)">
                    <g transform="matrix(1.45165,0,0,-1.45109,509.872,194.296)">
                        <rect x="0" y="0" width="29.027" height="28.014" style="fill:rgb(239,253,253);stroke:rgb(188,226,255);stroke-width:4px;"/>
                    </g>
                </g>
            </g>
            <g>
                <clipPath id="_clip19">
                    <rect x="549.202" y="153.645" width="42.138" height="40.651"/>
                </clipPath>
                <g clip-path="url(#_clip19)">
                    <g transform="matrix(1.45165,0,0,-1.45109,549.202,194.296)">
                        <rect x="0" y="0" width="29.027" height="28.014" style="fill:rgb(239,253,253);stroke:rgb(188,226,255);stroke-width:4px;"/>
                    </g>
                </g>
            </g>
            <g>
                <clipPath id="_clip20">
                    <rect x="634.89" y="51.37" width="150.893" height="142.927"/>
                </clipPath>
                <g clip-path="url(#_clip20)">
                    <g transform="matrix(1.45165,0,0,-1.45109,634.89,194.297)">
                        <rect x="0" y="0" width="103.945" height="98.496" style="fill:rgb(239,253,253);stroke:rgb(188,226,255);stroke-width:4px;"/>
                    </g>
                </g>
            </g>
            <g transform="matrix(20.3232,0,0,20.3153,61.8345,128.638)">
                <path d="M0.378,-0.737C0.469,-0.737 0.54,-0.713 0.59,-0.665C0.64,-0.617 0.668,-0.563 0.673,-0.502L0.579,-0.502C0.568,-0.548 0.546,-0.585 0.514,-0.612C0.482,-0.639 0.437,-0.652 0.379,-0.652C0.309,-0.652 0.252,-0.628 0.208,-0.578C0.165,-0.528 0.143,-0.452 0.143,-0.35C0.143,-0.266 0.163,-0.198 0.202,-0.145C0.241,-0.093 0.3,-0.067 0.377,-0.067C0.449,-0.067 0.504,-0.094 0.541,-0.149C0.561,-0.178 0.576,-0.216 0.585,-0.264L0.68,-0.264C0.672,-0.188 0.644,-0.125 0.596,-0.074C0.539,-0.012 0.462,0.019 0.366,0.019C0.282,0.019 0.212,-0.007 0.156,-0.057C0.081,-0.124 0.044,-0.227 0.044,-0.366C0.044,-0.472 0.072,-0.559 0.128,-0.626C0.188,-0.7 0.272,-0.737 0.378,-0.737Z" style="fill:rgb(26,26,26);fill-rule:nonzero;"/>
            </g>
            <g transform="matrix(20.3232,0,0,20.3153,77.302,128.638)">
                <path d="M0.272,-0.057C0.33,-0.057 0.37,-0.079 0.392,-0.123C0.413,-0.167 0.424,-0.216 0.424,-0.27C0.424,-0.319 0.417,-0.359 0.401,-0.389C0.376,-0.437 0.333,-0.461 0.273,-0.461C0.219,-0.461 0.18,-0.441 0.156,-0.4C0.131,-0.359 0.119,-0.309 0.119,-0.251C0.119,-0.196 0.131,-0.149 0.156,-0.112C0.18,-0.075 0.219,-0.057 0.272,-0.057ZM0.275,-0.538C0.343,-0.538 0.4,-0.516 0.446,-0.471C0.493,-0.426 0.516,-0.36 0.516,-0.272C0.516,-0.188 0.496,-0.118 0.455,-0.063C0.414,-0.008 0.35,0.019 0.264,0.019C0.192,0.019 0.135,-0.005 0.092,-0.054C0.05,-0.103 0.029,-0.168 0.029,-0.25C0.029,-0.338 0.051,-0.408 0.096,-0.46C0.14,-0.512 0.2,-0.538 0.275,-0.538Z" style="fill:rgb(26,26,26);fill-rule:nonzero;"/>
            </g>
            <g transform="matrix(20.3232,0,0,20.3153,89.3956,128.638)">
                <path d="M0.064,-0.523L0.151,-0.523L0.151,-0.449C0.172,-0.474 0.191,-0.493 0.208,-0.505C0.237,-0.525 0.27,-0.535 0.307,-0.535C0.348,-0.535 0.382,-0.524 0.407,-0.504C0.422,-0.492 0.435,-0.475 0.446,-0.452C0.466,-0.48 0.489,-0.501 0.515,-0.514C0.542,-0.528 0.571,-0.535 0.604,-0.535C0.674,-0.535 0.722,-0.509 0.748,-0.458C0.761,-0.431 0.768,-0.394 0.768,-0.348L0.768,-0L0.677,-0L0.677,-0.363C0.677,-0.398 0.668,-0.422 0.651,-0.435C0.633,-0.448 0.612,-0.455 0.587,-0.455C0.552,-0.455 0.523,-0.443 0.498,-0.42C0.473,-0.397 0.46,-0.358 0.46,-0.304L0.46,-0L0.371,-0L0.371,-0.341C0.371,-0.377 0.367,-0.403 0.358,-0.419C0.345,-0.443 0.32,-0.456 0.284,-0.456C0.25,-0.456 0.22,-0.443 0.193,-0.417C0.166,-0.391 0.152,-0.345 0.152,-0.277L0.152,-0L0.064,-0L0.064,-0.523Z" style="fill:rgb(26,26,26);fill-rule:nonzero;"/>
            </g>
            <g transform="matrix(20.3232,0,0,20.3153,107.116,128.638)">
                <path d="M0.285,-0.059C0.326,-0.059 0.36,-0.076 0.387,-0.111C0.415,-0.145 0.428,-0.196 0.428,-0.265C0.428,-0.306 0.422,-0.342 0.41,-0.372C0.387,-0.43 0.346,-0.458 0.285,-0.458C0.224,-0.458 0.183,-0.428 0.16,-0.367C0.148,-0.335 0.142,-0.293 0.142,-0.243C0.142,-0.203 0.148,-0.168 0.16,-0.14C0.183,-0.086 0.225,-0.059 0.285,-0.059ZM0.058,-0.521L0.143,-0.521L0.143,-0.451C0.161,-0.475 0.18,-0.493 0.201,-0.506C0.23,-0.526 0.265,-0.536 0.305,-0.536C0.364,-0.536 0.415,-0.513 0.456,-0.468C0.497,-0.422 0.518,-0.357 0.518,-0.273C0.518,-0.159 0.488,-0.078 0.429,-0.029C0.391,0.002 0.347,0.018 0.297,0.018C0.257,0.018 0.224,0.009 0.198,-0.008C0.182,-0.018 0.165,-0.035 0.146,-0.059L0.146,0.208L0.058,0.208L0.058,-0.521Z" style="fill:rgb(26,26,26);fill-rule:nonzero;"/>
            </g>
            <g transform="matrix(20.3232,0,0,20.3153,119.209,128.638)">
                <path d="M0.272,-0.057C0.33,-0.057 0.37,-0.079 0.392,-0.123C0.413,-0.167 0.424,-0.216 0.424,-0.27C0.424,-0.319 0.417,-0.359 0.401,-0.389C0.376,-0.437 0.333,-0.461 0.273,-0.461C0.219,-0.461 0.18,-0.441 0.156,-0.4C0.131,-0.359 0.119,-0.309 0.119,-0.251C0.119,-0.196 0.131,-0.149 0.156,-0.112C0.18,-0.075 0.219,-0.057 0.272,-0.057ZM0.275,-0.538C0.343,-0.538 0.4,-0.516 0.446,-0.471C0.493,-0.426 0.516,-0.36 0.516,-0.272C0.516,-0.188 0.496,-0.118 0.455,-0.063C0.414,-0.008 0.35,0.019 0.264,0.019C0.192,0.019 0.135,-0.005 0.092,-0.054C0.05,-0.103 0.029,-0.168 0.029,-0.25C0.029,-0.338 0.051,-0.408 0.096,-0.46C0.14,-0.512 0.2,-0.538 0.275,-0.538Z" style="fill:rgb(26,26,26);fill-rule:nonzero;"/>
            </g>
            <g transform="matrix(20.3232,0,0,20.3153,131.303,128.638)">
                <path d="M0.064,-0.523L0.148,-0.523L0.148,-0.449C0.173,-0.479 0.199,-0.501 0.227,-0.515C0.254,-0.528 0.285,-0.535 0.319,-0.535C0.393,-0.535 0.443,-0.509 0.469,-0.457C0.484,-0.429 0.491,-0.388 0.491,-0.335L0.491,-0L0.401,-0L0.401,-0.33C0.401,-0.361 0.397,-0.387 0.387,-0.407C0.372,-0.439 0.343,-0.456 0.302,-0.456C0.281,-0.456 0.264,-0.453 0.251,-0.449C0.227,-0.442 0.206,-0.428 0.188,-0.406C0.173,-0.389 0.163,-0.371 0.159,-0.353C0.155,-0.334 0.152,-0.308 0.152,-0.274L0.152,-0L0.064,-0L0.064,-0.523Z" style="fill:rgb(26,26,26);fill-rule:nonzero;"/>
            </g>
            <g transform="matrix(20.3232,0,0,20.3153,143.397,128.638)">
                <path d="M0.282,-0.535C0.319,-0.535 0.355,-0.526 0.39,-0.509C0.425,-0.491 0.451,-0.469 0.47,-0.441C0.487,-0.415 0.499,-0.384 0.505,-0.349C0.51,-0.325 0.513,-0.286 0.513,-0.233L0.129,-0.233C0.131,-0.18 0.144,-0.138 0.167,-0.106C0.19,-0.074 0.227,-0.058 0.276,-0.058C0.322,-0.058 0.358,-0.073 0.386,-0.103C0.401,-0.121 0.412,-0.141 0.419,-0.164L0.505,-0.164C0.503,-0.145 0.496,-0.123 0.483,-0.1C0.47,-0.076 0.455,-0.057 0.439,-0.042C0.413,-0.016 0.38,0.002 0.34,0.011C0.319,0.016 0.295,0.019 0.269,0.019C0.203,0.019 0.148,-0.005 0.103,-0.052C0.058,-0.1 0.035,-0.166 0.035,-0.251C0.035,-0.335 0.058,-0.404 0.104,-0.456C0.149,-0.508 0.209,-0.535 0.282,-0.535ZM0.422,-0.303C0.419,-0.341 0.41,-0.372 0.397,-0.395C0.373,-0.437 0.333,-0.458 0.277,-0.458C0.236,-0.458 0.203,-0.443 0.175,-0.414C0.148,-0.385 0.133,-0.348 0.132,-0.303L0.422,-0.303Z" style="fill:rgb(26,26,26);fill-rule:nonzero;"/>
            </g>
            <g transform="matrix(20.3232,0,0,20.3153,155.49,128.638)">
                <path d="M0.064,-0.523L0.148,-0.523L0.148,-0.449C0.173,-0.479 0.199,-0.501 0.227,-0.515C0.254,-0.528 0.285,-0.535 0.319,-0.535C0.393,-0.535 0.443,-0.509 0.469,-0.457C0.484,-0.429 0.491,-0.388 0.491,-0.335L0.491,-0L0.401,-0L0.401,-0.33C0.401,-0.361 0.397,-0.387 0.387,-0.407C0.372,-0.439 0.343,-0.456 0.302,-0.456C0.281,-0.456 0.264,-0.453 0.251,-0.449C0.227,-0.442 0.206,-0.428 0.188,-0.406C0.173,-0.389 0.163,-0.371 0.159,-0.353C0.155,-0.334 0.152,-0.308 0.152,-0.274L0.152,-0L0.064,-0L0.064,-0.523Z" style="fill:rgb(26,26,26);fill-rule:nonzero;"/>
            </g>
            <g transform="matrix(20.3232,0,0,20.3153,167.584,128.638)">
                <path d="M0.082,-0.669L0.171,-0.669L0.171,-0.523L0.254,-0.523L0.254,-0.451L0.171,-0.451L0.171,-0.11C0.171,-0.092 0.177,-0.079 0.189,-0.073C0.196,-0.07 0.208,-0.068 0.224,-0.068C0.228,-0.068 0.232,-0.068 0.237,-0.068C0.242,-0.068 0.248,-0.069 0.254,-0.069L0.254,-0C0.244,0.003 0.234,0.005 0.223,0.006C0.212,0.008 0.2,0.008 0.188,0.008C0.146,0.008 0.119,-0.002 0.104,-0.023C0.089,-0.044 0.082,-0.071 0.082,-0.105L0.082,-0.451L0.011,-0.451L0.011,-0.523L0.082,-0.523L0.082,-0.669Z" style="fill:rgb(26,26,26);fill-rule:nonzero;"/>
            </g>
            <g transform="matrix(20.3232,0,0,20.3153,179.735,128.638)">
                <path d="M0.444,-0.294L0.335,-0.611L0.22,-0.294L0.444,-0.294ZM0.285,-0.717L0.395,-0.717L0.655,-0L0.548,-0L0.476,-0.215L0.192,-0.215L0.114,-0L0.015,-0L0.285,-0.717Z" style="fill:rgb(26,26,26);fill-rule:nonzero;"/>
            </g>
            <g transform="matrix(20.3232,0,0,20.3153,256.103,128.638)">
                <path d="M0.378,-0.737C0.469,-0.737 0.54,-0.713 0.59,-0.665C0.64,-0.617 0.668,-0.563 0.673,-0.502L0.579,-0.502C0.568,-0.548 0.546,-0.585 0.514,-0.612C0.482,-0.639 0.437,-0.652 0.379,-0.652C0.309,-0.652 0.252,-0.628 0.208,-0.578C0.165,-0.528 0.143,-0.452 0.143,-0.35C0.143,-0.266 0.163,-0.198 0.202,-0.145C0.241,-0.093 0.3,-0.067 0.377,-0.067C0.449,-0.067 0.504,-0.094 0.541,-0.149C0.561,-0.178 0.576,-0.216 0.585,-0.264L0.68,-0.264C0.672,-0.188 0.644,-0.125 0.596,-0.074C0.539,-0.012 0.462,0.019 0.366,0.019C0.282,0.019 0.212,-0.007 0.156,-0.057C0.081,-0.124 0.044,-0.227 0.044,-0.366C0.044,-0.472 0.072,-0.559 0.128,-0.626C0.188,-0.7 0.272,-0.737 0.378,-0.737Z" style="fill:rgb(26,26,26);fill-rule:nonzero;"/>
            </g>
            <g transform="matrix(20.3232,0,0,20.3153,271.571,128.638)">
                <path d="M0.272,-0.057C0.33,-0.057 0.37,-0.079 0.392,-0.123C0.413,-0.167 0.424,-0.216 0.424,-0.27C0.424,-0.319 0.417,-0.359 0.401,-0.389C0.376,-0.437 0.333,-0.461 0.273,-0.461C0.219,-0.461 0.18,-0.441 0.156,-0.4C0.131,-0.359 0.119,-0.309 0.119,-0.251C0.119,-0.196 0.131,-0.149 0.156,-0.112C0.18,-0.075 0.219,-0.057 0.272,-0.057ZM0.275,-0.538C0.343,-0.538 0.4,-0.516 0.446,-0.471C0.493,-0.426 0.516,-0.36 0.516,-0.272C0.516,-0.188 0.496,-0.118 0.455,-0.063C0.414,-0.008 0.35,0.019 0.264,0.019C0.192,0.019 0.135,-0.005 0.092,-0.054C0.05,-0.103 0.029,-0.168 0.029,-0.25C0.029,-0.338 0.051,-0.408 0.096,-0.46C0.14,-0.512 0.2,-0.538 0.275,-0.538Z" style="fill:rgb(26,26,26);fill-rule:nonzero;"/>
            </g>
            <g transform="matrix(20.3232,0,0,20.3153,283.664,128.638)">
                <path d="M0.064,-0.523L0.151,-0.523L0.151,-0.449C0.172,-0.474 0.191,-0.493 0.208,-0.505C0.237,-0.525 0.27,-0.535 0.307,-0.535C0.348,-0.535 0.382,-0.524 0.407,-0.504C0.422,-0.492 0.435,-0.475 0.446,-0.452C0.466,-0.48 0.489,-0.501 0.515,-0.514C0.542,-0.528 0.571,-0.535 0.604,-0.535C0.674,-0.535 0.722,-0.509 0.748,-0.458C0.761,-0.431 0.768,-0.394 0.768,-0.348L0.768,-0L0.677,-0L0.677,-0.363C0.677,-0.398 0.668,-0.422 0.651,-0.435C0.633,-0.448 0.612,-0.455 0.587,-0.455C0.552,-0.455 0.523,-0.443 0.498,-0.42C0.473,-0.397 0.46,-0.358 0.46,-0.304L0.46,-0L0.371,-0L0.371,-0.341C0.371,-0.377 0.367,-0.403 0.358,-0.419C0.345,-0.443 0.32,-0.456 0.284,-0.456C0.25,-0.456 0.22,-0.443 0.193,-0.417C0.166,-0.391 0.152,-0.345 0.152,-0.277L0.152,-0L0.064,-0L0.064,-0.523Z" style="fill:rgb(26,26,26);fill-rule:nonzero;"/>
            </g>
            <g transform="matrix(20.3232,0,0,20.3153,301.384,128.638)">
                <path d="M0.285,-0.059C0.326,-0.059 0.36,-0.076 0.387,-0.111C0.415,-0.145 0.428,-0.196 0.428,-0.265C0.428,-0.306 0.422,-0.342 0.41,-0.372C0.387,-0.43 0.346,-0.458 0.285,-0.458C0.224,-0.458 0.183,-0.428 0.16,-0.367C0.148,-0.335 0.142,-0.293 0.142,-0.243C0.142,-0.203 0.148,-0.168 0.16,-0.14C0.183,-0.086 0.225,-0.059 0.285,-0.059ZM0.058,-0.521L0.143,-0.521L0.143,-0.451C0.161,-0.475 0.18,-0.493 0.201,-0.506C0.23,-0.526 0.265,-0.536 0.305,-0.536C0.364,-0.536 0.415,-0.513 0.456,-0.468C0.497,-0.422 0.518,-0.357 0.518,-0.273C0.518,-0.159 0.488,-0.078 0.429,-0.029C0.391,0.002 0.347,0.018 0.297,0.018C0.257,0.018 0.224,0.009 0.198,-0.008C0.182,-0.018 0.165,-0.035 0.146,-0.059L0.146,0.208L0.058,0.208L0.058,-0.521Z" style="fill:rgb(26,26,26);fill-rule:nonzero;"/>
            </g>
            <g transform="matrix(20.3232,0,0,20.3153,313.478,128.638)">
                <path d="M0.272,-0.057C0.33,-0.057 0.37,-0.079 0.392,-0.123C0.413,-0.167 0.424,-0.216 0.424,-0.27C0.424,-0.319 0.417,-0.359 0.401,-0.389C0.376,-0.437 0.333,-0.461 0.273,-0.461C0.219,-0.461 0.18,-0.441 0.156,-0.4C0.131,-0.359 0.119,-0.309 0.119,-0.251C0.119,-0.196 0.131,-0.149 0.156,-0.112C0.18,-0.075 0.219,-0.057 0.272,-0.057ZM0.275,-0.538C0.343,-0.538 0.4,-0.516 0.446,-0.471C0.493,-0.426 0.516,-0.36 0.516,-0.272C0.516,-0.188 0.496,-0.118 0.455,-0.063C0.414,-0.008 0.35,0.019 0.264,0.019C0.192,0.019 0.135,-0.005 0.092,-0.054C0.05,-0.103 0.029,-0.168 0.029,-0.25C0.029,-0.338 0.051,-0.408 0.096,-0.46C0.14,-0.512 0.2,-0.538 0.275,-0.538Z" style="fill:rgb(26,26,26);fill-rule:nonzero;"/>
            </g>
            <g transform="matrix(20.3232,0,0,20.3153,325.572,128.638)">
                <path d="M0.064,-0.523L0.148,-0.523L0.148,-0.449C0.173,-0.479 0.199,-0.501 0.227,-0.515C0.254,-0.528 0.285,-0.535 0.319,-0.535C0.393,-0.535 0.443,-0.509 0.469,-0.457C0.484,-0.429 0.491,-0.388 0.491,-0.335L0.491,-0L0.401,-0L0.401,-0.33C0.401,-0.361 0.397,-0.387 0.387,-0.407C0.372,-0.439 0.343,-0.456 0.302,-0.456C0.281,-0.456 0.264,-0.453 0.251,-0.449C0.227,-0.442 0.206,-0.428 0.188,-0.406C0.173,-0.389 0.163,-0.371 0.159,-0.353C0.155,-0.334 0.152,-0.308 0.152,-0.274L0.152,-0L0.064,-0L0.064,-0.523Z" style="fill:rgb(26,26,26);fill-rule:nonzero;"/>
            </g>
            <g transform="matrix(20.3232,0,0,20.3153,337.665,128.638)">
                <path d="M0.282,-0.535C0.319,-0.535 0.355,-0.526 0.39,-0.509C0.425,-0.491 0.451,-0.469 0.47,-0.441C0.487,-0.415 0.499,-0.384 0.505,-0.349C0.51,-0.325 0.513,-0.286 0.513,-0.233L0.129,-0.233C0.131,-0.18 0.144,-0.138 0.167,-0.106C0.19,-0.074 0.227,-0.058 0.276,-0.058C0.322,-0.058 0.358,-0.073 0.386,-0.103C0.401,-0.121 0.412,-0.141 0.419,-0.164L0.505,-0.164C0.503,-0.145 0.496,-0.123 0.483,-0.1C0.47,-0.076 0.455,-0.057 0.439,-0.042C0.413,-0.016 0.38,0.002 0.34,0.011C0.319,0.016 0.295,0.019 0.269,0.019C0.203,0.019 0.148,-0.005 0.103,-0.052C0.058,-0.1 0.035,-0.166 0.035,-0.251C0.035,-0.335 0.058,-0.404 0.104,-0.456C0.149,-0.508 0.209,-0.535 0.282,-0.535ZM0.422,-0.303C0.419,-0.341 0.41,-0.372 0.397,-0.395C0.373,-0.437 0.333,-0.458 0.277,-0.458C0.236,-0.458 0.203,-0.443 0.175,-0.414C0.148,-0.385 0.133,-0.348 0.132,-0.303L0.422,-0.303Z" style="fill:rgb(26,26,26);fill-rule:nonzero;"/>
            </g>
            <g transform="matrix(20.3232,0,0,20.3153,349.759,128.638)">
                <path d="M0.064,-0.523L0.148,-0.523L0.148,-0.449C0.173,-0.479 0.199,-0.501 0.227,-0.515C0.254,-0.528 0.285,-0.535 0.319,-0.535C0.393,-0.535 0.443,-0.509 0.469,-0.457C0.484,-0.429 0.491,-0.388 0.491,-0.335L0.491,-0L0.401,-0L0.401,-0.33C0.401,-0.361 0.397,-0.387 0.387,-0.407C0.372,-0.439 0.343,-0.456 0.302,-0.456C0.281,-0.456 0.264,-0.453 0.251,-0.449C0.227,-0.442 0.206,-0.428 0.188,-0.406C0.173,-0.389 0.163,-0.371 0.159,-0.353C0.155,-0.334 0.152,-0.308 0.152,-0.274L0.152,-0L0.064,-0L0.064,-0.523Z" style="fill:rgb(26,26,26);fill-rule:nonzero;"/>
            </g>
            <g transform="matrix(20.3232,0,0,20.3153,361.852,128.638)">
                <path d="M0.082,-0.669L0.171,-0.669L0.171,-0.523L0.254,-0.523L0.254,-0.451L0.171,-0.451L0.171,-0.11C0.171,-0.092 0.177,-0.079 0.189,-0.073C0.196,-0.07 0.208,-0.068 0.224,-0.068C0.228,-0.068 0.232,-0.068 0.237,-0.068C0.242,-0.068 0.248,-0.069 0.254,-0.069L0.254,-0C0.244,0.003 0.234,0.005 0.223,0.006C0.212,0.008 0.2,0.008 0.188,0.008C0.146,0.008 0.119,-0.002 0.104,-0.023C0.089,-0.044 0.082,-0.071 0.082,-0.105L0.082,-0.451L0.011,-0.451L0.011,-0.523L0.082,-0.523L0.082,-0.669Z" style="fill:rgb(26,26,26);fill-rule:nonzero;"/>
            </g>
            <g transform="matrix(20.3232,0,0,20.3153,373.551,128.638)">
                <path d="M0.346,-0.414C0.387,-0.414 0.419,-0.42 0.441,-0.431C0.477,-0.449 0.495,-0.481 0.495,-0.528C0.495,-0.575 0.476,-0.606 0.438,-0.623C0.417,-0.632 0.385,-0.636 0.342,-0.636L0.169,-0.636L0.169,-0.414L0.346,-0.414ZM0.378,-0.083C0.438,-0.083 0.48,-0.1 0.506,-0.135C0.522,-0.157 0.53,-0.183 0.53,-0.214C0.53,-0.266 0.507,-0.301 0.46,-0.32C0.435,-0.33 0.403,-0.335 0.362,-0.335L0.169,-0.335L0.169,-0.083L0.378,-0.083ZM0.074,-0.717L0.382,-0.717C0.466,-0.717 0.526,-0.692 0.561,-0.642C0.582,-0.612 0.592,-0.578 0.592,-0.54C0.592,-0.494 0.579,-0.457 0.554,-0.428C0.54,-0.413 0.521,-0.399 0.496,-0.386C0.533,-0.372 0.56,-0.356 0.579,-0.339C0.611,-0.308 0.627,-0.264 0.627,-0.209C0.627,-0.163 0.612,-0.121 0.583,-0.084C0.54,-0.028 0.471,-0 0.377,-0L0.074,-0L0.074,-0.717Z" style="fill:rgb(26,26,26);fill-rule:nonzero;"/>
            </g>
            <g transform="matrix(20.3232,0,0,20.3153,450.714,128.638)">
                <path d="M0.378,-0.737C0.469,-0.737 0.54,-0.713 0.59,-0.665C0.64,-0.617 0.668,-0.563 0.673,-0.502L0.579,-0.502C0.568,-0.548 0.546,-0.585 0.514,-0.612C0.482,-0.639 0.437,-0.652 0.379,-0.652C0.309,-0.652 0.252,-0.628 0.208,-0.578C0.165,-0.528 0.143,-0.452 0.143,-0.35C0.143,-0.266 0.163,-0.198 0.202,-0.145C0.241,-0.093 0.3,-0.067 0.377,-0.067C0.449,-0.067 0.504,-0.094 0.541,-0.149C0.561,-0.178 0.576,-0.216 0.585,-0.264L0.68,-0.264C0.672,-0.188 0.644,-0.125 0.596,-0.074C0.539,-0.012 0.462,0.019 0.366,0.019C0.282,0.019 0.212,-0.007 0.156,-0.057C0.081,-0.124 0.044,-0.227 0.044,-0.366C0.044,-0.472 0.072,-0.559 0.128,-0.626C0.188,-0.7 0.272,-0.737 0.378,-0.737Z" style="fill:rgb(26,26,26);fill-rule:nonzero;"/>
            </g>
            <g transform="matrix(20.3232,0,0,20.3153,466.182,128.638)">
                <path d="M0.272,-0.057C0.33,-0.057 0.37,-0.079 0.392,-0.123C0.413,-0.167 0.424,-0.216 0.424,-0.27C0.424,-0.319 0.417,-0.359 0.401,-0.389C0.376,-0.437 0.333,-0.461 0.273,-0.461C0.219,-0.461 0.18,-0.441 0.156,-0.4C0.131,-0.359 0.119,-0.309 0.119,-0.251C0.119,-0.196 0.131,-0.149 0.156,-0.112C0.18,-0.075 0.219,-0.057 0.272,-0.057ZM0.275,-0.538C0.343,-0.538 0.4,-0.516 0.446,-0.471C0.493,-0.426 0.516,-0.36 0.516,-0.272C0.516,-0.188 0.496,-0.118 0.455,-0.063C0.414,-0.008 0.35,0.019 0.264,0.019C0.192,0.019 0.135,-0.005 0.092,-0.054C0.05,-0.103 0.029,-0.168 0.029,-0.25C0.029,-0.338 0.051,-0.408 0.096,-0.46C0.14,-0.512 0.2,-0.538 0.275,-0.538Z" style="fill:rgb(26,26,26);fill-rule:nonzero;"/>
            </g>
            <g transform="matrix(20.3232,0,0,20.3153,478.275,128.638)">
                <path d="M0.064,-0.523L0.151,-0.523L0.151,-0.449C0.172,-0.474 0.191,-0.493 0.208,-0.505C0.237,-0.525 0.27,-0.535 0.307,-0.535C0.348,-0.535 0.382,-0.524 0.407,-0.504C0.422,-0.492 0.435,-0.475 0.446,-0.452C0.466,-0.48 0.489,-0.501 0.515,-0.514C0.542,-0.528 0.571,-0.535 0.604,-0.535C0.674,-0.535 0.722,-0.509 0.748,-0.458C0.761,-0.431 0.768,-0.394 0.768,-0.348L0.768,-0L0.677,-0L0.677,-0.363C0.677,-0.398 0.668,-0.422 0.651,-0.435C0.633,-0.448 0.612,-0.455 0.587,-0.455C0.552,-0.455 0.523,-0.443 0.498,-0.42C0.473,-0.397 0.46,-0.358 0.46,-0.304L0.46,-0L0.371,-0L0.371,-0.341C0.371,-0.377 0.367,-0.403 0.358,-0.419C0.345,-0.443 0.32,-0.456 0.284,-0.456C0.25,-0.456 0.22,-0.443 0.193,-0.417C0.166,-0.391 0.152,-0.345 0.152,-0.277L0.152,-0L0.064,-0L0.064,-0.523Z" style="fill:rgb(26,26,26);fill-rule:nonzero;"/>
            </g>
            <g transform="matrix(20.3232,0,0,20.3153,495.996,128.638)">
                <path d="M0.285,-0.059C0.326,-0.059 0.36,-0.076 0.387,-0.111C0.415,-0.145 0.428,-0.196 0.428,-0.265C0.428,-0.306 0.422,-0.342 0.41,-0.372C0.387,-0.43 0.346,-0.458 0.285,-0.458C0.224,-0.458 0.183,-0.428 0.16,-0.367C0.148,-0.335 0.142,-0.293 0.142,-0.243C0.142,-0.203 0.148,-0.168 0.16,-0.14C0.183,-0.086 0.225,-0.059 0.285,-0.059ZM0.058,-0.521L0.143,-0.521L0.143,-0.451C0.161,-0.475 0.18,-0.493 0.201,-0.506C0.23,-0.526 0.265,-0.536 0.305,-0.536C0.364,-0.536 0.415,-0.513 0.456,-0.468C0.497,-0.422 0.518,-0.357 0.518,-0.273C0.518,-0.159 0.488,-0.078 0.429,-0.029C0.391,0.002 0.347,0.018 0.297,0.018C0.257,0.018 0.224,0.009 0.198,-0.008C0.182,-0.018 0.165,-0.035 0.146,-0.059L0.146,0.208L0.058,0.208L0.058,-0.521Z" style="fill:rgb(26,26,26);fill-rule:nonzero;"/>
            </g>
            <g transform="matrix(20.3232,0,0,20.3153,508.089,128.638)">
                <path d="M0.272,-0.057C0.33,-0.057 0.37,-0.079 0.392,-0.123C0.413,-0.167 0.424,-0.216 0.424,-0.27C0.424,-0.319 0.417,-0.359 0.401,-0.389C0.376,-0.437 0.333,-0.461 0.273,-0.461C0.219,-0.461 0.18,-0.441 0.156,-0.4C0.131,-0.359 0.119,-0.309 0.119,-0.251C0.119,-0.196 0.131,-0.149 0.156,-0.112C0.18,-0.075 0.219,-0.057 0.272,-0.057ZM0.275,-0.538C0.343,-0.538 0.4,-0.516 0.446,-0.471C0.493,-0.426 0.516,-0.36 0.516,-0.272C0.516,-0.188 0.496,-0.118 0.455,-0.063C0.414,-0.008 0.35,0.019 0.264,0.019C0.192,0.019 0.135,-0.005 0.092,-0.054C0.05,-0.103 0.029,-0.168 0.029,-0.25C0.029,-0.338 0.051,-0.408 0.096,-0.46C0.14,-0.512 0.2,-0.538 0.275,-0.538Z" style="fill:rgb(26,26,26);fill-rule:nonzero;"/>
            </g>
            <g transform="matrix(20.3232,0,0,20.3153,520.183,128.638)">
                <path d="M0.064,-0.523L0.148,-0.523L0.148,-0.449C0.173,-0.479 0.199,-0.501 0.227,-0.515C0.254,-0.528 0.285,-0.535 0.319,-0.535C0.393,-0.535 0.443,-0.509 0.469,-0.457C0.484,-0.429 0.491,-0.388 0.491,-0.335L0.491,-0L0.401,-0L0.401,-0.33C0.401,-0.361 0.397,-0.387 0.387,-0.407C0.372,-0.439 0.343,-0.456 0.302,-0.456C0.281,-0.456 0.264,-0.453 0.251,-0.449C0.227,-0.442 0.206,-0.428 0.188,-0.406C0.173,-0.389 0.163,-0.371 0.159,-0.353C0.155,-0.334 0.152,-0.308 0.152,-0.274L0.152,-0L0.064,-0L0.064,-0.523Z" style="fill:rgb(26,26,26);fill-rule:nonzero;"/>
            </g>
            <g transform="matrix(20.3232,0,0,20.3153,532.276,128.638)">
                <path d="M0.282,-0.535C0.319,-0.535 0.355,-0.526 0.39,-0.509C0.425,-0.491 0.451,-0.469 0.47,-0.441C0.487,-0.415 0.499,-0.384 0.505,-0.349C0.51,-0.325 0.513,-0.286 0.513,-0.233L0.129,-0.233C0.131,-0.18 0.144,-0.138 0.167,-0.106C0.19,-0.074 0.227,-0.058 0.276,-0.058C0.322,-0.058 0.358,-0.073 0.386,-0.103C0.401,-0.121 0.412,-0.141 0.419,-0.164L0.505,-0.164C0.503,-0.145 0.496,-0.123 0.483,-0.1C0.47,-0.076 0.455,-0.057 0.439,-0.042C0.413,-0.016 0.38,0.002 0.34,0.011C0.319,0.016 0.295,0.019 0.269,0.019C0.203,0.019 0.148,-0.005 0.103,-0.052C0.058,-0.1 0.035,-0.166 0.035,-0.251C0.035,-0.335 0.058,-0.404 0.104,-0.456C0.149,-0.508 0.209,-0.535 0.282,-0.535ZM0.422,-0.303C0.419,-0.341 0.41,-0.372 0.397,-0.395C0.373,-0.437 0.333,-0.458 0.277,-0.458C0.236,-0.458 0.203,-0.443 0.175,-0.414C0.148,-0.385 0.133,-0.348 0.132,-0.303L0.422,-0.303Z" style="fill:rgb(26,26,26);fill-rule:nonzero;"/>
            </g>
            <g transform="matrix(20.3232,0,0,20.3153,544.37,128.638)">
                <path d="M0.064,-0.523L0.148,-0.523L0.148,-0.449C0.173,-0.479 0.199,-0.501 0.227,-0.515C0.254,-0.528 0.285,-0.535 0.319,-0.535C0.393,-0.535 0.443,-0.509 0.469,-0.457C0.484,-0.429 0.491,-0.388 0.491,-0.335L0.491,-0L0.401,-0L0.401,-0.33C0.401,-0.361 0.397,-0.387 0.387,-0.407C0.372,-0.439 0.343,-0.456 0.302,-0.456C0.281,-0.456 0.264,-0.453 0.251,-0.449C0.227,-0.442 0.206,-0.428 0.188,-0.406C0.173,-0.389 0.163,-0.371 0.159,-0.353C0.155,-0.334 0.152,-0.308 0.152,-0.274L0.152,-0L0.064,-0L0.064,-0.523Z" style="fill:rgb(26,26,26);fill-rule:nonzero;"/>
            </g>
            <g transform="matrix(20.3232,0,0,20.3153,556.464,128.638)">
                <path d="M0.082,-0.669L0.171,-0.669L0.171,-0.523L0.254,-0.523L0.254,-0.451L0.171,-0.451L0.171,-0.11C0.171,-0.092 0.177,-0.079 0.189,-0.073C0.196,-0.07 0.208,-0.068 0.224,-0.068C0.228,-0.068 0.232,-0.068 0.237,-0.068C0.242,-0.068 0.248,-0.069 0.254,-0.069L0.254,-0C0.244,0.003 0.234,0.005 0.223,0.006C0.212,0.008 0.2,0.008 0.188,0.008C0.146,0.008 0.119,-0.002 0.104,-0.023C0.089,-0.044 0.082,-0.071 0.082,-0.105L0.082,-0.451L0.011,-0.451L0.011,-0.523L0.082,-0.523L0.082,-0.669Z" style="fill:rgb(26,26,26);fill-rule:nonzero;"/>
            </g>
            <g transform="matrix(20.3232,0,0,20.3153,568.162,128.638)">
                <path d="M0.378,-0.737C0.469,-0.737 0.54,-0.713 0.59,-0.665C0.64,-0.617 0.668,-0.563 0.673,-0.502L0.579,-0.502C0.568,-0.548 0.546,-0.585 0.514,-0.612C0.482,-0.639 0.437,-0.652 0.379,-0.652C0.309,-0.652 0.252,-0.628 0.208,-0.578C0.165,-0.528 0.143,-0.452 0.143,-0.35C0.143,-0.266 0.163,-0.198 0.202,-0.145C0.241,-0.093 0.3,-0.067 0.377,-0.067C0.449,-0.067 0.504,-0.094 0.541,-0.149C0.561,-0.178 0.576,-0.216 0.585,-0.264L0.68,-0.264C0.672,-0.188 0.644,-0.125 0.596,-0.074C0.539,-0.012 0.462,0.019 0.366,0.019C0.282,0.019 0.212,-0.007 0.156,-0.057C0.081,-0.124 0.044,-0.227 0.044,-0.366C0.044,-0.472 0.072,-0.559 0.128,-0.626C0.188,-0.7 0.272,-0.737 0.378,-0.737Z" style="fill:rgb(26,26,26);fill-rule:nonzero;"/>
            </g>
            <g transform="matrix(20.3232,0,0,20.3153,523.534,179.775)">
                <path d="M0.352,-0.083C0.384,-0.083 0.411,-0.086 0.433,-0.093C0.47,-0.106 0.501,-0.13 0.525,-0.167C0.545,-0.195 0.558,-0.233 0.567,-0.278C0.572,-0.305 0.574,-0.33 0.574,-0.353C0.574,-0.442 0.557,-0.511 0.521,-0.56C0.486,-0.609 0.429,-0.634 0.351,-0.634L0.178,-0.634L0.178,-0.083L0.352,-0.083ZM0.081,-0.717L0.371,-0.717C0.47,-0.717 0.546,-0.682 0.601,-0.612C0.649,-0.549 0.673,-0.468 0.673,-0.37C0.673,-0.293 0.659,-0.225 0.63,-0.163C0.58,-0.054 0.493,-0 0.37,-0L0.081,-0L0.081,-0.717Z" style="fill:rgb(26,26,26);fill-rule:nonzero;"/>
            </g>
            <g transform="matrix(20.3232,0,0,20.3153,564.621,179.775)">
                <path d="M0.085,-0.717L0.608,-0.717L0.608,-0.629L0.18,-0.629L0.18,-0.412L0.576,-0.412L0.576,-0.329L0.18,-0.329L0.18,-0.085L0.616,-0.085L0.616,-0L0.085,-0L0.085,-0.717Z" style="fill:rgb(26,26,26);fill-rule:nonzero;"/>
            </g>
            <g transform="matrix(20.3232,0,0,20.3153,646.325,128.638)">
                <path d="M0.378,-0.737C0.469,-0.737 0.54,-0.713 0.59,-0.665C0.64,-0.617 0.668,-0.563 0.673,-0.502L0.579,-0.502C0.568,-0.548 0.546,-0.585 0.514,-0.612C0.482,-0.639 0.437,-0.652 0.379,-0.652C0.309,-0.652 0.252,-0.628 0.208,-0.578C0.165,-0.528 0.143,-0.452 0.143,-0.35C0.143,-0.266 0.163,-0.198 0.202,-0.145C0.241,-0.093 0.3,-0.067 0.377,-0.067C0.449,-0.067 0.504,-0.094 0.541,-0.149C0.561,-0.178 0.576,-0.216 0.585,-0.264L0.68,-0.264C0.672,-0.188 0.644,-0.125 0.596,-0.074C0.539,-0.012 0.462,0.019 0.366,0.019C0.282,0.019 0.212,-0.007 0.156,-0.057C0.081,-0.124 0.044,-0.227 0.044,-0.366C0.044,-0.472 0.072,-0.559 0.128,-0.626C0.188,-0.7 0.272,-0.737 0.378,-0.737Z" style="fill:rgb(26,26,26);fill-rule:nonzero;"/>
            </g>
            <g transform="matrix(20.3232,0,0,20.3153,661.793,128.638)">
                <path d="M0.272,-0.057C0.33,-0.057 0.37,-0.079 0.392,-0.123C0.413,-0.167 0.424,-0.216 0.424,-0.27C0.424,-0.319 0.417,-0.359 0.401,-0.389C0.376,-0.437 0.333,-0.461 0.273,-0.461C0.219,-0.461 0.18,-0.441 0.156,-0.4C0.131,-0.359 0.119,-0.309 0.119,-0.251C0.119,-0.196 0.131,-0.149 0.156,-0.112C0.18,-0.075 0.219,-0.057 0.272,-0.057ZM0.275,-0.538C0.343,-0.538 0.4,-0.516 0.446,-0.471C0.493,-0.426 0.516,-0.36 0.516,-0.272C0.516,-0.188 0.496,-0.118 0.455,-0.063C0.414,-0.008 0.35,0.019 0.264,0.019C0.192,0.019 0.135,-0.005 0.092,-0.054C0.05,-0.103 0.029,-0.168 0.029,-0.25C0.029,-0.338 0.051,-0.408 0.096,-0.46C0.14,-0.512 0.2,-0.538 0.275,-0.538Z" style="fill:rgb(26,26,26);fill-rule:nonzero;"/>
            </g>
            <g transform="matrix(20.3232,0,0,20.3153,673.886,128.638)">
                <path d="M0.064,-0.523L0.151,-0.523L0.151,-0.449C0.172,-0.474 0.191,-0.493 0.208,-0.505C0.237,-0.525 0.27,-0.535 0.307,-0.535C0.348,-0.535 0.382,-0.524 0.407,-0.504C0.422,-0.492 0.435,-0.475 0.446,-0.452C0.466,-0.48 0.489,-0.501 0.515,-0.514C0.542,-0.528 0.571,-0.535 0.604,-0.535C0.674,-0.535 0.722,-0.509 0.748,-0.458C0.761,-0.431 0.768,-0.394 0.768,-0.348L0.768,-0L0.677,-0L0.677,-0.363C0.677,-0.398 0.668,-0.422 0.651,-0.435C0.633,-0.448 0.612,-0.455 0.587,-0.455C0.552,-0.455 0.523,-0.443 0.498,-0.42C0.473,-0.397 0.46,-0.358 0.46,-0.304L0.46,-0L0.371,-0L0.371,-0.341C0.371,-0.377 0.367,-0.403 0.358,-0.419C0.345,-0.443 0.32,-0.456 0.284,-0.456C0.25,-0.456 0.22,-0.443 0.193,-0.417C0.166,-0.391 0.152,-0.345 0.152,-0.277L0.152,-0L0.064,-0L0.064,-0.523Z" style="fill:rgb(26,26,26);fill-rule:nonzero;"/>
            </g>
            <g transform="matrix(20.3232,0,0,20.3153,691.607,128.638)">
                <path d="M0.285,-0.059C0.326,-0.059 0.36,-0.076 0.387,-0.111C0.415,-0.145 0.428,-0.196 0.428,-0.265C0.428,-0.306 0.422,-0.342 0.41,-0.372C0.387,-0.43 0.346,-0.458 0.285,-0.458C0.224,-0.458 0.183,-0.428 0.16,-0.367C0.148,-0.335 0.142,-0.293 0.142,-0.243C0.142,-0.203 0.148,-0.168 0.16,-0.14C0.183,-0.086 0.225,-0.059 0.285,-0.059ZM0.058,-0.521L0.143,-0.521L0.143,-0.451C0.161,-0.475 0.18,-0.493 0.201,-0.506C0.23,-0.526 0.265,-0.536 0.305,-0.536C0.364,-0.536 0.415,-0.513 0.456,-0.468C0.497,-0.422 0.518,-0.357 0.518,-0.273C0.518,-0.159 0.488,-0.078 0.429,-0.029C0.391,0.002 0.347,0.018 0.297,0.018C0.257,0.018 0.224,0.009 0.198,-0.008C0.182,-0.018 0.165,-0.035 0.146,-0.059L0.146,0.208L0.058,0.208L0.058,-0.521Z" style="fill:rgb(26,26,26);fill-rule:nonzero;"/>
            </g>
            <g transform="matrix(20.3232,0,0,20.3153,703.7,128.638)">
                <path d="M0.272,-0.057C0.33,-0.057 0.37,-0.079 0.392,-0.123C0.413,-0.167 0.424,-0.216 0.424,-0.27C0.424,-0.319 0.417,-0.359 0.401,-0.389C0.376,-0.437 0.333,-0.461 0.273,-0.461C0.219,-0.461 0.18,-0.441 0.156,-0.4C0.131,-0.359 0.119,-0.309 0.119,-0.251C0.119,-0.196 0.131,-0.149 0.156,-0.112C0.18,-0.075 0.219,-0.057 0.272,-0.057ZM0.275,-0.538C0.343,-0.538 0.4,-0.516 0.446,-0.471C0.493,-0.426 0.516,-0.36 0.516,-0.272C0.516,-0.188 0.496,-0.118 0.455,-0.063C0.414,-0.008 0.35,0.019 0.264,0.019C0.192,0.019 0.135,-0.005 0.092,-0.054C0.05,-0.103 0.029,-0.168 0.029,-0.25C0.029,-0.338 0.051,-0.408 0.096,-0.46C0.14,-0.512 0.2,-0.538 0.275,-0.538Z" style="fill:rgb(26,26,26);fill-rule:nonzero;"/>
            </g>
            <g transform="matrix(20.3232,0,0,20.3153,715.794,128.638)">
                <path d="M0.064,-0.523L0.148,-0.523L0.148,-0.449C0.173,-0.479 0.199,-0.501 0.227,-0.515C0.254,-0.528 0.285,-0.535 0.319,-0.535C0.393,-0.535 0.443,-0.509 0.469,-0.457C0.484,-0.429 0.491,-0.388 0.491,-0.335L0.491,-0L0.401,-0L0.401,-0.33C0.401,-0.361 0.397,-0.387 0.387,-0.407C0.372,-0.439 0.343,-0.456 0.302,-0.456C0.281,-0.456 0.264,-0.453 0.251,-0.449C0.227,-0.442 0.206,-0.428 0.188,-0.406C0.173,-0.389 0.163,-0.371 0.159,-0.353C0.155,-0.334 0.152,-0.308 0.152,-0.274L0.152,-0L0.064,-0L0.064,-0.523Z" style="fill:rgb(26,26,26);fill-rule:nonzero;"/>
            </g>
            <g transform="matrix(20.3232,0,0,20.3153,727.887,128.638)">
                <path d="M0.282,-0.535C0.319,-0.535 0.355,-0.526 0.39,-0.509C0.425,-0.491 0.451,-0.469 0.47,-0.441C0.487,-0.415 0.499,-0.384 0.505,-0.349C0.51,-0.325 0.513,-0.286 0.513,-0.233L0.129,-0.233C0.131,-0.18 0.144,-0.138 0.167,-0.106C0.19,-0.074 0.227,-0.058 0.276,-0.058C0.322,-0.058 0.358,-0.073 0.386,-0.103C0.401,-0.121 0.412,-0.141 0.419,-0.164L0.505,-0.164C0.503,-0.145 0.496,-0.123 0.483,-0.1C0.47,-0.076 0.455,-0.057 0.439,-0.042C0.413,-0.016 0.38,0.002 0.34,0.011C0.319,0.016 0.295,0.019 0.269,0.019C0.203,0.019 0.148,-0.005 0.103,-0.052C0.058,-0.1 0.035,-0.166 0.035,-0.251C0.035,-0.335 0.058,-0.404 0.104,-0.456C0.149,-0.508 0.209,-0.535 0.282,-0.535ZM0.422,-0.303C0.419,-0.341 0.41,-0.372 0.397,-0.395C0.373,-0.437 0.333,-0.458 0.277,-0.458C0.236,-0.458 0.203,-0.443 0.175,-0.414C0.148,-0.385 0.133,-0.348 0.132,-0.303L0.422,-0.303Z" style="fill:rgb(26,26,26);fill-rule:nonzero;"/>
            </g>
            <g transform="matrix(20.3232,0,0,20.3153,739.981,128.638)">
                <path d="M0.064,-0.523L0.148,-0.523L0.148,-0.449C0.173,-0.479 0.199,-0.501 0.227,-0.515C0.254,-0.528 0.285,-0.535 0.319,-0.535C0.393,-0.535 0.443,-0.509 0.469,-0.457C0.484,-0.429 0.491,-0.388 0.491,-0.335L0.491,-0L0.401,-0L0.401,-0.33C0.401,-0.361 0.397,-0.387 0.387,-0.407C0.372,-0.439 0.343,-0.456 0.302,-0.456C0.281,-0.456 0.264,-0.453 0.251,-0.449C0.227,-0.442 0.206,-0.428 0.188,-0.406C0.173,-0.389 0.163,-0.371 0.159,-0.353C0.155,-0.334 0.152,-0.308 0.152,-0.274L0.152,-0L0.064,-0L0.064,-0.523Z" style="fill:rgb(26,26,26);fill-rule:nonzero;"/>
            </g>
            <g transform="matrix(20.3232,0,0,20.3153,752.075,128.638)">
                <path d="M0.082,-0.669L0.171,-0.669L0.171,-0.523L0.254,-0.523L0.254,-0.451L0.171,-0.451L0.171,-0.11C0.171,-0.092 0.177,-0.079 0.189,-0.073C0.196,-0.07 0.208,-0.068 0.224,-0.068C0.228,-0.068 0.232,-0.068 0.237,-0.068C0.242,-0.068 0.248,-0.069 0.254,-0.069L0.254,-0C0.244,0.003 0.234,0.005 0.223,0.006C0.212,0.008 0.2,0.008 0.188,0.008C0.146,0.008 0.119,-0.002 0.104,-0.023C0.089,-0.044 0.082,-0.071 0.082,-0.105L0.082,-0.451L0.011,-0.451L0.011,-0.523L0.082,-0.523L0.082,-0.669Z" style="fill:rgb(26,26,26);fill-rule:nonzero;"/>
            </g>
            <g transform="matrix(20.3232,0,0,20.3153,763.773,128.638)">
                <path d="M0.085,-0.717L0.583,-0.717L0.583,-0.629L0.183,-0.629L0.183,-0.412L0.535,-0.412L0.535,-0.326L0.183,-0.326L0.183,-0L0.085,-0L0.085,-0.717Z" style="fill:rgb(26,26,26);fill-rule:nonzero;"/>
            </g>
            <g transform="matrix(20.3232,0,0,20.3153,335.52,33.9749)">
                <path d="M0.444,-0.294L0.335,-0.611L0.22,-0.294L0.444,-0.294ZM0.285,-0.717L0.395,-0.717L0.655,-0L0.548,-0L0.476,-0.215L0.192,-0.215L0.114,-0L0.015,-0L0.285,-0.717Z" style="fill:rgb(26,26,26);fill-rule:nonzero;"/>
            </g>
            <g transform="matrix(20.3232,0,0,20.3153,349.523,33.9749)">
                <path d="M0.266,-0.538C0.325,-0.538 0.373,-0.524 0.41,-0.495C0.447,-0.466 0.469,-0.417 0.477,-0.347L0.391,-0.347C0.386,-0.379 0.374,-0.406 0.355,-0.427C0.337,-0.449 0.307,-0.459 0.266,-0.459C0.21,-0.459 0.17,-0.432 0.146,-0.377C0.13,-0.342 0.123,-0.298 0.123,-0.246C0.123,-0.194 0.134,-0.15 0.156,-0.114C0.178,-0.078 0.213,-0.06 0.26,-0.06C0.297,-0.06 0.326,-0.071 0.347,-0.094C0.368,-0.116 0.383,-0.146 0.391,-0.185L0.477,-0.185C0.467,-0.116 0.442,-0.065 0.403,-0.033C0.364,-0.001 0.314,0.015 0.253,0.015C0.185,0.015 0.131,-0.01 0.09,-0.06C0.049,-0.11 0.029,-0.172 0.029,-0.247C0.029,-0.339 0.051,-0.41 0.096,-0.461C0.14,-0.513 0.197,-0.538 0.266,-0.538Z" style="fill:rgb(26,26,26);fill-rule:nonzero;"/>
            </g>
            <g transform="matrix(20.3232,0,0,20.3153,360.131,33.9749)">
                <path d="M0.064,-0.523L0.151,-0.523L0.151,-0.449C0.172,-0.474 0.191,-0.493 0.208,-0.505C0.237,-0.525 0.27,-0.535 0.307,-0.535C0.348,-0.535 0.382,-0.524 0.407,-0.504C0.422,-0.492 0.435,-0.475 0.446,-0.452C0.466,-0.48 0.489,-0.501 0.515,-0.514C0.542,-0.528 0.571,-0.535 0.604,-0.535C0.674,-0.535 0.722,-0.509 0.748,-0.458C0.761,-0.431 0.768,-0.394 0.768,-0.348L0.768,-0L0.677,-0L0.677,-0.363C0.677,-0.398 0.668,-0.422 0.651,-0.435C0.633,-0.448 0.612,-0.455 0.587,-0.455C0.552,-0.455 0.523,-0.443 0.498,-0.42C0.473,-0.397 0.46,-0.358 0.46,-0.304L0.46,-0L0.371,-0L0.371,-0.341C0.371,-0.377 0.367,-0.403 0.358,-0.419C0.345,-0.443 0.32,-0.456 0.284,-0.456C0.25,-0.456 0.22,-0.443 0.193,-0.417C0.166,-0.391 0.152,-0.345 0.152,-0.277L0.152,-0L0.064,-0L0.064,-0.523Z" style="fill:rgb(26,26,26);fill-rule:nonzero;"/>
            </g>
            <g transform="matrix(20.3232,0,0,20.3153,377.508,33.9749)">
                <path d="M0.282,-0.535C0.319,-0.535 0.355,-0.526 0.39,-0.509C0.425,-0.491 0.451,-0.469 0.47,-0.441C0.487,-0.415 0.499,-0.384 0.505,-0.349C0.51,-0.325 0.513,-0.286 0.513,-0.233L0.129,-0.233C0.131,-0.18 0.144,-0.138 0.167,-0.106C0.19,-0.074 0.227,-0.058 0.276,-0.058C0.322,-0.058 0.358,-0.073 0.386,-0.103C0.401,-0.121 0.412,-0.141 0.419,-0.164L0.505,-0.164C0.503,-0.145 0.496,-0.123 0.483,-0.1C0.47,-0.076 0.455,-0.057 0.439,-0.042C0.413,-0.016 0.38,0.002 0.34,0.011C0.319,0.016 0.295,0.019 0.269,0.019C0.203,0.019 0.148,-0.005 0.103,-0.052C0.058,-0.1 0.035,-0.166 0.035,-0.251C0.035,-0.335 0.058,-0.404 0.104,-0.456C0.149,-0.508 0.209,-0.535 0.282,-0.535ZM0.422,-0.303C0.419,-0.341 0.41,-0.372 0.397,-0.395C0.373,-0.437 0.333,-0.458 0.277,-0.458C0.236,-0.458 0.203,-0.443 0.175,-0.414C0.148,-0.385 0.133,-0.348 0.132,-0.303L0.422,-0.303Z" style="fill:rgb(26,26,26);fill-rule:nonzero;"/>
            </g>
            <g transform="matrix(20.3232,0,0,20.3153,393.604,33.9749)">
                <path d="M0.444,-0.294L0.335,-0.611L0.22,-0.294L0.444,-0.294ZM0.285,-0.717L0.395,-0.717L0.655,-0L0.548,-0L0.476,-0.215L0.192,-0.215L0.114,-0L0.015,-0L0.285,-0.717Z" style="fill:rgb(26,26,26);fill-rule:nonzero;"/>
            </g>
            <g transform="matrix(20.3232,0,0,20.3153,407.606,33.9749)">
                <path d="M0.285,-0.059C0.326,-0.059 0.36,-0.076 0.387,-0.111C0.415,-0.145 0.428,-0.196 0.428,-0.265C0.428,-0.306 0.422,-0.342 0.41,-0.372C0.387,-0.43 0.346,-0.458 0.285,-0.458C0.224,-0.458 0.183,-0.428 0.16,-0.367C0.148,-0.335 0.142,-0.293 0.142,-0.243C0.142,-0.203 0.148,-0.168 0.16,-0.14C0.183,-0.086 0.225,-0.059 0.285,-0.059ZM0.058,-0.521L0.143,-0.521L0.143,-0.451C0.161,-0.475 0.18,-0.493 0.201,-0.506C0.23,-0.526 0.265,-0.536 0.305,-0.536C0.364,-0.536 0.415,-0.513 0.456,-0.468C0.497,-0.422 0.518,-0.357 0.518,-0.273C0.518,-0.159 0.488,-0.078 0.429,-0.029C0.391,0.002 0.347,0.018 0.297,0.018C0.257,0.018 0.224,0.009 0.198,-0.008C0.182,-0.018 0.165,-0.035 0.146,-0.059L0.146,0.208L0.058,0.208L0.058,-0.521Z" style="fill:rgb(26,26,26);fill-rule:nonzero;"/>
            </g>
            <g transform="matrix(20.3232,0,0,20.3153,419.356,33.9749)">
                <path d="M0.285,-0.059C0.326,-0.059 0.36,-0.076 0.387,-0.111C0.415,-0.145 0.428,-0.196 0.428,-0.265C0.428,-0.306 0.422,-0.342 0.41,-0.372C0.387,-0.43 0.346,-0.458 0.285,-0.458C0.224,-0.458 0.183,-0.428 0.16,-0.367C0.148,-0.335 0.142,-0.293 0.142,-0.243C0.142,-0.203 0.148,-0.168 0.16,-0.14C0.183,-0.086 0.225,-0.059 0.285,-0.059ZM0.058,-0.521L0.143,-0.521L0.143,-0.451C0.161,-0.475 0.18,-0.493 0.201,-0.506C0.23,-0.526 0.265,-0.536 0.305,-0.536C0.364,-0.536 0.415,-0.513 0.456,-0.468C0.497,-0.422 0.518,-0.357 0.518,-0.273C0.518,-0.159 0.488,-0.078 0.429,-0.029C0.391,0.002 0.347,0.018 0.297,0.018C0.257,0.018 0.224,0.009 0.198,-0.008C0.182,-0.018 0.165,-0.035 0.146,-0.059L0.146,0.208L0.058,0.208L0.058,-0.521Z" style="fill:rgb(26,26,26);fill-rule:nonzero;"/>
            </g>
            <g transform="matrix(20.3232,0,0,20.3153,431.106,33.9749)">
                <rect x="0.067" y="-0.717" width="0.088" height="0.717" style="fill:rgb(26,26,26);fill-rule:nonzero;"/>
            </g>
            <g transform="matrix(20.3232,0,0,20.3153,436.068,33.9749)">
                <path d="M0.064,-0.521L0.154,-0.521L0.154,-0L0.064,-0L0.064,-0.521ZM0.064,-0.717L0.154,-0.717L0.154,-0.618L0.064,-0.618L0.064,-0.717Z" style="fill:rgb(26,26,26);fill-rule:nonzero;"/>
            </g>
            <g transform="matrix(20.3232,0,0,20.3153,441.031,33.9749)">
                <path d="M0.266,-0.538C0.325,-0.538 0.373,-0.524 0.41,-0.495C0.447,-0.466 0.469,-0.417 0.477,-0.347L0.391,-0.347C0.386,-0.379 0.374,-0.406 0.355,-0.427C0.337,-0.449 0.307,-0.459 0.266,-0.459C0.21,-0.459 0.17,-0.432 0.146,-0.377C0.13,-0.342 0.123,-0.298 0.123,-0.246C0.123,-0.194 0.134,-0.15 0.156,-0.114C0.178,-0.078 0.213,-0.06 0.26,-0.06C0.297,-0.06 0.326,-0.071 0.347,-0.094C0.368,-0.116 0.383,-0.146 0.391,-0.185L0.477,-0.185C0.467,-0.116 0.442,-0.065 0.403,-0.033C0.364,-0.001 0.314,0.015 0.253,0.015C0.185,0.015 0.131,-0.01 0.09,-0.06C0.049,-0.11 0.029,-0.172 0.029,-0.247C0.029,-0.339 0.051,-0.41 0.096,-0.461C0.14,-0.513 0.197,-0.538 0.266,-0.538Z" style="fill:rgb(26,26,26);fill-rule:nonzero;"/>
            </g>
            <g transform="matrix(20.3232,0,0,20.3153,451.639,33.9749)">
                <path d="M0.132,-0.139C0.132,-0.114 0.141,-0.094 0.16,-0.079C0.178,-0.064 0.2,-0.057 0.226,-0.057C0.257,-0.057 0.286,-0.064 0.315,-0.079C0.364,-0.102 0.389,-0.141 0.389,-0.195L0.389,-0.266C0.378,-0.259 0.364,-0.254 0.347,-0.249C0.33,-0.244 0.314,-0.241 0.297,-0.239L0.244,-0.232C0.212,-0.228 0.188,-0.222 0.172,-0.212C0.145,-0.197 0.132,-0.173 0.132,-0.139ZM0.345,-0.317C0.365,-0.319 0.378,-0.328 0.385,-0.342C0.389,-0.35 0.391,-0.361 0.391,-0.376C0.391,-0.406 0.38,-0.428 0.359,-0.441C0.338,-0.455 0.307,-0.461 0.268,-0.461C0.222,-0.461 0.189,-0.449 0.17,-0.424C0.159,-0.411 0.152,-0.39 0.149,-0.363L0.067,-0.363C0.069,-0.428 0.089,-0.473 0.13,-0.498C0.17,-0.523 0.216,-0.536 0.27,-0.536C0.331,-0.536 0.381,-0.524 0.419,-0.5C0.458,-0.477 0.477,-0.441 0.477,-0.391L0.477,-0.09C0.477,-0.081 0.478,-0.073 0.482,-0.068C0.486,-0.062 0.494,-0.06 0.506,-0.06C0.51,-0.06 0.514,-0.06 0.519,-0.06C0.524,-0.061 0.529,-0.062 0.535,-0.063L0.535,0.002C0.521,0.006 0.511,0.009 0.503,0.01C0.496,0.011 0.486,0.011 0.474,0.011C0.444,0.011 0.422,0 0.408,-0.021C0.401,-0.032 0.396,-0.049 0.393,-0.069C0.375,-0.046 0.349,-0.026 0.316,-0.008C0.282,0.009 0.245,0.018 0.205,0.018C0.157,0.018 0.117,0.003 0.086,-0.027C0.055,-0.056 0.04,-0.093 0.04,-0.137C0.04,-0.186 0.055,-0.223 0.085,-0.25C0.116,-0.277 0.155,-0.293 0.205,-0.299L0.345,-0.317Z" style="fill:rgb(26,26,26);fill-rule:nonzero;"/>
            </g>
            <g transform="matrix(20.3232,0,0,20.3153,463.389,33.9749)">
                <path d="M0.082,-0.669L0.171,-0.669L0.171,-0.523L0.254,-0.523L0.254,-0.451L0.171,-0.451L0.171,-0.11C0.171,-0.092 0.177,-0.079 0.189,-0.073C0.196,-0.07 0.208,-0.068 0.224,-0.068C0.228,-0.068 0.232,-0.068 0.237,-0.068C0.242,-0.068 0.248,-0.069 0.254,-0.069L0.254,-0C0.244,0.003 0.234,0.005 0.223,0.006C0.212,0.008 0.2,0.008 0.188,0.008C0.146,0.008 0.119,-0.002 0.104,-0.023C0.089,-0.044 0.082,-0.071 0.082,-0.105L0.082,-0.451L0.011,-0.451L0.011,-0.523L0.082,-0.523L0.082,-0.669Z" style="fill:rgb(26,26,26);fill-rule:nonzero;"/>
            </g>
            <g transform="matrix(20.3232,0,0,20.3153,469.483,33.9749)">
                <path d="M0.064,-0.521L0.154,-0.521L0.154,-0L0.064,-0L0.064,-0.521ZM0.064,-0.717L0.154,-0.717L0.154,-0.618L0.064,-0.618L0.064,-0.717Z" style="fill:rgb(26,26,26);fill-rule:nonzero;"/>
            </g>
            <g transform="matrix(20.3232,0,0,20.3153,474.445,33.9749)">
                <path d="M0.272,-0.057C0.33,-0.057 0.37,-0.079 0.392,-0.123C0.413,-0.167 0.424,-0.216 0.424,-0.27C0.424,-0.319 0.417,-0.359 0.401,-0.389C0.376,-0.437 0.333,-0.461 0.273,-0.461C0.219,-0.461 0.18,-0.441 0.156,-0.4C0.131,-0.359 0.119,-0.309 0.119,-0.251C0.119,-0.196 0.131,-0.149 0.156,-0.112C0.18,-0.075 0.219,-0.057 0.272,-0.057ZM0.275,-0.538C0.343,-0.538 0.4,-0.516 0.446,-0.471C0.493,-0.426 0.516,-0.36 0.516,-0.272C0.516,-0.188 0.496,-0.118 0.455,-0.063C0.414,-0.008 0.35,0.019 0.264,0.019C0.192,0.019 0.135,-0.005 0.092,-0.054C0.05,-0.103 0.029,-0.168 0.029,-0.25C0.029,-0.338 0.051,-0.408 0.096,-0.46C0.14,-0.512 0.2,-0.538 0.275,-0.538Z" style="fill:rgb(26,26,26);fill-rule:nonzero;"/>
            </g>
            <g transform="matrix(20.3232,0,0,20.3153,486.195,33.9749)">
                <path d="M0.064,-0.523L0.148,-0.523L0.148,-0.449C0.173,-0.479 0.199,-0.501 0.227,-0.515C0.254,-0.528 0.285,-0.535 0.319,-0.535C0.393,-0.535 0.443,-0.509 0.469,-0.457C0.484,-0.429 0.491,-0.388 0.491,-0.335L0.491,-0L0.401,-0L0.401,-0.33C0.401,-0.361 0.397,-0.387 0.387,-0.407C0.372,-0.439 0.343,-0.456 0.302,-0.456C0.281,-0.456 0.264,-0.453 0.251,-0.449C0.227,-0.442 0.206,-0.428 0.188,-0.406C0.173,-0.389 0.163,-0.371 0.159,-0.353C0.155,-0.334 0.152,-0.308 0.152,-0.274L0.152,-0L0.064,-0L0.064,-0.523Z" style="fill:rgb(26,26,26);fill-rule:nonzero;"/>
            </g>
        </g>
    </g>
    <g transform="matrix(4.16667,0,0,4.16667,43.368,44.9949)">
        <clipPath id="_clip21">
            <rect x="992.775" y="4.041" width="268.232" height="240.024"/>
        </clipPath>
        <g clip-path="url(#_clip21)">
            <g transform="matrix(1.45165,0,0,-1.45109,992.775,244.065)">
                <rect x="0" y="0" width="184.777" height="165.409" style="fill:rgb(248,224,255);stroke:rgb(214,170,227);stroke-width:4px;"/>
            </g>
            <g>
                <clipPath id="_clip22">
                    <rect x="1010.79" y="60.516" width="42.138" height="41.412"/>
                </clipPath>
                <g clip-path="url(#_clip22)">
                    <g transform="matrix(1.45165,0,0,-1.45109,1010.79,101.928)">
                        <rect x="0" y="0" width="29.027" height="28.539" style="fill:rgb(239,253,253);stroke:rgb(188,226,255);stroke-width:4px;"/>
                    </g>
                </g>
            </g>
            <g>
                <clipPath id="_clip23">
                    <rect x="1074.17" y="60.516" width="42.138" height="41.412"/>
                </clipPath>
                <g clip-path="url(#_clip23)">
                    <g transform="matrix(1.45165,0,0,-1.45109,1074.17,101.928)">
                        <rect x="0" y="0" width="29.027" height="28.539" style="fill:rgb(239,253,253);stroke:rgb(188,226,255);stroke-width:4px;"/>
                    </g>
                </g>
            </g>
            <g>
                <clipPath id="_clip24">
                    <rect x="1138.09" y="60.516" width="42.138" height="41.412"/>
                </clipPath>
                <g clip-path="url(#_clip24)">
                    <g transform="matrix(1.45165,0,0,-1.45109,1138.09,101.928)">
                        <rect x="0" y="0" width="29.027" height="28.539" style="fill:rgb(239,253,253);stroke:rgb(188,226,255);stroke-width:4px;"/>
                    </g>
                </g>
            </g>
            <g>
                <clipPath id="_clip25">
                    <rect x="1202" y="60.516" width="42.138" height="41.412"/>
                </clipPath>
                <g clip-path="url(#_clip25)">
                    <g transform="matrix(1.45165,0,0,-1.45109,1202,101.928)">
                        <rect x="0" y="0" width="29.027" height="28.539" style="fill:rgb(239,253,253);stroke:rgb(188,226,255);stroke-width:4px;"/>
                    </g>
                </g>
            </g>
            <g>
                <clipPath id="_clip26">
                    <rect x="1010.79" y="123.814" width="42.138" height="41.412"/>
                </clipPath>
                <g clip-path="url(#_clip26)">
                    <g transform="matrix(1.45165,0,0,-1.45109,1010.79,165.226)">
                        <rect x="0" y="0" width="29.027" height="28.539" style="fill:rgb(239,253,253);stroke:rgb(188,226,255);stroke-width:4px;"/>
                    </g>
                </g>
            </g>
            <g>
                <clipPath id="_clip27">
                    <rect x="1074.17" y="123.814" width="42.138" height="41.412"/>
                </clipPath>
                <g clip-path="url(#_clip27)">
                    <g transform="matrix(1.45165,0,0,-1.45109,1074.17,165.226)">
                        <rect x="0" y="0" width="29.027" height="28.539" style="fill:rgb(239,253,253);stroke:rgb(188,226,255);stroke-width:4px;"/>
                    </g>
                </g>
            </g>
            <g>
                <clipPath id="_clip28">
                    <rect x="1138.09" y="123.814" width="42.138" height="41.412"/>
                </clipPath>
                <g clip-path="url(#_clip28)">
                    <g transform="matrix(1.45165,0,0,-1.45109,1138.09,165.226)">
                        <rect x="0" y="0" width="29.027" height="28.539" style="fill:rgb(239,253,253);stroke:rgb(188,226,255);stroke-width:4px;"/>
                    </g>
                </g>
            </g>
            <g>
                <clipPath id="_clip29">
                    <rect x="1202" y="123.814" width="42.138" height="41.412"/>
                </clipPath>
                <g clip-path="url(#_clip29)">
                    <g transform="matrix(1.45165,0,0,-1.45109,1202,165.226)">
                        <rect x="0" y="0" width="29.027" height="28.539" style="fill:rgb(239,253,253);stroke:rgb(188,226,255);stroke-width:4px;"/>
                    </g>
                </g>
            </g>
            <g>
                <clipPath id="_clip30">
                    <rect x="1010.79" y="187.397" width="42.138" height="41.412"/>
                </clipPath>
                <g clip-path="url(#_clip30)">
                    <g transform="matrix(1.45165,0,0,-1.45109,1010.79,228.809)">
                        <rect x="0" y="0" width="29.027" height="28.539" style="fill:rgb(239,253,253);stroke:rgb(188,226,255);stroke-width:4px;"/>
                    </g>
                </g>
            </g>
            <g>
                <clipPath id="_clip31">
                    <rect x="1074.17" y="187.397" width="42.138" height="41.412"/>
                </clipPath>
                <g clip-path="url(#_clip31)">
                    <g transform="matrix(1.45165,0,0,-1.45109,1074.17,228.809)">
                        <rect x="0" y="0" width="29.027" height="28.539" style="fill:rgb(239,253,253);stroke:rgb(188,226,255);stroke-width:4px;"/>
                    </g>
                </g>
            </g>
            <g>
                <clipPath id="_clip32">
                    <rect x="1138.09" y="187.397" width="42.138" height="41.412"/>
                </clipPath>
                <g clip-path="url(#_clip32)">
                    <g transform="matrix(1.45165,0,0,-1.45109,1138.09,228.809)">
                        <rect x="0" y="0" width="29.027" height="28.539" style="fill:rgb(239,253,253);stroke:rgb(188,226,255);stroke-width:4px;"/>
                    </g>
                </g>
            </g>
            <g>
                <clipPath id="_clip33">
                    <rect x="1202" y="187.397" width="42.138" height="41.412"/>
                </clipPath>
                <g clip-path="url(#_clip33)">
                    <g transform="matrix(1.45165,0,0,-1.45109,1202,228.809)">
                        <rect x="0" y="0" width="29.027" height="28.539" style="fill:rgb(239,253,253);stroke:rgb(188,226,255);stroke-width:4px;"/>
                    </g>
                </g>
            </g>
            <g transform="matrix(20.3232,0,0,20.3153,1062.29,39.7777)">
                <path d="M0.378,-0.737C0.469,-0.737 0.54,-0.713 0.59,-0.665C0.64,-0.617 0.668,-0.563 0.673,-0.502L0.579,-0.502C0.568,-0.548 0.546,-0.585 0.514,-0.612C0.482,-0.639 0.437,-0.652 0.379,-0.652C0.309,-0.652 0.252,-0.628 0.208,-0.578C0.165,-0.528 0.143,-0.452 0.143,-0.35C0.143,-0.266 0.163,-0.198 0.202,-0.145C0.241,-0.093 0.3,-0.067 0.377,-0.067C0.449,-0.067 0.504,-0.094 0.541,-0.149C0.561,-0.178 0.576,-0.216 0.585,-0.264L0.68,-0.264C0.672,-0.188 0.644,-0.125 0.596,-0.074C0.539,-0.012 0.462,0.019 0.366,0.019C0.282,0.019 0.212,-0.007 0.156,-0.057C0.081,-0.124 0.044,-0.227 0.044,-0.366C0.044,-0.472 0.072,-0.559 0.128,-0.626C0.188,-0.7 0.272,-0.737 0.378,-0.737Z" style="fill:rgb(26,26,26);fill-rule:nonzero;"/>
            </g>
            <g transform="matrix(20.3232,0,0,20.3153,1077.76,39.7777)">
                <path d="M0.272,-0.057C0.33,-0.057 0.37,-0.079 0.392,-0.123C0.413,-0.167 0.424,-0.216 0.424,-0.27C0.424,-0.319 0.417,-0.359 0.401,-0.389C0.376,-0.437 0.333,-0.461 0.273,-0.461C0.219,-0.461 0.18,-0.441 0.156,-0.4C0.131,-0.359 0.119,-0.309 0.119,-0.251C0.119,-0.196 0.131,-0.149 0.156,-0.112C0.18,-0.075 0.219,-0.057 0.272,-0.057ZM0.275,-0.538C0.343,-0.538 0.4,-0.516 0.446,-0.471C0.493,-0.426 0.516,-0.36 0.516,-0.272C0.516,-0.188 0.496,-0.118 0.455,-0.063C0.414,-0.008 0.35,0.019 0.264,0.019C0.192,0.019 0.135,-0.005 0.092,-0.054C0.05,-0.103 0.029,-0.168 0.029,-0.25C0.029,-0.338 0.051,-0.408 0.096,-0.46C0.14,-0.512 0.2,-0.538 0.275,-0.538Z" style="fill:rgb(26,26,26);fill-rule:nonzero;"/>
            </g>
            <g transform="matrix(20.3232,0,0,20.3153,1089.85,39.7777)">
                <path d="M0.064,-0.523L0.151,-0.523L0.151,-0.449C0.172,-0.474 0.191,-0.493 0.208,-0.505C0.237,-0.525 0.27,-0.535 0.307,-0.535C0.348,-0.535 0.382,-0.524 0.407,-0.504C0.422,-0.492 0.435,-0.475 0.446,-0.452C0.466,-0.48 0.489,-0.501 0.515,-0.514C0.542,-0.528 0.571,-0.535 0.604,-0.535C0.674,-0.535 0.722,-0.509 0.748,-0.458C0.761,-0.431 0.768,-0.394 0.768,-0.348L0.768,-0L0.677,-0L0.677,-0.363C0.677,-0.398 0.668,-0.422 0.651,-0.435C0.633,-0.448 0.612,-0.455 0.587,-0.455C0.552,-0.455 0.523,-0.443 0.498,-0.42C0.473,-0.397 0.46,-0.358 0.46,-0.304L0.46,-0L0.371,-0L0.371,-0.341C0.371,-0.377 0.367,-0.403 0.358,-0.419C0.345,-0.443 0.32,-0.456 0.284,-0.456C0.25,-0.456 0.22,-0.443 0.193,-0.417C0.166,-0.391 0.152,-0.345 0.152,-0.277L0.152,-0L0.064,-0L0.064,-0.523Z" style="fill:rgb(26,26,26);fill-rule:nonzero;"/>
            </g>
            <g transform="matrix(20.3232,0,0,20.3153,1107.57,39.7777)">
                <path d="M0.285,-0.059C0.326,-0.059 0.36,-0.076 0.387,-0.111C0.415,-0.145 0.428,-0.196 0.428,-0.265C0.428,-0.306 0.422,-0.342 0.41,-0.372C0.387,-0.43 0.346,-0.458 0.285,-0.458C0.224,-0.458 0.183,-0.428 0.16,-0.367C0.148,-0.335 0.142,-0.293 0.142,-0.243C0.142,-0.203 0.148,-0.168 0.16,-0.14C0.183,-0.086 0.225,-0.059 0.285,-0.059ZM0.058,-0.521L0.143,-0.521L0.143,-0.451C0.161,-0.475 0.18,-0.493 0.201,-0.506C0.23,-0.526 0.265,-0.536 0.305,-0.536C0.364,-0.536 0.415,-0.513 0.456,-0.468C0.497,-0.422 0.518,-0.357 0.518,-0.273C0.518,-0.159 0.488,-0.078 0.429,-0.029C0.391,0.002 0.347,0.018 0.297,0.018C0.257,0.018 0.224,0.009 0.198,-0.008C0.182,-0.018 0.165,-0.035 0.146,-0.059L0.146,0.208L0.058,0.208L0.058,-0.521Z" style="fill:rgb(26,26,26);fill-rule:nonzero;"/>
            </g>
            <g transform="matrix(20.3232,0,0,20.3153,1119.67,39.7777)">
                <path d="M0.272,-0.057C0.33,-0.057 0.37,-0.079 0.392,-0.123C0.413,-0.167 0.424,-0.216 0.424,-0.27C0.424,-0.319 0.417,-0.359 0.401,-0.389C0.376,-0.437 0.333,-0.461 0.273,-0.461C0.219,-0.461 0.18,-0.441 0.156,-0.4C0.131,-0.359 0.119,-0.309 0.119,-0.251C0.119,-0.196 0.131,-0.149 0.156,-0.112C0.18,-0.075 0.219,-0.057 0.272,-0.057ZM0.275,-0.538C0.343,-0.538 0.4,-0.516 0.446,-0.471C0.493,-0.426 0.516,-0.36 0.516,-0.272C0.516,-0.188 0.496,-0.118 0.455,-0.063C0.414,-0.008 0.35,0.019 0.264,0.019C0.192,0.019 0.135,-0.005 0.092,-0.054C0.05,-0.103 0.029,-0.168 0.029,-0.25C0.029,-0.338 0.051,-0.408 0.096,-0.46C0.14,-0.512 0.2,-0.538 0.275,-0.538Z" style="fill:rgb(26,26,26);fill-rule:nonzero;"/>
            </g>
            <g transform="matrix(20.3232,0,0,20.3153,1131.76,39.7777)">
                <path d="M0.064,-0.523L0.148,-0.523L0.148,-0.449C0.173,-0.479 0.199,-0.501 0.227,-0.515C0.254,-0.528 0.285,-0.535 0.319,-0.535C0.393,-0.535 0.443,-0.509 0.469,-0.457C0.484,-0.429 0.491,-0.388 0.491,-0.335L0.491,-0L0.401,-0L0.401,-0.33C0.401,-0.361 0.397,-0.387 0.387,-0.407C0.372,-0.439 0.343,-0.456 0.302,-0.456C0.281,-0.456 0.264,-0.453 0.251,-0.449C0.227,-0.442 0.206,-0.428 0.188,-0.406C0.173,-0.389 0.163,-0.371 0.159,-0.353C0.155,-0.334 0.152,-0.308 0.152,-0.274L0.152,-0L0.064,-0L0.064,-0.523Z" style="fill:rgb(26,26,26);fill-rule:nonzero;"/>
            </g>
            <g transform="matrix(20.3232,0,0,20.3153,1143.85,39.7777)">
                <path d="M0.282,-0.535C0.319,-0.535 0.355,-0.526 0.39,-0.509C0.425,-0.491 0.451,-0.469 0.47,-0.441C0.487,-0.415 0.499,-0.384 0.505,-0.349C0.51,-0.325 0.513,-0.286 0.513,-0.233L0.129,-0.233C0.131,-0.18 0.144,-0.138 0.167,-0.106C0.19,-0.074 0.227,-0.058 0.276,-0.058C0.322,-0.058 0.358,-0.073 0.386,-0.103C0.401,-0.121 0.412,-0.141 0.419,-0.164L0.505,-0.164C0.503,-0.145 0.496,-0.123 0.483,-0.1C0.47,-0.076 0.455,-0.057 0.439,-0.042C0.413,-0.016 0.38,0.002 0.34,0.011C0.319,0.016 0.295,0.019 0.269,0.019C0.203,0.019 0.148,-0.005 0.103,-0.052C0.058,-0.1 0.035,-0.166 0.035,-0.251C0.035,-0.335 0.058,-0.404 0.104,-0.456C0.149,-0.508 0.209,-0.535 0.282,-0.535ZM0.422,-0.303C0.419,-0.341 0.41,-0.372 0.397,-0.395C0.373,-0.437 0.333,-0.458 0.277,-0.458C0.236,-0.458 0.203,-0.443 0.175,-0.414C0.148,-0.385 0.133,-0.348 0.132,-0.303L0.422,-0.303Z" style="fill:rgb(26,26,26);fill-rule:nonzero;"/>
            </g>
            <g transform="matrix(20.3232,0,0,20.3153,1155.95,39.7777)">
                <path d="M0.064,-0.523L0.148,-0.523L0.148,-0.449C0.173,-0.479 0.199,-0.501 0.227,-0.515C0.254,-0.528 0.285,-0.535 0.319,-0.535C0.393,-0.535 0.443,-0.509 0.469,-0.457C0.484,-0.429 0.491,-0.388 0.491,-0.335L0.491,-0L0.401,-0L0.401,-0.33C0.401,-0.361 0.397,-0.387 0.387,-0.407C0.372,-0.439 0.343,-0.456 0.302,-0.456C0.281,-0.456 0.264,-0.453 0.251,-0.449C0.227,-0.442 0.206,-0.428 0.188,-0.406C0.173,-0.389 0.163,-0.371 0.159,-0.353C0.155,-0.334 0.152,-0.308 0.152,-0.274L0.152,-0L0.064,-0L0.064,-0.523Z" style="fill:rgb(26,26,26);fill-rule:nonzero;"/>
            </g>
            <g transform="matrix(20.3232,0,0,20.3153,1168.04,39.7777)">
                <path d="M0.082,-0.669L0.171,-0.669L0.171,-0.523L0.254,-0.523L0.254,-0.451L0.171,-0.451L0.171,-0.11C0.171,-0.092 0.177,-0.079 0.189,-0.073C0.196,-0.07 0.208,-0.068 0.224,-0.068C0.228,-0.068 0.232,-0.068 0.237,-0.068C0.242,-0.068 0.248,-0.069 0.254,-0.069L0.254,-0C0.244,0.003 0.234,0.005 0.223,0.006C0.212,0.008 0.2,0.008 0.188,0.008C0.146,0.008 0.119,-0.002 0.104,-0.023C0.089,-0.044 0.082,-0.071 0.082,-0.105L0.082,-0.451L0.011,-0.451L0.011,-0.523L0.082,-0.523L0.082,-0.669Z" style="fill:rgb(26,26,26);fill-rule:nonzero;"/>
            </g>
            <g transform="matrix(20.3232,0,0,20.3153,1179.74,39.7777)">
                <path d="M0.085,-0.717L0.583,-0.717L0.583,-0.629L0.183,-0.629L0.183,-0.412L0.535,-0.412L0.535,-0.326L0.183,-0.326L0.183,-0L0.085,-0L0.085,-0.717Z" style="fill:rgb(26,26,26);fill-rule:nonzero;"/>
            </g>
        </g>
    </g>
    <g transform="matrix(4.16667,0,0,4.16667,43.368,44.9949)">
        <clipPath id="_clip34">
            <rect x="396.825" y="332.976" width="268.232" height="240.024"/>
        </clipPath>
        <g clip-path="url(#_clip34)">
            <g transform="matrix(1.45165,0,0,-1.45109,396.825,572.999)">
                <rect x="0" y="0" width="184.777" height="165.409" style="fill:rgb(248,224,255);stroke:rgb(214,170,227);stroke-width:4px;"/>
            </g>
            <g>
                <clipPath id="_clip35">
                    <rect x="414.84" y="389.451" width="42.138" height="41.412"/>
                </clipPath>
                <g clip-path="url(#_clip35)">
                    <g transform="matrix(1.45165,0,0,-1.45109,414.84,430.863)">
                        <rect x="0" y="0" width="29.027" height="28.539" style="fill:rgb(239,253,253);stroke:rgb(188,226,255);stroke-width:4px;"/>
                    </g>
                </g>
            </g>
            <g>
                <clipPath id="_clip36">
                    <rect x="478.222" y="389.451" width="42.138" height="41.412"/>
                </clipPath>
                <g clip-path="url(#_clip36)">
                    <g transform="matrix(1.45165,0,0,-1.45109,478.222,430.863)">
                        <rect x="0" y="0" width="29.027" height="28.539" style="fill:rgb(239,253,253);stroke:rgb(188,226,255);stroke-width:4px;"/>
                    </g>
                </g>
            </g>
            <g>
                <clipPath id="_clip37">
                    <rect x="542.137" y="389.451" width="42.138" height="41.412"/>
                </clipPath>
                <g clip-path="url(#_clip37)">
                    <g transform="matrix(1.45165,0,0,-1.45109,542.137,430.863)">
                        <rect x="0" y="0" width="29.027" height="28.539" style="fill:rgb(239,253,253);stroke:rgb(188,226,255);stroke-width:4px;"/>
                    </g>
                </g>
            </g>
            <g>
                <clipPath id="_clip38">
                    <rect x="606.045" y="389.451" width="42.138" height="41.412"/>
                </clipPath>
                <g clip-path="url(#_clip38)">
                    <g transform="matrix(1.45165,0,0,-1.45109,606.045,430.863)">
                        <rect x="0" y="0" width="29.027" height="28.539" style="fill:rgb(239,253,253);stroke:rgb(188,226,255);stroke-width:4px;"/>
                    </g>
                </g>
            </g>
            <g>
                <clipPath id="_clip39">
                    <rect x="414.84" y="452.749" width="42.138" height="41.412"/>
                </clipPath>
                <g clip-path="url(#_clip39)">
                    <g transform="matrix(1.45165,0,0,-1.45109,414.84,494.161)">
                        <rect x="0" y="0" width="29.027" height="28.539" style="fill:rgb(239,253,253);stroke:rgb(188,226,255);stroke-width:4px;"/>
                    </g>
                </g>
            </g>
            <g>
                <clipPath id="_clip40">
                    <rect x="478.222" y="452.749" width="42.138" height="41.412"/>
                </clipPath>
                <g clip-path="url(#_clip40)">
                    <g transform="matrix(1.45165,0,0,-1.45109,478.222,494.161)">
                        <rect x="0" y="0" width="29.027" height="28.539" style="fill:rgb(239,253,253);stroke:rgb(188,226,255);stroke-width:4px;"/>
                    </g>
                </g>
            </g>
            <g>
                <clipPath id="_clip41">
                    <rect x="542.137" y="452.749" width="42.138" height="41.412"/>
                </clipPath>
                <g clip-path="url(#_clip41)">
                    <g transform="matrix(1.45165,0,0,-1.45109,542.137,494.161)">
                        <rect x="0" y="0" width="29.027" height="28.539" style="fill:rgb(239,253,253);stroke:rgb(188,226,255);stroke-width:4px;"/>
                    </g>
                </g>
            </g>
            <g>
                <clipPath id="_clip42">
                    <rect x="606.045" y="452.749" width="42.138" height="41.412"/>
                </clipPath>
                <g clip-path="url(#_clip42)">
                    <g transform="matrix(1.45165,0,0,-1.45109,606.045,494.161)">
                        <rect x="0" y="0" width="29.027" height="28.539" style="fill:rgb(239,253,253);stroke:rgb(188,226,255);stroke-width:4px;"/>
                    </g>
                </g>
            </g>
            <g>
                <clipPath id="_clip43">
                    <rect x="414.84" y="516.332" width="42.138" height="41.412"/>
                </clipPath>
                <g clip-path="url(#_clip43)">
                    <g transform="matrix(1.45165,0,0,-1.45109,414.84,557.744)">
                        <rect x="0" y="0" width="29.027" height="28.539" style="fill:rgb(239,253,253);stroke:rgb(188,226,255);stroke-width:4px;"/>
                    </g>
                </g>
            </g>
            <g>
                <clipPath id="_clip44">
                    <rect x="478.222" y="516.332" width="42.138" height="41.412"/>
                </clipPath>
                <g clip-path="url(#_clip44)">
                    <g transform="matrix(1.45165,0,0,-1.45109,478.222,557.744)">
                        <rect x="0" y="0" width="29.027" height="28.539" style="fill:rgb(239,253,253);stroke:rgb(188,226,255);stroke-width:4px;"/>
                    </g>
                </g>
            </g>
            <g>
                <clipPath id="_clip45">
                    <rect x="542.137" y="516.332" width="42.138" height="41.412"/>
                </clipPath>
                <g clip-path="url(#_clip45)">
                    <g transform="matrix(1.45165,0,0,-1.45109,542.137,557.744)">
                        <rect x="0" y="0" width="29.027" height="28.539" style="fill:rgb(239,253,253);stroke:rgb(188,226,255);stroke-width:4px;"/>
                    </g>
                </g>
            </g>
            <g>
                <clipPath id="_clip46">
                    <rect x="606.045" y="516.332" width="42.138" height="41.412"/>
                </clipPath>
                <g clip-path="url(#_clip46)">
                    <g transform="matrix(1.45165,0,0,-1.45109,606.045,557.744)">
                        <rect x="0" y="0" width="29.027" height="28.539" style="fill:rgb(239,253,253);stroke:rgb(188,226,255);stroke-width:4px;"/>
                    </g>
                </g>
            </g>
            <g transform="matrix(20.3232,0,0,20.3153,466.342,368.712)">
                <path d="M0.378,-0.737C0.469,-0.737 0.54,-0.713 0.59,-0.665C0.64,-0.617 0.668,-0.563 0.673,-0.502L0.579,-0.502C0.568,-0.548 0.546,-0.585 0.514,-0.612C0.482,-0.639 0.437,-0.652 0.379,-0.652C0.309,-0.652 0.252,-0.628 0.208,-0.578C0.165,-0.528 0.143,-0.452 0.143,-0.35C0.143,-0.266 0.163,-0.198 0.202,-0.145C0.241,-0.093 0.3,-0.067 0.377,-0.067C0.449,-0.067 0.504,-0.094 0.541,-0.149C0.561,-0.178 0.576,-0.216 0.585,-0.264L0.68,-0.264C0.672,-0.188 0.644,-0.125 0.596,-0.074C0.539,-0.012 0.462,0.019 0.366,0.019C0.282,0.019 0.212,-0.007 0.156,-0.057C0.081,-0.124 0.044,-0.227 0.044,-0.366C0.044,-0.472 0.072,-0.559 0.128,-0.626C0.188,-0.7 0.272,-0.737 0.378,-0.737Z" style="fill:rgb(26,26,26);fill-rule:nonzero;"/>
            </g>
            <g transform="matrix(20.3232,0,0,20.3153,481.81,368.712)">
                <path d="M0.272,-0.057C0.33,-0.057 0.37,-0.079 0.392,-0.123C0.413,-0.167 0.424,-0.216 0.424,-0.27C0.424,-0.319 0.417,-0.359 0.401,-0.389C0.376,-0.437 0.333,-0.461 0.273,-0.461C0.219,-0.461 0.18,-0.441 0.156,-0.4C0.131,-0.359 0.119,-0.309 0.119,-0.251C0.119,-0.196 0.131,-0.149 0.156,-0.112C0.18,-0.075 0.219,-0.057 0.272,-0.057ZM0.275,-0.538C0.343,-0.538 0.4,-0.516 0.446,-0.471C0.493,-0.426 0.516,-0.36 0.516,-0.272C0.516,-0.188 0.496,-0.118 0.455,-0.063C0.414,-0.008 0.35,0.019 0.264,0.019C0.192,0.019 0.135,-0.005 0.092,-0.054C0.05,-0.103 0.029,-0.168 0.029,-0.25C0.029,-0.338 0.051,-0.408 0.096,-0.46C0.14,-0.512 0.2,-0.538 0.275,-0.538Z" style="fill:rgb(26,26,26);fill-rule:nonzero;"/>
            </g>
            <g transform="matrix(20.3232,0,0,20.3153,493.904,368.712)">
                <path d="M0.064,-0.523L0.151,-0.523L0.151,-0.449C0.172,-0.474 0.191,-0.493 0.208,-0.505C0.237,-0.525 0.27,-0.535 0.307,-0.535C0.348,-0.535 0.382,-0.524 0.407,-0.504C0.422,-0.492 0.435,-0.475 0.446,-0.452C0.466,-0.48 0.489,-0.501 0.515,-0.514C0.542,-0.528 0.571,-0.535 0.604,-0.535C0.674,-0.535 0.722,-0.509 0.748,-0.458C0.761,-0.431 0.768,-0.394 0.768,-0.348L0.768,-0L0.677,-0L0.677,-0.363C0.677,-0.398 0.668,-0.422 0.651,-0.435C0.633,-0.448 0.612,-0.455 0.587,-0.455C0.552,-0.455 0.523,-0.443 0.498,-0.42C0.473,-0.397 0.46,-0.358 0.46,-0.304L0.46,-0L0.371,-0L0.371,-0.341C0.371,-0.377 0.367,-0.403 0.358,-0.419C0.345,-0.443 0.32,-0.456 0.284,-0.456C0.25,-0.456 0.22,-0.443 0.193,-0.417C0.166,-0.391 0.152,-0.345 0.152,-0.277L0.152,-0L0.064,-0L0.064,-0.523Z" style="fill:rgb(26,26,26);fill-rule:nonzero;"/>
            </g>
            <g transform="matrix(20.3232,0,0,20.3153,511.624,368.712)">
                <path d="M0.285,-0.059C0.326,-0.059 0.36,-0.076 0.387,-0.111C0.415,-0.145 0.428,-0.196 0.428,-0.265C0.428,-0.306 0.422,-0.342 0.41,-0.372C0.387,-0.43 0.346,-0.458 0.285,-0.458C0.224,-0.458 0.183,-0.428 0.16,-0.367C0.148,-0.335 0.142,-0.293 0.142,-0.243C0.142,-0.203 0.148,-0.168 0.16,-0.14C0.183,-0.086 0.225,-0.059 0.285,-0.059ZM0.058,-0.521L0.143,-0.521L0.143,-0.451C0.161,-0.475 0.18,-0.493 0.201,-0.506C0.23,-0.526 0.265,-0.536 0.305,-0.536C0.364,-0.536 0.415,-0.513 0.456,-0.468C0.497,-0.422 0.518,-0.357 0.518,-0.273C0.518,-0.159 0.488,-0.078 0.429,-0.029C0.391,0.002 0.347,0.018 0.297,0.018C0.257,0.018 0.224,0.009 0.198,-0.008C0.182,-0.018 0.165,-0.035 0.146,-0.059L0.146,0.208L0.058,0.208L0.058,-0.521Z" style="fill:rgb(26,26,26);fill-rule:nonzero;"/>
            </g>
            <g transform="matrix(20.3232,0,0,20.3153,523.717,368.712)">
                <path d="M0.272,-0.057C0.33,-0.057 0.37,-0.079 0.392,-0.123C0.413,-0.167 0.424,-0.216 0.424,-0.27C0.424,-0.319 0.417,-0.359 0.401,-0.389C0.376,-0.437 0.333,-0.461 0.273,-0.461C0.219,-0.461 0.18,-0.441 0.156,-0.4C0.131,-0.359 0.119,-0.309 0.119,-0.251C0.119,-0.196 0.131,-0.149 0.156,-0.112C0.18,-0.075 0.219,-0.057 0.272,-0.057ZM0.275,-0.538C0.343,-0.538 0.4,-0.516 0.446,-0.471C0.493,-0.426 0.516,-0.36 0.516,-0.272C0.516,-0.188 0.496,-0.118 0.455,-0.063C0.414,-0.008 0.35,0.019 0.264,0.019C0.192,0.019 0.135,-0.005 0.092,-0.054C0.05,-0.103 0.029,-0.168 0.029,-0.25C0.029,-0.338 0.051,-0.408 0.096,-0.46C0.14,-0.512 0.2,-0.538 0.275,-0.538Z" style="fill:rgb(26,26,26);fill-rule:nonzero;"/>
            </g>
            <g transform="matrix(20.3232,0,0,20.3153,535.811,368.712)">
                <path d="M0.064,-0.523L0.148,-0.523L0.148,-0.449C0.173,-0.479 0.199,-0.501 0.227,-0.515C0.254,-0.528 0.285,-0.535 0.319,-0.535C0.393,-0.535 0.443,-0.509 0.469,-0.457C0.484,-0.429 0.491,-0.388 0.491,-0.335L0.491,-0L0.401,-0L0.401,-0.33C0.401,-0.361 0.397,-0.387 0.387,-0.407C0.372,-0.439 0.343,-0.456 0.302,-0.456C0.281,-0.456 0.264,-0.453 0.251,-0.449C0.227,-0.442 0.206,-0.428 0.188,-0.406C0.173,-0.389 0.163,-0.371 0.159,-0.353C0.155,-0.334 0.152,-0.308 0.152,-0.274L0.152,-0L0.064,-0L0.064,-0.523Z" style="fill:rgb(26,26,26);fill-rule:nonzero;"/>
            </g>
            <g transform="matrix(20.3232,0,0,20.3153,547.905,368.712)">
                <path d="M0.282,-0.535C0.319,-0.535 0.355,-0.526 0.39,-0.509C0.425,-0.491 0.451,-0.469 0.47,-0.441C0.487,-0.415 0.499,-0.384 0.505,-0.349C0.51,-0.325 0.513,-0.286 0.513,-0.233L0.129,-0.233C0.131,-0.18 0.144,-0.138 0.167,-0.106C0.19,-0.074 0.227,-0.058 0.276,-0.058C0.322,-0.058 0.358,-0.073 0.386,-0.103C0.401,-0.121 0.412,-0.141 0.419,-0.164L0.505,-0.164C0.503,-0.145 0.496,-0.123 0.483,-0.1C0.47,-0.076 0.455,-0.057 0.439,-0.042C0.413,-0.016 0.38,0.002 0.34,0.011C0.319,0.016 0.295,0.019 0.269,0.019C0.203,0.019 0.148,-0.005 0.103,-0.052C0.058,-0.1 0.035,-0.166 0.035,-0.251C0.035,-0.335 0.058,-0.404 0.104,-0.456C0.149,-0.508 0.209,-0.535 0.282,-0.535ZM0.422,-0.303C0.419,-0.341 0.41,-0.372 0.397,-0.395C0.373,-0.437 0.333,-0.458 0.277,-0.458C0.236,-0.458 0.203,-0.443 0.175,-0.414C0.148,-0.385 0.133,-0.348 0.132,-0.303L0.422,-0.303Z" style="fill:rgb(26,26,26);fill-rule:nonzero;"/>
            </g>
            <g transform="matrix(20.3232,0,0,20.3153,559.998,368.712)">
                <path d="M0.064,-0.523L0.148,-0.523L0.148,-0.449C0.173,-0.479 0.199,-0.501 0.227,-0.515C0.254,-0.528 0.285,-0.535 0.319,-0.535C0.393,-0.535 0.443,-0.509 0.469,-0.457C0.484,-0.429 0.491,-0.388 0.491,-0.335L0.491,-0L0.401,-0L0.401,-0.33C0.401,-0.361 0.397,-0.387 0.387,-0.407C0.372,-0.439 0.343,-0.456 0.302,-0.456C0.281,-0.456 0.264,-0.453 0.251,-0.449C0.227,-0.442 0.206,-0.428 0.188,-0.406C0.173,-0.389 0.163,-0.371 0.159,-0.353C0.155,-0.334 0.152,-0.308 0.152,-0.274L0.152,-0L0.064,-0L0.064,-0.523Z" style="fill:rgb(26,26,26);fill-rule:nonzero;"/>
            </g>
            <g transform="matrix(20.3232,0,0,20.3153,572.092,368.712)">
                <path d="M0.082,-0.669L0.171,-0.669L0.171,-0.523L0.254,-0.523L0.254,-0.451L0.171,-0.451L0.171,-0.11C0.171,-0.092 0.177,-0.079 0.189,-0.073C0.196,-0.07 0.208,-0.068 0.224,-0.068C0.228,-0.068 0.232,-0.068 0.237,-0.068C0.242,-0.068 0.248,-0.069 0.254,-0.069L0.254,-0C0.244,0.003 0.234,0.005 0.223,0.006C0.212,0.008 0.2,0.008 0.188,0.008C0.146,0.008 0.119,-0.002 0.104,-0.023C0.089,-0.044 0.082,-0.071 0.082,-0.105L0.082,-0.451L0.011,-0.451L0.011,-0.523L0.082,-0.523L0.082,-0.669Z" style="fill:rgb(26,26,26);fill-rule:nonzero;"/>
            </g>
            <g transform="matrix(20.3232,0,0,20.3153,583.79,368.712)">
                <path d="M0.352,-0.083C0.384,-0.083 0.411,-0.086 0.433,-0.093C0.47,-0.106 0.501,-0.13 0.525,-0.167C0.545,-0.195 0.558,-0.233 0.567,-0.278C0.572,-0.305 0.574,-0.33 0.574,-0.353C0.574,-0.442 0.557,-0.511 0.521,-0.56C0.486,-0.609 0.429,-0.634 0.351,-0.634L0.178,-0.634L0.178,-0.083L0.352,-0.083ZM0.081,-0.717L0.371,-0.717C0.47,-0.717 0.546,-0.682 0.601,-0.612C0.649,-0.549 0.673,-0.468 0.673,-0.37C0.673,-0.293 0.659,-0.225 0.63,-0.163C0.58,-0.054 0.493,-0 0.37,-0L0.081,-0L0.081,-0.717Z" style="fill:rgb(26,26,26);fill-rule:nonzero;"/>
            </g>
        </g>
    </g>
    <g transform="matrix(4.16667,0,0,4.16667,43.368,44.9949)">
        <g transform="matrix(20.3232,0,0,20.3153,852.983,368.712)">
            <path d="M0.378,-0.737C0.469,-0.737 0.54,-0.713 0.59,-0.665C0.64,-0.617 0.668,-0.563 0.673,-0.502L0.579,-0.502C0.568,-0.548 0.546,-0.585 0.514,-0.612C0.482,-0.639 0.437,-0.652 0.379,-0.652C0.309,-0.652 0.252,-0.628 0.208,-0.578C0.165,-0.528 0.143,-0.452 0.143,-0.35C0.143,-0.266 0.163,-0.198 0.202,-0.145C0.241,-0.093 0.3,-0.067 0.377,-0.067C0.449,-0.067 0.504,-0.094 0.541,-0.149C0.561,-0.178 0.576,-0.216 0.585,-0.264L0.68,-0.264C0.672,-0.188 0.644,-0.125 0.596,-0.074C0.539,-0.012 0.462,0.019 0.366,0.019C0.282,0.019 0.212,-0.007 0.156,-0.057C0.081,-0.124 0.044,-0.227 0.044,-0.366C0.044,-0.472 0.072,-0.559 0.128,-0.626C0.188,-0.7 0.272,-0.737 0.378,-0.737Z" style="fill:rgb(26,26,26);fill-rule:nonzero;"/>
        </g>
        <g transform="matrix(20.3232,0,0,20.3153,868.45,368.712)">
            <path d="M0.272,-0.057C0.33,-0.057 0.37,-0.079 0.392,-0.123C0.413,-0.167 0.424,-0.216 0.424,-0.27C0.424,-0.319 0.417,-0.359 0.401,-0.389C0.376,-0.437 0.333,-0.461 0.273,-0.461C0.219,-0.461 0.18,-0.441 0.156,-0.4C0.131,-0.359 0.119,-0.309 0.119,-0.251C0.119,-0.196 0.131,-0.149 0.156,-0.112C0.18,-0.075 0.219,-0.057 0.272,-0.057ZM0.275,-0.538C0.343,-0.538 0.4,-0.516 0.446,-0.471C0.493,-0.426 0.516,-0.36 0.516,-0.272C0.516,-0.188 0.496,-0.118 0.455,-0.063C0.414,-0.008 0.35,0.019 0.264,0.019C0.192,0.019 0.135,-0.005 0.092,-0.054C0.05,-0.103 0.029,-0.168 0.029,-0.25C0.029,-0.338 0.051,-0.408 0.096,-0.46C0.14,-0.512 0.2,-0.538 0.275,-0.538Z" style="fill:rgb(26,26,26);fill-rule:nonzero;"/>
        </g>
        <g transform="matrix(20.3232,0,0,20.3153,880.544,368.712)">
            <path d="M0.064,-0.523L0.151,-0.523L0.151,-0.449C0.172,-0.474 0.191,-0.493 0.208,-0.505C0.237,-0.525 0.27,-0.535 0.307,-0.535C0.348,-0.535 0.382,-0.524 0.407,-0.504C0.422,-0.492 0.435,-0.475 0.446,-0.452C0.466,-0.48 0.489,-0.501 0.515,-0.514C0.542,-0.528 0.571,-0.535 0.604,-0.535C0.674,-0.535 0.722,-0.509 0.748,-0.458C0.761,-0.431 0.768,-0.394 0.768,-0.348L0.768,-0L0.677,-0L0.677,-0.363C0.677,-0.398 0.668,-0.422 0.651,-0.435C0.633,-0.448 0.612,-0.455 0.587,-0.455C0.552,-0.455 0.523,-0.443 0.498,-0.42C0.473,-0.397 0.46,-0.358 0.46,-0.304L0.46,-0L0.371,-0L0.371,-0.341C0.371,-0.377 0.367,-0.403 0.358,-0.419C0.345,-0.443 0.32,-0.456 0.284,-0.456C0.25,-0.456 0.22,-0.443 0.193,-0.417C0.166,-0.391 0.152,-0.345 0.152,-0.277L0.152,-0L0.064,-0L0.064,-0.523Z" style="fill:rgb(26,26,26);fill-rule:nonzero;"/>
        </g>
        <g transform="matrix(20.3232,0,0,20.3153,898.264,368.712)">
            <path d="M0.285,-0.059C0.326,-0.059 0.36,-0.076 0.387,-0.111C0.415,-0.145 0.428,-0.196 0.428,-0.265C0.428,-0.306 0.422,-0.342 0.41,-0.372C0.387,-0.43 0.346,-0.458 0.285,-0.458C0.224,-0.458 0.183,-0.428 0.16,-0.367C0.148,-0.335 0.142,-0.293 0.142,-0.243C0.142,-0.203 0.148,-0.168 0.16,-0.14C0.183,-0.086 0.225,-0.059 0.285,-0.059ZM0.058,-0.521L0.143,-0.521L0.143,-0.451C0.161,-0.475 0.18,-0.493 0.201,-0.506C0.23,-0.526 0.265,-0.536 0.305,-0.536C0.364,-0.536 0.415,-0.513 0.456,-0.468C0.497,-0.422 0.518,-0.357 0.518,-0.273C0.518,-0.159 0.488,-0.078 0.429,-0.029C0.391,0.002 0.347,0.018 0.297,0.018C0.257,0.018 0.224,0.009 0.198,-0.008C0.182,-0.018 0.165,-0.035 0.146,-0.059L0.146,0.208L0.058,0.208L0.058,-0.521Z" style="fill:rgb(26,26,26);fill-rule:nonzero;"/>
        </g>
        <g transform="matrix(20.3232,0,0,20.3153,910.357,368.712)">
            <path d="M0.272,-0.057C0.33,-0.057 0.37,-0.079 0.392,-0.123C0.413,-0.167 0.424,-0.216 0.424,-0.27C0.424,-0.319 0.417,-0.359 0.401,-0.389C0.376,-0.437 0.333,-0.461 0.273,-0.461C0.219,-0.461 0.18,-0.441 0.156,-0.4C0.131,-0.359 0.119,-0.309 0.119,-0.251C0.119,-0.196 0.131,-0.149 0.156,-0.112C0.18,-0.075 0.219,-0.057 0.272,-0.057ZM0.275,-0.538C0.343,-0.538 0.4,-0.516 0.446,-0.471C0.493,-0.426 0.516,-0.36 0.516,-0.272C0.516,-0.188 0.496,-0.118 0.455,-0.063C0.414,-0.008 0.35,0.019 0.264,0.019C0.192,0.019 0.135,-0.005 0.092,-0.054C0.05,-0.103 0.029,-0.168 0.029,-0.25C0.029,-0.338 0.051,-0.408 0.096,-0.46C0.14,-0.512 0.2,-0.538 0.275,-0.538Z" style="fill:rgb(26,26,26);fill-rule:nonzero;"/>
        </g>
        <g transform="matrix(20.3232,0,0,20.3153,922.451,368.712)">
            <path d="M0.064,-0.523L0.148,-0.523L0.148,-0.449C0.173,-0.479 0.199,-0.501 0.227,-0.515C0.254,-0.528 0.285,-0.535 0.319,-0.535C0.393,-0.535 0.443,-0.509 0.469,-0.457C0.484,-0.429 0.491,-0.388 0.491,-0.335L0.491,-0L0.401,-0L0.401,-0.33C0.401,-0.361 0.397,-0.387 0.387,-0.407C0.372,-0.439 0.343,-0.456 0.302,-0.456C0.281,-0.456 0.264,-0.453 0.251,-0.449C0.227,-0.442 0.206,-0.428 0.188,-0.406C0.173,-0.389 0.163,-0.371 0.159,-0.353C0.155,-0.334 0.152,-0.308 0.152,-0.274L0.152,-0L0.064,-0L0.064,-0.523Z" style="fill:rgb(26,26,26);fill-rule:nonzero;"/>
        </g>
        <g transform="matrix(20.3232,0,0,20.3153,934.545,368.712)">
            <path d="M0.282,-0.535C0.319,-0.535 0.355,-0.526 0.39,-0.509C0.425,-0.491 0.451,-0.469 0.47,-0.441C0.487,-0.415 0.499,-0.384 0.505,-0.349C0.51,-0.325 0.513,-0.286 0.513,-0.233L0.129,-0.233C0.131,-0.18 0.144,-0.138 0.167,-0.106C0.19,-0.074 0.227,-0.058 0.276,-0.058C0.322,-0.058 0.358,-0.073 0.386,-0.103C0.401,-0.121 0.412,-0.141 0.419,-0.164L0.505,-0.164C0.503,-0.145 0.496,-0.123 0.483,-0.1C0.47,-0.076 0.455,-0.057 0.439,-0.042C0.413,-0.016 0.38,0.002 0.34,0.011C0.319,0.016 0.295,0.019 0.269,0.019C0.203,0.019 0.148,-0.005 0.103,-0.052C0.058,-0.1 0.035,-0.166 0.035,-0.251C0.035,-0.335 0.058,-0.404 0.104,-0.456C0.149,-0.508 0.209,-0.535 0.282,-0.535ZM0.422,-0.303C0.419,-0.341 0.41,-0.372 0.397,-0.395C0.373,-0.437 0.333,-0.458 0.277,-0.458C0.236,-0.458 0.203,-0.443 0.175,-0.414C0.148,-0.385 0.133,-0.348 0.132,-0.303L0.422,-0.303Z" style="fill:rgb(26,26,26);fill-rule:nonzero;"/>
        </g>
        <g transform="matrix(20.3232,0,0,20.3153,946.638,368.712)">
            <path d="M0.064,-0.523L0.148,-0.523L0.148,-0.449C0.173,-0.479 0.199,-0.501 0.227,-0.515C0.254,-0.528 0.285,-0.535 0.319,-0.535C0.393,-0.535 0.443,-0.509 0.469,-0.457C0.484,-0.429 0.491,-0.388 0.491,-0.335L0.491,-0L0.401,-0L0.401,-0.33C0.401,-0.361 0.397,-0.387 0.387,-0.407C0.372,-0.439 0.343,-0.456 0.302,-0.456C0.281,-0.456 0.264,-0.453 0.251,-0.449C0.227,-0.442 0.206,-0.428 0.188,-0.406C0.173,-0.389 0.163,-0.371 0.159,-0.353C0.155,-0.334 0.152,-0.308 0.152,-0.274L0.152,-0L0.064,-0L0.064,-0.523Z" style="fill:rgb(26,26,26);fill-rule:nonzero;"/>
        </g>
        <g transform="matrix(20.3232,0,0,20.3153,958.732,368.712)">
            <path d="M0.082,-0.669L0.171,-0.669L0.171,-0.523L0.254,-0.523L0.254,-0.451L0.171,-0.451L0.171,-0.11C0.171,-0.092 0.177,-0.079 0.189,-0.073C0.196,-0.07 0.208,-0.068 0.224,-0.068C0.228,-0.068 0.232,-0.068 0.237,-0.068C0.242,-0.068 0.248,-0.069 0.254,-0.069L0.254,-0C0.244,0.003 0.234,0.005 0.223,0.006C0.212,0.008 0.2,0.008 0.188,0.008C0.146,0.008 0.119,-0.002 0.104,-0.023C0.089,-0.044 0.082,-0.071 0.082,-0.105L0.082,-0.451L0.011,-0.451L0.011,-0.523L0.082,-0.523L0.082,-0.669Z" style="fill:rgb(26,26,26);fill-rule:nonzero;"/>
        </g>
        <g transform="matrix(20.3232,0,0,20.3153,970.43,368.712)">
            <path d="M0.085,-0.717L0.608,-0.717L0.608,-0.629L0.18,-0.629L0.18,-0.412L0.576,-0.412L0.576,-0.329L0.18,-0.329L0.18,-0.085L0.616,-0.085L0.616,-0L0.085,-0L0.085,-0.717Z" style="fill:rgb(26,26,26);fill-rule:nonzero;"/>
        </g>
    </g>
    <g transform="matrix(0,6.04621,-6.04856,0,2516.27,1115.11)">
        <path d="M-42.293,43.093L42.293,43.093" style="fill:none;fill-rule:nonzero;stroke:rgb(51,51,51);stroke-width:2px;"/>
    </g>
    <g transform="matrix(3.70367e-16,6.04621,6.04856,-3.70223e-16,2255.62,1432.38)">
        <path d="M-12.727,7.545L0,0L-12.727,-7.545L-12.727,7.545Z" style="fill:rgb(51,51,51);fill-rule:nonzero;"/>
    </g>
    <g transform="matrix(6.04856,0,0,-6.04621,2419.49,1375.66)">
        <path d="M0,85.386L0,46.402C0,41.069 2.667,38.402 8,38.402L231.249,38.402C236.582,38.402 239.249,35.736 239.249,30.402L239.249,0.8" style="fill:none;fill-rule:nonzero;stroke:rgb(51,51,51);stroke-width:2px;"/>
    </g>
    <g transform="matrix(3.70367e-16,6.04621,6.04856,-3.70223e-16,3866.6,1432.38)">
        <path d="M-12.727,7.545L0,0L-12.727,-7.545L-12.727,7.545Z" style="fill:rgb(51,51,51);fill-rule:nonzero;"/>
    </g>
    <g transform="matrix(6.04855,-0.00671332,0.00671593,6.0462,3317.46,556.279)">
        <path d="M0.8,0.085L133.718,0.085" style="fill:none;fill-rule:nonzero;stroke:rgb(51,51,51);stroke-width:2px;"/>
    </g>
    <g transform="matrix(6.04855,-0.00671332,-0.00671593,-6.0462,4187.85,555.828)">
        <path d="M-12.727,7.545L0,0L-12.727,-7.545L-12.727,7.545Z" style="fill:rgb(51,51,51);fill-rule:nonzero;"/>
    </g>
</svg>
