<?xml version="1.0" encoding="UTF-8" standalone="no"?>
<!DOCTYPE svg PUBLIC "-//W3C//DTD SVG 1.1//EN" "http://www.w3.org/Graphics/SVG/1.1/DTD/svg11.dtd">
<svg width="100%" height="100%" viewBox="0 0 1149 171" version="1.1" xmlns="http://www.w3.org/2000/svg" xmlns:xlink="http://www.w3.org/1999/xlink" xml:space="preserve" xmlns:serif="http://www.serif.com/" style="fill-rule:evenodd;clip-rule:evenodd;stroke-linejoin:round;stroke-miterlimit:2;">
    <g id="Attestations" transform="matrix(1,0,0,1,878.084,2.84217e-14)">
        <g transform="matrix(1.17315,0,0,1.05894,55.0489,19.3026)">
            <path d="M183.226,-18.228L89.461,-18.228L-46.924,142.31L46.841,142.31L183.226,-18.228Z" style="fill:rgb(186,231,193);"/>
        </g>
        <g transform="matrix(0.687063,-0.726598,0.726598,0.687063,-50.3574,174.579)">
            <g transform="matrix(24,0,0,24,120.355,78.8299)">
                <path d="M0.553,-0.187L0.163,-0.187L0.079,-0L0.002,-0L0.322,-0.7L0.395,-0.7L0.715,-0L0.637,-0L0.553,-0.187ZM0.526,-0.247L0.358,-0.623L0.19,-0.247L0.526,-0.247Z" style="fill-rule:nonzero;"/>
            </g>
            <g transform="matrix(24,0,0,24,137.443,78.8299)">
                <path d="M0.376,-0.032C0.363,-0.02 0.346,-0.011 0.327,-0.005C0.307,0.002 0.286,0.005 0.265,0.005C0.216,0.005 0.178,-0.008 0.151,-0.035C0.124,-0.062 0.111,-0.099 0.111,-0.148L0.111,-0.466L0.017,-0.466L0.017,-0.526L0.111,-0.526L0.111,-0.641L0.182,-0.641L0.182,-0.526L0.342,-0.526L0.342,-0.466L0.182,-0.466L0.182,-0.152C0.182,-0.121 0.19,-0.097 0.206,-0.081C0.221,-0.064 0.244,-0.056 0.273,-0.056C0.288,-0.056 0.302,-0.058 0.316,-0.063C0.329,-0.068 0.341,-0.074 0.351,-0.083L0.376,-0.032Z" style="fill-rule:nonzero;"/>
            </g>
            <g transform="matrix(24,0,0,24,146.851,78.8299)">
                <path d="M0.376,-0.032C0.363,-0.02 0.346,-0.011 0.327,-0.005C0.307,0.002 0.286,0.005 0.265,0.005C0.216,0.005 0.178,-0.008 0.151,-0.035C0.124,-0.062 0.111,-0.099 0.111,-0.148L0.111,-0.466L0.017,-0.466L0.017,-0.526L0.111,-0.526L0.111,-0.641L0.182,-0.641L0.182,-0.526L0.342,-0.526L0.342,-0.466L0.182,-0.466L0.182,-0.152C0.182,-0.121 0.19,-0.097 0.206,-0.081C0.221,-0.064 0.244,-0.056 0.273,-0.056C0.288,-0.056 0.302,-0.058 0.316,-0.063C0.329,-0.068 0.341,-0.074 0.351,-0.083L0.376,-0.032Z" style="fill-rule:nonzero;"/>
            </g>
            <g transform="matrix(24,0,0,24,156.139,78.8299)">
                <path d="M0.557,-0.241L0.117,-0.241C0.121,-0.186 0.142,-0.142 0.18,-0.109C0.218,-0.075 0.266,-0.058 0.324,-0.058C0.357,-0.058 0.387,-0.064 0.414,-0.076C0.441,-0.087 0.465,-0.104 0.485,-0.127L0.525,-0.081C0.502,-0.053 0.472,-0.032 0.438,-0.017C0.403,-0.002 0.364,0.005 0.322,0.005C0.268,0.005 0.22,-0.007 0.179,-0.03C0.137,-0.053 0.104,-0.084 0.081,-0.125C0.058,-0.166 0.046,-0.212 0.046,-0.263C0.046,-0.314 0.057,-0.36 0.08,-0.401C0.102,-0.442 0.133,-0.473 0.172,-0.496C0.211,-0.519 0.254,-0.53 0.303,-0.53C0.352,-0.53 0.395,-0.519 0.434,-0.496C0.473,-0.473 0.503,-0.442 0.525,-0.402C0.547,-0.361 0.558,-0.315 0.558,-0.263L0.557,-0.241ZM0.303,-0.469C0.252,-0.469 0.21,-0.453 0.176,-0.421C0.141,-0.388 0.122,-0.346 0.117,-0.294L0.49,-0.294C0.485,-0.346 0.466,-0.388 0.432,-0.421C0.397,-0.453 0.354,-0.469 0.303,-0.469Z" style="fill-rule:nonzero;"/>
            </g>
            <g transform="matrix(24,0,0,24,170.635,78.8299)">
                <path d="M0.24,0.005C0.197,0.005 0.157,-0.001 0.118,-0.014C0.079,-0.026 0.048,-0.041 0.026,-0.06L0.058,-0.116C0.08,-0.099 0.108,-0.085 0.141,-0.074C0.174,-0.063 0.209,-0.057 0.245,-0.057C0.293,-0.057 0.329,-0.065 0.352,-0.08C0.375,-0.095 0.386,-0.116 0.386,-0.143C0.386,-0.162 0.38,-0.178 0.367,-0.189C0.354,-0.2 0.338,-0.208 0.319,-0.214C0.3,-0.219 0.274,-0.225 0.242,-0.23C0.199,-0.238 0.165,-0.246 0.139,-0.255C0.113,-0.263 0.091,-0.277 0.073,-0.297C0.054,-0.317 0.045,-0.345 0.045,-0.38C0.045,-0.424 0.063,-0.46 0.1,-0.488C0.137,-0.516 0.188,-0.53 0.253,-0.53C0.287,-0.53 0.321,-0.526 0.355,-0.517C0.389,-0.507 0.417,-0.496 0.439,-0.481L0.408,-0.424C0.365,-0.454 0.313,-0.469 0.253,-0.469C0.208,-0.469 0.173,-0.461 0.151,-0.445C0.128,-0.429 0.116,-0.408 0.116,-0.382C0.116,-0.362 0.123,-0.346 0.136,-0.334C0.149,-0.322 0.165,-0.313 0.184,-0.308C0.203,-0.302 0.23,-0.296 0.264,-0.29C0.306,-0.282 0.34,-0.274 0.365,-0.266C0.39,-0.258 0.412,-0.244 0.43,-0.225C0.448,-0.206 0.457,-0.179 0.457,-0.145C0.457,-0.099 0.438,-0.063 0.4,-0.036C0.361,-0.009 0.308,0.005 0.24,0.005Z" style="fill-rule:nonzero;"/>
            </g>
            <g transform="matrix(24,0,0,24,182.371,78.8299)">
                <path d="M0.376,-0.032C0.363,-0.02 0.346,-0.011 0.327,-0.005C0.307,0.002 0.286,0.005 0.265,0.005C0.216,0.005 0.178,-0.008 0.151,-0.035C0.124,-0.062 0.111,-0.099 0.111,-0.148L0.111,-0.466L0.017,-0.466L0.017,-0.526L0.111,-0.526L0.111,-0.641L0.182,-0.641L0.182,-0.526L0.342,-0.526L0.342,-0.466L0.182,-0.466L0.182,-0.152C0.182,-0.121 0.19,-0.097 0.206,-0.081C0.221,-0.064 0.244,-0.056 0.273,-0.056C0.288,-0.056 0.302,-0.058 0.316,-0.063C0.329,-0.068 0.341,-0.074 0.351,-0.083L0.376,-0.032Z" style="fill-rule:nonzero;"/>
            </g>
            <g transform="matrix(24,0,0,24,192.115,78.8299)">
                <path d="M0.283,-0.53C0.352,-0.53 0.404,-0.513 0.441,-0.479C0.478,-0.444 0.496,-0.393 0.496,-0.326L0.496,-0L0.428,-0L0.428,-0.082C0.412,-0.055 0.389,-0.033 0.358,-0.018C0.327,-0.003 0.29,0.005 0.247,0.005C0.188,0.005 0.142,-0.009 0.107,-0.037C0.072,-0.065 0.055,-0.102 0.055,-0.148C0.055,-0.193 0.071,-0.229 0.104,-0.256C0.136,-0.283 0.187,-0.297 0.258,-0.297L0.425,-0.297L0.425,-0.329C0.425,-0.374 0.412,-0.409 0.387,-0.433C0.362,-0.456 0.325,-0.468 0.276,-0.468C0.243,-0.468 0.211,-0.463 0.18,-0.452C0.149,-0.44 0.123,-0.425 0.101,-0.406L0.069,-0.459C0.096,-0.482 0.128,-0.499 0.165,-0.512C0.202,-0.524 0.242,-0.53 0.283,-0.53ZM0.258,-0.051C0.298,-0.051 0.332,-0.06 0.361,-0.079C0.39,-0.097 0.411,-0.123 0.425,-0.158L0.425,-0.244L0.26,-0.244C0.17,-0.244 0.125,-0.213 0.125,-0.15C0.125,-0.119 0.137,-0.095 0.16,-0.078C0.183,-0.06 0.216,-0.051 0.258,-0.051Z" style="fill-rule:nonzero;"/>
            </g>
            <g transform="matrix(24,0,0,24,206.275,78.8299)">
                <path d="M0.376,-0.032C0.363,-0.02 0.346,-0.011 0.327,-0.005C0.307,0.002 0.286,0.005 0.265,0.005C0.216,0.005 0.178,-0.008 0.151,-0.035C0.124,-0.062 0.111,-0.099 0.111,-0.148L0.111,-0.466L0.017,-0.466L0.017,-0.526L0.111,-0.526L0.111,-0.641L0.182,-0.641L0.182,-0.526L0.342,-0.526L0.342,-0.466L0.182,-0.466L0.182,-0.152C0.182,-0.121 0.19,-0.097 0.206,-0.081C0.221,-0.064 0.244,-0.056 0.273,-0.056C0.288,-0.056 0.302,-0.058 0.316,-0.063C0.329,-0.068 0.341,-0.074 0.351,-0.083L0.376,-0.032Z" style="fill-rule:nonzero;"/>
            </g>
            <g transform="matrix(24,0,0,24,216.019,78.8299)">
                <path d="M0.099,-0.526L0.17,-0.526L0.17,-0L0.099,-0L0.099,-0.526ZM0.135,-0.641C0.12,-0.641 0.108,-0.646 0.098,-0.656C0.088,-0.666 0.083,-0.678 0.083,-0.692C0.083,-0.705 0.088,-0.717 0.098,-0.727C0.108,-0.737 0.12,-0.742 0.135,-0.742C0.15,-0.742 0.162,-0.737 0.172,-0.728C0.182,-0.718 0.187,-0.706 0.187,-0.693C0.187,-0.678 0.182,-0.666 0.172,-0.656C0.162,-0.646 0.15,-0.641 0.135,-0.641Z" style="fill-rule:nonzero;"/>
            </g>
            <g transform="matrix(24,0,0,24,222.475,78.8299)">
                <path d="M0.314,0.005C0.263,0.005 0.218,-0.007 0.177,-0.03C0.136,-0.053 0.104,-0.084 0.081,-0.125C0.058,-0.166 0.046,-0.212 0.046,-0.263C0.046,-0.314 0.058,-0.36 0.081,-0.401C0.104,-0.442 0.136,-0.473 0.177,-0.496C0.218,-0.519 0.263,-0.53 0.314,-0.53C0.365,-0.53 0.41,-0.519 0.451,-0.496C0.492,-0.473 0.524,-0.442 0.547,-0.401C0.57,-0.36 0.581,-0.314 0.581,-0.263C0.581,-0.212 0.57,-0.166 0.547,-0.125C0.524,-0.084 0.492,-0.053 0.451,-0.03C0.41,-0.007 0.365,0.005 0.314,0.005ZM0.314,-0.058C0.351,-0.058 0.385,-0.067 0.415,-0.084C0.444,-0.1 0.467,-0.125 0.484,-0.156C0.501,-0.187 0.509,-0.223 0.509,-0.263C0.509,-0.303 0.501,-0.339 0.484,-0.37C0.467,-0.401 0.444,-0.426 0.415,-0.443C0.385,-0.46 0.351,-0.468 0.314,-0.468C0.277,-0.468 0.243,-0.46 0.214,-0.443C0.184,-0.426 0.161,-0.401 0.144,-0.37C0.127,-0.339 0.118,-0.303 0.118,-0.263C0.118,-0.223 0.127,-0.187 0.144,-0.156C0.161,-0.125 0.184,-0.1 0.214,-0.084C0.243,-0.067 0.277,-0.058 0.314,-0.058Z" style="fill-rule:nonzero;"/>
            </g>
            <g transform="matrix(24,0,0,24,237.523,78.8299)">
                <path d="M0.367,-0.53C0.433,-0.53 0.486,-0.511 0.525,-0.473C0.564,-0.434 0.583,-0.378 0.583,-0.305L0.583,-0L0.512,-0L0.512,-0.298C0.512,-0.353 0.498,-0.394 0.471,-0.423C0.444,-0.452 0.405,-0.466 0.354,-0.466C0.297,-0.466 0.253,-0.449 0.22,-0.416C0.187,-0.382 0.17,-0.335 0.17,-0.276L0.17,-0L0.099,-0L0.099,-0.526L0.167,-0.526L0.167,-0.429C0.186,-0.461 0.213,-0.486 0.248,-0.504C0.282,-0.521 0.322,-0.53 0.367,-0.53Z" style="fill-rule:nonzero;"/>
            </g>
            <g transform="matrix(24,0,0,24,253.771,78.8299)">
                <path d="M0.24,0.005C0.197,0.005 0.157,-0.001 0.118,-0.014C0.079,-0.026 0.048,-0.041 0.026,-0.06L0.058,-0.116C0.08,-0.099 0.108,-0.085 0.141,-0.074C0.174,-0.063 0.209,-0.057 0.245,-0.057C0.293,-0.057 0.329,-0.065 0.352,-0.08C0.375,-0.095 0.386,-0.116 0.386,-0.143C0.386,-0.162 0.38,-0.178 0.367,-0.189C0.354,-0.2 0.338,-0.208 0.319,-0.214C0.3,-0.219 0.274,-0.225 0.242,-0.23C0.199,-0.238 0.165,-0.246 0.139,-0.255C0.113,-0.263 0.091,-0.277 0.073,-0.297C0.054,-0.317 0.045,-0.345 0.045,-0.38C0.045,-0.424 0.063,-0.46 0.1,-0.488C0.137,-0.516 0.188,-0.53 0.253,-0.53C0.287,-0.53 0.321,-0.526 0.355,-0.517C0.389,-0.507 0.417,-0.496 0.439,-0.481L0.408,-0.424C0.365,-0.454 0.313,-0.469 0.253,-0.469C0.208,-0.469 0.173,-0.461 0.151,-0.445C0.128,-0.429 0.116,-0.408 0.116,-0.382C0.116,-0.362 0.123,-0.346 0.136,-0.334C0.149,-0.322 0.165,-0.313 0.184,-0.308C0.203,-0.302 0.23,-0.296 0.264,-0.29C0.306,-0.282 0.34,-0.274 0.365,-0.266C0.39,-0.258 0.412,-0.244 0.43,-0.225C0.448,-0.206 0.457,-0.179 0.457,-0.145C0.457,-0.099 0.438,-0.063 0.4,-0.036C0.361,-0.009 0.308,0.005 0.24,0.005Z" style="fill-rule:nonzero;"/>
            </g>
        </g>
    </g>
    <g id="Annotations" transform="matrix(1,0,0,1,768.778,1.42109e-14)">
        <g transform="matrix(1.17315,0,0,1.05894,55.0489,19.3026)">
            <path d="M183.226,-18.228L89.461,-18.228L-46.924,142.31L46.841,142.31L183.226,-18.228Z" style="fill:rgb(236,181,226);"/>
        </g>
        <g transform="matrix(0.687063,-0.726598,0.726598,0.687063,-51.2973,175.573)">
            <g transform="matrix(24,0,0,24,120.355,78.8299)">
                <path d="M0.553,-0.187L0.163,-0.187L0.079,-0L0.002,-0L0.322,-0.7L0.395,-0.7L0.715,-0L0.637,-0L0.553,-0.187ZM0.526,-0.247L0.358,-0.623L0.19,-0.247L0.526,-0.247Z" style="fill-rule:nonzero;"/>
            </g>
            <g transform="matrix(24,0,0,24,137.563,78.8299)">
                <path d="M0.367,-0.53C0.433,-0.53 0.486,-0.511 0.525,-0.473C0.564,-0.434 0.583,-0.378 0.583,-0.305L0.583,-0L0.512,-0L0.512,-0.298C0.512,-0.353 0.498,-0.394 0.471,-0.423C0.444,-0.452 0.405,-0.466 0.354,-0.466C0.297,-0.466 0.253,-0.449 0.22,-0.416C0.187,-0.382 0.17,-0.335 0.17,-0.276L0.17,-0L0.099,-0L0.099,-0.526L0.167,-0.526L0.167,-0.429C0.186,-0.461 0.213,-0.486 0.248,-0.504C0.282,-0.521 0.322,-0.53 0.367,-0.53Z" style="fill-rule:nonzero;"/>
            </g>
            <g transform="matrix(24,0,0,24,153.811,78.8299)">
                <path d="M0.367,-0.53C0.433,-0.53 0.486,-0.511 0.525,-0.473C0.564,-0.434 0.583,-0.378 0.583,-0.305L0.583,-0L0.512,-0L0.512,-0.298C0.512,-0.353 0.498,-0.394 0.471,-0.423C0.444,-0.452 0.405,-0.466 0.354,-0.466C0.297,-0.466 0.253,-0.449 0.22,-0.416C0.187,-0.382 0.17,-0.335 0.17,-0.276L0.17,-0L0.099,-0L0.099,-0.526L0.167,-0.526L0.167,-0.429C0.186,-0.461 0.213,-0.486 0.248,-0.504C0.282,-0.521 0.322,-0.53 0.367,-0.53Z" style="fill-rule:nonzero;"/>
            </g>
            <g transform="matrix(24,0,0,24,170.059,78.8299)">
                <path d="M0.314,0.005C0.263,0.005 0.218,-0.007 0.177,-0.03C0.136,-0.053 0.104,-0.084 0.081,-0.125C0.058,-0.166 0.046,-0.212 0.046,-0.263C0.046,-0.314 0.058,-0.36 0.081,-0.401C0.104,-0.442 0.136,-0.473 0.177,-0.496C0.218,-0.519 0.263,-0.53 0.314,-0.53C0.365,-0.53 0.41,-0.519 0.451,-0.496C0.492,-0.473 0.524,-0.442 0.547,-0.401C0.57,-0.36 0.581,-0.314 0.581,-0.263C0.581,-0.212 0.57,-0.166 0.547,-0.125C0.524,-0.084 0.492,-0.053 0.451,-0.03C0.41,-0.007 0.365,0.005 0.314,0.005ZM0.314,-0.058C0.351,-0.058 0.385,-0.067 0.415,-0.084C0.444,-0.1 0.467,-0.125 0.484,-0.156C0.501,-0.187 0.509,-0.223 0.509,-0.263C0.509,-0.303 0.501,-0.339 0.484,-0.37C0.467,-0.401 0.444,-0.426 0.415,-0.443C0.385,-0.46 0.351,-0.468 0.314,-0.468C0.277,-0.468 0.243,-0.46 0.214,-0.443C0.184,-0.426 0.161,-0.401 0.144,-0.37C0.127,-0.339 0.118,-0.303 0.118,-0.263C0.118,-0.223 0.127,-0.187 0.144,-0.156C0.161,-0.125 0.184,-0.1 0.214,-0.084C0.243,-0.067 0.277,-0.058 0.314,-0.058Z" style="fill-rule:nonzero;"/>
            </g>
            <g transform="matrix(24,0,0,24,185.107,78.8299)">
                <path d="M0.376,-0.032C0.363,-0.02 0.346,-0.011 0.327,-0.005C0.307,0.002 0.286,0.005 0.265,0.005C0.216,0.005 0.178,-0.008 0.151,-0.035C0.124,-0.062 0.111,-0.099 0.111,-0.148L0.111,-0.466L0.017,-0.466L0.017,-0.526L0.111,-0.526L0.111,-0.641L0.182,-0.641L0.182,-0.526L0.342,-0.526L0.342,-0.466L0.182,-0.466L0.182,-0.152C0.182,-0.121 0.19,-0.097 0.206,-0.081C0.221,-0.064 0.244,-0.056 0.273,-0.056C0.288,-0.056 0.302,-0.058 0.316,-0.063C0.329,-0.068 0.341,-0.074 0.351,-0.083L0.376,-0.032Z" style="fill-rule:nonzero;"/>
            </g>
            <g transform="matrix(24,0,0,24,194.851,78.8299)">
                <path d="M0.283,-0.53C0.352,-0.53 0.404,-0.513 0.441,-0.479C0.478,-0.444 0.496,-0.393 0.496,-0.326L0.496,-0L0.428,-0L0.428,-0.082C0.412,-0.055 0.389,-0.033 0.358,-0.018C0.327,-0.003 0.29,0.005 0.247,0.005C0.188,0.005 0.142,-0.009 0.107,-0.037C0.072,-0.065 0.055,-0.102 0.055,-0.148C0.055,-0.193 0.071,-0.229 0.104,-0.256C0.136,-0.283 0.187,-0.297 0.258,-0.297L0.425,-0.297L0.425,-0.329C0.425,-0.374 0.412,-0.409 0.387,-0.433C0.362,-0.456 0.325,-0.468 0.276,-0.468C0.243,-0.468 0.211,-0.463 0.18,-0.452C0.149,-0.44 0.123,-0.425 0.101,-0.406L0.069,-0.459C0.096,-0.482 0.128,-0.499 0.165,-0.512C0.202,-0.524 0.242,-0.53 0.283,-0.53ZM0.258,-0.051C0.298,-0.051 0.332,-0.06 0.361,-0.079C0.39,-0.097 0.411,-0.123 0.425,-0.158L0.425,-0.244L0.26,-0.244C0.17,-0.244 0.125,-0.213 0.125,-0.15C0.125,-0.119 0.137,-0.095 0.16,-0.078C0.183,-0.06 0.216,-0.051 0.258,-0.051Z" style="fill-rule:nonzero;"/>
            </g>
            <g transform="matrix(24,0,0,24,209.011,78.8299)">
                <path d="M0.376,-0.032C0.363,-0.02 0.346,-0.011 0.327,-0.005C0.307,0.002 0.286,0.005 0.265,0.005C0.216,0.005 0.178,-0.008 0.151,-0.035C0.124,-0.062 0.111,-0.099 0.111,-0.148L0.111,-0.466L0.017,-0.466L0.017,-0.526L0.111,-0.526L0.111,-0.641L0.182,-0.641L0.182,-0.526L0.342,-0.526L0.342,-0.466L0.182,-0.466L0.182,-0.152C0.182,-0.121 0.19,-0.097 0.206,-0.081C0.221,-0.064 0.244,-0.056 0.273,-0.056C0.288,-0.056 0.302,-0.058 0.316,-0.063C0.329,-0.068 0.341,-0.074 0.351,-0.083L0.376,-0.032Z" style="fill-rule:nonzero;"/>
            </g>
            <g transform="matrix(24,0,0,24,218.755,78.8299)">
                <path d="M0.099,-0.526L0.17,-0.526L0.17,-0L0.099,-0L0.099,-0.526ZM0.135,-0.641C0.12,-0.641 0.108,-0.646 0.098,-0.656C0.088,-0.666 0.083,-0.678 0.083,-0.692C0.083,-0.705 0.088,-0.717 0.098,-0.727C0.108,-0.737 0.12,-0.742 0.135,-0.742C0.15,-0.742 0.162,-0.737 0.172,-0.728C0.182,-0.718 0.187,-0.706 0.187,-0.693C0.187,-0.678 0.182,-0.666 0.172,-0.656C0.162,-0.646 0.15,-0.641 0.135,-0.641Z" style="fill-rule:nonzero;"/>
            </g>
            <g transform="matrix(24,0,0,24,225.211,78.8299)">
                <path d="M0.314,0.005C0.263,0.005 0.218,-0.007 0.177,-0.03C0.136,-0.053 0.104,-0.084 0.081,-0.125C0.058,-0.166 0.046,-0.212 0.046,-0.263C0.046,-0.314 0.058,-0.36 0.081,-0.401C0.104,-0.442 0.136,-0.473 0.177,-0.496C0.218,-0.519 0.263,-0.53 0.314,-0.53C0.365,-0.53 0.41,-0.519 0.451,-0.496C0.492,-0.473 0.524,-0.442 0.547,-0.401C0.57,-0.36 0.581,-0.314 0.581,-0.263C0.581,-0.212 0.57,-0.166 0.547,-0.125C0.524,-0.084 0.492,-0.053 0.451,-0.03C0.41,-0.007 0.365,0.005 0.314,0.005ZM0.314,-0.058C0.351,-0.058 0.385,-0.067 0.415,-0.084C0.444,-0.1 0.467,-0.125 0.484,-0.156C0.501,-0.187 0.509,-0.223 0.509,-0.263C0.509,-0.303 0.501,-0.339 0.484,-0.37C0.467,-0.401 0.444,-0.426 0.415,-0.443C0.385,-0.46 0.351,-0.468 0.314,-0.468C0.277,-0.468 0.243,-0.46 0.214,-0.443C0.184,-0.426 0.161,-0.401 0.144,-0.37C0.127,-0.339 0.118,-0.303 0.118,-0.263C0.118,-0.223 0.127,-0.187 0.144,-0.156C0.161,-0.125 0.184,-0.1 0.214,-0.084C0.243,-0.067 0.277,-0.058 0.314,-0.058Z" style="fill-rule:nonzero;"/>
            </g>
            <g transform="matrix(24,0,0,24,240.259,78.8299)">
                <path d="M0.367,-0.53C0.433,-0.53 0.486,-0.511 0.525,-0.473C0.564,-0.434 0.583,-0.378 0.583,-0.305L0.583,-0L0.512,-0L0.512,-0.298C0.512,-0.353 0.498,-0.394 0.471,-0.423C0.444,-0.452 0.405,-0.466 0.354,-0.466C0.297,-0.466 0.253,-0.449 0.22,-0.416C0.187,-0.382 0.17,-0.335 0.17,-0.276L0.17,-0L0.099,-0L0.099,-0.526L0.167,-0.526L0.167,-0.429C0.186,-0.461 0.213,-0.486 0.248,-0.504C0.282,-0.521 0.322,-0.53 0.367,-0.53Z" style="fill-rule:nonzero;"/>
            </g>
            <g transform="matrix(24,0,0,24,256.507,78.8299)">
                <path d="M0.24,0.005C0.197,0.005 0.157,-0.001 0.118,-0.014C0.079,-0.026 0.048,-0.041 0.026,-0.06L0.058,-0.116C0.08,-0.099 0.108,-0.085 0.141,-0.074C0.174,-0.063 0.209,-0.057 0.245,-0.057C0.293,-0.057 0.329,-0.065 0.352,-0.08C0.375,-0.095 0.386,-0.116 0.386,-0.143C0.386,-0.162 0.38,-0.178 0.367,-0.189C0.354,-0.2 0.338,-0.208 0.319,-0.214C0.3,-0.219 0.274,-0.225 0.242,-0.23C0.199,-0.238 0.165,-0.246 0.139,-0.255C0.113,-0.263 0.091,-0.277 0.073,-0.297C0.054,-0.317 0.045,-0.345 0.045,-0.38C0.045,-0.424 0.063,-0.46 0.1,-0.488C0.137,-0.516 0.188,-0.53 0.253,-0.53C0.287,-0.53 0.321,-0.526 0.355,-0.517C0.389,-0.507 0.417,-0.496 0.439,-0.481L0.408,-0.424C0.365,-0.454 0.313,-0.469 0.253,-0.469C0.208,-0.469 0.173,-0.461 0.151,-0.445C0.128,-0.429 0.116,-0.408 0.116,-0.382C0.116,-0.362 0.123,-0.346 0.136,-0.334C0.149,-0.322 0.165,-0.313 0.184,-0.308C0.203,-0.302 0.23,-0.296 0.264,-0.29C0.306,-0.282 0.34,-0.274 0.365,-0.266C0.39,-0.258 0.412,-0.244 0.43,-0.225C0.448,-0.206 0.457,-0.179 0.457,-0.145C0.457,-0.099 0.438,-0.063 0.4,-0.036C0.361,-0.009 0.308,0.005 0.24,0.005Z" style="fill-rule:nonzero;"/>
            </g>
        </g>
    </g>
    <g id="Formulation" transform="matrix(1,0,0,1,658.805,1.42109e-14)">
        <g transform="matrix(1.17315,0,0,1.05894,55.0489,19.3026)">
            <path d="M183.226,-18.228L89.461,-18.228L-46.924,142.31L46.841,142.31L183.226,-18.228Z" style="fill:rgb(181,227,236);"/>
        </g>
        <g transform="matrix(0.687063,-0.726598,0.726598,0.687063,-50.2056,175.97)">
            <g transform="matrix(24,0,0,24,120.355,78.8299)">
                <path d="M0.188,-0.636L0.188,-0.361L0.55,-0.361L0.55,-0.297L0.188,-0.297L0.188,-0L0.114,-0L0.114,-0.7L0.594,-0.7L0.594,-0.636L0.188,-0.636Z" style="fill-rule:nonzero;"/>
            </g>
            <g transform="matrix(24,0,0,24,135.115,78.8299)">
                <path d="M0.314,0.005C0.263,0.005 0.218,-0.007 0.177,-0.03C0.136,-0.053 0.104,-0.084 0.081,-0.125C0.058,-0.166 0.046,-0.212 0.046,-0.263C0.046,-0.314 0.058,-0.36 0.081,-0.401C0.104,-0.442 0.136,-0.473 0.177,-0.496C0.218,-0.519 0.263,-0.53 0.314,-0.53C0.365,-0.53 0.41,-0.519 0.451,-0.496C0.492,-0.473 0.524,-0.442 0.547,-0.401C0.57,-0.36 0.581,-0.314 0.581,-0.263C0.581,-0.212 0.57,-0.166 0.547,-0.125C0.524,-0.084 0.492,-0.053 0.451,-0.03C0.41,-0.007 0.365,0.005 0.314,0.005ZM0.314,-0.058C0.351,-0.058 0.385,-0.067 0.415,-0.084C0.444,-0.1 0.467,-0.125 0.484,-0.156C0.501,-0.187 0.509,-0.223 0.509,-0.263C0.509,-0.303 0.501,-0.339 0.484,-0.37C0.467,-0.401 0.444,-0.426 0.415,-0.443C0.385,-0.46 0.351,-0.468 0.314,-0.468C0.277,-0.468 0.243,-0.46 0.214,-0.443C0.184,-0.426 0.161,-0.401 0.144,-0.37C0.127,-0.339 0.118,-0.303 0.118,-0.263C0.118,-0.223 0.127,-0.187 0.144,-0.156C0.161,-0.125 0.184,-0.1 0.214,-0.084C0.243,-0.067 0.277,-0.058 0.314,-0.058Z" style="fill-rule:nonzero;"/>
            </g>
            <g transform="matrix(24,0,0,24,150.163,78.8299)">
                <path d="M0.167,-0.423C0.184,-0.458 0.209,-0.485 0.242,-0.503C0.274,-0.521 0.315,-0.53 0.364,-0.53L0.364,-0.461L0.347,-0.462C0.292,-0.462 0.248,-0.445 0.217,-0.411C0.186,-0.377 0.17,-0.329 0.17,-0.268L0.17,-0L0.099,-0L0.099,-0.526L0.167,-0.526L0.167,-0.423Z" style="fill-rule:nonzero;"/>
            </g>
            <g transform="matrix(24,0,0,24,159.595,78.8299)">
                <path d="M0.755,-0.53C0.821,-0.53 0.873,-0.511 0.911,-0.473C0.948,-0.435 0.967,-0.379 0.967,-0.305L0.967,-0L0.896,-0L0.896,-0.298C0.896,-0.353 0.883,-0.394 0.857,-0.423C0.83,-0.452 0.793,-0.466 0.745,-0.466C0.69,-0.466 0.647,-0.449 0.616,-0.416C0.585,-0.382 0.569,-0.335 0.569,-0.276L0.569,-0L0.498,-0L0.498,-0.298C0.498,-0.353 0.485,-0.394 0.459,-0.423C0.432,-0.452 0.395,-0.466 0.346,-0.466C0.292,-0.466 0.249,-0.449 0.218,-0.416C0.186,-0.382 0.17,-0.335 0.17,-0.276L0.17,-0L0.099,-0L0.099,-0.526L0.167,-0.526L0.167,-0.43C0.186,-0.462 0.212,-0.487 0.245,-0.504C0.278,-0.521 0.317,-0.53 0.36,-0.53C0.404,-0.53 0.442,-0.521 0.475,-0.502C0.507,-0.483 0.531,-0.456 0.547,-0.419C0.566,-0.454 0.594,-0.481 0.631,-0.501C0.667,-0.52 0.708,-0.53 0.755,-0.53Z" style="fill-rule:nonzero;"/>
            </g>
            <g transform="matrix(24,0,0,24,185.059,78.8299)">
                <path d="M0.573,-0.526L0.573,-0L0.505,-0L0.505,-0.096C0.486,-0.064 0.461,-0.039 0.428,-0.022C0.395,-0.004 0.358,0.005 0.316,0.005C0.247,0.005 0.193,-0.014 0.154,-0.053C0.114,-0.091 0.094,-0.147 0.094,-0.221L0.094,-0.526L0.165,-0.526L0.165,-0.228C0.165,-0.173 0.179,-0.131 0.206,-0.102C0.233,-0.073 0.272,-0.059 0.323,-0.059C0.378,-0.059 0.422,-0.076 0.454,-0.11C0.486,-0.143 0.502,-0.19 0.502,-0.25L0.502,-0.526L0.573,-0.526Z" style="fill-rule:nonzero;"/>
            </g>
            <g transform="matrix(24,0,0,24,201.211,78.8299)">
                <rect x="0.099" y="-0.742" width="0.071" height="0.742" style="fill-rule:nonzero;"/>
            </g>
            <g transform="matrix(24,0,0,24,207.667,78.8299)">
                <path d="M0.283,-0.53C0.352,-0.53 0.404,-0.513 0.441,-0.479C0.478,-0.444 0.496,-0.393 0.496,-0.326L0.496,-0L0.428,-0L0.428,-0.082C0.412,-0.055 0.389,-0.033 0.358,-0.018C0.327,-0.003 0.29,0.005 0.247,0.005C0.188,0.005 0.142,-0.009 0.107,-0.037C0.072,-0.065 0.055,-0.102 0.055,-0.148C0.055,-0.193 0.071,-0.229 0.104,-0.256C0.136,-0.283 0.187,-0.297 0.258,-0.297L0.425,-0.297L0.425,-0.329C0.425,-0.374 0.412,-0.409 0.387,-0.433C0.362,-0.456 0.325,-0.468 0.276,-0.468C0.243,-0.468 0.211,-0.463 0.18,-0.452C0.149,-0.44 0.123,-0.425 0.101,-0.406L0.069,-0.459C0.096,-0.482 0.128,-0.499 0.165,-0.512C0.202,-0.524 0.242,-0.53 0.283,-0.53ZM0.258,-0.051C0.298,-0.051 0.332,-0.06 0.361,-0.079C0.39,-0.097 0.411,-0.123 0.425,-0.158L0.425,-0.244L0.26,-0.244C0.17,-0.244 0.125,-0.213 0.125,-0.15C0.125,-0.119 0.137,-0.095 0.16,-0.078C0.183,-0.06 0.216,-0.051 0.258,-0.051Z" style="fill-rule:nonzero;"/>
            </g>
            <g transform="matrix(24,0,0,24,221.827,78.8299)">
                <path d="M0.376,-0.032C0.363,-0.02 0.346,-0.011 0.327,-0.005C0.307,0.002 0.286,0.005 0.265,0.005C0.216,0.005 0.178,-0.008 0.151,-0.035C0.124,-0.062 0.111,-0.099 0.111,-0.148L0.111,-0.466L0.017,-0.466L0.017,-0.526L0.111,-0.526L0.111,-0.641L0.182,-0.641L0.182,-0.526L0.342,-0.526L0.342,-0.466L0.182,-0.466L0.182,-0.152C0.182,-0.121 0.19,-0.097 0.206,-0.081C0.221,-0.064 0.244,-0.056 0.273,-0.056C0.288,-0.056 0.302,-0.058 0.316,-0.063C0.329,-0.068 0.341,-0.074 0.351,-0.083L0.376,-0.032Z" style="fill-rule:nonzero;"/>
            </g>
            <g transform="matrix(24,0,0,24,231.571,78.8299)">
                <path d="M0.099,-0.526L0.17,-0.526L0.17,-0L0.099,-0L0.099,-0.526ZM0.135,-0.641C0.12,-0.641 0.108,-0.646 0.098,-0.656C0.088,-0.666 0.083,-0.678 0.083,-0.692C0.083,-0.705 0.088,-0.717 0.098,-0.727C0.108,-0.737 0.12,-0.742 0.135,-0.742C0.15,-0.742 0.162,-0.737 0.172,-0.728C0.182,-0.718 0.187,-0.706 0.187,-0.693C0.187,-0.678 0.182,-0.666 0.172,-0.656C0.162,-0.646 0.15,-0.641 0.135,-0.641Z" style="fill-rule:nonzero;"/>
            </g>
            <g transform="matrix(24,0,0,24,238.027,78.8299)">
                <path d="M0.314,0.005C0.263,0.005 0.218,-0.007 0.177,-0.03C0.136,-0.053 0.104,-0.084 0.081,-0.125C0.058,-0.166 0.046,-0.212 0.046,-0.263C0.046,-0.314 0.058,-0.36 0.081,-0.401C0.104,-0.442 0.136,-0.473 0.177,-0.496C0.218,-0.519 0.263,-0.53 0.314,-0.53C0.365,-0.53 0.41,-0.519 0.451,-0.496C0.492,-0.473 0.524,-0.442 0.547,-0.401C0.57,-0.36 0.581,-0.314 0.581,-0.263C0.581,-0.212 0.57,-0.166 0.547,-0.125C0.524,-0.084 0.492,-0.053 0.451,-0.03C0.41,-0.007 0.365,0.005 0.314,0.005ZM0.314,-0.058C0.351,-0.058 0.385,-0.067 0.415,-0.084C0.444,-0.1 0.467,-0.125 0.484,-0.156C0.501,-0.187 0.509,-0.223 0.509,-0.263C0.509,-0.303 0.501,-0.339 0.484,-0.37C0.467,-0.401 0.444,-0.426 0.415,-0.443C0.385,-0.46 0.351,-0.468 0.314,-0.468C0.277,-0.468 0.243,-0.46 0.214,-0.443C0.184,-0.426 0.161,-0.401 0.144,-0.37C0.127,-0.339 0.118,-0.303 0.118,-0.263C0.118,-0.223 0.127,-0.187 0.144,-0.156C0.161,-0.125 0.184,-0.1 0.214,-0.084C0.243,-0.067 0.277,-0.058 0.314,-0.058Z" style="fill-rule:nonzero;"/>
            </g>
            <g transform="matrix(24,0,0,24,253.075,78.8299)">
                <path d="M0.367,-0.53C0.433,-0.53 0.486,-0.511 0.525,-0.473C0.564,-0.434 0.583,-0.378 0.583,-0.305L0.583,-0L0.512,-0L0.512,-0.298C0.512,-0.353 0.498,-0.394 0.471,-0.423C0.444,-0.452 0.405,-0.466 0.354,-0.466C0.297,-0.466 0.253,-0.449 0.22,-0.416C0.187,-0.382 0.17,-0.335 0.17,-0.276L0.17,-0L0.099,-0L0.099,-0.526L0.167,-0.526L0.167,-0.429C0.186,-0.461 0.213,-0.486 0.248,-0.504C0.282,-0.521 0.322,-0.53 0.367,-0.53Z" style="fill-rule:nonzero;"/>
            </g>
        </g>
    </g>
    <g id="Vulnerabilities" transform="matrix(1,0,0,1,549.606,0)">
        <g transform="matrix(1.17315,0,0,1.05894,55.0489,19.3026)">
            <path d="M183.226,-18.228L89.461,-18.228L-46.924,142.31L46.841,142.31L183.226,-18.228Z" style="fill:rgb(249,184,184);"/>
        </g>
        <g transform="matrix(0.687063,-0.726598,0.726598,0.687063,-61.2936,186.25)">
            <g transform="matrix(24,0,0,24,120.355,78.8299)">
                <path d="M0.696,-0.7L0.386,-0L0.313,-0L0.003,-0.7L0.083,-0.7L0.351,-0.092L0.621,-0.7L0.696,-0.7Z" style="fill-rule:nonzero;"/>
            </g>
            <g transform="matrix(24,0,0,24,136.363,78.8299)">
                <path d="M0.573,-0.526L0.573,-0L0.505,-0L0.505,-0.096C0.486,-0.064 0.461,-0.039 0.428,-0.022C0.395,-0.004 0.358,0.005 0.316,0.005C0.247,0.005 0.193,-0.014 0.154,-0.053C0.114,-0.091 0.094,-0.147 0.094,-0.221L0.094,-0.526L0.165,-0.526L0.165,-0.228C0.165,-0.173 0.179,-0.131 0.206,-0.102C0.233,-0.073 0.272,-0.059 0.323,-0.059C0.378,-0.059 0.422,-0.076 0.454,-0.11C0.486,-0.143 0.502,-0.19 0.502,-0.25L0.502,-0.526L0.573,-0.526Z" style="fill-rule:nonzero;"/>
            </g>
            <g transform="matrix(24,0,0,24,152.515,78.8299)">
                <rect x="0.099" y="-0.742" width="0.071" height="0.742" style="fill-rule:nonzero;"/>
            </g>
            <g transform="matrix(24,0,0,24,158.971,78.8299)">
                <path d="M0.367,-0.53C0.433,-0.53 0.486,-0.511 0.525,-0.473C0.564,-0.434 0.583,-0.378 0.583,-0.305L0.583,-0L0.512,-0L0.512,-0.298C0.512,-0.353 0.498,-0.394 0.471,-0.423C0.444,-0.452 0.405,-0.466 0.354,-0.466C0.297,-0.466 0.253,-0.449 0.22,-0.416C0.187,-0.382 0.17,-0.335 0.17,-0.276L0.17,-0L0.099,-0L0.099,-0.526L0.167,-0.526L0.167,-0.429C0.186,-0.461 0.213,-0.486 0.248,-0.504C0.282,-0.521 0.322,-0.53 0.367,-0.53Z" style="fill-rule:nonzero;"/>
            </g>
            <g transform="matrix(24,0,0,24,175.219,78.8299)">
                <path d="M0.557,-0.241L0.117,-0.241C0.121,-0.186 0.142,-0.142 0.18,-0.109C0.218,-0.075 0.266,-0.058 0.324,-0.058C0.357,-0.058 0.387,-0.064 0.414,-0.076C0.441,-0.087 0.465,-0.104 0.485,-0.127L0.525,-0.081C0.502,-0.053 0.472,-0.032 0.438,-0.017C0.403,-0.002 0.364,0.005 0.322,0.005C0.268,0.005 0.22,-0.007 0.179,-0.03C0.137,-0.053 0.104,-0.084 0.081,-0.125C0.058,-0.166 0.046,-0.212 0.046,-0.263C0.046,-0.314 0.057,-0.36 0.08,-0.401C0.102,-0.442 0.133,-0.473 0.172,-0.496C0.211,-0.519 0.254,-0.53 0.303,-0.53C0.352,-0.53 0.395,-0.519 0.434,-0.496C0.473,-0.473 0.503,-0.442 0.525,-0.402C0.547,-0.361 0.558,-0.315 0.558,-0.263L0.557,-0.241ZM0.303,-0.469C0.252,-0.469 0.21,-0.453 0.176,-0.421C0.141,-0.388 0.122,-0.346 0.117,-0.294L0.49,-0.294C0.485,-0.346 0.466,-0.388 0.432,-0.421C0.397,-0.453 0.354,-0.469 0.303,-0.469Z" style="fill-rule:nonzero;"/>
            </g>
            <g transform="matrix(24,0,0,24,189.715,78.8299)">
                <path d="M0.167,-0.423C0.184,-0.458 0.209,-0.485 0.242,-0.503C0.274,-0.521 0.315,-0.53 0.364,-0.53L0.364,-0.461L0.347,-0.462C0.292,-0.462 0.248,-0.445 0.217,-0.411C0.186,-0.377 0.17,-0.329 0.17,-0.268L0.17,-0L0.099,-0L0.099,-0.526L0.167,-0.526L0.167,-0.423Z" style="fill-rule:nonzero;"/>
            </g>
            <g transform="matrix(24,0,0,24,198.211,78.8299)">
                <path d="M0.283,-0.53C0.352,-0.53 0.404,-0.513 0.441,-0.479C0.478,-0.444 0.496,-0.393 0.496,-0.326L0.496,-0L0.428,-0L0.428,-0.082C0.412,-0.055 0.389,-0.033 0.358,-0.018C0.327,-0.003 0.29,0.005 0.247,0.005C0.188,0.005 0.142,-0.009 0.107,-0.037C0.072,-0.065 0.055,-0.102 0.055,-0.148C0.055,-0.193 0.071,-0.229 0.104,-0.256C0.136,-0.283 0.187,-0.297 0.258,-0.297L0.425,-0.297L0.425,-0.329C0.425,-0.374 0.412,-0.409 0.387,-0.433C0.362,-0.456 0.325,-0.468 0.276,-0.468C0.243,-0.468 0.211,-0.463 0.18,-0.452C0.149,-0.44 0.123,-0.425 0.101,-0.406L0.069,-0.459C0.096,-0.482 0.128,-0.499 0.165,-0.512C0.202,-0.524 0.242,-0.53 0.283,-0.53ZM0.258,-0.051C0.298,-0.051 0.332,-0.06 0.361,-0.079C0.39,-0.097 0.411,-0.123 0.425,-0.158L0.425,-0.244L0.26,-0.244C0.17,-0.244 0.125,-0.213 0.125,-0.15C0.125,-0.119 0.137,-0.095 0.16,-0.078C0.183,-0.06 0.216,-0.051 0.258,-0.051Z" style="fill-rule:nonzero;"/>
            </g>
            <g transform="matrix(24,0,0,24,212.371,78.8299)">
                <path d="M0.37,-0.53C0.419,-0.53 0.464,-0.519 0.504,-0.497C0.544,-0.474 0.575,-0.443 0.598,-0.402C0.621,-0.361 0.632,-0.315 0.632,-0.263C0.632,-0.211 0.621,-0.165 0.598,-0.124C0.575,-0.083 0.544,-0.052 0.504,-0.029C0.464,-0.006 0.419,0.005 0.37,0.005C0.326,0.005 0.286,-0.004 0.252,-0.023C0.217,-0.042 0.188,-0.069 0.167,-0.104L0.167,-0L0.099,-0L0.099,-0.742L0.17,-0.742L0.17,-0.426C0.192,-0.46 0.22,-0.486 0.255,-0.504C0.289,-0.521 0.327,-0.53 0.37,-0.53ZM0.365,-0.058C0.402,-0.058 0.435,-0.067 0.465,-0.084C0.495,-0.1 0.519,-0.125 0.536,-0.156C0.553,-0.187 0.561,-0.223 0.561,-0.263C0.561,-0.303 0.553,-0.339 0.536,-0.37C0.519,-0.401 0.495,-0.426 0.465,-0.443C0.435,-0.46 0.402,-0.468 0.365,-0.468C0.328,-0.468 0.294,-0.46 0.265,-0.443C0.235,-0.426 0.212,-0.401 0.195,-0.37C0.178,-0.339 0.169,-0.303 0.169,-0.263C0.169,-0.223 0.178,-0.187 0.195,-0.156C0.212,-0.125 0.235,-0.1 0.265,-0.084C0.294,-0.067 0.328,-0.058 0.365,-0.058Z" style="fill-rule:nonzero;"/>
            </g>
            <g transform="matrix(24,0,0,24,228.643,78.8299)">
                <path d="M0.099,-0.526L0.17,-0.526L0.17,-0L0.099,-0L0.099,-0.526ZM0.135,-0.641C0.12,-0.641 0.108,-0.646 0.098,-0.656C0.088,-0.666 0.083,-0.678 0.083,-0.692C0.083,-0.705 0.088,-0.717 0.098,-0.727C0.108,-0.737 0.12,-0.742 0.135,-0.742C0.15,-0.742 0.162,-0.737 0.172,-0.728C0.182,-0.718 0.187,-0.706 0.187,-0.693C0.187,-0.678 0.182,-0.666 0.172,-0.656C0.162,-0.646 0.15,-0.641 0.135,-0.641Z" style="fill-rule:nonzero;"/>
            </g>
            <g transform="matrix(24,0,0,24,235.099,78.8299)">
                <rect x="0.099" y="-0.742" width="0.071" height="0.742" style="fill-rule:nonzero;"/>
            </g>
            <g transform="matrix(24,0,0,24,241.555,78.8299)">
                <path d="M0.099,-0.526L0.17,-0.526L0.17,-0L0.099,-0L0.099,-0.526ZM0.135,-0.641C0.12,-0.641 0.108,-0.646 0.098,-0.656C0.088,-0.666 0.083,-0.678 0.083,-0.692C0.083,-0.705 0.088,-0.717 0.098,-0.727C0.108,-0.737 0.12,-0.742 0.135,-0.742C0.15,-0.742 0.162,-0.737 0.172,-0.728C0.182,-0.718 0.187,-0.706 0.187,-0.693C0.187,-0.678 0.182,-0.666 0.172,-0.656C0.162,-0.646 0.15,-0.641 0.135,-0.641Z" style="fill-rule:nonzero;"/>
            </g>
            <g transform="matrix(24,0,0,24,248.011,78.8299)">
                <path d="M0.376,-0.032C0.363,-0.02 0.346,-0.011 0.327,-0.005C0.307,0.002 0.286,0.005 0.265,0.005C0.216,0.005 0.178,-0.008 0.151,-0.035C0.124,-0.062 0.111,-0.099 0.111,-0.148L0.111,-0.466L0.017,-0.466L0.017,-0.526L0.111,-0.526L0.111,-0.641L0.182,-0.641L0.182,-0.526L0.342,-0.526L0.342,-0.466L0.182,-0.466L0.182,-0.152C0.182,-0.121 0.19,-0.097 0.206,-0.081C0.221,-0.064 0.244,-0.056 0.273,-0.056C0.288,-0.056 0.302,-0.058 0.316,-0.063C0.329,-0.068 0.341,-0.074 0.351,-0.083L0.376,-0.032Z" style="fill-rule:nonzero;"/>
            </g>
            <g transform="matrix(24,0,0,24,257.755,78.8299)">
                <path d="M0.099,-0.526L0.17,-0.526L0.17,-0L0.099,-0L0.099,-0.526ZM0.135,-0.641C0.12,-0.641 0.108,-0.646 0.098,-0.656C0.088,-0.666 0.083,-0.678 0.083,-0.692C0.083,-0.705 0.088,-0.717 0.098,-0.727C0.108,-0.737 0.12,-0.742 0.135,-0.742C0.15,-0.742 0.162,-0.737 0.172,-0.728C0.182,-0.718 0.187,-0.706 0.187,-0.693C0.187,-0.678 0.182,-0.666 0.172,-0.656C0.162,-0.646 0.15,-0.641 0.135,-0.641Z" style="fill-rule:nonzero;"/>
            </g>
            <g transform="matrix(24,0,0,24,264.211,78.8299)">
                <path d="M0.557,-0.241L0.117,-0.241C0.121,-0.186 0.142,-0.142 0.18,-0.109C0.218,-0.075 0.266,-0.058 0.324,-0.058C0.357,-0.058 0.387,-0.064 0.414,-0.076C0.441,-0.087 0.465,-0.104 0.485,-0.127L0.525,-0.081C0.502,-0.053 0.472,-0.032 0.438,-0.017C0.403,-0.002 0.364,0.005 0.322,0.005C0.268,0.005 0.22,-0.007 0.179,-0.03C0.137,-0.053 0.104,-0.084 0.081,-0.125C0.058,-0.166 0.046,-0.212 0.046,-0.263C0.046,-0.314 0.057,-0.36 0.08,-0.401C0.102,-0.442 0.133,-0.473 0.172,-0.496C0.211,-0.519 0.254,-0.53 0.303,-0.53C0.352,-0.53 0.395,-0.519 0.434,-0.496C0.473,-0.473 0.503,-0.442 0.525,-0.402C0.547,-0.361 0.558,-0.315 0.558,-0.263L0.557,-0.241ZM0.303,-0.469C0.252,-0.469 0.21,-0.453 0.176,-0.421C0.141,-0.388 0.122,-0.346 0.117,-0.294L0.49,-0.294C0.485,-0.346 0.466,-0.388 0.432,-0.421C0.397,-0.453 0.354,-0.469 0.303,-0.469Z" style="fill-rule:nonzero;"/>
            </g>
            <g transform="matrix(24,0,0,24,278.707,78.8299)">
                <path d="M0.24,0.005C0.197,0.005 0.157,-0.001 0.118,-0.014C0.079,-0.026 0.048,-0.041 0.026,-0.06L0.058,-0.116C0.08,-0.099 0.108,-0.085 0.141,-0.074C0.174,-0.063 0.209,-0.057 0.245,-0.057C0.293,-0.057 0.329,-0.065 0.352,-0.08C0.375,-0.095 0.386,-0.116 0.386,-0.143C0.386,-0.162 0.38,-0.178 0.367,-0.189C0.354,-0.2 0.338,-0.208 0.319,-0.214C0.3,-0.219 0.274,-0.225 0.242,-0.23C0.199,-0.238 0.165,-0.246 0.139,-0.255C0.113,-0.263 0.091,-0.277 0.073,-0.297C0.054,-0.317 0.045,-0.345 0.045,-0.38C0.045,-0.424 0.063,-0.46 0.1,-0.488C0.137,-0.516 0.188,-0.53 0.253,-0.53C0.287,-0.53 0.321,-0.526 0.355,-0.517C0.389,-0.507 0.417,-0.496 0.439,-0.481L0.408,-0.424C0.365,-0.454 0.313,-0.469 0.253,-0.469C0.208,-0.469 0.173,-0.461 0.151,-0.445C0.128,-0.429 0.116,-0.408 0.116,-0.382C0.116,-0.362 0.123,-0.346 0.136,-0.334C0.149,-0.322 0.165,-0.313 0.184,-0.308C0.203,-0.302 0.23,-0.296 0.264,-0.29C0.306,-0.282 0.34,-0.274 0.365,-0.266C0.39,-0.258 0.412,-0.244 0.43,-0.225C0.448,-0.206 0.457,-0.179 0.457,-0.145C0.457,-0.099 0.438,-0.063 0.4,-0.036C0.361,-0.009 0.308,0.005 0.24,0.005Z" style="fill-rule:nonzero;"/>
            </g>
        </g>
    </g>
    <g id="Compositions" transform="matrix(1,0,0,1,440,1.42109e-14)">
        <g transform="matrix(1.17315,0,0,1.05894,55.0489,19.3026)">
            <path d="M183.226,-18.228L89.461,-18.228L-46.924,142.31L46.841,142.31L183.226,-18.228Z" style="fill:rgb(235,218,173);"/>
        </g>
        <g transform="matrix(0.687063,-0.726598,0.726598,0.687063,-56.9649,184.25)">
            <g transform="matrix(24,0,0,24,120.355,78.8299)">
                <path d="M0.418,0.006C0.349,0.006 0.286,-0.009 0.231,-0.04C0.175,-0.071 0.131,-0.113 0.1,-0.168C0.068,-0.222 0.052,-0.283 0.052,-0.35C0.052,-0.417 0.068,-0.478 0.1,-0.533C0.131,-0.587 0.175,-0.629 0.231,-0.66C0.287,-0.691 0.35,-0.706 0.419,-0.706C0.471,-0.706 0.519,-0.697 0.563,-0.68C0.607,-0.663 0.644,-0.637 0.675,-0.604L0.628,-0.557C0.573,-0.612 0.504,-0.64 0.421,-0.64C0.366,-0.64 0.315,-0.627 0.27,-0.602C0.225,-0.577 0.189,-0.542 0.164,-0.498C0.138,-0.454 0.125,-0.405 0.125,-0.35C0.125,-0.295 0.138,-0.246 0.164,-0.202C0.189,-0.158 0.225,-0.123 0.27,-0.098C0.315,-0.073 0.366,-0.06 0.421,-0.06C0.505,-0.06 0.574,-0.088 0.628,-0.144L0.675,-0.097C0.644,-0.064 0.607,-0.038 0.563,-0.021C0.518,-0.003 0.47,0.006 0.418,0.006Z" style="fill-rule:nonzero;"/>
            </g>
            <g transform="matrix(24,0,0,24,137.059,78.8299)">
                <path d="M0.314,0.005C0.263,0.005 0.218,-0.007 0.177,-0.03C0.136,-0.053 0.104,-0.084 0.081,-0.125C0.058,-0.166 0.046,-0.212 0.046,-0.263C0.046,-0.314 0.058,-0.36 0.081,-0.401C0.104,-0.442 0.136,-0.473 0.177,-0.496C0.218,-0.519 0.263,-0.53 0.314,-0.53C0.365,-0.53 0.41,-0.519 0.451,-0.496C0.492,-0.473 0.524,-0.442 0.547,-0.401C0.57,-0.36 0.581,-0.314 0.581,-0.263C0.581,-0.212 0.57,-0.166 0.547,-0.125C0.524,-0.084 0.492,-0.053 0.451,-0.03C0.41,-0.007 0.365,0.005 0.314,0.005ZM0.314,-0.058C0.351,-0.058 0.385,-0.067 0.415,-0.084C0.444,-0.1 0.467,-0.125 0.484,-0.156C0.501,-0.187 0.509,-0.223 0.509,-0.263C0.509,-0.303 0.501,-0.339 0.484,-0.37C0.467,-0.401 0.444,-0.426 0.415,-0.443C0.385,-0.46 0.351,-0.468 0.314,-0.468C0.277,-0.468 0.243,-0.46 0.214,-0.443C0.184,-0.426 0.161,-0.401 0.144,-0.37C0.127,-0.339 0.118,-0.303 0.118,-0.263C0.118,-0.223 0.127,-0.187 0.144,-0.156C0.161,-0.125 0.184,-0.1 0.214,-0.084C0.243,-0.067 0.277,-0.058 0.314,-0.058Z" style="fill-rule:nonzero;"/>
            </g>
            <g transform="matrix(24,0,0,24,152.107,78.8299)">
                <path d="M0.755,-0.53C0.821,-0.53 0.873,-0.511 0.911,-0.473C0.948,-0.435 0.967,-0.379 0.967,-0.305L0.967,-0L0.896,-0L0.896,-0.298C0.896,-0.353 0.883,-0.394 0.857,-0.423C0.83,-0.452 0.793,-0.466 0.745,-0.466C0.69,-0.466 0.647,-0.449 0.616,-0.416C0.585,-0.382 0.569,-0.335 0.569,-0.276L0.569,-0L0.498,-0L0.498,-0.298C0.498,-0.353 0.485,-0.394 0.459,-0.423C0.432,-0.452 0.395,-0.466 0.346,-0.466C0.292,-0.466 0.249,-0.449 0.218,-0.416C0.186,-0.382 0.17,-0.335 0.17,-0.276L0.17,-0L0.099,-0L0.099,-0.526L0.167,-0.526L0.167,-0.43C0.186,-0.462 0.212,-0.487 0.245,-0.504C0.278,-0.521 0.317,-0.53 0.36,-0.53C0.404,-0.53 0.442,-0.521 0.475,-0.502C0.507,-0.483 0.531,-0.456 0.547,-0.419C0.566,-0.454 0.594,-0.481 0.631,-0.501C0.667,-0.52 0.708,-0.53 0.755,-0.53Z" style="fill-rule:nonzero;"/>
            </g>
            <g transform="matrix(24,0,0,24,177.571,78.8299)">
                <path d="M0.37,-0.53C0.419,-0.53 0.464,-0.519 0.504,-0.497C0.544,-0.474 0.575,-0.443 0.598,-0.402C0.621,-0.361 0.632,-0.315 0.632,-0.263C0.632,-0.21 0.621,-0.164 0.598,-0.123C0.575,-0.082 0.544,-0.051 0.505,-0.029C0.465,-0.006 0.42,0.005 0.37,0.005C0.327,0.005 0.289,-0.004 0.255,-0.022C0.22,-0.039 0.192,-0.065 0.17,-0.099L0.17,0.194L0.099,0.194L0.099,-0.526L0.167,-0.526L0.167,-0.422C0.188,-0.457 0.217,-0.483 0.252,-0.502C0.286,-0.521 0.326,-0.53 0.37,-0.53ZM0.365,-0.058C0.402,-0.058 0.435,-0.067 0.465,-0.084C0.495,-0.1 0.519,-0.125 0.536,-0.156C0.553,-0.187 0.561,-0.223 0.561,-0.263C0.561,-0.303 0.553,-0.339 0.536,-0.37C0.519,-0.401 0.495,-0.425 0.465,-0.442C0.435,-0.459 0.402,-0.468 0.365,-0.468C0.328,-0.468 0.294,-0.459 0.265,-0.442C0.235,-0.425 0.212,-0.401 0.195,-0.37C0.178,-0.339 0.169,-0.303 0.169,-0.263C0.169,-0.223 0.178,-0.187 0.195,-0.156C0.212,-0.125 0.235,-0.1 0.265,-0.084C0.294,-0.067 0.328,-0.058 0.365,-0.058Z" style="fill-rule:nonzero;"/>
            </g>
            <g transform="matrix(24,0,0,24,193.843,78.8299)">
                <path d="M0.314,0.005C0.263,0.005 0.218,-0.007 0.177,-0.03C0.136,-0.053 0.104,-0.084 0.081,-0.125C0.058,-0.166 0.046,-0.212 0.046,-0.263C0.046,-0.314 0.058,-0.36 0.081,-0.401C0.104,-0.442 0.136,-0.473 0.177,-0.496C0.218,-0.519 0.263,-0.53 0.314,-0.53C0.365,-0.53 0.41,-0.519 0.451,-0.496C0.492,-0.473 0.524,-0.442 0.547,-0.401C0.57,-0.36 0.581,-0.314 0.581,-0.263C0.581,-0.212 0.57,-0.166 0.547,-0.125C0.524,-0.084 0.492,-0.053 0.451,-0.03C0.41,-0.007 0.365,0.005 0.314,0.005ZM0.314,-0.058C0.351,-0.058 0.385,-0.067 0.415,-0.084C0.444,-0.1 0.467,-0.125 0.484,-0.156C0.501,-0.187 0.509,-0.223 0.509,-0.263C0.509,-0.303 0.501,-0.339 0.484,-0.37C0.467,-0.401 0.444,-0.426 0.415,-0.443C0.385,-0.46 0.351,-0.468 0.314,-0.468C0.277,-0.468 0.243,-0.46 0.214,-0.443C0.184,-0.426 0.161,-0.401 0.144,-0.37C0.127,-0.339 0.118,-0.303 0.118,-0.263C0.118,-0.223 0.127,-0.187 0.144,-0.156C0.161,-0.125 0.184,-0.1 0.214,-0.084C0.243,-0.067 0.277,-0.058 0.314,-0.058Z" style="fill-rule:nonzero;"/>
            </g>
            <g transform="matrix(24,0,0,24,208.891,78.8299)">
                <path d="M0.24,0.005C0.197,0.005 0.157,-0.001 0.118,-0.014C0.079,-0.026 0.048,-0.041 0.026,-0.06L0.058,-0.116C0.08,-0.099 0.108,-0.085 0.141,-0.074C0.174,-0.063 0.209,-0.057 0.245,-0.057C0.293,-0.057 0.329,-0.065 0.352,-0.08C0.375,-0.095 0.386,-0.116 0.386,-0.143C0.386,-0.162 0.38,-0.178 0.367,-0.189C0.354,-0.2 0.338,-0.208 0.319,-0.214C0.3,-0.219 0.274,-0.225 0.242,-0.23C0.199,-0.238 0.165,-0.246 0.139,-0.255C0.113,-0.263 0.091,-0.277 0.073,-0.297C0.054,-0.317 0.045,-0.345 0.045,-0.38C0.045,-0.424 0.063,-0.46 0.1,-0.488C0.137,-0.516 0.188,-0.53 0.253,-0.53C0.287,-0.53 0.321,-0.526 0.355,-0.517C0.389,-0.507 0.417,-0.496 0.439,-0.481L0.408,-0.424C0.365,-0.454 0.313,-0.469 0.253,-0.469C0.208,-0.469 0.173,-0.461 0.151,-0.445C0.128,-0.429 0.116,-0.408 0.116,-0.382C0.116,-0.362 0.123,-0.346 0.136,-0.334C0.149,-0.322 0.165,-0.313 0.184,-0.308C0.203,-0.302 0.23,-0.296 0.264,-0.29C0.306,-0.282 0.34,-0.274 0.365,-0.266C0.39,-0.258 0.412,-0.244 0.43,-0.225C0.448,-0.206 0.457,-0.179 0.457,-0.145C0.457,-0.099 0.438,-0.063 0.4,-0.036C0.361,-0.009 0.308,0.005 0.24,0.005Z" style="fill-rule:nonzero;"/>
            </g>
            <g transform="matrix(24,0,0,24,220.627,78.8299)">
                <path d="M0.099,-0.526L0.17,-0.526L0.17,-0L0.099,-0L0.099,-0.526ZM0.135,-0.641C0.12,-0.641 0.108,-0.646 0.098,-0.656C0.088,-0.666 0.083,-0.678 0.083,-0.692C0.083,-0.705 0.088,-0.717 0.098,-0.727C0.108,-0.737 0.12,-0.742 0.135,-0.742C0.15,-0.742 0.162,-0.737 0.172,-0.728C0.182,-0.718 0.187,-0.706 0.187,-0.693C0.187,-0.678 0.182,-0.666 0.172,-0.656C0.162,-0.646 0.15,-0.641 0.135,-0.641Z" style="fill-rule:nonzero;"/>
            </g>
            <g transform="matrix(24,0,0,24,227.083,78.8299)">
                <path d="M0.376,-0.032C0.363,-0.02 0.346,-0.011 0.327,-0.005C0.307,0.002 0.286,0.005 0.265,0.005C0.216,0.005 0.178,-0.008 0.151,-0.035C0.124,-0.062 0.111,-0.099 0.111,-0.148L0.111,-0.466L0.017,-0.466L0.017,-0.526L0.111,-0.526L0.111,-0.641L0.182,-0.641L0.182,-0.526L0.342,-0.526L0.342,-0.466L0.182,-0.466L0.182,-0.152C0.182,-0.121 0.19,-0.097 0.206,-0.081C0.221,-0.064 0.244,-0.056 0.273,-0.056C0.288,-0.056 0.302,-0.058 0.316,-0.063C0.329,-0.068 0.341,-0.074 0.351,-0.083L0.376,-0.032Z" style="fill-rule:nonzero;"/>
            </g>
            <g transform="matrix(24,0,0,24,236.827,78.8299)">
                <path d="M0.099,-0.526L0.17,-0.526L0.17,-0L0.099,-0L0.099,-0.526ZM0.135,-0.641C0.12,-0.641 0.108,-0.646 0.098,-0.656C0.088,-0.666 0.083,-0.678 0.083,-0.692C0.083,-0.705 0.088,-0.717 0.098,-0.727C0.108,-0.737 0.12,-0.742 0.135,-0.742C0.15,-0.742 0.162,-0.737 0.172,-0.728C0.182,-0.718 0.187,-0.706 0.187,-0.693C0.187,-0.678 0.182,-0.666 0.172,-0.656C0.162,-0.646 0.15,-0.641 0.135,-0.641Z" style="fill-rule:nonzero;"/>
            </g>
            <g transform="matrix(24,0,0,24,243.283,78.8299)">
                <path d="M0.314,0.005C0.263,0.005 0.218,-0.007 0.177,-0.03C0.136,-0.053 0.104,-0.084 0.081,-0.125C0.058,-0.166 0.046,-0.212 0.046,-0.263C0.046,-0.314 0.058,-0.36 0.081,-0.401C0.104,-0.442 0.136,-0.473 0.177,-0.496C0.218,-0.519 0.263,-0.53 0.314,-0.53C0.365,-0.53 0.41,-0.519 0.451,-0.496C0.492,-0.473 0.524,-0.442 0.547,-0.401C0.57,-0.36 0.581,-0.314 0.581,-0.263C0.581,-0.212 0.57,-0.166 0.547,-0.125C0.524,-0.084 0.492,-0.053 0.451,-0.03C0.41,-0.007 0.365,0.005 0.314,0.005ZM0.314,-0.058C0.351,-0.058 0.385,-0.067 0.415,-0.084C0.444,-0.1 0.467,-0.125 0.484,-0.156C0.501,-0.187 0.509,-0.223 0.509,-0.263C0.509,-0.303 0.501,-0.339 0.484,-0.37C0.467,-0.401 0.444,-0.426 0.415,-0.443C0.385,-0.46 0.351,-0.468 0.314,-0.468C0.277,-0.468 0.243,-0.46 0.214,-0.443C0.184,-0.426 0.161,-0.401 0.144,-0.37C0.127,-0.339 0.118,-0.303 0.118,-0.263C0.118,-0.223 0.127,-0.187 0.144,-0.156C0.161,-0.125 0.184,-0.1 0.214,-0.084C0.243,-0.067 0.277,-0.058 0.314,-0.058Z" style="fill-rule:nonzero;"/>
            </g>
            <g transform="matrix(24,0,0,24,258.331,78.8299)">
                <path d="M0.367,-0.53C0.433,-0.53 0.486,-0.511 0.525,-0.473C0.564,-0.434 0.583,-0.378 0.583,-0.305L0.583,-0L0.512,-0L0.512,-0.298C0.512,-0.353 0.498,-0.394 0.471,-0.423C0.444,-0.452 0.405,-0.466 0.354,-0.466C0.297,-0.466 0.253,-0.449 0.22,-0.416C0.187,-0.382 0.17,-0.335 0.17,-0.276L0.17,-0L0.099,-0L0.099,-0.526L0.167,-0.526L0.167,-0.429C0.186,-0.461 0.213,-0.486 0.248,-0.504C0.282,-0.521 0.322,-0.53 0.367,-0.53Z" style="fill-rule:nonzero;"/>
            </g>
            <g transform="matrix(24,0,0,24,274.579,78.8299)">
                <path d="M0.24,0.005C0.197,0.005 0.157,-0.001 0.118,-0.014C0.079,-0.026 0.048,-0.041 0.026,-0.06L0.058,-0.116C0.08,-0.099 0.108,-0.085 0.141,-0.074C0.174,-0.063 0.209,-0.057 0.245,-0.057C0.293,-0.057 0.329,-0.065 0.352,-0.08C0.375,-0.095 0.386,-0.116 0.386,-0.143C0.386,-0.162 0.38,-0.178 0.367,-0.189C0.354,-0.2 0.338,-0.208 0.319,-0.214C0.3,-0.219 0.274,-0.225 0.242,-0.23C0.199,-0.238 0.165,-0.246 0.139,-0.255C0.113,-0.263 0.091,-0.277 0.073,-0.297C0.054,-0.317 0.045,-0.345 0.045,-0.38C0.045,-0.424 0.063,-0.46 0.1,-0.488C0.137,-0.516 0.188,-0.53 0.253,-0.53C0.287,-0.53 0.321,-0.526 0.355,-0.517C0.389,-0.507 0.417,-0.496 0.439,-0.481L0.408,-0.424C0.365,-0.454 0.313,-0.469 0.253,-0.469C0.208,-0.469 0.173,-0.461 0.151,-0.445C0.128,-0.429 0.116,-0.408 0.116,-0.382C0.116,-0.362 0.123,-0.346 0.136,-0.334C0.149,-0.322 0.165,-0.313 0.184,-0.308C0.203,-0.302 0.23,-0.296 0.264,-0.29C0.306,-0.282 0.34,-0.274 0.365,-0.266C0.39,-0.258 0.412,-0.244 0.43,-0.225C0.448,-0.206 0.457,-0.179 0.457,-0.145C0.457,-0.099 0.438,-0.063 0.4,-0.036C0.361,-0.009 0.308,0.005 0.24,0.005Z" style="fill-rule:nonzero;"/>
            </g>
        </g>
    </g>
    <g id="Dependencies" transform="matrix(1,0,0,1,330,1.42109e-14)">
        <g transform="matrix(1.17315,0,0,1.05894,55.0489,19.3026)">
            <path d="M183.226,-18.228L89.461,-18.228L-46.924,142.31L46.841,142.31L183.226,-18.228Z" style="fill:rgb(255,212,173);"/>
        </g>
        <g transform="matrix(0.687063,-0.726598,0.726598,0.687063,-58.6764,186.157)">
            <g transform="matrix(24,0,0,24,120.355,78.8299)">
                <path d="M0.114,-0.7L0.399,-0.7C0.473,-0.7 0.538,-0.685 0.595,-0.656C0.652,-0.626 0.696,-0.584 0.727,-0.532C0.758,-0.478 0.774,-0.418 0.774,-0.35C0.774,-0.282 0.758,-0.222 0.727,-0.169C0.696,-0.116 0.652,-0.074 0.595,-0.045C0.538,-0.015 0.473,-0 0.399,-0L0.114,-0L0.114,-0.7ZM0.395,-0.064C0.456,-0.064 0.51,-0.076 0.556,-0.101C0.602,-0.125 0.638,-0.159 0.663,-0.202C0.688,-0.245 0.701,-0.294 0.701,-0.35C0.701,-0.406 0.688,-0.456 0.663,-0.499C0.638,-0.542 0.602,-0.575 0.556,-0.6C0.51,-0.624 0.456,-0.636 0.395,-0.636L0.188,-0.636L0.188,-0.064L0.395,-0.064Z" style="fill-rule:nonzero;"/>
            </g>
            <g transform="matrix(24,0,0,24,140.179,78.8299)">
                <path d="M0.557,-0.241L0.117,-0.241C0.121,-0.186 0.142,-0.142 0.18,-0.109C0.218,-0.075 0.266,-0.058 0.324,-0.058C0.357,-0.058 0.387,-0.064 0.414,-0.076C0.441,-0.087 0.465,-0.104 0.485,-0.127L0.525,-0.081C0.502,-0.053 0.472,-0.032 0.438,-0.017C0.403,-0.002 0.364,0.005 0.322,0.005C0.268,0.005 0.22,-0.007 0.179,-0.03C0.137,-0.053 0.104,-0.084 0.081,-0.125C0.058,-0.166 0.046,-0.212 0.046,-0.263C0.046,-0.314 0.057,-0.36 0.08,-0.401C0.102,-0.442 0.133,-0.473 0.172,-0.496C0.211,-0.519 0.254,-0.53 0.303,-0.53C0.352,-0.53 0.395,-0.519 0.434,-0.496C0.473,-0.473 0.503,-0.442 0.525,-0.402C0.547,-0.361 0.558,-0.315 0.558,-0.263L0.557,-0.241ZM0.303,-0.469C0.252,-0.469 0.21,-0.453 0.176,-0.421C0.141,-0.388 0.122,-0.346 0.117,-0.294L0.49,-0.294C0.485,-0.346 0.466,-0.388 0.432,-0.421C0.397,-0.453 0.354,-0.469 0.303,-0.469Z" style="fill-rule:nonzero;"/>
            </g>
            <g transform="matrix(24,0,0,24,154.675,78.8299)">
                <path d="M0.37,-0.53C0.419,-0.53 0.464,-0.519 0.504,-0.497C0.544,-0.474 0.575,-0.443 0.598,-0.402C0.621,-0.361 0.632,-0.315 0.632,-0.263C0.632,-0.21 0.621,-0.164 0.598,-0.123C0.575,-0.082 0.544,-0.051 0.505,-0.029C0.465,-0.006 0.42,0.005 0.37,0.005C0.327,0.005 0.289,-0.004 0.255,-0.022C0.22,-0.039 0.192,-0.065 0.17,-0.099L0.17,0.194L0.099,0.194L0.099,-0.526L0.167,-0.526L0.167,-0.422C0.188,-0.457 0.217,-0.483 0.252,-0.502C0.286,-0.521 0.326,-0.53 0.37,-0.53ZM0.365,-0.058C0.402,-0.058 0.435,-0.067 0.465,-0.084C0.495,-0.1 0.519,-0.125 0.536,-0.156C0.553,-0.187 0.561,-0.223 0.561,-0.263C0.561,-0.303 0.553,-0.339 0.536,-0.37C0.519,-0.401 0.495,-0.425 0.465,-0.442C0.435,-0.459 0.402,-0.468 0.365,-0.468C0.328,-0.468 0.294,-0.459 0.265,-0.442C0.235,-0.425 0.212,-0.401 0.195,-0.37C0.178,-0.339 0.169,-0.303 0.169,-0.263C0.169,-0.223 0.178,-0.187 0.195,-0.156C0.212,-0.125 0.235,-0.1 0.265,-0.084C0.294,-0.067 0.328,-0.058 0.365,-0.058Z" style="fill-rule:nonzero;"/>
            </g>
            <g transform="matrix(24,0,0,24,170.947,78.8299)">
                <path d="M0.557,-0.241L0.117,-0.241C0.121,-0.186 0.142,-0.142 0.18,-0.109C0.218,-0.075 0.266,-0.058 0.324,-0.058C0.357,-0.058 0.387,-0.064 0.414,-0.076C0.441,-0.087 0.465,-0.104 0.485,-0.127L0.525,-0.081C0.502,-0.053 0.472,-0.032 0.438,-0.017C0.403,-0.002 0.364,0.005 0.322,0.005C0.268,0.005 0.22,-0.007 0.179,-0.03C0.137,-0.053 0.104,-0.084 0.081,-0.125C0.058,-0.166 0.046,-0.212 0.046,-0.263C0.046,-0.314 0.057,-0.36 0.08,-0.401C0.102,-0.442 0.133,-0.473 0.172,-0.496C0.211,-0.519 0.254,-0.53 0.303,-0.53C0.352,-0.53 0.395,-0.519 0.434,-0.496C0.473,-0.473 0.503,-0.442 0.525,-0.402C0.547,-0.361 0.558,-0.315 0.558,-0.263L0.557,-0.241ZM0.303,-0.469C0.252,-0.469 0.21,-0.453 0.176,-0.421C0.141,-0.388 0.122,-0.346 0.117,-0.294L0.49,-0.294C0.485,-0.346 0.466,-0.388 0.432,-0.421C0.397,-0.453 0.354,-0.469 0.303,-0.469Z" style="fill-rule:nonzero;"/>
            </g>
            <g transform="matrix(24,0,0,24,185.443,78.8299)">
                <path d="M0.367,-0.53C0.433,-0.53 0.486,-0.511 0.525,-0.473C0.564,-0.434 0.583,-0.378 0.583,-0.305L0.583,-0L0.512,-0L0.512,-0.298C0.512,-0.353 0.498,-0.394 0.471,-0.423C0.444,-0.452 0.405,-0.466 0.354,-0.466C0.297,-0.466 0.253,-0.449 0.22,-0.416C0.187,-0.382 0.17,-0.335 0.17,-0.276L0.17,-0L0.099,-0L0.099,-0.526L0.167,-0.526L0.167,-0.429C0.186,-0.461 0.213,-0.486 0.248,-0.504C0.282,-0.521 0.322,-0.53 0.367,-0.53Z" style="fill-rule:nonzero;"/>
            </g>
            <g transform="matrix(24,0,0,24,201.691,78.8299)">
                <path d="M0.579,-0.742L0.579,-0L0.511,-0L0.511,-0.104C0.49,-0.069 0.462,-0.042 0.427,-0.023C0.392,-0.004 0.352,0.005 0.308,0.005C0.259,0.005 0.214,-0.006 0.174,-0.029C0.134,-0.052 0.103,-0.083 0.08,-0.124C0.057,-0.165 0.046,-0.211 0.046,-0.263C0.046,-0.315 0.057,-0.361 0.08,-0.402C0.103,-0.443 0.134,-0.474 0.174,-0.497C0.214,-0.519 0.259,-0.53 0.308,-0.53C0.351,-0.53 0.389,-0.521 0.424,-0.504C0.458,-0.486 0.486,-0.46 0.508,-0.426L0.508,-0.742L0.579,-0.742ZM0.314,-0.058C0.351,-0.058 0.384,-0.067 0.414,-0.084C0.443,-0.1 0.466,-0.125 0.484,-0.156C0.501,-0.187 0.509,-0.223 0.509,-0.263C0.509,-0.303 0.501,-0.339 0.484,-0.37C0.466,-0.401 0.443,-0.426 0.414,-0.443C0.384,-0.46 0.351,-0.468 0.314,-0.468C0.277,-0.468 0.243,-0.46 0.214,-0.443C0.184,-0.426 0.161,-0.401 0.144,-0.37C0.127,-0.339 0.118,-0.303 0.118,-0.263C0.118,-0.223 0.127,-0.187 0.144,-0.156C0.161,-0.125 0.184,-0.1 0.214,-0.084C0.243,-0.067 0.277,-0.058 0.314,-0.058Z" style="fill-rule:nonzero;"/>
            </g>
            <g transform="matrix(24,0,0,24,217.963,78.8299)">
                <path d="M0.557,-0.241L0.117,-0.241C0.121,-0.186 0.142,-0.142 0.18,-0.109C0.218,-0.075 0.266,-0.058 0.324,-0.058C0.357,-0.058 0.387,-0.064 0.414,-0.076C0.441,-0.087 0.465,-0.104 0.485,-0.127L0.525,-0.081C0.502,-0.053 0.472,-0.032 0.438,-0.017C0.403,-0.002 0.364,0.005 0.322,0.005C0.268,0.005 0.22,-0.007 0.179,-0.03C0.137,-0.053 0.104,-0.084 0.081,-0.125C0.058,-0.166 0.046,-0.212 0.046,-0.263C0.046,-0.314 0.057,-0.36 0.08,-0.401C0.102,-0.442 0.133,-0.473 0.172,-0.496C0.211,-0.519 0.254,-0.53 0.303,-0.53C0.352,-0.53 0.395,-0.519 0.434,-0.496C0.473,-0.473 0.503,-0.442 0.525,-0.402C0.547,-0.361 0.558,-0.315 0.558,-0.263L0.557,-0.241ZM0.303,-0.469C0.252,-0.469 0.21,-0.453 0.176,-0.421C0.141,-0.388 0.122,-0.346 0.117,-0.294L0.49,-0.294C0.485,-0.346 0.466,-0.388 0.432,-0.421C0.397,-0.453 0.354,-0.469 0.303,-0.469Z" style="fill-rule:nonzero;"/>
            </g>
            <g transform="matrix(24,0,0,24,232.459,78.8299)">
                <path d="M0.367,-0.53C0.433,-0.53 0.486,-0.511 0.525,-0.473C0.564,-0.434 0.583,-0.378 0.583,-0.305L0.583,-0L0.512,-0L0.512,-0.298C0.512,-0.353 0.498,-0.394 0.471,-0.423C0.444,-0.452 0.405,-0.466 0.354,-0.466C0.297,-0.466 0.253,-0.449 0.22,-0.416C0.187,-0.382 0.17,-0.335 0.17,-0.276L0.17,-0L0.099,-0L0.099,-0.526L0.167,-0.526L0.167,-0.429C0.186,-0.461 0.213,-0.486 0.248,-0.504C0.282,-0.521 0.322,-0.53 0.367,-0.53Z" style="fill-rule:nonzero;"/>
            </g>
            <g transform="matrix(24,0,0,24,248.707,78.8299)">
                <path d="M0.317,0.005C0.265,0.005 0.219,-0.006 0.178,-0.029C0.136,-0.052 0.104,-0.084 0.081,-0.125C0.058,-0.166 0.046,-0.212 0.046,-0.263C0.046,-0.314 0.058,-0.36 0.081,-0.401C0.104,-0.442 0.136,-0.473 0.178,-0.496C0.219,-0.519 0.265,-0.53 0.317,-0.53C0.362,-0.53 0.403,-0.521 0.439,-0.504C0.474,-0.486 0.502,-0.46 0.523,-0.426L0.47,-0.39C0.453,-0.416 0.431,-0.436 0.404,-0.449C0.377,-0.462 0.348,-0.468 0.317,-0.468C0.279,-0.468 0.245,-0.46 0.215,-0.443C0.184,-0.426 0.161,-0.401 0.144,-0.37C0.127,-0.339 0.118,-0.303 0.118,-0.263C0.118,-0.222 0.127,-0.187 0.144,-0.156C0.161,-0.125 0.184,-0.1 0.215,-0.084C0.245,-0.067 0.279,-0.058 0.317,-0.058C0.348,-0.058 0.377,-0.064 0.404,-0.077C0.431,-0.09 0.453,-0.109 0.47,-0.135L0.523,-0.099C0.502,-0.065 0.474,-0.039 0.438,-0.022C0.402,-0.004 0.362,0.005 0.317,0.005Z" style="fill-rule:nonzero;"/>
            </g>
            <g transform="matrix(24,0,0,24,262.027,78.8299)">
                <path d="M0.099,-0.526L0.17,-0.526L0.17,-0L0.099,-0L0.099,-0.526ZM0.135,-0.641C0.12,-0.641 0.108,-0.646 0.098,-0.656C0.088,-0.666 0.083,-0.678 0.083,-0.692C0.083,-0.705 0.088,-0.717 0.098,-0.727C0.108,-0.737 0.12,-0.742 0.135,-0.742C0.15,-0.742 0.162,-0.737 0.172,-0.728C0.182,-0.718 0.187,-0.706 0.187,-0.693C0.187,-0.678 0.182,-0.666 0.172,-0.656C0.162,-0.646 0.15,-0.641 0.135,-0.641Z" style="fill-rule:nonzero;"/>
            </g>
            <g transform="matrix(24,0,0,24,268.483,78.8299)">
                <path d="M0.557,-0.241L0.117,-0.241C0.121,-0.186 0.142,-0.142 0.18,-0.109C0.218,-0.075 0.266,-0.058 0.324,-0.058C0.357,-0.058 0.387,-0.064 0.414,-0.076C0.441,-0.087 0.465,-0.104 0.485,-0.127L0.525,-0.081C0.502,-0.053 0.472,-0.032 0.438,-0.017C0.403,-0.002 0.364,0.005 0.322,0.005C0.268,0.005 0.22,-0.007 0.179,-0.03C0.137,-0.053 0.104,-0.084 0.081,-0.125C0.058,-0.166 0.046,-0.212 0.046,-0.263C0.046,-0.314 0.057,-0.36 0.08,-0.401C0.102,-0.442 0.133,-0.473 0.172,-0.496C0.211,-0.519 0.254,-0.53 0.303,-0.53C0.352,-0.53 0.395,-0.519 0.434,-0.496C0.473,-0.473 0.503,-0.442 0.525,-0.402C0.547,-0.361 0.558,-0.315 0.558,-0.263L0.557,-0.241ZM0.303,-0.469C0.252,-0.469 0.21,-0.453 0.176,-0.421C0.141,-0.388 0.122,-0.346 0.117,-0.294L0.49,-0.294C0.485,-0.346 0.466,-0.388 0.432,-0.421C0.397,-0.453 0.354,-0.469 0.303,-0.469Z" style="fill-rule:nonzero;"/>
            </g>
            <g transform="matrix(24,0,0,24,282.979,78.8299)">
                <path d="M0.24,0.005C0.197,0.005 0.157,-0.001 0.118,-0.014C0.079,-0.026 0.048,-0.041 0.026,-0.06L0.058,-0.116C0.08,-0.099 0.108,-0.085 0.141,-0.074C0.174,-0.063 0.209,-0.057 0.245,-0.057C0.293,-0.057 0.329,-0.065 0.352,-0.08C0.375,-0.095 0.386,-0.116 0.386,-0.143C0.386,-0.162 0.38,-0.178 0.367,-0.189C0.354,-0.2 0.338,-0.208 0.319,-0.214C0.3,-0.219 0.274,-0.225 0.242,-0.23C0.199,-0.238 0.165,-0.246 0.139,-0.255C0.113,-0.263 0.091,-0.277 0.073,-0.297C0.054,-0.317 0.045,-0.345 0.045,-0.38C0.045,-0.424 0.063,-0.46 0.1,-0.488C0.137,-0.516 0.188,-0.53 0.253,-0.53C0.287,-0.53 0.321,-0.526 0.355,-0.517C0.389,-0.507 0.417,-0.496 0.439,-0.481L0.408,-0.424C0.365,-0.454 0.313,-0.469 0.253,-0.469C0.208,-0.469 0.173,-0.461 0.151,-0.445C0.128,-0.429 0.116,-0.408 0.116,-0.382C0.116,-0.362 0.123,-0.346 0.136,-0.334C0.149,-0.322 0.165,-0.313 0.184,-0.308C0.203,-0.302 0.23,-0.296 0.264,-0.29C0.306,-0.282 0.34,-0.274 0.365,-0.266C0.39,-0.258 0.412,-0.244 0.43,-0.225C0.448,-0.206 0.457,-0.179 0.457,-0.145C0.457,-0.099 0.438,-0.063 0.4,-0.036C0.361,-0.009 0.308,0.005 0.24,0.005Z" style="fill-rule:nonzero;"/>
            </g>
        </g>
    </g>
    <g id="Services" transform="matrix(1,0,0,1,220,1.42109e-14)">
        <g transform="matrix(1.17315,0,0,1.05894,55.0489,19.3026)">
            <path d="M183.226,-18.228L89.461,-18.228L-46.924,142.31L46.841,142.31L183.226,-18.228Z" style="fill:rgb(175,220,205);"/>
        </g>
        <g transform="matrix(0.687063,-0.726598,0.726598,0.687063,-33.0679,158.616)">
            <g transform="matrix(24,0,0,24,120.355,78.8299)">
                <path d="M0.307,0.006C0.255,0.006 0.205,-0.002 0.158,-0.019C0.11,-0.036 0.073,-0.058 0.047,-0.085L0.076,-0.142C0.101,-0.117 0.135,-0.096 0.177,-0.081C0.219,-0.065 0.262,-0.057 0.307,-0.057C0.37,-0.057 0.417,-0.069 0.448,-0.092C0.479,-0.115 0.495,-0.144 0.495,-0.181C0.495,-0.209 0.487,-0.231 0.47,-0.248C0.452,-0.265 0.432,-0.278 0.407,-0.287C0.382,-0.296 0.348,-0.305 0.304,-0.316C0.251,-0.329 0.209,-0.342 0.178,-0.355C0.147,-0.367 0.12,-0.386 0.098,-0.411C0.075,-0.436 0.064,-0.471 0.064,-0.514C0.064,-0.549 0.073,-0.582 0.092,-0.611C0.111,-0.64 0.139,-0.663 0.178,-0.68C0.217,-0.697 0.265,-0.706 0.322,-0.706C0.362,-0.706 0.401,-0.7 0.44,-0.69C0.478,-0.679 0.511,-0.663 0.539,-0.644L0.514,-0.585C0.485,-0.604 0.453,-0.619 0.42,-0.629C0.387,-0.638 0.354,-0.643 0.322,-0.643C0.261,-0.643 0.215,-0.631 0.184,-0.608C0.153,-0.584 0.137,-0.553 0.137,-0.516C0.137,-0.488 0.146,-0.466 0.163,-0.449C0.18,-0.432 0.201,-0.419 0.227,-0.41C0.252,-0.401 0.287,-0.391 0.33,-0.38C0.381,-0.367 0.423,-0.355 0.455,-0.343C0.486,-0.33 0.513,-0.312 0.535,-0.287C0.557,-0.262 0.568,-0.228 0.568,-0.185C0.568,-0.15 0.559,-0.118 0.54,-0.089C0.521,-0.059 0.491,-0.037 0.452,-0.02C0.413,-0.003 0.364,0.006 0.307,0.006Z" style="fill-rule:nonzero;"/>
            </g>
            <g transform="matrix(24,0,0,24,135.115,78.8299)">
                <path d="M0.557,-0.241L0.117,-0.241C0.121,-0.186 0.142,-0.142 0.18,-0.109C0.218,-0.075 0.266,-0.058 0.324,-0.058C0.357,-0.058 0.387,-0.064 0.414,-0.076C0.441,-0.087 0.465,-0.104 0.485,-0.127L0.525,-0.081C0.502,-0.053 0.472,-0.032 0.438,-0.017C0.403,-0.002 0.364,0.005 0.322,0.005C0.268,0.005 0.22,-0.007 0.179,-0.03C0.137,-0.053 0.104,-0.084 0.081,-0.125C0.058,-0.166 0.046,-0.212 0.046,-0.263C0.046,-0.314 0.057,-0.36 0.08,-0.401C0.102,-0.442 0.133,-0.473 0.172,-0.496C0.211,-0.519 0.254,-0.53 0.303,-0.53C0.352,-0.53 0.395,-0.519 0.434,-0.496C0.473,-0.473 0.503,-0.442 0.525,-0.402C0.547,-0.361 0.558,-0.315 0.558,-0.263L0.557,-0.241ZM0.303,-0.469C0.252,-0.469 0.21,-0.453 0.176,-0.421C0.141,-0.388 0.122,-0.346 0.117,-0.294L0.49,-0.294C0.485,-0.346 0.466,-0.388 0.432,-0.421C0.397,-0.453 0.354,-0.469 0.303,-0.469Z" style="fill-rule:nonzero;"/>
            </g>
            <g transform="matrix(24,0,0,24,149.611,78.8299)">
                <path d="M0.167,-0.423C0.184,-0.458 0.209,-0.485 0.242,-0.503C0.274,-0.521 0.315,-0.53 0.364,-0.53L0.364,-0.461L0.347,-0.462C0.292,-0.462 0.248,-0.445 0.217,-0.411C0.186,-0.377 0.17,-0.329 0.17,-0.268L0.17,-0L0.099,-0L0.099,-0.526L0.167,-0.526L0.167,-0.423Z" style="fill-rule:nonzero;"/>
            </g>
            <g transform="matrix(24,0,0,24,159.595,78.8299)">
                <path d="M0.541,-0.526L0.307,-0L0.234,-0L0.001,-0.526L0.075,-0.526L0.272,-0.078L0.471,-0.526L0.541,-0.526Z" style="fill-rule:nonzero;"/>
            </g>
            <g transform="matrix(24,0,0,24,172.603,78.8299)">
                <path d="M0.099,-0.526L0.17,-0.526L0.17,-0L0.099,-0L0.099,-0.526ZM0.135,-0.641C0.12,-0.641 0.108,-0.646 0.098,-0.656C0.088,-0.666 0.083,-0.678 0.083,-0.692C0.083,-0.705 0.088,-0.717 0.098,-0.727C0.108,-0.737 0.12,-0.742 0.135,-0.742C0.15,-0.742 0.162,-0.737 0.172,-0.728C0.182,-0.718 0.187,-0.706 0.187,-0.693C0.187,-0.678 0.182,-0.666 0.172,-0.656C0.162,-0.646 0.15,-0.641 0.135,-0.641Z" style="fill-rule:nonzero;"/>
            </g>
            <g transform="matrix(24,0,0,24,179.059,78.8299)">
                <path d="M0.317,0.005C0.265,0.005 0.219,-0.006 0.178,-0.029C0.136,-0.052 0.104,-0.084 0.081,-0.125C0.058,-0.166 0.046,-0.212 0.046,-0.263C0.046,-0.314 0.058,-0.36 0.081,-0.401C0.104,-0.442 0.136,-0.473 0.178,-0.496C0.219,-0.519 0.265,-0.53 0.317,-0.53C0.362,-0.53 0.403,-0.521 0.439,-0.504C0.474,-0.486 0.502,-0.46 0.523,-0.426L0.47,-0.39C0.453,-0.416 0.431,-0.436 0.404,-0.449C0.377,-0.462 0.348,-0.468 0.317,-0.468C0.279,-0.468 0.245,-0.46 0.215,-0.443C0.184,-0.426 0.161,-0.401 0.144,-0.37C0.127,-0.339 0.118,-0.303 0.118,-0.263C0.118,-0.222 0.127,-0.187 0.144,-0.156C0.161,-0.125 0.184,-0.1 0.215,-0.084C0.245,-0.067 0.279,-0.058 0.317,-0.058C0.348,-0.058 0.377,-0.064 0.404,-0.077C0.431,-0.09 0.453,-0.109 0.47,-0.135L0.523,-0.099C0.502,-0.065 0.474,-0.039 0.438,-0.022C0.402,-0.004 0.362,0.005 0.317,0.005Z" style="fill-rule:nonzero;"/>
            </g>
            <g transform="matrix(24,0,0,24,192.355,78.8299)">
                <path d="M0.557,-0.241L0.117,-0.241C0.121,-0.186 0.142,-0.142 0.18,-0.109C0.218,-0.075 0.266,-0.058 0.324,-0.058C0.357,-0.058 0.387,-0.064 0.414,-0.076C0.441,-0.087 0.465,-0.104 0.485,-0.127L0.525,-0.081C0.502,-0.053 0.472,-0.032 0.438,-0.017C0.403,-0.002 0.364,0.005 0.322,0.005C0.268,0.005 0.22,-0.007 0.179,-0.03C0.137,-0.053 0.104,-0.084 0.081,-0.125C0.058,-0.166 0.046,-0.212 0.046,-0.263C0.046,-0.314 0.057,-0.36 0.08,-0.401C0.102,-0.442 0.133,-0.473 0.172,-0.496C0.211,-0.519 0.254,-0.53 0.303,-0.53C0.352,-0.53 0.395,-0.519 0.434,-0.496C0.473,-0.473 0.503,-0.442 0.525,-0.402C0.547,-0.361 0.558,-0.315 0.558,-0.263L0.557,-0.241ZM0.303,-0.469C0.252,-0.469 0.21,-0.453 0.176,-0.421C0.141,-0.388 0.122,-0.346 0.117,-0.294L0.49,-0.294C0.485,-0.346 0.466,-0.388 0.432,-0.421C0.397,-0.453 0.354,-0.469 0.303,-0.469Z" style="fill-rule:nonzero;"/>
            </g>
            <g transform="matrix(24,0,0,24,206.851,78.8299)">
                <path d="M0.24,0.005C0.197,0.005 0.157,-0.001 0.118,-0.014C0.079,-0.026 0.048,-0.041 0.026,-0.06L0.058,-0.116C0.08,-0.099 0.108,-0.085 0.141,-0.074C0.174,-0.063 0.209,-0.057 0.245,-0.057C0.293,-0.057 0.329,-0.065 0.352,-0.08C0.375,-0.095 0.386,-0.116 0.386,-0.143C0.386,-0.162 0.38,-0.178 0.367,-0.189C0.354,-0.2 0.338,-0.208 0.319,-0.214C0.3,-0.219 0.274,-0.225 0.242,-0.23C0.199,-0.238 0.165,-0.246 0.139,-0.255C0.113,-0.263 0.091,-0.277 0.073,-0.297C0.054,-0.317 0.045,-0.345 0.045,-0.38C0.045,-0.424 0.063,-0.46 0.1,-0.488C0.137,-0.516 0.188,-0.53 0.253,-0.53C0.287,-0.53 0.321,-0.526 0.355,-0.517C0.389,-0.507 0.417,-0.496 0.439,-0.481L0.408,-0.424C0.365,-0.454 0.313,-0.469 0.253,-0.469C0.208,-0.469 0.173,-0.461 0.151,-0.445C0.128,-0.429 0.116,-0.408 0.116,-0.382C0.116,-0.362 0.123,-0.346 0.136,-0.334C0.149,-0.322 0.165,-0.313 0.184,-0.308C0.203,-0.302 0.23,-0.296 0.264,-0.29C0.306,-0.282 0.34,-0.274 0.365,-0.266C0.39,-0.258 0.412,-0.244 0.43,-0.225C0.448,-0.206 0.457,-0.179 0.457,-0.145C0.457,-0.099 0.438,-0.063 0.4,-0.036C0.361,-0.009 0.308,0.005 0.24,0.005Z" style="fill-rule:nonzero;"/>
            </g>
        </g>
    </g>
    <g id="Components" transform="matrix(1,0,0,1,110,1.42109e-14)">
        <g transform="matrix(1.17315,0,0,1.05894,55.0489,19.3026)">
            <path d="M183.226,-18.228L89.461,-18.228L-46.924,142.31L46.841,142.31L183.226,-18.228Z" style="fill:rgb(188,213,244);"/>
        </g>
        <g transform="matrix(0.687063,-0.726598,0.726598,0.687063,-53.8896,180.998)">
            <g transform="matrix(24,0,0,24,120.355,78.8299)">
                <path d="M0.418,0.006C0.349,0.006 0.286,-0.009 0.231,-0.04C0.175,-0.071 0.131,-0.113 0.1,-0.168C0.068,-0.222 0.052,-0.283 0.052,-0.35C0.052,-0.417 0.068,-0.478 0.1,-0.533C0.131,-0.587 0.175,-0.629 0.231,-0.66C0.287,-0.691 0.35,-0.706 0.419,-0.706C0.471,-0.706 0.519,-0.697 0.563,-0.68C0.607,-0.663 0.644,-0.637 0.675,-0.604L0.628,-0.557C0.573,-0.612 0.504,-0.64 0.421,-0.64C0.366,-0.64 0.315,-0.627 0.27,-0.602C0.225,-0.577 0.189,-0.542 0.164,-0.498C0.138,-0.454 0.125,-0.405 0.125,-0.35C0.125,-0.295 0.138,-0.246 0.164,-0.202C0.189,-0.158 0.225,-0.123 0.27,-0.098C0.315,-0.073 0.366,-0.06 0.421,-0.06C0.505,-0.06 0.574,-0.088 0.628,-0.144L0.675,-0.097C0.644,-0.064 0.607,-0.038 0.563,-0.021C0.518,-0.003 0.47,0.006 0.418,0.006Z" style="fill-rule:nonzero;"/>
            </g>
            <g transform="matrix(24,0,0,24,137.059,78.8299)">
                <path d="M0.314,0.005C0.263,0.005 0.218,-0.007 0.177,-0.03C0.136,-0.053 0.104,-0.084 0.081,-0.125C0.058,-0.166 0.046,-0.212 0.046,-0.263C0.046,-0.314 0.058,-0.36 0.081,-0.401C0.104,-0.442 0.136,-0.473 0.177,-0.496C0.218,-0.519 0.263,-0.53 0.314,-0.53C0.365,-0.53 0.41,-0.519 0.451,-0.496C0.492,-0.473 0.524,-0.442 0.547,-0.401C0.57,-0.36 0.581,-0.314 0.581,-0.263C0.581,-0.212 0.57,-0.166 0.547,-0.125C0.524,-0.084 0.492,-0.053 0.451,-0.03C0.41,-0.007 0.365,0.005 0.314,0.005ZM0.314,-0.058C0.351,-0.058 0.385,-0.067 0.415,-0.084C0.444,-0.1 0.467,-0.125 0.484,-0.156C0.501,-0.187 0.509,-0.223 0.509,-0.263C0.509,-0.303 0.501,-0.339 0.484,-0.37C0.467,-0.401 0.444,-0.426 0.415,-0.443C0.385,-0.46 0.351,-0.468 0.314,-0.468C0.277,-0.468 0.243,-0.46 0.214,-0.443C0.184,-0.426 0.161,-0.401 0.144,-0.37C0.127,-0.339 0.118,-0.303 0.118,-0.263C0.118,-0.223 0.127,-0.187 0.144,-0.156C0.161,-0.125 0.184,-0.1 0.214,-0.084C0.243,-0.067 0.277,-0.058 0.314,-0.058Z" style="fill-rule:nonzero;"/>
            </g>
            <g transform="matrix(24,0,0,24,152.107,78.8299)">
                <path d="M0.755,-0.53C0.821,-0.53 0.873,-0.511 0.911,-0.473C0.948,-0.435 0.967,-0.379 0.967,-0.305L0.967,-0L0.896,-0L0.896,-0.298C0.896,-0.353 0.883,-0.394 0.857,-0.423C0.83,-0.452 0.793,-0.466 0.745,-0.466C0.69,-0.466 0.647,-0.449 0.616,-0.416C0.585,-0.382 0.569,-0.335 0.569,-0.276L0.569,-0L0.498,-0L0.498,-0.298C0.498,-0.353 0.485,-0.394 0.459,-0.423C0.432,-0.452 0.395,-0.466 0.346,-0.466C0.292,-0.466 0.249,-0.449 0.218,-0.416C0.186,-0.382 0.17,-0.335 0.17,-0.276L0.17,-0L0.099,-0L0.099,-0.526L0.167,-0.526L0.167,-0.43C0.186,-0.462 0.212,-0.487 0.245,-0.504C0.278,-0.521 0.317,-0.53 0.36,-0.53C0.404,-0.53 0.442,-0.521 0.475,-0.502C0.507,-0.483 0.531,-0.456 0.547,-0.419C0.566,-0.454 0.594,-0.481 0.631,-0.501C0.667,-0.52 0.708,-0.53 0.755,-0.53Z" style="fill-rule:nonzero;"/>
            </g>
            <g transform="matrix(24,0,0,24,177.571,78.8299)">
                <path d="M0.37,-0.53C0.419,-0.53 0.464,-0.519 0.504,-0.497C0.544,-0.474 0.575,-0.443 0.598,-0.402C0.621,-0.361 0.632,-0.315 0.632,-0.263C0.632,-0.21 0.621,-0.164 0.598,-0.123C0.575,-0.082 0.544,-0.051 0.505,-0.029C0.465,-0.006 0.42,0.005 0.37,0.005C0.327,0.005 0.289,-0.004 0.255,-0.022C0.22,-0.039 0.192,-0.065 0.17,-0.099L0.17,0.194L0.099,0.194L0.099,-0.526L0.167,-0.526L0.167,-0.422C0.188,-0.457 0.217,-0.483 0.252,-0.502C0.286,-0.521 0.326,-0.53 0.37,-0.53ZM0.365,-0.058C0.402,-0.058 0.435,-0.067 0.465,-0.084C0.495,-0.1 0.519,-0.125 0.536,-0.156C0.553,-0.187 0.561,-0.223 0.561,-0.263C0.561,-0.303 0.553,-0.339 0.536,-0.37C0.519,-0.401 0.495,-0.425 0.465,-0.442C0.435,-0.459 0.402,-0.468 0.365,-0.468C0.328,-0.468 0.294,-0.459 0.265,-0.442C0.235,-0.425 0.212,-0.401 0.195,-0.37C0.178,-0.339 0.169,-0.303 0.169,-0.263C0.169,-0.223 0.178,-0.187 0.195,-0.156C0.212,-0.125 0.235,-0.1 0.265,-0.084C0.294,-0.067 0.328,-0.058 0.365,-0.058Z" style="fill-rule:nonzero;"/>
            </g>
            <g transform="matrix(24,0,0,24,193.843,78.8299)">
                <path d="M0.314,0.005C0.263,0.005 0.218,-0.007 0.177,-0.03C0.136,-0.053 0.104,-0.084 0.081,-0.125C0.058,-0.166 0.046,-0.212 0.046,-0.263C0.046,-0.314 0.058,-0.36 0.081,-0.401C0.104,-0.442 0.136,-0.473 0.177,-0.496C0.218,-0.519 0.263,-0.53 0.314,-0.53C0.365,-0.53 0.41,-0.519 0.451,-0.496C0.492,-0.473 0.524,-0.442 0.547,-0.401C0.57,-0.36 0.581,-0.314 0.581,-0.263C0.581,-0.212 0.57,-0.166 0.547,-0.125C0.524,-0.084 0.492,-0.053 0.451,-0.03C0.41,-0.007 0.365,0.005 0.314,0.005ZM0.314,-0.058C0.351,-0.058 0.385,-0.067 0.415,-0.084C0.444,-0.1 0.467,-0.125 0.484,-0.156C0.501,-0.187 0.509,-0.223 0.509,-0.263C0.509,-0.303 0.501,-0.339 0.484,-0.37C0.467,-0.401 0.444,-0.426 0.415,-0.443C0.385,-0.46 0.351,-0.468 0.314,-0.468C0.277,-0.468 0.243,-0.46 0.214,-0.443C0.184,-0.426 0.161,-0.401 0.144,-0.37C0.127,-0.339 0.118,-0.303 0.118,-0.263C0.118,-0.223 0.127,-0.187 0.144,-0.156C0.161,-0.125 0.184,-0.1 0.214,-0.084C0.243,-0.067 0.277,-0.058 0.314,-0.058Z" style="fill-rule:nonzero;"/>
            </g>
            <g transform="matrix(24,0,0,24,208.891,78.8299)">
                <path d="M0.367,-0.53C0.433,-0.53 0.486,-0.511 0.525,-0.473C0.564,-0.434 0.583,-0.378 0.583,-0.305L0.583,-0L0.512,-0L0.512,-0.298C0.512,-0.353 0.498,-0.394 0.471,-0.423C0.444,-0.452 0.405,-0.466 0.354,-0.466C0.297,-0.466 0.253,-0.449 0.22,-0.416C0.187,-0.382 0.17,-0.335 0.17,-0.276L0.17,-0L0.099,-0L0.099,-0.526L0.167,-0.526L0.167,-0.429C0.186,-0.461 0.213,-0.486 0.248,-0.504C0.282,-0.521 0.322,-0.53 0.367,-0.53Z" style="fill-rule:nonzero;"/>
            </g>
            <g transform="matrix(24,0,0,24,225.139,78.8299)">
                <path d="M0.557,-0.241L0.117,-0.241C0.121,-0.186 0.142,-0.142 0.18,-0.109C0.218,-0.075 0.266,-0.058 0.324,-0.058C0.357,-0.058 0.387,-0.064 0.414,-0.076C0.441,-0.087 0.465,-0.104 0.485,-0.127L0.525,-0.081C0.502,-0.053 0.472,-0.032 0.438,-0.017C0.403,-0.002 0.364,0.005 0.322,0.005C0.268,0.005 0.22,-0.007 0.179,-0.03C0.137,-0.053 0.104,-0.084 0.081,-0.125C0.058,-0.166 0.046,-0.212 0.046,-0.263C0.046,-0.314 0.057,-0.36 0.08,-0.401C0.102,-0.442 0.133,-0.473 0.172,-0.496C0.211,-0.519 0.254,-0.53 0.303,-0.53C0.352,-0.53 0.395,-0.519 0.434,-0.496C0.473,-0.473 0.503,-0.442 0.525,-0.402C0.547,-0.361 0.558,-0.315 0.558,-0.263L0.557,-0.241ZM0.303,-0.469C0.252,-0.469 0.21,-0.453 0.176,-0.421C0.141,-0.388 0.122,-0.346 0.117,-0.294L0.49,-0.294C0.485,-0.346 0.466,-0.388 0.432,-0.421C0.397,-0.453 0.354,-0.469 0.303,-0.469Z" style="fill-rule:nonzero;"/>
            </g>
            <g transform="matrix(24,0,0,24,239.635,78.8299)">
                <path d="M0.367,-0.53C0.433,-0.53 0.486,-0.511 0.525,-0.473C0.564,-0.434 0.583,-0.378 0.583,-0.305L0.583,-0L0.512,-0L0.512,-0.298C0.512,-0.353 0.498,-0.394 0.471,-0.423C0.444,-0.452 0.405,-0.466 0.354,-0.466C0.297,-0.466 0.253,-0.449 0.22,-0.416C0.187,-0.382 0.17,-0.335 0.17,-0.276L0.17,-0L0.099,-0L0.099,-0.526L0.167,-0.526L0.167,-0.429C0.186,-0.461 0.213,-0.486 0.248,-0.504C0.282,-0.521 0.322,-0.53 0.367,-0.53Z" style="fill-rule:nonzero;"/>
            </g>
            <g transform="matrix(24,0,0,24,255.883,78.8299)">
                <path d="M0.376,-0.032C0.363,-0.02 0.346,-0.011 0.327,-0.005C0.307,0.002 0.286,0.005 0.265,0.005C0.216,0.005 0.178,-0.008 0.151,-0.035C0.124,-0.062 0.111,-0.099 0.111,-0.148L0.111,-0.466L0.017,-0.466L0.017,-0.526L0.111,-0.526L0.111,-0.641L0.182,-0.641L0.182,-0.526L0.342,-0.526L0.342,-0.466L0.182,-0.466L0.182,-0.152C0.182,-0.121 0.19,-0.097 0.206,-0.081C0.221,-0.064 0.244,-0.056 0.273,-0.056C0.288,-0.056 0.302,-0.058 0.316,-0.063C0.329,-0.068 0.341,-0.074 0.351,-0.083L0.376,-0.032Z" style="fill-rule:nonzero;"/>
            </g>
            <g transform="matrix(24,0,0,24,265.627,78.8299)">
                <path d="M0.24,0.005C0.197,0.005 0.157,-0.001 0.118,-0.014C0.079,-0.026 0.048,-0.041 0.026,-0.06L0.058,-0.116C0.08,-0.099 0.108,-0.085 0.141,-0.074C0.174,-0.063 0.209,-0.057 0.245,-0.057C0.293,-0.057 0.329,-0.065 0.352,-0.08C0.375,-0.095 0.386,-0.116 0.386,-0.143C0.386,-0.162 0.38,-0.178 0.367,-0.189C0.354,-0.2 0.338,-0.208 0.319,-0.214C0.3,-0.219 0.274,-0.225 0.242,-0.23C0.199,-0.238 0.165,-0.246 0.139,-0.255C0.113,-0.263 0.091,-0.277 0.073,-0.297C0.054,-0.317 0.045,-0.345 0.045,-0.38C0.045,-0.424 0.063,-0.46 0.1,-0.488C0.137,-0.516 0.188,-0.53 0.253,-0.53C0.287,-0.53 0.321,-0.526 0.355,-0.517C0.389,-0.507 0.417,-0.496 0.439,-0.481L0.408,-0.424C0.365,-0.454 0.313,-0.469 0.253,-0.469C0.208,-0.469 0.173,-0.461 0.151,-0.445C0.128,-0.429 0.116,-0.408 0.116,-0.382C0.116,-0.362 0.123,-0.346 0.136,-0.334C0.149,-0.322 0.165,-0.313 0.184,-0.308C0.203,-0.302 0.23,-0.296 0.264,-0.29C0.306,-0.282 0.34,-0.274 0.365,-0.266C0.39,-0.258 0.412,-0.244 0.43,-0.225C0.448,-0.206 0.457,-0.179 0.457,-0.145C0.457,-0.099 0.438,-0.063 0.4,-0.036C0.361,-0.009 0.308,0.005 0.24,0.005Z" style="fill-rule:nonzero;"/>
            </g>
        </g>
    </g>
    <g id="Metadata">
        <g transform="matrix(1.17315,0,0,1.05894,55.0489,19.3026)">
            <path d="M183.226,-18.228L89.461,-18.228L-46.924,142.31L46.841,142.31L183.226,-18.228Z" style="fill:rgb(207,183,224);"/>
        </g>
        <g transform="matrix(0.687063,-0.726598,0.726598,0.687063,-38.7619,163.949)">
            <g transform="matrix(24,0,0,24,120.355,78.8299)">
                <path d="M0.841,-0.7L0.841,-0L0.77,-0L0.77,-0.56L0.495,-0.089L0.46,-0.089L0.185,-0.557L0.185,-0L0.114,-0L0.114,-0.7L0.175,-0.7L0.479,-0.181L0.78,-0.7L0.841,-0.7Z" style="fill-rule:nonzero;"/>
            </g>
            <g transform="matrix(24,0,0,24,143.275,78.8299)">
                <path d="M0.557,-0.241L0.117,-0.241C0.121,-0.186 0.142,-0.142 0.18,-0.109C0.218,-0.075 0.266,-0.058 0.324,-0.058C0.357,-0.058 0.387,-0.064 0.414,-0.076C0.441,-0.087 0.465,-0.104 0.485,-0.127L0.525,-0.081C0.502,-0.053 0.472,-0.032 0.438,-0.017C0.403,-0.002 0.364,0.005 0.322,0.005C0.268,0.005 0.22,-0.007 0.179,-0.03C0.137,-0.053 0.104,-0.084 0.081,-0.125C0.058,-0.166 0.046,-0.212 0.046,-0.263C0.046,-0.314 0.057,-0.36 0.08,-0.401C0.102,-0.442 0.133,-0.473 0.172,-0.496C0.211,-0.519 0.254,-0.53 0.303,-0.53C0.352,-0.53 0.395,-0.519 0.434,-0.496C0.473,-0.473 0.503,-0.442 0.525,-0.402C0.547,-0.361 0.558,-0.315 0.558,-0.263L0.557,-0.241ZM0.303,-0.469C0.252,-0.469 0.21,-0.453 0.176,-0.421C0.141,-0.388 0.122,-0.346 0.117,-0.294L0.49,-0.294C0.485,-0.346 0.466,-0.388 0.432,-0.421C0.397,-0.453 0.354,-0.469 0.303,-0.469Z" style="fill-rule:nonzero;"/>
            </g>
            <g transform="matrix(24,0,0,24,157.771,78.8299)">
                <path d="M0.376,-0.032C0.363,-0.02 0.346,-0.011 0.327,-0.005C0.307,0.002 0.286,0.005 0.265,0.005C0.216,0.005 0.178,-0.008 0.151,-0.035C0.124,-0.062 0.111,-0.099 0.111,-0.148L0.111,-0.466L0.017,-0.466L0.017,-0.526L0.111,-0.526L0.111,-0.641L0.182,-0.641L0.182,-0.526L0.342,-0.526L0.342,-0.466L0.182,-0.466L0.182,-0.152C0.182,-0.121 0.19,-0.097 0.206,-0.081C0.221,-0.064 0.244,-0.056 0.273,-0.056C0.288,-0.056 0.302,-0.058 0.316,-0.063C0.329,-0.068 0.341,-0.074 0.351,-0.083L0.376,-0.032Z" style="fill-rule:nonzero;"/>
            </g>
            <g transform="matrix(24,0,0,24,167.515,78.8299)">
                <path d="M0.283,-0.53C0.352,-0.53 0.404,-0.513 0.441,-0.479C0.478,-0.444 0.496,-0.393 0.496,-0.326L0.496,-0L0.428,-0L0.428,-0.082C0.412,-0.055 0.389,-0.033 0.358,-0.018C0.327,-0.003 0.29,0.005 0.247,0.005C0.188,0.005 0.142,-0.009 0.107,-0.037C0.072,-0.065 0.055,-0.102 0.055,-0.148C0.055,-0.193 0.071,-0.229 0.104,-0.256C0.136,-0.283 0.187,-0.297 0.258,-0.297L0.425,-0.297L0.425,-0.329C0.425,-0.374 0.412,-0.409 0.387,-0.433C0.362,-0.456 0.325,-0.468 0.276,-0.468C0.243,-0.468 0.211,-0.463 0.18,-0.452C0.149,-0.44 0.123,-0.425 0.101,-0.406L0.069,-0.459C0.096,-0.482 0.128,-0.499 0.165,-0.512C0.202,-0.524 0.242,-0.53 0.283,-0.53ZM0.258,-0.051C0.298,-0.051 0.332,-0.06 0.361,-0.079C0.39,-0.097 0.411,-0.123 0.425,-0.158L0.425,-0.244L0.26,-0.244C0.17,-0.244 0.125,-0.213 0.125,-0.15C0.125,-0.119 0.137,-0.095 0.16,-0.078C0.183,-0.06 0.216,-0.051 0.258,-0.051Z" style="fill-rule:nonzero;"/>
            </g>
            <g transform="matrix(24,0,0,24,181.675,78.8299)">
                <path d="M0.579,-0.742L0.579,-0L0.511,-0L0.511,-0.104C0.49,-0.069 0.462,-0.042 0.427,-0.023C0.392,-0.004 0.352,0.005 0.308,0.005C0.259,0.005 0.214,-0.006 0.174,-0.029C0.134,-0.052 0.103,-0.083 0.08,-0.124C0.057,-0.165 0.046,-0.211 0.046,-0.263C0.046,-0.315 0.057,-0.361 0.08,-0.402C0.103,-0.443 0.134,-0.474 0.174,-0.497C0.214,-0.519 0.259,-0.53 0.308,-0.53C0.351,-0.53 0.389,-0.521 0.424,-0.504C0.458,-0.486 0.486,-0.46 0.508,-0.426L0.508,-0.742L0.579,-0.742ZM0.314,-0.058C0.351,-0.058 0.384,-0.067 0.414,-0.084C0.443,-0.1 0.466,-0.125 0.484,-0.156C0.501,-0.187 0.509,-0.223 0.509,-0.263C0.509,-0.303 0.501,-0.339 0.484,-0.37C0.466,-0.401 0.443,-0.426 0.414,-0.443C0.384,-0.46 0.351,-0.468 0.314,-0.468C0.277,-0.468 0.243,-0.46 0.214,-0.443C0.184,-0.426 0.161,-0.401 0.144,-0.37C0.127,-0.339 0.118,-0.303 0.118,-0.263C0.118,-0.223 0.127,-0.187 0.144,-0.156C0.161,-0.125 0.184,-0.1 0.214,-0.084C0.243,-0.067 0.277,-0.058 0.314,-0.058Z" style="fill-rule:nonzero;"/>
            </g>
            <g transform="matrix(24,0,0,24,197.947,78.8299)">
                <path d="M0.283,-0.53C0.352,-0.53 0.404,-0.513 0.441,-0.479C0.478,-0.444 0.496,-0.393 0.496,-0.326L0.496,-0L0.428,-0L0.428,-0.082C0.412,-0.055 0.389,-0.033 0.358,-0.018C0.327,-0.003 0.29,0.005 0.247,0.005C0.188,0.005 0.142,-0.009 0.107,-0.037C0.072,-0.065 0.055,-0.102 0.055,-0.148C0.055,-0.193 0.071,-0.229 0.104,-0.256C0.136,-0.283 0.187,-0.297 0.258,-0.297L0.425,-0.297L0.425,-0.329C0.425,-0.374 0.412,-0.409 0.387,-0.433C0.362,-0.456 0.325,-0.468 0.276,-0.468C0.243,-0.468 0.211,-0.463 0.18,-0.452C0.149,-0.44 0.123,-0.425 0.101,-0.406L0.069,-0.459C0.096,-0.482 0.128,-0.499 0.165,-0.512C0.202,-0.524 0.242,-0.53 0.283,-0.53ZM0.258,-0.051C0.298,-0.051 0.332,-0.06 0.361,-0.079C0.39,-0.097 0.411,-0.123 0.425,-0.158L0.425,-0.244L0.26,-0.244C0.17,-0.244 0.125,-0.213 0.125,-0.15C0.125,-0.119 0.137,-0.095 0.16,-0.078C0.183,-0.06 0.216,-0.051 0.258,-0.051Z" style="fill-rule:nonzero;"/>
            </g>
            <g transform="matrix(24,0,0,24,212.107,78.8299)">
                <path d="M0.376,-0.032C0.363,-0.02 0.346,-0.011 0.327,-0.005C0.307,0.002 0.286,0.005 0.265,0.005C0.216,0.005 0.178,-0.008 0.151,-0.035C0.124,-0.062 0.111,-0.099 0.111,-0.148L0.111,-0.466L0.017,-0.466L0.017,-0.526L0.111,-0.526L0.111,-0.641L0.182,-0.641L0.182,-0.526L0.342,-0.526L0.342,-0.466L0.182,-0.466L0.182,-0.152C0.182,-0.121 0.19,-0.097 0.206,-0.081C0.221,-0.064 0.244,-0.056 0.273,-0.056C0.288,-0.056 0.302,-0.058 0.316,-0.063C0.329,-0.068 0.341,-0.074 0.351,-0.083L0.376,-0.032Z" style="fill-rule:nonzero;"/>
            </g>
            <g transform="matrix(24,0,0,24,221.851,78.8299)">
                <path d="M0.283,-0.53C0.352,-0.53 0.404,-0.513 0.441,-0.479C0.478,-0.444 0.496,-0.393 0.496,-0.326L0.496,-0L0.428,-0L0.428,-0.082C0.412,-0.055 0.389,-0.033 0.358,-0.018C0.327,-0.003 0.29,0.005 0.247,0.005C0.188,0.005 0.142,-0.009 0.107,-0.037C0.072,-0.065 0.055,-0.102 0.055,-0.148C0.055,-0.193 0.071,-0.229 0.104,-0.256C0.136,-0.283 0.187,-0.297 0.258,-0.297L0.425,-0.297L0.425,-0.329C0.425,-0.374 0.412,-0.409 0.387,-0.433C0.362,-0.456 0.325,-0.468 0.276,-0.468C0.243,-0.468 0.211,-0.463 0.18,-0.452C0.149,-0.44 0.123,-0.425 0.101,-0.406L0.069,-0.459C0.096,-0.482 0.128,-0.499 0.165,-0.512C0.202,-0.524 0.242,-0.53 0.283,-0.53ZM0.258,-0.051C0.298,-0.051 0.332,-0.06 0.361,-0.079C0.39,-0.097 0.411,-0.123 0.425,-0.158L0.425,-0.244L0.26,-0.244C0.17,-0.244 0.125,-0.213 0.125,-0.15C0.125,-0.119 0.137,-0.095 0.16,-0.078C0.183,-0.06 0.216,-0.051 0.258,-0.051Z" style="fill-rule:nonzero;"/>
            </g>
        </g>
    </g>
    <g id="Seperators">
        <g transform="matrix(-1.02565,1.09155,1.03857,0.975872,927.62,-387.314)">
            <path d="M343.861,186.492L188.101,186.492L187.781,186.85L343.625,186.735L343.861,186.492Z" style="fill:rgb(35,35,35);"/>
        </g>
        <g transform="matrix(-1.02565,1.09155,1.03857,0.975872,1037.49,-387.314)">
            <path d="M343.861,186.492L188.101,186.492L187.781,186.85L343.625,186.735L343.861,186.492Z" style="fill:rgb(35,35,35);"/>
        </g>
        <g transform="matrix(-1.02565,1.09155,1.03857,0.975872,709.226,-387.314)">
            <path d="M343.861,186.492L188.101,186.492L187.781,186.85L343.625,186.735L343.861,186.492Z" style="fill:rgb(35,35,35);"/>
        </g>
        <g transform="matrix(-1.02565,1.09155,1.03857,0.975872,818.05,-387.314)">
            <path d="M343.861,186.492L188.101,186.492L187.781,186.85L343.625,186.735L343.861,186.492Z" style="fill:rgb(35,35,35);"/>
        </g>
        <g transform="matrix(-1.02565,1.09155,1.03857,0.975872,598.976,-387.314)">
            <path d="M343.861,186.492L188.101,186.492L187.781,186.85L343.625,186.735L343.861,186.492Z" style="fill:rgb(35,35,35);"/>
        </g>
        <g transform="matrix(-1.02565,1.09155,1.03857,0.975872,488.976,-387.314)">
            <path d="M343.861,186.492L188.101,186.492L187.781,186.85L343.625,186.735L343.861,186.492Z" style="fill:rgb(35,35,35);"/>
        </g>
        <g transform="matrix(-1.02565,1.09155,1.03857,0.975872,268.976,-387.314)">
            <path d="M343.861,186.492L188.101,186.492L187.781,186.85L343.625,186.735L343.861,186.492Z" style="fill:rgb(35,35,35);"/>
        </g>
        <g transform="matrix(-1.02565,1.09155,1.03857,0.975872,378.976,-387.314)">
            <path d="M343.861,186.492L188.101,186.492L187.781,186.85L343.625,186.735L343.861,186.492Z" style="fill:rgb(35,35,35);"/>
        </g>
    </g>
</svg>
