<?xml version="1.0" encoding="UTF-8" standalone="no"?>
<!DOCTYPE svg PUBLIC "-//W3C//DTD SVG 1.1//EN" "http://www.w3.org/Graphics/SVG/1.1/DTD/svg11.dtd">
<svg width="100%" height="100%" viewBox="0 0 1200 300" version="1.1" xmlns="http://www.w3.org/2000/svg" xmlns:xlink="http://www.w3.org/1999/xlink" xml:space="preserve" xmlns:serif="http://www.serif.com/" style="fill-rule:evenodd;clip-rule:evenodd;">
    <g id="sbsvgG1007" transform="matrix(1,0,0,1,458.11,158)">
        <g id="sbsvgG1009">
            <g id="sbsvgG1012">
                <g id="sbsvgG1115">
                    <path id="sbsvgPath2284" d="M87.5,0L87.5,-55.5L102.5,-55.5" style="fill:none;fill-rule:nonzero;stroke:rgb(255,123,49);stroke-width:1px;"/>
                    <path id="sbsvgPath2616" d="M74.5,0L87.5,0L87.5,106.5L102.5,106.5" style="fill:none;fill-rule:nonzero;stroke:rgb(74,81,217);stroke-width:1px;"/>
                    <path id="sbsvgPath2658" d="M87.5,0L87.5,-106.5L102.5,-106.5" style="fill:none;fill-rule:nonzero;stroke:rgb(255,171,170);stroke-width:1px;"/>
                    <path id="sbsvgPath2990" d="M87.5,0L87.5,20.5L102.5,20.5" style="fill:none;fill-rule:nonzero;stroke:rgb(140,181,255);stroke-width:1px;"/>
                    <path id="sbsvgPath2999" d="M262.082,20.5L262.082,-16.5L271.082,-16.5" style="fill:none;fill-rule:nonzero;stroke:rgb(140,181,255);stroke-width:1px;"/>
                    <path id="sbsvgPath3018" d="M262.082,20.5L271.082,20.5" style="fill:none;fill-rule:nonzero;stroke:rgb(140,181,255);stroke-width:1px;"/>
                    <path id="sbsvgPath3037" d="M249.082,20.5L262.082,20.5L262.082,57.5L271.082,57.5" style="fill:none;fill-rule:nonzero;stroke:rgb(140,181,255);stroke-width:1px;"/>
                </g>
            </g>
            <g id="sbsvgG1014">
                <g id="sbsvgG1020">
                    <g id="sbsvgG1021">
                        <g id="sbsvgG1022">
                            <path id="sbsvgPath1023" d="M-66.5,-30.5L66.5,-30.5C71.833,-30.5 74.5,-27.833 74.5,-22.5L74.5,22.5C74.5,27.833 71.833,30.5 66.5,30.5L-66.5,30.5C-71.833,30.5 -74.5,27.833 -74.5,22.5L-74.5,-22.5C-74.5,-27.833 -71.833,-30.5 -66.5,-30.5Z" style="fill:white;fill-opacity:0;fill-rule:nonzero;"/>
                            <path id="sbsvgPath1024" d="M-66.5,-30.5L66.5,-30.5C71.833,-30.5 74.5,-27.833 74.5,-22.5L74.5,22.5C74.5,27.833 71.833,30.5 66.5,30.5L-66.5,30.5C-71.833,30.5 -74.5,27.833 -74.5,22.5L-74.5,-22.5C-74.5,-27.833 -71.833,-30.5 -66.5,-30.5Z" style="fill:white;fill-opacity:0;fill-rule:nonzero;"/>
                            <path id="sbsvgPath1025" d="M-66.5,-30.5L66.5,-30.5C71.833,-30.5 74.5,-27.833 74.5,-22.5L74.5,22.5C74.5,27.833 71.833,30.5 66.5,30.5L-66.5,30.5C-71.833,30.5 -74.5,27.833 -74.5,22.5L-74.5,-22.5C-74.5,-27.833 -71.833,-30.5 -66.5,-30.5Z" style="fill:none;fill-rule:nonzero;"/>
                            <g transform="matrix(1,0,0,1,0,9.5)">
                                <g id="sbsvgG1026">
                                    <g id="sbsvgG1027">
                                        <g id="sbsvgG1106">
                                            <g id="sbsvgText1105">
                                                <g transform="matrix(28,0,0,28,-49.448,0)">
                                                    <rect x="0.07" y="-0.714" width="0.117" height="0.714" style="fill:rgb(25,25,89);fill-rule:nonzero;"/>
                                                </g>
                                                <g transform="matrix(28,0,0,28,-42.252,0)">
                                                    <path d="M0.428,-0.728L0.428,-0.446C0.385,-0.503 0.334,-0.531 0.274,-0.531C0.2,-0.531 0.141,-0.504 0.099,-0.45C0.059,-0.4 0.04,-0.337 0.04,-0.261C0.04,-0.182 0.06,-0.117 0.1,-0.067C0.143,-0.013 0.203,0.014 0.28,0.014C0.348,0.014 0.4,-0.009 0.436,-0.055L0.436,-0L0.542,-0L0.542,-0.728L0.428,-0.728ZM0.301,-0.439C0.337,-0.439 0.368,-0.424 0.392,-0.394C0.418,-0.362 0.432,-0.318 0.432,-0.263L0.432,-0.255C0.432,-0.205 0.421,-0.163 0.4,-0.131C0.376,-0.096 0.341,-0.078 0.297,-0.078C0.246,-0.078 0.209,-0.096 0.186,-0.132C0.166,-0.162 0.157,-0.205 0.157,-0.261C0.157,-0.317 0.167,-0.359 0.188,-0.388C0.212,-0.422 0.249,-0.439 0.301,-0.439Z" style="fill:rgb(25,25,89);fill-rule:nonzero;"/>
                                                </g>
                                                <g transform="matrix(28,0,0,28,-25.396,0)">
                                                    <path d="M0.28,-0.531C0.203,-0.531 0.142,-0.505 0.098,-0.452C0.052,-0.4 0.03,-0.336 0.03,-0.259C0.03,-0.173 0.054,-0.106 0.102,-0.057C0.147,-0.01 0.208,0.014 0.285,0.014C0.354,0.014 0.411,-0.006 0.457,-0.045C0.493,-0.077 0.517,-0.118 0.529,-0.166L0.415,-0.166C0.401,-0.137 0.386,-0.116 0.369,-0.103C0.347,-0.087 0.319,-0.079 0.284,-0.079C0.243,-0.079 0.211,-0.092 0.189,-0.117C0.167,-0.142 0.154,-0.179 0.15,-0.227L0.537,-0.227C0.537,-0.32 0.516,-0.393 0.475,-0.445C0.43,-0.503 0.365,-0.531 0.28,-0.531ZM0.283,-0.438C0.363,-0.438 0.408,-0.397 0.418,-0.313L0.152,-0.313C0.159,-0.354 0.173,-0.385 0.194,-0.406C0.216,-0.428 0.245,-0.438 0.283,-0.438Z" style="fill:rgb(25,25,89);fill-rule:nonzero;"/>
                                                </g>
                                                <g transform="matrix(28,0,0,28,-9.52,0)">
                                                    <path d="M0.327,-0.531C0.296,-0.531 0.268,-0.525 0.242,-0.512C0.217,-0.5 0.194,-0.481 0.174,-0.457L0.174,-0.517L0.06,-0.517L0.06,-0L0.174,-0L0.174,-0.311C0.178,-0.352 0.192,-0.384 0.216,-0.406C0.237,-0.426 0.262,-0.436 0.29,-0.436C0.368,-0.436 0.407,-0.394 0.407,-0.309L0.407,-0L0.521,-0L0.521,-0.319C0.521,-0.461 0.456,-0.531 0.327,-0.531Z" style="fill:rgb(25,25,89);fill-rule:nonzero;"/>
                                                </g>
                                                <g transform="matrix(28,0,0,28,6.748,0)">
                                                    <path d="M0.222,-0.684L0.108,-0.637L0.108,-0.517L0.015,-0.517L0.015,-0.423L0.108,-0.423L0.108,-0.131C0.108,-0.089 0.118,-0.058 0.138,-0.036C0.159,-0.012 0.192,-0 0.237,-0L0.324,-0L0.324,-0.094L0.256,-0.094C0.244,-0.094 0.236,-0.097 0.23,-0.103C0.224,-0.11 0.222,-0.119 0.222,-0.131L0.222,-0.423L0.337,-0.423L0.337,-0.517L0.222,-0.517L0.222,-0.684Z" style="fill:rgb(25,25,89);fill-rule:nonzero;"/>
                                                </g>
                                                <g transform="matrix(28,0,0,28,16.884,0)">
                                                    <path d="M0.137,-0.728C0.115,-0.728 0.097,-0.721 0.082,-0.707C0.067,-0.693 0.06,-0.675 0.06,-0.653C0.06,-0.631 0.067,-0.613 0.082,-0.598C0.097,-0.584 0.115,-0.577 0.137,-0.577C0.159,-0.577 0.177,-0.584 0.192,-0.598C0.207,-0.612 0.215,-0.631 0.215,-0.653C0.215,-0.675 0.207,-0.693 0.193,-0.707C0.178,-0.721 0.159,-0.728 0.137,-0.728ZM0.08,-0.517L0.08,-0L0.194,-0L0.194,-0.517L0.08,-0.517Z" style="fill:rgb(25,25,89);fill-rule:nonzero;"/>
                                                </g>
                                                <g transform="matrix(28,0,0,28,24.584,0)">
                                                    <path d="M0.222,-0.684L0.108,-0.637L0.108,-0.517L0.015,-0.517L0.015,-0.423L0.108,-0.423L0.108,-0.131C0.108,-0.089 0.118,-0.058 0.138,-0.036C0.159,-0.012 0.192,-0 0.237,-0L0.324,-0L0.324,-0.094L0.256,-0.094C0.244,-0.094 0.236,-0.097 0.23,-0.103C0.224,-0.11 0.222,-0.119 0.222,-0.131L0.222,-0.423L0.337,-0.423L0.337,-0.517L0.222,-0.517L0.222,-0.684Z" style="fill:rgb(25,25,89);fill-rule:nonzero;"/>
                                                </g>
                                                <g transform="matrix(28,0,0,28,34.72,0)">
                                                    <path d="M0.005,-0.517L0.21,-0.012L0.119,0.198L0.241,0.198L0.521,-0.517L0.397,-0.517L0.266,-0.149L0.129,-0.517L0.005,-0.517Z" style="fill:rgb(25,25,89);fill-rule:nonzero;"/>
                                                </g>
                                            </g>
                                        </g>
                                    </g>
                                </g>
                            </g>
                        </g>
                    </g>
                </g>
                <g id="sbsvgG2276" transform="matrix(1,0,0,1,175.791,-73.5)">
                    <g id="sbsvgG2277">
                        <g id="sbsvgG2278">
                            <rect id="sbsvgPath2279" x="-73.291" y="-20.5" width="146.582" height="38.5" style="fill:white;fill-opacity:0;fill-rule:nonzero;"/>
                            <rect id="sbsvgPath2280" x="-73.291" y="-20.5" width="146.582" height="38.5" style="fill-opacity:0;fill-rule:nonzero;"/>
                            <path id="sbsvgPath2281" d="M-73.291,18L73.291,18" style="fill:none;fill-rule:nonzero;stroke:rgb(255,123,49);stroke-width:5px;"/>
                            <g transform="matrix(1,0,0,1,-56.291,3.5)">
                                <g id="sbsvgG2282">
                                    <g id="sbsvgG2283">
                                        <g id="sbsvgG2286">
                                            <g id="sbsvgText2285">
                                                <g transform="matrix(18,0,0,18,0,0)">
                                                    <path d="M0.38,-0.728C0.266,-0.728 0.18,-0.691 0.12,-0.615C0.066,-0.548 0.04,-0.462 0.04,-0.356C0.04,-0.248 0.065,-0.162 0.117,-0.098C0.176,-0.024 0.264,0.014 0.381,0.014C0.458,0.014 0.524,-0.008 0.579,-0.052C0.638,-0.099 0.675,-0.164 0.691,-0.247L0.585,-0.247C0.571,-0.191 0.546,-0.149 0.51,-0.121C0.476,-0.095 0.432,-0.082 0.38,-0.082C0.3,-0.082 0.241,-0.107 0.203,-0.157C0.167,-0.204 0.149,-0.27 0.149,-0.356C0.149,-0.439 0.167,-0.505 0.204,-0.553C0.243,-0.606 0.301,-0.632 0.378,-0.632C0.43,-0.632 0.472,-0.621 0.506,-0.598C0.54,-0.575 0.563,-0.539 0.575,-0.491L0.681,-0.491C0.67,-0.563 0.638,-0.621 0.586,-0.663C0.532,-0.707 0.463,-0.728 0.38,-0.728Z" style="fill-rule:nonzero;"/>
                                                </g>
                                                <g transform="matrix(18,0,0,18,13.158,0)">
                                                    <path d="M0.298,-0.531C0.22,-0.531 0.157,-0.505 0.11,-0.453C0.063,-0.402 0.04,-0.337 0.04,-0.258C0.04,-0.18 0.063,-0.115 0.109,-0.065C0.157,-0.013 0.22,0.014 0.298,0.014C0.376,0.014 0.439,-0.013 0.487,-0.065C0.533,-0.115 0.556,-0.18 0.556,-0.258C0.556,-0.337 0.532,-0.402 0.486,-0.453C0.439,-0.505 0.376,-0.531 0.298,-0.531ZM0.298,-0.444C0.347,-0.444 0.385,-0.425 0.413,-0.386C0.437,-0.353 0.449,-0.31 0.449,-0.258C0.449,-0.207 0.437,-0.165 0.413,-0.131C0.385,-0.093 0.347,-0.073 0.298,-0.073C0.249,-0.073 0.211,-0.093 0.184,-0.131C0.16,-0.164 0.149,-0.206 0.149,-0.258C0.149,-0.31 0.16,-0.353 0.184,-0.386C0.211,-0.425 0.249,-0.444 0.298,-0.444Z" style="fill-rule:nonzero;"/>
                                                </g>
                                                <g transform="matrix(18,0,0,18,23.904,0)">
                                                    <path d="M0.322,-0.531C0.29,-0.531 0.261,-0.525 0.235,-0.511C0.209,-0.498 0.186,-0.479 0.166,-0.453L0.166,-0.517L0.06,-0.517L0.06,-0L0.166,-0L0.166,-0.311C0.17,-0.353 0.185,-0.386 0.209,-0.41C0.231,-0.432 0.258,-0.442 0.288,-0.442C0.368,-0.442 0.409,-0.398 0.409,-0.31L0.409,-0L0.515,-0L0.515,-0.319C0.515,-0.461 0.45,-0.531 0.322,-0.531Z" style="fill-rule:nonzero;"/>
                                                </g>
                                                <g transform="matrix(18,0,0,18,34.272,0)">
                                                    <path d="M0.264,-0.714C0.218,-0.714 0.184,-0.702 0.16,-0.676C0.136,-0.652 0.124,-0.617 0.124,-0.573L0.124,-0.517L0.005,-0.517L0.005,-0.43L0.124,-0.43L0.124,-0L0.229,-0L0.229,-0.43L0.44,-0.43L0.44,-0L0.546,-0L0.546,-0.517L0.229,-0.517L0.229,-0.57C0.229,-0.589 0.233,-0.603 0.241,-0.611C0.249,-0.62 0.262,-0.624 0.279,-0.624L0.372,-0.624L0.372,-0.714L0.264,-0.714Z" style="fill-rule:nonzero;"/>
                                                </g>
                                                <g transform="matrix(18,0,0,18,45.396,0)">
                                                    <path d="M0.432,-0.728L0.432,-0.44C0.39,-0.501 0.337,-0.531 0.274,-0.531C0.2,-0.531 0.141,-0.504 0.099,-0.45C0.059,-0.4 0.04,-0.337 0.04,-0.261C0.04,-0.182 0.06,-0.117 0.1,-0.067C0.143,-0.013 0.203,0.014 0.279,0.014C0.349,0.014 0.403,-0.012 0.439,-0.062L0.439,-0L0.538,-0L0.538,-0.728L0.432,-0.728ZM0.298,-0.445C0.337,-0.445 0.369,-0.43 0.395,-0.398C0.421,-0.364 0.435,-0.319 0.435,-0.263L0.435,-0.254C0.435,-0.202 0.424,-0.16 0.402,-0.127C0.376,-0.091 0.341,-0.072 0.295,-0.072C0.243,-0.072 0.204,-0.091 0.18,-0.128C0.159,-0.16 0.149,-0.204 0.149,-0.261C0.149,-0.318 0.16,-0.362 0.182,-0.392C0.207,-0.428 0.246,-0.445 0.298,-0.445Z" style="fill-rule:nonzero;"/>
                                                </g>
                                                <g transform="matrix(18,0,0,18,56.16,0)">
                                                    <path d="M0.279,-0.531C0.203,-0.531 0.142,-0.505 0.098,-0.452C0.052,-0.4 0.03,-0.336 0.03,-0.259C0.03,-0.174 0.054,-0.107 0.102,-0.057C0.146,-0.01 0.207,0.014 0.283,0.014C0.352,0.014 0.409,-0.006 0.454,-0.045C0.49,-0.077 0.513,-0.118 0.525,-0.166L0.419,-0.166C0.405,-0.136 0.39,-0.113 0.372,-0.099C0.349,-0.082 0.319,-0.073 0.282,-0.073C0.24,-0.073 0.207,-0.087 0.183,-0.113C0.159,-0.14 0.146,-0.179 0.142,-0.229L0.534,-0.229C0.533,-0.321 0.512,-0.393 0.472,-0.445C0.428,-0.503 0.363,-0.531 0.279,-0.531ZM0.282,-0.444C0.366,-0.444 0.413,-0.399 0.423,-0.309L0.144,-0.309C0.15,-0.353 0.165,-0.386 0.187,-0.409C0.211,-0.433 0.242,-0.444 0.282,-0.444Z" style="fill-rule:nonzero;"/>
                                                </g>
                                                <g transform="matrix(18,0,0,18,66.312,0)">
                                                    <path d="M0.322,-0.531C0.29,-0.531 0.261,-0.525 0.235,-0.511C0.209,-0.498 0.186,-0.479 0.166,-0.453L0.166,-0.517L0.06,-0.517L0.06,-0L0.166,-0L0.166,-0.311C0.17,-0.353 0.185,-0.386 0.209,-0.41C0.231,-0.432 0.258,-0.442 0.288,-0.442C0.368,-0.442 0.409,-0.398 0.409,-0.31L0.409,-0L0.515,-0L0.515,-0.319C0.515,-0.461 0.45,-0.531 0.322,-0.531Z" style="fill-rule:nonzero;"/>
                                                </g>
                                                <g transform="matrix(18,0,0,18,76.68,0)">
                                                    <path d="M0.29,-0.531C0.21,-0.531 0.148,-0.504 0.103,-0.45C0.061,-0.4 0.04,-0.336 0.04,-0.258C0.04,-0.178 0.061,-0.114 0.104,-0.064C0.148,-0.012 0.209,0.014 0.288,0.014C0.354,0.014 0.408,-0.003 0.448,-0.036C0.488,-0.07 0.515,-0.122 0.527,-0.191L0.422,-0.191C0.412,-0.113 0.368,-0.073 0.289,-0.073C0.243,-0.073 0.209,-0.09 0.186,-0.122C0.161,-0.155 0.149,-0.201 0.149,-0.259C0.149,-0.317 0.161,-0.363 0.187,-0.395C0.212,-0.428 0.246,-0.444 0.29,-0.444C0.326,-0.444 0.355,-0.436 0.377,-0.419C0.399,-0.403 0.413,-0.377 0.42,-0.342L0.525,-0.342C0.515,-0.406 0.489,-0.454 0.449,-0.486C0.409,-0.516 0.356,-0.531 0.29,-0.531Z" style="fill-rule:nonzero;"/>
                                                </g>
                                                <g transform="matrix(18,0,0,18,86.724,0)">
                                                    <path d="M0.279,-0.531C0.203,-0.531 0.142,-0.505 0.098,-0.452C0.052,-0.4 0.03,-0.336 0.03,-0.259C0.03,-0.174 0.054,-0.107 0.102,-0.057C0.146,-0.01 0.207,0.014 0.283,0.014C0.352,0.014 0.409,-0.006 0.454,-0.045C0.49,-0.077 0.513,-0.118 0.525,-0.166L0.419,-0.166C0.405,-0.136 0.39,-0.113 0.372,-0.099C0.349,-0.082 0.319,-0.073 0.282,-0.073C0.24,-0.073 0.207,-0.087 0.183,-0.113C0.159,-0.14 0.146,-0.179 0.142,-0.229L0.534,-0.229C0.533,-0.321 0.512,-0.393 0.472,-0.445C0.428,-0.503 0.363,-0.531 0.279,-0.531ZM0.282,-0.444C0.366,-0.444 0.413,-0.399 0.423,-0.309L0.144,-0.309C0.15,-0.353 0.165,-0.386 0.187,-0.409C0.211,-0.433 0.242,-0.444 0.282,-0.444Z" style="fill-rule:nonzero;"/>
                                                </g>
                                            </g>
                                        </g>
                                    </g>
                                </g>
                            </g>
                        </g>
                    </g>
                </g>
                <g id="sbsvgG2608" transform="matrix(1,0,0,1,175.791,88.5)">
                    <g id="sbsvgG2609">
                        <g id="sbsvgG2610">
                            <rect id="sbsvgPath2611" x="-73.291" y="-20.5" width="146.582" height="38.5" style="fill:white;fill-opacity:0;fill-rule:nonzero;"/>
                            <rect id="sbsvgPath2612" x="-73.291" y="-20.5" width="146.582" height="38.5" style="fill-opacity:0;fill-rule:nonzero;"/>
                            <path id="sbsvgPath2613" d="M-73.291,18L73.291,18" style="fill:none;fill-rule:nonzero;stroke:rgb(74,81,217);stroke-width:5px;"/>
                            <g transform="matrix(1,0,0,1,-56.291,3.5)">
                                <g id="sbsvgG2614">
                                    <g id="sbsvgG2615">
                                        <g id="sbsvgG2618">
                                            <g id="sbsvgText2617">
                                                <g transform="matrix(18,0,0,18,0,0)">
                                                    <path d="M0.015,-0.714L0.015,-0.621L0.254,-0.621L0.254,-0L0.362,-0L0.362,-0.621L0.6,-0.621L0.6,-0.714L0.015,-0.714Z" style="fill-rule:nonzero;"/>
                                                </g>
                                                <g transform="matrix(18,0,0,18,11.088,0)">
                                                    <path d="M0.298,-0.531C0.22,-0.531 0.157,-0.505 0.11,-0.453C0.063,-0.402 0.04,-0.337 0.04,-0.258C0.04,-0.18 0.063,-0.115 0.109,-0.065C0.157,-0.013 0.22,0.014 0.298,0.014C0.376,0.014 0.439,-0.013 0.487,-0.065C0.533,-0.115 0.556,-0.18 0.556,-0.258C0.556,-0.337 0.532,-0.402 0.486,-0.453C0.439,-0.505 0.376,-0.531 0.298,-0.531ZM0.298,-0.444C0.347,-0.444 0.385,-0.425 0.413,-0.386C0.437,-0.353 0.449,-0.31 0.449,-0.258C0.449,-0.207 0.437,-0.165 0.413,-0.131C0.385,-0.093 0.347,-0.073 0.298,-0.073C0.249,-0.073 0.211,-0.093 0.184,-0.131C0.16,-0.164 0.149,-0.206 0.149,-0.258C0.149,-0.31 0.16,-0.353 0.184,-0.386C0.211,-0.425 0.249,-0.444 0.298,-0.444Z" style="fill-rule:nonzero;"/>
                                                </g>
                                                <g transform="matrix(18,0,0,18,21.834,0)">
                                                    <path d="M0.298,-0.531C0.22,-0.531 0.157,-0.505 0.11,-0.453C0.063,-0.402 0.04,-0.337 0.04,-0.258C0.04,-0.18 0.063,-0.115 0.109,-0.065C0.157,-0.013 0.22,0.014 0.298,0.014C0.376,0.014 0.439,-0.013 0.487,-0.065C0.533,-0.115 0.556,-0.18 0.556,-0.258C0.556,-0.337 0.532,-0.402 0.486,-0.453C0.439,-0.505 0.376,-0.531 0.298,-0.531ZM0.298,-0.444C0.347,-0.444 0.385,-0.425 0.413,-0.386C0.437,-0.353 0.449,-0.31 0.449,-0.258C0.449,-0.207 0.437,-0.165 0.413,-0.131C0.385,-0.093 0.347,-0.073 0.298,-0.073C0.249,-0.073 0.211,-0.093 0.184,-0.131C0.16,-0.164 0.149,-0.206 0.149,-0.258C0.149,-0.31 0.16,-0.353 0.184,-0.386C0.211,-0.425 0.249,-0.444 0.298,-0.444Z" style="fill-rule:nonzero;"/>
                                                </g>
                                                <g transform="matrix(18,0,0,18,32.58,0)">
                                                    <rect x="0.072" y="-0.728" width="0.106" height="0.728" style="fill-rule:nonzero;"/>
                                                </g>
                                                <g transform="matrix(18,0,0,18,37.08,0)">
                                                    <path d="M0.253,-0.531C0.191,-0.531 0.14,-0.518 0.101,-0.491C0.062,-0.465 0.043,-0.428 0.043,-0.381C0.043,-0.337 0.063,-0.302 0.103,-0.277C0.127,-0.261 0.17,-0.246 0.231,-0.232C0.284,-0.22 0.319,-0.21 0.335,-0.202C0.365,-0.188 0.381,-0.168 0.381,-0.143C0.381,-0.097 0.339,-0.073 0.257,-0.073C0.217,-0.073 0.189,-0.08 0.171,-0.093C0.153,-0.107 0.14,-0.132 0.134,-0.167L0.03,-0.167C0.042,-0.047 0.118,0.014 0.26,0.014C0.413,0.014 0.49,-0.041 0.49,-0.15C0.49,-0.196 0.469,-0.232 0.428,-0.258C0.4,-0.276 0.356,-0.293 0.297,-0.307C0.245,-0.32 0.211,-0.33 0.193,-0.338C0.165,-0.351 0.151,-0.366 0.151,-0.384C0.151,-0.404 0.16,-0.42 0.179,-0.43C0.195,-0.44 0.219,-0.444 0.251,-0.444C0.287,-0.444 0.315,-0.438 0.333,-0.426C0.35,-0.415 0.362,-0.396 0.37,-0.368L0.473,-0.368C0.461,-0.477 0.387,-0.531 0.253,-0.531Z" style="fill-rule:nonzero;"/>
                                                </g>
                                            </g>
                                        </g>
                                    </g>
                                </g>
                            </g>
                        </g>
                    </g>
                </g>
                <g id="sbsvgG2650" transform="matrix(1,0,0,1,175.791,-124.5)">
                    <g id="sbsvgG2651">
                        <g id="sbsvgG2652">
                            <rect id="sbsvgPath2653" x="-73.291" y="-20.5" width="146.582" height="38.5" style="fill:white;fill-opacity:0;fill-rule:nonzero;"/>
                            <rect id="sbsvgPath2654" x="-73.291" y="-20.5" width="146.582" height="38.5" style="fill-opacity:0;fill-rule:nonzero;"/>
                            <path id="sbsvgPath2655" d="M-73.291,18L73.291,18" style="fill:none;fill-rule:nonzero;stroke:rgb(255,171,170);stroke-width:5px;"/>
                            <g transform="matrix(1,0,0,1,-56.291,3.5)">
                                <g id="sbsvgG2656">
                                    <g id="sbsvgG2657">
                                        <g id="sbsvgG2660">
                                            <g id="sbsvgText2659">
                                                <g transform="matrix(18,0,0,18,0,0)">
                                                    <path d="M0.07,-0.714L0.07,-0L0.179,-0L0.179,-0.32L0.534,-0.32L0.534,-0.413L0.179,-0.413L0.179,-0.621L0.555,-0.621L0.555,-0.714L0.07,-0.714Z" style="fill-rule:nonzero;"/>
                                                </g>
                                                <g transform="matrix(18,0,0,18,10.458,0)">
                                                    <path d="M0.135,-0.724C0.114,-0.724 0.097,-0.718 0.083,-0.704C0.069,-0.691 0.062,-0.674 0.062,-0.653C0.062,-0.633 0.069,-0.615 0.083,-0.601C0.097,-0.588 0.114,-0.581 0.135,-0.581C0.155,-0.581 0.173,-0.588 0.187,-0.601C0.201,-0.615 0.209,-0.632 0.209,-0.653C0.209,-0.674 0.202,-0.691 0.188,-0.704C0.174,-0.718 0.156,-0.724 0.135,-0.724ZM0.082,-0.517L0.082,-0L0.188,-0L0.188,-0.517L0.082,-0.517Z" style="fill-rule:nonzero;"/>
                                                </g>
                                                <g transform="matrix(18,0,0,18,15.336,0)">
                                                    <path d="M0.279,-0.531C0.203,-0.531 0.142,-0.505 0.098,-0.452C0.052,-0.4 0.03,-0.336 0.03,-0.259C0.03,-0.174 0.054,-0.107 0.102,-0.057C0.146,-0.01 0.207,0.014 0.283,0.014C0.352,0.014 0.409,-0.006 0.454,-0.045C0.49,-0.077 0.513,-0.118 0.525,-0.166L0.419,-0.166C0.405,-0.136 0.39,-0.113 0.372,-0.099C0.349,-0.082 0.319,-0.073 0.282,-0.073C0.24,-0.073 0.207,-0.087 0.183,-0.113C0.159,-0.14 0.146,-0.179 0.142,-0.229L0.534,-0.229C0.533,-0.321 0.512,-0.393 0.472,-0.445C0.428,-0.503 0.363,-0.531 0.279,-0.531ZM0.282,-0.444C0.366,-0.444 0.413,-0.399 0.423,-0.309L0.144,-0.309C0.15,-0.353 0.165,-0.386 0.187,-0.409C0.211,-0.433 0.242,-0.444 0.282,-0.444Z" style="fill-rule:nonzero;"/>
                                                </g>
                                                <g transform="matrix(18,0,0,18,25.488,0)">
                                                    <rect x="0.072" y="-0.728" width="0.106" height="0.728" style="fill-rule:nonzero;"/>
                                                </g>
                                                <g transform="matrix(18,0,0,18,29.988,0)">
                                                    <path d="M0.432,-0.728L0.432,-0.44C0.39,-0.501 0.337,-0.531 0.274,-0.531C0.2,-0.531 0.141,-0.504 0.099,-0.45C0.059,-0.4 0.04,-0.337 0.04,-0.261C0.04,-0.182 0.06,-0.117 0.1,-0.067C0.143,-0.013 0.203,0.014 0.279,0.014C0.349,0.014 0.403,-0.012 0.439,-0.062L0.439,-0L0.538,-0L0.538,-0.728L0.432,-0.728ZM0.298,-0.445C0.337,-0.445 0.369,-0.43 0.395,-0.398C0.421,-0.364 0.435,-0.319 0.435,-0.263L0.435,-0.254C0.435,-0.202 0.424,-0.16 0.402,-0.127C0.376,-0.091 0.341,-0.072 0.295,-0.072C0.243,-0.072 0.204,-0.091 0.18,-0.128C0.159,-0.16 0.149,-0.204 0.149,-0.261C0.149,-0.318 0.16,-0.362 0.182,-0.392C0.207,-0.428 0.246,-0.445 0.298,-0.445Z" style="fill-rule:nonzero;"/>
                                                </g>
                                            </g>
                                        </g>
                                    </g>
                                </g>
                            </g>
                        </g>
                    </g>
                </g>
                <g id="sbsvgG2982" transform="matrix(1,0,0,1,175.791,2.5)">
                    <rect id="sbsvgRect3070" x="77.291" y="-20.5" width="18" height="41" style="fill-opacity:0;"/>
                    <g id="sbsvgG2983">
                        <g id="sbsvgG2984">
                            <rect id="sbsvgPath2985" x="-73.291" y="-20.5" width="146.582" height="38.5" style="fill:white;fill-opacity:0;fill-rule:nonzero;"/>
                            <rect id="sbsvgPath2986" x="-73.291" y="-20.5" width="146.582" height="38.5" style="fill-opacity:0;fill-rule:nonzero;"/>
                            <path id="sbsvgPath2987" d="M-73.291,18L73.291,18" style="fill:none;fill-rule:nonzero;stroke:rgb(140,181,255);stroke-width:5px;"/>
                            <g transform="matrix(1,0,0,1,-56.291,3.5)">
                                <g id="sbsvgG2988">
                                    <g id="sbsvgG2989">
                                        <g id="sbsvgG3049">
                                            <g id="sbsvgText3048">
                                                <g transform="matrix(18,0,0,18,0,0)">
                                                    <path d="M0.07,-0.714L0.07,-0L0.179,-0L0.179,-0.51L0.183,-0.51L0.402,-0L0.496,-0L0.715,-0.51L0.719,-0.51L0.719,-0L0.828,-0L0.828,-0.714L0.699,-0.714L0.451,-0.142L0.448,-0.142L0.199,-0.714L0.07,-0.714Z" style="fill-rule:nonzero;"/>
                                                </g>
                                                <g transform="matrix(18,0,0,18,16.164,0)">
                                                    <path d="M0.279,-0.531C0.203,-0.531 0.142,-0.505 0.098,-0.452C0.052,-0.4 0.03,-0.336 0.03,-0.259C0.03,-0.174 0.054,-0.107 0.102,-0.057C0.146,-0.01 0.207,0.014 0.283,0.014C0.352,0.014 0.409,-0.006 0.454,-0.045C0.49,-0.077 0.513,-0.118 0.525,-0.166L0.419,-0.166C0.405,-0.136 0.39,-0.113 0.372,-0.099C0.349,-0.082 0.319,-0.073 0.282,-0.073C0.24,-0.073 0.207,-0.087 0.183,-0.113C0.159,-0.14 0.146,-0.179 0.142,-0.229L0.534,-0.229C0.533,-0.321 0.512,-0.393 0.472,-0.445C0.428,-0.503 0.363,-0.531 0.279,-0.531ZM0.282,-0.444C0.366,-0.444 0.413,-0.399 0.423,-0.309L0.144,-0.309C0.15,-0.353 0.165,-0.386 0.187,-0.409C0.211,-0.433 0.242,-0.444 0.282,-0.444Z" style="fill-rule:nonzero;"/>
                                                </g>
                                                <g transform="matrix(18,0,0,18,26.316,0)">
                                                    <path d="M0.217,-0.684L0.111,-0.64L0.111,-0.517L0.015,-0.517L0.015,-0.429L0.111,-0.429L0.111,-0.129C0.111,-0.088 0.12,-0.057 0.14,-0.035C0.16,-0.012 0.193,-0 0.237,-0L0.322,-0L0.322,-0.088L0.254,-0.088C0.241,-0.088 0.232,-0.092 0.226,-0.098C0.22,-0.105 0.217,-0.115 0.217,-0.129L0.217,-0.429L0.335,-0.429L0.335,-0.517L0.217,-0.517L0.217,-0.684Z" style="fill-rule:nonzero;"/>
                                                </g>
                                                <g transform="matrix(18,0,0,18,32.796,0)">
                                                    <path d="M0.06,-0.728L0.06,-0L0.166,-0L0.166,-0.29C0.166,-0.335 0.177,-0.372 0.2,-0.401C0.222,-0.43 0.251,-0.444 0.287,-0.444C0.327,-0.444 0.358,-0.432 0.378,-0.407C0.396,-0.383 0.406,-0.349 0.406,-0.303L0.406,-0L0.512,-0L0.512,-0.321C0.512,-0.389 0.497,-0.441 0.467,-0.476C0.435,-0.513 0.388,-0.531 0.326,-0.531C0.293,-0.531 0.264,-0.525 0.238,-0.511C0.209,-0.497 0.185,-0.474 0.166,-0.444L0.166,-0.728L0.06,-0.728Z" style="fill-rule:nonzero;"/>
                                                </g>
                                                <g transform="matrix(18,0,0,18,43.092,0)">
                                                    <path d="M0.298,-0.531C0.22,-0.531 0.157,-0.505 0.11,-0.453C0.063,-0.402 0.04,-0.337 0.04,-0.258C0.04,-0.18 0.063,-0.115 0.109,-0.065C0.157,-0.013 0.22,0.014 0.298,0.014C0.376,0.014 0.439,-0.013 0.487,-0.065C0.533,-0.115 0.556,-0.18 0.556,-0.258C0.556,-0.337 0.532,-0.402 0.486,-0.453C0.439,-0.505 0.376,-0.531 0.298,-0.531ZM0.298,-0.444C0.347,-0.444 0.385,-0.425 0.413,-0.386C0.437,-0.353 0.449,-0.31 0.449,-0.258C0.449,-0.207 0.437,-0.165 0.413,-0.131C0.385,-0.093 0.347,-0.073 0.298,-0.073C0.249,-0.073 0.211,-0.093 0.184,-0.131C0.16,-0.164 0.149,-0.206 0.149,-0.258C0.149,-0.31 0.16,-0.353 0.184,-0.386C0.211,-0.425 0.249,-0.444 0.298,-0.444Z" style="fill-rule:nonzero;"/>
                                                </g>
                                                <g transform="matrix(18,0,0,18,53.838,0)">
                                                    <path d="M0.432,-0.728L0.432,-0.44C0.39,-0.501 0.337,-0.531 0.274,-0.531C0.2,-0.531 0.141,-0.504 0.099,-0.45C0.059,-0.4 0.04,-0.337 0.04,-0.261C0.04,-0.182 0.06,-0.117 0.1,-0.067C0.143,-0.013 0.203,0.014 0.279,0.014C0.349,0.014 0.403,-0.012 0.439,-0.062L0.439,-0L0.538,-0L0.538,-0.728L0.432,-0.728ZM0.298,-0.445C0.337,-0.445 0.369,-0.43 0.395,-0.398C0.421,-0.364 0.435,-0.319 0.435,-0.263L0.435,-0.254C0.435,-0.202 0.424,-0.16 0.402,-0.127C0.376,-0.091 0.341,-0.072 0.295,-0.072C0.243,-0.072 0.204,-0.091 0.18,-0.128C0.159,-0.16 0.149,-0.204 0.149,-0.261C0.149,-0.318 0.16,-0.362 0.182,-0.392C0.207,-0.428 0.246,-0.445 0.298,-0.445Z" style="fill-rule:nonzero;"/>
                                                </g>
                                                <g transform="matrix(18,0,0,18,64.602,0)">
                                                    <path d="M0.253,-0.531C0.191,-0.531 0.14,-0.518 0.101,-0.491C0.062,-0.465 0.043,-0.428 0.043,-0.381C0.043,-0.337 0.063,-0.302 0.103,-0.277C0.127,-0.261 0.17,-0.246 0.231,-0.232C0.284,-0.22 0.319,-0.21 0.335,-0.202C0.365,-0.188 0.381,-0.168 0.381,-0.143C0.381,-0.097 0.339,-0.073 0.257,-0.073C0.217,-0.073 0.189,-0.08 0.171,-0.093C0.153,-0.107 0.14,-0.132 0.134,-0.167L0.03,-0.167C0.042,-0.047 0.118,0.014 0.26,0.014C0.413,0.014 0.49,-0.041 0.49,-0.15C0.49,-0.196 0.469,-0.232 0.428,-0.258C0.4,-0.276 0.356,-0.293 0.297,-0.307C0.245,-0.32 0.211,-0.33 0.193,-0.338C0.165,-0.351 0.151,-0.366 0.151,-0.384C0.151,-0.404 0.16,-0.42 0.179,-0.43C0.195,-0.44 0.219,-0.444 0.251,-0.444C0.287,-0.444 0.315,-0.438 0.333,-0.426C0.35,-0.415 0.362,-0.396 0.37,-0.368L0.473,-0.368C0.461,-0.477 0.387,-0.531 0.253,-0.531Z" style="fill-rule:nonzero;"/>
                                                </g>
                                            </g>
                                        </g>
                                    </g>
                                </g>
                            </g>
                        </g>
                    </g>
                </g>
                <g id="sbsvgG2991" transform="matrix(1,0,0,1,314.681,-29.5)">
                    <g id="sbsvgG2992">
                        <g id="sbsvgG2993">
                            <rect id="sbsvgPath2994" x="-43.599" y="-13.5" width="87.197" height="26.5" style="fill:white;fill-opacity:0;fill-rule:nonzero;"/>
                            <rect id="sbsvgPath2995" x="-43.599" y="-13.5" width="87.197" height="26.5" style="fill-opacity:0;fill-rule:nonzero;"/>
                            <path id="sbsvgPath2996" d="M-43.599,13L43.599,13" style="fill:none;fill-rule:nonzero;stroke:rgb(140,181,255);stroke-width:1px;"/>
                            <g transform="matrix(1,0,0,1,-38.5986,4.5)">
                                <g id="sbsvgG2997">
                                    <g id="sbsvgG2998">
                                        <g id="sbsvgG3001">
                                            <g id="sbsvgText3000">
                                                <g transform="matrix(14,0,0,14,0,0)">
                                                    <path d="M0.017,-0.714L0.017,-0.643L0.269,-0.643L0.269,-0L0.35,-0L0.35,-0.643L0.602,-0.643L0.602,-0.714L0.017,-0.714Z" style="fill:rgb(0,36,102);fill-rule:nonzero;"/>
                                                </g>
                                                <g transform="matrix(14,0,0,14,8.666,0)">
                                                    <path d="M0.275,-0.531C0.2,-0.531 0.141,-0.504 0.097,-0.45C0.053,-0.399 0.032,-0.335 0.032,-0.259C0.032,-0.175 0.054,-0.109 0.1,-0.059C0.144,-0.011 0.204,0.014 0.278,0.014C0.345,0.014 0.4,-0.006 0.443,-0.044C0.478,-0.076 0.501,-0.116 0.513,-0.166L0.433,-0.166C0.42,-0.13 0.403,-0.103 0.381,-0.085C0.355,-0.064 0.32,-0.053 0.278,-0.053C0.229,-0.053 0.19,-0.069 0.162,-0.101C0.134,-0.133 0.119,-0.178 0.115,-0.236L0.523,-0.236C0.521,-0.326 0.501,-0.397 0.463,-0.447C0.421,-0.503 0.358,-0.531 0.275,-0.531ZM0.277,-0.464C0.375,-0.464 0.43,-0.409 0.44,-0.298L0.117,-0.298C0.122,-0.349 0.138,-0.389 0.166,-0.419C0.194,-0.449 0.231,-0.464 0.277,-0.464Z" style="fill:rgb(0,36,102);fill-rule:nonzero;"/>
                                                </g>
                                                <g transform="matrix(14,0,0,14,16.436,0)">
                                                    <path d="M0.285,-0.531C0.208,-0.531 0.147,-0.504 0.103,-0.449C0.062,-0.399 0.042,-0.335 0.042,-0.256C0.042,-0.177 0.062,-0.113 0.103,-0.064C0.146,-0.012 0.206,0.014 0.284,0.014C0.348,0.014 0.399,-0.003 0.438,-0.036C0.478,-0.07 0.503,-0.121 0.515,-0.187L0.435,-0.187C0.423,-0.098 0.372,-0.053 0.284,-0.053C0.232,-0.053 0.192,-0.072 0.165,-0.108C0.137,-0.144 0.124,-0.194 0.124,-0.257C0.124,-0.32 0.138,-0.37 0.166,-0.407C0.195,-0.445 0.235,-0.464 0.285,-0.464C0.326,-0.464 0.359,-0.455 0.385,-0.435C0.41,-0.415 0.426,-0.385 0.433,-0.345L0.512,-0.345C0.503,-0.408 0.479,-0.455 0.439,-0.486C0.4,-0.516 0.349,-0.531 0.285,-0.531Z" style="fill:rgb(0,36,102);fill-rule:nonzero;"/>
                                                </g>
                                                <g transform="matrix(14,0,0,14,24.094,0)">
                                                    <path d="M0.062,-0.728L0.062,-0L0.142,-0L0.142,-0.295C0.142,-0.343 0.155,-0.384 0.182,-0.416C0.208,-0.448 0.241,-0.464 0.281,-0.464C0.324,-0.464 0.357,-0.451 0.381,-0.425C0.403,-0.399 0.415,-0.362 0.415,-0.314L0.415,-0L0.495,-0L0.495,-0.326C0.495,-0.392 0.479,-0.443 0.447,-0.478C0.415,-0.514 0.368,-0.531 0.308,-0.531C0.273,-0.531 0.242,-0.523 0.214,-0.507C0.184,-0.49 0.16,-0.465 0.142,-0.432L0.142,-0.728L0.062,-0.728Z" style="fill:rgb(0,36,102);fill-rule:nonzero;"/>
                                                </g>
                                                <g transform="matrix(14,0,0,14,31.878,0)">
                                                    <path d="M0.304,-0.531C0.27,-0.531 0.239,-0.523 0.211,-0.507C0.183,-0.492 0.16,-0.47 0.142,-0.441L0.142,-0.517L0.062,-0.517L0.062,-0L0.142,-0L0.142,-0.312C0.145,-0.359 0.16,-0.396 0.188,-0.424C0.214,-0.45 0.245,-0.463 0.281,-0.463C0.371,-0.463 0.417,-0.413 0.417,-0.312L0.417,-0L0.497,-0L0.497,-0.318C0.497,-0.46 0.432,-0.531 0.304,-0.531Z" style="fill:rgb(0,36,102);fill-rule:nonzero;"/>
                                                </g>
                                                <g transform="matrix(14,0,0,14,39.704,0)">
                                                    <path d="M0.128,-0.712C0.111,-0.712 0.097,-0.707 0.085,-0.695C0.073,-0.685 0.068,-0.671 0.068,-0.653C0.068,-0.636 0.073,-0.622 0.085,-0.61C0.097,-0.599 0.111,-0.593 0.128,-0.593C0.145,-0.593 0.159,-0.599 0.171,-0.61C0.183,-0.622 0.189,-0.636 0.189,-0.653C0.189,-0.671 0.183,-0.685 0.171,-0.695C0.159,-0.707 0.145,-0.712 0.128,-0.712ZM0.088,-0.517L0.088,-0L0.168,-0L0.168,-0.517L0.088,-0.517Z" style="fill:rgb(0,36,102);fill-rule:nonzero;"/>
                                                </g>
                                                <g transform="matrix(14,0,0,14,43.288,0)">
                                                    <path d="M0.277,-0.531C0.201,-0.531 0.142,-0.504 0.1,-0.448C0.061,-0.398 0.042,-0.335 0.042,-0.257C0.042,-0.181 0.061,-0.118 0.099,-0.068C0.141,-0.014 0.199,0.014 0.273,0.014C0.347,0.014 0.404,-0.022 0.444,-0.094L0.444,0.198L0.524,0.198L0.524,-0.517L0.449,-0.517L0.449,-0.432C0.411,-0.498 0.354,-0.531 0.277,-0.531ZM0.287,-0.465C0.339,-0.465 0.379,-0.445 0.408,-0.404C0.433,-0.368 0.446,-0.32 0.446,-0.262L0.446,-0.252C0.446,-0.192 0.431,-0.144 0.403,-0.107C0.374,-0.071 0.336,-0.052 0.29,-0.052C0.234,-0.052 0.191,-0.072 0.163,-0.11C0.137,-0.146 0.124,-0.195 0.124,-0.257C0.124,-0.318 0.136,-0.367 0.161,-0.403C0.189,-0.445 0.231,-0.465 0.287,-0.465Z" style="fill:rgb(0,36,102);fill-rule:nonzero;"/>
                                                </g>
                                                <g transform="matrix(14,0,0,14,51.492,0)">
                                                    <path d="M0.062,-0.517L0.062,-0.197C0.062,-0.057 0.124,0.014 0.25,0.014C0.32,0.014 0.376,-0.018 0.418,-0.08L0.418,-0L0.498,-0L0.498,-0.517L0.418,-0.517L0.418,-0.202C0.412,-0.158 0.395,-0.122 0.367,-0.094C0.34,-0.068 0.309,-0.054 0.275,-0.054C0.228,-0.054 0.194,-0.067 0.173,-0.091C0.152,-0.115 0.142,-0.152 0.142,-0.201L0.142,-0.517L0.062,-0.517Z" style="fill:rgb(0,36,102);fill-rule:nonzero;"/>
                                                </g>
                                                <g transform="matrix(14,0,0,14,59.332,0)">
                                                    <path d="M0.275,-0.531C0.2,-0.531 0.141,-0.504 0.097,-0.45C0.053,-0.399 0.032,-0.335 0.032,-0.259C0.032,-0.175 0.054,-0.109 0.1,-0.059C0.144,-0.011 0.204,0.014 0.278,0.014C0.345,0.014 0.4,-0.006 0.443,-0.044C0.478,-0.076 0.501,-0.116 0.513,-0.166L0.433,-0.166C0.42,-0.13 0.403,-0.103 0.381,-0.085C0.355,-0.064 0.32,-0.053 0.278,-0.053C0.229,-0.053 0.19,-0.069 0.162,-0.101C0.134,-0.133 0.119,-0.178 0.115,-0.236L0.523,-0.236C0.521,-0.326 0.501,-0.397 0.463,-0.447C0.421,-0.503 0.358,-0.531 0.275,-0.531ZM0.277,-0.464C0.375,-0.464 0.43,-0.409 0.44,-0.298L0.117,-0.298C0.122,-0.349 0.138,-0.389 0.166,-0.419C0.194,-0.449 0.231,-0.464 0.277,-0.464Z" style="fill:rgb(0,36,102);fill-rule:nonzero;"/>
                                                </g>
                                            </g>
                                        </g>
                                    </g>
                                </g>
                            </g>
                        </g>
                    </g>
                </g>
                <g id="sbsvgG3010" transform="matrix(1,0,0,1,314.681,7.5)">
                    <g id="sbsvgG3011">
                        <g id="sbsvgG3012">
                            <rect id="sbsvgPath3013" x="-43.599" y="-13.5" width="87.197" height="26.5" style="fill:white;fill-opacity:0;fill-rule:nonzero;"/>
                            <rect id="sbsvgPath3014" x="-43.599" y="-13.5" width="87.197" height="26.5" style="fill-opacity:0;fill-rule:nonzero;"/>
                            <path id="sbsvgPath3015" d="M-43.599,13L43.599,13" style="fill:none;fill-rule:nonzero;stroke:rgb(140,181,255);stroke-width:1px;"/>
                            <g transform="matrix(1,0,0,1,-38.5986,4.5)">
                                <g id="sbsvgG3016">
                                    <g id="sbsvgG3017">
                                        <g id="sbsvgG3020">
                                            <g id="sbsvgText3019">
                                                <g transform="matrix(14,0,0,14,0,0)">
                                                    <path d="M0.38,-0.728C0.27,-0.728 0.184,-0.691 0.124,-0.615C0.069,-0.547 0.042,-0.46 0.042,-0.354C0.042,-0.248 0.068,-0.162 0.122,-0.096C0.181,-0.023 0.266,0.014 0.377,0.014C0.453,0.014 0.519,-0.008 0.574,-0.051C0.633,-0.097 0.67,-0.162 0.686,-0.245L0.607,-0.245C0.593,-0.183 0.564,-0.136 0.522,-0.104C0.482,-0.074 0.434,-0.059 0.377,-0.059C0.293,-0.059 0.23,-0.087 0.186,-0.142C0.144,-0.194 0.124,-0.265 0.124,-0.354C0.124,-0.443 0.145,-0.514 0.187,-0.568C0.232,-0.626 0.296,-0.655 0.379,-0.655C0.435,-0.655 0.482,-0.642 0.521,-0.615C0.561,-0.587 0.587,-0.547 0.597,-0.495L0.676,-0.495C0.666,-0.566 0.634,-0.623 0.58,-0.665C0.526,-0.707 0.459,-0.728 0.38,-0.728Z" style="fill:rgb(0,36,102);fill-rule:nonzero;"/>
                                                </g>
                                                <g transform="matrix(14,0,0,14,10.192,0)">
                                                    <path d="M0.293,-0.531C0.215,-0.531 0.154,-0.505 0.108,-0.451C0.064,-0.4 0.042,-0.336 0.042,-0.258C0.042,-0.181 0.064,-0.117 0.108,-0.067C0.154,-0.013 0.215,0.014 0.293,0.014C0.37,0.014 0.432,-0.013 0.479,-0.067C0.522,-0.117 0.544,-0.181 0.544,-0.258C0.544,-0.336 0.522,-0.4 0.478,-0.451C0.432,-0.505 0.37,-0.531 0.293,-0.531ZM0.293,-0.464C0.347,-0.464 0.39,-0.443 0.422,-0.401C0.449,-0.363 0.463,-0.316 0.463,-0.258C0.463,-0.202 0.449,-0.154 0.422,-0.116C0.39,-0.074 0.347,-0.053 0.293,-0.053C0.238,-0.053 0.195,-0.074 0.165,-0.116C0.137,-0.154 0.124,-0.201 0.124,-0.258C0.124,-0.316 0.137,-0.363 0.165,-0.401C0.195,-0.443 0.238,-0.464 0.293,-0.464Z" style="fill:rgb(0,36,102);fill-rule:nonzero;"/>
                                                </g>
                                                <g transform="matrix(14,0,0,14,18.396,0)">
                                                    <path d="M0.304,-0.531C0.27,-0.531 0.239,-0.523 0.211,-0.507C0.183,-0.492 0.16,-0.47 0.142,-0.441L0.142,-0.517L0.062,-0.517L0.062,-0L0.142,-0L0.142,-0.312C0.145,-0.359 0.16,-0.396 0.188,-0.424C0.214,-0.45 0.245,-0.463 0.281,-0.463C0.371,-0.463 0.417,-0.413 0.417,-0.312L0.417,-0L0.497,-0L0.497,-0.318C0.497,-0.46 0.432,-0.531 0.304,-0.531Z" style="fill:rgb(0,36,102);fill-rule:nonzero;"/>
                                                </g>
                                                <g transform="matrix(14,0,0,14,26.222,0)">
                                                    <path d="M0.269,-0.714C0.225,-0.714 0.191,-0.702 0.168,-0.677C0.146,-0.653 0.135,-0.62 0.135,-0.576L0.135,-0.517L0.005,-0.517L0.005,-0.45L0.135,-0.45L0.135,-0L0.215,-0L0.215,-0.45L0.451,-0.45L0.451,-0L0.53,-0L0.53,-0.517L0.215,-0.517L0.215,-0.574C0.215,-0.599 0.22,-0.617 0.23,-0.628C0.24,-0.64 0.257,-0.645 0.279,-0.645L0.368,-0.645L0.368,-0.714L0.269,-0.714Z" style="fill:rgb(0,36,102);fill-rule:nonzero;"/>
                                                </g>
                                                <g transform="matrix(14,0,0,14,34.734,0)">
                                                    <path d="M0.444,-0.728L0.444,-0.422C0.404,-0.495 0.347,-0.531 0.273,-0.531C0.199,-0.531 0.142,-0.504 0.1,-0.448C0.061,-0.398 0.042,-0.336 0.042,-0.26C0.042,-0.182 0.061,-0.118 0.1,-0.068C0.142,-0.014 0.201,0.014 0.277,0.014C0.355,0.014 0.413,-0.019 0.449,-0.085L0.449,-0L0.524,-0L0.524,-0.728L0.444,-0.728ZM0.29,-0.465C0.336,-0.465 0.374,-0.447 0.403,-0.409C0.431,-0.372 0.446,-0.323 0.446,-0.263L0.446,-0.253C0.446,-0.195 0.433,-0.148 0.408,-0.112C0.379,-0.072 0.339,-0.052 0.287,-0.052C0.231,-0.052 0.189,-0.073 0.161,-0.113C0.136,-0.149 0.124,-0.198 0.124,-0.26C0.124,-0.322 0.136,-0.37 0.162,-0.405C0.19,-0.445 0.233,-0.465 0.29,-0.465Z" style="fill:rgb(0,36,102);fill-rule:nonzero;"/>
                                                </g>
                                                <g transform="matrix(14,0,0,14,42.938,0)">
                                                    <path d="M0.275,-0.531C0.2,-0.531 0.141,-0.504 0.097,-0.45C0.053,-0.399 0.032,-0.335 0.032,-0.259C0.032,-0.175 0.054,-0.109 0.1,-0.059C0.144,-0.011 0.204,0.014 0.278,0.014C0.345,0.014 0.4,-0.006 0.443,-0.044C0.478,-0.076 0.501,-0.116 0.513,-0.166L0.433,-0.166C0.42,-0.13 0.403,-0.103 0.381,-0.085C0.355,-0.064 0.32,-0.053 0.278,-0.053C0.229,-0.053 0.19,-0.069 0.162,-0.101C0.134,-0.133 0.119,-0.178 0.115,-0.236L0.523,-0.236C0.521,-0.326 0.501,-0.397 0.463,-0.447C0.421,-0.503 0.358,-0.531 0.275,-0.531ZM0.277,-0.464C0.375,-0.464 0.43,-0.409 0.44,-0.298L0.117,-0.298C0.122,-0.349 0.138,-0.389 0.166,-0.419C0.194,-0.449 0.231,-0.464 0.277,-0.464Z" style="fill:rgb(0,36,102);fill-rule:nonzero;"/>
                                                </g>
                                                <g transform="matrix(14,0,0,14,50.708,0)">
                                                    <path d="M0.304,-0.531C0.27,-0.531 0.239,-0.523 0.211,-0.507C0.183,-0.492 0.16,-0.47 0.142,-0.441L0.142,-0.517L0.062,-0.517L0.062,-0L0.142,-0L0.142,-0.312C0.145,-0.359 0.16,-0.396 0.188,-0.424C0.214,-0.45 0.245,-0.463 0.281,-0.463C0.371,-0.463 0.417,-0.413 0.417,-0.312L0.417,-0L0.497,-0L0.497,-0.318C0.497,-0.46 0.432,-0.531 0.304,-0.531Z" style="fill:rgb(0,36,102);fill-rule:nonzero;"/>
                                                </g>
                                                <g transform="matrix(14,0,0,14,58.534,0)">
                                                    <path d="M0.285,-0.531C0.208,-0.531 0.147,-0.504 0.103,-0.449C0.062,-0.399 0.042,-0.335 0.042,-0.256C0.042,-0.177 0.062,-0.113 0.103,-0.064C0.146,-0.012 0.206,0.014 0.284,0.014C0.348,0.014 0.399,-0.003 0.438,-0.036C0.478,-0.07 0.503,-0.121 0.515,-0.187L0.435,-0.187C0.423,-0.098 0.372,-0.053 0.284,-0.053C0.232,-0.053 0.192,-0.072 0.165,-0.108C0.137,-0.144 0.124,-0.194 0.124,-0.257C0.124,-0.32 0.138,-0.37 0.166,-0.407C0.195,-0.445 0.235,-0.464 0.285,-0.464C0.326,-0.464 0.359,-0.455 0.385,-0.435C0.41,-0.415 0.426,-0.385 0.433,-0.345L0.512,-0.345C0.503,-0.408 0.479,-0.455 0.439,-0.486C0.4,-0.516 0.349,-0.531 0.285,-0.531Z" style="fill:rgb(0,36,102);fill-rule:nonzero;"/>
                                                </g>
                                                <g transform="matrix(14,0,0,14,66.192,0)">
                                                    <path d="M0.275,-0.531C0.2,-0.531 0.141,-0.504 0.097,-0.45C0.053,-0.399 0.032,-0.335 0.032,-0.259C0.032,-0.175 0.054,-0.109 0.1,-0.059C0.144,-0.011 0.204,0.014 0.278,0.014C0.345,0.014 0.4,-0.006 0.443,-0.044C0.478,-0.076 0.501,-0.116 0.513,-0.166L0.433,-0.166C0.42,-0.13 0.403,-0.103 0.381,-0.085C0.355,-0.064 0.32,-0.053 0.278,-0.053C0.229,-0.053 0.19,-0.069 0.162,-0.101C0.134,-0.133 0.119,-0.178 0.115,-0.236L0.523,-0.236C0.521,-0.326 0.501,-0.397 0.463,-0.447C0.421,-0.503 0.358,-0.531 0.275,-0.531ZM0.277,-0.464C0.375,-0.464 0.43,-0.409 0.44,-0.298L0.117,-0.298C0.122,-0.349 0.138,-0.389 0.166,-0.419C0.194,-0.449 0.231,-0.464 0.277,-0.464Z" style="fill:rgb(0,36,102);fill-rule:nonzero;"/>
                                                </g>
                                            </g>
                                        </g>
                                    </g>
                                </g>
                            </g>
                        </g>
                    </g>
                </g>
                <g id="sbsvgG3029" transform="matrix(1,0,0,1,314.681,44.5)">
                    <g id="sbsvgG3030">
                        <g id="sbsvgG3031">
                            <rect id="sbsvgPath3032" x="-43.599" y="-13.5" width="87.197" height="26.5" style="fill:white;fill-opacity:0;fill-rule:nonzero;"/>
                            <rect id="sbsvgPath3033" x="-43.599" y="-13.5" width="87.197" height="26.5" style="fill-opacity:0;fill-rule:nonzero;"/>
                            <path id="sbsvgPath3034" d="M-43.599,13L43.599,13" style="fill:none;fill-rule:nonzero;stroke:rgb(140,181,255);stroke-width:1px;"/>
                            <g transform="matrix(1,0,0,1,-38.5986,4.5)">
                                <g id="sbsvgG3035">
                                    <g id="sbsvgG3036">
                                        <g id="sbsvgG3039">
                                            <g id="sbsvgText3038">
                                                <g transform="matrix(14,0,0,14,0,0)">
                                                    <path d="M0.005,-0.714L0.269,-0L0.37,-0L0.634,-0.714L0.544,-0.714L0.321,-0.089L0.318,-0.089L0.095,-0.714L0.005,-0.714Z" style="fill:rgb(0,36,102);fill-rule:nonzero;"/>
                                                </g>
                                                <g transform="matrix(14,0,0,14,8.946,0)">
                                                    <path d="M0.287,-0.531C0.225,-0.531 0.176,-0.519 0.138,-0.495C0.096,-0.469 0.069,-0.428 0.058,-0.374L0.137,-0.368C0.145,-0.401 0.162,-0.426 0.189,-0.442C0.213,-0.458 0.244,-0.465 0.282,-0.465C0.372,-0.465 0.417,-0.422 0.417,-0.335L0.417,-0.308L0.293,-0.306C0.215,-0.305 0.155,-0.29 0.113,-0.262C0.065,-0.232 0.042,-0.188 0.042,-0.129C0.042,-0.087 0.058,-0.052 0.09,-0.025C0.121,0.001 0.162,0.014 0.214,0.014C0.262,0.014 0.305,0.003 0.343,-0.018C0.375,-0.036 0.402,-0.059 0.422,-0.087L0.422,-0L0.497,-0L0.497,-0.332C0.497,-0.392 0.481,-0.439 0.451,-0.473C0.415,-0.512 0.361,-0.531 0.287,-0.531ZM0.417,-0.248L0.417,-0.204C0.417,-0.164 0.398,-0.128 0.361,-0.097C0.323,-0.065 0.28,-0.049 0.231,-0.049C0.199,-0.049 0.173,-0.057 0.153,-0.072C0.133,-0.088 0.124,-0.107 0.124,-0.131C0.124,-0.206 0.182,-0.244 0.298,-0.246L0.417,-0.248Z" style="fill:rgb(0,36,102);fill-rule:nonzero;"/>
                                                </g>
                                                <g transform="matrix(14,0,0,14,16.772,0)">
                                                    <rect x="0.078" y="-0.728" width="0.079" height="0.728" style="fill:rgb(0,36,102);fill-rule:nonzero;"/>
                                                </g>
                                                <g transform="matrix(14,0,0,14,20.062,0)">
                                                    <path d="M0.062,-0.517L0.062,-0.197C0.062,-0.057 0.124,0.014 0.25,0.014C0.32,0.014 0.376,-0.018 0.418,-0.08L0.418,-0L0.498,-0L0.498,-0.517L0.418,-0.517L0.418,-0.202C0.412,-0.158 0.395,-0.122 0.367,-0.094C0.34,-0.068 0.309,-0.054 0.275,-0.054C0.228,-0.054 0.194,-0.067 0.173,-0.091C0.152,-0.115 0.142,-0.152 0.142,-0.201L0.142,-0.517L0.062,-0.517Z" style="fill:rgb(0,36,102);fill-rule:nonzero;"/>
                                                </g>
                                                <g transform="matrix(14,0,0,14,27.902,0)">
                                                    <path d="M0.275,-0.531C0.2,-0.531 0.141,-0.504 0.097,-0.45C0.053,-0.399 0.032,-0.335 0.032,-0.259C0.032,-0.175 0.054,-0.109 0.1,-0.059C0.144,-0.011 0.204,0.014 0.278,0.014C0.345,0.014 0.4,-0.006 0.443,-0.044C0.478,-0.076 0.501,-0.116 0.513,-0.166L0.433,-0.166C0.42,-0.13 0.403,-0.103 0.381,-0.085C0.355,-0.064 0.32,-0.053 0.278,-0.053C0.229,-0.053 0.19,-0.069 0.162,-0.101C0.134,-0.133 0.119,-0.178 0.115,-0.236L0.523,-0.236C0.521,-0.326 0.501,-0.397 0.463,-0.447C0.421,-0.503 0.358,-0.531 0.275,-0.531ZM0.277,-0.464C0.375,-0.464 0.43,-0.409 0.44,-0.298L0.117,-0.298C0.122,-0.349 0.138,-0.389 0.166,-0.419C0.194,-0.449 0.231,-0.464 0.277,-0.464Z" style="fill:rgb(0,36,102);fill-rule:nonzero;"/>
                                                </g>
                                            </g>
                                        </g>
                                    </g>
                                </g>
                            </g>
                        </g>
                    </g>
                </g>
            </g>
        </g>
    </g>
    <g transform="matrix(0.0520679,0,0,0.0782097,1198.64,-0.732322)">
        <rect x="6.979" y="9.364" width="19.206" height="12.786" style="fill:rgb(235,235,235);"/>
    </g>
    <g transform="matrix(0.0520679,0,0,0.0782097,-0.36336,-0.732322)">
        <rect x="6.979" y="9.364" width="19.206" height="12.786" style="fill:rgb(235,235,235);"/>
    </g>
</svg>
