<?xml version="1.0" encoding="UTF-8" standalone="no"?>
<!DOCTYPE svg PUBLIC "-//W3C//DTD SVG 1.1//EN" "http://www.w3.org/Graphics/SVG/1.1/DTD/svg11.dtd">
<svg width="100%" height="100%" viewBox="0 0 3000 460" version="1.1" xmlns="http://www.w3.org/2000/svg" xmlns:xlink="http://www.w3.org/1999/xlink" xml:space="preserve" xmlns:serif="http://www.serif.com/" style="fill-rule:evenodd;clip-rule:evenodd;stroke-linejoin:round;stroke-miterlimit:2;">
    <g transform="matrix(1,0,0,1,-8.67825,-6)">
        <g transform="matrix(75,0,0,75,13.6782,381.959)">
            <path d="M0.204,0.179L0.296,0.141C0.223,0.011 0.191,-0.136 0.191,-0.278C0.191,-0.42 0.223,-0.567 0.296,-0.697L0.204,-0.735C0.12,-0.598 0.072,-0.454 0.072,-0.278C0.072,-0.102 0.12,0.042 0.204,0.179Z" style="fill:rgb(2,177,213);fill-rule:nonzero;"/>
        </g>
        <g transform="matrix(75,0,0,75,39.4782,381.959)">
            <path d="M0.046,-0.322C0.046,-0.103 0.184,0.012 0.353,0.012C0.434,0.012 0.506,-0.021 0.56,-0.084L0.479,-0.173C0.447,-0.138 0.408,-0.115 0.355,-0.115C0.259,-0.115 0.197,-0.193 0.197,-0.327C0.197,-0.458 0.268,-0.537 0.359,-0.537C0.404,-0.537 0.436,-0.518 0.469,-0.488L0.55,-0.579C0.506,-0.624 0.438,-0.664 0.357,-0.664C0.189,-0.664 0.046,-0.538 0.046,-0.322Z" style="fill:rgb(2,177,213);fill-rule:nonzero;"/>
        </g>
        <g transform="matrix(75,0,0,75,80.3532,381.959)">
            <path d="M0.046,-0.322C0.046,-0.103 0.184,0.012 0.353,0.012C0.434,0.012 0.506,-0.021 0.56,-0.084L0.479,-0.173C0.447,-0.138 0.408,-0.115 0.355,-0.115C0.259,-0.115 0.197,-0.193 0.197,-0.327C0.197,-0.458 0.268,-0.537 0.359,-0.537C0.404,-0.537 0.436,-0.518 0.469,-0.488L0.55,-0.579C0.506,-0.624 0.438,-0.664 0.357,-0.664C0.189,-0.664 0.046,-0.538 0.046,-0.322Z" style="fill:rgb(2,177,213);fill-rule:nonzero;"/>
        </g>
        <g transform="matrix(75,0,0,75,139.603,381.959)">
            <path d="M0.077,-0L0.319,-0C0.46,-0 0.572,-0.059 0.572,-0.192C0.572,-0.279 0.524,-0.328 0.431,-0.345L0.431,-0.349C0.507,-0.369 0.54,-0.432 0.54,-0.49C0.54,-0.615 0.435,-0.652 0.3,-0.652L0.077,-0.652L0.077,-0ZM0.224,-0.389L0.224,-0.538L0.294,-0.538C0.363,-0.538 0.396,-0.518 0.396,-0.469C0.396,-0.42 0.365,-0.389 0.293,-0.389L0.224,-0.389ZM0.224,-0.114L0.224,-0.285L0.307,-0.285C0.388,-0.285 0.428,-0.26 0.428,-0.203C0.428,-0.144 0.387,-0.114 0.307,-0.114L0.224,-0.114Z" style="fill:rgb(2,177,213);fill-rule:nonzero;"/>
        </g>
        <g transform="matrix(75,0,0,75,183.628,381.959)">
            <path d="M0.189,-0L0.336,-0L0.336,-0.232L0.533,-0.652L0.379,-0.652L0.32,-0.502C0.302,-0.453 0.284,-0.408 0.265,-0.358L0.261,-0.358C0.243,-0.408 0.226,-0.453 0.208,-0.502L0.15,-0.652L-0.008,-0.652L0.189,-0.232L0.189,-0Z" style="fill:rgb(2,177,213);fill-rule:nonzero;"/>
        </g>
        <g transform="matrix(75,0,0,75,238.603,381.959)">
            <path d="M0.16,-0.264L0.244,-0.402C0.262,-0.438 0.28,-0.474 0.296,-0.509L0.3,-0.509C0.298,-0.469 0.294,-0.408 0.294,-0.367L0.294,-0.264L0.16,-0.264ZM0.504,-0.264L0.431,-0.264L0.431,-0.635L0.251,-0.635L0.019,-0.253L0.019,-0.152L0.294,-0.152L0.294,-0L0.431,-0L0.431,-0.152L0.504,-0.152L0.504,-0.264Z" style="fill:rgb(2,177,213);fill-rule:nonzero;"/>
        </g>
        <g transform="matrix(75,0,0,75,278.203,381.959)">
            <path d="M0.061,-0.08C0.061,-0.028 0.099,0.012 0.15,0.012C0.201,0.012 0.239,-0.028 0.239,-0.08C0.239,-0.133 0.201,-0.173 0.15,-0.173C0.099,-0.173 0.061,-0.133 0.061,-0.08Z" style="fill:rgb(2,177,213);fill-rule:nonzero;"/>
        </g>
        <g transform="matrix(75,0,0,75,300.703,381.959)">
            <path d="M0.264,0.012C0.4,0.012 0.491,-0.104 0.491,-0.32C0.491,-0.536 0.4,-0.647 0.264,-0.647C0.128,-0.647 0.037,-0.536 0.037,-0.32C0.037,-0.104 0.128,0.012 0.264,0.012ZM0.264,-0.102C0.215,-0.102 0.176,-0.147 0.176,-0.32C0.176,-0.494 0.215,-0.533 0.264,-0.533C0.314,-0.533 0.352,-0.494 0.352,-0.32C0.352,-0.147 0.314,-0.102 0.264,-0.102Z" style="fill:rgb(2,177,213);fill-rule:nonzero;"/>
        </g>
        <g transform="matrix(75,0,0,75,340.303,381.959)">
            <path d="M0.048,0.141L0.14,0.179C0.224,0.042 0.272,-0.102 0.272,-0.278C0.272,-0.454 0.224,-0.598 0.14,-0.735L0.048,-0.697C0.122,-0.567 0.154,-0.42 0.154,-0.278C0.154,-0.136 0.122,0.011 0.048,0.141Z" style="fill:rgb(2,177,213);fill-rule:nonzero;"/>
        </g>
    </g>
    <g transform="matrix(1,0,0,1,2.36851,-15.5458)">
        <g transform="matrix(75,0,0,75,8.48607,308.443)">
            <path d="M0.214,-0.27L0.23,-0.33C0.248,-0.395 0.265,-0.471 0.281,-0.54L0.285,-0.54C0.302,-0.472 0.32,-0.395 0.338,-0.33L0.353,-0.27L0.214,-0.27ZM0.423,-0L0.579,-0L0.375,-0.652L0.198,-0.652L-0.006,-0L0.144,-0L0.184,-0.155L0.383,-0.155L0.423,-0Z" style="fill:rgb(2,177,213);fill-rule:nonzero;"/>
        </g>
        <g transform="matrix(75,0,0,75,50.1111,308.443)">
            <path d="M0.085,-0.18C0.085,-0.065 0.133,0.012 0.256,0.012C0.304,0.012 0.34,0.002 0.366,-0.006L0.343,-0.113C0.33,-0.108 0.312,-0.103 0.296,-0.103C0.257,-0.103 0.232,-0.126 0.232,-0.182L0.232,-0.381L0.351,-0.381L0.351,-0.496L0.232,-0.496L0.232,-0.628L0.11,-0.628L0.093,-0.496L0.017,-0.49L0.017,-0.381L0.085,-0.381L0.085,-0.18Z" style="fill:rgb(2,177,213);fill-rule:nonzero;"/>
        </g>
        <g transform="matrix(75,0,0,75,78.8361,308.443)">
            <path d="M0.085,-0.18C0.085,-0.065 0.133,0.012 0.256,0.012C0.304,0.012 0.34,0.002 0.366,-0.006L0.343,-0.113C0.33,-0.108 0.312,-0.103 0.296,-0.103C0.257,-0.103 0.232,-0.126 0.232,-0.182L0.232,-0.381L0.351,-0.381L0.351,-0.496L0.232,-0.496L0.232,-0.628L0.11,-0.628L0.093,-0.496L0.017,-0.49L0.017,-0.381L0.085,-0.381L0.085,-0.18Z" style="fill:rgb(2,177,213);fill-rule:nonzero;"/>
        </g>
        <g transform="matrix(75,0,0,75,107.561,308.443)">
            <path d="M0.065,-0L0.212,-0L0.212,-0.288C0.238,-0.355 0.284,-0.379 0.321,-0.379C0.342,-0.379 0.357,-0.376 0.375,-0.371L0.399,-0.498C0.385,-0.504 0.368,-0.508 0.34,-0.508C0.289,-0.508 0.235,-0.476 0.199,-0.409L0.195,-0.409L0.185,-0.496L0.065,-0.496L0.065,-0Z" style="fill:rgb(2,177,213);fill-rule:nonzero;"/>
        </g>
        <g transform="matrix(75,0,0,75,137.411,308.443)">
            <path d="M0.138,-0.569C0.188,-0.569 0.223,-0.601 0.223,-0.646C0.223,-0.691 0.188,-0.722 0.138,-0.722C0.089,-0.722 0.053,-0.691 0.053,-0.646C0.053,-0.601 0.089,-0.569 0.138,-0.569ZM0.065,-0L0.212,-0L0.212,-0.496L0.065,-0.496L0.065,-0Z" style="fill:rgb(2,177,213);fill-rule:nonzero;"/>
        </g>
        <g transform="matrix(75,0,0,75,158.111,308.443)">
            <path d="M0.065,-0L0.18,-0L0.192,-0.052L0.196,-0.052C0.235,-0.01 0.281,0.012 0.325,0.012C0.432,0.012 0.534,-0.086 0.534,-0.257C0.534,-0.409 0.459,-0.508 0.339,-0.508C0.293,-0.508 0.246,-0.487 0.208,-0.453L0.212,-0.529L0.212,-0.701L0.065,-0.701L0.065,-0ZM0.212,-0.14L0.212,-0.343C0.24,-0.374 0.267,-0.388 0.297,-0.388C0.356,-0.388 0.383,-0.343 0.383,-0.254C0.383,-0.152 0.342,-0.108 0.291,-0.108C0.266,-0.108 0.238,-0.116 0.212,-0.14Z" style="fill:rgb(2,177,213);fill-rule:nonzero;"/>
        </g>
        <g transform="matrix(75,0,0,75,201.086,308.443)">
            <path d="M0.06,-0.188C0.06,-0.064 0.106,0.012 0.214,0.012C0.282,0.012 0.328,-0.019 0.37,-0.069L0.373,-0.069L0.384,-0L0.504,-0L0.504,-0.496L0.357,-0.496L0.357,-0.168C0.328,-0.129 0.306,-0.113 0.269,-0.113C0.226,-0.113 0.207,-0.136 0.207,-0.207L0.207,-0.496L0.06,-0.496L0.06,-0.188Z" style="fill:rgb(2,177,213);fill-rule:nonzero;"/>
        </g>
        <g transform="matrix(75,0,0,75,243.686,308.443)">
            <path d="M0.085,-0.18C0.085,-0.065 0.133,0.012 0.256,0.012C0.304,0.012 0.34,0.002 0.366,-0.006L0.343,-0.113C0.33,-0.108 0.312,-0.103 0.296,-0.103C0.257,-0.103 0.232,-0.126 0.232,-0.182L0.232,-0.381L0.351,-0.381L0.351,-0.496L0.232,-0.496L0.232,-0.628L0.11,-0.628L0.093,-0.496L0.017,-0.49L0.017,-0.381L0.085,-0.381L0.085,-0.18Z" style="fill:rgb(2,177,213);fill-rule:nonzero;"/>
        </g>
        <g transform="matrix(75,0,0,75,272.411,308.443)">
            <path d="M0.138,-0.569C0.188,-0.569 0.223,-0.601 0.223,-0.646C0.223,-0.691 0.188,-0.722 0.138,-0.722C0.089,-0.722 0.053,-0.691 0.053,-0.646C0.053,-0.601 0.089,-0.569 0.138,-0.569ZM0.065,-0L0.212,-0L0.212,-0.496L0.065,-0.496L0.065,-0Z" style="fill:rgb(2,177,213);fill-rule:nonzero;"/>
        </g>
        <g transform="matrix(75,0,0,75,293.111,308.443)">
            <path d="M0.036,-0.248C0.036,-0.083 0.152,0.012 0.278,0.012C0.403,0.012 0.519,-0.083 0.519,-0.248C0.519,-0.413 0.403,-0.508 0.278,-0.508C0.152,-0.508 0.036,-0.413 0.036,-0.248ZM0.187,-0.248C0.187,-0.334 0.217,-0.389 0.278,-0.389C0.338,-0.389 0.369,-0.334 0.369,-0.248C0.369,-0.162 0.338,-0.107 0.278,-0.107C0.217,-0.107 0.187,-0.162 0.187,-0.248Z" style="fill:rgb(2,177,213);fill-rule:nonzero;"/>
        </g>
        <g transform="matrix(75,0,0,75,334.736,308.443)">
            <path d="M0.065,-0L0.212,-0L0.212,-0.335C0.244,-0.366 0.267,-0.383 0.304,-0.383C0.346,-0.383 0.365,-0.361 0.365,-0.289L0.365,-0L0.512,-0L0.512,-0.308C0.512,-0.432 0.466,-0.508 0.358,-0.508C0.291,-0.508 0.241,-0.473 0.199,-0.433L0.195,-0.433L0.185,-0.496L0.065,-0.496L0.065,-0Z" style="fill:rgb(2,177,213);fill-rule:nonzero;"/>
        </g>
        <g transform="matrix(75,0,0,75,393.236,308.443)">
            <path d="M0.16,-0.264L0.244,-0.402C0.262,-0.438 0.28,-0.474 0.296,-0.509L0.3,-0.509C0.298,-0.469 0.294,-0.408 0.294,-0.367L0.294,-0.264L0.16,-0.264ZM0.504,-0.264L0.431,-0.264L0.431,-0.635L0.251,-0.635L0.019,-0.253L0.019,-0.152L0.294,-0.152L0.294,-0L0.431,-0L0.431,-0.152L0.504,-0.152L0.504,-0.264Z" style="fill:rgb(2,177,213);fill-rule:nonzero;"/>
        </g>
        <g transform="matrix(75,0,0,75,432.836,308.443)">
            <path d="M0.061,-0.08C0.061,-0.028 0.099,0.012 0.15,0.012C0.201,0.012 0.239,-0.028 0.239,-0.08C0.239,-0.133 0.201,-0.173 0.15,-0.173C0.099,-0.173 0.061,-0.133 0.061,-0.08Z" style="fill:rgb(2,177,213);fill-rule:nonzero;"/>
        </g>
        <g transform="matrix(75,0,0,75,455.336,308.443)">
            <path d="M0.264,0.012C0.4,0.012 0.491,-0.104 0.491,-0.32C0.491,-0.536 0.4,-0.647 0.264,-0.647C0.128,-0.647 0.037,-0.536 0.037,-0.32C0.037,-0.104 0.128,0.012 0.264,0.012ZM0.264,-0.102C0.215,-0.102 0.176,-0.147 0.176,-0.32C0.176,-0.494 0.215,-0.533 0.264,-0.533C0.314,-0.533 0.352,-0.494 0.352,-0.32C0.352,-0.147 0.314,-0.102 0.264,-0.102Z" style="fill:rgb(2,177,213);fill-rule:nonzero;"/>
        </g>
        <g transform="matrix(75,0,0,75,510.536,308.443)">
            <rect x="0.077" y="-0.652" width="0.147" height="0.652" style="fill:rgb(2,177,213);fill-rule:nonzero;"/>
        </g>
        <g transform="matrix(75,0,0,75,533.111,308.443)">
            <path d="M0.065,-0L0.212,-0L0.212,-0.335C0.244,-0.366 0.267,-0.383 0.304,-0.383C0.346,-0.383 0.365,-0.361 0.365,-0.289L0.365,-0L0.512,-0L0.512,-0.308C0.512,-0.432 0.466,-0.508 0.358,-0.508C0.291,-0.508 0.241,-0.473 0.199,-0.433L0.195,-0.433L0.185,-0.496L0.065,-0.496L0.065,-0Z" style="fill:rgb(2,177,213);fill-rule:nonzero;"/>
        </g>
        <g transform="matrix(75,0,0,75,576.011,308.443)">
            <path d="M0.085,-0.18C0.085,-0.065 0.133,0.012 0.256,0.012C0.304,0.012 0.34,0.002 0.366,-0.006L0.343,-0.113C0.33,-0.108 0.312,-0.103 0.296,-0.103C0.257,-0.103 0.232,-0.126 0.232,-0.182L0.232,-0.381L0.351,-0.381L0.351,-0.496L0.232,-0.496L0.232,-0.628L0.11,-0.628L0.093,-0.496L0.017,-0.49L0.017,-0.381L0.085,-0.381L0.085,-0.18Z" style="fill:rgb(2,177,213);fill-rule:nonzero;"/>
        </g>
        <g transform="matrix(75,0,0,75,603.986,308.443)">
            <path d="M0.036,-0.248C0.036,-0.084 0.145,0.012 0.287,0.012C0.346,0.012 0.412,-0.009 0.463,-0.044L0.414,-0.133C0.378,-0.111 0.344,-0.1 0.307,-0.1C0.241,-0.1 0.191,-0.133 0.178,-0.208L0.475,-0.208C0.478,-0.22 0.481,-0.244 0.481,-0.27C0.481,-0.405 0.411,-0.508 0.27,-0.508C0.151,-0.508 0.036,-0.409 0.036,-0.248ZM0.177,-0.299C0.187,-0.365 0.227,-0.396 0.273,-0.396C0.332,-0.396 0.356,-0.356 0.356,-0.299L0.177,-0.299Z" style="fill:rgb(2,177,213);fill-rule:nonzero;"/>
        </g>
        <g transform="matrix(75,0,0,75,642.836,308.443)">
            <path d="M0.065,-0L0.212,-0L0.212,-0.288C0.238,-0.355 0.284,-0.379 0.321,-0.379C0.342,-0.379 0.357,-0.376 0.375,-0.371L0.399,-0.498C0.385,-0.504 0.368,-0.508 0.34,-0.508C0.289,-0.508 0.235,-0.476 0.199,-0.409L0.195,-0.409L0.185,-0.496L0.065,-0.496L0.065,-0Z" style="fill:rgb(2,177,213);fill-rule:nonzero;"/>
        </g>
        <g transform="matrix(75,0,0,75,672.686,308.443)">
            <path d="M0.065,-0L0.212,-0L0.212,-0.335C0.244,-0.366 0.267,-0.383 0.304,-0.383C0.346,-0.383 0.365,-0.361 0.365,-0.289L0.365,-0L0.512,-0L0.512,-0.308C0.512,-0.432 0.466,-0.508 0.358,-0.508C0.291,-0.508 0.241,-0.473 0.199,-0.433L0.195,-0.433L0.185,-0.496L0.065,-0.496L0.065,-0Z" style="fill:rgb(2,177,213);fill-rule:nonzero;"/>
        </g>
        <g transform="matrix(75,0,0,75,715.586,308.443)">
            <path d="M0.047,-0.138C0.047,-0.054 0.104,0.012 0.194,0.012C0.25,0.012 0.297,-0.014 0.339,-0.051L0.342,-0.051L0.353,-0L0.473,-0L0.473,-0.284C0.473,-0.436 0.403,-0.508 0.276,-0.508C0.198,-0.508 0.127,-0.481 0.064,-0.443L0.116,-0.346C0.164,-0.374 0.206,-0.391 0.248,-0.391C0.301,-0.391 0.323,-0.363 0.326,-0.319C0.13,-0.299 0.047,-0.242 0.047,-0.138ZM0.187,-0.149C0.187,-0.187 0.221,-0.217 0.326,-0.231L0.326,-0.144C0.3,-0.118 0.278,-0.102 0.244,-0.102C0.209,-0.102 0.187,-0.117 0.187,-0.149Z" style="fill:rgb(2,177,213);fill-rule:nonzero;"/>
        </g>
        <g transform="matrix(75,0,0,75,755.636,308.443)">
            <path d="M0.085,-0.18C0.085,-0.065 0.133,0.012 0.256,0.012C0.304,0.012 0.34,0.002 0.366,-0.006L0.343,-0.113C0.33,-0.108 0.312,-0.103 0.296,-0.103C0.257,-0.103 0.232,-0.126 0.232,-0.182L0.232,-0.381L0.351,-0.381L0.351,-0.496L0.232,-0.496L0.232,-0.628L0.11,-0.628L0.093,-0.496L0.017,-0.49L0.017,-0.381L0.085,-0.381L0.085,-0.18Z" style="fill:rgb(2,177,213);fill-rule:nonzero;"/>
        </g>
        <g transform="matrix(75,0,0,75,784.361,308.443)">
            <path d="M0.138,-0.569C0.188,-0.569 0.223,-0.601 0.223,-0.646C0.223,-0.691 0.188,-0.722 0.138,-0.722C0.089,-0.722 0.053,-0.691 0.053,-0.646C0.053,-0.601 0.089,-0.569 0.138,-0.569ZM0.065,-0L0.212,-0L0.212,-0.496L0.065,-0.496L0.065,-0Z" style="fill:rgb(2,177,213);fill-rule:nonzero;"/>
        </g>
        <g transform="matrix(75,0,0,75,805.061,308.443)">
            <path d="M0.036,-0.248C0.036,-0.083 0.152,0.012 0.278,0.012C0.403,0.012 0.519,-0.083 0.519,-0.248C0.519,-0.413 0.403,-0.508 0.278,-0.508C0.152,-0.508 0.036,-0.413 0.036,-0.248ZM0.187,-0.248C0.187,-0.334 0.217,-0.389 0.278,-0.389C0.338,-0.389 0.369,-0.334 0.369,-0.248C0.369,-0.162 0.338,-0.107 0.278,-0.107C0.217,-0.107 0.187,-0.162 0.187,-0.248Z" style="fill:rgb(2,177,213);fill-rule:nonzero;"/>
        </g>
        <g transform="matrix(75,0,0,75,846.686,308.443)">
            <path d="M0.065,-0L0.212,-0L0.212,-0.335C0.244,-0.366 0.267,-0.383 0.304,-0.383C0.346,-0.383 0.365,-0.361 0.365,-0.289L0.365,-0L0.512,-0L0.512,-0.308C0.512,-0.432 0.466,-0.508 0.358,-0.508C0.291,-0.508 0.241,-0.473 0.199,-0.433L0.195,-0.433L0.185,-0.496L0.065,-0.496L0.065,-0Z" style="fill:rgb(2,177,213);fill-rule:nonzero;"/>
        </g>
        <g transform="matrix(75,0,0,75,889.586,308.443)">
            <path d="M0.047,-0.138C0.047,-0.054 0.104,0.012 0.194,0.012C0.25,0.012 0.297,-0.014 0.339,-0.051L0.342,-0.051L0.353,-0L0.473,-0L0.473,-0.284C0.473,-0.436 0.403,-0.508 0.276,-0.508C0.198,-0.508 0.127,-0.481 0.064,-0.443L0.116,-0.346C0.164,-0.374 0.206,-0.391 0.248,-0.391C0.301,-0.391 0.323,-0.363 0.326,-0.319C0.13,-0.299 0.047,-0.242 0.047,-0.138ZM0.187,-0.149C0.187,-0.187 0.221,-0.217 0.326,-0.231L0.326,-0.144C0.3,-0.118 0.278,-0.102 0.244,-0.102C0.209,-0.102 0.187,-0.117 0.187,-0.149Z" style="fill:rgb(2,177,213);fill-rule:nonzero;"/>
        </g>
        <g transform="matrix(75,0,0,75,929.636,308.443)">
            <path d="M0.065,-0.154C0.065,-0.054 0.099,0.012 0.2,0.012C0.233,0.012 0.258,0.007 0.274,-0L0.256,-0.109C0.248,-0.107 0.244,-0.107 0.238,-0.107C0.226,-0.107 0.212,-0.117 0.212,-0.148L0.212,-0.701L0.065,-0.701L0.065,-0.154Z" style="fill:rgb(2,177,213);fill-rule:nonzero;"/>
        </g>
    </g>
    <g id="by">
        <g transform="matrix(1.95312,0,0,1.95312,149.879,61.268)">
            <circle cx="32.137" cy="32.306" r="28.276" style="fill:white;"/>
        </g>
        <g transform="matrix(1.95312,0,0,1.95312,149.879,61.1)">
            <path d="M31.943,0C40.931,0 48.513,3.085 54.685,9.257C60.893,15.467 64,23.048 64,32C64,40.991 60.951,48.476 54.855,54.456C48.379,60.819 40.742,64 31.943,64C23.294,64 15.79,60.856 9.429,54.57C3.144,48.284 0,40.762 0,32C0,23.239 3.144,15.658 9.429,9.258C15.601,3.085 23.104,0 31.943,0ZM32.057,5.772C24.781,5.772 18.629,8.325 13.6,13.429C8.38,18.763 5.771,24.954 5.771,32.001C5.771,39.087 8.361,45.221 13.541,50.399C18.722,55.581 24.893,58.17 32.055,58.17C39.178,58.17 45.389,55.563 50.684,50.342C55.713,45.504 58.227,39.39 58.227,31.999C58.227,24.723 55.674,18.534 50.571,13.428C45.467,8.324 39.295,5.772 32.057,5.772ZM40.629,24.057L40.629,37.142L36.973,37.142L36.973,52.684L27.029,52.684L27.029,37.143L23.373,37.143L23.373,24.057C23.373,23.485 23.573,23 23.972,22.6C24.373,22.201 24.859,22 25.429,22L38.573,22C39.106,22 39.583,22.2 40.001,22.6C40.418,23 40.629,23.486 40.629,24.057ZM27.542,15.829C27.542,12.821 29.027,11.315 32,11.315C34.973,11.315 36.457,12.819 36.457,15.829C36.457,18.8 34.971,20.286 32,20.286C29.029,20.286 27.542,18.8 27.542,15.829Z" style="fill:rgb(2,177,213);fill-rule:nonzero;"/>
        </g>
    </g>
    <g id="cc">
        <g transform="matrix(1.95316,0,0,1.95316,9.89657,61.1183)">
            <circle cx="32.285" cy="32.001" r="28.836" style="fill:white;"/>
        </g>
        <g transform="matrix(1.95316,0,0,1.95316,9.89657,61.1183)">
            <path d="M31.941,0C40.892,0 48.513,3.125 54.798,9.372C57.806,12.381 60.093,15.82 61.655,19.686C63.216,23.553 63.999,27.657 63.999,32C63.999,36.381 63.226,40.486 61.685,44.313C60.142,48.141 57.865,51.523 54.857,54.456C51.734,57.541 48.191,59.904 44.228,61.542C40.267,63.18 36.171,63.999 31.943,63.999C27.715,63.999 23.667,63.191 19.8,61.57C15.934,59.952 12.467,57.609 9.4,54.543C6.333,51.477 4,48.019 2.4,44.171C0.8,40.323 0,36.267 0,32C0,27.771 0.809,23.705 2.428,19.8C4.047,15.895 6.4,12.4 9.485,9.314C15.58,3.106 23.065,0 31.941,0ZM32.057,5.772C24.743,5.772 18.59,8.325 13.599,13.429C11.084,15.982 9.151,18.848 7.799,22.029C6.445,25.21 5.77,28.534 5.77,32.001C5.77,35.43 6.445,38.735 7.799,41.914C9.152,45.097 11.084,47.935 13.599,50.43C16.113,52.926 18.95,54.829 22.114,56.145C25.275,57.459 28.59,58.116 32.057,58.116C35.485,58.116 38.807,57.451 42.03,56.117C45.249,54.782 48.151,52.86 50.743,50.346C55.733,45.47 58.227,39.356 58.227,32.002C58.227,28.459 57.579,25.107 56.284,21.945C54.991,18.783 53.104,15.965 50.63,13.487C45.484,8.344 39.295,5.772 32.057,5.772ZM31.656,26.687L27.369,28.916C26.911,27.965 26.35,27.297 25.684,26.916C25.017,26.536 24.398,26.345 23.826,26.345C20.97,26.345 19.54,28.23 19.54,32.002C19.54,33.716 19.902,35.086 20.625,36.115C21.349,37.144 22.416,37.659 23.826,37.659C25.693,37.659 27.007,36.744 27.77,34.916L31.712,36.916C30.874,38.479 29.712,39.707 28.226,40.602C26.742,41.498 25.103,41.945 23.312,41.945C20.455,41.945 18.149,41.07 16.397,39.316C14.645,37.564 13.769,35.126 13.769,32.003C13.769,28.955 14.655,26.537 16.426,24.746C18.197,22.956 20.435,22.06 23.141,22.06C27.104,22.058 29.941,23.601 31.656,26.687ZM50.113,26.687L45.884,28.916C45.427,27.965 44.864,27.297 44.198,26.916C43.53,26.536 42.891,26.345 42.284,26.345C39.427,26.345 37.997,28.23 37.997,32.002C37.997,33.716 38.36,35.086 39.083,36.115C39.806,37.144 40.872,37.659 42.284,37.659C44.149,37.659 45.464,36.744 46.225,34.916L50.225,36.916C49.35,38.479 48.168,39.707 46.684,40.602C45.198,41.498 43.579,41.945 41.827,41.945C38.931,41.945 36.618,41.07 34.886,39.316C33.15,37.564 32.284,35.126 32.284,32.003C32.284,28.955 33.169,26.537 34.942,24.746C36.712,22.956 38.95,22.06 41.655,22.06C45.617,22.058 48.438,23.601 50.113,26.687Z" style="fill:rgb(2,177,213);fill-rule:nonzero;"/>
        </g>
    </g>
    <g id="Workaround-for-pandoc" serif:id="Workaround for pandoc" transform="matrix(0.333214,0,0,0.302214,2000.37,180.33)">
        <rect x="2996.96" y="258.753" width="3.001" height="3.309" style="fill:white;"/>
    </g>
</svg>
