<?xml version="1.0" encoding="UTF-8" standalone="no"?>
<!DOCTYPE svg PUBLIC "-//W3C//DTD SVG 1.1//EN" "http://www.w3.org/Graphics/SVG/1.1/DTD/svg11.dtd">
<svg width="100%" height="100%" viewBox="0 0 8334 1174" version="1.1" xmlns="http://www.w3.org/2000/svg" xmlns:xlink="http://www.w3.org/1999/xlink" xml:space="preserve" xmlns:serif="http://www.serif.com/" style="fill-rule:evenodd;clip-rule:evenodd;stroke-linejoin:round;stroke-miterlimit:2;">
    <g id="Horizontal-Bar" serif:id="Horizontal Bar" transform="matrix(1.29171,0,0,1.17371,-391.526,-1760)">
        <path d="M6559.63,1744.99L363.408,1744.99C347.176,1744.99 334.017,1731.83 334.017,1715.6C334.017,1699.37 347.176,1686.21 363.408,1686.21L6559.63,1686.21C6575.86,1686.21 6589.02,1699.37 6589.02,1715.6C6589.02,1731.83 6575.86,1744.99 6559.63,1744.99Z" style="fill:rgb(51,51,51);fill-rule:nonzero;"/>
    </g>
    <g id="_7" serif:id="7">
        <g transform="matrix(0.28169,0,0,0.28169,10.1623,-304.961)">
            <g transform="matrix(443.75,0,0,443.75,25841.1,4675.95)">
                <path d="M0.226,-0.132L0.226,-0.582L0.338,-0.582C0.377,-0.582 0.409,-0.576 0.436,-0.566C0.462,-0.555 0.483,-0.539 0.499,-0.518C0.515,-0.497 0.527,-0.472 0.534,-0.444C0.541,-0.415 0.544,-0.382 0.544,-0.346C0.544,-0.307 0.539,-0.273 0.529,-0.246C0.519,-0.219 0.506,-0.197 0.489,-0.18C0.472,-0.163 0.453,-0.15 0.432,-0.143C0.411,-0.136 0.389,-0.132 0.366,-0.132L0.226,-0.132ZM0.069,-0.714L0.069,-0L0.377,-0C0.432,-0 0.479,-0.009 0.52,-0.028C0.56,-0.046 0.594,-0.071 0.621,-0.103C0.648,-0.135 0.668,-0.173 0.681,-0.217C0.694,-0.261 0.701,-0.309 0.701,-0.361C0.701,-0.42 0.693,-0.472 0.677,-0.516C0.66,-0.56 0.638,-0.597 0.609,-0.626C0.58,-0.655 0.545,-0.677 0.506,-0.692C0.466,-0.707 0.423,-0.714 0.377,-0.714L0.069,-0.714Z" style="fill:rgb(133,40,60);fill-rule:nonzero;"/>
            </g>
            <g transform="matrix(443.75,0,0,443.75,26170,4675.95)">
                <path d="M0.069,-0.714L0.069,-0L0.611,-0L0.611,-0.132L0.226,-0.132L0.226,-0.307L0.572,-0.307L0.572,-0.429L0.226,-0.429L0.226,-0.582L0.603,-0.582L0.603,-0.714L0.069,-0.714Z" style="fill:rgb(133,40,60);fill-rule:nonzero;"/>
            </g>
            <g transform="matrix(443.75,0,0,443.75,26457.5,4675.95)">
                <path d="M0.545,-0.474L0.697,-0.474C0.692,-0.515 0.681,-0.552 0.663,-0.584C0.645,-0.616 0.622,-0.643 0.595,-0.665C0.567,-0.686 0.536,-0.703 0.501,-0.714C0.466,-0.725 0.428,-0.731 0.389,-0.731C0.334,-0.731 0.285,-0.721 0.242,-0.702C0.198,-0.683 0.161,-0.656 0.131,-0.622C0.101,-0.588 0.078,-0.548 0.062,-0.503C0.046,-0.457 0.038,-0.407 0.038,-0.354C0.038,-0.302 0.046,-0.254 0.062,-0.209C0.078,-0.164 0.101,-0.124 0.131,-0.091C0.161,-0.058 0.198,-0.032 0.242,-0.013C0.285,0.007 0.334,0.016 0.389,0.016C0.433,0.016 0.473,0.009 0.51,-0.004C0.547,-0.017 0.579,-0.037 0.606,-0.062C0.633,-0.087 0.655,-0.118 0.672,-0.154C0.689,-0.19 0.699,-0.23 0.703,-0.275L0.551,-0.275C0.545,-0.227 0.529,-0.188 0.502,-0.159C0.475,-0.13 0.437,-0.115 0.389,-0.115C0.354,-0.115 0.324,-0.122 0.299,-0.136C0.274,-0.149 0.254,-0.167 0.239,-0.19C0.224,-0.213 0.213,-0.238 0.206,-0.267C0.199,-0.295 0.195,-0.324 0.195,-0.354C0.195,-0.385 0.199,-0.416 0.206,-0.445C0.213,-0.474 0.224,-0.501 0.239,-0.524C0.254,-0.547 0.274,-0.565 0.299,-0.579C0.324,-0.592 0.354,-0.599 0.389,-0.599C0.408,-0.599 0.427,-0.596 0.445,-0.59C0.462,-0.583 0.478,-0.574 0.492,-0.563C0.506,-0.552 0.518,-0.539 0.527,-0.524C0.536,-0.509 0.542,-0.492 0.545,-0.474Z" style="fill:rgb(133,40,60);fill-rule:nonzero;"/>
            </g>
            <g transform="matrix(443.75,0,0,443.75,26786.3,4675.95)">
                <path d="M0.195,-0.354C0.195,-0.385 0.199,-0.416 0.206,-0.445C0.213,-0.474 0.224,-0.501 0.239,-0.524C0.254,-0.547 0.274,-0.565 0.299,-0.579C0.324,-0.592 0.354,-0.599 0.389,-0.599C0.424,-0.599 0.454,-0.592 0.479,-0.579C0.504,-0.565 0.524,-0.547 0.539,-0.524C0.554,-0.501 0.566,-0.474 0.573,-0.445C0.58,-0.416 0.583,-0.385 0.583,-0.354C0.583,-0.324 0.58,-0.295 0.573,-0.267C0.566,-0.238 0.554,-0.213 0.539,-0.19C0.524,-0.167 0.504,-0.149 0.479,-0.136C0.454,-0.122 0.424,-0.115 0.389,-0.115C0.354,-0.115 0.324,-0.122 0.299,-0.136C0.274,-0.149 0.254,-0.167 0.239,-0.19C0.224,-0.213 0.213,-0.238 0.206,-0.267C0.199,-0.295 0.195,-0.324 0.195,-0.354ZM0.038,-0.354C0.038,-0.302 0.046,-0.254 0.062,-0.209C0.078,-0.164 0.101,-0.124 0.131,-0.091C0.161,-0.058 0.198,-0.032 0.242,-0.013C0.285,0.007 0.334,0.016 0.389,0.016C0.444,0.016 0.494,0.007 0.537,-0.013C0.58,-0.032 0.617,-0.058 0.647,-0.091C0.677,-0.124 0.7,-0.164 0.716,-0.209C0.732,-0.254 0.74,-0.302 0.74,-0.354C0.74,-0.407 0.732,-0.457 0.716,-0.503C0.7,-0.548 0.677,-0.588 0.647,-0.622C0.617,-0.656 0.58,-0.683 0.537,-0.702C0.494,-0.721 0.444,-0.731 0.389,-0.731C0.334,-0.731 0.285,-0.721 0.242,-0.702C0.198,-0.683 0.161,-0.656 0.131,-0.622C0.101,-0.588 0.078,-0.548 0.062,-0.503C0.046,-0.457 0.038,-0.407 0.038,-0.354Z" style="fill:rgb(133,40,60);fill-rule:nonzero;"/>
            </g>
            <g transform="matrix(443.75,0,0,443.75,27131.6,4675.95)">
                <path d="M0.069,-0.714L0.069,-0L0.216,-0L0.216,-0.501L0.218,-0.501L0.393,-0L0.514,-0L0.689,-0.506L0.691,-0.506L0.691,-0L0.838,-0L0.838,-0.714L0.617,-0.714L0.459,-0.223L0.457,-0.223L0.29,-0.714L0.069,-0.714Z" style="fill:rgb(133,40,60);fill-rule:nonzero;"/>
            </g>
            <g transform="matrix(443.75,0,0,443.75,27534.1,4675.95)">
                <path d="M0.069,-0.714L0.069,-0L0.216,-0L0.216,-0.501L0.218,-0.501L0.393,-0L0.514,-0L0.689,-0.506L0.691,-0.506L0.691,-0L0.838,-0L0.838,-0.714L0.617,-0.714L0.459,-0.223L0.457,-0.223L0.29,-0.714L0.069,-0.714Z" style="fill:rgb(133,40,60);fill-rule:nonzero;"/>
            </g>
            <g transform="matrix(443.75,0,0,443.75,27936.5,4675.95)">
                <rect x="0.069" y="-0.714" width="0.157" height="0.714" style="fill:rgb(133,40,60);fill-rule:nonzero;"/>
            </g>
            <g transform="matrix(443.75,0,0,443.75,28067.4,4675.95)">
                <path d="M0.176,-0.237L0.024,-0.237C0.023,-0.193 0.031,-0.155 0.048,-0.123C0.065,-0.091 0.087,-0.065 0.116,-0.044C0.144,-0.023 0.177,-0.008 0.214,0.002C0.251,0.011 0.289,0.016 0.328,0.016C0.377,0.016 0.42,0.01 0.457,-0.001C0.494,-0.012 0.525,-0.028 0.55,-0.049C0.575,-0.069 0.593,-0.093 0.606,-0.121C0.619,-0.149 0.625,-0.179 0.625,-0.212C0.625,-0.252 0.616,-0.285 0.6,-0.311C0.583,-0.336 0.562,-0.357 0.539,-0.372C0.516,-0.387 0.492,-0.399 0.469,-0.406C0.445,-0.413 0.426,-0.417 0.413,-0.42C0.368,-0.431 0.332,-0.441 0.305,-0.448C0.277,-0.455 0.255,-0.463 0.24,-0.47C0.224,-0.477 0.213,-0.485 0.208,-0.494C0.203,-0.503 0.2,-0.514 0.2,-0.528C0.2,-0.543 0.203,-0.556 0.21,-0.566C0.217,-0.576 0.225,-0.584 0.236,-0.591C0.246,-0.598 0.257,-0.602 0.27,-0.605C0.283,-0.608 0.295,-0.609 0.308,-0.609C0.327,-0.609 0.345,-0.607 0.362,-0.604C0.378,-0.601 0.392,-0.595 0.405,-0.587C0.418,-0.579 0.428,-0.568 0.436,-0.554C0.443,-0.54 0.448,-0.522 0.449,-0.501L0.601,-0.501C0.601,-0.542 0.593,-0.578 0.578,-0.607C0.562,-0.636 0.541,-0.659 0.514,-0.678C0.487,-0.697 0.457,-0.71 0.423,-0.719C0.388,-0.727 0.352,-0.731 0.315,-0.731C0.283,-0.731 0.251,-0.727 0.219,-0.718C0.187,-0.709 0.158,-0.696 0.133,-0.678C0.108,-0.66 0.087,-0.638 0.072,-0.611C0.056,-0.584 0.048,-0.552 0.048,-0.515C0.048,-0.482 0.054,-0.455 0.067,-0.432C0.079,-0.409 0.095,-0.389 0.115,-0.374C0.135,-0.359 0.158,-0.346 0.183,-0.337C0.208,-0.327 0.234,-0.319 0.261,-0.312C0.287,-0.305 0.313,-0.298 0.338,-0.292C0.363,-0.286 0.386,-0.279 0.406,-0.271C0.426,-0.263 0.442,-0.253 0.455,-0.241C0.467,-0.229 0.473,-0.213 0.473,-0.194C0.473,-0.176 0.468,-0.161 0.459,-0.15C0.45,-0.138 0.438,-0.129 0.424,-0.122C0.41,-0.115 0.395,-0.111 0.379,-0.109C0.363,-0.106 0.348,-0.105 0.334,-0.105C0.313,-0.105 0.293,-0.108 0.274,-0.113C0.255,-0.117 0.238,-0.125 0.224,-0.136C0.209,-0.146 0.198,-0.159 0.189,-0.176C0.18,-0.193 0.176,-0.213 0.176,-0.237Z" style="fill:rgb(133,40,60);fill-rule:nonzero;"/>
            </g>
            <g transform="matrix(443.75,0,0,443.75,28355.4,4675.95)">
                <path d="M0.176,-0.237L0.024,-0.237C0.023,-0.193 0.031,-0.155 0.048,-0.123C0.065,-0.091 0.087,-0.065 0.116,-0.044C0.144,-0.023 0.177,-0.008 0.214,0.002C0.251,0.011 0.289,0.016 0.328,0.016C0.377,0.016 0.42,0.01 0.457,-0.001C0.494,-0.012 0.525,-0.028 0.55,-0.049C0.575,-0.069 0.593,-0.093 0.606,-0.121C0.619,-0.149 0.625,-0.179 0.625,-0.212C0.625,-0.252 0.616,-0.285 0.6,-0.311C0.583,-0.336 0.562,-0.357 0.539,-0.372C0.516,-0.387 0.492,-0.399 0.469,-0.406C0.445,-0.413 0.426,-0.417 0.413,-0.42C0.368,-0.431 0.332,-0.441 0.305,-0.448C0.277,-0.455 0.255,-0.463 0.24,-0.47C0.224,-0.477 0.213,-0.485 0.208,-0.494C0.203,-0.503 0.2,-0.514 0.2,-0.528C0.2,-0.543 0.203,-0.556 0.21,-0.566C0.217,-0.576 0.225,-0.584 0.236,-0.591C0.246,-0.598 0.257,-0.602 0.27,-0.605C0.283,-0.608 0.295,-0.609 0.308,-0.609C0.327,-0.609 0.345,-0.607 0.362,-0.604C0.378,-0.601 0.392,-0.595 0.405,-0.587C0.418,-0.579 0.428,-0.568 0.436,-0.554C0.443,-0.54 0.448,-0.522 0.449,-0.501L0.601,-0.501C0.601,-0.542 0.593,-0.578 0.578,-0.607C0.562,-0.636 0.541,-0.659 0.514,-0.678C0.487,-0.697 0.457,-0.71 0.423,-0.719C0.388,-0.727 0.352,-0.731 0.315,-0.731C0.283,-0.731 0.251,-0.727 0.219,-0.718C0.187,-0.709 0.158,-0.696 0.133,-0.678C0.108,-0.66 0.087,-0.638 0.072,-0.611C0.056,-0.584 0.048,-0.552 0.048,-0.515C0.048,-0.482 0.054,-0.455 0.067,-0.432C0.079,-0.409 0.095,-0.389 0.115,-0.374C0.135,-0.359 0.158,-0.346 0.183,-0.337C0.208,-0.327 0.234,-0.319 0.261,-0.312C0.287,-0.305 0.313,-0.298 0.338,-0.292C0.363,-0.286 0.386,-0.279 0.406,-0.271C0.426,-0.263 0.442,-0.253 0.455,-0.241C0.467,-0.229 0.473,-0.213 0.473,-0.194C0.473,-0.176 0.468,-0.161 0.459,-0.15C0.45,-0.138 0.438,-0.129 0.424,-0.122C0.41,-0.115 0.395,-0.111 0.379,-0.109C0.363,-0.106 0.348,-0.105 0.334,-0.105C0.313,-0.105 0.293,-0.108 0.274,-0.113C0.255,-0.117 0.238,-0.125 0.224,-0.136C0.209,-0.146 0.198,-0.159 0.189,-0.176C0.18,-0.193 0.176,-0.213 0.176,-0.237Z" style="fill:rgb(133,40,60);fill-rule:nonzero;"/>
            </g>
            <g transform="matrix(443.75,0,0,443.75,28643.4,4675.95)">
                <rect x="0.069" y="-0.714" width="0.157" height="0.714" style="fill:rgb(133,40,60);fill-rule:nonzero;"/>
            </g>
            <g transform="matrix(443.75,0,0,443.75,28774.3,4675.95)">
                <path d="M0.195,-0.354C0.195,-0.385 0.199,-0.416 0.206,-0.445C0.213,-0.474 0.224,-0.501 0.239,-0.524C0.254,-0.547 0.274,-0.565 0.299,-0.579C0.324,-0.592 0.354,-0.599 0.389,-0.599C0.424,-0.599 0.454,-0.592 0.479,-0.579C0.504,-0.565 0.524,-0.547 0.539,-0.524C0.554,-0.501 0.566,-0.474 0.573,-0.445C0.58,-0.416 0.583,-0.385 0.583,-0.354C0.583,-0.324 0.58,-0.295 0.573,-0.267C0.566,-0.238 0.554,-0.213 0.539,-0.19C0.524,-0.167 0.504,-0.149 0.479,-0.136C0.454,-0.122 0.424,-0.115 0.389,-0.115C0.354,-0.115 0.324,-0.122 0.299,-0.136C0.274,-0.149 0.254,-0.167 0.239,-0.19C0.224,-0.213 0.213,-0.238 0.206,-0.267C0.199,-0.295 0.195,-0.324 0.195,-0.354ZM0.038,-0.354C0.038,-0.302 0.046,-0.254 0.062,-0.209C0.078,-0.164 0.101,-0.124 0.131,-0.091C0.161,-0.058 0.198,-0.032 0.242,-0.013C0.285,0.007 0.334,0.016 0.389,0.016C0.444,0.016 0.494,0.007 0.537,-0.013C0.58,-0.032 0.617,-0.058 0.647,-0.091C0.677,-0.124 0.7,-0.164 0.716,-0.209C0.732,-0.254 0.74,-0.302 0.74,-0.354C0.74,-0.407 0.732,-0.457 0.716,-0.503C0.7,-0.548 0.677,-0.588 0.647,-0.622C0.617,-0.656 0.58,-0.683 0.537,-0.702C0.494,-0.721 0.444,-0.731 0.389,-0.731C0.334,-0.731 0.285,-0.721 0.242,-0.702C0.198,-0.683 0.161,-0.656 0.131,-0.622C0.101,-0.588 0.078,-0.548 0.062,-0.503C0.046,-0.457 0.038,-0.407 0.038,-0.354Z" style="fill:rgb(133,40,60);fill-rule:nonzero;"/>
            </g>
            <g transform="matrix(443.75,0,0,443.75,29119.6,4675.95)">
                <path d="M0.069,-0.714L0.069,-0L0.216,-0L0.216,-0.478L0.218,-0.478L0.515,-0L0.672,-0L0.672,-0.714L0.525,-0.714L0.525,-0.235L0.523,-0.235L0.225,-0.714L0.069,-0.714Z" style="fill:rgb(133,40,60);fill-rule:nonzero;"/>
            </g>
        </g>
        <g transform="matrix(1.17371,0,0,1.17371,2104.27,-1760.56)">
            <rect x="4837.25" y="1893.9" width="27.56" height="348.1" style="fill:rgb(133,40,60);fill-rule:nonzero;"/>
        </g>
        <g transform="matrix(1.17371,0,0,1.17371,2114.27,-1759.4)">
            <path d="M4948.5,1715.17C4948.5,1773.78 4900.99,1821.29 4842.39,1821.29C4783.78,1821.29 4736.27,1773.78 4736.27,1715.17C4736.27,1656.57 4783.78,1609.06 4842.39,1609.06C4872.77,1609.06 4900.17,1621.83 4919.51,1642.29C4926.07,1649.23 4931.7,1657.05 4936.21,1665.56C4944.06,1680.36 4948.5,1697.25 4948.5,1715.17Z" style="fill:rgb(133,40,60);fill-rule:nonzero;"/>
        </g>
        <g transform="matrix(0.28169,0,0,0.28169,61.5702,-2429.16)">
            <g transform="matrix(408.333,0,0,408.333,27237.3,9667.42)">
                <path d="M0.132,-0.349C0.132,-0.366 0.132,-0.386 0.133,-0.407C0.133,-0.428 0.135,-0.448 0.138,-0.47C0.141,-0.491 0.145,-0.511 0.151,-0.531C0.156,-0.551 0.165,-0.569 0.176,-0.584C0.187,-0.599 0.2,-0.611 0.217,-0.62C0.234,-0.629 0.254,-0.634 0.278,-0.634C0.302,-0.634 0.322,-0.629 0.339,-0.62C0.356,-0.611 0.37,-0.599 0.381,-0.584C0.392,-0.569 0.4,-0.551 0.406,-0.531C0.411,-0.511 0.416,-0.491 0.419,-0.47C0.422,-0.448 0.423,-0.428 0.424,-0.407C0.424,-0.386 0.424,-0.366 0.424,-0.349C0.424,-0.322 0.423,-0.293 0.422,-0.26C0.42,-0.227 0.415,-0.196 0.406,-0.167C0.397,-0.137 0.382,-0.113 0.362,-0.093C0.342,-0.073 0.314,-0.063 0.278,-0.063C0.242,-0.063 0.214,-0.073 0.194,-0.093C0.174,-0.113 0.16,-0.137 0.151,-0.167C0.141,-0.196 0.136,-0.227 0.135,-0.26C0.133,-0.293 0.132,-0.322 0.132,-0.349ZM0.042,-0.348C0.042,-0.322 0.043,-0.295 0.044,-0.267C0.045,-0.239 0.049,-0.212 0.054,-0.185C0.059,-0.158 0.067,-0.133 0.077,-0.11C0.087,-0.086 0.101,-0.065 0.118,-0.047C0.135,-0.029 0.157,-0.015 0.184,-0.005C0.21,0.006 0.241,0.011 0.278,0.011C0.315,0.011 0.347,0.006 0.373,-0.005C0.399,-0.015 0.421,-0.029 0.438,-0.047C0.455,-0.065 0.469,-0.086 0.479,-0.11C0.489,-0.133 0.497,-0.158 0.502,-0.185C0.507,-0.212 0.511,-0.239 0.512,-0.267C0.513,-0.295 0.514,-0.322 0.514,-0.348C0.514,-0.374 0.513,-0.401 0.512,-0.429C0.511,-0.457 0.507,-0.484 0.502,-0.511C0.497,-0.538 0.489,-0.563 0.479,-0.587C0.469,-0.611 0.455,-0.632 0.438,-0.65C0.421,-0.668 0.399,-0.682 0.373,-0.693C0.346,-0.704 0.315,-0.709 0.278,-0.709C0.241,-0.709 0.21,-0.704 0.184,-0.693C0.157,-0.682 0.135,-0.668 0.118,-0.65C0.101,-0.632 0.087,-0.611 0.077,-0.587C0.067,-0.563 0.059,-0.538 0.054,-0.511C0.049,-0.484 0.045,-0.457 0.044,-0.429C0.043,-0.401 0.042,-0.374 0.042,-0.348Z" style="fill:white;fill-rule:nonzero;"/>
            </g>
            <g transform="matrix(408.333,0,0,408.333,27464.4,9667.42)">
                <path d="M0.509,-0.624L0.509,-0.697L0.05,-0.697L0.05,-0.617L0.422,-0.617C0.385,-0.578 0.35,-0.535 0.318,-0.488C0.285,-0.441 0.257,-0.392 0.232,-0.34C0.207,-0.287 0.187,-0.233 0.172,-0.176C0.156,-0.119 0.146,-0.06 0.142,-0L0.237,-0C0.24,-0.055 0.25,-0.112 0.265,-0.171C0.28,-0.23 0.3,-0.287 0.325,-0.342C0.349,-0.397 0.377,-0.449 0.408,-0.498C0.439,-0.547 0.473,-0.589 0.509,-0.624Z" style="fill:white;fill-rule:nonzero;"/>
            </g>
        </g>
    </g>
    <g id="_6" serif:id="6">
        <g transform="matrix(0.28169,0,0,0.28169,-1077.63,-304.878)">
            <g transform="matrix(443.75,0,0,443.75,25841.1,4675.95)">
                <path d="M0.226,-0.132L0.226,-0.582L0.338,-0.582C0.377,-0.582 0.409,-0.576 0.436,-0.566C0.462,-0.555 0.483,-0.539 0.499,-0.518C0.515,-0.497 0.527,-0.472 0.534,-0.444C0.541,-0.415 0.544,-0.382 0.544,-0.346C0.544,-0.307 0.539,-0.273 0.529,-0.246C0.519,-0.219 0.506,-0.197 0.489,-0.18C0.472,-0.163 0.453,-0.15 0.432,-0.143C0.411,-0.136 0.389,-0.132 0.366,-0.132L0.226,-0.132ZM0.069,-0.714L0.069,-0L0.377,-0C0.432,-0 0.479,-0.009 0.52,-0.028C0.56,-0.046 0.594,-0.071 0.621,-0.103C0.648,-0.135 0.668,-0.173 0.681,-0.217C0.694,-0.261 0.701,-0.309 0.701,-0.361C0.701,-0.42 0.693,-0.472 0.677,-0.516C0.66,-0.56 0.638,-0.597 0.609,-0.626C0.58,-0.655 0.545,-0.677 0.506,-0.692C0.466,-0.707 0.423,-0.714 0.377,-0.714L0.069,-0.714Z" style="fill:rgb(72,77,128);fill-rule:nonzero;"/>
            </g>
            <g transform="matrix(443.75,0,0,443.75,26170,4675.95)">
                <rect x="0.069" y="-0.714" width="0.157" height="0.714" style="fill:rgb(72,77,128);fill-rule:nonzero;"/>
            </g>
            <g transform="matrix(443.75,0,0,443.75,26300.9,4675.95)">
                <path d="M0.176,-0.237L0.024,-0.237C0.023,-0.193 0.031,-0.155 0.048,-0.123C0.065,-0.091 0.087,-0.065 0.116,-0.044C0.144,-0.023 0.177,-0.008 0.214,0.002C0.251,0.011 0.289,0.016 0.328,0.016C0.377,0.016 0.42,0.01 0.457,-0.001C0.494,-0.012 0.525,-0.028 0.55,-0.049C0.575,-0.069 0.593,-0.093 0.606,-0.121C0.619,-0.149 0.625,-0.179 0.625,-0.212C0.625,-0.252 0.616,-0.285 0.6,-0.311C0.583,-0.336 0.562,-0.357 0.539,-0.372C0.516,-0.387 0.492,-0.399 0.469,-0.406C0.445,-0.413 0.426,-0.417 0.413,-0.42C0.368,-0.431 0.332,-0.441 0.305,-0.448C0.277,-0.455 0.255,-0.463 0.24,-0.47C0.224,-0.477 0.213,-0.485 0.208,-0.494C0.203,-0.503 0.2,-0.514 0.2,-0.528C0.2,-0.543 0.203,-0.556 0.21,-0.566C0.217,-0.576 0.225,-0.584 0.236,-0.591C0.246,-0.598 0.257,-0.602 0.27,-0.605C0.283,-0.608 0.295,-0.609 0.308,-0.609C0.327,-0.609 0.345,-0.607 0.362,-0.604C0.378,-0.601 0.392,-0.595 0.405,-0.587C0.418,-0.579 0.428,-0.568 0.436,-0.554C0.443,-0.54 0.448,-0.522 0.449,-0.501L0.601,-0.501C0.601,-0.542 0.593,-0.578 0.578,-0.607C0.562,-0.636 0.541,-0.659 0.514,-0.678C0.487,-0.697 0.457,-0.71 0.423,-0.719C0.388,-0.727 0.352,-0.731 0.315,-0.731C0.283,-0.731 0.251,-0.727 0.219,-0.718C0.187,-0.709 0.158,-0.696 0.133,-0.678C0.108,-0.66 0.087,-0.638 0.072,-0.611C0.056,-0.584 0.048,-0.552 0.048,-0.515C0.048,-0.482 0.054,-0.455 0.067,-0.432C0.079,-0.409 0.095,-0.389 0.115,-0.374C0.135,-0.359 0.158,-0.346 0.183,-0.337C0.208,-0.327 0.234,-0.319 0.261,-0.312C0.287,-0.305 0.313,-0.298 0.338,-0.292C0.363,-0.286 0.386,-0.279 0.406,-0.271C0.426,-0.263 0.442,-0.253 0.455,-0.241C0.467,-0.229 0.473,-0.213 0.473,-0.194C0.473,-0.176 0.468,-0.161 0.459,-0.15C0.45,-0.138 0.438,-0.129 0.424,-0.122C0.41,-0.115 0.395,-0.111 0.379,-0.109C0.363,-0.106 0.348,-0.105 0.334,-0.105C0.313,-0.105 0.293,-0.108 0.274,-0.113C0.255,-0.117 0.238,-0.125 0.224,-0.136C0.209,-0.146 0.198,-0.159 0.189,-0.176C0.18,-0.193 0.176,-0.213 0.176,-0.237Z" style="fill:rgb(72,77,128);fill-rule:nonzero;"/>
            </g>
            <g transform="matrix(443.75,0,0,443.75,26588.9,4675.95)">
                <path d="M0.545,-0.474L0.697,-0.474C0.692,-0.515 0.681,-0.552 0.663,-0.584C0.645,-0.616 0.622,-0.643 0.595,-0.665C0.567,-0.686 0.536,-0.703 0.501,-0.714C0.466,-0.725 0.428,-0.731 0.389,-0.731C0.334,-0.731 0.285,-0.721 0.242,-0.702C0.198,-0.683 0.161,-0.656 0.131,-0.622C0.101,-0.588 0.078,-0.548 0.062,-0.503C0.046,-0.457 0.038,-0.407 0.038,-0.354C0.038,-0.302 0.046,-0.254 0.062,-0.209C0.078,-0.164 0.101,-0.124 0.131,-0.091C0.161,-0.058 0.198,-0.032 0.242,-0.013C0.285,0.007 0.334,0.016 0.389,0.016C0.433,0.016 0.473,0.009 0.51,-0.004C0.547,-0.017 0.579,-0.037 0.606,-0.062C0.633,-0.087 0.655,-0.118 0.672,-0.154C0.689,-0.19 0.699,-0.23 0.703,-0.275L0.551,-0.275C0.545,-0.227 0.529,-0.188 0.502,-0.159C0.475,-0.13 0.437,-0.115 0.389,-0.115C0.354,-0.115 0.324,-0.122 0.299,-0.136C0.274,-0.149 0.254,-0.167 0.239,-0.19C0.224,-0.213 0.213,-0.238 0.206,-0.267C0.199,-0.295 0.195,-0.324 0.195,-0.354C0.195,-0.385 0.199,-0.416 0.206,-0.445C0.213,-0.474 0.224,-0.501 0.239,-0.524C0.254,-0.547 0.274,-0.565 0.299,-0.579C0.324,-0.592 0.354,-0.599 0.389,-0.599C0.408,-0.599 0.427,-0.596 0.445,-0.59C0.462,-0.583 0.478,-0.574 0.492,-0.563C0.506,-0.552 0.518,-0.539 0.527,-0.524C0.536,-0.509 0.542,-0.492 0.545,-0.474Z" style="fill:rgb(72,77,128);fill-rule:nonzero;"/>
            </g>
            <g transform="matrix(443.75,0,0,443.75,26917.7,4675.95)">
                <path d="M0.195,-0.354C0.195,-0.385 0.199,-0.416 0.206,-0.445C0.213,-0.474 0.224,-0.501 0.239,-0.524C0.254,-0.547 0.274,-0.565 0.299,-0.579C0.324,-0.592 0.354,-0.599 0.389,-0.599C0.424,-0.599 0.454,-0.592 0.479,-0.579C0.504,-0.565 0.524,-0.547 0.539,-0.524C0.554,-0.501 0.566,-0.474 0.573,-0.445C0.58,-0.416 0.583,-0.385 0.583,-0.354C0.583,-0.324 0.58,-0.295 0.573,-0.267C0.566,-0.238 0.554,-0.213 0.539,-0.19C0.524,-0.167 0.504,-0.149 0.479,-0.136C0.454,-0.122 0.424,-0.115 0.389,-0.115C0.354,-0.115 0.324,-0.122 0.299,-0.136C0.274,-0.149 0.254,-0.167 0.239,-0.19C0.224,-0.213 0.213,-0.238 0.206,-0.267C0.199,-0.295 0.195,-0.324 0.195,-0.354ZM0.038,-0.354C0.038,-0.302 0.046,-0.254 0.062,-0.209C0.078,-0.164 0.101,-0.124 0.131,-0.091C0.161,-0.058 0.198,-0.032 0.242,-0.013C0.285,0.007 0.334,0.016 0.389,0.016C0.444,0.016 0.494,0.007 0.537,-0.013C0.58,-0.032 0.617,-0.058 0.647,-0.091C0.677,-0.124 0.7,-0.164 0.716,-0.209C0.732,-0.254 0.74,-0.302 0.74,-0.354C0.74,-0.407 0.732,-0.457 0.716,-0.503C0.7,-0.548 0.677,-0.588 0.647,-0.622C0.617,-0.656 0.58,-0.683 0.537,-0.702C0.494,-0.721 0.444,-0.731 0.389,-0.731C0.334,-0.731 0.285,-0.721 0.242,-0.702C0.198,-0.683 0.161,-0.656 0.131,-0.622C0.101,-0.588 0.078,-0.548 0.062,-0.503C0.046,-0.457 0.038,-0.407 0.038,-0.354Z" style="fill:rgb(72,77,128);fill-rule:nonzero;"/>
            </g>
            <g transform="matrix(443.75,0,0,443.75,27262.9,4675.95)">
                <path d="M0.401,-0L0.638,-0.714L0.476,-0.714L0.315,-0.212L0.313,-0.212L0.154,-0.714L-0.007,-0.714L0.224,-0L0.401,-0Z" style="fill:rgb(72,77,128);fill-rule:nonzero;"/>
            </g>
            <g transform="matrix(443.75,0,0,443.75,27542.5,4675.95)">
                <path d="M0.069,-0.714L0.069,-0L0.611,-0L0.611,-0.132L0.226,-0.132L0.226,-0.307L0.572,-0.307L0.572,-0.429L0.226,-0.429L0.226,-0.582L0.603,-0.582L0.603,-0.714L0.069,-0.714Z" style="fill:rgb(72,77,128);fill-rule:nonzero;"/>
            </g>
            <g transform="matrix(443.75,0,0,443.75,27830,4675.95)">
                <path d="M0.226,-0.391L0.226,-0.592L0.398,-0.592C0.434,-0.592 0.461,-0.584 0.479,-0.569C0.497,-0.553 0.506,-0.528 0.506,-0.493C0.506,-0.457 0.497,-0.431 0.479,-0.415C0.461,-0.399 0.434,-0.391 0.398,-0.391L0.226,-0.391ZM0.069,-0.714L0.069,-0L0.226,-0L0.226,-0.279L0.383,-0.279C0.422,-0.279 0.451,-0.27 0.468,-0.253C0.485,-0.236 0.497,-0.208 0.502,-0.171C0.506,-0.142 0.509,-0.112 0.511,-0.081C0.513,-0.05 0.518,-0.023 0.527,-0L0.684,-0C0.677,-0.01 0.671,-0.022 0.668,-0.037C0.664,-0.051 0.661,-0.066 0.66,-0.082C0.658,-0.098 0.657,-0.114 0.656,-0.129C0.655,-0.144 0.655,-0.158 0.654,-0.169C0.653,-0.187 0.65,-0.205 0.647,-0.223C0.643,-0.241 0.637,-0.258 0.629,-0.273C0.621,-0.288 0.611,-0.301 0.598,-0.312C0.585,-0.323 0.569,-0.331 0.55,-0.336L0.55,-0.338C0.59,-0.354 0.619,-0.377 0.637,-0.408C0.654,-0.439 0.663,-0.475 0.663,-0.517C0.663,-0.544 0.658,-0.57 0.649,-0.594C0.639,-0.617 0.625,-0.638 0.607,-0.656C0.588,-0.674 0.566,-0.688 0.541,-0.699C0.515,-0.709 0.486,-0.714 0.454,-0.714L0.069,-0.714Z" style="fill:rgb(72,77,128);fill-rule:nonzero;"/>
            </g>
            <g transform="matrix(443.75,0,0,443.75,28134,4675.95)">
                <path d="M0.254,-0.278L0.254,-0L0.411,-0L0.411,-0.274L0.676,-0.714L0.501,-0.714L0.335,-0.432L0.168,-0.714L-0.008,-0.714L0.254,-0.278Z" style="fill:rgb(72,77,128);fill-rule:nonzero;"/>
            </g>
        </g>
        <g transform="matrix(1.17371,0,0,1.17371,-332.838,-942.031)">
            <rect x="5867.77" y="1196.66" width="27.56" height="348.1" style="fill:rgb(72,77,128);fill-rule:nonzero;"/>
        </g>
        <g transform="matrix(1.17371,0,0,1.17371,-352.113,-1759.4)">
            <path d="M6005.65,1715.17C6005.65,1773.78 5958.15,1821.29 5899.54,1821.29C5840.94,1821.29 5793.43,1773.78 5793.43,1715.17C5793.43,1656.57 5840.94,1609.06 5899.54,1609.06C5958.15,1609.06 6005.65,1656.57 6005.65,1715.17Z" style="fill:rgb(72,77,128);fill-rule:nonzero;"/>
        </g>
        <g transform="matrix(1,0,0,1,6070.75,-4.21889)">
            <g transform="matrix(116.667,0,0,116.667,435.069,299.436)">
                <path d="M0.132,-0.349C0.132,-0.366 0.132,-0.386 0.133,-0.407C0.133,-0.428 0.135,-0.448 0.138,-0.47C0.141,-0.491 0.145,-0.511 0.151,-0.531C0.156,-0.551 0.165,-0.569 0.176,-0.584C0.187,-0.599 0.2,-0.611 0.217,-0.62C0.234,-0.629 0.254,-0.634 0.278,-0.634C0.302,-0.634 0.322,-0.629 0.339,-0.62C0.356,-0.611 0.37,-0.599 0.381,-0.584C0.392,-0.569 0.4,-0.551 0.406,-0.531C0.411,-0.511 0.416,-0.491 0.419,-0.47C0.422,-0.448 0.423,-0.428 0.424,-0.407C0.424,-0.386 0.424,-0.366 0.424,-0.349C0.424,-0.322 0.423,-0.293 0.422,-0.26C0.42,-0.227 0.415,-0.196 0.406,-0.167C0.397,-0.137 0.382,-0.113 0.362,-0.093C0.342,-0.073 0.314,-0.063 0.278,-0.063C0.242,-0.063 0.214,-0.073 0.194,-0.093C0.174,-0.113 0.16,-0.137 0.151,-0.167C0.141,-0.196 0.136,-0.227 0.135,-0.26C0.133,-0.293 0.132,-0.322 0.132,-0.349ZM0.042,-0.348C0.042,-0.322 0.043,-0.295 0.044,-0.267C0.045,-0.239 0.049,-0.212 0.054,-0.185C0.059,-0.158 0.067,-0.133 0.077,-0.11C0.087,-0.086 0.101,-0.065 0.118,-0.047C0.135,-0.029 0.157,-0.015 0.184,-0.005C0.21,0.006 0.241,0.011 0.278,0.011C0.315,0.011 0.347,0.006 0.373,-0.005C0.399,-0.015 0.421,-0.029 0.438,-0.047C0.455,-0.065 0.469,-0.086 0.479,-0.11C0.489,-0.133 0.497,-0.158 0.502,-0.185C0.507,-0.212 0.511,-0.239 0.512,-0.267C0.513,-0.295 0.514,-0.322 0.514,-0.348C0.514,-0.374 0.513,-0.401 0.512,-0.429C0.511,-0.457 0.507,-0.484 0.502,-0.511C0.497,-0.538 0.489,-0.563 0.479,-0.587C0.469,-0.611 0.455,-0.632 0.438,-0.65C0.421,-0.668 0.399,-0.682 0.373,-0.693C0.346,-0.704 0.315,-0.709 0.278,-0.709C0.241,-0.709 0.21,-0.704 0.184,-0.693C0.157,-0.682 0.135,-0.668 0.118,-0.65C0.101,-0.632 0.087,-0.611 0.077,-0.587C0.067,-0.563 0.059,-0.538 0.054,-0.511C0.049,-0.484 0.045,-0.457 0.044,-0.429C0.043,-0.401 0.042,-0.374 0.042,-0.348Z" style="fill:white;fill-rule:nonzero;"/>
            </g>
            <g transform="matrix(116.667,0,0,116.667,499.936,299.436)">
                <path d="M0.414,-0.528L0.499,-0.528C0.494,-0.587 0.474,-0.631 0.439,-0.663C0.404,-0.693 0.358,-0.709 0.299,-0.709C0.248,-0.709 0.206,-0.698 0.173,-0.677C0.14,-0.656 0.113,-0.627 0.093,-0.592C0.073,-0.557 0.059,-0.516 0.051,-0.471C0.042,-0.425 0.038,-0.378 0.038,-0.329C0.038,-0.292 0.041,-0.253 0.047,-0.213C0.052,-0.173 0.064,-0.136 0.081,-0.103C0.098,-0.07 0.123,-0.042 0.155,-0.021C0.187,0 0.229,0.011 0.282,0.011C0.327,0.011 0.364,0.003 0.395,-0.012C0.425,-0.027 0.449,-0.046 0.468,-0.069C0.486,-0.092 0.499,-0.117 0.507,-0.145C0.515,-0.173 0.519,-0.2 0.519,-0.226C0.519,-0.259 0.514,-0.289 0.504,-0.317C0.494,-0.345 0.48,-0.369 0.462,-0.39C0.443,-0.411 0.421,-0.427 0.394,-0.439C0.367,-0.45 0.336,-0.456 0.302,-0.456C0.263,-0.456 0.229,-0.449 0.2,-0.434C0.17,-0.419 0.145,-0.396 0.125,-0.363L0.123,-0.365C0.124,-0.392 0.126,-0.422 0.131,-0.453C0.136,-0.484 0.144,-0.514 0.157,-0.541C0.169,-0.568 0.186,-0.59 0.208,-0.608C0.23,-0.625 0.259,-0.634 0.295,-0.634C0.329,-0.634 0.356,-0.624 0.377,-0.605C0.398,-0.586 0.41,-0.56 0.414,-0.528ZM0.286,-0.381C0.31,-0.381 0.331,-0.377 0.349,-0.368C0.367,-0.359 0.382,-0.348 0.394,-0.334C0.406,-0.319 0.415,-0.302 0.421,-0.283C0.426,-0.263 0.429,-0.242 0.429,-0.22C0.429,-0.199 0.426,-0.18 0.42,-0.161C0.413,-0.141 0.404,-0.125 0.392,-0.11C0.38,-0.095 0.365,-0.084 0.348,-0.076C0.33,-0.067 0.309,-0.063 0.286,-0.063C0.263,-0.063 0.242,-0.067 0.224,-0.076C0.205,-0.084 0.19,-0.095 0.178,-0.109C0.165,-0.123 0.156,-0.14 0.149,-0.159C0.142,-0.178 0.139,-0.199 0.139,-0.221C0.139,-0.243 0.142,-0.264 0.149,-0.284C0.155,-0.303 0.164,-0.32 0.177,-0.335C0.19,-0.349 0.205,-0.36 0.223,-0.369C0.241,-0.377 0.262,-0.381 0.286,-0.381Z" style="fill:white;fill-rule:nonzero;"/>
            </g>
        </g>
    </g>
    <g id="_5" serif:id="5">
        <g transform="matrix(0.28169,0,0,0.28169,-1328.47,-1356.2)">
            <g transform="matrix(443.75,0,0,443.75,22189.3,8407.75)">
                <path d="M0.195,-0.354C0.195,-0.385 0.199,-0.416 0.206,-0.445C0.213,-0.474 0.224,-0.501 0.239,-0.524C0.254,-0.547 0.274,-0.565 0.299,-0.579C0.324,-0.592 0.354,-0.599 0.389,-0.599C0.424,-0.599 0.454,-0.592 0.479,-0.579C0.504,-0.565 0.524,-0.547 0.539,-0.524C0.554,-0.501 0.566,-0.474 0.573,-0.445C0.58,-0.416 0.583,-0.385 0.583,-0.354C0.583,-0.324 0.58,-0.295 0.573,-0.267C0.566,-0.238 0.554,-0.213 0.539,-0.19C0.524,-0.167 0.504,-0.149 0.479,-0.136C0.454,-0.122 0.424,-0.115 0.389,-0.115C0.354,-0.115 0.324,-0.122 0.299,-0.136C0.274,-0.149 0.254,-0.167 0.239,-0.19C0.224,-0.213 0.213,-0.238 0.206,-0.267C0.199,-0.295 0.195,-0.324 0.195,-0.354ZM0.038,-0.354C0.038,-0.302 0.046,-0.254 0.062,-0.209C0.078,-0.164 0.101,-0.124 0.131,-0.091C0.161,-0.058 0.198,-0.032 0.242,-0.013C0.285,0.007 0.334,0.016 0.389,0.016C0.444,0.016 0.494,0.007 0.537,-0.013C0.58,-0.032 0.617,-0.058 0.647,-0.091C0.677,-0.124 0.7,-0.164 0.716,-0.209C0.732,-0.254 0.74,-0.302 0.74,-0.354C0.74,-0.407 0.732,-0.457 0.716,-0.503C0.7,-0.548 0.677,-0.588 0.647,-0.622C0.617,-0.656 0.58,-0.683 0.537,-0.702C0.494,-0.721 0.444,-0.731 0.389,-0.731C0.334,-0.731 0.285,-0.721 0.242,-0.702C0.198,-0.683 0.161,-0.656 0.131,-0.622C0.101,-0.588 0.078,-0.548 0.062,-0.503C0.046,-0.457 0.038,-0.407 0.038,-0.354Z" style="fill:rgb(10,104,148);fill-rule:nonzero;"/>
            </g>
            <g transform="matrix(443.75,0,0,443.75,22534.5,8407.75)">
                <path d="M0.226,-0.378L0.226,-0.592L0.348,-0.592C0.366,-0.592 0.383,-0.591 0.4,-0.588C0.417,-0.585 0.431,-0.58 0.444,-0.573C0.457,-0.565 0.467,-0.554 0.475,-0.54C0.482,-0.526 0.486,-0.508 0.486,-0.485C0.486,-0.462 0.482,-0.444 0.475,-0.43C0.467,-0.416 0.457,-0.405 0.444,-0.398C0.431,-0.39 0.417,-0.385 0.4,-0.382C0.383,-0.379 0.366,-0.378 0.348,-0.378L0.226,-0.378ZM0.069,-0.714L0.069,-0L0.226,-0L0.226,-0.256L0.391,-0.256C0.436,-0.256 0.474,-0.263 0.505,-0.276C0.536,-0.289 0.562,-0.306 0.582,-0.327C0.601,-0.348 0.616,-0.373 0.625,-0.401C0.634,-0.428 0.638,-0.456 0.638,-0.485C0.638,-0.514 0.634,-0.543 0.625,-0.57C0.616,-0.597 0.601,-0.622 0.582,-0.643C0.562,-0.664 0.536,-0.682 0.505,-0.695C0.474,-0.708 0.436,-0.714 0.391,-0.714L0.069,-0.714Z" style="fill:rgb(10,104,148);fill-rule:nonzero;"/>
            </g>
            <g transform="matrix(443.75,0,0,443.75,22830.5,8407.75)">
                <path d="M0.069,-0.714L0.069,-0L0.611,-0L0.611,-0.132L0.226,-0.132L0.226,-0.307L0.572,-0.307L0.572,-0.429L0.226,-0.429L0.226,-0.582L0.603,-0.582L0.603,-0.714L0.069,-0.714Z" style="fill:rgb(10,104,148);fill-rule:nonzero;"/>
            </g>
            <g transform="matrix(443.75,0,0,443.75,23118,8407.75)">
                <path d="M0.226,-0.391L0.226,-0.592L0.398,-0.592C0.434,-0.592 0.461,-0.584 0.479,-0.569C0.497,-0.553 0.506,-0.528 0.506,-0.493C0.506,-0.457 0.497,-0.431 0.479,-0.415C0.461,-0.399 0.434,-0.391 0.398,-0.391L0.226,-0.391ZM0.069,-0.714L0.069,-0L0.226,-0L0.226,-0.279L0.383,-0.279C0.422,-0.279 0.451,-0.27 0.468,-0.253C0.485,-0.236 0.497,-0.208 0.502,-0.171C0.506,-0.142 0.509,-0.112 0.511,-0.081C0.513,-0.05 0.518,-0.023 0.527,-0L0.684,-0C0.677,-0.01 0.671,-0.022 0.668,-0.037C0.664,-0.051 0.661,-0.066 0.66,-0.082C0.658,-0.098 0.657,-0.114 0.656,-0.129C0.655,-0.144 0.655,-0.158 0.654,-0.169C0.653,-0.187 0.65,-0.205 0.647,-0.223C0.643,-0.241 0.637,-0.258 0.629,-0.273C0.621,-0.288 0.611,-0.301 0.598,-0.312C0.585,-0.323 0.569,-0.331 0.55,-0.336L0.55,-0.338C0.59,-0.354 0.619,-0.377 0.637,-0.408C0.654,-0.439 0.663,-0.475 0.663,-0.517C0.663,-0.544 0.658,-0.57 0.649,-0.594C0.639,-0.617 0.625,-0.638 0.607,-0.656C0.588,-0.674 0.566,-0.688 0.541,-0.699C0.515,-0.709 0.486,-0.714 0.454,-0.714L0.069,-0.714Z" style="fill:rgb(10,104,148);fill-rule:nonzero;"/>
            </g>
            <g transform="matrix(443.75,0,0,443.75,23438.4,8407.75)">
                <path d="M0.249,-0.276L0.342,-0.538L0.344,-0.538L0.434,-0.276L0.249,-0.276ZM0.264,-0.714L-0.006,-0L0.152,-0L0.208,-0.159L0.475,-0.159L0.529,-0L0.692,-0L0.425,-0.714L0.264,-0.714Z" style="fill:rgb(10,104,148);fill-rule:nonzero;"/>
            </g>
            <g transform="matrix(443.75,0,0,443.75,23701.6,8407.75)">
                <path d="M0.227,-0.582L0.227,-0L0.384,-0L0.384,-0.582L0.598,-0.582L0.598,-0.714L0.013,-0.714L0.013,-0.582L0.227,-0.582Z" style="fill:rgb(10,104,148);fill-rule:nonzero;"/>
            </g>
            <g transform="matrix(443.75,0,0,443.75,23972.7,8407.75)">
                <rect x="0.069" y="-0.714" width="0.157" height="0.714" style="fill:rgb(10,104,148);fill-rule:nonzero;"/>
            </g>
            <g transform="matrix(443.75,0,0,443.75,24103.6,8407.75)">
                <path d="M0.195,-0.354C0.195,-0.385 0.199,-0.416 0.206,-0.445C0.213,-0.474 0.224,-0.501 0.239,-0.524C0.254,-0.547 0.274,-0.565 0.299,-0.579C0.324,-0.592 0.354,-0.599 0.389,-0.599C0.424,-0.599 0.454,-0.592 0.479,-0.579C0.504,-0.565 0.524,-0.547 0.539,-0.524C0.554,-0.501 0.566,-0.474 0.573,-0.445C0.58,-0.416 0.583,-0.385 0.583,-0.354C0.583,-0.324 0.58,-0.295 0.573,-0.267C0.566,-0.238 0.554,-0.213 0.539,-0.19C0.524,-0.167 0.504,-0.149 0.479,-0.136C0.454,-0.122 0.424,-0.115 0.389,-0.115C0.354,-0.115 0.324,-0.122 0.299,-0.136C0.274,-0.149 0.254,-0.167 0.239,-0.19C0.224,-0.213 0.213,-0.238 0.206,-0.267C0.199,-0.295 0.195,-0.324 0.195,-0.354ZM0.038,-0.354C0.038,-0.302 0.046,-0.254 0.062,-0.209C0.078,-0.164 0.101,-0.124 0.131,-0.091C0.161,-0.058 0.198,-0.032 0.242,-0.013C0.285,0.007 0.334,0.016 0.389,0.016C0.444,0.016 0.494,0.007 0.537,-0.013C0.58,-0.032 0.617,-0.058 0.647,-0.091C0.677,-0.124 0.7,-0.164 0.716,-0.209C0.732,-0.254 0.74,-0.302 0.74,-0.354C0.74,-0.407 0.732,-0.457 0.716,-0.503C0.7,-0.548 0.677,-0.588 0.647,-0.622C0.617,-0.656 0.58,-0.683 0.537,-0.702C0.494,-0.721 0.444,-0.731 0.389,-0.731C0.334,-0.731 0.285,-0.721 0.242,-0.702C0.198,-0.683 0.161,-0.656 0.131,-0.622C0.101,-0.588 0.078,-0.548 0.062,-0.503C0.046,-0.457 0.038,-0.407 0.038,-0.354Z" style="fill:rgb(10,104,148);fill-rule:nonzero;"/>
            </g>
            <g transform="matrix(443.75,0,0,443.75,24448.8,8407.75)">
                <path d="M0.069,-0.714L0.069,-0L0.216,-0L0.216,-0.478L0.218,-0.478L0.515,-0L0.672,-0L0.672,-0.714L0.525,-0.714L0.525,-0.235L0.523,-0.235L0.225,-0.714L0.069,-0.714Z" style="fill:rgb(10,104,148);fill-rule:nonzero;"/>
            </g>
            <g transform="matrix(443.75,0,0,443.75,24777.7,8407.75)">
                <path d="M0.176,-0.237L0.024,-0.237C0.023,-0.193 0.031,-0.155 0.048,-0.123C0.065,-0.091 0.087,-0.065 0.116,-0.044C0.144,-0.023 0.177,-0.008 0.214,0.002C0.251,0.011 0.289,0.016 0.328,0.016C0.377,0.016 0.42,0.01 0.457,-0.001C0.494,-0.012 0.525,-0.028 0.55,-0.049C0.575,-0.069 0.593,-0.093 0.606,-0.121C0.619,-0.149 0.625,-0.179 0.625,-0.212C0.625,-0.252 0.616,-0.285 0.6,-0.311C0.583,-0.336 0.562,-0.357 0.539,-0.372C0.516,-0.387 0.492,-0.399 0.469,-0.406C0.445,-0.413 0.426,-0.417 0.413,-0.42C0.368,-0.431 0.332,-0.441 0.305,-0.448C0.277,-0.455 0.255,-0.463 0.24,-0.47C0.224,-0.477 0.213,-0.485 0.208,-0.494C0.203,-0.503 0.2,-0.514 0.2,-0.528C0.2,-0.543 0.203,-0.556 0.21,-0.566C0.217,-0.576 0.225,-0.584 0.236,-0.591C0.246,-0.598 0.257,-0.602 0.27,-0.605C0.283,-0.608 0.295,-0.609 0.308,-0.609C0.327,-0.609 0.345,-0.607 0.362,-0.604C0.378,-0.601 0.392,-0.595 0.405,-0.587C0.418,-0.579 0.428,-0.568 0.436,-0.554C0.443,-0.54 0.448,-0.522 0.449,-0.501L0.601,-0.501C0.601,-0.542 0.593,-0.578 0.578,-0.607C0.562,-0.636 0.541,-0.659 0.514,-0.678C0.487,-0.697 0.457,-0.71 0.423,-0.719C0.388,-0.727 0.352,-0.731 0.315,-0.731C0.283,-0.731 0.251,-0.727 0.219,-0.718C0.187,-0.709 0.158,-0.696 0.133,-0.678C0.108,-0.66 0.087,-0.638 0.072,-0.611C0.056,-0.584 0.048,-0.552 0.048,-0.515C0.048,-0.482 0.054,-0.455 0.067,-0.432C0.079,-0.409 0.095,-0.389 0.115,-0.374C0.135,-0.359 0.158,-0.346 0.183,-0.337C0.208,-0.327 0.234,-0.319 0.261,-0.312C0.287,-0.305 0.313,-0.298 0.338,-0.292C0.363,-0.286 0.386,-0.279 0.406,-0.271C0.426,-0.263 0.442,-0.253 0.455,-0.241C0.467,-0.229 0.473,-0.213 0.473,-0.194C0.473,-0.176 0.468,-0.161 0.459,-0.15C0.45,-0.138 0.438,-0.129 0.424,-0.122C0.41,-0.115 0.395,-0.111 0.379,-0.109C0.363,-0.106 0.348,-0.105 0.334,-0.105C0.313,-0.105 0.293,-0.108 0.274,-0.113C0.255,-0.117 0.238,-0.125 0.224,-0.136C0.209,-0.146 0.198,-0.159 0.189,-0.176C0.18,-0.193 0.176,-0.213 0.176,-0.237Z" style="fill:rgb(10,104,148);fill-rule:nonzero;"/>
            </g>
        </g>
        <g transform="matrix(1.17371,0,0,1.17371,-365.479,-1760.56)">
            <rect x="4837.25" y="1893.9" width="27.56" height="348.1" style="fill:rgb(10,104,148);fill-rule:nonzero;"/>
        </g>
        <g transform="matrix(1.17371,0,0,1.17371,-352.113,-1759.4)">
            <path d="M4948.5,1715.17C4948.5,1773.78 4900.99,1821.29 4842.39,1821.29C4783.78,1821.29 4736.27,1773.78 4736.27,1715.17C4736.27,1656.57 4783.78,1609.06 4842.39,1609.06C4900.99,1609.06 4948.5,1656.57 4948.5,1715.17Z" style="fill:rgb(10,104,148);fill-rule:nonzero;"/>
        </g>
        <g transform="matrix(1,0,0,1,4828.18,-4.21889)">
            <g transform="matrix(116.667,0,0,116.667,435.069,299.436)">
                <path d="M0.132,-0.349C0.132,-0.366 0.132,-0.386 0.133,-0.407C0.133,-0.428 0.135,-0.448 0.138,-0.47C0.141,-0.491 0.145,-0.511 0.151,-0.531C0.156,-0.551 0.165,-0.569 0.176,-0.584C0.187,-0.599 0.2,-0.611 0.217,-0.62C0.234,-0.629 0.254,-0.634 0.278,-0.634C0.302,-0.634 0.322,-0.629 0.339,-0.62C0.356,-0.611 0.37,-0.599 0.381,-0.584C0.392,-0.569 0.4,-0.551 0.406,-0.531C0.411,-0.511 0.416,-0.491 0.419,-0.47C0.422,-0.448 0.423,-0.428 0.424,-0.407C0.424,-0.386 0.424,-0.366 0.424,-0.349C0.424,-0.322 0.423,-0.293 0.422,-0.26C0.42,-0.227 0.415,-0.196 0.406,-0.167C0.397,-0.137 0.382,-0.113 0.362,-0.093C0.342,-0.073 0.314,-0.063 0.278,-0.063C0.242,-0.063 0.214,-0.073 0.194,-0.093C0.174,-0.113 0.16,-0.137 0.151,-0.167C0.141,-0.196 0.136,-0.227 0.135,-0.26C0.133,-0.293 0.132,-0.322 0.132,-0.349ZM0.042,-0.348C0.042,-0.322 0.043,-0.295 0.044,-0.267C0.045,-0.239 0.049,-0.212 0.054,-0.185C0.059,-0.158 0.067,-0.133 0.077,-0.11C0.087,-0.086 0.101,-0.065 0.118,-0.047C0.135,-0.029 0.157,-0.015 0.184,-0.005C0.21,0.006 0.241,0.011 0.278,0.011C0.315,0.011 0.347,0.006 0.373,-0.005C0.399,-0.015 0.421,-0.029 0.438,-0.047C0.455,-0.065 0.469,-0.086 0.479,-0.11C0.489,-0.133 0.497,-0.158 0.502,-0.185C0.507,-0.212 0.511,-0.239 0.512,-0.267C0.513,-0.295 0.514,-0.322 0.514,-0.348C0.514,-0.374 0.513,-0.401 0.512,-0.429C0.511,-0.457 0.507,-0.484 0.502,-0.511C0.497,-0.538 0.489,-0.563 0.479,-0.587C0.469,-0.611 0.455,-0.632 0.438,-0.65C0.421,-0.668 0.399,-0.682 0.373,-0.693C0.346,-0.704 0.315,-0.709 0.278,-0.709C0.241,-0.709 0.21,-0.704 0.184,-0.693C0.157,-0.682 0.135,-0.668 0.118,-0.65C0.101,-0.632 0.087,-0.611 0.077,-0.587C0.067,-0.563 0.059,-0.538 0.054,-0.511C0.049,-0.484 0.045,-0.457 0.044,-0.429C0.043,-0.401 0.042,-0.374 0.042,-0.348Z" style="fill:white;fill-rule:nonzero;"/>
            </g>
            <g transform="matrix(116.667,0,0,116.667,499.936,299.436)">
                <path d="M0.47,-0.622L0.47,-0.697L0.12,-0.697L0.054,-0.329L0.127,-0.325C0.144,-0.345 0.163,-0.361 0.185,-0.374C0.206,-0.386 0.231,-0.392 0.259,-0.392C0.283,-0.392 0.305,-0.388 0.325,-0.38C0.344,-0.372 0.361,-0.361 0.375,-0.347C0.389,-0.332 0.4,-0.315 0.408,-0.296C0.415,-0.276 0.419,-0.254 0.419,-0.231C0.419,-0.203 0.415,-0.179 0.407,-0.158C0.399,-0.136 0.388,-0.119 0.375,-0.105C0.361,-0.091 0.345,-0.081 0.327,-0.074C0.308,-0.067 0.289,-0.063 0.269,-0.063C0.248,-0.063 0.228,-0.066 0.211,-0.073C0.193,-0.079 0.178,-0.088 0.165,-0.1C0.152,-0.111 0.141,-0.125 0.134,-0.141C0.126,-0.156 0.121,-0.173 0.12,-0.191L0.035,-0.191C0.036,-0.159 0.042,-0.13 0.054,-0.105C0.066,-0.08 0.082,-0.059 0.103,-0.042C0.124,-0.025 0.148,-0.012 0.175,-0.003C0.202,0.007 0.23,0.011 0.261,0.011C0.302,0.011 0.339,0.005 0.37,-0.009C0.401,-0.022 0.426,-0.039 0.447,-0.061C0.468,-0.083 0.483,-0.108 0.494,-0.137C0.504,-0.165 0.509,-0.194 0.509,-0.224C0.509,-0.265 0.503,-0.3 0.491,-0.331C0.479,-0.361 0.463,-0.386 0.442,-0.407C0.421,-0.427 0.397,-0.442 0.369,-0.452C0.341,-0.462 0.311,-0.467 0.28,-0.467C0.256,-0.467 0.232,-0.463 0.208,-0.455C0.183,-0.446 0.163,-0.433 0.148,-0.416L0.146,-0.418L0.184,-0.622L0.47,-0.622Z" style="fill:white;fill-rule:nonzero;"/>
            </g>
        </g>
    </g>
    <g id="_4" serif:id="4">
        <g transform="matrix(0.28169,0,0,0.28169,-1151.26,-259.671)">
            <g transform="matrix(443.75,0,0,443.75,17253.4,4515.17)">
                <path d="M0.226,-0.378L0.226,-0.592L0.348,-0.592C0.366,-0.592 0.383,-0.591 0.4,-0.588C0.417,-0.585 0.431,-0.58 0.444,-0.573C0.457,-0.565 0.467,-0.554 0.475,-0.54C0.482,-0.526 0.486,-0.508 0.486,-0.485C0.486,-0.462 0.482,-0.444 0.475,-0.43C0.467,-0.416 0.457,-0.405 0.444,-0.398C0.431,-0.39 0.417,-0.385 0.4,-0.382C0.383,-0.379 0.366,-0.378 0.348,-0.378L0.226,-0.378ZM0.069,-0.714L0.069,-0L0.226,-0L0.226,-0.256L0.391,-0.256C0.436,-0.256 0.474,-0.263 0.505,-0.276C0.536,-0.289 0.562,-0.306 0.582,-0.327C0.601,-0.348 0.616,-0.373 0.625,-0.401C0.634,-0.428 0.638,-0.456 0.638,-0.485C0.638,-0.514 0.634,-0.543 0.625,-0.57C0.616,-0.597 0.601,-0.622 0.582,-0.643C0.562,-0.664 0.536,-0.682 0.505,-0.695C0.474,-0.708 0.436,-0.714 0.391,-0.714L0.069,-0.714Z" style="fill:rgb(32,142,170);fill-rule:nonzero;"/>
            </g>
            <g transform="matrix(443.75,0,0,443.75,17549.4,4515.17)">
                <path d="M0.195,-0.354C0.195,-0.385 0.199,-0.416 0.206,-0.445C0.213,-0.474 0.224,-0.501 0.239,-0.524C0.254,-0.547 0.274,-0.565 0.299,-0.579C0.324,-0.592 0.354,-0.599 0.389,-0.599C0.424,-0.599 0.454,-0.592 0.479,-0.579C0.504,-0.565 0.524,-0.547 0.539,-0.524C0.554,-0.501 0.566,-0.474 0.573,-0.445C0.58,-0.416 0.583,-0.385 0.583,-0.354C0.583,-0.324 0.58,-0.295 0.573,-0.267C0.566,-0.238 0.554,-0.213 0.539,-0.19C0.524,-0.167 0.504,-0.149 0.479,-0.136C0.454,-0.122 0.424,-0.115 0.389,-0.115C0.354,-0.115 0.324,-0.122 0.299,-0.136C0.274,-0.149 0.254,-0.167 0.239,-0.19C0.224,-0.213 0.213,-0.238 0.206,-0.267C0.199,-0.295 0.195,-0.324 0.195,-0.354ZM0.038,-0.354C0.038,-0.302 0.046,-0.254 0.062,-0.209C0.078,-0.164 0.101,-0.124 0.131,-0.091C0.161,-0.058 0.198,-0.032 0.242,-0.013C0.285,0.007 0.334,0.016 0.389,0.016C0.444,0.016 0.494,0.007 0.537,-0.013C0.58,-0.032 0.617,-0.058 0.647,-0.091C0.677,-0.124 0.7,-0.164 0.716,-0.209C0.732,-0.254 0.74,-0.302 0.74,-0.354C0.74,-0.407 0.732,-0.457 0.716,-0.503C0.7,-0.548 0.677,-0.588 0.647,-0.622C0.617,-0.656 0.58,-0.683 0.537,-0.702C0.494,-0.721 0.444,-0.731 0.389,-0.731C0.334,-0.731 0.285,-0.721 0.242,-0.702C0.198,-0.683 0.161,-0.656 0.131,-0.622C0.101,-0.588 0.078,-0.548 0.062,-0.503C0.046,-0.457 0.038,-0.407 0.038,-0.354Z" style="fill:rgb(32,142,170);fill-rule:nonzero;"/>
            </g>
            <g transform="matrix(443.75,0,0,443.75,17894.6,4515.17)">
                <path d="M0.176,-0.237L0.024,-0.237C0.023,-0.193 0.031,-0.155 0.048,-0.123C0.065,-0.091 0.087,-0.065 0.116,-0.044C0.144,-0.023 0.177,-0.008 0.214,0.002C0.251,0.011 0.289,0.016 0.328,0.016C0.377,0.016 0.42,0.01 0.457,-0.001C0.494,-0.012 0.525,-0.028 0.55,-0.049C0.575,-0.069 0.593,-0.093 0.606,-0.121C0.619,-0.149 0.625,-0.179 0.625,-0.212C0.625,-0.252 0.616,-0.285 0.6,-0.311C0.583,-0.336 0.562,-0.357 0.539,-0.372C0.516,-0.387 0.492,-0.399 0.469,-0.406C0.445,-0.413 0.426,-0.417 0.413,-0.42C0.368,-0.431 0.332,-0.441 0.305,-0.448C0.277,-0.455 0.255,-0.463 0.24,-0.47C0.224,-0.477 0.213,-0.485 0.208,-0.494C0.203,-0.503 0.2,-0.514 0.2,-0.528C0.2,-0.543 0.203,-0.556 0.21,-0.566C0.217,-0.576 0.225,-0.584 0.236,-0.591C0.246,-0.598 0.257,-0.602 0.27,-0.605C0.283,-0.608 0.295,-0.609 0.308,-0.609C0.327,-0.609 0.345,-0.607 0.362,-0.604C0.378,-0.601 0.392,-0.595 0.405,-0.587C0.418,-0.579 0.428,-0.568 0.436,-0.554C0.443,-0.54 0.448,-0.522 0.449,-0.501L0.601,-0.501C0.601,-0.542 0.593,-0.578 0.578,-0.607C0.562,-0.636 0.541,-0.659 0.514,-0.678C0.487,-0.697 0.457,-0.71 0.423,-0.719C0.388,-0.727 0.352,-0.731 0.315,-0.731C0.283,-0.731 0.251,-0.727 0.219,-0.718C0.187,-0.709 0.158,-0.696 0.133,-0.678C0.108,-0.66 0.087,-0.638 0.072,-0.611C0.056,-0.584 0.048,-0.552 0.048,-0.515C0.048,-0.482 0.054,-0.455 0.067,-0.432C0.079,-0.409 0.095,-0.389 0.115,-0.374C0.135,-0.359 0.158,-0.346 0.183,-0.337C0.208,-0.327 0.234,-0.319 0.261,-0.312C0.287,-0.305 0.313,-0.298 0.338,-0.292C0.363,-0.286 0.386,-0.279 0.406,-0.271C0.426,-0.263 0.442,-0.253 0.455,-0.241C0.467,-0.229 0.473,-0.213 0.473,-0.194C0.473,-0.176 0.468,-0.161 0.459,-0.15C0.45,-0.138 0.438,-0.129 0.424,-0.122C0.41,-0.115 0.395,-0.111 0.379,-0.109C0.363,-0.106 0.348,-0.105 0.334,-0.105C0.313,-0.105 0.293,-0.108 0.274,-0.113C0.255,-0.117 0.238,-0.125 0.224,-0.136C0.209,-0.146 0.198,-0.159 0.189,-0.176C0.18,-0.193 0.176,-0.213 0.176,-0.237Z" style="fill:rgb(32,142,170);fill-rule:nonzero;"/>
            </g>
            <g transform="matrix(443.75,0,0,443.75,18182.6,4515.17)">
                <path d="M0.227,-0.582L0.227,-0L0.384,-0L0.384,-0.582L0.598,-0.582L0.598,-0.714L0.013,-0.714L0.013,-0.582L0.227,-0.582Z" style="fill:rgb(32,142,170);fill-rule:nonzero;"/>
            </g>
            <g transform="matrix(443.75,0,0,443.75,18396.5,4515.17)">
                <rect x="0.053" y="-0.334" width="0.301" height="0.122" style="fill:rgb(32,142,170);fill-rule:nonzero;"/>
            </g>
            <g transform="matrix(443.75,0,0,443.75,18577.1,4515.17)">
                <path d="M0.226,-0.425L0.226,-0.592L0.373,-0.592C0.387,-0.592 0.401,-0.591 0.414,-0.589C0.427,-0.586 0.438,-0.582 0.448,-0.576C0.458,-0.57 0.466,-0.562 0.472,-0.551C0.478,-0.54 0.481,-0.527 0.481,-0.51C0.481,-0.48 0.472,-0.458 0.454,-0.445C0.436,-0.432 0.413,-0.425 0.385,-0.425L0.226,-0.425ZM0.069,-0.714L0.069,-0L0.415,-0C0.447,-0 0.478,-0.004 0.509,-0.012C0.539,-0.02 0.566,-0.032 0.59,-0.049C0.613,-0.066 0.632,-0.087 0.646,-0.114C0.66,-0.14 0.667,-0.171 0.667,-0.207C0.667,-0.252 0.656,-0.29 0.635,-0.322C0.613,-0.353 0.58,-0.375 0.536,-0.388C0.568,-0.403 0.592,-0.423 0.609,-0.447C0.625,-0.471 0.633,-0.501 0.633,-0.537C0.633,-0.57 0.628,-0.598 0.617,-0.621C0.606,-0.644 0.59,-0.662 0.57,-0.676C0.55,-0.689 0.526,-0.699 0.498,-0.705C0.47,-0.711 0.439,-0.714 0.405,-0.714L0.069,-0.714ZM0.226,-0.122L0.226,-0.318L0.397,-0.318C0.431,-0.318 0.458,-0.31 0.479,-0.295C0.5,-0.279 0.51,-0.253 0.51,-0.216C0.51,-0.197 0.507,-0.182 0.501,-0.17C0.494,-0.158 0.486,-0.149 0.475,-0.142C0.464,-0.135 0.452,-0.13 0.438,-0.127C0.424,-0.124 0.409,-0.122 0.394,-0.122L0.226,-0.122Z" style="fill:rgb(32,142,170);fill-rule:nonzero;"/>
            </g>
            <g transform="matrix(443.75,0,0,443.75,18889.5,4515.17)">
                <path d="M0.675,-0.27L0.675,-0.714L0.518,-0.714L0.518,-0.27C0.518,-0.217 0.507,-0.178 0.486,-0.153C0.465,-0.128 0.426,-0.115 0.37,-0.115C0.338,-0.115 0.313,-0.12 0.294,-0.129C0.275,-0.138 0.26,-0.149 0.249,-0.164C0.238,-0.178 0.231,-0.194 0.228,-0.213C0.225,-0.232 0.223,-0.251 0.223,-0.27L0.223,-0.714L0.066,-0.714L0.066,-0.27C0.066,-0.173 0.092,-0.101 0.146,-0.054C0.199,-0.007 0.273,0.016 0.37,0.016C0.465,0.016 0.54,-0.008 0.594,-0.055C0.648,-0.101 0.675,-0.173 0.675,-0.27Z" style="fill:rgb(32,142,170);fill-rule:nonzero;"/>
            </g>
            <g transform="matrix(443.75,0,0,443.75,19218.4,4515.17)">
                <rect x="0.069" y="-0.714" width="0.157" height="0.714" style="fill:rgb(32,142,170);fill-rule:nonzero;"/>
            </g>
            <g transform="matrix(443.75,0,0,443.75,19349.3,4515.17)">
                <path d="M0.069,-0.714L0.069,-0L0.574,-0L0.574,-0.132L0.226,-0.132L0.226,-0.714L0.069,-0.714Z" style="fill:rgb(32,142,170);fill-rule:nonzero;"/>
            </g>
            <g transform="matrix(443.75,0,0,443.75,19612.4,4515.17)">
                <path d="M0.226,-0.132L0.226,-0.582L0.338,-0.582C0.377,-0.582 0.409,-0.576 0.436,-0.566C0.462,-0.555 0.483,-0.539 0.499,-0.518C0.515,-0.497 0.527,-0.472 0.534,-0.444C0.541,-0.415 0.544,-0.382 0.544,-0.346C0.544,-0.307 0.539,-0.273 0.529,-0.246C0.519,-0.219 0.506,-0.197 0.489,-0.18C0.472,-0.163 0.453,-0.15 0.432,-0.143C0.411,-0.136 0.389,-0.132 0.366,-0.132L0.226,-0.132ZM0.069,-0.714L0.069,-0L0.377,-0C0.432,-0 0.479,-0.009 0.52,-0.028C0.56,-0.046 0.594,-0.071 0.621,-0.103C0.648,-0.135 0.668,-0.173 0.681,-0.217C0.694,-0.261 0.701,-0.309 0.701,-0.361C0.701,-0.42 0.693,-0.472 0.677,-0.516C0.66,-0.56 0.638,-0.597 0.609,-0.626C0.58,-0.655 0.545,-0.677 0.506,-0.692C0.466,-0.707 0.423,-0.714 0.377,-0.714L0.069,-0.714Z" style="fill:rgb(32,142,170);fill-rule:nonzero;"/>
            </g>
        </g>
        <g transform="matrix(1.17371,0,0,1.17371,-350.449,-942.031)">
            <rect x="3769.08" y="1196.66" width="27.55" height="348.1" style="fill:rgb(32,142,170);fill-rule:nonzero;"/>
        </g>
        <g transform="matrix(1.17371,0,0,1.17371,-352.113,-1759.4)">
            <path d="M3891.35,1715.17C3891.35,1773.78 3843.84,1821.29 3785.23,1821.29C3726.63,1821.29 3679.12,1773.78 3679.12,1715.17C3679.12,1656.57 3726.63,1609.06 3785.23,1609.06C3843.84,1609.06 3891.35,1656.57 3891.35,1715.17Z" style="fill:rgb(32,142,170);fill-rule:nonzero;"/>
        </g>
        <g transform="matrix(1,0,0,1,3589.68,-4.21889)">
            <g transform="matrix(116.667,0,0,116.667,435.069,299.436)">
                <path d="M0.132,-0.349C0.132,-0.366 0.132,-0.386 0.133,-0.407C0.133,-0.428 0.135,-0.448 0.138,-0.47C0.141,-0.491 0.145,-0.511 0.151,-0.531C0.156,-0.551 0.165,-0.569 0.176,-0.584C0.187,-0.599 0.2,-0.611 0.217,-0.62C0.234,-0.629 0.254,-0.634 0.278,-0.634C0.302,-0.634 0.322,-0.629 0.339,-0.62C0.356,-0.611 0.37,-0.599 0.381,-0.584C0.392,-0.569 0.4,-0.551 0.406,-0.531C0.411,-0.511 0.416,-0.491 0.419,-0.47C0.422,-0.448 0.423,-0.428 0.424,-0.407C0.424,-0.386 0.424,-0.366 0.424,-0.349C0.424,-0.322 0.423,-0.293 0.422,-0.26C0.42,-0.227 0.415,-0.196 0.406,-0.167C0.397,-0.137 0.382,-0.113 0.362,-0.093C0.342,-0.073 0.314,-0.063 0.278,-0.063C0.242,-0.063 0.214,-0.073 0.194,-0.093C0.174,-0.113 0.16,-0.137 0.151,-0.167C0.141,-0.196 0.136,-0.227 0.135,-0.26C0.133,-0.293 0.132,-0.322 0.132,-0.349ZM0.042,-0.348C0.042,-0.322 0.043,-0.295 0.044,-0.267C0.045,-0.239 0.049,-0.212 0.054,-0.185C0.059,-0.158 0.067,-0.133 0.077,-0.11C0.087,-0.086 0.101,-0.065 0.118,-0.047C0.135,-0.029 0.157,-0.015 0.184,-0.005C0.21,0.006 0.241,0.011 0.278,0.011C0.315,0.011 0.347,0.006 0.373,-0.005C0.399,-0.015 0.421,-0.029 0.438,-0.047C0.455,-0.065 0.469,-0.086 0.479,-0.11C0.489,-0.133 0.497,-0.158 0.502,-0.185C0.507,-0.212 0.511,-0.239 0.512,-0.267C0.513,-0.295 0.514,-0.322 0.514,-0.348C0.514,-0.374 0.513,-0.401 0.512,-0.429C0.511,-0.457 0.507,-0.484 0.502,-0.511C0.497,-0.538 0.489,-0.563 0.479,-0.587C0.469,-0.611 0.455,-0.632 0.438,-0.65C0.421,-0.668 0.399,-0.682 0.373,-0.693C0.346,-0.704 0.315,-0.709 0.278,-0.709C0.241,-0.709 0.21,-0.704 0.184,-0.693C0.157,-0.682 0.135,-0.668 0.118,-0.65C0.101,-0.632 0.087,-0.611 0.077,-0.587C0.067,-0.563 0.059,-0.538 0.054,-0.511C0.049,-0.484 0.045,-0.457 0.044,-0.429C0.043,-0.401 0.042,-0.374 0.042,-0.348Z" style="fill:white;fill-rule:nonzero;"/>
            </g>
            <g transform="matrix(116.667,0,0,116.667,499.936,299.436)">
                <path d="M0.339,-0.241L0.101,-0.241L0.337,-0.588L0.339,-0.588L0.339,-0.241ZM0.419,-0.241L0.419,-0.709L0.351,-0.709L0.028,-0.248L0.028,-0.166L0.339,-0.166L0.339,-0L0.419,-0L0.419,-0.166L0.515,-0.166L0.515,-0.241L0.419,-0.241Z" style="fill:white;fill-rule:nonzero;"/>
            </g>
        </g>
    </g>
    <g id="_3" serif:id="3">
        <g transform="matrix(0.28169,0,0,0.28169,-990.786,-1258.79)">
            <g transform="matrix(443.75,0,0,443.75,12943,8054.52)">
                <path d="M0.226,-0.425L0.226,-0.592L0.373,-0.592C0.387,-0.592 0.401,-0.591 0.414,-0.589C0.427,-0.586 0.438,-0.582 0.448,-0.576C0.458,-0.57 0.466,-0.562 0.472,-0.551C0.478,-0.54 0.481,-0.527 0.481,-0.51C0.481,-0.48 0.472,-0.458 0.454,-0.445C0.436,-0.432 0.413,-0.425 0.385,-0.425L0.226,-0.425ZM0.069,-0.714L0.069,-0L0.415,-0C0.447,-0 0.478,-0.004 0.509,-0.012C0.539,-0.02 0.566,-0.032 0.59,-0.049C0.613,-0.066 0.632,-0.087 0.646,-0.114C0.66,-0.14 0.667,-0.171 0.667,-0.207C0.667,-0.252 0.656,-0.29 0.635,-0.322C0.613,-0.353 0.58,-0.375 0.536,-0.388C0.568,-0.403 0.592,-0.423 0.609,-0.447C0.625,-0.471 0.633,-0.501 0.633,-0.537C0.633,-0.57 0.628,-0.598 0.617,-0.621C0.606,-0.644 0.59,-0.662 0.57,-0.676C0.55,-0.689 0.526,-0.699 0.498,-0.705C0.47,-0.711 0.439,-0.714 0.405,-0.714L0.069,-0.714ZM0.226,-0.122L0.226,-0.318L0.397,-0.318C0.431,-0.318 0.458,-0.31 0.479,-0.295C0.5,-0.279 0.51,-0.253 0.51,-0.216C0.51,-0.197 0.507,-0.182 0.501,-0.17C0.494,-0.158 0.486,-0.149 0.475,-0.142C0.464,-0.135 0.452,-0.13 0.438,-0.127C0.424,-0.124 0.409,-0.122 0.394,-0.122L0.226,-0.122Z" style="fill:rgb(53,189,200);fill-rule:nonzero;"/>
            </g>
            <g transform="matrix(443.75,0,0,443.75,13255.4,8054.52)">
                <path d="M0.675,-0.27L0.675,-0.714L0.518,-0.714L0.518,-0.27C0.518,-0.217 0.507,-0.178 0.486,-0.153C0.465,-0.128 0.426,-0.115 0.37,-0.115C0.338,-0.115 0.313,-0.12 0.294,-0.129C0.275,-0.138 0.26,-0.149 0.249,-0.164C0.238,-0.178 0.231,-0.194 0.228,-0.213C0.225,-0.232 0.223,-0.251 0.223,-0.27L0.223,-0.714L0.066,-0.714L0.066,-0.27C0.066,-0.173 0.092,-0.101 0.146,-0.054C0.199,-0.007 0.273,0.016 0.37,0.016C0.465,0.016 0.54,-0.008 0.594,-0.055C0.648,-0.101 0.675,-0.173 0.675,-0.27Z" style="fill:rgb(53,189,200);fill-rule:nonzero;"/>
            </g>
            <g transform="matrix(443.75,0,0,443.75,13584.3,8054.52)">
                <rect x="0.069" y="-0.714" width="0.157" height="0.714" style="fill:rgb(53,189,200);fill-rule:nonzero;"/>
            </g>
            <g transform="matrix(443.75,0,0,443.75,13715.2,8054.52)">
                <path d="M0.069,-0.714L0.069,-0L0.574,-0L0.574,-0.132L0.226,-0.132L0.226,-0.714L0.069,-0.714Z" style="fill:rgb(53,189,200);fill-rule:nonzero;"/>
            </g>
            <g transform="matrix(443.75,0,0,443.75,13978.3,8054.52)">
                <path d="M0.226,-0.132L0.226,-0.582L0.338,-0.582C0.377,-0.582 0.409,-0.576 0.436,-0.566C0.462,-0.555 0.483,-0.539 0.499,-0.518C0.515,-0.497 0.527,-0.472 0.534,-0.444C0.541,-0.415 0.544,-0.382 0.544,-0.346C0.544,-0.307 0.539,-0.273 0.529,-0.246C0.519,-0.219 0.506,-0.197 0.489,-0.18C0.472,-0.163 0.453,-0.15 0.432,-0.143C0.411,-0.136 0.389,-0.132 0.366,-0.132L0.226,-0.132ZM0.069,-0.714L0.069,-0L0.377,-0C0.432,-0 0.479,-0.009 0.52,-0.028C0.56,-0.046 0.594,-0.071 0.621,-0.103C0.648,-0.135 0.668,-0.173 0.681,-0.217C0.694,-0.261 0.701,-0.309 0.701,-0.361C0.701,-0.42 0.693,-0.472 0.677,-0.516C0.66,-0.56 0.638,-0.597 0.609,-0.626C0.58,-0.655 0.545,-0.677 0.506,-0.692C0.466,-0.707 0.423,-0.714 0.377,-0.714L0.069,-0.714Z" style="fill:rgb(53,189,200);fill-rule:nonzero;"/>
            </g>
        </g>
        <g transform="matrix(1.17371,0,0,1.17371,-350.113,-1760.56)">
            <rect x="2711.92" y="1893.9" width="27.56" height="348.1" style="fill:rgb(53,189,200);fill-rule:nonzero;"/>
        </g>
        <g transform="matrix(1.17371,0,0,1.17371,-352.113,-1759.4)">
            <path d="M2834.19,1715.17C2834.19,1773.78 2786.68,1821.29 2728.08,1821.29C2669.47,1821.29 2621.97,1773.78 2621.97,1715.17C2621.97,1656.57 2669.47,1609.06 2728.08,1609.06C2786.68,1609.06 2834.19,1656.57 2834.19,1715.17Z" style="fill:rgb(53,189,200);fill-rule:nonzero;"/>
        </g>
        <g transform="matrix(1,0,0,1,2349.27,-4.21889)">
            <g transform="matrix(116.667,0,0,116.667,435.069,299.436)">
                <path d="M0.132,-0.349C0.132,-0.366 0.132,-0.386 0.133,-0.407C0.133,-0.428 0.135,-0.448 0.138,-0.47C0.141,-0.491 0.145,-0.511 0.151,-0.531C0.156,-0.551 0.165,-0.569 0.176,-0.584C0.187,-0.599 0.2,-0.611 0.217,-0.62C0.234,-0.629 0.254,-0.634 0.278,-0.634C0.302,-0.634 0.322,-0.629 0.339,-0.62C0.356,-0.611 0.37,-0.599 0.381,-0.584C0.392,-0.569 0.4,-0.551 0.406,-0.531C0.411,-0.511 0.416,-0.491 0.419,-0.47C0.422,-0.448 0.423,-0.428 0.424,-0.407C0.424,-0.386 0.424,-0.366 0.424,-0.349C0.424,-0.322 0.423,-0.293 0.422,-0.26C0.42,-0.227 0.415,-0.196 0.406,-0.167C0.397,-0.137 0.382,-0.113 0.362,-0.093C0.342,-0.073 0.314,-0.063 0.278,-0.063C0.242,-0.063 0.214,-0.073 0.194,-0.093C0.174,-0.113 0.16,-0.137 0.151,-0.167C0.141,-0.196 0.136,-0.227 0.135,-0.26C0.133,-0.293 0.132,-0.322 0.132,-0.349ZM0.042,-0.348C0.042,-0.322 0.043,-0.295 0.044,-0.267C0.045,-0.239 0.049,-0.212 0.054,-0.185C0.059,-0.158 0.067,-0.133 0.077,-0.11C0.087,-0.086 0.101,-0.065 0.118,-0.047C0.135,-0.029 0.157,-0.015 0.184,-0.005C0.21,0.006 0.241,0.011 0.278,0.011C0.315,0.011 0.347,0.006 0.373,-0.005C0.399,-0.015 0.421,-0.029 0.438,-0.047C0.455,-0.065 0.469,-0.086 0.479,-0.11C0.489,-0.133 0.497,-0.158 0.502,-0.185C0.507,-0.212 0.511,-0.239 0.512,-0.267C0.513,-0.295 0.514,-0.322 0.514,-0.348C0.514,-0.374 0.513,-0.401 0.512,-0.429C0.511,-0.457 0.507,-0.484 0.502,-0.511C0.497,-0.538 0.489,-0.563 0.479,-0.587C0.469,-0.611 0.455,-0.632 0.438,-0.65C0.421,-0.668 0.399,-0.682 0.373,-0.693C0.346,-0.704 0.315,-0.709 0.278,-0.709C0.241,-0.709 0.21,-0.704 0.184,-0.693C0.157,-0.682 0.135,-0.668 0.118,-0.65C0.101,-0.632 0.087,-0.611 0.077,-0.587C0.067,-0.563 0.059,-0.538 0.054,-0.511C0.049,-0.484 0.045,-0.457 0.044,-0.429C0.043,-0.401 0.042,-0.374 0.042,-0.348Z" style="fill:white;fill-rule:nonzero;"/>
            </g>
            <g transform="matrix(116.667,0,0,116.667,499.936,299.436)">
                <path d="M0.218,-0.405L0.218,-0.333C0.234,-0.335 0.251,-0.336 0.269,-0.336C0.29,-0.336 0.31,-0.333 0.329,-0.328C0.347,-0.322 0.363,-0.313 0.376,-0.302C0.389,-0.29 0.4,-0.276 0.408,-0.259C0.416,-0.242 0.42,-0.222 0.42,-0.2C0.42,-0.179 0.416,-0.16 0.408,-0.143C0.399,-0.126 0.388,-0.111 0.374,-0.1C0.36,-0.088 0.344,-0.079 0.325,-0.073C0.306,-0.066 0.287,-0.063 0.266,-0.063C0.217,-0.063 0.18,-0.078 0.155,-0.107C0.13,-0.135 0.116,-0.173 0.115,-0.219L0.03,-0.219C0.029,-0.182 0.035,-0.15 0.046,-0.121C0.056,-0.092 0.072,-0.068 0.093,-0.049C0.114,-0.029 0.139,-0.014 0.168,-0.004C0.197,0.006 0.23,0.011 0.266,0.011C0.299,0.011 0.331,0.007 0.361,-0.003C0.39,-0.012 0.416,-0.025 0.438,-0.043C0.46,-0.061 0.478,-0.084 0.491,-0.111C0.503,-0.137 0.51,-0.169 0.51,-0.204C0.51,-0.247 0.5,-0.284 0.479,-0.315C0.458,-0.346 0.425,-0.367 0.382,-0.376L0.382,-0.378C0.41,-0.391 0.433,-0.409 0.452,-0.434C0.471,-0.459 0.48,-0.487 0.48,-0.519C0.48,-0.552 0.474,-0.58 0.464,-0.604C0.452,-0.628 0.437,-0.648 0.418,-0.663C0.399,-0.678 0.376,-0.69 0.35,-0.698C0.323,-0.705 0.295,-0.709 0.264,-0.709C0.229,-0.709 0.198,-0.703 0.171,-0.692C0.143,-0.681 0.121,-0.665 0.103,-0.645C0.085,-0.625 0.071,-0.601 0.062,-0.573C0.052,-0.545 0.046,-0.514 0.045,-0.48L0.13,-0.48C0.13,-0.501 0.133,-0.52 0.138,-0.539C0.143,-0.558 0.152,-0.574 0.163,-0.588C0.173,-0.602 0.188,-0.613 0.205,-0.622C0.222,-0.63 0.241,-0.634 0.264,-0.634C0.3,-0.634 0.33,-0.624 0.354,-0.606C0.378,-0.587 0.39,-0.558 0.39,-0.52C0.39,-0.501 0.386,-0.485 0.379,-0.47C0.372,-0.455 0.362,-0.443 0.35,-0.434C0.337,-0.424 0.323,-0.417 0.307,-0.412C0.29,-0.407 0.273,-0.404 0.255,-0.404L0.227,-0.404C0.224,-0.404 0.221,-0.404 0.218,-0.405Z" style="fill:white;fill-rule:nonzero;"/>
            </g>
        </g>
    </g>
    <g id="_2" serif:id="2">
        <g transform="matrix(0.28169,0,0,0.28169,-1113.91,-116.398)">
            <g transform="matrix(443.75,0,0,443.75,8439.76,3999.01)">
                <path d="M0.226,-0.378L0.226,-0.592L0.348,-0.592C0.366,-0.592 0.383,-0.591 0.4,-0.588C0.417,-0.585 0.431,-0.58 0.444,-0.573C0.457,-0.565 0.467,-0.554 0.475,-0.54C0.482,-0.526 0.486,-0.508 0.486,-0.485C0.486,-0.462 0.482,-0.444 0.475,-0.43C0.467,-0.416 0.457,-0.405 0.444,-0.398C0.431,-0.39 0.417,-0.385 0.4,-0.382C0.383,-0.379 0.366,-0.378 0.348,-0.378L0.226,-0.378ZM0.069,-0.714L0.069,-0L0.226,-0L0.226,-0.256L0.391,-0.256C0.436,-0.256 0.474,-0.263 0.505,-0.276C0.536,-0.289 0.562,-0.306 0.582,-0.327C0.601,-0.348 0.616,-0.373 0.625,-0.401C0.634,-0.428 0.638,-0.456 0.638,-0.485C0.638,-0.514 0.634,-0.543 0.625,-0.57C0.616,-0.597 0.601,-0.622 0.582,-0.643C0.562,-0.664 0.536,-0.682 0.505,-0.695C0.474,-0.708 0.436,-0.714 0.391,-0.714L0.069,-0.714Z" style="fill:rgb(251,176,58);fill-rule:nonzero;"/>
            </g>
            <g transform="matrix(443.75,0,0,443.75,8735.74,3999.01)">
                <path d="M0.226,-0.391L0.226,-0.592L0.398,-0.592C0.434,-0.592 0.461,-0.584 0.479,-0.569C0.497,-0.553 0.506,-0.528 0.506,-0.493C0.506,-0.457 0.497,-0.431 0.479,-0.415C0.461,-0.399 0.434,-0.391 0.398,-0.391L0.226,-0.391ZM0.069,-0.714L0.069,-0L0.226,-0L0.226,-0.279L0.383,-0.279C0.422,-0.279 0.451,-0.27 0.468,-0.253C0.485,-0.236 0.497,-0.208 0.502,-0.171C0.506,-0.142 0.509,-0.112 0.511,-0.081C0.513,-0.05 0.518,-0.023 0.527,-0L0.684,-0C0.677,-0.01 0.671,-0.022 0.668,-0.037C0.664,-0.051 0.661,-0.066 0.66,-0.082C0.658,-0.098 0.657,-0.114 0.656,-0.129C0.655,-0.144 0.655,-0.158 0.654,-0.169C0.653,-0.187 0.65,-0.205 0.647,-0.223C0.643,-0.241 0.637,-0.258 0.629,-0.273C0.621,-0.288 0.611,-0.301 0.598,-0.312C0.585,-0.323 0.569,-0.331 0.55,-0.336L0.55,-0.338C0.59,-0.354 0.619,-0.377 0.637,-0.408C0.654,-0.439 0.663,-0.475 0.663,-0.517C0.663,-0.544 0.658,-0.57 0.649,-0.594C0.639,-0.617 0.625,-0.638 0.607,-0.656C0.588,-0.674 0.566,-0.688 0.541,-0.699C0.515,-0.709 0.486,-0.714 0.454,-0.714L0.069,-0.714Z" style="fill:rgb(251,176,58);fill-rule:nonzero;"/>
            </g>
            <g transform="matrix(443.75,0,0,443.75,9056.13,3999.01)">
                <path d="M0.069,-0.714L0.069,-0L0.611,-0L0.611,-0.132L0.226,-0.132L0.226,-0.307L0.572,-0.307L0.572,-0.429L0.226,-0.429L0.226,-0.582L0.603,-0.582L0.603,-0.714L0.069,-0.714Z" style="fill:rgb(251,176,58);fill-rule:nonzero;"/>
            </g>
            <g transform="matrix(443.75,0,0,443.75,9343.68,3999.01)">
                <rect x="0.053" y="-0.334" width="0.301" height="0.122" style="fill:rgb(251,176,58);fill-rule:nonzero;"/>
            </g>
            <g transform="matrix(443.75,0,0,443.75,9524.28,3999.01)">
                <path d="M0.226,-0.425L0.226,-0.592L0.373,-0.592C0.387,-0.592 0.401,-0.591 0.414,-0.589C0.427,-0.586 0.438,-0.582 0.448,-0.576C0.458,-0.57 0.466,-0.562 0.472,-0.551C0.478,-0.54 0.481,-0.527 0.481,-0.51C0.481,-0.48 0.472,-0.458 0.454,-0.445C0.436,-0.432 0.413,-0.425 0.385,-0.425L0.226,-0.425ZM0.069,-0.714L0.069,-0L0.415,-0C0.447,-0 0.478,-0.004 0.509,-0.012C0.539,-0.02 0.566,-0.032 0.59,-0.049C0.613,-0.066 0.632,-0.087 0.646,-0.114C0.66,-0.14 0.667,-0.171 0.667,-0.207C0.667,-0.252 0.656,-0.29 0.635,-0.322C0.613,-0.353 0.58,-0.375 0.536,-0.388C0.568,-0.403 0.592,-0.423 0.609,-0.447C0.625,-0.471 0.633,-0.501 0.633,-0.537C0.633,-0.57 0.628,-0.598 0.617,-0.621C0.606,-0.644 0.59,-0.662 0.57,-0.676C0.55,-0.689 0.526,-0.699 0.498,-0.705C0.47,-0.711 0.439,-0.714 0.405,-0.714L0.069,-0.714ZM0.226,-0.122L0.226,-0.318L0.397,-0.318C0.431,-0.318 0.458,-0.31 0.479,-0.295C0.5,-0.279 0.51,-0.253 0.51,-0.216C0.51,-0.197 0.507,-0.182 0.501,-0.17C0.494,-0.158 0.486,-0.149 0.475,-0.142C0.464,-0.135 0.452,-0.13 0.438,-0.127C0.424,-0.124 0.409,-0.122 0.394,-0.122L0.226,-0.122Z" style="fill:rgb(251,176,58);fill-rule:nonzero;"/>
            </g>
            <g transform="matrix(443.75,0,0,443.75,9836.68,3999.01)">
                <path d="M0.675,-0.27L0.675,-0.714L0.518,-0.714L0.518,-0.27C0.518,-0.217 0.507,-0.178 0.486,-0.153C0.465,-0.128 0.426,-0.115 0.37,-0.115C0.338,-0.115 0.313,-0.12 0.294,-0.129C0.275,-0.138 0.26,-0.149 0.249,-0.164C0.238,-0.178 0.231,-0.194 0.228,-0.213C0.225,-0.232 0.223,-0.251 0.223,-0.27L0.223,-0.714L0.066,-0.714L0.066,-0.27C0.066,-0.173 0.092,-0.101 0.146,-0.054C0.199,-0.007 0.273,0.016 0.37,0.016C0.465,0.016 0.54,-0.008 0.594,-0.055C0.648,-0.101 0.675,-0.173 0.675,-0.27Z" style="fill:rgb(251,176,58);fill-rule:nonzero;"/>
            </g>
            <g transform="matrix(443.75,0,0,443.75,10165.5,3999.01)">
                <rect x="0.069" y="-0.714" width="0.157" height="0.714" style="fill:rgb(251,176,58);fill-rule:nonzero;"/>
            </g>
            <g transform="matrix(443.75,0,0,443.75,10296.4,3999.01)">
                <path d="M0.069,-0.714L0.069,-0L0.574,-0L0.574,-0.132L0.226,-0.132L0.226,-0.714L0.069,-0.714Z" style="fill:rgb(251,176,58);fill-rule:nonzero;"/>
            </g>
            <g transform="matrix(443.75,0,0,443.75,10559.6,3999.01)">
                <path d="M0.226,-0.132L0.226,-0.582L0.338,-0.582C0.377,-0.582 0.409,-0.576 0.436,-0.566C0.462,-0.555 0.483,-0.539 0.499,-0.518C0.515,-0.497 0.527,-0.472 0.534,-0.444C0.541,-0.415 0.544,-0.382 0.544,-0.346C0.544,-0.307 0.539,-0.273 0.529,-0.246C0.519,-0.219 0.506,-0.197 0.489,-0.18C0.472,-0.163 0.453,-0.15 0.432,-0.143C0.411,-0.136 0.389,-0.132 0.366,-0.132L0.226,-0.132ZM0.069,-0.714L0.069,-0L0.377,-0C0.432,-0 0.479,-0.009 0.52,-0.028C0.56,-0.046 0.594,-0.071 0.621,-0.103C0.648,-0.135 0.668,-0.173 0.681,-0.217C0.694,-0.261 0.701,-0.309 0.701,-0.361C0.701,-0.42 0.693,-0.472 0.677,-0.516C0.66,-0.56 0.638,-0.597 0.609,-0.626C0.58,-0.655 0.545,-0.677 0.506,-0.692C0.466,-0.707 0.423,-0.714 0.377,-0.714L0.069,-0.714Z" style="fill:rgb(251,176,58);fill-rule:nonzero;"/>
            </g>
        </g>
        <g transform="matrix(1.17371,0,0,1.17371,-349.317,-942.031)">
            <rect x="1655.69" y="1196.66" width="27.55" height="348.1" style="fill:rgb(251,176,58);fill-rule:nonzero;"/>
        </g>
        <g transform="matrix(1.17371,0,0,1.17371,-352.113,-1759.4)">
            <path d="M1777.04,1715.17C1777.04,1773.78 1729.53,1821.29 1670.92,1821.29C1612.32,1821.29 1564.81,1773.78 1564.81,1715.17C1564.81,1656.57 1612.32,1609.06 1670.92,1609.06C1729.53,1609.06 1777.04,1656.57 1777.04,1715.17Z" style="fill:rgb(251,176,58);fill-rule:nonzero;"/>
        </g>
        <g transform="matrix(1,0,0,0.977096,1111.35,0.744925)">
            <g transform="matrix(116.667,0,0,116.667,435.069,299.436)">
                <path d="M0.132,-0.349C0.132,-0.366 0.132,-0.386 0.133,-0.407C0.133,-0.428 0.135,-0.448 0.138,-0.47C0.141,-0.491 0.145,-0.511 0.151,-0.531C0.156,-0.551 0.165,-0.569 0.176,-0.584C0.187,-0.599 0.2,-0.611 0.217,-0.62C0.234,-0.629 0.254,-0.634 0.278,-0.634C0.302,-0.634 0.322,-0.629 0.339,-0.62C0.356,-0.611 0.37,-0.599 0.381,-0.584C0.392,-0.569 0.4,-0.551 0.406,-0.531C0.411,-0.511 0.416,-0.491 0.419,-0.47C0.422,-0.448 0.423,-0.428 0.424,-0.407C0.424,-0.386 0.424,-0.366 0.424,-0.349C0.424,-0.322 0.423,-0.293 0.422,-0.26C0.42,-0.227 0.415,-0.196 0.406,-0.167C0.397,-0.137 0.382,-0.113 0.362,-0.093C0.342,-0.073 0.314,-0.063 0.278,-0.063C0.242,-0.063 0.214,-0.073 0.194,-0.093C0.174,-0.113 0.16,-0.137 0.151,-0.167C0.141,-0.196 0.136,-0.227 0.135,-0.26C0.133,-0.293 0.132,-0.322 0.132,-0.349ZM0.042,-0.348C0.042,-0.322 0.043,-0.295 0.044,-0.267C0.045,-0.239 0.049,-0.212 0.054,-0.185C0.059,-0.158 0.067,-0.133 0.077,-0.11C0.087,-0.086 0.101,-0.065 0.118,-0.047C0.135,-0.029 0.157,-0.015 0.184,-0.005C0.21,0.006 0.241,0.011 0.278,0.011C0.315,0.011 0.347,0.006 0.373,-0.005C0.399,-0.015 0.421,-0.029 0.438,-0.047C0.455,-0.065 0.469,-0.086 0.479,-0.11C0.489,-0.133 0.497,-0.158 0.502,-0.185C0.507,-0.212 0.511,-0.239 0.512,-0.267C0.513,-0.295 0.514,-0.322 0.514,-0.348C0.514,-0.374 0.513,-0.401 0.512,-0.429C0.511,-0.457 0.507,-0.484 0.502,-0.511C0.497,-0.538 0.489,-0.563 0.479,-0.587C0.469,-0.611 0.455,-0.632 0.438,-0.65C0.421,-0.668 0.399,-0.682 0.373,-0.693C0.346,-0.704 0.315,-0.709 0.278,-0.709C0.241,-0.709 0.21,-0.704 0.184,-0.693C0.157,-0.682 0.135,-0.668 0.118,-0.65C0.101,-0.632 0.087,-0.611 0.077,-0.587C0.067,-0.563 0.059,-0.538 0.054,-0.511C0.049,-0.484 0.045,-0.457 0.044,-0.429C0.043,-0.401 0.042,-0.374 0.042,-0.348Z" style="fill:white;fill-rule:nonzero;"/>
            </g>
            <g transform="matrix(116.667,0,0,116.667,499.936,299.436)">
                <path d="M0.044,-0.458L0.129,-0.458C0.128,-0.479 0.131,-0.501 0.136,-0.522C0.141,-0.543 0.149,-0.561 0.16,-0.578C0.171,-0.595 0.186,-0.608 0.204,-0.619C0.221,-0.629 0.242,-0.634 0.267,-0.634C0.286,-0.634 0.303,-0.631 0.32,-0.625C0.337,-0.619 0.351,-0.61 0.364,-0.599C0.376,-0.588 0.386,-0.574 0.393,-0.559C0.4,-0.543 0.404,-0.525 0.404,-0.506C0.404,-0.481 0.4,-0.46 0.393,-0.441C0.385,-0.422 0.374,-0.405 0.359,-0.389C0.343,-0.373 0.325,-0.357 0.302,-0.342C0.279,-0.326 0.253,-0.309 0.223,-0.29C0.198,-0.275 0.175,-0.26 0.152,-0.243C0.129,-0.226 0.109,-0.207 0.091,-0.185C0.073,-0.163 0.058,-0.137 0.047,-0.108C0.035,-0.078 0.027,-0.042 0.024,-0L0.487,-0L0.487,-0.075L0.123,-0.075C0.127,-0.097 0.135,-0.117 0.149,-0.134C0.162,-0.151 0.177,-0.166 0.196,-0.181C0.214,-0.196 0.234,-0.21 0.256,-0.223C0.278,-0.236 0.3,-0.249 0.322,-0.262C0.344,-0.276 0.365,-0.291 0.386,-0.306C0.407,-0.321 0.425,-0.339 0.441,-0.358C0.457,-0.377 0.47,-0.398 0.48,-0.422C0.489,-0.446 0.494,-0.474 0.494,-0.505C0.494,-0.538 0.488,-0.568 0.477,-0.593C0.465,-0.618 0.449,-0.64 0.429,-0.657C0.409,-0.674 0.386,-0.687 0.359,-0.696C0.331,-0.705 0.303,-0.709 0.272,-0.709C0.235,-0.709 0.201,-0.703 0.172,-0.69C0.143,-0.677 0.118,-0.66 0.099,-0.638C0.079,-0.615 0.064,-0.589 0.055,-0.558C0.046,-0.527 0.042,-0.494 0.044,-0.458Z" style="fill:white;fill-rule:nonzero;"/>
            </g>
        </g>
    </g>
    <g id="_1" serif:id="1">
        <g transform="matrix(0.28169,0,0,0.28169,-1298.84,-1394.88)">
            <g transform="matrix(443.75,0,0,443.75,5060.7,8545.17)">
                <path d="M0.226,-0.132L0.226,-0.582L0.338,-0.582C0.377,-0.582 0.409,-0.576 0.436,-0.566C0.462,-0.555 0.483,-0.539 0.499,-0.518C0.515,-0.497 0.527,-0.472 0.534,-0.444C0.541,-0.415 0.544,-0.382 0.544,-0.346C0.544,-0.307 0.539,-0.273 0.529,-0.246C0.519,-0.219 0.506,-0.197 0.489,-0.18C0.472,-0.163 0.453,-0.15 0.432,-0.143C0.411,-0.136 0.389,-0.132 0.366,-0.132L0.226,-0.132ZM0.069,-0.714L0.069,-0L0.377,-0C0.432,-0 0.479,-0.009 0.52,-0.028C0.56,-0.046 0.594,-0.071 0.621,-0.103C0.648,-0.135 0.668,-0.173 0.681,-0.217C0.694,-0.261 0.701,-0.309 0.701,-0.361C0.701,-0.42 0.693,-0.472 0.677,-0.516C0.66,-0.56 0.638,-0.597 0.609,-0.626C0.58,-0.655 0.545,-0.677 0.506,-0.692C0.466,-0.707 0.423,-0.714 0.377,-0.714L0.069,-0.714Z" style="fill:rgb(241,90,38);fill-rule:nonzero;"/>
            </g>
            <g transform="matrix(443.75,0,0,443.75,5389.52,8545.17)">
                <path d="M0.069,-0.714L0.069,-0L0.611,-0L0.611,-0.132L0.226,-0.132L0.226,-0.307L0.572,-0.307L0.572,-0.429L0.226,-0.429L0.226,-0.582L0.603,-0.582L0.603,-0.714L0.069,-0.714Z" style="fill:rgb(241,90,38);fill-rule:nonzero;"/>
            </g>
            <g transform="matrix(443.75,0,0,443.75,5677.07,8545.17)">
                <path d="M0.176,-0.237L0.024,-0.237C0.023,-0.193 0.031,-0.155 0.048,-0.123C0.065,-0.091 0.087,-0.065 0.116,-0.044C0.144,-0.023 0.177,-0.008 0.214,0.002C0.251,0.011 0.289,0.016 0.328,0.016C0.377,0.016 0.42,0.01 0.457,-0.001C0.494,-0.012 0.525,-0.028 0.55,-0.049C0.575,-0.069 0.593,-0.093 0.606,-0.121C0.619,-0.149 0.625,-0.179 0.625,-0.212C0.625,-0.252 0.616,-0.285 0.6,-0.311C0.583,-0.336 0.562,-0.357 0.539,-0.372C0.516,-0.387 0.492,-0.399 0.469,-0.406C0.445,-0.413 0.426,-0.417 0.413,-0.42C0.368,-0.431 0.332,-0.441 0.305,-0.448C0.277,-0.455 0.255,-0.463 0.24,-0.47C0.224,-0.477 0.213,-0.485 0.208,-0.494C0.203,-0.503 0.2,-0.514 0.2,-0.528C0.2,-0.543 0.203,-0.556 0.21,-0.566C0.217,-0.576 0.225,-0.584 0.236,-0.591C0.246,-0.598 0.257,-0.602 0.27,-0.605C0.283,-0.608 0.295,-0.609 0.308,-0.609C0.327,-0.609 0.345,-0.607 0.362,-0.604C0.378,-0.601 0.392,-0.595 0.405,-0.587C0.418,-0.579 0.428,-0.568 0.436,-0.554C0.443,-0.54 0.448,-0.522 0.449,-0.501L0.601,-0.501C0.601,-0.542 0.593,-0.578 0.578,-0.607C0.562,-0.636 0.541,-0.659 0.514,-0.678C0.487,-0.697 0.457,-0.71 0.423,-0.719C0.388,-0.727 0.352,-0.731 0.315,-0.731C0.283,-0.731 0.251,-0.727 0.219,-0.718C0.187,-0.709 0.158,-0.696 0.133,-0.678C0.108,-0.66 0.087,-0.638 0.072,-0.611C0.056,-0.584 0.048,-0.552 0.048,-0.515C0.048,-0.482 0.054,-0.455 0.067,-0.432C0.079,-0.409 0.095,-0.389 0.115,-0.374C0.135,-0.359 0.158,-0.346 0.183,-0.337C0.208,-0.327 0.234,-0.319 0.261,-0.312C0.287,-0.305 0.313,-0.298 0.338,-0.292C0.363,-0.286 0.386,-0.279 0.406,-0.271C0.426,-0.263 0.442,-0.253 0.455,-0.241C0.467,-0.229 0.473,-0.213 0.473,-0.194C0.473,-0.176 0.468,-0.161 0.459,-0.15C0.45,-0.138 0.438,-0.129 0.424,-0.122C0.41,-0.115 0.395,-0.111 0.379,-0.109C0.363,-0.106 0.348,-0.105 0.334,-0.105C0.313,-0.105 0.293,-0.108 0.274,-0.113C0.255,-0.117 0.238,-0.125 0.224,-0.136C0.209,-0.146 0.198,-0.159 0.189,-0.176C0.18,-0.193 0.176,-0.213 0.176,-0.237Z" style="fill:rgb(241,90,38);fill-rule:nonzero;"/>
            </g>
            <g transform="matrix(443.75,0,0,443.75,5965.06,8545.17)">
                <rect x="0.069" y="-0.714" width="0.157" height="0.714" style="fill:rgb(241,90,38);fill-rule:nonzero;"/>
            </g>
            <g transform="matrix(443.75,0,0,443.75,6095.97,8545.17)">
                <path d="M0.585,-0.081L0.601,-0L0.701,-0L0.701,-0.386L0.401,-0.386L0.401,-0.269L0.559,-0.269C0.554,-0.219 0.538,-0.181 0.51,-0.155C0.481,-0.128 0.441,-0.115 0.389,-0.115C0.354,-0.115 0.324,-0.122 0.299,-0.136C0.274,-0.149 0.254,-0.167 0.239,-0.19C0.224,-0.213 0.213,-0.238 0.206,-0.267C0.199,-0.295 0.195,-0.324 0.195,-0.354C0.195,-0.385 0.199,-0.416 0.206,-0.445C0.213,-0.474 0.224,-0.501 0.239,-0.524C0.254,-0.547 0.274,-0.565 0.299,-0.579C0.324,-0.592 0.354,-0.599 0.389,-0.599C0.427,-0.599 0.459,-0.589 0.486,-0.569C0.513,-0.549 0.531,-0.519 0.54,-0.479L0.69,-0.479C0.686,-0.52 0.675,-0.556 0.657,-0.587C0.639,-0.618 0.616,-0.645 0.589,-0.666C0.561,-0.687 0.53,-0.704 0.496,-0.715C0.461,-0.725 0.426,-0.731 0.389,-0.731C0.334,-0.731 0.285,-0.721 0.242,-0.702C0.198,-0.683 0.161,-0.656 0.131,-0.622C0.101,-0.588 0.078,-0.548 0.062,-0.503C0.046,-0.457 0.038,-0.407 0.038,-0.354C0.038,-0.302 0.046,-0.254 0.062,-0.209C0.078,-0.164 0.101,-0.124 0.131,-0.091C0.161,-0.058 0.198,-0.032 0.242,-0.013C0.285,0.007 0.334,0.016 0.389,0.016C0.424,0.016 0.458,0.009 0.492,-0.006C0.526,-0.02 0.557,-0.045 0.585,-0.081Z" style="fill:rgb(241,90,38);fill-rule:nonzero;"/>
            </g>
            <g transform="matrix(443.75,0,0,443.75,6432.77,8545.17)">
                <path d="M0.069,-0.714L0.069,-0L0.216,-0L0.216,-0.478L0.218,-0.478L0.515,-0L0.672,-0L0.672,-0.714L0.525,-0.714L0.525,-0.235L0.523,-0.235L0.225,-0.714L0.069,-0.714Z" style="fill:rgb(241,90,38);fill-rule:nonzero;"/>
            </g>
        </g>
        <g transform="matrix(1.17371,0,0,1.17371,-338.718,-1760.56)">
            <rect x="586.594" y="1893.9" width="27.554" height="348.1" style="fill:rgb(241,90,38);fill-rule:nonzero;"/>
        </g>
        <g transform="matrix(1.17371,0,0,1.17371,-352.113,-1759.4)">
            <path d="M719.883,1715.17C719.883,1773.78 672.375,1821.29 613.772,1821.29C555.167,1821.29 507.658,1773.78 507.658,1715.17C507.658,1656.57 555.167,1609.06 613.772,1609.06C672.375,1609.06 719.883,1656.57 719.883,1715.17Z" style="fill:rgb(241,90,38);fill-rule:nonzero;"/>
        </g>
        <g transform="matrix(1,0,0,1,-124.606,-4.21889)">
            <g transform="matrix(116.667,0,0,116.667,435.069,299.436)">
                <path d="M0.132,-0.349C0.132,-0.366 0.132,-0.386 0.133,-0.407C0.133,-0.428 0.135,-0.448 0.138,-0.47C0.141,-0.491 0.145,-0.511 0.151,-0.531C0.156,-0.551 0.165,-0.569 0.176,-0.584C0.187,-0.599 0.2,-0.611 0.217,-0.62C0.234,-0.629 0.254,-0.634 0.278,-0.634C0.302,-0.634 0.322,-0.629 0.339,-0.62C0.356,-0.611 0.37,-0.599 0.381,-0.584C0.392,-0.569 0.4,-0.551 0.406,-0.531C0.411,-0.511 0.416,-0.491 0.419,-0.47C0.422,-0.448 0.423,-0.428 0.424,-0.407C0.424,-0.386 0.424,-0.366 0.424,-0.349C0.424,-0.322 0.423,-0.293 0.422,-0.26C0.42,-0.227 0.415,-0.196 0.406,-0.167C0.397,-0.137 0.382,-0.113 0.362,-0.093C0.342,-0.073 0.314,-0.063 0.278,-0.063C0.242,-0.063 0.214,-0.073 0.194,-0.093C0.174,-0.113 0.16,-0.137 0.151,-0.167C0.141,-0.196 0.136,-0.227 0.135,-0.26C0.133,-0.293 0.132,-0.322 0.132,-0.349ZM0.042,-0.348C0.042,-0.322 0.043,-0.295 0.044,-0.267C0.045,-0.239 0.049,-0.212 0.054,-0.185C0.059,-0.158 0.067,-0.133 0.077,-0.11C0.087,-0.086 0.101,-0.065 0.118,-0.047C0.135,-0.029 0.157,-0.015 0.184,-0.005C0.21,0.006 0.241,0.011 0.278,0.011C0.315,0.011 0.347,0.006 0.373,-0.005C0.399,-0.015 0.421,-0.029 0.438,-0.047C0.455,-0.065 0.469,-0.086 0.479,-0.11C0.489,-0.133 0.497,-0.158 0.502,-0.185C0.507,-0.212 0.511,-0.239 0.512,-0.267C0.513,-0.295 0.514,-0.322 0.514,-0.348C0.514,-0.374 0.513,-0.401 0.512,-0.429C0.511,-0.457 0.507,-0.484 0.502,-0.511C0.497,-0.538 0.489,-0.563 0.479,-0.587C0.469,-0.611 0.455,-0.632 0.438,-0.65C0.421,-0.668 0.399,-0.682 0.373,-0.693C0.346,-0.704 0.315,-0.709 0.278,-0.709C0.241,-0.709 0.21,-0.704 0.184,-0.693C0.157,-0.682 0.135,-0.668 0.118,-0.65C0.101,-0.632 0.087,-0.611 0.077,-0.587C0.067,-0.563 0.059,-0.538 0.054,-0.511C0.049,-0.484 0.045,-0.457 0.044,-0.429C0.043,-0.401 0.042,-0.374 0.042,-0.348Z" style="fill:white;fill-rule:nonzero;"/>
            </g>
            <g transform="matrix(116.667,0,0,116.667,499.936,299.436)">
                <path d="M0.356,-0L0.356,-0.709L0.291,-0.709C0.286,-0.682 0.278,-0.66 0.265,-0.643C0.252,-0.626 0.237,-0.612 0.219,-0.602C0.2,-0.592 0.18,-0.585 0.157,-0.582C0.134,-0.578 0.111,-0.576 0.087,-0.576L0.087,-0.508L0.271,-0.508L0.271,-0L0.356,-0Z" style="fill:white;fill-rule:nonzero;"/>
            </g>
        </g>
    </g>
</svg>
