<?xml version="1.0" encoding="UTF-8" standalone="no"?>
<!DOCTYPE svg PUBLIC "-//W3C//DTD SVG 1.1//EN" "http://www.w3.org/Graphics/SVG/1.1/DTD/svg11.dtd">
<svg width="100%" height="100%" viewBox="0 0 2891 199" version="1.1" xmlns="http://www.w3.org/2000/svg" xmlns:xlink="http://www.w3.org/1999/xlink" xml:space="preserve" xmlns:serif="http://www.serif.com/" style="fill-rule:evenodd;clip-rule:evenodd;stroke-linejoin:round;stroke-miterlimit:2;">
    <g transform="matrix(1,0,0,1,-64.65,-629.61)">
        <path d="M573.83,728.93L498.48,629.61L498.48,650.54L64.65,650.54L124.12,728.93L64.65,807.33L498.48,807.33L498.48,828.25L573.83,728.93Z" style="fill:rgb(241,90,38);fill-rule:nonzero;"/>
    </g>
    <g transform="matrix(1,0,0,1,-1493.52,-629.61)">
        <path d="M2478.74,728.93L2403.39,629.61L2403.39,650.54L1969.56,650.54L2029.03,728.93L1969.56,807.33L2403.39,807.33L2403.39,828.25L2478.74,728.93Z" style="fill:rgb(72,77,128);fill-rule:nonzero;"/>
    </g>
    <g transform="matrix(1,0,0,1,-1493.52,-629.61)">
        <path d="M2954.96,728.93L2879.62,629.61L2879.62,650.54L2445.78,650.54L2505.26,728.93L2445.78,807.33L2879.62,807.33L2879.62,828.25L2954.96,728.93Z" style="fill:rgb(133,40,60);fill-rule:nonzero;"/>
    </g>
    <g transform="matrix(1,0,0,1,-63.2673,-932.57)">
        <g transform="matrix(40,0,0,40,641.976,1045.77)">
            <path d="M0.545,-0.474L0.697,-0.474C0.692,-0.515 0.681,-0.552 0.663,-0.584C0.645,-0.616 0.622,-0.643 0.595,-0.665C0.567,-0.686 0.536,-0.703 0.501,-0.714C0.466,-0.725 0.428,-0.731 0.389,-0.731C0.334,-0.731 0.285,-0.721 0.242,-0.702C0.198,-0.683 0.161,-0.656 0.131,-0.622C0.101,-0.588 0.078,-0.548 0.062,-0.503C0.046,-0.457 0.038,-0.407 0.038,-0.354C0.038,-0.302 0.046,-0.254 0.062,-0.209C0.078,-0.164 0.101,-0.124 0.131,-0.091C0.161,-0.058 0.198,-0.032 0.242,-0.013C0.285,0.007 0.334,0.016 0.389,0.016C0.433,0.016 0.473,0.009 0.51,-0.004C0.547,-0.017 0.579,-0.037 0.606,-0.062C0.633,-0.087 0.655,-0.118 0.672,-0.154C0.689,-0.19 0.699,-0.23 0.703,-0.275L0.551,-0.275C0.545,-0.227 0.529,-0.188 0.502,-0.159C0.475,-0.13 0.437,-0.115 0.389,-0.115C0.354,-0.115 0.324,-0.122 0.299,-0.136C0.274,-0.149 0.254,-0.167 0.239,-0.19C0.224,-0.213 0.213,-0.238 0.206,-0.267C0.199,-0.295 0.195,-0.324 0.195,-0.354C0.195,-0.385 0.199,-0.416 0.206,-0.445C0.213,-0.474 0.224,-0.501 0.239,-0.524C0.254,-0.547 0.274,-0.565 0.299,-0.579C0.324,-0.592 0.354,-0.599 0.389,-0.599C0.408,-0.599 0.427,-0.596 0.445,-0.59C0.462,-0.583 0.478,-0.574 0.492,-0.563C0.506,-0.552 0.518,-0.539 0.527,-0.524C0.536,-0.509 0.542,-0.492 0.545,-0.474Z" style="fill:white;fill-rule:nonzero;"/>
        </g>
        <g transform="matrix(40,0,0,40,671.616,1045.77)">
            <path d="M0.195,-0.354C0.195,-0.385 0.199,-0.416 0.206,-0.445C0.213,-0.474 0.224,-0.501 0.239,-0.524C0.254,-0.547 0.274,-0.565 0.299,-0.579C0.324,-0.592 0.354,-0.599 0.389,-0.599C0.424,-0.599 0.454,-0.592 0.479,-0.579C0.504,-0.565 0.524,-0.547 0.539,-0.524C0.554,-0.501 0.566,-0.474 0.573,-0.445C0.58,-0.416 0.583,-0.385 0.583,-0.354C0.583,-0.324 0.58,-0.295 0.573,-0.267C0.566,-0.238 0.554,-0.213 0.539,-0.19C0.524,-0.167 0.504,-0.149 0.479,-0.136C0.454,-0.122 0.424,-0.115 0.389,-0.115C0.354,-0.115 0.324,-0.122 0.299,-0.136C0.274,-0.149 0.254,-0.167 0.239,-0.19C0.224,-0.213 0.213,-0.238 0.206,-0.267C0.199,-0.295 0.195,-0.324 0.195,-0.354ZM0.038,-0.354C0.038,-0.302 0.046,-0.254 0.062,-0.209C0.078,-0.164 0.101,-0.124 0.131,-0.091C0.161,-0.058 0.198,-0.032 0.242,-0.013C0.285,0.007 0.334,0.016 0.389,0.016C0.444,0.016 0.494,0.007 0.537,-0.013C0.58,-0.032 0.617,-0.058 0.647,-0.091C0.677,-0.124 0.7,-0.164 0.716,-0.209C0.732,-0.254 0.74,-0.302 0.74,-0.354C0.74,-0.407 0.732,-0.457 0.716,-0.503C0.7,-0.548 0.677,-0.588 0.647,-0.622C0.617,-0.656 0.58,-0.683 0.537,-0.702C0.494,-0.721 0.444,-0.731 0.389,-0.731C0.334,-0.731 0.285,-0.721 0.242,-0.702C0.198,-0.683 0.161,-0.656 0.131,-0.622C0.101,-0.588 0.078,-0.548 0.062,-0.503C0.046,-0.457 0.038,-0.407 0.038,-0.354Z" style="fill:white;fill-rule:nonzero;"/>
        </g>
        <g transform="matrix(40,0,0,40,702.736,1045.77)">
            <path d="M0.069,-0.714L0.069,-0L0.216,-0L0.216,-0.478L0.218,-0.478L0.515,-0L0.672,-0L0.672,-0.714L0.525,-0.714L0.525,-0.235L0.523,-0.235L0.225,-0.714L0.069,-0.714Z" style="fill:white;fill-rule:nonzero;"/>
        </g>
        <g transform="matrix(40,0,0,40,732.376,1045.77)">
            <path d="M0.176,-0.237L0.024,-0.237C0.023,-0.193 0.031,-0.155 0.048,-0.123C0.065,-0.091 0.087,-0.065 0.116,-0.044C0.144,-0.023 0.177,-0.008 0.214,0.002C0.251,0.011 0.289,0.016 0.328,0.016C0.377,0.016 0.42,0.01 0.457,-0.001C0.494,-0.012 0.525,-0.028 0.55,-0.049C0.575,-0.069 0.593,-0.093 0.606,-0.121C0.619,-0.149 0.625,-0.179 0.625,-0.212C0.625,-0.252 0.616,-0.285 0.6,-0.311C0.583,-0.336 0.562,-0.357 0.539,-0.372C0.516,-0.387 0.492,-0.399 0.469,-0.406C0.445,-0.413 0.426,-0.417 0.413,-0.42C0.368,-0.431 0.332,-0.441 0.305,-0.448C0.277,-0.455 0.255,-0.463 0.24,-0.47C0.224,-0.477 0.213,-0.485 0.208,-0.494C0.203,-0.503 0.2,-0.514 0.2,-0.528C0.2,-0.543 0.203,-0.556 0.21,-0.566C0.217,-0.576 0.225,-0.584 0.236,-0.591C0.246,-0.598 0.257,-0.602 0.27,-0.605C0.283,-0.608 0.295,-0.609 0.308,-0.609C0.327,-0.609 0.345,-0.607 0.362,-0.604C0.378,-0.601 0.392,-0.595 0.405,-0.587C0.418,-0.579 0.428,-0.568 0.436,-0.554C0.443,-0.54 0.448,-0.522 0.449,-0.501L0.601,-0.501C0.601,-0.542 0.593,-0.578 0.578,-0.607C0.562,-0.636 0.541,-0.659 0.514,-0.678C0.487,-0.697 0.457,-0.71 0.423,-0.719C0.388,-0.727 0.352,-0.731 0.315,-0.731C0.283,-0.731 0.251,-0.727 0.219,-0.718C0.187,-0.709 0.158,-0.696 0.133,-0.678C0.108,-0.66 0.087,-0.638 0.072,-0.611C0.056,-0.584 0.048,-0.552 0.048,-0.515C0.048,-0.482 0.054,-0.455 0.067,-0.432C0.079,-0.409 0.095,-0.389 0.115,-0.374C0.135,-0.359 0.158,-0.346 0.183,-0.337C0.208,-0.327 0.234,-0.319 0.261,-0.312C0.287,-0.305 0.313,-0.298 0.338,-0.292C0.363,-0.286 0.386,-0.279 0.406,-0.271C0.426,-0.263 0.442,-0.253 0.455,-0.241C0.467,-0.229 0.473,-0.213 0.473,-0.194C0.473,-0.176 0.468,-0.161 0.459,-0.15C0.45,-0.138 0.438,-0.129 0.424,-0.122C0.41,-0.115 0.395,-0.111 0.379,-0.109C0.363,-0.106 0.348,-0.105 0.334,-0.105C0.313,-0.105 0.293,-0.108 0.274,-0.113C0.255,-0.117 0.238,-0.125 0.224,-0.136C0.209,-0.146 0.198,-0.159 0.189,-0.176C0.18,-0.193 0.176,-0.213 0.176,-0.237Z" style="fill:white;fill-rule:nonzero;"/>
        </g>
        <g transform="matrix(40,0,0,40,758.336,1045.77)">
            <path d="M0.675,-0.27L0.675,-0.714L0.518,-0.714L0.518,-0.27C0.518,-0.217 0.507,-0.178 0.486,-0.153C0.465,-0.128 0.426,-0.115 0.37,-0.115C0.338,-0.115 0.313,-0.12 0.294,-0.129C0.275,-0.138 0.26,-0.149 0.249,-0.164C0.238,-0.178 0.231,-0.194 0.228,-0.213C0.225,-0.232 0.223,-0.251 0.223,-0.27L0.223,-0.714L0.066,-0.714L0.066,-0.27C0.066,-0.173 0.092,-0.101 0.146,-0.054C0.199,-0.007 0.273,0.016 0.37,0.016C0.465,0.016 0.54,-0.008 0.594,-0.055C0.648,-0.101 0.675,-0.173 0.675,-0.27Z" style="fill:white;fill-rule:nonzero;"/>
        </g>
        <g transform="matrix(40,0,0,40,787.976,1045.77)">
            <path d="M0.069,-0.714L0.069,-0L0.216,-0L0.216,-0.501L0.218,-0.501L0.393,-0L0.514,-0L0.689,-0.506L0.691,-0.506L0.691,-0L0.838,-0L0.838,-0.714L0.617,-0.714L0.459,-0.223L0.457,-0.223L0.29,-0.714L0.069,-0.714Z" style="fill:white;fill-rule:nonzero;"/>
        </g>
        <g transform="matrix(40,0,0,40,824.256,1045.77)">
            <path d="M0.226,-0.378L0.226,-0.592L0.348,-0.592C0.366,-0.592 0.383,-0.591 0.4,-0.588C0.417,-0.585 0.431,-0.58 0.444,-0.573C0.457,-0.565 0.467,-0.554 0.475,-0.54C0.482,-0.526 0.486,-0.508 0.486,-0.485C0.486,-0.462 0.482,-0.444 0.475,-0.43C0.467,-0.416 0.457,-0.405 0.444,-0.398C0.431,-0.39 0.417,-0.385 0.4,-0.382C0.383,-0.379 0.366,-0.378 0.348,-0.378L0.226,-0.378ZM0.069,-0.714L0.069,-0L0.226,-0L0.226,-0.256L0.391,-0.256C0.436,-0.256 0.474,-0.263 0.505,-0.276C0.536,-0.289 0.562,-0.306 0.582,-0.327C0.601,-0.348 0.616,-0.373 0.625,-0.401C0.634,-0.428 0.638,-0.456 0.638,-0.485C0.638,-0.514 0.634,-0.543 0.625,-0.57C0.616,-0.597 0.601,-0.622 0.582,-0.643C0.562,-0.664 0.536,-0.682 0.505,-0.695C0.474,-0.708 0.436,-0.714 0.391,-0.714L0.069,-0.714Z" style="fill:white;fill-rule:nonzero;"/>
        </g>
        <g transform="matrix(40,0,0,40,850.936,1045.77)">
            <path d="M0.227,-0.582L0.227,-0L0.384,-0L0.384,-0.582L0.598,-0.582L0.598,-0.714L0.013,-0.714L0.013,-0.582L0.227,-0.582Z" style="fill:white;fill-rule:nonzero;"/>
        </g>
        <g transform="matrix(40,0,0,40,875.376,1045.77)">
            <rect x="0.069" y="-0.714" width="0.157" height="0.714" style="fill:white;fill-rule:nonzero;"/>
        </g>
        <g transform="matrix(40,0,0,40,887.176,1045.77)">
            <path d="M0.195,-0.354C0.195,-0.385 0.199,-0.416 0.206,-0.445C0.213,-0.474 0.224,-0.501 0.239,-0.524C0.254,-0.547 0.274,-0.565 0.299,-0.579C0.324,-0.592 0.354,-0.599 0.389,-0.599C0.424,-0.599 0.454,-0.592 0.479,-0.579C0.504,-0.565 0.524,-0.547 0.539,-0.524C0.554,-0.501 0.566,-0.474 0.573,-0.445C0.58,-0.416 0.583,-0.385 0.583,-0.354C0.583,-0.324 0.58,-0.295 0.573,-0.267C0.566,-0.238 0.554,-0.213 0.539,-0.19C0.524,-0.167 0.504,-0.149 0.479,-0.136C0.454,-0.122 0.424,-0.115 0.389,-0.115C0.354,-0.115 0.324,-0.122 0.299,-0.136C0.274,-0.149 0.254,-0.167 0.239,-0.19C0.224,-0.213 0.213,-0.238 0.206,-0.267C0.199,-0.295 0.195,-0.324 0.195,-0.354ZM0.038,-0.354C0.038,-0.302 0.046,-0.254 0.062,-0.209C0.078,-0.164 0.101,-0.124 0.131,-0.091C0.161,-0.058 0.198,-0.032 0.242,-0.013C0.285,0.007 0.334,0.016 0.389,0.016C0.444,0.016 0.494,0.007 0.537,-0.013C0.58,-0.032 0.617,-0.058 0.647,-0.091C0.677,-0.124 0.7,-0.164 0.716,-0.209C0.732,-0.254 0.74,-0.302 0.74,-0.354C0.74,-0.407 0.732,-0.457 0.716,-0.503C0.7,-0.548 0.677,-0.588 0.647,-0.622C0.617,-0.656 0.58,-0.683 0.537,-0.702C0.494,-0.721 0.444,-0.731 0.389,-0.731C0.334,-0.731 0.285,-0.721 0.242,-0.702C0.198,-0.683 0.161,-0.656 0.131,-0.622C0.101,-0.588 0.078,-0.548 0.062,-0.503C0.046,-0.457 0.038,-0.407 0.038,-0.354Z" style="fill:white;fill-rule:nonzero;"/>
        </g>
        <g transform="matrix(40,0,0,40,918.296,1045.77)">
            <path d="M0.069,-0.714L0.069,-0L0.216,-0L0.216,-0.478L0.218,-0.478L0.515,-0L0.672,-0L0.672,-0.714L0.525,-0.714L0.525,-0.235L0.523,-0.235L0.225,-0.714L0.069,-0.714Z" style="fill:white;fill-rule:nonzero;"/>
        </g>
    </g>
    <g transform="matrix(1,0,0,1,469.193,-932.316)">
        <g transform="matrix(40,0,0,40,641.976,1045.77)">
            <path d="M0.249,-0.276L0.342,-0.538L0.344,-0.538L0.434,-0.276L0.249,-0.276ZM0.264,-0.714L-0.006,-0L0.152,-0L0.208,-0.159L0.475,-0.159L0.529,-0L0.692,-0L0.425,-0.714L0.264,-0.714Z" style="fill:white;fill-rule:nonzero;"/>
        </g>
        <g transform="matrix(40,0,0,40,669.376,1045.77)">
            <path d="M0.069,-0.714L0.069,-0L0.216,-0L0.216,-0.478L0.218,-0.478L0.515,-0L0.672,-0L0.672,-0.714L0.525,-0.714L0.525,-0.235L0.523,-0.235L0.225,-0.714L0.069,-0.714Z" style="fill:white;fill-rule:nonzero;"/>
        </g>
        <g transform="matrix(40,0,0,40,699.016,1045.77)">
            <path d="M0.249,-0.276L0.342,-0.538L0.344,-0.538L0.434,-0.276L0.249,-0.276ZM0.264,-0.714L-0.006,-0L0.152,-0L0.208,-0.159L0.475,-0.159L0.529,-0L0.692,-0L0.425,-0.714L0.264,-0.714Z" style="fill:white;fill-rule:nonzero;"/>
        </g>
        <g transform="matrix(40,0,0,40,726.416,1045.77)">
            <path d="M0.069,-0.714L0.069,-0L0.574,-0L0.574,-0.132L0.226,-0.132L0.226,-0.714L0.069,-0.714Z" style="fill:white;fill-rule:nonzero;"/>
        </g>
        <g transform="matrix(40,0,0,40,745.696,1045.77)">
            <path d="M0.254,-0.278L0.254,-0L0.411,-0L0.411,-0.274L0.676,-0.714L0.501,-0.714L0.335,-0.432L0.168,-0.714L-0.008,-0.714L0.254,-0.278Z" style="fill:white;fill-rule:nonzero;"/>
        </g>
        <g transform="matrix(40,0,0,40,772.376,1045.77)">
            <path d="M0.176,-0.237L0.024,-0.237C0.023,-0.193 0.031,-0.155 0.048,-0.123C0.065,-0.091 0.087,-0.065 0.116,-0.044C0.144,-0.023 0.177,-0.008 0.214,0.002C0.251,0.011 0.289,0.016 0.328,0.016C0.377,0.016 0.42,0.01 0.457,-0.001C0.494,-0.012 0.525,-0.028 0.55,-0.049C0.575,-0.069 0.593,-0.093 0.606,-0.121C0.619,-0.149 0.625,-0.179 0.625,-0.212C0.625,-0.252 0.616,-0.285 0.6,-0.311C0.583,-0.336 0.562,-0.357 0.539,-0.372C0.516,-0.387 0.492,-0.399 0.469,-0.406C0.445,-0.413 0.426,-0.417 0.413,-0.42C0.368,-0.431 0.332,-0.441 0.305,-0.448C0.277,-0.455 0.255,-0.463 0.24,-0.47C0.224,-0.477 0.213,-0.485 0.208,-0.494C0.203,-0.503 0.2,-0.514 0.2,-0.528C0.2,-0.543 0.203,-0.556 0.21,-0.566C0.217,-0.576 0.225,-0.584 0.236,-0.591C0.246,-0.598 0.257,-0.602 0.27,-0.605C0.283,-0.608 0.295,-0.609 0.308,-0.609C0.327,-0.609 0.345,-0.607 0.362,-0.604C0.378,-0.601 0.392,-0.595 0.405,-0.587C0.418,-0.579 0.428,-0.568 0.436,-0.554C0.443,-0.54 0.448,-0.522 0.449,-0.501L0.601,-0.501C0.601,-0.542 0.593,-0.578 0.578,-0.607C0.562,-0.636 0.541,-0.659 0.514,-0.678C0.487,-0.697 0.457,-0.71 0.423,-0.719C0.388,-0.727 0.352,-0.731 0.315,-0.731C0.283,-0.731 0.251,-0.727 0.219,-0.718C0.187,-0.709 0.158,-0.696 0.133,-0.678C0.108,-0.66 0.087,-0.638 0.072,-0.611C0.056,-0.584 0.048,-0.552 0.048,-0.515C0.048,-0.482 0.054,-0.455 0.067,-0.432C0.079,-0.409 0.095,-0.389 0.115,-0.374C0.135,-0.359 0.158,-0.346 0.183,-0.337C0.208,-0.327 0.234,-0.319 0.261,-0.312C0.287,-0.305 0.313,-0.298 0.338,-0.292C0.363,-0.286 0.386,-0.279 0.406,-0.271C0.426,-0.263 0.442,-0.253 0.455,-0.241C0.467,-0.229 0.473,-0.213 0.473,-0.194C0.473,-0.176 0.468,-0.161 0.459,-0.15C0.45,-0.138 0.438,-0.129 0.424,-0.122C0.41,-0.115 0.395,-0.111 0.379,-0.109C0.363,-0.106 0.348,-0.105 0.334,-0.105C0.313,-0.105 0.293,-0.108 0.274,-0.113C0.255,-0.117 0.238,-0.125 0.224,-0.136C0.209,-0.146 0.198,-0.159 0.189,-0.176C0.18,-0.193 0.176,-0.213 0.176,-0.237Z" style="fill:white;fill-rule:nonzero;"/>
        </g>
        <g transform="matrix(40,0,0,40,798.336,1045.77)">
            <rect x="0.069" y="-0.714" width="0.157" height="0.714" style="fill:white;fill-rule:nonzero;"/>
        </g>
        <g transform="matrix(40,0,0,40,810.136,1045.77)">
            <path d="M0.176,-0.237L0.024,-0.237C0.023,-0.193 0.031,-0.155 0.048,-0.123C0.065,-0.091 0.087,-0.065 0.116,-0.044C0.144,-0.023 0.177,-0.008 0.214,0.002C0.251,0.011 0.289,0.016 0.328,0.016C0.377,0.016 0.42,0.01 0.457,-0.001C0.494,-0.012 0.525,-0.028 0.55,-0.049C0.575,-0.069 0.593,-0.093 0.606,-0.121C0.619,-0.149 0.625,-0.179 0.625,-0.212C0.625,-0.252 0.616,-0.285 0.6,-0.311C0.583,-0.336 0.562,-0.357 0.539,-0.372C0.516,-0.387 0.492,-0.399 0.469,-0.406C0.445,-0.413 0.426,-0.417 0.413,-0.42C0.368,-0.431 0.332,-0.441 0.305,-0.448C0.277,-0.455 0.255,-0.463 0.24,-0.47C0.224,-0.477 0.213,-0.485 0.208,-0.494C0.203,-0.503 0.2,-0.514 0.2,-0.528C0.2,-0.543 0.203,-0.556 0.21,-0.566C0.217,-0.576 0.225,-0.584 0.236,-0.591C0.246,-0.598 0.257,-0.602 0.27,-0.605C0.283,-0.608 0.295,-0.609 0.308,-0.609C0.327,-0.609 0.345,-0.607 0.362,-0.604C0.378,-0.601 0.392,-0.595 0.405,-0.587C0.418,-0.579 0.428,-0.568 0.436,-0.554C0.443,-0.54 0.448,-0.522 0.449,-0.501L0.601,-0.501C0.601,-0.542 0.593,-0.578 0.578,-0.607C0.562,-0.636 0.541,-0.659 0.514,-0.678C0.487,-0.697 0.457,-0.71 0.423,-0.719C0.388,-0.727 0.352,-0.731 0.315,-0.731C0.283,-0.731 0.251,-0.727 0.219,-0.718C0.187,-0.709 0.158,-0.696 0.133,-0.678C0.108,-0.66 0.087,-0.638 0.072,-0.611C0.056,-0.584 0.048,-0.552 0.048,-0.515C0.048,-0.482 0.054,-0.455 0.067,-0.432C0.079,-0.409 0.095,-0.389 0.115,-0.374C0.135,-0.359 0.158,-0.346 0.183,-0.337C0.208,-0.327 0.234,-0.319 0.261,-0.312C0.287,-0.305 0.313,-0.298 0.338,-0.292C0.363,-0.286 0.386,-0.279 0.406,-0.271C0.426,-0.263 0.442,-0.253 0.455,-0.241C0.467,-0.229 0.473,-0.213 0.473,-0.194C0.473,-0.176 0.468,-0.161 0.459,-0.15C0.45,-0.138 0.438,-0.129 0.424,-0.122C0.41,-0.115 0.395,-0.111 0.379,-0.109C0.363,-0.106 0.348,-0.105 0.334,-0.105C0.313,-0.105 0.293,-0.108 0.274,-0.113C0.255,-0.117 0.238,-0.125 0.224,-0.136C0.209,-0.146 0.198,-0.159 0.189,-0.176C0.18,-0.193 0.176,-0.213 0.176,-0.237Z" style="fill:white;fill-rule:nonzero;"/>
        </g>
    </g>
    <g transform="matrix(1,0,0,1,-522.51,-932.511)">
        <g transform="matrix(40,0,0,40,641.976,1045.77)">
            <path d="M0.585,-0.081L0.601,-0L0.701,-0L0.701,-0.386L0.401,-0.386L0.401,-0.269L0.559,-0.269C0.554,-0.219 0.538,-0.181 0.51,-0.155C0.481,-0.128 0.441,-0.115 0.389,-0.115C0.354,-0.115 0.324,-0.122 0.299,-0.136C0.274,-0.149 0.254,-0.167 0.239,-0.19C0.224,-0.213 0.213,-0.238 0.206,-0.267C0.199,-0.295 0.195,-0.324 0.195,-0.354C0.195,-0.385 0.199,-0.416 0.206,-0.445C0.213,-0.474 0.224,-0.501 0.239,-0.524C0.254,-0.547 0.274,-0.565 0.299,-0.579C0.324,-0.592 0.354,-0.599 0.389,-0.599C0.427,-0.599 0.459,-0.589 0.486,-0.569C0.513,-0.549 0.531,-0.519 0.54,-0.479L0.69,-0.479C0.686,-0.52 0.675,-0.556 0.657,-0.587C0.639,-0.618 0.616,-0.645 0.589,-0.666C0.561,-0.687 0.53,-0.704 0.496,-0.715C0.461,-0.725 0.426,-0.731 0.389,-0.731C0.334,-0.731 0.285,-0.721 0.242,-0.702C0.198,-0.683 0.161,-0.656 0.131,-0.622C0.101,-0.588 0.078,-0.548 0.062,-0.503C0.046,-0.457 0.038,-0.407 0.038,-0.354C0.038,-0.302 0.046,-0.254 0.062,-0.209C0.078,-0.164 0.101,-0.124 0.131,-0.091C0.161,-0.058 0.198,-0.032 0.242,-0.013C0.285,0.007 0.334,0.016 0.389,0.016C0.424,0.016 0.458,0.009 0.492,-0.006C0.526,-0.02 0.557,-0.045 0.585,-0.081Z" style="fill:white;fill-rule:nonzero;"/>
        </g>
        <g transform="matrix(40,0,0,40,672.336,1045.77)">
            <path d="M0.069,-0.714L0.069,-0L0.611,-0L0.611,-0.132L0.226,-0.132L0.226,-0.307L0.572,-0.307L0.572,-0.429L0.226,-0.429L0.226,-0.582L0.603,-0.582L0.603,-0.714L0.069,-0.714Z" style="fill:white;fill-rule:nonzero;"/>
        </g>
        <g transform="matrix(40,0,0,40,698.256,1045.77)">
            <path d="M0.069,-0.714L0.069,-0L0.216,-0L0.216,-0.478L0.218,-0.478L0.515,-0L0.672,-0L0.672,-0.714L0.525,-0.714L0.525,-0.235L0.523,-0.235L0.225,-0.714L0.069,-0.714Z" style="fill:white;fill-rule:nonzero;"/>
        </g>
        <g transform="matrix(40,0,0,40,727.896,1045.77)">
            <path d="M0.069,-0.714L0.069,-0L0.611,-0L0.611,-0.132L0.226,-0.132L0.226,-0.307L0.572,-0.307L0.572,-0.429L0.226,-0.429L0.226,-0.582L0.603,-0.582L0.603,-0.714L0.069,-0.714Z" style="fill:white;fill-rule:nonzero;"/>
        </g>
        <g transform="matrix(40,0,0,40,753.816,1045.77)">
            <path d="M0.226,-0.391L0.226,-0.592L0.398,-0.592C0.434,-0.592 0.461,-0.584 0.479,-0.569C0.497,-0.553 0.506,-0.528 0.506,-0.493C0.506,-0.457 0.497,-0.431 0.479,-0.415C0.461,-0.399 0.434,-0.391 0.398,-0.391L0.226,-0.391ZM0.069,-0.714L0.069,-0L0.226,-0L0.226,-0.279L0.383,-0.279C0.422,-0.279 0.451,-0.27 0.468,-0.253C0.485,-0.236 0.497,-0.208 0.502,-0.171C0.506,-0.142 0.509,-0.112 0.511,-0.081C0.513,-0.05 0.518,-0.023 0.527,-0L0.684,-0C0.677,-0.01 0.671,-0.022 0.668,-0.037C0.664,-0.051 0.661,-0.066 0.66,-0.082C0.658,-0.098 0.657,-0.114 0.656,-0.129C0.655,-0.144 0.655,-0.158 0.654,-0.169C0.653,-0.187 0.65,-0.205 0.647,-0.223C0.643,-0.241 0.637,-0.258 0.629,-0.273C0.621,-0.288 0.611,-0.301 0.598,-0.312C0.585,-0.323 0.569,-0.331 0.55,-0.336L0.55,-0.338C0.59,-0.354 0.619,-0.377 0.637,-0.408C0.654,-0.439 0.663,-0.475 0.663,-0.517C0.663,-0.544 0.658,-0.57 0.649,-0.594C0.639,-0.617 0.625,-0.638 0.607,-0.656C0.588,-0.674 0.566,-0.688 0.541,-0.699C0.515,-0.709 0.486,-0.714 0.454,-0.714L0.069,-0.714Z" style="fill:white;fill-rule:nonzero;"/>
        </g>
        <g transform="matrix(40,0,0,40,782.696,1045.77)">
            <path d="M0.249,-0.276L0.342,-0.538L0.344,-0.538L0.434,-0.276L0.249,-0.276ZM0.264,-0.714L-0.006,-0L0.152,-0L0.208,-0.159L0.475,-0.159L0.529,-0L0.692,-0L0.425,-0.714L0.264,-0.714Z" style="fill:white;fill-rule:nonzero;"/>
        </g>
        <g transform="matrix(40,0,0,40,806.416,1045.77)">
            <path d="M0.227,-0.582L0.227,-0L0.384,-0L0.384,-0.582L0.598,-0.582L0.598,-0.714L0.013,-0.714L0.013,-0.582L0.227,-0.582Z" style="fill:white;fill-rule:nonzero;"/>
        </g>
        <g transform="matrix(40,0,0,40,830.856,1045.77)">
            <rect x="0.069" y="-0.714" width="0.157" height="0.714" style="fill:white;fill-rule:nonzero;"/>
        </g>
        <g transform="matrix(40,0,0,40,842.656,1045.77)">
            <path d="M0.195,-0.354C0.195,-0.385 0.199,-0.416 0.206,-0.445C0.213,-0.474 0.224,-0.501 0.239,-0.524C0.254,-0.547 0.274,-0.565 0.299,-0.579C0.324,-0.592 0.354,-0.599 0.389,-0.599C0.424,-0.599 0.454,-0.592 0.479,-0.579C0.504,-0.565 0.524,-0.547 0.539,-0.524C0.554,-0.501 0.566,-0.474 0.573,-0.445C0.58,-0.416 0.583,-0.385 0.583,-0.354C0.583,-0.324 0.58,-0.295 0.573,-0.267C0.566,-0.238 0.554,-0.213 0.539,-0.19C0.524,-0.167 0.504,-0.149 0.479,-0.136C0.454,-0.122 0.424,-0.115 0.389,-0.115C0.354,-0.115 0.324,-0.122 0.299,-0.136C0.274,-0.149 0.254,-0.167 0.239,-0.19C0.224,-0.213 0.213,-0.238 0.206,-0.267C0.199,-0.295 0.195,-0.324 0.195,-0.354ZM0.038,-0.354C0.038,-0.302 0.046,-0.254 0.062,-0.209C0.078,-0.164 0.101,-0.124 0.131,-0.091C0.161,-0.058 0.198,-0.032 0.242,-0.013C0.285,0.007 0.334,0.016 0.389,0.016C0.444,0.016 0.494,0.007 0.537,-0.013C0.58,-0.032 0.617,-0.058 0.647,-0.091C0.677,-0.124 0.7,-0.164 0.716,-0.209C0.732,-0.254 0.74,-0.302 0.74,-0.354C0.74,-0.407 0.732,-0.457 0.716,-0.503C0.7,-0.548 0.677,-0.588 0.647,-0.622C0.617,-0.656 0.58,-0.683 0.537,-0.702C0.494,-0.721 0.444,-0.731 0.389,-0.731C0.334,-0.731 0.285,-0.721 0.242,-0.702C0.198,-0.683 0.161,-0.656 0.131,-0.622C0.101,-0.588 0.078,-0.548 0.062,-0.503C0.046,-0.457 0.038,-0.407 0.038,-0.354Z" style="fill:white;fill-rule:nonzero;"/>
        </g>
        <g transform="matrix(40,0,0,40,873.776,1045.77)">
            <path d="M0.069,-0.714L0.069,-0L0.216,-0L0.216,-0.478L0.218,-0.478L0.515,-0L0.672,-0L0.672,-0.714L0.525,-0.714L0.525,-0.235L0.523,-0.235L0.225,-0.714L0.069,-0.714Z" style="fill:white;fill-rule:nonzero;"/>
        </g>
    </g>
    <g transform="matrix(0.1278,0,0,0.120107,2890.39,83.6019)">
        <rect x="-8.736" y="94.9" width="7.825" height="8.326" style="fill:white;"/>
    </g>
</svg>
