<?xml version="1.0" encoding="UTF-8" standalone="no"?>
<!DOCTYPE svg PUBLIC "-//W3C//DTD SVG 1.1//EN" "http://www.w3.org/Graphics/SVG/1.1/DTD/svg11.dtd">
<svg width="100%" height="100%" viewBox="0 0 1000 400" version="1.1" xmlns="http://www.w3.org/2000/svg" xmlns:xlink="http://www.w3.org/1999/xlink" xml:space="preserve" xmlns:serif="http://www.serif.com/" style="fill-rule:evenodd;clip-rule:evenodd;stroke-linejoin:round;stroke-miterlimit:2;">
    <g transform="matrix(1,0,0,1,333.5,33.5)">
        <path d="M327.3,0L5.7,0C2.5,0 0,2.5 0,5.7L0,327.3C0,330.4 2.5,333 5.7,333L327.3,333C330.4,333 333,330.5 333,327.3L333,5.7C333,2.5 330.5,0 327.3,0Z" style="fill-rule:nonzero;"/>
    </g>
    <g transform="matrix(1,0,0,1,333.5,33.5)">
        <path d="M98,229.3C98,230.4 97.1,231.3 96,231.3L83.5,231.3C82.4,231.3 81.5,230.4 81.5,229.3L81.5,117.4L65.2,117.4C64.1,117.4 63.2,116.5 63.2,115.4L63.2,103.5C63.2,102.4 64.1,101.5 65.2,101.5L96,101.5C97.1,101.5 98,102.4 98,103.5L98,229.3Z" style="fill:#fff;fill-rule:nonzero;"/>
    </g>
    <g transform="matrix(1,0,0,1,333.5,33.5)">
        <path d="M269.8,115.4C269.8,116.5 268.9,117.4 267.8,117.4L233.4,117.4L233.4,156.4L261.7,156.4C262.8,156.4 263.7,157.3 263.7,158.4L263.7,170.3C263.7,171.4 262.8,172.3 261.7,172.3L233.4,172.3L233.4,229.4C233.4,230.5 232.5,231.4 231.4,231.4L218.9,231.4C217.8,231.4 216.9,230.5 216.9,229.4L216.9,103.5C216.9,102.4 217.8,101.5 218.9,101.5L267.8,101.5C268.9,101.5 269.8,102.4 269.8,103.5L269.8,115.4Z" style="fill:#fff;fill-rule:nonzero;"/>
    </g>
    <g transform="matrix(1,0,0,1,333.5,33.5)">
        <path d="M157.5,233.4C135.6,233.4 117.7,215.5 117.7,193.6C117.7,180.4 124.1,168.5 134.8,161.1C127.1,154.5 122.5,144.8 122.5,134.7C122.5,115.4 138.2,99.7 157.5,99.7C176.8,99.7 192.5,115.4 192.5,134.7C192.5,144.9 187.9,154.5 180.2,161.1C190.9,168.5 197.3,180.5 197.3,193.6C197.3,215.5 179.4,233.4 157.5,233.4ZM157.5,169.6C144.3,169.6 133.6,180.3 133.6,193.5C133.6,206.7 144.3,217.4 157.5,217.4C170.7,217.4 181.4,206.7 181.4,193.5C181.4,180.4 170.7,169.6 157.5,169.6ZM157.5,153.8C168.1,153.8 176.6,145.2 176.6,134.7C176.6,124.1 168,115.6 157.5,115.6C147,115.6 138.4,124.2 138.4,134.7C138.4,145.2 146.9,153.8 157.5,153.8Z" style="fill:#fff;fill-rule:nonzero;"/>
    </g>
</svg>
