<?xml version="1.0" encoding="UTF-8" standalone="no"?>
<!DOCTYPE svg PUBLIC "-//W3C//DTD SVG 1.1//EN" "http://www.w3.org/Graphics/SVG/1.1/DTD/svg11.dtd">
<svg width="100%" height="100%" viewBox="0 0 809 210" version="1.1" xmlns="http://www.w3.org/2000/svg" xmlns:xlink="http://www.w3.org/1999/xlink" xml:space="preserve" xmlns:serif="http://www.serif.com/" style="fill-rule:evenodd;clip-rule:evenodd;stroke-linejoin:round;stroke-miterlimit:2;">
    <g transform="matrix(1,0,0,1,-97.26,-109.852)">
        <path d="M112.78,295.36C104.46,311.68 97.26,312.09 97.26,312.09C97.73,312.25 98.19,312.41 98.65,312.55C100.5,313.16 102.31,313.71 104.08,314.22C113.291,316.97 122.821,318.513 132.43,318.81L135.81,318.81C143.988,318.734 152.086,317.179 159.71,314.22C179.86,306.22 187.01,290.46 187.01,290.46L222.82,220.17L235.59,195C237.82,191.06 242.011,188.617 246.538,188.617C250.983,188.617 255.11,190.973 257.37,194.8L276.82,183.08C276.67,182.78 243.47,169.08 241.1,168.59C238.28,167.98 224.45,171.41 223.44,172.44C221.762,174.264 220.243,176.228 218.9,178.31C218.56,178.87 218.23,179.43 217.9,179.96C217.872,180.028 217.835,180.092 217.79,180.15C217.08,181.41 216.51,182.5 216.22,183.07L178.86,256.38L170.03,273.72C157.23,297.28 138.26,295.06 138.26,295.06L139.1,293.47L112.78,295.36Z" style="fill:url(#_Linear1);fill-rule:nonzero;"/>
    </g>
    <g transform="matrix(1,0,0,1,-97.26,-109.852)">
        <path d="M307.61,293.48C307.79,293.84 308.08,294.39 308.45,295.07C308.45,295.07 289.16,297.33 276.35,273.12L267.78,256.3C267.49,255.73 266.92,254.64 266.21,253.39L266.1,253.19C265.8,252.66 265.47,252.1 265.1,251.54C263.757,249.458 262.238,247.494 260.56,245.67C258.212,243.265 255.544,241.195 252.63,239.52L252.01,239.17L251.93,239.17L251.61,239C245.16,235.57 236.61,234 225.88,237.78C225.88,237.78 233.08,238.18 241.4,254.51L259.72,290.51C259.72,290.51 266.89,306.28 287.12,314.31C299.89,319.37 317.85,321.31 342.48,314.31C344.31,313.78 346.17,313.22 348.07,312.6L349.47,312.14C349.47,312.14 342.27,311.73 333.95,295.41L307.61,293.48Z" style="fill:url(#_Linear2);fill-rule:nonzero;"/>
    </g>
    <g transform="matrix(1,0,0,1,-97.26,-109.852)">
        <path d="M276.82,183.11C276.53,182.54 275.95,181.46 275.25,180.2C275.209,180.136 275.172,180.069 275.14,180C274.84,179.47 274.51,178.91 274.14,178.36C272.796,176.275 271.277,174.308 269.6,172.48C267.25,170.077 264.582,168.008 261.67,166.33L261.04,165.98L260.97,165.98L260.64,165.81C259.82,165.37 258.97,164.97 258.08,164.59L257.92,164.59C250.569,161.737 242.411,161.737 235.06,164.59L234.89,164.59C234.01,164.97 233.15,165.37 232.33,165.81L232,165.98L231.93,165.98L231.31,166.33C230.158,166.977 229.052,167.702 228,168.5C226.377,169.711 224.853,171.049 223.44,172.5C242.97,168.45 252,183.9 257.38,194.87L270.28,220.19L284.7,248.42L307.63,293.52L308.8,295.82C314.87,308.18 328.86,316.43 348.8,312.3C349.031,312.242 349.259,312.168 349.48,312.08C349.701,311.992 342.27,311.68 333.95,295.36L295.17,219.11L294.82,218.44L276.82,183.11Z" style="fill:url(#_Linear3);fill-rule:nonzero;"/>
    </g>
    <g transform="matrix(1,0,0,1,-97.26,-109.852)">
        <path d="M138,295.82C138,295.82 139,293.88 139.17,293.52L176.53,220.21L188.82,196L219.16,136.45C221.16,132.59 231.47,113.19 238.64,111.94L238.32,111.83C214.67,103.83 201.45,122.18 197.15,129.77L196.76,130.51L195.57,132.85L178.66,166L178.31,166.67L141,240L132.6,256.49L112.79,295.37C104.47,311.69 97.27,312.1 97.27,312.1C97.45,312.16 97.77,312.28 97.94,312.32C117.91,316.43 131.9,308.18 138,295.82Z" style="fill:url(#_Linear4);fill-rule:nonzero;"/>
    </g>
    <g transform="matrix(1,0,0,1,-97.26,-109.852)">
        <path d="M429.16,268.33L422.07,259.21L421.07,259.21C419.07,261.777 415.76,264.273 411.14,266.7C406.52,269.127 400.373,270.343 392.7,270.35C389.55,270.307 386.418,269.863 383.38,269.03C379.944,268.133 376.713,266.585 373.86,264.47C370.751,262.156 368.191,259.186 366.36,255.77C364.36,252.11 363.36,247.53 363.36,241.99C363.36,236.45 364.78,231.86 367.62,228.21C370.63,224.422 374.524,221.431 378.96,219.5C384.186,217.2 389.716,215.664 395.38,214.94C401.881,214.041 408.437,213.6 415,213.62L421.08,213.62C421.195,207.804 420.651,201.994 419.46,196.3C418.697,192.523 417.18,188.938 415,185.76C413.299,183.405 410.935,181.608 408.21,180.6C405.511,179.64 402.665,179.16 399.8,179.18C394.133,179.18 389.373,180.393 385.52,182.82C381.667,185.247 379,189.773 377.52,196.4L368.41,196.4C368.394,193.113 368.598,189.829 369.02,186.57C369.514,183.346 371.083,180.382 373.47,178.16C374.976,176.767 376.729,175.668 378.64,174.92C381.025,173.929 383.504,173.182 386.04,172.69C388.883,172.132 391.754,171.728 394.64,171.48C397.68,171.213 400.753,171.077 403.86,171.07C408.328,171.057 412.781,171.567 417.13,172.59C421.377,173.596 425.29,175.691 428.48,178.67C431.813,181.71 434.447,186.043 436.38,191.67C438.313,197.297 439.293,204.63 439.32,213.67L439.32,268.38L429.16,268.33ZM421.06,221.72L415,221.72C404.873,221.72 396.937,223.58 391.19,227.3C385.443,231.02 382.567,235.92 382.56,242C382.498,244.919 383.05,247.818 384.18,250.51C385.169,252.807 386.619,254.876 388.44,256.59C390.177,258.204 392.25,259.413 394.51,260.13C396.869,260.884 399.333,261.259 401.81,261.24C406.803,261.24 410.753,259.993 413.66,257.5C416.511,255.06 419.002,252.228 421.06,249.09L421.06,221.72Z" style="fill:url(#_Linear5);fill-rule:nonzero;"/>
    </g>
    <g transform="matrix(1,0,0,1,-97.26,-109.852)">
        <path d="M544.44,268.33L534.31,268.33L527.22,259.21L526.22,259.21C525.14,260.42 523.89,261.71 522.47,263.06C520.87,264.532 519.06,265.759 517.1,266.7C514.648,267.885 512.063,268.772 509.4,269.34C505.937,270.057 502.406,270.393 498.87,270.34C493.277,270.444 487.756,269.064 482.87,266.34C478.291,263.719 474.374,260.082 471.42,255.71C468.237,250.922 465.941,245.6 464.64,240C463.114,233.665 462.365,227.167 462.41,220.65C462.363,214.127 463.146,207.625 464.74,201.3C466.116,195.675 468.52,190.352 471.83,185.6C474.95,181.207 479.03,177.581 483.76,175C489.035,172.236 494.927,170.859 500.88,171C505.817,170.919 510.737,171.594 515.47,173C519.141,174.136 522.729,175.523 526.21,177.15L526.21,158.91C526.21,152.843 525.367,147.947 523.68,144.22C521.993,140.493 518.1,138.637 512,138.65L508,138.65L508,134.6L526.23,134.6C529.193,134.539 532.152,134.844 535.04,135.51C537.291,136.049 539.294,137.337 540.72,139.16C542.293,141.384 543.299,143.959 543.65,146.66C544.252,150.715 544.523,154.811 544.46,158.91L544.44,268.33ZM526.21,185.25C523.103,183.77 519.893,182.387 516.58,181.1C513.52,179.868 510.258,179.217 506.96,179.18C502.838,179.046 498.771,180.177 495.31,182.42C492.043,184.69 489.368,187.712 487.51,191.23C485.343,195.359 483.838,199.804 483.05,204.4C482.083,209.782 481.611,215.242 481.64,220.71C481.626,226.169 482.081,231.619 483,237C483.721,241.586 485.159,246.03 487.26,250.17C488.974,253.623 491.449,256.643 494.5,259C497.528,261.199 501.199,262.339 504.94,262.24C507.575,262.292 510.203,261.955 512.74,261.24C514.825,260.636 516.805,259.716 518.61,258.51C520.231,257.428 521.669,256.094 522.87,254.56C524.01,253.07 525.13,251.56 526.21,250.1L526.21,185.25Z" style="fill:url(#_Linear6);fill-rule:nonzero;"/>
    </g>
    <g transform="matrix(1,0,0,1,-97.26,-109.852)">
        <path d="M568.15,220.71C568.101,214.145 569.093,207.614 571.09,201.36C572.91,195.595 575.873,190.256 579.8,185.66C588.006,176.087 600.116,170.72 612.72,171.07C619.223,170.975 625.666,172.342 631.57,175.07C636.955,177.594 641.751,181.219 645.65,185.71C649.574,190.308 652.536,195.647 654.36,201.41C658.279,214.011 658.279,227.509 654.36,240.11C652.538,245.877 649.576,251.219 645.65,255.82C641.751,260.308 636.954,263.929 631.57,266.45C619.529,271.714 605.821,271.714 593.78,266.45C588.428,263.914 583.66,260.294 579.78,255.82C575.85,251.222 572.888,245.879 571.07,240.11C569.073,233.839 568.088,227.291 568.15,220.71ZM638.05,220.71C638.084,215.221 637.473,209.747 636.23,204.4C635.183,199.774 633.44,195.333 631.06,191.23C629.048,187.759 626.321,184.756 623.06,182.42C616.862,178.109 608.588,178.109 602.39,182.42C599.126,184.753 596.399,187.757 594.39,191.23C592.01,195.333 590.267,199.774 589.22,204.4C586.794,215.138 586.794,226.282 589.22,237.02C590.263,241.648 592.006,246.089 594.39,250.19C596.396,253.668 599.124,256.676 602.39,259.01C608.588,263.321 616.862,263.321 623.06,259.01C626.324,256.673 629.051,253.666 631.06,250.19C633.445,246.083 635.189,241.634 636.23,237C637.473,231.66 638.083,226.193 638.05,220.71Z" style="fill:url(#_Linear7);fill-rule:nonzero;"/>
    </g>
    <g transform="matrix(1,0,0,1,-97.26,-109.852)">
        <path d="M700.05,268.33L681.81,268.33L681.81,158.91C681.81,152.843 680.967,147.947 679.28,144.22C677.593,140.493 673.71,138.637 667.63,138.65L663.63,138.65L663.63,134.6L681.86,134.6C684.826,134.539 687.789,134.844 690.68,135.51C692.928,136.05 694.928,137.337 696.35,139.16C697.93,141.381 698.94,143.957 699.29,146.66C699.892,150.715 700.163,154.811 700.1,158.91L700.05,268.33Z" style="fill:url(#_Linear8);fill-rule:nonzero;"/>
    </g>
    <g transform="matrix(1,0,0,1,-97.26,-109.852)">
        <path d="M809.25,268.33L799.12,268.33L792,260.22L791,260.22C783.896,266.926 774.427,270.567 764.66,270.35C760.394,270.358 756.143,269.848 752,268.83C747.938,267.834 744.168,265.891 741,263.16C737.544,260.082 734.87,256.226 733.2,251.91C731.24,247.19 730.26,241.19 730.26,233.91L730.26,197.41C730.26,191.33 729.417,186.433 727.73,182.72C726.043,179.007 722.16,177.15 716.08,177.15L714.08,177.15L714.08,173.1L730.28,173.1C733.246,173.039 736.209,173.344 739.1,174.01C741.35,174.546 743.351,175.834 744.77,177.66C746.352,179.88 747.362,182.456 747.71,185.16C748.312,189.215 748.583,193.311 748.52,197.41L748.52,233.88C748.398,238.25 749.051,242.608 750.45,246.75C751.531,249.873 753.255,252.735 755.51,255.15C757.479,257.235 759.907,258.834 762.6,259.82C765.235,260.761 768.012,261.238 770.81,261.23C774.772,261.244 778.655,260.123 782,258C785.332,255.931 788.361,253.411 791,250.51L791,173.1L809.23,173.1L809.25,268.33Z" style="fill:url(#_Linear9);fill-rule:nonzero;"/>
    </g>
    <g transform="matrix(1,0,0,1,-97.26,-109.852)">
        <path d="M905.7,244C905.801,247.957 904.87,251.872 903,255.36C901.173,258.609 898.645,261.41 895.6,263.56C892.197,265.927 888.387,267.646 884.36,268.63C879.76,269.804 875.028,270.382 870.28,270.35C862.173,270.35 855.553,269.64 850.42,268.22C845.29,266.8 841.42,264.82 838.87,262.22C836.435,259.906 834.861,256.829 834.41,253.5C833.962,249.329 833.762,245.135 833.81,240.94L837.86,240.94C838.94,247.56 841.777,252.763 846.37,256.55C850.963,260.337 857.583,262.227 866.23,262.22C873.93,262.22 879.567,260.87 883.14,258.17C886.713,255.47 888.503,252.09 888.51,248.03C888.57,244.117 886.9,240.371 883.95,237.8C880.95,235.04 876.36,232.36 870.28,229.8L858.12,224.73C850.42,221.63 844.443,217.963 840.19,213.73C835.937,209.497 833.81,204.06 833.81,197.42C833.56,189.738 837.128,182.41 843.33,177.87C846.499,175.543 850.073,173.823 853.87,172.8C858.227,171.617 862.726,171.038 867.24,171.08C874.94,171.08 881.273,171.79 886.24,173.21C891.207,174.63 894.99,176.63 897.59,179.21C900.021,181.523 901.595,184.595 902.05,187.92C902.502,192.091 902.705,196.285 902.66,200.48L898.6,200.48C897.52,193.873 894.717,188.673 890.19,184.88C885.663,181.087 879.35,179.197 871.25,179.21C864.63,179.21 859.6,180.543 856.16,183.21C852.897,185.553 850.97,189.343 851,193.36C851.059,197.01 852.598,200.483 855.26,202.98C858.712,206.289 862.793,208.873 867.26,210.58L879.42,215.65C888.087,219.157 894.637,223.003 899.07,227.19C903.503,231.377 905.713,236.98 905.7,244Z" style="fill:url(#_Linear10);fill-rule:nonzero;"/>
    </g>
    <defs>
        <linearGradient id="_Linear1" x1="0" y1="0" x2="1" y2="0" gradientUnits="userSpaceOnUse" gradientTransform="matrix(70.79,-140.64,140.64,70.79,159.38,302.56)"><stop offset="0" style="stop-color:rgb(31,92,128);stop-opacity:1"/><stop offset="0.26" style="stop-color:rgb(34,101,141);stop-opacity:1"/><stop offset="0.5" style="stop-color:rgb(36,106,147);stop-opacity:1"/><stop offset="1" style="stop-color:rgb(31,92,128);stop-opacity:1"/></linearGradient>
        <linearGradient id="_Linear2" x1="0" y1="0" x2="1" y2="0" gradientUnits="userSpaceOnUse" gradientTransform="matrix(-136.33,-140.78,140.78,-136.33,313.81,311.71)"><stop offset="0" style="stop-color:rgb(31,92,128);stop-opacity:1"/><stop offset="0.26" style="stop-color:rgb(34,101,141);stop-opacity:1"/><stop offset="0.5" style="stop-color:rgb(36,106,147);stop-opacity:1"/><stop offset="1" style="stop-color:rgb(22,140,156);stop-opacity:1"/></linearGradient>
        <linearGradient id="_Linear3" x1="0" y1="0" x2="1" y2="0" gradientUnits="userSpaceOnUse" gradientTransform="matrix(-82.65,-163.25,163.25,-82.65,318.36,305.26)"><stop offset="0" style="stop-color:rgb(31,92,128);stop-opacity:1"/><stop offset="0.02" style="stop-color:rgb(31,92,128);stop-opacity:1"/><stop offset="0.08" style="stop-color:rgb(34,101,141);stop-opacity:1"/><stop offset="0.15" style="stop-color:rgb(36,106,147);stop-opacity:1"/><stop offset="1" style="stop-color:rgb(83,180,189);stop-opacity:1"/></linearGradient>
        <linearGradient id="_Linear4" x1="0" y1="0" x2="1" y2="0" gradientUnits="userSpaceOnUse" gradientTransform="matrix(101.61,-200.59,200.59,101.61,117.14,312.3)"><stop offset="0" style="stop-color:rgb(31,92,128);stop-opacity:1"/><stop offset="0.06" style="stop-color:rgb(31,92,128);stop-opacity:1"/><stop offset="0.13" style="stop-color:rgb(34,101,141);stop-opacity:1"/><stop offset="0.19" style="stop-color:rgb(36,106,147);stop-opacity:1"/><stop offset="1" style="stop-color:rgb(83,180,189);stop-opacity:1"/></linearGradient>
        <linearGradient id="_Linear5" x1="0" y1="0" x2="1" y2="0" gradientUnits="userSpaceOnUse" gradientTransform="matrix(9.39427e-15,-153.42,153.42,9.39427e-15,401.3,278.44)"><stop offset="0" style="stop-color:rgb(65,76,86);stop-opacity:1"/><stop offset="0.01" style="stop-color:rgb(68,80,90);stop-opacity:1"/><stop offset="0.15" style="stop-color:rgb(91,106,120);stop-opacity:1"/><stop offset="0.25" style="stop-color:rgb(96,112,127);stop-opacity:1"/><stop offset="0.5" style="stop-color:rgb(98,114,129);stop-opacity:1"/><stop offset="1" style="stop-color:rgb(120,134,147);stop-opacity:1"/></linearGradient>
        <linearGradient id="_Linear6" x1="0" y1="0" x2="1" y2="0" gradientUnits="userSpaceOnUse" gradientTransform="matrix(1.2753e-12,-20827.3,20827.3,1.2753e-12,41773.5,37933.7)"><stop offset="0" style="stop-color:rgb(65,76,86);stop-opacity:1"/><stop offset="0.01" style="stop-color:rgb(68,80,90);stop-opacity:1"/><stop offset="0.15" style="stop-color:rgb(91,106,120);stop-opacity:1"/><stop offset="0.25" style="stop-color:rgb(96,112,127);stop-opacity:1"/><stop offset="0.5" style="stop-color:rgb(98,114,129);stop-opacity:1"/><stop offset="1" style="stop-color:rgb(120,134,147);stop-opacity:1"/></linearGradient>
        <linearGradient id="_Linear7" x1="0" y1="0" x2="1" y2="0" gradientUnits="userSpaceOnUse" gradientTransform="matrix(9.33264e-13,-15241.4,15241.4,9.33264e-13,55193.5,27832.4)"><stop offset="0" style="stop-color:rgb(65,76,86);stop-opacity:1"/><stop offset="0.01" style="stop-color:rgb(68,80,90);stop-opacity:1"/><stop offset="0.15" style="stop-color:rgb(91,106,120);stop-opacity:1"/><stop offset="0.25" style="stop-color:rgb(96,112,127);stop-opacity:1"/><stop offset="0.5" style="stop-color:rgb(98,114,129);stop-opacity:1"/><stop offset="1" style="stop-color:rgb(120,134,147);stop-opacity:1"/></linearGradient>
        <linearGradient id="_Linear8" x1="0" y1="0" x2="1" y2="0" gradientUnits="userSpaceOnUse" gradientTransform="matrix(1.25637e-12,-20518,20518,1.25637e-12,25535.3,37372.5)"><stop offset="0" style="stop-color:rgb(65,76,86);stop-opacity:1"/><stop offset="0.01" style="stop-color:rgb(68,80,90);stop-opacity:1"/><stop offset="0.15" style="stop-color:rgb(91,106,120);stop-opacity:1"/><stop offset="0.25" style="stop-color:rgb(96,112,127);stop-opacity:1"/><stop offset="0.5" style="stop-color:rgb(98,114,129);stop-opacity:1"/><stop offset="1" style="stop-color:rgb(120,134,147);stop-opacity:1"/></linearGradient>
        <linearGradient id="_Linear9" x1="0" y1="0" x2="1" y2="0" gradientUnits="userSpaceOnUse" gradientTransform="matrix(9.13751e-13,-14922.7,14922.7,9.13751e-13,73199.4,27256.1)"><stop offset="0" style="stop-color:rgb(65,76,86);stop-opacity:1"/><stop offset="0.01" style="stop-color:rgb(68,80,90);stop-opacity:1"/><stop offset="0.15" style="stop-color:rgb(91,106,120);stop-opacity:1"/><stop offset="0.25" style="stop-color:rgb(96,112,127);stop-opacity:1"/><stop offset="0.5" style="stop-color:rgb(98,114,129);stop-opacity:1"/><stop offset="1" style="stop-color:rgb(120,134,147);stop-opacity:1"/></linearGradient>
        <linearGradient id="_Linear10" x1="0" y1="0" x2="1" y2="0" gradientUnits="userSpaceOnUse" gradientTransform="matrix(9.32601e-13,-15230.5,15230.5,9.32601e-13,63375.8,27812.8)"><stop offset="0" style="stop-color:rgb(65,76,86);stop-opacity:1"/><stop offset="0.01" style="stop-color:rgb(68,80,90);stop-opacity:1"/><stop offset="0.15" style="stop-color:rgb(91,106,120);stop-opacity:1"/><stop offset="0.25" style="stop-color:rgb(96,112,127);stop-opacity:1"/><stop offset="0.5" style="stop-color:rgb(98,114,129);stop-opacity:1"/><stop offset="1" style="stop-color:rgb(120,134,147);stop-opacity:1"/></linearGradient>
    </defs>
</svg>
