<?xml version="1.0" encoding="UTF-8" standalone="no"?>
<!DOCTYPE svg PUBLIC "-//W3C//DTD SVG 1.1//EN" "http://www.w3.org/Graphics/SVG/1.1/DTD/svg11.dtd">
<svg width="100%" height="100%" viewBox="0 0 755 222" version="1.1" xmlns="http://www.w3.org/2000/svg" xmlns:xlink="http://www.w3.org/1999/xlink" xml:space="preserve" xmlns:serif="http://www.serif.com/" style="fill-rule:evenodd;clip-rule:evenodd;stroke-linejoin:round;stroke-miterlimit:2;">
    <g transform="matrix(1,0,0,1,-138.13,-261)">
        <path d="M138.13,419.02C161.67,366.35 185.19,313.67 208.72,261L232.87,261C256.76,313.67 280.67,366.34 304.56,419.02L273.69,419.02C267.78,406.19 261.88,393.35 255.96,380.52C232.74,380.51 209.52,380.52 186.29,380.52C180.53,393.35 174.77,406.19 169,419.02L138.13,419.02M197.53,355.5L244.5,355.5C236.61,338.18 228.67,320.88 220.8,303.54C213.05,320.86 205.29,338.18 197.53,355.5Z" style="fill-rule:nonzero;"/>
    </g>
    <g transform="matrix(1,0,0,1,-138.13,-261)">
        <path d="M352.9,322.17C356.87,313.73 364.66,306.86 373.98,305.18C382.02,303.8 390.36,304.67 398.15,307.01C407.98,309.95 416.65,316.84 421.33,326.02C425.93,317 434.04,309.67 443.76,306.62C452.05,303.85 461.03,304.14 469.54,305.65C480.69,307.65 490.92,314.61 496.54,324.49C503.01,335.46 504.57,348.48 505.05,360.99C505.12,380.33 505.06,399.68 505.08,419.02L477.48,419.02L477.48,366.97C477.56,356.6 477.16,345.5 471.55,336.42C467.94,330.43 460.82,327.39 453.99,327.5C447.07,327.13 439.6,329.62 435.57,335.54C430.5,342.95 429.34,352.23 429.07,360.99C428.99,380.33 429.06,399.68 429.04,419.02L401.42,419.02C401.42,401 401.41,382.99 401.42,364.97C401.41,355.04 400.68,344.41 395.1,335.86C391.2,329.92 383.87,327.21 376.98,327.5C369.67,327.21 362,330.59 358.4,337.18C352.39,347.71 352.94,360.28 352.93,372L352.93,419.02L325.34,419.02C325.34,381.51 325.35,344.01 325.34,306.5C334.54,306.5 343.73,306.51 352.93,306.5C352.91,311.72 352.96,316.95 352.9,322.17Z" style="fill-rule:nonzero;"/>
    </g>
    <g transform="matrix(1,0,0,1,-138.13,-261)">
        <path d="M543.69,323.66C554.64,310.62 571.96,303.53 588.9,304.61C602.05,305.18 614.52,312.68 621.44,323.84C621.39,318.06 621.42,312.28 621.42,306.5L649.04,306.5L649.04,419.02L621.42,419.02C621.41,413.23 621.42,407.44 621.47,401.65C615.53,411.17 605.63,418.17 594.55,420.19C577.45,423.2 559.09,417.46 546.79,405.19C525.41,384.04 524.29,346.45 543.69,323.66M582.32,328.2C576.71,329.41 571.51,332.34 567.48,336.42C557.47,346.71 555.25,362.86 559.68,376.19C562.86,386.05 570.92,394.41 581.08,397C588.79,398.86 597.34,398.3 604.37,394.41C612.45,390.15 617.96,382.02 620.15,373.28C623.49,359.99 620.48,344.38 609.99,335.01C602.61,328.29 591.94,326.15 582.32,328.2Z" style="fill-rule:nonzero;"/>
    </g>
    <g transform="matrix(1,0,0,1,-138.13,-261)">
        <path d="M681.72,319.63C689.55,310.71 701.41,306.47 712.93,305.1C726.7,303.58 741.57,304.75 753.48,312.44C762.1,318.05 768.42,326.99 770.79,337.02L742.71,337.02C739.84,330.63 732.52,327.87 725.95,327.57C719.22,327.36 711.92,327.49 706.09,331.28C701.51,334.12 700.39,341.68 704.91,345.08C708.94,348.06 714.05,349.02 718.9,349.82C731.38,351.43 744.3,352.66 755.74,358.33C763.31,362.04 770.1,368.3 772.61,376.55C775.29,385.73 774.31,396.44 768.19,404.08C761.2,413.14 749.97,417.68 738.99,419.6C724.17,421.99 708.34,421.7 694.4,415.62C682.65,410.54 673.49,399.72 671.18,387.03C680.54,386.96 689.92,387.02 699.29,387C703.13,395.01 712.67,397.99 720.97,397.98C728.68,398 737.48,397.98 743.61,392.57C747.68,389.26 747.28,382.03 742.53,379.54C734.42,375.05 724.86,375.1 715.93,373.71C704.74,371.95 693,369.36 684.12,361.89C671.92,351.67 671.24,331.3 681.72,319.63Z" style="fill-rule:nonzero;"/>
    </g>
    <g transform="matrix(1,0,0,1,-138.13,-261)">
        <path d="M801.86,317.88C812.86,307.16 829.07,304.14 843.92,304.57C857.08,304.82 870.88,309.07 879.85,319.16C884.51,324.15 887.62,330.43 889.29,337.02C879.93,337.01 870.58,337.04 861.22,337C858.4,330.82 851.39,328.01 844.98,327.6C838.23,327.33 830.95,327.41 824.99,331.01C821.11,333.27 819.3,338.64 821.39,342.7C822.79,345.34 825.69,346.66 828.36,347.68C836.53,350.54 845.32,350.36 853.73,352.1C865.19,354.13 877.29,357.66 885.36,366.57C892.27,373.94 893.87,385.02 891.47,394.57C889.19,403.15 882.44,409.88 874.75,413.92C863.81,419.63 851.18,421.14 839,420.94C825.74,420.65 811.69,417.5 801.67,408.29C795.38,402.82 791.31,395.13 789.68,387.01C799.05,386.98 808.41,387.01 817.78,387C821.73,395.17 831.52,398.09 839.98,397.98C847.61,397.97 856.37,397.88 862.31,392.36C866.37,388.87 865.55,381.55 860.62,379.29C852.1,374.87 842.23,375.05 832.98,373.49C821.95,371.65 810.34,368.87 801.82,361.17C789.74,350.16 790.06,329 801.86,317.88Z" style="fill-rule:nonzero;"/>
    </g>
    <g transform="matrix(1,0,0,1,-138.13,-261)">
        <path d="M689.47,446.64C698.4,443.98 708.79,449.48 711.33,458.51C714.32,467.41 709.24,478.19 700.15,480.99C691.13,484.38 679.94,479.18 677.14,469.86C673.76,460.43 679.52,448.84 689.47,446.64M689.38,452.48C679.54,456.94 680.85,474.14 691.73,476.32C699.98,478.44 707.15,469.89 705.51,462.03C705.1,454.4 696.31,448.94 689.38,452.48Z" style="fill-rule:nonzero;"/>
    </g>
    <g transform="matrix(1,0,0,1,-138.13,-261)">
        <path d="M804.77,448.78C810.03,445.25 817.35,445.07 822.92,448.02C825.76,449.48 827.04,452.55 828.04,455.41C825.87,455.46 823.72,455.51 821.57,455.53C819.41,451.09 813.54,450.46 809.53,452.53C806.91,453.85 807.07,457.95 809.82,459.05C814.91,461.26 821.05,460.76 825.63,464.28C830.43,467.74 829.86,475.84 825.07,479.06C820.13,482.39 813.56,482.71 807.97,481.03C803.93,479.96 801.11,476.48 799.97,472.58C802.12,472.52 804.29,472.49 806.46,472.48C809.1,477 815.24,477.41 819.65,475.58C822.49,474.49 823.67,469.93 820.85,468.18C815.61,465.56 809.08,466.36 804.33,462.56C799.88,459.32 800.23,451.8 804.77,448.78Z" style="fill-rule:nonzero;"/>
    </g>
    <g transform="matrix(1,0,0,1,-138.13,-261)">
        <path d="M834.78,446.5C840.74,446.54 846.71,446.43 852.68,446.53C856.47,446.64 860.6,448.11 862.57,451.58C865.54,456.82 864.36,464.95 858.47,467.64C853.03,470 846.9,468.65 841.16,469L841.16,481.5C839.03,481.49 836.9,481.49 834.78,481.5C834.77,469.83 834.77,458.17 834.78,446.5M841.16,452C841.16,455.83 841.16,459.66 841.17,463.5C845.31,463.41 849.47,463.71 853.6,463.36C858.88,462.44 859,453.45 853.88,452.2C849.66,451.73 845.4,452.11 841.16,452Z" style="fill-rule:nonzero;"/>
    </g>
    <g transform="matrix(1,0,0,1,-138.13,-261)">
        <path d="M878.36,446.17C886.1,444.49 893.71,453.17 890.36,460.58C887.66,468.19 876.38,469.9 871.59,463.37C866.34,457.41 870.55,447.07 878.36,446.17M876.34,449.36C870.85,451.89 870.28,460.38 875.44,463.58C880.45,467.42 888.65,463.36 888.48,457C889,450.89 881.61,446.34 876.34,449.36Z" style="fill-rule:nonzero;"/>
    </g>
    <g transform="matrix(1,0,0,1,-138.13,-261)">
        <path d="M714.03,446.51C716.29,446.5 718.57,446.5 720.85,446.5C723.55,454.28 726.11,462.11 728.8,469.89C731.22,462.11 733.55,454.3 735.92,446.5C737.74,446.5 739.57,446.49 741.42,446.5C743.8,454.31 746.14,462.14 748.55,469.95C751.2,462.14 753.79,454.3 756.46,446.5L763.3,446.5C759.21,458.16 755.15,469.83 751.07,481.49C749.4,481.49 747.73,481.5 746.08,481.51C743.6,473.4 741.22,465.26 738.66,457.18C736.17,465.28 733.72,473.39 731.27,481.5C729.59,481.49 727.92,481.49 726.26,481.49C722.21,469.82 718.1,458.17 714.03,446.51Z" style="fill-rule:nonzero;"/>
    </g>
    <g transform="matrix(1,0,0,1,-138.13,-261)">
        <path d="M760.02,481.5C765.25,469.84 770.46,458.17 775.67,446.5C777.41,446.49 779.17,446.5 780.93,446.5C786.22,458.17 791.51,469.83 796.83,481.49C794.56,481.49 792.32,481.5 790.07,481.5C788.77,478.66 787.45,475.83 786.14,473L770.61,473C769.32,475.83 768.04,478.66 766.77,481.5C764.51,481.49 762.25,481.49 760.02,481.5M778.28,455.88C776.55,459.76 774.82,463.63 773.09,467.51C776.59,467.5 780.1,467.5 783.61,467.49C781.83,463.62 780.07,459.74 778.28,455.88Z" style="fill-rule:nonzero;"/>
    </g>
    <g transform="matrix(1,0,0,1,-138.13,-261)">
        <path d="M876.41,451.47C878.82,451.65 881.58,450.92 883.67,452.49C885.19,454.22 884.1,456.5 882.75,457.93C883.36,459.21 883.98,460.51 884.6,461.81C881.5,461.98 881.19,458.38 878.87,457.14C878.77,458.59 878.71,460.04 878.68,461.51C878.12,461.5 876.98,461.5 876.41,461.5C876.41,458.15 876.4,454.81 876.41,451.47M877.8,455.06C879.5,455.35 881.9,456.27 882.55,453.93C880.88,453.97 879.16,453.99 877.8,455.06Z" style="fill-rule:nonzero;"/>
    </g>
</svg>
