<?xml version="1.0" encoding="UTF-8"?> <svg xmlns="http://www.w3.org/2000/svg" viewBox="0 0 170 44.15811"><defs><style>.cls-1{fill:#307fe2;}</style></defs><g id="Layer_2" data-name="Layer 2"><g id="Layer_1-2" data-name="Layer 1"><path class="cls-1" d="M10.64345,12.86519A10.4329,10.4329,0,0,0,.44271,19.76747c-.056.52538.08061,1.47706,1.62463,1.95393,1.69295.52059,2.31739-.35048,2.54421-.92572a6.24945,6.24945,0,0,1,6.0319-4.15723c3.79718,0,6.55317,2.53875,6.55317,6.036v1.49892c0,.70095-.93665,1.15869-1.8207,1.35477l-7.53766,1.969C2.19783,28.78082,0,30.96635,0,35.291c0,5.05494,4.57534,8.86715,10.64345,8.86715,6.465,0,10.64276-3.95159,10.64276-10.06547l.16738-11.47626C21.45359,16.96639,16.90763,12.86519,10.64345,12.86519Zm0,27.51418c-3.70017,0-6.38648-2.13975-6.38648-5.08841,0-2.69588,1.475-3.52322,4.58012-4.26585l6.45684-1.72984a5.68514,5.68514,0,0,0,1.889-.69344l-.15372,5.30157v.00615C17.02924,39.74879,12.56322,40.37937,10.64345,40.37937Z"></path><path class="cls-1" d="M70.16532,32.86426c-1.35067-.18924-2.18758.39489-2.31533,1.07466a6.458,6.458,0,0,1-6.4794,5.13624c-3.9994,0-6.58323-2.79972-6.58323-7.13184V23.81539c0-4.33212,2.58383-7.13184,6.58323-7.13184a6.45727,6.45727,0,0,1,6.4794,5.1376c.12775.677.95646,1.26049,2.31533,1.07329a2.46184,2.46184,0,0,0,1.67519-.85945,1.32253,1.32253,0,0,0,.25688-1.00156c-.87039-4.73316-5.3815-8.16824-10.7268-8.16824-5.24281,0-10.886,3.33056-10.886,10.64413v8.74007c0,7.31357,5.64317,10.64413,10.886,10.64413,5.3453,0,9.85641-3.43577,10.72748-8.17371a1.31966,1.31966,0,0,0-.25756-.99678A2.45741,2.45741,0,0,0,70.16532,32.86426Z"></path><path class="cls-1" d="M112.32016,12.86519c-5.24281,0-10.886,3.33056-10.886,10.64413v8.63349c0,7.31357,5.64317,10.64413,10.886,10.64413,5.24555,0,10.89076-3.33056,10.89076-10.64413V23.50932C123.21092,16.19575,117.56571,12.86519,112.32016,12.86519Zm6.588,18.97633c0,4.33212-2.58588,7.13184-6.588,7.13184-3.99941,0-6.58392-2.79972-6.58392-7.13184V23.81539c0-4.33212,2.58451-7.13184,6.58392-7.13184,4.00214,0,6.588,2.79972,6.588,7.13184Z"></path><path class="cls-1" d="M35.91164,12.86519c-5.24282,0-10.886,3.33056-10.886,10.64344v16.5938a1.9504,1.9504,0,0,0,.09291.56569l.07584.25551.23023-.13391a8.81454,8.81454,0,0,0,3.89146-4.66346l.0123-12.31087c0-4.33212,2.58383-7.13184,6.58324-7.13184,4.00214,0,6.588,2.79972,6.588,7.13184v8.897l.01571.07993a8.81742,8.81742,0,0,0,3.97618,4.423l.31085.17012V23.50863C46.8024,16.19575,41.15719,12.86519,35.91164,12.86519Z"></path><path class="cls-1" d="M86.6868,12.86519a11.70444,11.70444,0,0,0-6.588,1.94026V1.79065C80.09878.65245,79.31448,0,77.94741,0S75.796.65245,75.796,1.79065V37.38538l.31085-.17012a8.82016,8.82016,0,0,0,3.97618-4.423l.01571-8.97689c0-4.33212,2.58588-7.13184,6.588-7.13184,3.99941,0,6.58324,2.79972,6.58324,7.13184V36.05384l.0123.07173a8.813,8.813,0,0,0,3.89146,4.66415l.23091.13391.07584-.2562a1.97912,1.97912,0,0,0,.09223-.565V23.50863C97.57278,16.19575,91.92962,12.86519,86.6868,12.86519Z"></path><path class="cls-1" d="M146.44833,16.96434c-1.90748-2.85643-5.48672-3.97618-8.28029-4.08071v-.01844l-.37849.00341-.0731-.00341-.20974.00956v.00478c-7.20562.23161-10.43439,5.4833-10.43439,10.6291v16.5938a1.97912,1.97912,0,0,0,.09223.565l.07584.2562.23092-.13391a8.81917,8.81917,0,0,0,3.89146-4.66415l.01229-12.31018c0-4.28225,2.54831-7.07856,6.48623-7.12365a6.46226,6.46226,0,0,1,5.03444,2.40074,1.85491,1.85491,0,0,0,2.70134.4673c1.09721-.70847,1.41694-1.67655.85536-2.58861Z"></path><path class="cls-1" d="M167.93266,35.30189c-1.6909-.51991-2.3167.35184-2.54421.92573a6.24945,6.24945,0,0,1-6.0319,4.15722c-3.79718,0-6.55386-2.53874-6.55386-6.036V32.84991c0-.70095.93666-1.15869,1.82139-1.35476l7.537-1.969C167.80217,28.24247,170,26.05694,170,21.73233c0-5.05493-4.57534-8.86714-10.64345-8.86714-6.46572,0-10.64344,3.95158-10.64344,10.06546l-.16738,11.47626c0,5.65,4.54664,9.7512,10.81082,9.7512a10.43078,10.43078,0,0,0,10.20006-6.90229C169.62493,36.6143,169.39879,35.75416,167.93266,35.30189Zm-6.76975-9.30371L154.70538,27.728a5.69269,5.69269,0,0,0-1.889.69412l.15372-5.30225v-.00615c0-5.83924,4.466-6.46983,6.38647-6.46983,3.70017,0,6.3858,2.13976,6.3858,5.08841C165.74235,24.42753,164.26734,25.25487,161.16291,25.99818Z"></path></g></g></svg> 