<?xml version="1.0" encoding="UTF-8" standalone="no"?>
<!DOCTYPE svg PUBLIC "-//W3C//DTD SVG 1.1//EN" "http://www.w3.org/Graphics/SVG/1.1/DTD/svg11.dtd">
<svg width="100%" height="100%" viewBox="0 0 434 192" version="1.1" xmlns="http://www.w3.org/2000/svg" xmlns:xlink="http://www.w3.org/1999/xlink" xml:space="preserve" xmlns:serif="http://www.serif.com/" style="fill-rule:evenodd;clip-rule:evenodd;stroke-linejoin:round;stroke-miterlimit:2;">
    <g transform="matrix(0.843662,0.00523924,-0.00523924,0.843662,-70.8586,-28.588)">
        <path d="M85.28,89.2C117.8,70.37 150.35,51.58 182.87,32.75C215.37,51.6 247.9,70.39 280.43,89.18C280.49,127.13 280.44,165.09 280.46,203.04C247.92,222 215.36,240.91 182.85,259.91C150.33,240.92 117.77,221.99 85.25,202.99C85.31,165.06 85.26,127.13 85.28,89.2M91.88,90.14C99.28,94.5 106.74,98.78 114.19,103.06C123.55,88.85 137,77.26 152.88,70.95C172.74,62.8 195.95,62.71 215.65,71.41C230.55,77.8 242.9,89.35 251.34,103.09C258.85,98.87 266.31,94.53 273.74,90.16C243.57,72.44 213.18,55.09 182.9,37.55C152.51,54.98 122.18,72.55 91.88,90.14M118.65,105.64C125.04,109.36 131.45,113.06 137.86,116.76C149.62,98.91 171.87,88.03 193.19,91.95C207.78,94.41 220.37,104.13 227.89,116.68C234.33,113.06 240.65,109.24 247.12,105.67C237.19,88.71 220.21,76.05 200.99,71.77C170.09,64.23 135.2,78.42 118.65,105.64M89.38,94.27C89.5,129.75 89.43,165.23 89.41,200.71C119.63,218.38 149.79,236.16 180.06,253.72C180.07,243.96 180.3,234.19 179.94,224.43C149.01,213.73 122.87,188.57 113.17,157.05C108.05,141.03 107.93,123.66 112,107.4C104.42,103.09 96.82,98.81 89.38,94.27M253.64,107.75C259.93,130.59 255.65,155.58 243.81,175.9C230.96,198.38 209.66,215.55 185.45,224.45C185.4,234.24 185.5,244.02 185.38,253.81C215.64,236.09 245.94,218.44 276.26,200.8C276.37,165.39 276.36,129.97 276.26,94.55C268.66,98.85 261.1,103.21 253.64,107.75M142.24,119.19C149.36,123.48 156.61,127.56 163.8,131.73C168.59,125.55 175.9,120.73 183.99,121.21C191.4,121.09 197.84,125.82 201.92,131.68C209.15,127.55 216.4,123.43 223.55,119.14C216.05,105.77 201.49,96.52 186.06,96.26C168.71,95.44 151.73,104.82 142.24,119.19M116.52,110.12C111.11,130.93 114.31,153.58 124.61,172.38C136.37,194.28 156.91,210.75 180.08,219.29C180.12,210.32 180.16,201.34 180.06,192.37C165.93,187.1 153.67,177.08 145.84,164.18C137.77,151.66 134.72,136.36 136.49,121.63C129.84,117.78 123.2,113.91 116.52,110.12M229.41,121.83C231.89,136.67 229.48,152.53 221.26,165.28C213.03,178.27 199.51,186.81 185.4,192.22C185.48,201.21 185.41,210.2 185.44,219.19C209.96,209.82 231.12,191.31 242.59,167.58C251.15,150.01 254.1,129.44 249.17,110.39C242.49,114.03 235.95,117.95 229.41,121.83M140.97,124.32C140.11,136.16 142.52,148.29 148.31,158.7C155.19,171.45 166.62,181.6 180.09,186.97C180.14,179.31 180.1,171.64 180.11,163.98C169.7,158.93 162.66,148.14 162.47,136.53C155.21,132.62 148.23,128.23 140.97,124.32M205.01,135.9C202.71,136.96 203.16,139.82 202.58,141.86C200.98,151.46 193.66,158.98 185.5,163.68C185.36,171.44 185.47,179.2 185.43,186.97C197.16,182.31 208.46,175.3 215.75,164.76C224.05,153.22 226.54,138.44 224.98,124.52C218.22,128.13 211.62,132.04 205.01,135.9M180.35,126.3C175.48,127.22 171.02,130.09 168.16,134.14C166.77,135.98 167.37,138.44 167.61,140.55C169.13,148.65 174.37,156.46 182.19,159.6C191.34,156.31 198.07,146.76 198.28,137C198.48,134.52 196.62,132.6 195.03,130.96C191.29,127.14 185.65,125.01 180.35,126.3Z" style="fill:#fefefe;fill-rule:nonzero;"/>
    </g>
    <g transform="matrix(0.843662,0.00523924,-0.00523924,0.843662,-70.8586,-28.588)">
        <path d="M91.88,90.14C122.18,72.55 152.51,54.98 182.9,37.55C213.18,55.09 243.57,72.44 273.74,90.16C266.31,94.53 258.85,98.87 251.34,103.09C242.9,89.35 230.55,77.8 215.65,71.41C195.95,62.71 172.74,62.8 152.88,70.95C137,77.26 123.55,88.85 114.19,103.06C106.74,98.78 99.28,94.5 91.88,90.14Z" style="fill:#ffc900;fill-rule:nonzero;"/>
    </g>
    <g transform="matrix(0.843662,0.00523924,-0.00523924,0.843662,-70.8586,-28.588)">
        <path d="M118.65,105.64C135.2,78.42 170.09,64.23 200.99,71.77C220.21,76.05 237.19,88.71 247.12,105.67C240.65,109.24 234.33,113.06 227.89,116.68C220.37,104.13 207.78,94.41 193.19,91.95C171.87,88.03 149.62,98.91 137.86,116.76C131.45,113.06 125.04,109.36 118.65,105.64Z" style="fill:#ffc900;fill-rule:nonzero;"/>
    </g>
    <g transform="matrix(0.843662,0.00523924,-0.00523924,0.843662,-70.8586,-28.588)">
        <path d="M142.24,119.19C151.73,104.82 168.71,95.44 186.06,96.26C201.49,96.52 216.05,105.77 223.55,119.14C216.4,123.43 209.15,127.55 201.92,131.68C197.84,125.82 191.4,121.09 183.99,121.21C175.9,120.73 168.59,125.55 163.8,131.73C156.61,127.56 149.36,123.48 142.24,119.19Z" style="fill:#ffc900;fill-rule:nonzero;"/>
    </g>
    <g transform="matrix(0.843662,0.00523924,-0.00523924,0.843662,-70.8586,-28.588)">
        <path d="M89.38,94.27C96.82,98.81 104.42,103.09 112,107.4C107.93,123.66 108.05,141.03 113.17,157.05C122.87,188.57 149.01,213.73 179.94,224.43C180.3,234.19 180.07,243.96 180.06,253.72C149.79,236.16 119.63,218.38 89.41,200.71C89.43,165.23 89.5,129.75 89.38,94.27Z" style="fill:#1904da;fill-rule:nonzero;"/>
    </g>
    <g transform="matrix(0.843662,0.00523924,-0.00523924,0.843662,-70.8586,-28.588)">
        <path d="M116.52,110.12C123.2,113.91 129.84,117.78 136.49,121.63C134.72,136.36 137.77,151.66 145.84,164.18C153.67,177.08 165.93,187.1 180.06,192.37C180.16,201.34 180.12,210.32 180.08,219.29C156.91,210.75 136.37,194.28 124.61,172.38C114.31,153.58 111.11,130.93 116.52,110.12Z" style="fill:#1904da;fill-rule:nonzero;"/>
    </g>
    <g transform="matrix(0.843662,0.00523924,-0.00523924,0.843662,-70.8586,-28.588)">
        <path d="M140.97,124.32C148.23,128.23 155.21,132.62 162.47,136.53C162.66,148.14 169.7,158.93 180.11,163.98C180.1,171.64 180.14,179.31 180.09,186.97C166.62,181.6 155.19,171.45 148.31,158.7C142.52,148.29 140.11,136.16 140.97,124.32Z" style="fill:#1904da;fill-rule:nonzero;"/>
    </g>
    <g transform="matrix(0.843662,0.00523924,-0.00523924,0.843662,-70.8586,-28.588)">
        <path d="M253.64,107.75C261.1,103.21 268.66,98.85 276.26,94.55C276.36,129.97 276.37,165.39 276.26,200.8C245.94,218.44 215.64,236.09 185.38,253.81C185.5,244.02 185.4,234.24 185.45,224.45C209.66,215.55 230.96,198.38 243.81,175.9C255.65,155.58 259.93,130.59 253.64,107.75Z" style="fill:#08b1d5;fill-rule:nonzero;"/>
    </g>
    <g transform="matrix(0.843662,0.00523924,-0.00523924,0.843662,-70.8586,-28.588)">
        <path d="M229.41,121.83C235.95,117.95 242.49,114.03 249.17,110.39C254.1,129.44 251.15,150.01 242.59,167.58C231.12,191.31 209.96,209.82 185.44,219.19C185.41,210.2 185.48,201.21 185.4,192.22C199.51,186.81 213.03,178.27 221.26,165.28C229.48,152.53 231.89,136.67 229.41,121.83Z" style="fill:#08b1d5;fill-rule:nonzero;"/>
    </g>
    <g transform="matrix(0.843662,0.00523924,-0.00523924,0.843662,-70.8586,-28.588)">
        <path d="M205.01,135.9C211.62,132.04 218.22,128.13 224.98,124.52C226.54,138.44 224.05,153.22 215.75,164.76C208.46,175.3 197.16,182.31 185.43,186.97C185.47,179.2 185.36,171.44 185.5,163.68C193.66,158.98 200.98,151.46 202.58,141.86C203.16,139.82 202.71,136.96 205.01,135.9Z" style="fill:#08b1d5;fill-rule:nonzero;"/>
    </g>
    <g transform="matrix(0.843662,0.00523924,-0.00523924,0.843662,-70.8586,-28.588)">
        <path d="M180.35,126.3C185.65,125.01 191.29,127.14 195.03,130.96C196.62,132.6 198.48,134.52 198.28,137C198.07,146.76 191.34,156.31 182.19,159.6C174.37,156.46 169.13,148.65 167.61,140.55C167.37,138.44 166.77,135.98 168.16,134.14C171.02,130.09 175.48,127.22 180.35,126.3Z" style="fill:#ff445f;fill-rule:nonzero;"/>
    </g>
    <g transform="matrix(1.54908,0.00128513,-0.00128513,1.54908,62.4256,-406.823)">
        <path d="M121.12,278.09C124.06,273.76 131.19,273.35 134.44,277.54C137.54,281.44 136.13,286.77 136.37,291.34C132.41,291.21 128.24,292 124.44,290.59C119.78,288.61 118.1,282.14 121.12,278.09M123.36,285.49C125.27,289.15 129.92,288.15 133.29,288.3C133.13,284.93 134.17,280.25 130.49,278.35C126.25,275.59 120.63,281.26 123.36,285.49Z" style="fill:#06232c;fill-rule:nonzero;"/>
    </g>
    <g transform="matrix(1.54908,0.00128513,-0.00128513,1.54908,62.4256,-406.823)">
        <path d="M141.15,277.19C145.39,272.22 154.54,274.92 155.34,281.41C155.85,288.32 155.38,295.26 155.55,302.19C154.51,302.18 153.48,302.18 152.45,302.17C152.38,295.77 152.62,289.37 152.39,282.97C152.63,279.1 147.83,276.23 144.59,278.41C141.2,280.13 141.12,285.75 144.56,287.44C146.49,288.13 148.56,288.3 150.56,288.71C148.93,289.76 147.42,292.12 145.22,291.09C139.17,289.86 136.59,281.48 141.15,277.19Z" style="fill:#06232c;fill-rule:nonzero;"/>
    </g>
    <g transform="matrix(1.54908,0.00128513,-0.00128513,1.54908,62.4256,-406.823)">
        <path d="M157.9,274.66C158.64,274.66 160.13,274.65 160.87,274.65C160.96,278.22 160.46,281.93 161.52,285.41C163.23,289.42 169.59,289.26 171.1,285.19C171.96,281.67 171.41,277.99 171.65,274.41C172.27,274.47 173.51,274.58 174.13,274.63C174.73,279.52 175.78,285.86 171.56,289.49C167.6,293.06 160.56,291.34 158.65,286.38C157.39,282.61 157.98,278.55 157.9,274.66Z" style="fill:#06232c;fill-rule:nonzero;"/>
    </g>
    <g transform="matrix(1.54908,0.00128513,-0.00128513,1.54908,62.4256,-406.823)">
        <path d="M180.92,275.89C185.09,273.07 191.44,275.03 193.17,279.79C194.28,283.51 193.64,287.48 193.8,291.31C189.33,291.1 184.22,292.47 180.32,289.66C175.75,286.47 176.03,278.65 180.92,275.89M180.63,285.27C182.43,289.16 187.27,288.22 190.73,288.21C190.47,284.8 191.59,279.88 187.61,278.22C183.42,275.86 178.37,281.13 180.63,285.27Z" style="fill:#06232c;fill-rule:nonzero;"/>
    </g>
    <g transform="matrix(1.54908,0.00128513,-0.00128513,1.54908,62.4256,-406.823)">
        <path d="M119.35,304.13C121.34,304.11 123.32,304.09 125.3,304.06C125.39,308.6 125.38,313.13 125.36,317.67C128.95,317.67 132.54,317.68 136.14,317.75C136.11,319.74 136.09,321.73 136.07,323.73C132.5,323.76 128.94,323.77 125.37,323.86C125.57,328.57 124.73,333.44 126.08,338.02C127.53,342.36 131.99,344.3 136.07,345.35C136.08,347.24 136.07,349.13 136.05,351.03C127.45,350.95 119.54,343.75 119.42,335.02C119.27,324.72 119.43,314.43 119.35,304.13Z" style="fill:#06232c;fill-rule:nonzero;"/>
    </g>
    <g transform="matrix(1.54908,0.00128513,-0.00128513,1.54908,62.4256,-406.823)">
        <path d="M161.15,304.12C163.16,304.11 165.17,304.1 167.18,304.1C167.18,306.1 167.18,308.11 167.17,310.12C165.18,310.1 163.18,310.08 161.19,310.06C161.17,308.07 161.16,306.09 161.15,304.12Z" style="fill:#06232c;fill-rule:nonzero;"/>
    </g>
    <g transform="matrix(1.54908,0.00128513,-0.00128513,1.54908,62.4256,-406.823)">
        <path d="M140.83,317.73C142.59,317.69 144.35,317.66 146.11,317.61C146.54,318.65 146.96,319.7 147.39,320.75C150.44,319 153.81,317.96 157.28,317.45C157.34,319.35 157.39,321.26 157.45,323.18C153.13,324.28 148.34,326.54 147.29,331.33C146.23,337.78 147.07,344.38 146.8,350.89C144.81,350.88 142.82,350.87 140.83,350.88C140.74,339.83 140.75,328.78 140.83,317.73Z" style="fill:#06232c;fill-rule:nonzero;"/>
    </g>
    <g transform="matrix(1.54908,0.00128513,-0.00128513,1.54908,62.4256,-406.823)">
        <path d="M161.17,317.72C163.16,317.7 165.16,317.69 167.15,317.69C167.23,328.75 167.25,339.81 167.14,350.88C165.15,350.87 163.17,350.88 161.19,350.89C161.15,339.83 161.17,328.77 161.17,317.72Z" style="fill:#06232c;fill-rule:nonzero;"/>
    </g>
    <g transform="matrix(1.54908,0.00128513,-0.00128513,1.54908,62.4256,-406.823)">
        <path d="M170.74,317.76C172.9,317.7 175.06,317.65 177.22,317.59C180.83,323.93 183.73,330.63 187.17,337.06C190.67,330.72 193.66,324.12 196.98,317.69C199.22,317.69 201.46,317.7 203.7,317.73C198.35,328.8 192.87,339.82 187.21,350.74C181.59,339.81 176.08,328.82 170.74,317.76Z" style="fill:#06232c;fill-rule:nonzero;"/>
    </g>
    <g transform="matrix(1.54908,0.00128513,-0.00128513,1.54908,62.4256,-406.823)">
        <path d="M206.39,317.75C208.43,317.73 210.48,317.74 212.52,317.77C212.57,323.53 212.32,329.29 212.58,335.04C212.77,340.37 217.67,344.98 223,344.82C228.39,345.01 233.34,340.31 233.47,334.92C233.72,329.17 233.41,323.4 233.61,317.64C235.63,317.68 237.64,317.73 239.66,317.8C239.55,330.87 239.73,343.94 239.59,357.01C239.52,365 232.83,372.17 224.91,372.95C220.16,373.67 215.57,371.66 211.79,368.95C213.15,367.57 214.52,366.21 215.9,364.85C220.32,367.12 226.29,368.06 230.11,364.14C234.95,359.93 233.22,353.01 233.65,347.4C230.39,349.27 226.86,351.04 223,350.87C214.73,351.14 207.03,344.18 206.52,335.91C206.21,329.86 206.5,323.8 206.39,317.75Z" style="fill:#06232c;fill-rule:nonzero;"/>
    </g>
</svg>
