<svg width="117" height="27" viewBox="0 0 117 27" fill="none" xmlns="http://www.w3.org/2000/svg">
<circle r="9.57502" transform="matrix(0.709942 -0.70426 0.709942 0.704261 9.66801 9.59064)" fill="#FFCCC5"/>
<circle r="9.57502" transform="matrix(0.709942 -0.70426 0.709942 0.704261 15.1481 17.3826)" fill="#FFF0B8"/>
<circle r="9.57502" transform="matrix(-0.709941 -0.704261 -0.709942 0.70426 20.4454 9.59063)" fill="#C2E9FF"/>
<path fill-rule="evenodd" clip-rule="evenodd" d="M13.6478 16.3339C9.89355 12.6097 9.89355 6.5715 13.6478 2.84727C14.0879 2.41071 14.5601 2.02532 15.0567 1.6911C15.5534 2.02533 16.0256 2.41073 16.4657 2.84732C20.22 6.57154 20.22 12.6097 16.4657 16.3339C16.0256 16.7705 15.5535 17.1559 15.0568 17.4901C14.5601 17.1559 14.0879 16.7705 13.6478 16.3339Z" fill="#A183F9"/>
<path fill-rule="evenodd" clip-rule="evenodd" d="M19.2444 8.75228C19.4842 11.4641 18.558 14.2584 16.4657 16.3339C13.5193 19.2567 9.13634 19.8857 5.57166 18.2209C5.33185 15.509 6.25808 12.7148 8.35037 10.6392C11.2967 7.71648 15.6797 7.08749 19.2444 8.75228Z" fill="#F084B8"/>
<path fill-rule="evenodd" clip-rule="evenodd" d="M24.7321 18.1294C24.9433 15.4463 24.0145 12.6915 21.9458 10.6392C18.9468 7.66425 14.4593 7.06574 10.8614 8.84372C10.6502 11.5268 11.579 14.2817 13.6478 16.3339C16.6468 19.3089 21.1342 19.9074 24.7321 18.1294Z" fill="#6CDC92"/>
<path fill-rule="evenodd" clip-rule="evenodd" d="M15.0568 17.4901C15.5534 17.1559 16.0256 16.7705 16.4657 16.3339C18.558 14.2584 19.4842 11.4641 19.2444 8.75227C16.5935 7.51425 13.49 7.54473 10.8614 8.84372C10.6502 11.5268 11.579 14.2817 13.6478 16.3339C14.0879 16.7704 14.5601 17.1559 15.0568 17.4901Z" fill="#35198E"/>
<path d="M43.5412 18.5919C43.5619 18.6741 43.5723 18.7357 43.5723 18.7768C43.5723 18.9103 43.5257 19.0181 43.4325 19.1002C43.3393 19.1824 43.2307 19.2234 43.1064 19.2234C43.0029 19.2234 42.9098 19.1978 42.827 19.1464C42.7545 19.0848 42.6976 19.0078 42.6562 18.9154L41.4916 16.0967H36.4454L35.2964 18.9154C35.2136 19.1208 35.0738 19.2234 34.8772 19.2234C34.7322 19.2234 34.6236 19.1875 34.5511 19.1156C34.4786 19.0437 34.4372 18.9462 34.4269 18.823V18.7768C34.4269 18.7152 34.4321 18.669 34.4424 18.6381L38.5415 8.68801C38.6243 8.48264 38.7796 8.37996 39.0073 8.37996C39.1108 8.37996 39.1988 8.41076 39.2713 8.47237C39.3541 8.52372 39.4162 8.5956 39.4576 8.68801L43.5412 18.5919ZM41.119 15.1879L38.9452 9.92023L36.8025 15.1879H41.119Z" fill="#35198E"/>
<path d="M48.9673 11.1524C49.1743 11.1524 49.3606 11.1935 49.5262 11.2757C49.6919 11.3578 49.7747 11.481 49.7747 11.6453C49.7747 11.7891 49.7333 11.9072 49.6504 11.9996C49.5676 12.0817 49.4693 12.1228 49.3554 12.1228C49.3037 12.1228 49.2002 12.0971 49.0449 12.0458C48.9 11.9945 48.7602 11.9688 48.6257 11.9688C48.2427 11.9688 47.8597 12.1177 47.4767 12.4155C47.104 12.703 46.7935 13.0778 46.5451 13.5399C46.307 14.0019 46.1879 14.4692 46.1879 14.9415V18.746C46.1879 18.8795 46.1414 18.9924 46.0482 19.0848C45.9654 19.167 45.8567 19.208 45.7221 19.208C45.5876 19.208 45.4737 19.167 45.3805 19.0848C45.2977 18.9924 45.2563 18.8795 45.2563 18.746V11.8456C45.2563 11.7121 45.2977 11.6043 45.3805 11.5221C45.4737 11.4297 45.5876 11.3835 45.7221 11.3835C45.8567 11.3835 45.9654 11.4297 46.0482 11.5221C46.1414 11.6043 46.1879 11.7121 46.1879 11.8456V13.201C46.426 12.6157 46.7831 12.1331 47.2593 11.7531C47.7458 11.3629 48.3151 11.1627 48.9673 11.1524Z" fill="#35198E"/>
<path d="M60.2362 11.2757C61.1678 11.2757 61.851 11.5632 62.2857 12.1382C62.7309 12.703 62.9534 13.4526 62.9534 14.387V18.746C62.9534 18.8795 62.9068 18.9924 62.8137 19.0848C62.7309 19.167 62.6222 19.208 62.4876 19.208C62.353 19.208 62.2392 19.167 62.146 19.0848C62.0632 18.9924 62.0218 18.8795 62.0218 18.746V14.4332C62.0218 13.7555 61.8562 13.2061 61.5249 12.7851C61.204 12.3539 60.702 12.1382 60.0188 12.1382C59.5841 12.1382 59.17 12.2409 58.7767 12.4463C58.3937 12.6516 58.0831 12.934 57.845 13.2934C57.607 13.6425 57.4879 14.0225 57.4879 14.4332V18.746C57.4879 18.8795 57.4413 18.9924 57.3482 19.0848C57.2654 19.167 57.1567 19.208 57.0221 19.208C56.8875 19.208 56.7737 19.167 56.6805 19.0848C56.5977 18.9924 56.5563 18.8795 56.5563 18.746V14.387C56.5563 13.7196 56.401 13.1805 56.0905 12.7697C55.78 12.3487 55.2934 12.1382 54.631 12.1382C54.2066 12.1382 53.8029 12.2409 53.4199 12.4463C53.0472 12.6516 52.7418 12.9289 52.5038 13.278C52.276 13.6169 52.1622 13.9865 52.1622 14.387V18.746C52.1622 18.8795 52.1156 18.9924 52.0224 19.0848C51.9396 19.167 51.8309 19.208 51.6964 19.208C51.5618 19.208 51.4479 19.167 51.3548 19.0848C51.272 18.9924 51.2306 18.8795 51.2306 18.746V11.8456C51.2306 11.7121 51.272 11.6043 51.3548 11.5221C51.4479 11.4297 51.5618 11.3835 51.6964 11.3835C51.8309 11.3835 51.9396 11.4297 52.0224 11.5221C52.1156 11.6043 52.1622 11.7121 52.1622 11.8456V12.7389C52.4417 12.3179 52.8195 11.9688 53.2956 11.6915C53.7718 11.4143 54.2738 11.2757 54.8018 11.2757C55.4021 11.2757 55.9197 11.4194 56.3545 11.7069C56.7892 11.9945 57.0997 12.4155 57.2861 12.97C57.5034 12.5181 57.902 12.1228 58.4816 11.784C59.0613 11.4451 59.6462 11.2757 60.2362 11.2757Z" fill="#35198E"/>
<path d="M72.7216 15.265C72.7216 16.0351 72.5508 16.7333 72.2092 17.3597C71.8676 17.9861 71.3966 18.479 70.7962 18.8384C70.1958 19.1875 69.5282 19.3621 68.7932 19.3621C68.0583 19.3621 67.3906 19.1875 66.7903 18.8384C66.1899 18.479 65.7189 17.9861 65.3773 17.3597C65.0357 16.7333 64.8649 16.0351 64.8649 15.265C64.8649 14.4948 65.0357 13.7966 65.3773 13.1702C65.7189 12.5438 66.1899 12.0509 66.7903 11.6915C67.3906 11.3321 68.0583 11.1524 68.7932 11.1524C69.5282 11.1524 70.1958 11.3321 70.7962 11.6915C71.3966 12.0509 71.8676 12.5438 72.2092 13.1702C72.5508 13.7966 72.7216 14.4948 72.7216 15.265ZM71.7899 15.265C71.7899 14.6489 71.6605 14.0944 71.4018 13.6015C71.143 13.1086 70.7807 12.7235 70.3149 12.4463C69.8594 12.1588 69.3522 12.015 68.7932 12.015C68.2343 12.015 67.7271 12.1588 67.2716 12.4463C66.8161 12.7235 66.4538 13.1086 66.1847 13.6015C65.9259 14.0944 65.7965 14.6489 65.7965 15.265C65.7965 15.8708 65.9259 16.4202 66.1847 16.913C66.4538 17.4059 66.8161 17.7961 67.2716 18.0836C67.7271 18.3609 68.2343 18.4995 68.7932 18.4995C69.3522 18.4995 69.8594 18.3609 70.3149 18.0836C70.7807 17.8064 71.143 17.4213 71.4018 16.9284C71.6605 16.4356 71.7899 15.8811 71.7899 15.265Z" fill="#35198E"/>
<path d="M78.3381 11.1524C78.5451 11.1524 78.7314 11.1935 78.897 11.2757C79.0627 11.3578 79.1455 11.481 79.1455 11.6453C79.1455 11.7891 79.1041 11.9072 79.0213 11.9996C78.9384 12.0817 78.8401 12.1228 78.7262 12.1228C78.6745 12.1228 78.571 12.0971 78.4157 12.0458C78.2708 11.9945 78.131 11.9688 77.9965 11.9688C77.6135 11.9688 77.2305 12.1177 76.8475 12.4155C76.4748 12.703 76.1643 13.0778 75.9159 13.5399C75.6778 14.0019 75.5587 14.4692 75.5587 14.9415V18.746C75.5587 18.8795 75.5122 18.9924 75.419 19.0848C75.3362 19.167 75.2275 19.208 75.0929 19.208C74.9584 19.208 74.8445 19.167 74.7513 19.0848C74.6685 18.9924 74.6271 18.8795 74.6271 18.746V11.8456C74.6271 11.7121 74.6685 11.6043 74.7513 11.5221C74.8445 11.4297 74.9584 11.3835 75.0929 11.3835C75.2275 11.3835 75.3362 11.4297 75.419 11.5221C75.5122 11.6043 75.5587 11.7121 75.5587 11.8456V13.201C75.7968 12.6157 76.1539 12.1331 76.6301 11.7531C77.1166 11.3629 77.6859 11.1627 78.3381 11.1524Z" fill="#35198E"/>
<path d="M88.1475 8.94986C88.4683 9.11415 88.6288 9.376 88.6288 9.73539C88.6288 9.95103 88.5512 10.1615 88.3959 10.3669C88.2303 10.5825 88.0181 10.6904 87.7593 10.6904C87.5833 10.6904 87.4073 10.6442 87.2314 10.5517C86.7242 10.3156 86.1755 10.1975 85.5855 10.1975C84.8609 10.1975 84.2295 10.3515 83.6912 10.6596C83.153 10.9573 82.7389 11.3835 82.4491 11.938C82.1592 12.4822 82.0143 13.1086 82.0143 13.8171C82.0143 15.0288 82.3404 15.9478 82.9925 16.5742C83.655 17.2006 84.5193 17.5138 85.5855 17.5138C86.2169 17.5138 86.7656 17.3957 87.2314 17.1595C87.4177 17.0773 87.5833 17.0363 87.7282 17.0363C87.9974 17.0363 88.2251 17.1492 88.4114 17.3751C88.5667 17.5702 88.6443 17.7807 88.6443 18.0066C88.6443 18.1709 88.6029 18.3198 88.5201 18.4533C88.4373 18.5868 88.3183 18.6895 88.163 18.7614C87.3556 19.1618 86.4964 19.3621 85.5855 19.3621C84.5711 19.3621 83.6395 19.1516 82.7907 18.7306C81.9419 18.2993 81.2638 17.6678 80.7566 16.836C80.2494 16.0043 79.9958 14.998 79.9958 13.8171C79.9958 12.7697 80.2339 11.8302 80.71 10.9984C81.1966 10.1667 81.8642 9.51976 82.713 9.05768C83.5618 8.58533 84.5193 8.34915 85.5855 8.34915C86.5068 8.34915 87.3608 8.54939 88.1475 8.94986Z" fill="#35198E"/>
<path d="M98.0995 15.0955C98.0995 15.917 97.9132 16.6563 97.5405 17.3135C97.1679 17.9604 96.6555 18.4636 96.0034 18.823C95.3616 19.1824 94.6525 19.3621 93.8762 19.3621C93.0895 19.3621 92.3752 19.1824 91.7335 18.823C91.0917 18.4636 90.5845 17.9604 90.2118 17.3135C89.8392 16.6563 89.6528 15.917 89.6528 15.0955C89.6528 14.2741 89.8392 13.5399 90.2118 12.8929C90.5845 12.2358 91.0917 11.7275 91.7335 11.3681C92.3752 10.9984 93.0895 10.8136 93.8762 10.8136C94.6525 10.8136 95.3616 10.9984 96.0034 11.3681C96.6555 11.7275 97.1679 12.2358 97.5405 12.8929C97.9132 13.5399 98.0995 14.2741 98.0995 15.0955ZM96.2363 15.0955C96.2363 14.5924 96.1276 14.1457 95.9102 13.7555C95.7032 13.355 95.4185 13.047 95.0562 12.8313C94.7043 12.6157 94.3109 12.5079 93.8762 12.5079C93.4414 12.5079 93.0429 12.6157 92.6806 12.8313C92.3287 13.047 92.044 13.355 91.8266 13.7555C91.6196 14.1457 91.5161 14.5924 91.5161 15.0955C91.5161 15.5987 91.6196 16.0454 91.8266 16.4356C92.044 16.8258 92.3287 17.1287 92.6806 17.3443C93.0429 17.56 93.4414 17.6678 93.8762 17.6678C94.3109 17.6678 94.7043 17.56 95.0562 17.3443C95.4185 17.1287 95.7032 16.8258 95.9102 16.4356C96.1276 16.0454 96.2363 15.5987 96.2363 15.0955Z" fill="#35198E"/>
<path d="M106.379 7.81006C106.649 7.81006 106.871 7.89734 107.047 8.0719C107.223 8.24647 107.311 8.47237 107.311 8.74962V18.2685C107.311 18.5355 107.223 18.7614 107.047 18.9462C106.871 19.1208 106.649 19.208 106.379 19.208C106.11 19.208 105.888 19.1208 105.712 18.9462C105.546 18.7716 105.458 18.5509 105.448 18.2839C105.189 18.5817 104.837 18.8384 104.392 19.054C103.957 19.2594 103.497 19.3621 103.01 19.3621C102.296 19.3621 101.649 19.1824 101.069 18.823C100.489 18.4533 100.029 17.945 99.6873 17.2981C99.356 16.6512 99.1904 15.917 99.1904 15.0955C99.1904 14.2741 99.356 13.5399 99.6873 12.8929C100.019 12.2358 100.469 11.7275 101.038 11.3681C101.618 10.9984 102.254 10.8136 102.948 10.8136C103.445 10.8136 103.911 10.906 104.345 11.0908C104.78 11.2654 105.148 11.4913 105.448 11.7685V8.74962C105.448 8.48264 105.536 8.26187 105.712 8.08731C105.888 7.90247 106.11 7.81006 106.379 7.81006ZM103.243 17.6678C103.916 17.6678 104.464 17.4265 104.889 16.9439C105.313 16.451 105.525 15.8349 105.525 15.0955C105.525 14.3562 105.313 13.7401 104.889 13.2472C104.464 12.7543 103.916 12.5079 103.243 12.5079C102.58 12.5079 102.037 12.7543 101.613 13.2472C101.188 13.7401 100.976 14.3562 100.976 15.0955C100.976 15.8349 101.183 16.451 101.597 16.9439C102.021 17.4265 102.57 17.6678 103.243 17.6678Z" fill="#35198E"/>
<path d="M116.783 14.8953C116.773 15.1417 116.674 15.342 116.488 15.496C116.302 15.65 116.084 15.727 115.836 15.727H110.712C110.836 16.3329 111.121 16.8104 111.566 17.1595C112.011 17.4983 112.513 17.6678 113.072 17.6678C113.497 17.6678 113.828 17.6318 114.066 17.56C114.304 17.4778 114.49 17.3957 114.625 17.3135C114.77 17.2211 114.868 17.1595 114.92 17.1287C115.106 17.0363 115.282 16.9901 115.448 16.9901C115.665 16.9901 115.852 17.0671 116.007 17.2211C116.162 17.3751 116.24 17.5548 116.24 17.7602C116.24 18.0374 116.095 18.289 115.805 18.5149C115.515 18.7511 115.127 18.9513 114.64 19.1156C114.154 19.2799 113.662 19.3621 113.165 19.3621C112.296 19.3621 111.535 19.1824 110.883 18.823C110.241 18.4636 109.744 17.9707 109.392 17.3443C109.04 16.7077 108.864 15.994 108.864 15.2033C108.864 14.3203 109.051 13.545 109.423 12.8775C109.796 12.2101 110.288 11.7018 110.898 11.3527C111.509 10.9933 112.161 10.8136 112.855 10.8136C113.538 10.8136 114.18 10.9984 114.78 11.3681C115.391 11.7377 115.877 12.2358 116.24 12.8621C116.602 13.4885 116.783 14.1662 116.783 14.8953ZM112.855 12.5079C111.654 12.5079 110.945 13.0675 110.728 14.1868H114.796V14.079C114.754 13.6477 114.542 13.278 114.159 12.97C113.776 12.6619 113.341 12.5079 112.855 12.5079Z" fill="#35198E"/>
</svg>
