<?xml version="1.0" encoding="UTF-8" standalone="no"?>
<!DOCTYPE svg PUBLIC "-//W3C//DTD SVG 1.1//EN" "http://www.w3.org/Graphics/SVG/1.1/DTD/svg11.dtd">
<svg width="100%" height="100%" viewBox="0 0 645 228" version="1.1" xmlns="http://www.w3.org/2000/svg" xmlns:xlink="http://www.w3.org/1999/xlink" xml:space="preserve" xmlns:serif="http://www.serif.com/" style="fill-rule:evenodd;clip-rule:evenodd;stroke-linejoin:round;stroke-miterlimit:2;">
    <g transform="matrix(1,0,0,1,-39.22,-36.0085)">
        <path d="M39.23,36.02C69.42,36.01 99.62,36.01 129.81,36.02C129.8,43.28 129.81,50.54 129.81,57.81L60.88,57.81C60.87,118.98 60.87,180.14 60.88,241.31C83.86,241.32 106.83,241.32 129.81,241.31C129.81,248.54 129.8,255.77 129.81,263C99.62,263.02 69.42,263.03 39.22,262.99C39.23,187.33 39.22,111.68 39.23,36.02Z" style="fill:rgb(63,188,164);fill-rule:nonzero;"/>
    </g>
    <g transform="matrix(1,0,0,1,-39.22,-36.0085)">
        <path d="M593.75,36.02C623.9,36 654.04,36.01 684.19,36.02L684.19,263C654.04,263.02 623.9,263.04 593.75,262.99C593.76,255.76 593.74,248.54 593.76,241.32C616.73,241.3 639.71,241.33 662.69,241.3L662.69,57.82C639.71,57.78 616.73,57.83 593.75,57.8L593.75,36.02Z" style="fill:rgb(63,188,164);fill-rule:nonzero;"/>
    </g>
    <g transform="matrix(1,0,0,1,-39.22,-36.0085)">
        <path d="M378.03,78.24C386.73,78.26 395.43,78.22 404.14,78.26C404.22,84.92 404.2,91.57 404.16,98.22C395.45,98.28 386.73,98.26 378.02,98.23C377.98,91.57 377.98,84.9 378.03,78.24Z" style="fill:rgb(21,40,45);fill-rule:nonzero;"/>
    </g>
    <g transform="matrix(1,0,0,1,-39.22,-36.0085)">
        <path d="M115.69,117.7C125.75,107.08 141.48,102.31 155.75,105.51C162.67,106.93 168.69,111.22 172.8,116.9C172.73,113.8 172.78,110.69 172.77,107.59C181.49,107.54 190.2,107.54 198.92,107.59C198.95,136.84 198.95,166.1 198.92,195.35C190.2,195.39 181.49,195.4 172.77,195.34C172.78,192.21 172.73,189.08 172.81,185.96C169.11,191.48 163.5,195.6 156.99,197.11C142.91,200.65 126.87,196.86 116.54,186.45C107,176.98 102.63,163.2 103.02,149.94C103.22,138.16 107.41,126.23 115.69,117.7M147.33,129.36C137.79,130.41 130.6,139.02 129.46,148.25C127.96,158.18 133.7,169.22 143.39,172.58C150.98,175.12 160.21,173.81 166,168.01C174.05,160 175.03,145.99 167.9,137.07C163.21,130.84 154.89,128.23 147.33,129.36Z" style="fill:rgb(21,40,45);fill-rule:nonzero;"/>
    </g>
    <g transform="matrix(1,0,0,1,-39.22,-36.0085)">
        <path d="M250.77,107.77C254.88,105.26 259.78,104.79 264.47,104.37C264.81,113.19 264.53,122.03 264.65,130.85C259.07,131.44 252.81,131.48 248.32,135.33C244.72,138.42 243.98,143.45 243.99,147.94C243.98,163.74 244.03,179.55 243.98,195.35C235.27,195.39 226.56,195.4 217.85,195.34C217.79,166.09 217.79,136.84 217.85,107.6C226.04,107.53 234.23,107.54 242.42,107.59C242.4,110.72 242.46,113.85 242.4,116.98C244.62,113.46 247.03,109.83 250.77,107.77Z" style="fill:rgb(21,40,45);fill-rule:nonzero;"/>
    </g>
    <g transform="matrix(1,0,0,1,-39.22,-36.0085)">
        <path d="M313.99,106.99C323.66,102.92 335,104.18 344.25,108.8C349.43,111.33 353.66,115.72 356,120.99C358.96,127.56 359.46,134.89 359.45,142C359.4,159.78 359.49,177.56 359.4,195.34C350.69,195.39 341.97,195.41 333.26,195.33C333.19,178.54 333.33,161.75 333.2,144.97C333.21,139.37 331.5,132.57 325.69,130.37C319.85,128.31 312.17,128.94 308.03,134.01C304.3,138.81 304.66,145.25 304.61,151C304.65,165.76 304.61,180.51 304.63,195.26C295.9,195.44 287.16,195.47 278.43,195.25C278.43,166.09 278.47,136.92 278.4,107.76C286.54,107.34 294.7,107.63 302.84,107.59C302.82,110.58 302.91,113.57 303,116.56C306.03,112.74 309.35,108.86 313.99,106.99Z" style="fill:rgb(21,40,45);fill-rule:nonzero;"/>
    </g>
    <g transform="matrix(1,0,0,1,-39.22,-36.0085)">
        <path d="M445.65,108.65C459.18,102.48 475.55,103.39 488.56,110.49C500.2,116.79 508.64,128.42 511.27,141.38C502.5,141.51 493.73,141.42 484.97,141.43C482.29,136.84 478.86,132.19 473.6,130.42C467.13,128.25 459.34,128.45 453.73,132.68C442.02,141.54 442.13,162.26 454.56,170.44C460.51,174.26 468.41,174.63 474.86,171.85C479.38,169.95 482.39,165.88 485.04,161.93C493.84,162 502.65,161.81 511.45,162.04C508.37,174.51 500.32,185.8 489.06,192.13C476.31,199.45 460.09,200.2 446.62,194.37C437.56,190.48 429.87,183.56 424.99,175C417.27,161.58 416.71,144.36 423.47,130.43C428.02,120.88 436,113.01 445.65,108.65Z" style="fill:rgb(21,40,45);fill-rule:nonzero;"/>
    </g>
    <g transform="matrix(1,0,0,1,-39.22,-36.0085)">
        <path d="M534.02,118C543.91,107.35 559.45,102.45 573.67,105.35C580.83,106.68 587.17,110.97 591.41,116.84C591.34,113.76 591.41,110.67 591.39,107.59C600.12,107.64 608.87,107.33 617.6,107.77C617.52,136.93 617.58,166.09 617.57,195.25C608.85,195.47 600.12,195.42 591.39,195.28C591.42,192.34 591.33,189.41 591.28,186.47C587.19,191.93 581.34,196.01 574.6,197.36C561.09,200.37 545.95,196.81 535.87,187.13C526.36,178.15 521.69,164.92 521.62,152.01C521.4,139.69 525.43,127.03 534.02,118M564.39,129.65C554.93,131.45 548.43,140.69 547.9,149.99C547.28,159.25 552.68,169.1 561.58,172.42C569.33,175.22 578.94,173.88 584.81,167.81C592.62,159.83 593.57,146.15 586.69,137.3C581.7,130.48 572.45,127.88 564.39,129.65Z" style="fill:rgb(21,40,45);fill-rule:nonzero;"/>
    </g>
    <g transform="matrix(1,0,0,1,-39.22,-36.0085)">
        <path d="M378.02,107.58C386.73,107.55 395.44,107.53 404.15,107.6C404.21,136.84 404.21,166.09 404.15,195.34C395.44,195.41 386.73,195.39 378.02,195.35C377.98,166.1 377.99,136.84 378.02,107.58Z" style="fill:rgb(21,40,45);fill-rule:nonzero;"/>
    </g>
</svg>
