<?xml version="1.0" encoding="UTF-8" standalone="no"?>
<!-- Generator: Adobe Illustrator 14.0.0, SVG Export Plug-In . SVG Version: 6.00 Build 43363)  -->

<svg
   xmlns:dc="http://purl.org/dc/elements/1.1/"
   xmlns:cc="http://creativecommons.org/ns#"
   xmlns:rdf="http://www.w3.org/1999/02/22-rdf-syntax-ns#"
   xmlns:svg="http://www.w3.org/2000/svg"
   xmlns="http://www.w3.org/2000/svg"
   xmlns:sodipodi="http://sodipodi.sourceforge.net/DTD/sodipodi-0.dtd"
   xmlns:inkscape="http://www.inkscape.org/namespaces/inkscape"
   version="1.1"
   id="Layer_1"
   x="0px"
   y="0px"
   width="229.67799"
   height="40.086998"
   viewBox="0 0 229.67799 40.086998"
   xml:space="preserve"
   inkscape:version="0.48.1 "
   sodipodi:docname="AJAX.svg"><metadata
   id="metadata55"><rdf:RDF><cc:Work
       rdf:about=""><dc:format>image/svg+xml</dc:format><dc:type
         rdf:resource="http://purl.org/dc/dcmitype/StillImage" /></cc:Work></rdf:RDF></metadata><defs
   id="defs53" /><sodipodi:namedview
   pagecolor="#ffffff"
   bordercolor="#666666"
   borderopacity="1"
   objecttolerance="10"
   gridtolerance="10"
   guidetolerance="10"
   inkscape:pageopacity="0"
   inkscape:pageshadow="2"
   inkscape:window-width="1280"
   inkscape:window-height="1004"
   id="namedview51"
   showgrid="false"
   fit-margin-top="0"
   fit-margin-left="0"
   fit-margin-right="0"
   fit-margin-bottom="0"
   inkscape:zoom="3.0374886"
   inkscape:cx="159.9751"
   inkscape:cy="43.993248"
   inkscape:window-x="-8"
   inkscape:window-y="-8"
   inkscape:window-maximized="1"
   inkscape:current-layer="Layer_1" />
<g
   id="g3"
   transform="translate(-4.1840025,-9.032)">
	<g
   id="g5">
		<g
   id="g7">
			<path
   d="m 116.047,34.094 c -0.219,0.487 -1.363,2.693 -4.228,2.693 -3.318,0 -4.612,-2.752 -4.612,-4.797 0,-3.381 2.277,-6.419 5.629,-6.419 3.608,0 4.468,2.687 4.551,3.174 h 5.306 c 0.318,-1.984 -1.256,-8.05 -9.653,-8.05 -6.142,0 -11.056,4.906 -11.056,11.463 0,5.365 3.353,9.502 9.567,9.502 7.745,0 9.836,-6.075 10.092,-7.566 h -5.596 z"
   id="path9"
   inkscape:connector-curvature="0" />
			<path
   d="m 75.324,35.572 c 0,-0.31 0.082,-0.896 0.355,-2.128 0.264,-1.235 4.013,-18.506 4.013,-18.506 h -4.98 L 70.58,33.99 c -0.174,0.801 -0.249,1.591 -0.249,2.289 0,4.178 3.232,5.406 5.819,5.406 0.926,0 1.785,-0.154 2,-0.182 0.082,-0.418 0.863,-4.005 0.901,-4.162 -0.112,0.008 -0.661,0.049 -1.298,0.049 -1.851,10e-4 -2.429,-0.785 -2.429,-1.818 z"
   id="path11"
   inkscape:connector-curvature="0" />
			<polygon
   points="139.104,20.761 130.182,28.795 133.189,14.897 128.173,14.897 122.478,41.264 127.49,41.264 128.875,34.857 131.959,32.402 136.223,41.264 141.803,41.264 135.752,29.395 146.051,20.761 "
   id="polygon13" />
			<path
   d="m 47.949,33.114 c 0.417,-1.89 3.95,-18.209 3.95,-18.209 0,0 6.088,0 9.489,0 6.885,0 8.579,3.827 8.579,6.149 0,5.137 -4.852,6.497 -5.446,6.683 0.553,0.182 3.702,1.43 3.702,5.464 0,4.389 -4.046,8.066 -10.319,8.066 0,0 -2.25,0 -2.861,0 -5.268,10e-4 -8.097,-3.616 -7.094,-8.153 z m 14.857,-0.323 c 0,-1.239 -0.798,-2.811 -4.341,-2.811 h -4.601 l -1.378,6.377 h 5.209 c 3.371,0 5.111,-1.519 5.111,-3.566 z m 1.707,-10.624 c 0,-1.282 -0.976,-2.385 -3.366,-2.385 H 56.07 l -1.151,5.323 h 5.29 c 2.849,-0.001 4.304,-1.376 4.304,-2.938 z"
   id="path15"
   inkscape:connector-curvature="0" />
			<path
   d="m 143.766,33.114 c 0.418,-1.89 3.95,-18.209 3.95,-18.209 0,0 6.088,0 9.493,0 6.885,0 8.58,3.827 8.58,6.149 0,5.137 -4.852,6.497 -5.447,6.683 0.545,0.182 3.703,1.43 3.703,5.464 0,4.389 -4.051,8.066 -10.324,8.066 0,0 -2.248,0 -2.859,0 -5.27,10e-4 -8.1,-3.616 -7.096,-8.153 z m 14.857,-0.323 c 0,-1.239 -0.799,-2.811 -4.34,-2.811 h -4.604 l -1.377,6.377 h 5.211 c 3.37,0 5.11,-1.519 5.11,-3.566 z m 1.706,-10.624 c 0,-1.282 -0.972,-2.385 -3.368,-2.385 h -5.075 l -1.149,5.323 h 5.291 c 2.847,-0.001 4.301,-1.376 4.301,-2.938 z"
   id="path17"
   inkscape:connector-curvature="0" />
			<path
   d="m 200.223,20.773 c -5.314,0 -8.928,3.145 -10.146,9.047 -0.524,2.537 -2.451,11.455 -2.451,11.455 h 4.977 c 0,0 1.834,-8.48 2.414,-11.145 0.76,-3.493 2.607,-4.679 5.09,-4.679 0.803,0 1.314,0.091 1.575,0.128 0.137,-0.703 0.831,-3.856 0.997,-4.629 -0.539,-0.069 -1.39,-0.177 -2.456,-0.177 z"
   id="path19"
   inkscape:connector-curvature="0" />
			<path
   d="m 217.158,49.119 16.704,-28.346 h -5.376 l -7.676,13.34 -1.793,-13.356 c 0,0 -2.736,0 -5.752,0 -6.588,0 -10.002,3.013 -11.213,8.778 -0.607,2.877 -2.537,11.74 -2.537,11.74 h 4.979 c 0,0 1.827,-8.418 2.554,-11.815 0.703,-3.298 3.149,-4.306 5.787,-3.744 l 1.049,-4.839 c 0.777,4.596 3.153,19.279 3.153,19.279 l -5.212,8.963 h 5.333 z"
   id="path21"
   inkscape:connector-curvature="0" />
			<path
   d="m 89.701,32.531 c 1.096,-0.162 4.303,-0.657 4.74,-0.719 -0.082,0.342 -0.211,0.889 -0.306,1.293 -0.579,2.479 -3.104,4.071 -5.889,4.071 -1.777,0 -2.815,-0.956 -2.815,-2.092 0.001,-0.938 0.861,-2.049 4.27,-2.553 z m -1.863,-5.339 c 0.123,-0.203 1.404,-2.178 4.595,-2.178 1.984,0 3.001,0.724 3.001,1.6 0,1.236 -2,1.558 -5.464,2.054 -5.951,0.86 -9.712,2.707 -9.712,7.005 0,3.046 2.529,6.014 7.021,6.014 3.732,0 5.683,-2.253 5.856,-2.426 0.017,0.541 0.087,1.351 0.145,2.004 0.409,0 3.86,0 5.146,0 -0.178,-0.889 -0.546,-2.596 0.065,-5.327 0.323,-1.438 1.231,-5.571 1.694,-7.852 0.881,-4.315 -1.487,-7.365 -7.555,-7.365 -7.802,0 -10.05,5.608 -10.414,6.472 h 5.622 z"
   id="path23"
   inkscape:connector-curvature="0" />
			<path
   d="m 180.303,35.122 c -0.182,0.401 -1.393,2.091 -4.1,2.091 -3.898,0 -4.785,-3.305 -4.695,-4.211 2.08,0 14.097,0 15.184,0 0.087,-0.371 0.43,-1.723 0.43,-3.111 0,-4.803 -3.256,-9.195 -9.823,-9.195 -6.005,0 -10.823,5.05 -10.823,11.047 0,5.802 3.484,9.918 9.645,9.918 7.613,0 9.664,-5.963 9.861,-6.538 -1.357,-10e-4 -5.679,-10e-4 -5.679,-10e-4 z m -2.951,-9.873 c 3.352,0 4.633,2.046 4.496,3.687 -1.926,0 -7.654,0 -9.588,0 0.248,-1.042 1.847,-3.687 5.092,-3.687 z"
   id="path25"
   inkscape:connector-curvature="0" />
		</g>
		<g
   id="g27">
			<path
   d="m 16.451,11.896 c 0,-1.264 -0.774,-2.864 -4.027,-2.864 -1.335,0 -5.009,0 -5.009,0 L 5.991,15.62 c 0,0 2.707,0 5.222,0 4.077,0 5.238,-1.93 5.238,-3.724 z"
   id="path29"
   inkscape:connector-curvature="0" />
			<path
   d="m 29.944,11.896 c 0,-1.264 -0.772,-2.864 -4.024,-2.864 -1.336,0 -5.01,0 -5.01,0 l -1.423,6.587 c 0,0 2.706,0 5.219,0 4.079,10e-4 5.238,-1.929 5.238,-3.723 z"
   id="path31"
   inkscape:connector-curvature="0" />
			<path
   d="m 14.644,21.811 c 0,-1.264 -0.774,-2.868 -4.027,-2.868 -1.335,0 -5.009,0 -5.009,0 l -1.424,6.592 c 0,0 2.707,0 5.22,0 4.078,0 5.24,-1.935 5.24,-3.724 z"
   id="path33"
   inkscape:connector-curvature="0" />
			<path
   d="m 28.137,21.811 c 0,-1.264 -0.775,-2.868 -4.025,-2.868 -1.337,0 -5.009,0 -5.009,0 l -1.426,6.592 c 0,0 2.707,0 5.222,0 4.079,0 5.238,-1.935 5.238,-3.724 z"
   id="path35"
   inkscape:connector-curvature="0" />
			<path
   d="m 42.254,17.79 c 0,-1.265 -0.775,-2.868 -4.025,-2.868 -1.337,0 -5.009,0 -5.009,0 l -1.426,6.591 c 0,0 2.709,0 5.22,0 4.079,0 5.24,-1.93 5.24,-3.723 z"
   id="path37"
   inkscape:connector-curvature="0" />
			<path
   d="m 40.308,28.113 c 0,-1.265 -0.773,-2.864 -4.025,-2.864 -1.335,0 -5.009,0 -5.009,0 l -1.424,6.588 c 0,0 2.705,0 5.22,0 4.078,0 5.238,-1.935 5.238,-3.724 z"
   id="path39"
   inkscape:connector-curvature="0" />
			<path
   d="m 26.198,32.135 c 0,-1.27 -0.772,-2.873 -4.022,-2.873 -1.338,0 -5.012,0 -5.012,0 l -1.424,6.591 c 0,0 2.707,0 5.22,0 4.079,10e-4 5.238,-1.929 5.238,-3.718 z"
   id="path41"
   inkscape:connector-curvature="0" />
		</g>
	</g>
	<rect
   width="240.5"
   height="53.5"
   id="rect43"
   x="0"
   y="0"
   style="fill:none" />
	
</g>
</svg>