<?xml version="1.0" encoding="UTF-8" standalone="no"?>
<!DOCTYPE svg PUBLIC "-//W3C//DTD SVG 1.1//EN" "http://www.w3.org/Graphics/SVG/1.1/DTD/svg11.dtd">
<svg width="100%" height="100%" viewBox="0 0 600 115" version="1.1" xmlns="http://www.w3.org/2000/svg" xmlns:xlink="http://www.w3.org/1999/xlink" xml:space="preserve" xmlns:serif="http://www.serif.com/" style="fill-rule:evenodd;clip-rule:evenodd;stroke-linejoin:round;stroke-miterlimit:2;">
    <g transform="matrix(1,0,0,1,-20.9,-264.5)">
        <path d="M321.7,264.5L321.8,331.2L321.8,334.2L620.9,334.2L620.9,264.6L321.7,264.5ZM390.6,295.3C387.4,291.9 383.9,291.9 380.3,293.5C376.8,294.9 374.5,298.2 374.4,301.9C373.8,308.2 379.1,310.5 383.8,309.2C385.5,308.5 387.2,307.8 388.9,306.9C388.4,310 388,312.9 387.5,315.7C387.5,315.9 387,316.2 386.7,316.3C377.1,320.1 367.8,315.3 365.9,307.2C364,298.8 369.4,289.7 378.2,286.1C382.7,284.6 387.7,284.9 392,287L390.6,295.3ZM448.4,316.5C448.3,316.4 446.7,310.6 446.7,310.6L436,310.6L433.1,316.6L424.2,316.6L431.1,304C434.1,298.4 438,291.1 441,285.5L449.9,285.5C449.9,285.5 451.3,290.9 451.6,292C453.2,299.4 454.8,306.8 456.4,314.1C456.6,314.8 456.7,315.6 456.8,316.5L448.4,316.5ZM508.7,296.8C510.6,297.4 512.5,298.2 514.3,299C516.6,300.2 518,302.7 517.6,305.3C516.8,317.6 503.1,320 495.2,315.3C494.6,314.9 494,314.4 493.2,313.9L497.6,307.6C499,308.5 500.5,309.3 502,310C503.7,310.6 505.5,310.5 507.1,309.7C508,309.2 508.6,308.2 508.7,307.1C508.7,306.2 507.8,305.4 507,305C505.5,304.4 504,303.8 502.5,303.4C498,301.8 496.4,299.3 497.4,294.4C499.5,286.7 506.4,283 514.8,285.4C516.3,285.8 517.7,286.5 519.4,287.2L515.5,293C512.7,292.2 511.9,291.7 509.5,291.8C508.1,292 507,292.9 506.5,294.1C505.7,295.8 507.4,296.3 508.7,296.8ZM577.4,292.6L570.8,292.6C569.5,300.5 568.2,308.4 566.9,316.5L558.7,316.5C559.9,308.6 561.1,300.8 562.4,292.6L555.8,292.6C556.2,290.4 557.1,285.4 557.1,285.4L578.4,285.4C578.2,287.6 577.4,292.6 577.4,292.6ZM222.3,334.1L295.2,334.1L295.2,331C295.2,308.7 295.2,286.8 295.3,264.5L222.3,264.5L222.3,334.1ZM198,264.5L152.9,264.5L152.9,334.2L198.1,334.2C198.1,333.4 198.2,332.9 198.2,332.3L198.2,266.3C198.1,265.7 198.1,265.1 198,264.5ZM113.1,266.2L113.1,332.2C113.1,332.8 113.2,333.5 113.3,334.1L134.5,334.1L134.5,331C134.5,308.7 134.5,286.8 134.6,264.5L113.3,264.5C113.2,265.1 113.2,265.7 113.1,266.2ZM91,264.5L81.4,264.5L81.4,334.2L91.1,334.2C91.1,333.4 91.2,332.9 91.2,332.3L91.2,266.3C91.2,265.6 91.1,265 91,264.5ZM49,334.2L54.5,334.2L54.5,330.8C54.5,308.6 54.5,286.7 54.6,264.5L49,264.5L49,334.2ZM21.1,334.4L25.2,334.4L25.2,264.5L21.1,264.5L21.1,334.4ZM443.7,296.1L439.5,304.8L445.8,304.8C445.3,301.8 444.8,299 444.3,296.2L443.7,296.1ZM29.5,374.3C27.9,374.3 26.4,374 24.9,373.5C23.4,372.9 22,372.1 20.9,371L23.1,368.4C24,369.2 25,369.9 26.1,370.4C27.2,370.9 28.4,371.1 29.6,371.1C30.5,371.2 31.5,370.9 32.3,370.4C32.9,370 33.3,369.3 33.3,368.5C33.3,368.2 33.2,367.8 33.1,367.5C32.9,367.2 32.7,366.9 32.4,366.7C32,366.4 31.5,366.2 31,366C30.2,365.7 29.4,365.5 28.6,365.3C27.6,365.1 26.6,364.8 25.7,364.4C24.9,364.1 24.2,363.7 23.5,363.2C22.9,362.7 22.5,362.2 22.2,361.5C21.9,360.7 21.7,359.9 21.7,359.1L21.7,359C21.7,358.2 21.9,357.4 22.2,356.6C22.5,355.9 23,355.2 23.7,354.7C24.4,354.2 25.1,353.8 25.9,353.5C26.8,353.2 27.8,353 28.7,353.1C30.1,353.1 31.5,353.3 32.8,353.8C34,354.3 35.2,354.9 36.2,355.7L34.2,358.5C33.3,357.9 32.4,357.3 31.4,356.9C30.5,356.5 29.6,356.3 28.6,356.3C27.7,356.3 26.8,356.5 26.1,357C25.5,357.4 25.2,358.1 25.2,358.8L25.2,358.9C25.2,359.3 25.3,359.6 25.4,359.9C25.6,360.2 25.8,360.5 26.2,360.7C26.7,361 27.2,361.2 27.7,361.4C28.3,361.6 29.2,361.8 30.1,362.1C31.1,362.3 32.1,362.7 33,363C33.8,363.3 34.5,363.7 35.1,364.2C35.6,364.7 36.1,365.2 36.4,365.9C36.7,366.6 36.8,367.4 36.8,368.1L36.8,368.2C36.8,369.1 36.6,370 36.3,370.8C35.9,371.6 35.4,372.2 34.8,372.8C34.1,373.3 33.3,373.8 32.5,374C31.5,374.2 30.5,374.3 29.5,374.3ZM48.2,374.3C47.1,374.3 45.9,374.1 44.9,373.7C43.9,373.3 43,372.7 42.3,372C41.6,371.3 41,370.4 40.6,369.4C40.2,368.4 40,367.3 40,366.3L40,366.2C40,365.1 40.2,364 40.6,363C41.4,361 43,359.5 45,358.7C46.1,358.3 47.2,358 48.3,358.1C49.4,358.1 50.6,358.3 51.6,358.7C52.6,359.1 53.5,359.7 54.2,360.4C55.7,361.9 56.6,364 56.6,366.1L56.6,366.2C56.6,367.3 56.4,368.3 56,369.3C55.6,370.3 55,371.1 54.3,371.9C53.5,372.7 52.6,373.3 51.6,373.7C50.5,374.1 49.3,374.3 48.2,374.3ZM48.2,371.2C48.9,371.2 49.5,371.1 50.1,370.8C50.7,370.5 51.2,370.2 51.6,369.7C52,369.2 52.3,368.7 52.5,368.1C52.7,367.5 52.8,366.8 52.8,366.2L52.8,366.1C52.8,365.4 52.7,364.8 52.5,364.1C52.3,363.5 51.9,363 51.5,362.5C51.1,362 50.6,361.7 50,361.4C49.4,361.1 48.7,361 48.1,361C47.4,361 46.8,361.1 46.2,361.4C45.6,361.7 45.1,362 44.7,362.5C44.3,363 44,363.5 43.8,364.1C43.6,364.7 43.5,365.4 43.5,366L43.5,366.1C43.5,366.8 43.6,367.4 43.8,368C44,368.6 44.4,369.1 44.8,369.6C45.7,370.7 46.9,371.2 48.2,371.2ZM61,361.4L59,361.4L59,358.4L61,358.4L61,357.3C60.9,355.9 61.4,354.5 62.3,353.4C63.3,352.5 64.5,352.1 65.8,352.2C66.3,352.2 66.9,352.2 67.4,352.3C67.8,352.4 68.3,352.5 68.7,352.6L68.7,355.6C68.3,355.5 68,355.4 67.7,355.3C67.3,355.2 67,355.2 66.6,355.2C65.2,355.2 64.5,356 64.5,357.6L64.5,358.5L68.6,358.5L68.6,361.5L64.5,361.5L64.5,374L61,374L61,361.4ZM76.6,374.2C76,374.2 75.4,374.1 74.8,374C74.3,373.9 73.8,373.6 73.4,373.2C73,372.8 72.7,372.3 72.5,371.8C72.3,371.1 72.1,370.4 72.2,369.6L72.2,361.4L70.2,361.4L70.2,358.3L72.2,358.3L72.2,354L75.8,354L75.8,358.3L80,358.3L80,361.4L75.8,361.4L75.8,369.1C75.7,369.6 75.9,370.2 76.3,370.6C76.7,370.9 77.2,371.1 77.7,371.1C78.5,371.1 79.2,370.9 79.9,370.6L79.9,373.5C79.4,373.8 79,374 78.4,374.1C77.8,374.2 77.2,374.2 76.6,374.2ZM82.1,358.3L85.8,358.3L88.9,369L92.4,358.2L95.4,358.2L98.9,369L102.1,358.3L105.7,358.3L100.6,374L97.4,374L93.9,363.3L90.4,374L87.2,374L82.1,358.3ZM118.5,374L118.5,372C117.9,372.7 117.2,373.2 116.5,373.6C115.6,374.1 114.5,374.3 113.5,374.2C112.8,374.2 112.1,374.1 111.4,373.9C110.8,373.7 110.2,373.4 109.6,373C109.1,372.6 108.7,372.1 108.4,371.5C108.1,370.8 107.9,370.1 107.9,369.4L107.9,369.3C107.9,368.5 108,367.7 108.4,367C108.7,366.4 109.2,365.8 109.7,365.4C110.3,365 111,364.6 111.7,364.5C112.5,364.3 113.4,364.2 114.2,364.2C115,364.2 115.8,364.2 116.6,364.4C117.2,364.5 117.9,364.7 118.5,364.9L118.5,364.7C118.6,363.8 118.2,362.8 117.5,362.2C116.7,361.6 115.7,361.3 114.7,361.3C113.9,361.3 113.1,361.4 112.3,361.6C111.6,361.8 110.9,362 110.2,362.3L109.2,359.4C110.1,359 110.9,358.7 111.9,358.5C113,358.2 114.1,358.1 115.2,358.1C117.1,357.9 119,358.6 120.4,359.8C121.6,361.1 122.2,362.9 122.1,364.7L122.1,373.9L118.5,374ZM118.6,367.4C118.1,367.2 117.5,367.1 117,367C116.4,366.9 115.7,366.8 115,366.8C114.1,366.7 113.2,367 112.4,367.5C111.8,367.9 111.4,368.5 111.5,369.3C111.5,370 111.8,370.6 112.4,371C113,371.4 113.8,371.6 114.5,371.6C115.1,371.6 115.6,371.5 116.1,371.4C116.6,371.3 117,371 117.4,370.7C117.8,370.4 118.1,370.1 118.3,369.7C118.5,369.3 118.6,368.8 118.6,368.4L118.6,367.4ZM126.2,358.3L129.8,358.3L129.8,361.8C130.2,360.7 131,359.7 131.9,359C132.9,358.3 134.1,357.9 135.3,358L135.3,361.8L135.1,361.8C134.4,361.8 133.6,361.9 133,362.2C132.3,362.5 131.8,362.9 131.3,363.4C130.8,364 130.4,364.6 130.2,365.3C129.9,366.2 129.8,367.1 129.8,368L129.8,373.9L126.2,373.9L126.2,358.3ZM145.6,374.3C144.5,374.3 143.4,374.1 142.4,373.7C140.5,372.9 138.9,371.4 138.2,369.5C137.8,368.5 137.6,367.3 137.6,366.2L137.6,366.1C137.6,365 137.8,364 138.2,362.9C138.6,361.9 139.1,361.1 139.8,360.3C140.5,359.6 141.3,359 142.2,358.6C144.2,357.7 146.5,357.7 148.5,358.6C149.4,359 150.2,359.6 150.8,360.4C151.4,361.2 151.9,362.1 152.2,363.1C152.5,364.1 152.7,365.2 152.7,366.3L152.7,367.3L141.2,367.3C141.3,368.4 141.9,369.5 142.7,370.2C143.5,370.9 144.6,371.3 145.7,371.2C146.5,371.2 147.3,371.1 148,370.7C148.7,370.3 149.4,369.9 149.9,369.3L152,371.2C151.3,372.1 150.3,372.8 149.3,373.3C148.2,374 146.9,374.3 145.6,374.3ZM149.1,365C149,364.4 148.9,363.9 148.7,363.4C148.5,362.9 148.3,362.5 147.9,362.1C147.6,361.7 147.2,361.4 146.7,361.2C146.2,361 145.7,360.9 145.1,360.9C144.1,360.9 143.1,361.3 142.4,362C141.7,362.8 141.2,363.9 141.1,365L149.1,365ZM165.8,353.3L169.4,353.3L169.4,374L165.8,374L165.8,353.3ZM174.5,358.3L178.1,358.3L178.1,360.7C178.4,360.3 178.6,360 178.9,359.6C179.2,359.3 179.6,359 180,358.7C180.4,358.4 180.9,358.2 181.3,358.1C181.8,357.9 182.4,357.9 182.9,357.9C184.4,357.8 185.9,358.4 187,359.5C188,360.7 188.5,362.3 188.4,363.9L188.4,373.8L185,373.8L185,365C185.1,364 184.8,363 184.1,362.2C183.5,361.5 182.6,361.2 181.7,361.2C180.8,361.2 179.8,361.5 179.2,362.2C178.5,363 178.2,364 178.2,365L178.2,373.8L174.6,373.8L174.5,358.3ZM198.1,374.2C197.5,374.2 196.9,374.1 196.3,374C195.8,373.9 195.3,373.6 194.9,373.2C194.5,372.8 194.2,372.3 194,371.8C193.8,371.1 193.6,370.4 193.7,369.6L193.7,361.4L191.7,361.4L191.7,358.3L193.7,358.3L193.7,354L197.3,354L197.3,358.3L201.5,358.3L201.5,361.4L197.3,361.4L197.3,369.1C197.2,369.6 197.4,370.2 197.8,370.6C198.2,370.9 198.7,371.1 199.2,371.1C200,371.1 200.7,370.9 201.4,370.6L201.4,373.5C200.9,373.8 200.5,374 199.9,374.1C199.3,374.2 198.7,374.2 198.1,374.2ZM212.1,374.3C211,374.3 209.9,374.1 208.9,373.7C208,373.3 207.1,372.8 206.4,372C205.7,371.3 205.1,370.4 204.7,369.4C204.3,368.4 204.1,367.2 204.1,366.1L204.1,366C204.1,364.9 204.3,363.9 204.7,362.8C205.1,361.8 205.6,361 206.3,360.2C208.6,357.8 212.1,357.2 215.1,358.5C216,358.9 216.8,359.5 217.4,360.3C218,361.1 218.5,362 218.8,363C219.1,364 219.3,365.1 219.3,366.2L219.3,367.2L207.8,367.2C207.9,368.3 208.5,369.4 209.3,370.1C210.1,370.8 211.2,371.1 212.3,371.1C213.1,371.1 213.9,371 214.6,370.6C215.3,370.2 216,369.8 216.5,369.2L218.6,371.1C217.9,372 216.9,372.7 215.9,373.2C214.7,374.1 213.4,374.3 212.1,374.3ZM215.7,365C215.6,364.4 215.5,363.9 215.3,363.4C215.1,362.9 214.8,362.5 214.5,362.1C214.2,361.7 213.8,361.4 213.3,361.2C212.8,361 212.3,360.9 211.7,360.9C210.7,360.9 209.7,361.3 209,362C208.3,362.8 207.8,363.9 207.7,365L215.7,365ZM223.1,352.4L226.7,352.4L226.7,374L223.1,374L223.1,352.4ZM231.5,352.4L235.1,352.4L235.1,374L231.5,374L231.5,352.4ZM239.8,352.5L243.7,352.5L243.7,355.9L239.8,355.9L239.8,352.5ZM240,358.3L243.6,358.3L243.6,374L240,374L240,358.3ZM255.2,378.7C252.8,378.7 250.3,378.1 248.2,376.9L249.5,374.2C250.3,374.7 251.2,375.1 252.1,375.4C253.1,375.7 254.1,375.8 255.1,375.8C256.4,375.9 257.7,375.5 258.8,374.6C259.7,373.6 260.2,372.3 260.1,371L260.1,369.8C259.5,370.6 258.7,371.3 257.8,371.9C256.8,372.5 255.7,372.7 254.6,372.7C252.8,372.7 251,372 249.7,370.8C249,370.1 248.5,369.4 248.1,368.5C247.7,367.5 247.5,366.5 247.5,365.4L247.5,365.3C247.5,364.2 247.7,363.2 248.1,362.2C248.5,361.3 249,360.5 249.7,359.9C251,358.7 252.8,358 254.6,358C255.7,358 256.9,358.2 257.9,358.8C258.7,359.3 259.5,359.9 260.1,360.7L260.1,358.4L263.7,358.4L263.7,370.8C263.9,373 263.1,375.1 261.7,376.7C261,377.4 260,378 259,378.3C257.7,378.6 256.4,378.8 255.2,378.7ZM255.5,369.7C256.1,369.7 256.7,369.6 257.3,369.4C257.8,369.2 258.3,368.9 258.8,368.5C259.2,368.1 259.5,367.7 259.8,367.1C260,366.6 260.2,366 260.2,365.4L260.2,365.3C260.2,364.7 260.1,364.1 259.8,363.5C259.6,363 259.2,362.5 258.8,362.1C258.4,361.7 257.9,361.4 257.3,361.2C256.7,361 256.1,360.9 255.5,360.9C254.9,360.9 254.3,361 253.7,361.2C253.2,361.4 252.7,361.7 252.3,362.1C251.9,362.5 251.6,362.9 251.4,363.4C251.2,364 251.1,364.6 251.1,365.2C251.1,365.8 251.2,366.4 251.5,367C251.7,367.5 252,368 252.4,368.4C252.8,368.8 253.3,369.1 253.8,369.3C254.3,369.6 254.9,369.7 255.5,369.7ZM275.2,374.3C274.1,374.3 273.1,374.1 272.1,373.7C271.2,373.3 270.3,372.8 269.6,372C268.9,371.3 268.3,370.4 267.9,369.4C267.5,368.4 267.3,367.2 267.3,366.1L267.3,366C267.3,364.9 267.5,363.9 267.9,362.8C268.3,361.8 268.8,361 269.5,360.2C270.2,359.5 271,358.9 271.9,358.5C273.9,357.6 276.2,357.6 278.2,358.5C279.1,358.9 279.9,359.5 280.5,360.3C281.1,361.1 281.6,362 281.9,363C282.2,364 282.4,365.1 282.4,366.2L282.4,367.2L270.9,367.2C271,368.3 271.6,369.4 272.4,370.1C273.2,370.8 274.3,371.2 275.4,371.1C276.2,371.1 277,371 277.7,370.6C278.4,370.2 279.1,369.8 279.6,369.2L281.7,371.1C281,372 280.1,372.7 279,373.2C277.8,374 276.5,374.3 275.2,374.3ZM278.8,365C278.7,364.4 278.6,363.9 278.4,363.4C278.2,362.9 277.9,362.5 277.6,362.1C277.3,361.7 276.9,361.4 276.4,361.2C275.9,361 275.4,360.9 274.8,360.9C273.8,360.9 272.8,361.3 272.1,362C271.4,362.8 270.9,363.9 270.8,365L278.8,365ZM285.9,358.3L289.5,358.3L289.5,360.7C289.8,360.3 290,360 290.3,359.6C290.6,359.3 291,359 291.4,358.7C291.8,358.4 292.3,358.2 292.7,358.1C293.2,357.9 293.8,357.9 294.3,357.9C295.8,357.8 297.3,358.4 298.4,359.5C299.4,360.7 299.9,362.3 299.8,363.9L299.8,373.8L296.2,373.8L296.2,365C296.3,364 296,363 295.3,362.2C294.7,361.5 293.8,361.2 292.9,361.2C292,361.2 291,361.5 290.4,362.2C289.7,363 289.4,364 289.4,365L289.4,373.8L285.8,373.8L285.9,358.3ZM311.5,374.3C310.4,374.3 309.3,374.1 308.3,373.7C306.4,372.9 304.8,371.3 304,369.4C303.6,368.4 303.4,367.3 303.4,366.3L303.4,366.2C303.4,365.1 303.6,364 304,363C304.4,362 305,361.1 305.7,360.4C306.4,359.6 307.3,359 308.3,358.6C310.5,357.7 313,357.7 315.2,358.7C316.2,359.2 317,359.9 317.8,360.7L315.6,363.1C315.1,362.6 314.5,362.1 313.8,361.7C313.1,361.3 312.3,361.1 311.5,361.1C310.9,361.1 310.3,361.2 309.7,361.5C309.2,361.8 308.7,362.1 308.3,362.6C307.9,363.1 307.6,363.6 307.4,364.2C307.2,364.8 307.1,365.5 307.1,366.1L307.1,366.2C307.1,366.9 307.2,367.5 307.4,368.1C307.6,368.7 307.9,369.2 308.4,369.7C308.8,370.2 309.3,370.5 309.9,370.8C311.2,371.4 312.7,371.3 314,370.7C314.7,370.3 315.3,369.8 315.8,369.3L318,371.4C317.3,372.2 316.4,373 315.4,373.5C314.1,374.1 312.8,374.3 311.5,374.3ZM328.3,374.3C327.2,374.3 326.2,374.1 325.2,373.7C324.2,373.3 323.4,372.8 322.7,372C322,371.3 321.4,370.4 321,369.4C320.6,368.4 320.4,367.2 320.4,366.1L320.4,366C320.4,364.9 320.6,363.9 321,362.8C321.4,361.8 321.9,361 322.6,360.2C323.3,359.5 324.1,358.9 325,358.5C327,357.6 329.3,357.6 331.3,358.5C332.2,358.9 333,359.5 333.6,360.3C334.2,361.1 334.7,362 335,363C335.3,364 335.5,365.1 335.5,366.2L335.5,367.2L324,367.2C324.2,369.5 326.2,371.3 328.5,371.2C329.3,371.2 330.1,371.1 330.8,370.7C331.5,370.3 332.2,369.9 332.7,369.3L334.8,371.2C334.1,372.1 333.1,372.8 332.1,373.3C330.9,374 329.6,374.3 328.3,374.3ZM331.9,365C331.8,364.4 331.7,363.9 331.5,363.4C331.3,362.9 331,362.5 330.7,362.1C330.4,361.7 330,361.4 329.5,361.2C329,361 328.5,360.9 327.9,360.9C326.9,360.9 325.9,361.3 325.2,362C324.4,362.8 324,363.9 323.9,365L331.9,365ZM348.6,361.4L346.6,361.4L346.6,358.4L348.6,358.4L348.6,357.3C348.5,355.9 349,354.5 349.9,353.4C350.9,352.5 352.1,352.1 353.4,352.2C353.9,352.2 354.5,352.2 355,352.3C355.4,352.4 355.9,352.5 356.3,352.6L356.3,355.6C355.9,355.5 355.6,355.4 355.3,355.3C354.9,355.2 354.6,355.2 354.2,355.2C352.8,355.2 352.1,356 352.1,357.6L352.1,358.5L356.2,358.5L356.2,361.5L352.1,361.5L352.1,374L348.5,374L348.5,361.4L348.6,361.4ZM366.4,374.3C365.3,374.3 364.1,374.1 363.1,373.7C362.1,373.3 361.2,372.7 360.5,372C359.8,371.3 359.2,370.4 358.8,369.4C358.4,368.4 358.2,367.3 358.2,366.3L358.2,366.2C358.2,365.1 358.4,364 358.8,363C359.2,362 359.8,361.2 360.5,360.4C361.3,359.6 362.1,359 363.1,358.6C364.2,358.2 365.3,357.9 366.4,358C367.5,358 368.7,358.2 369.7,358.6C370.7,359 371.6,359.6 372.3,360.3C373,361 373.6,361.9 374,362.9C374.4,363.9 374.6,365 374.6,366.1L374.6,366.2C374.6,367.3 374.4,368.3 374,369.3C373.6,370.3 373,371.1 372.2,371.9C371.4,372.7 370.5,373.3 369.6,373.7C368.7,374.1 367.5,374.3 366.4,374.3ZM366.4,371.2C367.1,371.2 367.7,371.1 368.3,370.8C368.9,370.5 369.4,370.2 369.8,369.7C370.2,369.2 370.5,368.7 370.7,368.1C370.9,367.5 371,366.8 371,366.2L371,366.1C371,365.4 370.9,364.8 370.7,364.1C370.5,363.5 370.1,363 369.7,362.5C369.3,362 368.8,361.7 368.2,361.4C366.4,360.6 364.2,361 362.9,362.5C362.5,363 362.2,363.5 362,364.1C361.8,364.7 361.7,365.4 361.7,366L361.7,366.1C361.7,366.8 361.8,367.4 362.1,368C362.3,368.6 362.7,369.1 363.1,369.6C363.5,370.1 364,370.4 364.6,370.7C365.1,371.1 365.8,371.2 366.4,371.2ZM378.4,358.3L382,358.3L382,361.8C382.4,360.7 383.2,359.7 384.1,359C385.1,358.3 386.3,357.9 387.5,358L387.5,361.8L387.3,361.8C386.6,361.8 385.8,361.9 385.2,362.2C384.5,362.5 384,362.9 383.5,363.4C383,364 382.6,364.6 382.4,365.3C382.1,366.2 382,367.1 382,368L382,373.9L378.4,373.9L378.4,358.3ZM399.9,353.3L407.6,353.3C409.1,353.3 410.6,353.6 412,354.1C413.3,354.6 414.5,355.3 415.5,356.3C416.5,357.2 417.2,358.3 417.8,359.6C418.3,360.9 418.6,362.3 418.6,363.7L418.6,363.8C418.6,365.2 418.3,366.6 417.8,367.9C417.3,369.1 416.5,370.3 415.5,371.2C414.5,372.2 413.3,372.9 412,373.4C410.6,373.9 409.1,374.2 407.6,374.2L399.9,374.2L399.9,353.3ZM407.6,370.7C408.6,370.7 409.6,370.5 410.6,370.2C412.3,369.6 413.7,368.2 414.3,366.5C414.6,365.6 414.8,364.7 414.8,363.7L414.8,363.6C414.8,362.6 414.6,361.7 414.3,360.8C414,360 413.5,359.2 412.8,358.6C412.2,358 411.4,357.5 410.5,357.1C409.6,356.7 408.5,356.6 407.5,356.6L403.4,356.6L403.4,370.8L407.6,370.7ZM422.6,352.5L426.5,352.5L426.5,355.9L422.6,355.9L422.6,352.5ZM422.8,358.3L426.4,358.3L426.4,374L422.8,374L422.8,358.3ZM438,378.7C435.5,378.7 433.1,378.1 431,376.9L432.3,374.2C433.1,374.7 434,375.1 434.9,375.4C435.9,375.7 436.9,375.8 437.9,375.8C439.2,375.9 440.6,375.5 441.6,374.6C442.5,373.6 443,372.3 442.9,371L442.9,369.8C442.3,370.6 441.5,371.3 440.6,371.9C439.6,372.5 438.5,372.7 437.4,372.7C436.5,372.7 435.6,372.5 434.7,372.2C433.9,371.9 433.1,371.4 432.4,370.8C431.7,370.2 431.2,369.4 430.8,368.5C430.4,367.5 430.2,366.5 430.2,365.4L430.2,365.3C430.2,364.2 430.4,363.2 430.8,362.2C431.2,361.3 431.7,360.5 432.4,359.9C433.1,359.3 433.8,358.8 434.7,358.5C435.5,358.2 436.4,358 437.3,358C438.4,358 439.6,358.2 440.6,358.8C441.4,359.3 442.2,359.9 442.8,360.7L442.8,358.4L446.4,358.4L446.4,370.8C446.6,373 445.8,375.1 444.4,376.7C443.7,377.4 442.7,378 441.7,378.3C440.5,378.6 439.3,378.8 438,378.7ZM438.3,369.7C438.9,369.7 439.5,369.6 440.1,369.4C440.6,369.2 441.1,368.9 441.6,368.5C442,368.1 442.3,367.7 442.6,367.1C442.9,366.6 443,366 443,365.4L443,365.3C443,364.7 442.9,364.1 442.6,363.5C442.4,363 442,362.5 441.6,362.1C441.2,361.7 440.7,361.4 440.1,361.2C439.5,361 438.9,360.9 438.3,360.9C437.7,360.9 437.1,361 436.6,361.2C436.1,361.4 435.6,361.7 435.2,362.1C434.8,362.5 434.5,362.9 434.3,363.4C434.1,364 434,364.6 434,365.2C434,365.8 434.1,366.4 434.3,367C434.5,367.5 434.9,368 435.2,368.4C435.6,368.8 436.1,369.1 436.6,369.3C437.1,369.6 437.7,369.7 438.3,369.7ZM450.9,352.5L454.8,352.5L454.8,355.9L450.9,355.9L450.9,352.5ZM451,358.3L454.6,358.3L454.6,374L451,374L451,358.3ZM464.6,374.2C464,374.2 463.4,374.1 462.8,374C462.3,373.9 461.8,373.6 461.3,373.2C460.9,372.8 460.6,372.3 460.4,371.8C460.2,371.1 460.1,370.4 460.1,369.6L460.1,361.4L458.1,361.4L458.1,358.3L460.1,358.3L460.1,354L463.7,354L463.7,358.3L467.9,358.3L467.9,361.4L463.7,361.4L463.7,369.1C463.6,369.6 463.8,370.2 464.2,370.6C464.6,370.9 465.1,371.1 465.6,371.1C466.4,371.1 467.1,370.9 467.8,370.6L467.8,373.5C467.3,373.8 466.9,374 466.3,374.1C465.8,374.2 465.2,374.2 464.6,374.2ZM481,374L481,372C480.4,372.7 479.7,373.2 479,373.6C478.1,374.1 477,374.3 476,374.2C475.3,374.2 474.6,374.1 473.9,373.9C473.3,373.7 472.7,373.4 472.1,373C471,372.1 470.4,370.8 470.4,369.4L470.4,369.3C470.4,368.5 470.5,367.7 470.9,367C471.2,366.4 471.7,365.8 472.2,365.4C472.8,365 473.5,364.6 474.2,364.5C475,364.3 475.9,364.2 476.7,364.2C477.5,364.2 478.3,364.2 479.1,364.4C479.7,364.5 480.4,364.7 481,364.9L481,364.7C481.1,363.8 480.7,362.8 480,362.2C479.2,361.6 478.2,361.3 477.2,361.3C476.4,361.3 475.6,361.4 474.8,361.6C474.1,361.8 473.4,362 472.7,362.3L471.7,359.4C472.6,359 473.4,358.7 474.4,358.5C475.5,358.2 476.6,358.1 477.7,358.1C479.6,357.9 481.5,358.6 482.9,359.8C484.1,361.1 484.7,362.9 484.6,364.7L484.6,373.9L481,374ZM481.1,367.4C480.6,367.2 480,367.1 479.5,367C478.9,366.9 478.2,366.8 477.5,366.8C476.6,366.7 475.7,367 474.9,367.5C474.3,367.9 473.9,368.5 474,369.3C474,370 474.3,370.6 474.9,371C475.5,371.4 476.3,371.6 477,371.6C477.6,371.6 478.1,371.5 478.6,371.4C479.1,371.3 479.5,371 479.9,370.7C480.3,370.4 480.6,370.1 480.8,369.7C481,369.3 481.1,368.8 481.1,368.4L481.1,367.4ZM489,352.4L492.6,352.4L492.6,374L489,374L489,352.4ZM506.5,353.3L510.1,353.3L510.1,370.7L521,370.7L521,374L506.5,374L506.5,353.3ZM531.6,374.3C530.5,374.3 529.5,374.1 528.5,373.7C527.6,373.3 526.7,372.8 526,372C525.3,371.3 524.7,370.4 524.3,369.4C523.9,368.4 523.7,367.2 523.7,366.1L523.7,366C523.7,364.9 523.9,363.9 524.3,362.8C524.7,361.8 525.2,361 525.9,360.2C526.6,359.5 527.4,358.9 528.3,358.5C530.3,357.6 532.6,357.6 534.6,358.5C535.5,358.9 536.4,359.5 537,360.3C537.6,361.1 538.1,362 538.4,363C538.7,364 538.9,365.1 538.9,366.2L538.9,367.2L527.4,367.2C527.5,368.3 528.1,369.4 528.9,370.1C529.7,370.8 530.8,371.2 531.9,371.1C532.7,371.1 533.5,371 534.2,370.6C534.9,370.2 535.6,369.8 536.1,369.2L538.2,371.1C537.5,372 536.6,372.7 535.5,373.2C534.2,374 532.9,374.3 531.6,374.3ZM535.2,365C535.1,364.4 535,363.9 534.8,363.4C534.6,362.9 534.3,362.5 534,362.1C533.7,361.7 533.3,361.4 532.8,361.2C532.3,361 531.8,360.9 531.2,360.9C530.2,360.9 529.2,361.3 528.5,362C527.8,362.8 527.3,363.9 527.2,365L535.2,365ZM551.9,374L551.9,372C551.3,372.7 550.6,373.2 549.9,373.6C549,374.1 547.9,374.3 546.9,374.2C546.2,374.2 545.5,374.1 544.8,373.9C544.2,373.7 543.6,373.4 543,373C542.5,372.6 542.1,372.1 541.8,371.5C541.5,370.8 541.3,370.1 541.3,369.4L541.3,369.3C541.3,368.5 541.4,367.7 541.8,367C542.1,366.4 542.5,365.8 543.1,365.4C543.7,365 544.4,364.6 545.1,364.5C545.9,364.3 546.8,364.2 547.6,364.2C548.4,364.2 549.2,364.2 550,364.4C550.6,364.5 551.3,364.7 551.9,364.9L551.9,364.7C552,363.8 551.6,362.8 550.9,362.2C550.1,361.6 549.1,361.3 548.1,361.3C547.3,361.3 546.5,361.4 545.7,361.6C545,361.8 544.3,362 543.6,362.3L542.6,359.4C543.5,359 544.3,358.7 545.3,358.5C546.4,358.2 547.5,358.1 548.6,358.1C550.5,357.9 552.4,358.6 553.8,359.8C555,361.1 555.6,362.9 555.5,364.7L555.5,373.9L551.9,374ZM552,367.4C551.5,367.2 550.9,367.1 550.4,367C549.8,366.9 549.1,366.8 548.4,366.8C547.5,366.7 546.6,367 545.8,367.5C545.2,367.9 544.8,368.5 544.9,369.3C544.9,370 545.2,370.6 545.8,371C546.4,371.4 547.2,371.6 547.9,371.6C548.5,371.6 549,371.5 549.5,371.4C550,371.3 550.4,371 550.8,370.7C551.2,370.4 551.5,370.1 551.7,369.7C551.9,369.3 552,368.8 552,368.4L552,367.4ZM566.1,374.3C565.2,374.3 564.3,374.1 563.4,373.8C562.5,373.4 561.7,372.9 561.1,372.2C560.4,371.5 559.8,370.6 559.5,369.7C559.1,368.6 558.9,367.4 558.9,366.2L558.9,366.1C558.9,364.9 559.1,363.7 559.5,362.6C559.9,361.7 560.4,360.8 561.1,360.1C561.8,359.4 562.5,358.9 563.4,358.5C564.3,358.2 565.2,358 566.1,358C567.2,358 568.3,358.2 569.3,358.8C570.1,359.3 570.8,360 571.4,360.7L571.4,352.3L575,352.3L575,374L571.4,374L571.4,371.4C570.8,372.2 570.1,372.9 569.3,373.5C568.3,374.1 567.2,374.3 566.1,374.3ZM566.9,371.2C567.5,371.2 568.1,371.1 568.6,370.8C569.1,370.6 569.6,370.2 570,369.8C570.4,369.3 570.8,368.8 571,368.2C571.2,367.5 571.4,366.9 571.4,366.2L571.4,366.1C571.4,365.4 571.3,364.7 571,364C570.8,363.4 570.4,362.9 570,362.4C569.6,362 569.1,361.6 568.6,361.4C568.1,361.2 567.5,361 566.9,361.1C566.3,361.1 565.7,361.2 565.2,361.4C564.7,361.6 564.2,362 563.8,362.4C563.4,362.9 563,363.4 562.8,364C562.6,364.7 562.4,365.4 562.5,366.1L562.5,366.2C562.5,366.9 562.6,367.6 562.8,368.3C563,368.9 563.4,369.4 563.8,369.9C564.6,370.7 565.7,371.2 566.9,371.2ZM586.6,374.3C585.5,374.3 584.4,374.1 583.4,373.7C581.5,372.9 579.9,371.4 579.2,369.5C578.8,368.5 578.6,367.3 578.6,366.2L578.6,366.1C578.6,365 578.8,364 579.2,362.9C579.6,361.9 580.1,361.1 580.8,360.3C583.1,357.9 586.6,357.3 589.6,358.6C590.5,359 591.3,359.6 591.9,360.4C592.5,361.2 593,362.1 593.3,363.1C593.6,364.1 593.8,365.2 593.8,366.3L593.8,367.3L582.3,367.3C582.4,368.4 583,369.5 583.8,370.2C584.6,370.9 585.7,371.3 586.8,371.2C587.6,371.2 588.4,371.1 589.1,370.7C589.8,370.3 590.5,369.9 591,369.3L593.1,371.2C592.4,372.1 591.4,372.8 590.4,373.3C589.2,374.1 587.9,374.3 586.6,374.3ZM590.1,365C590,364.4 589.9,363.9 589.7,363.4C589.5,362.9 589.3,362.5 588.9,362.1C588.6,361.7 588.2,361.4 587.7,361.2C587.2,361 586.7,360.9 586.1,360.9C585.1,360.9 584.1,361.3 583.4,362C582.7,362.8 582.2,363.9 582.1,365L590.1,365ZM597.3,358.3L600.9,358.3L600.9,361.8C601.3,360.7 602.1,359.7 603,359C604,358.3 605.2,357.9 606.4,358L606.4,361.8L606.2,361.8C605.5,361.8 604.7,361.9 604,362.2C603.4,362.5 602.8,362.9 602.3,363.4C601.8,364 601.4,364.6 601.2,365.3C600.9,366.2 600.8,367.1 600.8,368L600.8,373.9L597.2,373.9L597.3,358.3ZM614.8,374.3C613.6,374.3 612.5,374.1 611.4,373.7C610.2,373.3 609.1,372.7 608.2,371.9L609.8,369.5C610.6,370.1 611.5,370.6 612.4,370.9C613.2,371.2 614.1,371.4 614.9,371.4C615.5,371.4 616.2,371.3 616.7,370.9C617.1,370.6 617.3,370.2 617.3,369.7L617.3,369.6C617.3,369.3 617.2,369 617,368.8C616.8,368.6 616.5,368.4 616.2,368.2C615.8,368 615.5,367.9 615.1,367.8L613.8,367.4C613.2,367.2 612.6,367.1 612.1,366.8C611.5,366.6 611,366.3 610.5,366C610,365.6 609.7,365.2 609.4,364.7C609.1,364.1 608.9,363.5 609,362.8L609,362.7C609,361.4 609.6,360.1 610.6,359.2C611.1,358.8 611.7,358.5 612.4,358.3C613.1,358.1 613.8,358 614.6,358C615.6,358 616.6,358.2 617.6,358.5C618.6,358.8 619.5,359.2 620.4,359.7L619,362.3C618.3,361.9 617.5,361.5 616.7,361.2C616,361 615.3,360.8 614.6,360.8C614,360.8 613.5,360.9 613,361.2C612.6,361.5 612.4,361.9 612.4,362.3C612.4,362.6 612.5,362.8 612.7,363C612.9,363.2 613.2,363.4 613.5,363.6C613.9,363.8 614.2,363.9 614.6,364.1L615.9,364.5C616.5,364.7 617,364.9 617.6,365.1C618.1,365.3 618.7,365.6 619.1,366C619.6,366.3 619.9,366.7 620.2,367.2C620.5,367.7 620.7,368.4 620.6,369L620.6,369.1C620.6,369.8 620.5,370.6 620.2,371.3C619.9,371.9 619.5,372.4 619,372.8C618.4,373.2 617.8,373.5 617.2,373.7C616.4,374.1 615.6,374.3 614.8,374.3Z" style="fill-rule:nonzero;"/>
    </g>
</svg>
