<svg width="198" height="41" viewBox="0 0 198 41" fill="none" xmlns="http://www.w3.org/2000/svg">
<path d="M68.1749 17.3339H72.2825C72.1564 16.213 71.8501 15.2186 71.3637 14.3508C70.8772 13.483 70.2557 12.7598 69.499 12.1813C68.7604 11.5846 67.9136 11.1326 66.9588 10.8253C66.022 10.5179 65.0221 10.3643 63.9592 10.3643C62.4819 10.3643 61.1487 10.6264 59.9597 11.1507C58.7887 11.675 57.7978 12.3982 56.9871 13.3203C56.1764 14.2423 55.5548 15.3271 55.1224 16.5746C54.6901 17.804 54.4739 19.1419 54.4739 20.5882C54.4739 21.9985 54.6901 23.3183 55.1224 24.5477C55.5548 25.759 56.1764 26.8167 56.9871 27.7206C57.7978 28.6246 58.7887 29.3387 59.9597 29.8631C61.1487 30.3693 62.4819 30.6224 63.9592 30.6224C65.1482 30.6224 66.2382 30.4416 67.229 30.08C68.2199 29.7184 69.0847 29.1941 69.8233 28.5071C70.562 27.8201 71.1565 26.9884 71.6069 26.0121C72.0573 25.0358 72.3365 23.942 72.4446 22.7307H68.337C68.1749 24.0324 67.7245 25.081 66.9858 25.8765C66.2652 26.672 65.2563 27.0698 63.9592 27.0698C63.0043 27.0698 62.1936 26.889 61.5271 26.5274C60.8605 26.1477 60.32 25.6505 59.9056 25.0358C59.4913 24.4211 59.185 23.7341 58.9868 22.9747C58.8067 22.1973 58.7166 21.4018 58.7166 20.5882C58.7166 19.7385 58.8067 18.9159 58.9868 18.1204C59.185 17.3249 59.4913 16.6198 59.9056 16.0051C60.32 15.3723 60.8605 14.8751 61.5271 14.5135C62.1936 14.1338 63.0043 13.944 63.9592 13.944C64.4816 13.944 64.9771 14.0344 65.4455 14.2152C65.9319 14.3779 66.3643 14.613 66.7426 14.9203C67.121 15.2277 67.4362 15.5892 67.6884 16.0051C67.9407 16.4028 68.1028 16.8458 68.1749 17.3339Z" fill="#4445E7"/>
<path d="M74.396 10.8253V30.1885H78.2334V22.8391C78.2334 21.4109 78.4676 20.3894 78.936 19.7747C79.4044 19.1419 80.1611 18.8255 81.206 18.8255C82.1248 18.8255 82.7643 19.1148 83.1247 19.6933C83.485 20.2538 83.6651 21.1126 83.6651 22.2696V30.1885H87.5025V21.5645C87.5025 20.6967 87.4214 19.9103 87.2593 19.2052C87.1152 18.482 86.8539 17.8763 86.4756 17.3882C86.0973 16.8819 85.5748 16.4932 84.9082 16.222C84.2597 15.9328 83.4219 15.7881 82.395 15.7881C81.6744 15.7881 80.9357 15.978 80.1791 16.3576C79.4224 16.7192 78.8009 17.3068 78.3145 18.1204H78.2334V10.8253H74.396Z" fill="#4445E7"/>
<path d="M89.7123 20.4798C89.7664 19.5758 89.9916 18.8255 90.3879 18.2289C90.7843 17.6322 91.2887 17.1531 91.9012 16.7915C92.5138 16.4299 93.1984 16.1768 93.955 16.0322C94.7297 15.8695 95.5044 15.7881 96.2791 15.7881C96.9817 15.7881 97.6933 15.8424 98.4139 15.9508C99.1346 16.0412 99.7921 16.2311 100.387 16.5203C100.981 16.8096 101.468 17.2164 101.846 17.7407C102.224 18.2469 102.413 18.9249 102.413 19.7747V27.0698C102.413 27.7025 102.449 28.3082 102.522 28.8868C102.594 29.4653 102.72 29.8992 102.9 30.1885H99.0085C98.9364 29.9715 98.8733 29.7546 98.8193 29.5376C98.7833 29.3026 98.7562 29.0676 98.7382 28.8325C98.1257 29.4653 97.4051 29.9083 96.5763 30.1614C95.7476 30.4145 94.9009 30.541 94.0361 30.541C93.3695 30.541 92.748 30.4597 92.1715 30.297C91.595 30.1343 91.0905 29.8811 90.6581 29.5376C90.2258 29.1941 89.8835 28.7602 89.6312 28.2359C89.397 27.7116 89.2799 27.0878 89.2799 26.3647C89.2799 25.5692 89.4151 24.9183 89.6853 24.4121C89.9735 23.8878 90.3339 23.4719 90.7662 23.1646C91.2166 22.8572 91.7211 22.6312 92.2796 22.4866C92.8561 22.3239 93.4326 22.1973 94.0091 22.1069C94.5856 22.0165 95.1531 21.9442 95.7116 21.89C96.2701 21.8357 96.7655 21.7544 97.1979 21.6459C97.6302 21.5374 97.9725 21.3837 98.2248 21.1849C98.477 20.9679 98.5941 20.6606 98.5761 20.2628C98.5761 19.847 98.504 19.5216 98.3599 19.2865C98.2338 19.0334 98.0536 18.8436 97.8194 18.717C97.6032 18.5724 97.342 18.482 97.0357 18.4458C96.7475 18.3916 96.4322 18.3645 96.0899 18.3645C95.3332 18.3645 94.7387 18.5272 94.3063 18.8526C93.874 19.178 93.6217 19.7204 93.5497 20.4798H89.7123ZM98.5761 23.3273C98.4139 23.4719 98.2068 23.5895 97.9545 23.6798C97.7203 23.7522 97.4591 23.8154 97.1708 23.8697C96.9006 23.9239 96.6124 23.9691 96.3061 24.0053C95.9998 24.0414 95.6936 24.0866 95.3873 24.1409C95.099 24.1951 94.8108 24.2674 94.5225 24.3578C94.2523 24.4482 94.0091 24.5748 93.7929 24.7375C93.5947 24.8821 93.4326 25.072 93.3065 25.307C93.1804 25.542 93.1173 25.8404 93.1173 26.2019C93.1173 26.5455 93.1804 26.8347 93.3065 27.0698C93.4326 27.3048 93.6037 27.4946 93.8199 27.6393C94.0361 27.7658 94.2883 27.8562 94.5766 27.9105C94.8648 27.9647 95.1621 27.9918 95.4684 27.9918C96.225 27.9918 96.8105 27.8653 97.2249 27.6122C97.6393 27.359 97.9455 27.0607 98.1437 26.7172C98.3419 26.3556 98.459 25.994 98.495 25.6324C98.5491 25.2709 98.5761 24.9816 98.5761 24.7646V23.3273Z" fill="#4445E7"/>
<path d="M108.797 13.9982V10.8253H104.96V13.9982H108.797ZM104.96 16.1678V30.1885H108.797V16.1678H104.96Z" fill="#4445E7"/>
<path d="M111.278 16.1678V30.1885H115.115V22.8391C115.115 21.4109 115.35 20.3894 115.818 19.7747C116.286 19.1419 117.043 18.8255 118.088 18.8255C119.007 18.8255 119.646 19.1148 120.007 19.6933C120.367 20.2538 120.547 21.1126 120.547 22.2696V30.1885H124.385V21.5645C124.385 20.6967 124.303 19.9103 124.141 19.2052C123.997 18.482 123.736 17.8763 123.358 17.3882C122.979 16.8819 122.457 16.4932 121.79 16.222C121.142 15.9328 120.304 15.7881 119.277 15.7881C118.466 15.7881 117.674 15.978 116.899 16.3576C116.124 16.7192 115.494 17.3068 115.007 18.1204H114.926V16.1678H111.278Z" fill="#4445E7"/>
<path d="M133.269 26.8799C132.675 26.8799 132.179 26.7534 131.783 26.5003C131.387 26.2471 131.062 25.9217 130.81 25.524C130.576 25.1262 130.405 24.6833 130.297 24.1951C130.206 23.6889 130.161 23.1827 130.161 22.6764C130.161 22.1521 130.216 21.6549 130.324 21.1849C130.45 20.6967 130.639 20.2719 130.891 19.9103C131.161 19.5306 131.486 19.2323 131.864 19.0153C132.26 18.7984 132.729 18.6899 133.269 18.6899C133.9 18.6899 134.422 18.8074 134.837 19.0424C135.251 19.2775 135.584 19.5939 135.836 19.9916C136.089 20.3894 136.269 20.8504 136.377 21.3747C136.485 21.8809 136.539 22.4233 136.539 23.0019C136.539 23.5081 136.467 23.9962 136.323 24.4663C136.197 24.9183 135.999 25.3251 135.728 25.6867C135.458 26.0483 135.116 26.3375 134.701 26.5545C134.287 26.7715 133.81 26.8799 133.269 26.8799ZM140.187 29.2936V16.1678H136.539V18.039H136.485C136.017 17.2254 135.431 16.6469 134.728 16.3034C134.044 15.9599 133.242 15.7881 132.323 15.7881C131.351 15.7881 130.486 15.978 129.729 16.3576C128.99 16.7373 128.369 17.2526 127.864 17.9034C127.36 18.5362 126.973 19.2775 126.702 20.1272C126.45 20.9589 126.324 21.8267 126.324 22.7307C126.324 23.6889 126.432 24.6019 126.648 25.4697C126.883 26.3195 127.243 27.0698 127.729 27.7206C128.216 28.3534 128.837 28.8596 129.594 29.2393C130.351 29.6009 131.251 29.7817 132.296 29.7817C133.143 29.7817 133.945 29.6099 134.701 29.2664C135.476 28.9048 136.071 28.3534 136.485 27.6122H136.539V29.4563C136.557 30.4506 136.314 31.2733 135.809 31.9241C135.323 32.575 134.539 32.9004 133.458 32.9004C132.774 32.9004 132.17 32.7558 131.648 32.4665C131.125 32.1953 130.774 31.6981 130.594 30.9749H126.784C126.838 31.7705 127.054 32.4484 127.432 33.0089C127.828 33.5874 128.315 34.0575 128.891 34.4191C129.486 34.7807 130.134 35.0429 130.837 35.2056C131.558 35.3864 132.26 35.4768 132.945 35.4768C134.548 35.4768 135.827 35.2598 136.782 34.8259C137.737 34.392 138.467 33.8586 138.971 33.2259C139.476 32.6111 139.8 31.9422 139.944 31.219C140.106 30.4958 140.187 29.854 140.187 29.2936Z" fill="#4445E7"/>
<path d="M155.843 30.1885V16.1678H152.005V23.5171C152.005 24.9454 151.771 25.976 151.303 26.6087C150.834 27.2234 150.078 27.5308 149.033 27.5308C148.114 27.5308 147.474 27.2506 147.114 26.6901C146.754 26.1115 146.574 25.2437 146.574 24.0866V16.1678H142.736V24.7917C142.736 25.6596 142.808 26.4551 142.953 27.1782C143.115 27.8833 143.385 28.489 143.763 28.9952C144.142 29.4834 144.655 29.8631 145.304 30.1343C145.97 30.4054 146.817 30.541 147.844 30.541C148.655 30.541 149.447 30.3602 150.222 29.9987C150.997 29.6371 151.627 29.0495 152.114 28.2359H152.195V30.1885H155.843Z" fill="#4445E7"/>
<path d="M158.053 20.4798C158.107 19.5758 158.332 18.8255 158.728 18.2289C159.125 17.6322 159.629 17.1531 160.242 16.7915C160.854 16.4299 161.539 16.1768 162.295 16.0322C163.07 15.8695 163.845 15.7881 164.619 15.7881C165.322 15.7881 166.034 15.8424 166.754 15.9508C167.475 16.0412 168.132 16.2311 168.727 16.5203C169.322 16.8096 169.808 17.2164 170.186 17.7407C170.565 18.2469 170.754 18.9249 170.754 19.7747V27.0698C170.754 27.7025 170.79 28.3082 170.862 28.8868C170.934 29.4653 171.06 29.8992 171.24 30.1885H167.349C167.277 29.9715 167.214 29.7546 167.16 29.5376C167.124 29.3026 167.097 29.0676 167.079 28.8325C166.466 29.4653 165.745 29.9083 164.917 30.1614C164.088 30.4145 163.241 30.541 162.376 30.541C161.71 30.541 161.088 30.4597 160.512 30.297C159.935 30.1343 159.431 29.8811 158.998 29.5376C158.566 29.1941 158.224 28.7602 157.972 28.2359C157.737 27.7116 157.62 27.0878 157.62 26.3647C157.62 25.5692 157.755 24.9183 158.026 24.4121C158.314 23.8878 158.674 23.4719 159.107 23.1646C159.557 22.8572 160.061 22.6312 160.62 22.4866C161.196 22.3239 161.773 22.1973 162.349 22.1069C162.926 22.0165 163.493 21.9442 164.052 21.89C164.61 21.8357 165.106 21.7544 165.538 21.6459C165.971 21.5374 166.313 21.3837 166.565 21.1849C166.817 20.9679 166.934 20.6606 166.916 20.2628C166.916 19.847 166.844 19.5216 166.7 19.2865C166.574 19.0334 166.394 18.8436 166.16 18.717C165.944 18.5724 165.682 18.482 165.376 18.4458C165.088 18.3916 164.773 18.3645 164.43 18.3645C163.674 18.3645 163.079 18.5272 162.647 18.8526C162.214 19.178 161.962 19.7204 161.89 20.4798H158.053ZM166.916 23.3273C166.754 23.4719 166.547 23.5895 166.295 23.6798C166.061 23.7522 165.799 23.8154 165.511 23.8697C165.241 23.9239 164.953 23.9691 164.646 24.0053C164.34 24.0414 164.034 24.0866 163.728 24.1409C163.439 24.1951 163.151 24.2674 162.863 24.3578C162.593 24.4482 162.349 24.5748 162.133 24.7375C161.935 24.8821 161.773 25.072 161.647 25.307C161.521 25.542 161.458 25.8404 161.458 26.2019C161.458 26.5455 161.521 26.8347 161.647 27.0698C161.773 27.3048 161.944 27.4946 162.16 27.6393C162.376 27.7658 162.629 27.8562 162.917 27.9105C163.205 27.9647 163.502 27.9918 163.809 27.9918C164.565 27.9918 165.151 27.8653 165.565 27.6122C165.98 27.359 166.286 27.0607 166.484 26.7172C166.682 26.3556 166.799 25.994 166.835 25.6324C166.889 25.2709 166.916 24.9816 166.916 24.7646V23.3273Z" fill="#4445E7"/>
<path d="M173.192 16.1678V30.1885H177.029V23.8697C177.029 23.2369 177.092 22.6493 177.218 22.1069C177.344 21.5645 177.552 21.0945 177.84 20.6967C178.146 20.2809 178.542 19.9555 179.029 19.7204C179.515 19.4854 180.11 19.3679 180.812 19.3679C181.047 19.3679 181.29 19.386 181.542 19.4221C181.794 19.4402 182.011 19.4673 182.191 19.5035V15.9237C181.884 15.8333 181.605 15.7881 181.353 15.7881C180.867 15.7881 180.398 15.8604 179.948 16.0051C179.497 16.1497 179.074 16.3576 178.678 16.6288C178.281 16.8819 177.93 17.1983 177.624 17.578C177.317 17.9396 177.074 18.3373 176.894 18.7712H176.84V16.1678H173.192Z" fill="#4445E7"/>
<path d="M193.343 23.1375C193.343 23.716 193.289 24.2765 193.18 24.8189C193.072 25.3612 192.892 25.8494 192.64 26.2833C192.388 26.6991 192.045 27.0336 191.613 27.2867C191.199 27.5398 190.676 27.6664 190.046 27.6664C189.451 27.6664 188.938 27.5398 188.505 27.2867C188.091 27.0155 187.74 26.672 187.451 26.2562C187.181 25.8223 186.983 25.3341 186.857 24.7917C186.731 24.2494 186.668 23.707 186.668 23.1646C186.668 22.586 186.722 22.0346 186.83 21.5103C186.956 20.9679 187.145 20.4888 187.397 20.073C187.668 19.6571 188.019 19.3227 188.451 19.0696C188.884 18.8164 189.415 18.6899 190.046 18.6899C190.676 18.6899 191.199 18.8164 191.613 19.0696C192.027 19.3227 192.361 19.6571 192.613 20.073C192.883 20.4707 193.072 20.9408 193.18 21.4832C193.289 22.0075 193.343 22.5589 193.343 23.1375ZM193.397 28.3986V30.1885H197.045V10.8253H193.207V17.8763H193.153C192.721 17.1893 192.127 16.674 191.37 16.3305C190.631 15.9689 189.848 15.7881 189.019 15.7881C187.992 15.7881 187.091 15.996 186.316 16.4119C185.542 16.8096 184.893 17.343 184.371 18.0119C183.866 18.6809 183.479 19.4583 183.209 20.3442C182.956 21.212 182.83 22.116 182.83 23.0561C182.83 24.0324 182.956 24.9725 183.209 25.8765C183.479 26.7805 183.866 27.585 184.371 28.2901C184.893 28.9772 185.551 29.5286 186.343 29.9444C187.136 30.3422 188.055 30.541 189.1 30.541C190.019 30.541 190.838 30.3783 191.559 30.0529C192.298 29.7094 192.892 29.158 193.343 28.3986H193.397Z" fill="#4445E7"/>
<path d="M47.2227 28.1319C46.9685 25.5185 44.0269 24.6474 40.3037 23.5521C39.4333 23.2959 38.5375 23.0333 37.667 22.7386C38.385 21.1693 39.1029 18.9659 38.5947 15.7441C37.5654 9.20434 32.2348 0 23.6195 0C15.0042 0 9.67362 9.20434 8.64435 15.7441C8.13608 18.9659 8.85402 21.1693 9.57196 22.7386C8.70153 23.0333 7.80569 23.2959 6.93527 23.5521C3.21213 24.6474 0.270469 25.5121 0.0163296 28.1319C-0.0789726 29.0926 0.245055 30.015 0.93123 30.7324C1.88425 31.7252 3.56792 32.3401 5.95048 32.5515C5.76623 33.0831 5.68999 33.5827 5.72811 34.0695C5.86788 35.9911 7.50708 38.2329 11.6686 38.2329C13.8669 38.2329 16.1351 37.4259 17.9141 36.0103C18.8099 38.4571 20.7541 41 23.6259 41C26.4976 41 28.4481 38.4507 29.3376 36.0103C31.1166 37.4259 33.3784 38.2329 35.5831 38.2329C39.751 38.2329 41.3838 35.9911 41.5236 34.0695C41.5617 33.5827 41.4855 33.0895 41.3012 32.5515C43.6838 32.3401 45.3738 31.7252 46.3205 30.7324C46.9939 30.015 47.318 29.0926 47.2227 28.1319Z" fill="white"/>
<path d="M45.304 28.3241C45.107 26.2936 39.1792 25.6339 34.9669 23.802C35.8881 21.9637 37.2859 19.882 36.6823 16.0516C35.8754 10.9594 31.4915 1.94727 23.6132 1.94727C15.7349 1.94727 11.351 10.953 10.5441 16.0516C9.94051 19.882 11.3446 21.9637 12.2595 23.802C8.05353 25.6339 2.12573 26.3 1.92242 28.3241C1.73817 30.2008 5.34059 30.8862 9.40047 30.6428C8.37756 31.8918 7.57702 33.0768 7.64055 33.9287C7.74221 35.357 9.26069 36.2858 11.656 36.2858C14.3371 36.2858 18.4796 34.5884 19.4644 30.0023C19.4644 30.0023 19.0578 31.8406 19.2801 33.602C19.547 35.7029 21.1226 39.0465 23.6132 39.0465C26.1038 39.0465 27.6794 35.7029 27.9463 33.602C28.1686 31.8406 27.762 30.0023 27.762 30.0023C28.7468 34.5884 32.8829 36.2858 35.5704 36.2858C37.9657 36.2858 39.4842 35.357 39.5858 33.9287C39.6494 33.0768 38.8425 31.8854 37.8259 30.6428C41.8858 30.8862 45.4882 30.2008 45.304 28.3241ZM15.36 9.56311C14.8899 9.15958 15.0169 8.28846 15.6396 7.61591C16.2622 6.94336 17.1517 6.71918 17.6219 7.12271C18.092 7.52624 17.965 8.39735 17.3423 9.0699C16.7197 9.74245 15.8302 9.96023 15.36 9.56311ZM19.6486 21.1694C17.7108 21.1694 16.1415 19.5873 16.1415 17.6337C16.1415 15.6801 17.7108 14.098 19.6486 14.098C21.5864 14.098 23.1557 15.6801 23.1557 17.6337C23.1557 19.5809 21.5864 21.1694 19.6486 21.1694ZM21.7897 7.24441C20.4238 7.85931 18.9688 7.64794 18.5368 6.77682C18.1047 5.8993 18.8608 4.69512 20.2268 4.08021C21.5928 3.46531 23.0477 3.67668 23.4798 4.5478C23.9118 5.41891 23.1557 6.6295 21.7897 7.24441ZM31.2247 21.1694C29.2869 21.1694 27.7175 19.5873 27.7175 17.6337C27.7175 15.6801 29.2869 14.098 31.2247 14.098C33.1625 14.098 34.7318 15.6801 34.7318 17.6337C34.7318 19.5809 33.1625 21.1694 31.2247 21.1694ZM31.5106 17.6081L32.8003 16.0772C32.4001 15.6609 31.841 15.4047 31.2247 15.4047C30.0048 15.4047 29.02 16.3975 29.02 17.6273C29.02 18.8571 30.0048 19.8499 31.2247 19.8499C32.4445 19.8499 33.4293 18.8571 33.4293 17.6273C33.4293 17.6209 33.4293 17.6145 33.4293 17.6081H31.5106ZM21.8469 17.6081C21.8469 17.6145 21.8469 17.6209 21.8469 17.6273C21.8469 18.8571 20.8621 19.8499 19.6423 19.8499C18.4224 19.8499 17.4376 18.8571 17.4376 17.6273C17.4376 16.3975 18.4224 15.4047 19.6423 15.4047C20.2586 15.4047 20.8177 15.6609 21.2179 16.0772L19.9282 17.6081H21.8469Z" fill="url(#paint0_linear_1624_1913)"/>
<defs>
<linearGradient id="paint0_linear_1624_1913" x1="10.4115" y1="10.9244" x2="37.0343" y2="37.3321" gradientUnits="userSpaceOnUse">
<stop stop-color="#4445E7"/>
<stop offset="1" stop-color="#EB47E4"/>
</linearGradient>
</defs>
</svg>
