<?xml version="1.0" encoding="UTF-8" standalone="no"?>
<!DOCTYPE svg PUBLIC "-//W3C//DTD SVG 1.1//EN" "http://www.w3.org/Graphics/SVG/1.1/DTD/svg11.dtd">
<svg width="100%" height="100%" viewBox="0 0 1632 550" version="1.1" xmlns="http://www.w3.org/2000/svg" xmlns:xlink="http://www.w3.org/1999/xlink" xml:space="preserve" xmlns:serif="http://www.serif.com/" style="fill-rule:evenodd;clip-rule:evenodd;stroke-linejoin:round;stroke-miterlimit:2;">
    <g id="chain-c" transform="matrix(1.7,0,0,1.7,530,30)">
        <path d="M115,40C117.5,40 120,37.5 120,35L120,5C120,2.5 117.5,0 115,0L5,0C2.5,0 0,2.5 0,5L0,115C0,117.5 2.5,120 5,120L115,120C117.5,120 120,117.5 120,115L120,85C120,82.5 117.5,80 115,80L50,80C47.5,80 45,77.5 45,75L45,45C45,42.5 47.5,40 50,40L115,40Z" style="fill:#47a8e7;fill-rule:nonzero;"/>
    </g>
    <g id="chain-h" transform="matrix(1.7,0,0,1.7,754.4,30)">
        <path d="M80,0C77.5,0 75,2.5 75,5L75,35C75,37.5 72.5,40 70,40L50,40C47.5,40 45,37.5 45,35L45,5C45,2.5 42.5,0 40,0L5,0C2.5,0 0,2.5 0,5L0,115C0,117.5 2.5,120 5,120L40,120C42.5,120 45,117.5 45,115L45,85C45,82.5 47.5,80 50,80L70,80C72.5,80 75,82.5 75,85L75,115C75,117.5 77.5,120 80,120L115,120C117.5,120 120,117.5 120,115L120,5C120,2.5 117.5,0 115,0L80,0Z" style="fill:#47a8e7;fill-rule:nonzero;"/>
    </g>
    <g id="chain-a" transform="matrix(1.7,0,0,1.7,978.8,30)">
        <path d="M50,60C47.5,60 45,57.5 45,55L45,35C45,32.5 47.5,30 50,30L70,30C72.5,30 75,32.5 75,35L75,55C75,57.5 72.5,60 70,60L50,60ZM115,0L5,0C2.5,0 0,2.5 0,5L0,115C0,117.5 2.5,120 5,120L40,120C42.5,120 45,117.5 45,115L45,95C45,92.5 47.5,90 50,90L70,90C72.5,90 75,92.5 75,95L75,115C75,117.5 77.5,120 80,120L115,120C117.5,120 120,117.5 120,115L120,5C120,2.5 117.5,0 115,0Z" style="fill:#47a8e7;fill-rule:nonzero;"/>
    </g>
    <g id="chain-i" transform="matrix(1.7,0,0,1.7,1203.2,30)">
        <path d="M120,95C120,92.5 117.5,90 115,90L87.5,90C85,90 82.5,87.5 82.5,85L82.5,35C82.5,32.5 85,30 87.5,30L115,30C117.5,30 120,27.5 120,25L120,5C120,2.5 117.5,0 115,0L5,0C2.5,0 0,2.5 0,5L0,25C0,27.5 2.5,30 5,30L32.5,30C35,30 37.5,32.5 37.5,35L37.5,85C37.5,87.5 35,90 32.5,90L5,90C2.5,90 0,92.5 0,95L0,115C0,117.5 2.5,120 5,120L115,120C117.5,120 120,117.5 120,115L120,95Z" style="fill:#47a8e7;fill-rule:nonzero;"/>
    </g>
    <g id="chain-n" transform="matrix(1.7,0,0,1.7,1427.6,30)">
        <path d="M80,0C77.5,0 75,2.5 75,5L75,40C75,42.5 73,45 70,40L50,5C48,2 47.5,0 45,0L5,0C2.5,0 0,2.5 0,5L0,115C0,117.5 2.5,120 5,120L40,120C42.5,120 45,117.5 45,115L45,80C45,78 47,75 50,80L70,115C72,118 72.5,120 75,120L115,120C117.5,120 120,117.5 120,115L120,5C120,2.5 117.5,0 115,0L80,0Z" style="fill:#47a8e7;fill-rule:nonzero;"/>
    </g>
    <g id="guard-g" transform="matrix(1.7,0,0,1.7,530,254.4)">
        <path d="M115,40C117.5,40 120,37.5 120,35L120,5C120,2.5 117.5,0 115,0L5,0C2.5,0 0,2.5 0,5L0,115C0,117.5 2.5,120 5,120L115,120C117.5,120 120,117.5 120,115L120,65C120,62.5 117.5,60 115,60L80,60C77.5,60 75,62.5 75,65L75,75C75,77.5 72.5,80 70,80L50,80C47.5,80 45,77.5 45,75L45,45C45,42.5 47.5,40 50,40L115,40Z" style="fill:#3977c8;fill-rule:nonzero;"/>
    </g>
    <g id="guard-u" transform="matrix(1.7,0,0,1.7,754.4,254.4)">
        <path d="M80,0C77.5,0 75,2.5 75,5L75,75C75,77.5 72.5,80 70,80L50,80C47.5,80 45,77.5 45,75L45,5C45,2.5 42.5,0 40,0L5,0C2.5,0 0,2.5 0,5L0,115C0,117.5 2.5,120 5,120L115,120C117.5,120 120,117.5 120,115L120,5C120,2.5 117.5,0 115,0L80,0Z" style="fill:#3977c8;fill-rule:nonzero;"/>
    </g>
    <g id="guard-a" transform="matrix(1.7,0,0,1.7,978.8,254.4)">
        <path d="M50,60C47.5,60 45,57.5 45,55L45,35C45,32.5 47.5,30 50,30L70,30C72.5,30 75,32.5 75,35L75,55C75,57.5 72.5,60 70,60L50,60ZM115,0L5,0C2.5,0 0,2.5 0,5L0,115C0,117.5 2.5,120 5,120L40,120C42.5,120 45,117.5 45,115L45,95C45,92.5 47.5,90 50,90L70,90C72.5,90 75,92.5 75,95L75,115C75,117.5 77.5,120 80,120L115,120C117.5,120 120,117.5 120,115L120,5C120,2.5 117.5,0 115,0Z" style="fill:#3977c8;fill-rule:nonzero;"/>
    </g>
    <g id="guard-r" transform="matrix(1.7,0,0,1.7,1203.2,254.4)">
        <path d="M50,60C47.5,60 45,57.5 45,55L45,35C45,32.5 47.5,30 50,30L70,30C72.5,30 75,32.5 75,35L75,55C75,57.5 72.5,60 70,60L50,60ZM120,5C120,2.5 117.5,0 115,0L5,0C2.5,0 0,2.5 0,5L0,115C0,117.5 2.5,120 5,120L40,120C42.5,120 45,117.5 45,115L45,95C45,92.5 47,90 50,90C55,90 65,120 72,120L107,120C112,120 114,119 112,115C107,105 97.5,92 102,90C116.25,82 120,69 120,60L120,5Z" style="fill:#3977c8;fill-rule:nonzero;"/>
    </g>
    <g id="guard-d" transform="matrix(1.7,0,0,1.7,1427.6,254.4)">
        <path d="M75,75C75,77.5 72.5,80 70,80L50,80C47.5,80 45,77.5 45,75L45,45C45,42.5 47.5,40 50,40L70,40C72.5,40 75,42.5 75,45L75,75ZM92.5,0L5,0C2.5,0 0,2.5 0,5L0,115C0,117.5 2.5,120 5,120L97.5,120C102.5,120 120,97.5 120,92.5L120,22.5C120,17.5 97.5,0 92.5,0Z" style="fill:#3977c8;fill-rule:nonzero;"/>
    </g>
    <g id="path825" transform="matrix(1,0,0,1,-50,-30)">
        <path d="M300,580L100,440L50,100L180,30L300,30L300,580" style="fill:#47a8e7;fill-rule:nonzero;"/>
    </g>
    <g id="path827" transform="matrix(1,0,0,1,-50,-30)">
        <path d="M300,580L500,440L550,100L420,30L300,30L300,580" style="fill:#3977c8;fill-rule:nonzero;"/>
    </g>
    <g id="g833" transform="matrix(1,0,0,1,-50,-30)">
        <path id="path831" d="M492.2,321.477C487.7,316.8 482.1,314.3 476.9,311.898C466,307.6 454.4,305.2 443.6,303.183C432.8,301 422.3,296.1 411.1,293.26C410,292.9 408.9,292.9 407.9,292.595C411.4,282.8 416.3,273 418.4,262.505C421.2,250.3 421.2,237.7 419.4,225.376C418.1,213.2 414.9,200.9 410.4,189.465C401.6,166.3 387.9,144.9 369.8,127.74C351.6,110.6 327.4,98.7 301.5,98.432C276.7,98.3 249.9,112.3 232.9,127.08C214.3,143.8 200.3,165.2 191.3,188.575C186.7,200.2 183.6,212.4 181.8,224.712C180.8,231 180.4,237.3 180.4,243.442C180.4,249.942 181.4,256.242 183.2,262.342C186.3,273.642 192.7,283.442 197.9,292.942C197.2,292.842 196.8,293.242 196.5,293.242C185.3,296.1 174.8,301 163.9,303.183C153.1,305.2 141.6,307.6 130.7,311.898C125.4,314.3 119.8,316.8 115.3,321.488C113.2,323.788 111.5,327.288 111.1,330.988C111.1,334.588 112.5,338.088 114.6,340.788C118.8,346.188 124.4,348.988 130,350.988C135.6,352.788 141.6,353.788 147.5,354.288C153.8,354.588 160.1,354.588 166.8,353.788C163.6,357.788 160.5,361.988 158.4,367.088C156,372.388 154.9,379.088 157.4,385.088C159.8,390.988 164.4,395.488 169.3,398.388C179.5,404.288 190.7,405.688 201.5,404.588C212.3,403.588 222.8,400.388 232.2,394.988C241.7,389.888 250.1,382.188 255.3,372.988C257.1,370.388 258.4,367.588 259.5,364.788C258.4,375.188 259.5,385.688 263,395.588C265.8,404.288 270.7,412.288 277.7,418.588C284.4,424.888 293.8,429.388 303.6,429.288C313.4,429.488 322.9,424.888 329.9,418.488C336.5,411.988 341.4,403.888 344.2,395.388C347.2,386.188 348.7,376.188 348.1,368.288C354.3,379.788 365.3,390.188 375.4,395.588C384.9,400.688 395.4,403.488 406.2,404.488C417.1,405.288 428.3,403.888 438.1,397.588C443,394.488 447.5,389.888 449.3,383.888C451.4,377.688 450,371.388 447.6,366.188C445.5,361.588 442.7,357.388 439.9,353.588C446.5,354.588 453.5,354.888 460.2,354.288C466.1,353.888 472.1,352.788 477.7,350.988C483.3,348.888 488.9,346.088 493.1,340.788C495.2,338.088 496.6,334.588 496.3,330.988C496.3,327.288 494.6,323.788 492.4,321.488" style="fill:#fff;fill-rule:nonzero;"/>
    </g>
    <g id="g837" transform="matrix(1,0,0,1,-50,-30)">
        <path id="path835" d="M132.1,345.282C127.2,343.4 122.3,340.9 119.5,337.085C118.1,335.3 117.4,333.2 117.4,331.112C117.4,329 118.1,327.3 119.8,325.374C123,321.6 127.9,319.2 132.8,316.825C142.9,312.2 153.8,309.4 165,306.648C176.2,303.8 186.3,298.2 196.8,295.254C197.6,295.054 198.2,295.054 198.6,294.854C198.9,295.054 198.9,295.454 199.3,295.854C202.1,301.054 203.8,306.254 202.8,311.654C201.7,316.854 198.2,321.354 194.1,325.554L194.1,325.654C192.7,327.254 190.9,328.954 189.2,330.554C185.3,333.954 181.4,337.854 177.6,341.354C175.2,343.654 173.1,346.454 170.6,348.954C162.9,349.554 155.6,349.554 147.8,348.854C142.6,348.3 137,347.2 132.1,345.282M441.9,381.482C440.8,385 437.6,388.5 433.8,390.999C424,395.9 417,397.2 406.5,397.104C398.6,396.3 387.3,394.1 378.1,390.105C364.9,383.9 353.6,373.1 347,359.663C344.6,350.163 344.4,350.563 341.5,343.563C343,351.363 344.6,363.163 344.3,368.663C343.4,377.263 341.9,385.163 338.7,392.963C335.2,400.563 330.7,407.563 324.7,412.663C318.7,418.063 311.4,421.163 303.7,421.163C296,421.163 288.7,418.063 282.7,412.863C276.6,408.1 271.8,401.1 268.6,393.414C265.1,385.7 263.4,377.6 262.3,369.096C261.9,364.396 262.3,359.496 262.6,354.796L262.6,354.696C263,350.996 264.4,346.996 264.4,343.496L264.4,342.896C263.4,346.696 262.5,350.896 260.9,354.296C258.8,360.096 256,365.796 252.2,370.796C246.2,379.096 238.2,385.396 229.4,389.596C220.7,394.096 210.8,396.596 201.1,397.196C191.3,397.596 181.1,396.596 173.1,391.696C169.2,389.196 166.1,386.096 164.7,382.296C163.3,378.696 163.6,374.096 165.3,369.996C167.8,363.596 172.3,357.696 176.9,352.096C178.9,350.096 180.6,347.796 182.5,345.796C188,338.996 196.6,328.996 202.8,322.296C205.6,319.096 207.7,315.496 210.5,312.496C214.4,307.796 220.3,303.196 225.2,302.296C222.6,302.796 219.7,302.696 217.4,303.896C213.6,305.696 211.4,308.096 208.4,310.696C209.1,304.9 207,298.9 204.9,294.057C202.1,288.4 198.5,282.3 195.8,277.052C193,271.6 190.9,266.4 189.5,260.662C187.8,255.2 187.1,249.2 187.1,243.423C187.4,237.7 187.8,231.7 188.4,225.67C190.2,213.8 193.3,202.3 197.9,191.264C207,169.1 220.3,148.8 238.2,132.853C255.6,116.9 278.1,106 301.5,106.355C327.2,107.555 347.3,117.555 365.2,132.855C383.1,148.755 396.7,169.055 405.8,191.255C410.4,202.255 412.3,212.055 415.3,225.955C417.1,238.155 417.1,250.455 414.6,261.555C411,274.455 405.7,283.855 402.3,295.755C400.2,300.955 399.5,307.255 400.6,313.155C398.8,311.455 397.1,309.755 395.3,308.155C390.8,304.855 386.5,302.155 380.9,302.055C385.9,303.055 390.6,306.255 393.9,309.655C395.6,311.555 396.9,313.355 398.1,315.055C403.1,321.655 407.7,328.155 413.2,333.755C417.4,338.755 421.7,342.455 425.2,347.055C431.2,353.455 437.6,361.655 440.6,369.055C442.6,374.855 443.4,377.555 442,381.355M475.6,345.155C470.7,347.055 465.1,348.155 459.9,348.755C451.6,349.955 443.6,349.555 435.6,348.855C433.1,346.055 430.6,343.355 428.2,340.755C420,332.255 409.1,325.055 405.4,313.755C403.7,308.355 404.4,302.755 406.1,297.055C406.5,296.055 406.9,295.355 407.2,294.455C408.3,294.655 409.3,295.055 410.7,295.255C421.2,298.155 431.4,303.755 442.6,306.655C453.8,309.455 464.7,312.255 474.8,316.855C479.7,319.255 484.6,321.655 487.7,325.355C489.5,327.255 490.1,328.955 490.1,331.055C490.1,333.155 489.1,335.255 488,337.055C485.2,340.855 480.3,343.355 475.4,345.255M492.2,321.455C487.7,316.8 482.1,314.3 476.9,311.898C466,307.6 454.4,305.2 443.6,303.183C432.8,301 422.3,296.1 411.1,293.26C410,292.9 408.9,292.9 407.9,292.595C411.4,282.8 416.3,273 418.4,262.505C421.2,250.3 421.2,237.7 419.4,225.376C418.1,213.2 414.9,200.9 410.4,189.465C401.6,166.3 387.9,144.9 369.8,127.74C351.6,110.6 327.4,98.7 301.5,98.432C276.7,98.3 249.9,112.3 232.9,127.08C214.3,143.8 200.3,165.2 191.3,188.575C186.7,200.2 183.6,212.4 181.8,224.712C180.8,231 180.4,237.3 180.4,243.442C180.4,249.942 181.4,256.242 183.2,262.342C186.3,273.642 192.7,283.442 197.9,292.942C197.2,292.842 196.8,293.242 196.5,293.242C185.3,296.1 174.8,301 163.9,303.183C153.1,305.2 141.6,307.6 130.7,311.898C125.4,314.3 119.8,316.8 115.3,321.488C113.2,323.788 111.5,327.288 111.1,330.988C111.1,334.588 112.5,338.088 114.6,340.788C118.8,346.188 124.4,348.988 130,350.988C135.6,352.788 141.6,353.788 147.5,354.288C153.8,354.588 160.1,354.588 166.8,353.788C163.6,357.788 160.5,361.988 158.4,367.088C156,372.388 154.9,379.088 157.4,385.088C159.8,390.988 164.4,395.488 169.3,398.388C179.5,404.288 190.7,405.688 201.5,404.588C212.3,403.588 222.8,400.388 232.2,394.988C241.7,389.888 250.1,382.188 255.3,372.988C257.1,370.388 258.4,367.588 259.5,364.788C258.4,375.188 259.5,385.688 263,395.588C265.8,404.288 270.7,412.288 277.7,418.588C284.4,424.888 293.8,429.388 303.6,429.288C313.4,429.488 322.9,424.888 329.9,418.488C336.5,411.988 341.4,403.888 344.2,395.388C347.2,386.188 348.7,376.188 348.1,368.288C354.3,379.788 365.3,390.188 375.4,395.588C384.9,400.688 395.4,403.488 406.2,404.488C417.1,405.288 428.3,403.888 438.1,397.588C443,394.488 447.5,389.888 449.3,383.888C451.4,377.688 450,371.388 447.6,366.188C445.5,361.588 442.7,357.388 439.9,353.588C446.5,354.588 453.5,354.888 460.2,354.288C466.1,353.888 472.1,352.788 477.7,350.988C483.3,348.888 488.9,346.088 493.1,340.788C495.2,338.088 496.6,334.588 496.3,330.988C496.3,327.288 494.6,323.788 492.4,321.488" style="fill:#3878c8;fill-rule:nonzero;"/>
    </g>
    <g id="g848" transform="matrix(1,0,0,1,-50,-30)">
        <g id="spot0">
            <path id="path839" d="M232.9,168C235.8,169.6 239.4,168.5 241.7,166.4C245.6,163.1 248.1,157.7 246.8,152.6C246.3,150.4 244.5,148.5 242.2,148.2C238.4,147.6 234.8,150.1 232.7,153.1C230.4,156.5 228.9,160.8 230.3,164.8C230.8,166.1 231.7,167.3 232.9,168Z" style="fill:#48a7e8;fill-rule:nonzero;"/>
        </g>
        <g id="spot1">
            <path id="path842" d="M260.2,157.8C261.4,155.7 262,152.8 260.3,150.8C258.9,149.3 256.5,150 255,151.1C252.5,152.9 250.9,156.3 252,159.3C252.7,161.1 254.8,161.9 256.6,161.2C258.2,160.6 259.4,159.4 260.1,157.9L260.2,157.8Z" style="fill:#48a7e8;fill-rule:nonzero;"/>
        </g>
        <g id="spot2">
            <path id="path845" d="M247.3,173.6C249.2,174.4 251.2,173 251.9,171.2C253,169.7 253,167.1 251.1,166.2C249.3,165.7 247.5,167.1 246.7,168.7C245.7,170.1 245.5,172.7 247.2,173.6L247.3,173.6Z" style="fill:#48a7e8;fill-rule:nonzero;"/>
        </g>
    </g>
    <g id="leg-fold-1" transform="matrix(1,0,0,1,-50,-30)">
        <path id="path851" d="M259.9,311.669C258.4,309.8 256.4,308.4 254.6,307.143C252.2,305.6 249.3,304.5 246.2,303.722C243.4,303.1 240.6,302.8 237.4,303.14C237.4,303.1 245.5,306.6 245.5,306.635C247.9,308 250.4,309.1 252.5,310.487C253.2,310.8 253.6,311.1 254.3,311.625C255.6,312.9 257.4,313.9 258.4,315.433C260.6,317.4 261.6,319.6 263,322.369C263.4,319.6 262.6,316.4 261.3,313.605C260.6,312.9 260.2,312.2 259.9,311.669" style="fill:#3878c8;fill-rule:nonzero;"/>
    </g>
    <g id="leg-fold-2" transform="matrix(1,0,0,1,-50,-30)">
        <path id="path854" d="M320.8,325.568C318.3,323.8 315.9,322.4 313.1,321.169C310.3,320.3 307.4,319.6 304.3,319.404C301.1,319.504 298,319.904 295.2,321.204C292.4,322.704 290,324.804 288.9,327.404L288.9,327.404C291.4,325.904 293.8,324.804 296.3,324.104C299.1,323.404 301.6,323.404 304.4,323.404C306.8,323.404 309.7,323.804 312.4,324.204L320.8,325.604" style="fill:#3878c8;fill-rule:nonzero;"/>
    </g>
    <g id="leg-fold-3" transform="matrix(1,0,0,1,-50,-30)">
        <path id="path857" d="M363.1,303.7C360.3,304.5 357.5,305.5 354.7,307.1C352.6,308.7 350.9,310.4 349.1,312.3C348.7,312.8 348.4,313.2 348.4,313.5C346.7,316.3 345.9,319.4 346.3,322.3C347.7,319.5 349.1,317.4 350.8,315.4C351.8,314.3 352.9,313.2 354.3,312.4C355,311.8 356.1,311.1 356.8,310.5C359.2,309.1 361.7,308 364.1,306.6L371.8,303.1C369,302.7 365.8,303.1 363.1,303.7" style="fill:#3878c8;fill-rule:nonzero;"/>
    </g>
    <g id="left-eye" transform="matrix(1,0,0,1,-50,-30)">
        <path id="path909" d="M233,235.5C233,244.3 240.4,251.3 248.8,251.2C248.8,251.3 248.8,251.3 248.8,251.2C257.6,251.3 264.6,244.3 264.6,235.5C264.6,226.8 257.6,219.8 248.9,219.8C240.5,219.8 233.2,226.8 233.2,235.5" style="fill-rule:nonzero;"/>
    </g>
    <g id="right-eye" transform="matrix(1,0,0,1,-50,-30)">
        <path id="path912" d="M361,235.5C361,244.3 368.4,251.3 376.8,251.2C376.8,251.3 376.8,251.3 376.8,251.2C385.6,251.3 392.6,244.3 392.6,235.5C392.6,226.8 385.6,219.8 376.9,219.8C368.5,219.8 361.2,226.8 361.2,235.5" style="fill-rule:nonzero;"/>
    </g>
    <g id="eye-left-glint" transform="matrix(1,0,0,1,-50,-30)">
        <path id="path915" d="M259,232C258.6,234.9 256.1,237.3 253.3,237.2C250.5,237.3 248.1,234.9 248.1,232C248.1,229.2 250.5,226.8 253.3,226.8C256.1,226.8 258.6,229.2 258.6,232" style="fill:#fff;fill-rule:nonzero;"/>
    </g>
    <g id="right-eye-glint" transform="matrix(1,0,0,1,-50,-30)">
        <path id="path918" d="M387,232C386.6,234.9 384.1,237.3 381.3,237.2C378.5,237.3 376.1,234.9 376.1,232C376.1,229.2 378.5,226.8 381.3,226.8C384.1,226.8 386.6,229.2 386.6,232" style="fill:#fff;fill-rule:nonzero;"/>
    </g>
</svg>
