<?xml version="1.0" encoding="UTF-8" standalone="no"?>
<!DOCTYPE svg PUBLIC "-//W3C//DTD SVG 1.1//EN" "http://www.w3.org/Graphics/SVG/1.1/DTD/svg11.dtd">
<svg width="100%" height="100%" viewBox="0 0 971 146" version="1.1" xmlns="http://www.w3.org/2000/svg" xmlns:xlink="http://www.w3.org/1999/xlink" xml:space="preserve" xmlns:serif="http://www.serif.com/" style="fill-rule:evenodd;clip-rule:evenodd;stroke-linejoin:round;stroke-miterlimit:2;">
    <g transform="matrix(4.16667,0,0,4.16667,0,0)">
        <path d="M42.342,31.175C39.686,28.616 38.338,25.37 38.338,21.367C38.338,17.329 39.686,14.009 42.414,11.413C45.146,8.78 48.421,7.482 52.279,7.482C54.718,7.482 56.939,8.024 59.014,9.069C61.088,10.114 62.689,11.484 63.856,13.216L60.87,15.885C58.649,12.963 55.847,11.522 52.39,11.522C49.659,11.522 47.366,12.458 45.474,14.334C43.616,16.21 42.669,18.552 42.669,21.367C42.669,24.179 43.581,26.487 45.436,28.29C47.293,30.093 49.587,30.996 52.353,30.996C55.882,30.996 58.796,29.551 61.017,26.666L64.001,29.265C61.489,32.689 57.121,34.998 52.17,34.998C48.274,34.998 45.001,33.736 42.342,31.175Z" style="fill:#231f20;fill-rule:nonzero;"/>
        <path d="M65.997,34.998L65.997,7.262L69.893,7.262L69.893,17.763C71.057,15.972 73.35,14.763 76.116,14.763C78.266,14.763 80.085,15.46 81.577,16.886C83.069,18.313 83.796,20.326 83.796,22.998L83.796,34.998L79.793,34.998L79.793,24.131C79.793,20.509 77.899,18.497 75.097,18.497C72.077,18.497 70,20.801 70,24.166L70,34.998L65.997,34.998Z" style="fill:#231f20;fill-rule:nonzero;"/>
        <path d="M89.626,23.317L101.058,23.317C100.73,20.221 98.436,18.219 95.486,18.219C92.465,18.219 90.209,20.258 89.626,23.317ZM104.952,26.422L89.626,26.422C90.209,29.437 92.357,31.482 96.142,31.482C98.363,31.482 101.058,30.657 102.805,29.401L104.479,32.306C102.477,33.777 99.31,34.998 95.997,34.998C88.644,34.998 85.476,29.938 85.476,24.844C85.476,21.938 86.387,19.535 88.244,17.632C90.1,15.732 92.539,14.762 95.486,14.762C98.29,14.762 100.62,15.623 102.404,17.381C104.187,19.141 105.097,21.507 105.097,24.521C105.097,25.059 105.06,25.706 104.952,26.422Z" style="fill:#231f20;fill-rule:nonzero;"/>
        <path d="M109.7,32.165C107.771,30.261 106.789,27.858 106.789,24.915C106.789,21.938 107.771,19.535 109.736,17.632C111.702,15.731 114.214,14.762 117.307,14.762C121.238,14.762 124.771,16.735 126.337,19.93L123.023,21.758C121.822,19.714 119.674,18.386 117.344,18.386C115.488,18.386 113.922,18.997 112.686,20.252C111.447,21.507 110.83,23.051 110.83,24.915C110.83,26.746 111.447,28.253 112.649,29.509C113.851,30.764 115.378,31.375 117.198,31.375C119.529,31.375 121.896,29.975 122.914,28.074L126.226,29.975C124.623,32.989 121.095,34.998 117.163,34.998C114.141,34.998 111.629,34.065 109.7,32.165Z" style="fill:#231f20;fill-rule:nonzero;"/>
        <path d="M140.417,34.998L133.355,26.034L131.646,27.607L131.646,34.998L127.64,34.998L127.64,7.262L131.646,7.262L131.646,22.886L139.906,15.277L145.187,15.277L136.158,23.472L145.586,34.998L140.417,34.998Z" style="fill:#231f20;fill-rule:nonzero;"/>
        <path d="M175.645,16.999C177.101,18.501 177.829,20.591 177.829,23.195L177.829,34.998L173.823,34.998L173.823,23.854C173.823,20.372 172.075,18.463 169.347,18.463C166.435,18.463 164.432,20.628 164.432,23.964L164.432,34.998L160.428,34.998L160.428,23.928C160.428,20.519 158.68,18.463 155.913,18.463C153.003,18.463 150.964,20.666 150.964,24.037L150.964,34.998L146.958,34.998L146.958,15.239L150.888,15.239L150.888,18.099C152.057,16.01 154.239,14.69 156.823,14.69C159.41,14.726 161.813,16.01 162.865,18.318C164.212,16.12 166.945,14.69 169.965,14.69C172.331,14.69 174.227,15.458 175.645,16.999Z" style="fill:#231f20;fill-rule:nonzero;"/>
        <path d="M194.351,29.724C195.552,28.45 196.136,26.885 196.136,25.027C196.136,23.207 195.552,21.642 194.351,20.367C193.147,19.094 191.655,18.438 189.798,18.438C187.943,18.438 186.415,19.094 185.25,20.367C184.085,21.642 183.5,23.207 183.5,25.064C183.5,26.919 184.085,28.486 185.25,29.76C186.415,31.034 187.943,31.654 189.798,31.654C191.655,31.654 193.147,30.998 194.351,29.724ZM195.952,15.229L199.811,15.229L199.811,34.965L195.952,34.965L195.952,31.883C194.167,33.958 191.911,34.998 189.256,34.998C186.451,34.998 184.085,34.031 182.228,32.061C180.37,30.093 179.463,27.655 179.463,24.755C179.463,21.853 180.37,19.49 182.228,17.591C184.085,15.694 186.451,14.762 189.256,14.762C191.911,14.762 194.167,15.8 195.952,17.915L195.952,15.229Z" style="fill:#231f20;fill-rule:nonzero;"/>
        <path d="M202.28,34.998L202.28,15.239L206.101,15.239L206.101,18.063C207.266,15.826 209.123,14.726 211.67,14.726C212.508,14.726 213.273,14.836 214.002,15.055L213.637,18.977C212.946,18.721 212.217,18.611 211.488,18.611C208.431,18.611 206.284,20.737 206.284,24.879L206.284,34.998L202.28,34.998Z" style="fill:#231f20;fill-rule:nonzero;"/>
        <path d="M232.941,34.998L228.281,34.998L223.879,27.884L219.364,34.998L214.597,34.998L221.365,24.803L215.287,15.236L219.946,15.236L223.95,21.908L228.1,15.236L232.758,15.236L226.353,25.026L232.941,34.998Z" style="fill:#231f20;fill-rule:nonzero;"/>
        <path d="M9.386,0.875C4.211,0.875 0,5.087 0,10.263L0,25.568C0,30.745 4.211,34.955 9.386,34.955L25.036,34.955C30.211,34.955 34.421,30.745 34.421,25.568L34.421,24.378C34.421,22.641 33.014,21.233 31.277,21.233C29.539,21.233 28.13,22.641 28.13,24.378L28.13,25.568C28.13,27.274 26.741,28.664 25.036,28.664L9.386,28.664C7.678,28.664 6.291,27.274 6.291,25.568L6.291,10.378C6.291,8.672 7.678,7.285 9.386,7.285L25.007,7.285C25.401,7.285 25.735,7.285 26.04,7.287C26.04,7.285 26.038,7.285 26.037,7.285L27.678,7.285C31.543,7.285 34.868,10.292 31.393,15.502C31.349,15.543 31.308,15.585 31.261,15.627C34.421,12.843 35.039,9.232 33.742,6.082C32.418,2.872 29.072,0.875 25.007,0.875L9.386,0.875Z" style="fill:#53b965;fill-rule:nonzero;"/>
        <clipPath id="_clip1">
            <path d="M9.386,0.877C4.209,0.877 0,5.086 0,10.263L0,25.568C0,30.745 4.209,34.955 9.386,34.955L25.036,34.955C30.211,34.955 34.421,30.745 34.421,25.568L34.421,24.378C34.421,22.641 33.012,21.234 31.275,21.234C29.537,21.234 28.13,22.641 28.13,24.378L28.13,25.568C28.13,27.274 26.742,28.664 25.036,28.664L9.386,28.664C7.68,28.664 6.291,27.274 6.291,25.568L6.291,10.379C6.291,8.672 7.68,7.284 9.386,7.284L25.007,7.284C25.401,7.284 25.733,7.284 26.04,7.285C26.04,7.285 26.04,7.284 26.038,7.284L27.679,7.284C31.543,7.284 34.868,10.292 31.395,15.503C31.357,15.536 31.322,15.571 31.286,15.605C34.423,12.824 35.036,9.224 33.742,6.081C32.418,2.871 29.072,0.877 25.007,0.877L9.386,0.877ZM31.261,15.626C31.269,15.619 31.277,15.613 31.286,15.605C31.277,15.613 31.269,15.619 31.261,15.626Z"/>
        </clipPath>
        <g clip-path="url(#_clip1)">
            <path d="M-10.953,30.969L4.099,-10.385L45.991,4.863L30.94,46.215L-10.953,30.969Z" style="fill:#53b965;fill-rule:nonzero;"/>
        </g>
        <path d="M27.558,8.5C27.834,9.174 28.051,10.105 26.979,11.008L18.002,17.6L15.289,14.098C14.225,12.724 12.25,12.472 10.875,13.538C9.501,14.601 9.25,16.577 10.314,17.949L14.904,23.877C15.948,25.225 17.877,25.496 19.252,24.487L29.656,16.88C29.782,16.79 31.153,15.736 31.263,15.627C31.308,15.585 31.349,15.544 31.395,15.502C34.87,10.294 31.543,7.284 27.678,7.284L26.038,7.284C26.837,7.481 27.319,7.919 27.558,8.5Z" style="fill:#53b965;fill-rule:nonzero;"/>
    </g>
</svg>
