<svg width="2381" height="712" viewBox="0 0 2381 712" fill="none" xmlns="http://www.w3.org/2000/svg">
    <path fill-rule="evenodd" clip-rule="evenodd" d="M2255.22 467.306H2169.25L2041.39 132.253H2138.38L2211.13 340.566L2283.87 132.253H2380.88L2255.22 467.306ZM1987.38 423.218C1921.24 490.447 1814.32 490.447 1747.08 425.423C1730.55 408.897 1717.31 389.052 1708.5 367.014C1699.68 344.964 1695.27 320.721 1695.27 297.58C1695.27 273.325 1699.68 249.082 1708.5 227.044C1717.31 206.096 1729.45 187.366 1744.88 170.828C1760.31 155.405 1779.04 142.175 1798.89 133.355C1819.83 124.547 1842.97 120.137 1865.02 120.137C1888.17 120.137 1910.21 124.547 1932.26 132.253C1952.1 139.97 1970.83 152.098 1986.27 168.623C2001.7 185.161 2014.93 203.891 2022.64 224.839C2031.46 247.98 2035.88 272.223 2035.88 297.58C2035.88 321.823 2031.46 344.964 2022.64 367.014C2014.93 387.95 2002.8 406.692 1987.38 423.218ZM1944.38 260.107C1939.98 249.082 1934.47 239.16 1925.65 231.454C1917.93 223.737 1909.11 217.121 1898.09 212.711C1877.15 203.891 1852.9 203.891 1831.95 212.711C1822.03 217.121 1812.11 222.634 1805.5 231.454C1797.79 240.262 1791.18 249.082 1787.87 260.107C1783.45 272.223 1781.24 284.35 1781.24 297.58C1781.24 309.696 1783.45 321.823 1787.87 333.951C1792.28 344.964 1797.79 354.887 1805.5 362.604C1813.22 370.322 1822.03 376.937 1831.95 381.335C1841.87 385.745 1854 387.95 1865.02 387.95C1876.05 387.95 1887.07 385.745 1898.09 381.335C1908 376.937 1917.93 370.322 1925.65 362.604C1933.36 353.784 1939.98 344.964 1944.38 333.951C1953.2 310.798 1953.2 284.35 1944.38 260.107ZM1592.76 467.306L1524.42 346.067L1464.9 424.32V467.306H1378.93V0H1464.9V295.375L1591.66 134.458H1689.76L1578.43 273.325L1689.76 468.409L1592.76 467.306ZM1262.08 239.16C1256.57 232.557 1251.06 225.942 1243.35 221.532C1236.74 217.121 1229.02 212.711 1221.31 210.506C1213.58 208.301 1204.77 207.199 1197.05 207.199C1186.03 207.199 1173.91 209.404 1163.99 214.916C1154.06 219.327 1144.14 227.044 1137.53 234.75C1129.81 243.57 1123.2 254.595 1119.9 265.62C1115.49 277.735 1113.28 292.068 1113.28 305.298C1113.28 316.311 1115.49 327.336 1119.9 338.361C1124.3 348.272 1129.81 357.092 1137.53 364.809C1145.24 372.527 1154.06 379.13 1163.99 382.437C1181.62 390.155 1202.56 391.257 1221.31 385.745C1229.02 383.54 1236.74 380.232 1243.35 375.834C1249.96 371.424 1256.57 365.912 1260.98 360.399C1266.49 353.784 1270.9 347.169 1274.21 339.464L1337.04 402.282C1329.32 413.295 1320.51 423.218 1309.48 433.14C1299.57 441.961 1288.55 449.666 1276.41 456.281C1264.29 462.896 1252.17 467.306 1238.94 470.614C1225.72 473.921 1211.38 475.024 1198.15 475.024C1175.01 475.024 1152.96 470.614 1132.02 461.794C1091.23 444.166 1058.17 412.205 1040.54 371.424C1031.71 350.477 1027.3 328.439 1027.3 305.298C1027.3 281.043 1031.71 256.8 1040.54 233.647C1049.35 211.609 1061.48 192.878 1076.9 175.238C1092.33 158.713 1111.08 145.483 1130.92 135.56C1151.86 125.638 1173.91 121.24 1197.05 121.24C1211.38 121.24 1224.62 123.445 1237.84 126.74C1265.39 133.355 1289.65 147.688 1309.48 167.521C1319.4 177.443 1329.32 188.468 1335.93 201.686L1273.11 264.517C1272 253.492 1267.59 245.775 1262.08 239.16ZM855.357 387.95C858.663 387.95 861.969 387.95 865.275 387.95C872.99 387.95 881.806 386.847 889.52 384.642C897.235 382.437 904.949 379.13 911.573 374.732C924.798 365.912 935.818 353.784 942.431 338.361L1005.26 401.18C997.545 412.205 988.729 422.115 977.708 432.038C967.778 440.858 956.757 448.576 944.635 455.179C932.512 461.794 920.39 466.204 907.153 469.511C892.827 472.819 878.5 473.921 865.275 473.921C820.079 473.921 775.986 456.281 744.026 424.32C728.598 407.795 715.361 389.052 707.647 368.117C698.83 346.067 694.422 321.823 694.422 296.478C694.422 271.12 698.83 246.877 707.647 223.737C724.189 181.853 757.251 148.79 799.141 132.253C820.079 123.445 843.222 119.035 865.275 119.035C879.602 119.035 892.827 120.137 906.051 124.547C945.737 134.458 981.014 158.713 1005.26 192.878L845.427 385.745C848.745 386.847 852.051 387.95 855.357 387.95ZM888.418 209.404C885.112 208.301 880.704 207.199 876.296 206.096C871.888 206.096 868.582 204.994 864.173 204.994C853.153 204.994 842.12 207.199 831.1 211.609C821.181 216.019 811.263 221.532 804.651 230.352C796.936 238.057 790.324 247.98 787.018 259.005C782.598 271.12 780.394 283.248 780.394 296.478C780.394 299.785 780.394 303.093 780.394 307.491C780.394 311.901 781.496 315.208 781.496 319.618C781.496 324.028 782.598 327.336 783.712 331.746C784.814 335.054 785.916 338.361 788.12 341.656L888.418 209.404ZM565.458 276.633C566.56 267.825 564.356 260.107 561.05 251.287C554.438 235.852 542.315 223.737 526.875 217.121C519.16 213.814 510.344 211.609 502.63 211.609C476.181 211.609 453.026 227.044 443.107 251.287C439.801 259.005 437.597 267.825 437.597 276.633V467.306H352.727V0H437.597V147.688C447.515 139.97 457.434 134.458 469.568 131.15C480.589 127.843 491.609 126.74 502.63 126.74C522.467 126.74 542.315 130.048 561.05 138.868C578.683 146.585 595.226 157.61 608.45 170.828C621.675 185.161 632.695 200.584 640.41 218.224C648.124 236.955 652.532 256.8 652.532 276.633V467.306H566.56L565.458 276.633ZM235.886 239.16C230.376 232.557 224.866 225.942 217.139 221.532C210.527 217.121 202.813 212.711 195.098 210.506C187.384 208.301 178.568 207.199 170.853 207.199C159.833 207.199 147.698 209.404 137.78 214.916C127.862 219.327 117.943 227.044 111.331 234.75C103.617 242.467 97.0042 253.492 92.584 264.517C88.1758 276.633 85.9717 290.965 85.9717 304.195C85.9717 315.208 88.1758 326.233 92.584 337.259C97.0042 347.169 102.514 355.989 110.229 363.707C117.943 371.424 126.759 378.027 136.678 381.335C154.311 389.052 175.262 390.155 193.996 384.642C201.711 382.437 209.425 379.13 216.037 374.732C222.662 370.322 229.274 364.809 233.682 359.297C239.192 352.682 243.601 346.067 246.907 338.361L309.735 401.18C302.021 412.205 293.205 422.115 282.184 432.038C272.254 440.858 261.233 448.576 249.111 455.179C236.988 461.794 224.866 466.204 211.629 469.511C198.405 472.819 184.078 473.921 170.853 473.921C147.698 473.921 125.657 469.511 104.719 460.691C63.9308 443.063 30.8573 411.102 13.2245 370.322C4.40818 349.374 0 327.336 0 304.195C0 279.94 4.40818 255.697 13.2245 232.557C22.0409 210.506 34.1755 191.776 49.6042 174.136C65.0328 157.61 83.7676 144.38 103.617 134.458C124.555 124.547 146.596 120.137 169.751 120.137C184.078 120.137 197.303 122.342 210.527 125.65C238.09 132.253 262.335 146.585 282.184 166.418C292.103 176.341 302.021 187.366 308.633 200.584L245.805 263.415C245.805 253.492 241.396 245.775 235.886 239.16Z" fill="#052882"></path>
    <path fill-rule="evenodd" clip-rule="evenodd" d="M1391.61 545.899H1412.48V588.764H1412.65C1414.47 587.298 1416.55 586.171 1418.81 585.396C1422.44 583.845 1426.25 582.633 1430.15 581.773L1434.14 581.434C1436.66 580.998 1439.16 580.998 1441.67 581.434L1444.71 581.604C1451.72 583.324 1457.53 584.96 1462.73 588.243C1471.22 593.767 1477.81 601.788 1481.44 611.19C1482.13 613.261 1482.65 615.321 1483.09 617.477C1484.57 623.353 1484.73 629.472 1483.61 635.42C1482.74 639.128 1481.71 642.75 1480.23 646.203C1474.51 659.143 1463.86 667.417 1449.65 671.997C1447.57 672.688 1445.57 672.506 1443.32 673.027C1441.33 673.378 1439.33 673.463 1437.35 673.378C1428.86 673.463 1420.54 670.955 1413.43 666.218C1404.16 660.354 1397.24 651.292 1393.94 640.776C1390.82 631.374 1391.61 618.168 1391.61 605.919V545.899ZM1660.17 545.899H1681.04C1680.96 561.165 1680.96 576.345 1680.87 591.611V606.525C1681.04 609.118 1681.04 611.614 1680.71 614.206V622.312C1680.71 629.036 1680.87 636.111 1679.23 641.284C1676.12 650.953 1669.78 659.312 1661.39 665.091C1659.91 666.133 1658.43 666.642 1656.88 667.599C1649.78 671.912 1635.82 675.62 1624.48 672.421C1608.62 667.938 1597.8 658.791 1591.73 644.652C1590.6 641.551 1589.73 638.437 1589.04 635.166C1587.39 628.696 1588.87 618.435 1590.69 613.431C1596.24 598.505 1604.81 589.37 1619.72 583.845C1626.38 581.434 1637.74 580.222 1645.79 582.549C1650.82 584.015 1655.66 586.171 1660.17 588.849V545.899ZM1578.21 552.539H1579.26C1579.43 552.708 1579.6 552.963 1579.78 553.229C1580.38 553.92 1580.12 556.161 1580.12 557.36V568.664C1580.12 570.3 1580.55 572.541 1579.26 572.977C1578.47 573.583 1576.13 573.317 1574.75 573.317H1562.88C1561.41 573.317 1558.55 573.232 1559.24 571.511L1564.26 566.677L1578.21 552.539ZM1514.62 674.069H1493.74V632.149C1493.74 623.438 1493.22 614.121 1495.39 607.385C1499.21 595.742 1506.13 588.073 1517.05 583.59C1526.49 579.786 1538.8 581.773 1550.23 582.125V582.464C1549.02 584.184 1547.98 586.001 1547.03 587.988C1545.29 590.836 1543.47 593.767 1541.65 596.615C1540.78 598.081 1539.66 601.703 1537.67 601.788C1536.71 601.182 1533.52 601.606 1532.47 601.788L1529.43 601.958C1525.45 602.903 1521.99 603.678 1519.56 606.101C1513.93 611.698 1514.37 619.549 1514.37 630.683V674.069H1514.62ZM1982.19 674.069V631.628C1982.19 623.608 1981.5 614.461 1983.49 608.173C1987.22 596.518 1993.72 588.412 2004.55 583.93C2007.32 582.9 2010.18 582.125 2013.04 581.604L2017.37 581.252C2019.88 580.828 2022.4 580.828 2024.91 581.083C2027.07 581.519 2029.93 581.083 2032.27 581.604C2034.44 581.943 2036.61 582.125 2038.77 582.125V582.294C2037.82 583.675 2036.94 585.056 2036.25 586.607C2034.09 590.06 2031.92 593.767 2029.76 597.208C2028.98 598.505 2028.12 601.606 2026.29 601.703C2025.34 601.097 2022.13 601.521 2021.09 601.703L2017.89 601.873C2014.6 602.394 2011.48 603.678 2008.7 605.495C2002.82 609.724 2002.99 618.168 2002.99 628.442V673.802C2000.73 674.154 1998.57 674.238 1996.31 673.972H1982.19V674.069ZM1833.61 581.252C1837.09 580.998 1840.64 581.083 1844.1 581.604C1848.52 582.464 1852.76 583.76 1856.92 585.396C1870.35 591.26 1881.35 605.144 1883.43 622.312C1881.79 622.748 1880.14 623.353 1878.58 624.129C1874.94 625.68 1871.13 626.625 1867.58 628.091C1865.33 629.036 1863.16 629.302 1860.91 630.247C1853.63 633.264 1845.83 635.59 1838.55 638.522C1833.88 640.424 1828.94 641.805 1824.35 643.707C1822.78 644.301 1820.53 644.483 1819.32 645.513H1819.49C1820.62 646.809 1822.01 647.924 1823.47 648.711C1827.89 651.643 1836.13 654.393 1843.49 652.152C1849.98 650.262 1855.53 646.639 1858.66 641.369C1863.08 643.792 1867.75 646.034 1872.17 648.36C1873.38 648.966 1876.59 650.08 1876.85 651.377C1876.07 652.237 1875.38 653.279 1874.86 654.393C1873.64 656.126 1871.9 657.422 1870.69 659.058C1870.35 659.579 1870 660.088 1869.57 660.524C1867.14 662.329 1864.98 664.57 1862.37 666.218C1857.01 669.32 1851.21 671.561 1845.22 672.857L1841.24 673.197C1839.76 673.463 1838.21 673.463 1836.74 673.378C1828.94 672.773 1824.6 671.997 1819.07 669.574C1806.16 663.977 1797.75 654.745 1793.16 640.86C1791.42 635.505 1789.95 626.104 1791.68 619.38C1792.64 615.321 1793.94 611.274 1795.5 607.385C1800 597.208 1809.62 588.849 1820.01 584.451C1823.14 583.324 1826.33 582.464 1829.54 581.773C1830.84 581.519 1832.67 581.858 1833.61 581.252ZM1936.45 581.252C1948.93 580.998 1957.59 583.59 1964.96 588.243C1967.47 589.794 1969.47 592.035 1971.97 593.586V593.767H1971.8L1957.42 608.258C1956.46 607.652 1955.6 606.961 1954.73 606.271C1952.47 604.805 1950.14 603.593 1947.55 602.818C1932.55 597.899 1919.99 608.597 1916.01 618.253C1915.05 621.197 1914.53 624.214 1914.36 627.23C1914.28 630.599 1914.97 633.87 1916.35 636.886C1919.39 644.568 1925.88 650.262 1933.85 652.334C1941.04 654.49 1949.01 651.898 1953.35 649.135C1954.91 648.445 1956.29 647.415 1957.5 646.118H1957.68V646.288L1972.23 660.609V660.778H1972.06C1970.59 662.85 1967.72 664.316 1965.57 665.782C1956.73 671.646 1941.04 676.395 1927.18 671.731C1911.59 666.557 1901.1 656.55 1895.99 641.03C1894.18 635.505 1892.7 626.104 1894.53 619.125C1895.22 616.011 1896.08 612.995 1897.2 609.978C1901.79 599.462 1910.11 590.145 1920.6 585.565C1923.89 584.184 1927.18 583.154 1930.65 582.209C1932.03 581.688 1935.33 581.943 1936.45 581.252ZM2076.97 581.252C2081.14 580.913 2085.37 581.167 2089.54 581.943C2104.1 585.65 2113.45 592.386 2120.39 603.508C2124.02 609.118 2126.27 615.587 2126.88 622.312C2124.79 622.917 2122.72 623.693 2120.72 624.638C2117.09 626.189 2113.28 627.146 2109.73 628.612C2107.48 629.557 2105.31 629.811 2103.06 630.768C2095.78 633.785 2087.98 636.111 2080.7 639.043C2076.55 640.776 2072.29 641.89 2068.31 643.526C2066.66 644.216 2064.07 644.398 2062.76 645.513H2062.95C2064.16 646.894 2065.62 648.021 2067.27 648.881C2071.77 651.728 2079.66 654.224 2086.94 652.237C2093 650.516 2099.59 646.458 2102.1 641.466C2106.52 643.877 2111.28 646.034 2115.61 648.445C2116.82 649.135 2120.03 650.08 2120.29 651.461C2119.6 652.334 2118.99 653.279 2118.47 654.309C2117.35 655.859 2115.96 657.24 2114.84 658.791C2113.97 659.748 2113.01 660.609 2111.98 661.299C2109.73 662.935 2107.73 665.091 2105.31 666.642C2100.2 669.841 2094.38 671.476 2087.63 673.112L2084.6 673.281C2078.71 674.578 2069.61 672.506 2065.37 670.786C2062.95 670.01 2060.51 668.98 2058.17 667.769C2047.6 661.735 2039.72 651.813 2036.34 640.17C2034.96 635.772 2034.35 631.107 2034.52 626.54C2034.61 624.989 2034.61 623.438 2034.69 621.875C2035.21 618.689 2035.92 615.503 2036.86 612.389C2041.89 599.971 2049.77 590.399 2061.9 585.141C2064.93 583.93 2068.06 582.9 2071.25 582.125L2076.97 581.252ZM1731.99 581.434C1759.37 580.913 1775.14 596.433 1781.03 617.138C1783.11 624.468 1782.32 633.955 1782.15 642.581V657.071C1782.41 659.312 1782.41 661.469 1782.15 663.71C1781.63 666.036 1782.32 668.29 1781.8 670.531C1781.2 674.069 1780.25 677.425 1779.13 680.793C1775.83 688.983 1770.46 696.143 1763.44 701.583C1758.67 705.024 1753.39 707.617 1747.76 709.422C1745.59 710.112 1743.51 710.028 1741.09 710.549C1737.54 711.154 1733.81 711.239 1730.26 710.718L1723.42 709.422C1718.21 707.871 1713.28 705.46 1708.69 702.443C1707.65 701.753 1706.78 700.711 1705.82 699.935C1703.57 698.215 1701.5 696.143 1699.85 693.817C1699.16 692.872 1697.77 692 1697.51 690.619C1699.06 689.419 1700.46 688.123 1701.67 686.657L1708.34 680.187C1709.38 679.157 1711.11 676.734 1712.49 676.225V676.395C1713.62 677.776 1714.58 679.327 1715.53 680.878C1718.39 684.415 1722.11 687.178 1726.36 688.813C1732.08 690.8 1738.31 690.885 1744.03 688.983C1753.04 685.712 1761.19 677.776 1761.36 665.867H1761.19C1759.54 667.078 1757.73 668.108 1755.81 668.883C1747.49 673.197 1733.12 675.353 1722.11 671.731C1706.69 666.642 1696.47 656.295 1691.36 640.86C1689.45 635.166 1688.24 625.074 1690.24 618.083C1691.01 614.897 1692.05 611.795 1693.26 608.766C1697.94 598.335 1706.34 589.963 1716.83 585.311C1719.86 584.099 1722.98 583.07 1726.19 582.294L1731.99 581.434ZM1558.38 582.815H1579.26V674.069H1558.38V582.815ZM2137.97 584.099H2158.68C2158.93 585.917 2159.02 587.722 2158.85 589.624V640.679C2159.1 641.89 2159.37 643.102 2159.71 644.301C2160.49 646.724 2161.96 648.796 2163.87 650.432C2170.72 655.52 2181.37 653.279 2185.27 647.063C2188.22 642.411 2187.61 634.221 2187.61 626.625V584.099H2208.32V626.976C2208.32 633.785 2207.53 642.06 2210.14 646.373C2212.73 650.686 2215.6 651.982 2221.31 653.194C2226.42 654.309 2232.49 650.347 2234.13 647.839C2237.6 642.932 2237 635.251 2237 626.879V584.099H2257.69V623.172C2257.69 630.162 2258.48 640.085 2257 645.949C2255.88 650.953 2253.89 655.69 2251.02 659.918C2249.99 661.735 2248.6 663.456 2247.04 664.922C2242.71 668.459 2237.69 671.222 2232.31 672.857C2230.32 673.463 2228.49 673.197 2226.34 673.718C2224.86 674.069 2223.3 674.069 2221.83 673.887H2218.98C2217.67 673.633 2216.11 673.633 2214.81 673.197C2210.66 672.082 2206.67 670.18 2203.11 667.684C2201.13 666.557 2199.39 665.091 2197.92 663.371C2197.83 663.371 2197.83 663.456 2197.75 663.541L2193.93 666.993C2190.55 669.404 2186.82 671.391 2182.94 672.688C2175.05 675.268 2164.56 673.548 2158.41 670.87C2148.02 666.388 2142.12 658.367 2138.91 646.809C2137.28 640.945 2138.05 632.319 2138.05 625.243V584.099H2137.97ZM1436.04 601.703C1434.91 601.958 1433.7 602.127 1432.58 602.212C1430.84 602.648 1429.11 603.169 1427.38 603.86C1421.14 606.707 1416.38 611.795 1413.86 618.168C1413.26 619.816 1412.82 621.451 1412.57 623.172C1411.96 626.709 1412.13 630.332 1413.26 633.785C1415.77 642.06 1420.37 647.584 1427.99 650.771C1430.41 651.813 1436.14 653.8 1440.2 652.927C1442.54 652.588 1444.79 652.152 1447.05 651.461C1453.55 648.966 1458.83 644.047 1461.77 637.662C1462.56 635.59 1463.17 633.53 1463.59 631.374C1464.72 626.37 1463.07 620.761 1461.77 617.574C1457.53 607.991 1449.65 601.703 1436.04 601.703ZM1632.8 601.703C1631.92 601.958 1631.06 602.042 1630.11 602.042C1628.21 602.479 1626.38 602.987 1624.56 603.678C1617.99 606.61 1612.86 612.05 1610.36 618.774C1610 620.409 1609.58 621.972 1609.23 623.608C1608.62 627.315 1608.98 631.023 1610.27 634.56C1612.35 641.975 1617.89 648.021 1625.08 650.868C1627.33 651.813 1632.97 653.703 1636.78 652.843C1639.29 652.503 1641.72 651.898 1644.14 651.207C1650.55 648.614 1655.66 643.707 1658.53 637.407C1659.22 635.59 1659.83 633.7 1660.17 631.713C1660.87 628.006 1660.6 624.214 1659.48 620.591C1656.45 611.274 1650.9 605.41 1641.64 602.479C1638.77 601.873 1635.82 601.521 1632.8 601.703ZM1835.44 601.703C1834.57 601.958 1833.71 602.042 1832.75 602.042C1831.02 602.394 1829.29 602.903 1827.56 603.508C1819.67 606.792 1811.79 615.151 1811.69 626.104H1811.87C1812.65 625.764 1813.44 625.498 1814.21 625.243C1816.55 624.298 1819.07 623.608 1821.57 622.566C1829.46 619.38 1837.95 616.787 1845.75 613.601C1848 612.656 1850.42 611.965 1852.59 611.105C1853.88 610.838 1855.11 610.414 1856.23 609.808C1854.76 608.851 1853.54 607.216 1852.07 606.186C1847.83 603.254 1842.8 601.788 1835.44 601.703ZM2078.88 601.703C2078.1 601.873 2077.24 602.042 2076.36 602.042C2074.46 602.479 2072.56 602.987 2070.65 603.678C2061.55 607.567 2055.57 616.278 2055.15 626.104H2055.32C2056.19 625.68 2057.13 625.328 2058.17 625.074C2060.51 624.129 2063.03 623.438 2065.54 622.396C2073.25 619.21 2081.57 616.702 2089.27 613.601C2091.79 612.571 2094.3 611.88 2096.64 610.923C2097.76 610.669 2098.8 610.329 2099.85 609.808C2098.47 608.948 2097.51 607.385 2096.21 606.44C2091.53 603.424 2086.5 601.788 2078.88 601.703ZM1733.81 601.873C1732.95 602.127 1732.08 602.212 1731.12 602.212C1729.22 602.648 1727.4 603.169 1725.59 603.86C1719.25 606.61 1714.32 611.795 1711.72 618.168C1711.03 620.07 1710.59 622.057 1710.24 623.947C1709.72 627.315 1709.99 630.853 1711.11 634.124C1713.8 642.496 1718.31 647.839 1726.09 651.122C1728.35 652.067 1734.08 653.969 1737.79 653.109C1740.31 652.758 1742.73 652.152 1745.16 651.461C1751.66 648.881 1756.94 643.792 1759.71 637.323C1760.32 635.687 1760.84 633.955 1761.19 632.149C1761.88 628.175 1761.63 624.032 1760.32 620.155C1757.81 611.698 1751.14 605.059 1742.65 602.733C1739.79 602.042 1736.75 601.703 1733.81 601.873Z" fill="black"></path>
</svg>