<svg width="203" height="50" xmlns="http://www.w3.org/2000/svg"><g fill="none"><circle fill="#12577E" cx="25.541" cy="41.216" r="8.581"/><path d="M25.743 17.365h1.081c2.027-.135 3.987-.946 5.473-2.5a8.564 8.564 0 000-12.162 8.564 8.564 0 00-12.162 0c-2.027 2.027-2.77 4.73-2.432 7.297-.946 5.27-5.879 6.014-8.04 6.081-2.433-.203-4.866.676-6.69 2.5a8.564 8.564 0 000 12.162 8.564 8.564 0 0012.162 0c1.554-1.554 2.365-3.513 2.5-5.54v-.473c.203-6.42 5.743-7.298 8.108-7.365z" fill="#45B6EE"/><path d="M34.865 24.73c0-1.216.203-2.365.608-3.514.405-1.08.946-2.027 1.757-2.838a8.236 8.236 0 012.77-1.96c1.081-.472 2.297-.742 3.716-.742.879 0 1.757.067 2.5.27.743.135 1.487.405 2.23.676l-1.149 3.919c-.473-.203-.946-.338-1.486-.473a7.536 7.536 0 00-1.825-.203c-1.418 0-2.5.473-3.175 1.351-.676.879-1.081 2.027-1.081 3.514 0 1.554.338 2.702 1.013 3.58.676.812 1.825 1.285 3.446 1.285.608 0 1.216-.068 1.892-.136.676-.135 1.284-.27 1.824-.54l.676 3.986c-.54.27-1.284.473-2.095.609-.81.202-1.756.27-2.77.27-1.554 0-2.905-.203-4.054-.676-1.148-.473-2.027-1.081-2.77-1.892a7.417 7.417 0 01-1.622-2.838 16.323 16.323 0 01-.405-3.648zm23.851 8.851c-1.419 0-2.567-.203-3.446-.473-.878-.27-1.554-.676-2.094-1.216-.54-.54-.879-1.149-1.014-1.824-.135-.676-.27-1.554-.27-2.433V8.851l4.865-.81v18.58c0 .406 0 .811.067 1.15.068.337.203.607.406.878.202.27.473.405.81.608.338.135.811.27 1.42.27l-.744 4.054zm19.392-8.851c0 1.351-.203 2.567-.608 3.648-.405 1.081-.946 2.095-1.69 2.838a7.12 7.12 0 01-2.634 1.825 9.208 9.208 0 01-3.446.675c-1.284 0-2.365-.202-3.446-.675a7.12 7.12 0 01-2.635-1.825c-.744-.81-1.284-1.757-1.69-2.838-.405-1.08-.608-2.364-.608-3.648 0-1.352.203-2.568.608-3.649a8.725 8.725 0 011.757-2.838c.743-.81 1.622-1.351 2.635-1.824a9.124 9.124 0 013.379-.676c1.216 0 2.365.203 3.378.676a7.12 7.12 0 012.635 1.824c.743.811 1.284 1.69 1.69 2.838.472 1.081.675 2.297.675 3.649zm-4.932 0c0-1.487-.27-2.635-.879-3.514-.608-.878-1.419-1.284-2.567-1.284-1.149 0-1.96.406-2.568 1.284-.608.879-.878 2.027-.878 3.514 0 1.486.27 2.702.878 3.58.608.88 1.487 1.285 2.568 1.285 1.08 0 1.96-.406 2.567-1.284.54-.946.879-2.095.879-3.581zm23.175 7.973c-.81.27-1.892.473-3.175.675a25.9 25.9 0 01-4.054.338c-1.42 0-2.636-.202-3.649-.608-1.014-.405-1.757-.946-2.297-1.622-.54-.675-.946-1.554-1.217-2.5-.27-.945-.337-2.027-.337-3.243v-9.527h4.864v8.92c0 1.553.203 2.702.609 3.378.405.675 1.148 1.013 2.297 1.013.338 0 .743 0 1.081-.068a4.09 4.09 0 001.013-.135V16.216h4.865v16.487zm19.595 0c-.405.135-.946.27-1.487.405-.54.135-1.148.203-1.756.338-.608.068-1.217.135-1.892.203-.608.067-1.216.067-1.825.067-1.418 0-2.635-.202-3.783-.608a7.224 7.224 0 01-2.77-1.757 7.776 7.776 0 01-1.757-2.77c-.406-1.081-.608-2.297-.608-3.649 0-1.35.202-2.635.54-3.716.338-1.08.81-2.027 1.487-2.838a6.036 6.036 0 012.364-1.756c.946-.406 2.027-.608 3.244-.608.675 0 1.283.067 1.824.202.54.135 1.081.338 1.622.54V8.852l4.865-.81v24.662h-.068zM105 24.595c0 1.486.338 2.702 1.014 3.58.675.88 1.689 1.352 2.972 1.352.406 0 .811 0 1.217-.068.405-.067.675-.067.878-.135v-8.783c-.27-.203-.676-.338-1.216-.473a5.27 5.27 0 00-1.487-.203c-2.23.067-3.378 1.621-3.378 4.73zm20.405 5.202c.879 0 1.487-.067 1.892-.27.406-.203.54-.54.54-1.013 0-.406-.27-.744-.742-1.014-.473-.27-1.217-.608-2.163-1.014-.743-.27-1.418-.54-2.027-.878a5.306 5.306 0 01-1.554-1.081c-.405-.405-.743-.946-1.013-1.486-.27-.609-.338-1.284-.338-2.095 0-1.622.608-2.838 1.757-3.784 1.216-.946 2.838-1.419 4.865-1.419 1.013 0 2.027.068 2.973.27.946.203 1.689.406 2.297.609l-.81 3.783c-.541-.202-1.15-.337-1.825-.54a11.39 11.39 0 00-2.23-.203c-1.486 0-2.297.406-2.297 1.284 0 .203 0 .338.067.54.068.136.203.27.406.406.202.135.473.27.81.473.338.135.744.338 1.284.54 1.081.406 1.96.811 2.635 1.15.676.404 1.217.81 1.622 1.215.405.473.676.946.81 1.487.136.54.271 1.148.271 1.892 0 1.689-.608 2.973-1.892 3.851-1.284.878-3.04 1.284-5.338 1.284-1.486 0-2.77-.135-3.783-.406-1.014-.27-1.69-.473-2.095-.675l.81-3.92c.812.339 1.69.609 2.5.744.88.203 1.69.27 2.568.27zm20.203-5.608c0-1.554-.203-2.635-.608-3.31-.405-.676-1.081-.947-2.027-.947-.27 0-.608 0-.946.068-.338 0-.608.068-.946.135v13.176h-4.865V16.757c.406-.135.879-.203 1.42-.338.54-.135 1.148-.203 1.756-.338a8.547 8.547 0 011.892-.203c.675-.067 1.284-.067 1.892-.067 1.216 0 2.23.135 2.973.473.743.338 1.419.675 1.892 1.148a8.55 8.55 0 012.364-1.148c.879-.27 1.757-.406 2.5-.406 1.352 0 2.5.203 3.379.54a5.636 5.636 0 012.094 1.623c.54.675.879 1.486 1.081 2.432.203.946.27 2.027.27 3.176v9.662h-4.864v-9.122c0-1.554-.203-2.635-.608-3.31-.406-.676-1.081-.947-2.027-.947-.27 0-.608.068-1.081.203s-.879.27-1.149.473c.135.473.27 1.014.27 1.554.068.54.068 1.149.068 1.757v9.324h-4.865V24.19h.135zm23.851-12.905c0 .878-.27 1.554-.878 2.094-.54.54-1.216.744-2.027.744-.81 0-1.486-.27-2.027-.744-.54-.54-.878-1.216-.878-2.094 0-.879.27-1.554.878-2.095.54-.54 1.216-.743 2.027-.743.81 0 1.487.27 2.027.743.608.473.878 1.216.878 2.095zm-.473 21.96h-4.797V16.215h4.865v17.027h-.068zm4.392-21.285l4.865-.81v5.067h5.811v4.054h-5.81v6.014c0 1.013.202 1.824.54 2.432.338.608 1.08.879 2.162.879.54 0 1.081-.068 1.622-.136.54-.067 1.08-.202 1.486-.405l.676 3.784a8.32 8.32 0 01-1.96.608c-.743.203-1.621.27-2.635.27-1.351 0-2.432-.202-3.243-.54-.878-.338-1.554-.879-2.095-1.487-.54-.608-.878-1.419-1.08-2.297a13.482 13.482 0 01-.339-3.04V11.958zm14.595 21.284V8.851l4.865-.81v8.175c.338-.135.743-.202 1.216-.338.54-.067 1.014-.135 1.487-.135 1.35 0 2.567.203 3.445.54.946.406 1.622.947 2.23 1.622a5.82 5.82 0 011.149 2.433c.203.946.338 2.027.338 3.176v9.662h-4.865v-8.987c0-1.554-.203-2.635-.608-3.31-.406-.676-1.149-.947-2.23-.947-.405 0-.81.068-1.216.136-.406.067-.743.135-1.014.27V33.31h-4.797v-.068z" fill="#021F2F"/></g></svg>