<?xml version="1.0" encoding="utf-8"?>
<!-- Generator: Adobe Illustrator 25.4.1, SVG Export Plug-In . SVG Version: 6.00 Build 0)  -->
<svg version="1.1"
	 id="svg18" inkscape:version="1.1 (ce6663b3b7, 2021-05-25)" sodipodi:docname="logo_white.svg" xmlns:cc="http://creativecommons.org/ns#" xmlns:dc="http://purl.org/dc/elements/1.1/" xmlns:inkscape="http://www.inkscape.org/namespaces/inkscape" xmlns:rdf="http://www.w3.org/1999/02/22-rdf-syntax-ns#" xmlns:sodipodi="http://sodipodi.sourceforge.net/DTD/sodipodi-0.dtd" xmlns:svg="http://www.w3.org/2000/svg"
	 xmlns="http://www.w3.org/2000/svg" xmlns:xlink="http://www.w3.org/1999/xlink" x="0px" y="0px" viewBox="0 0 2849.3 772.3"
	 style="enable-background:new 0 0 2849.3 772.3;" xml:space="preserve">
<style type="text/css">
	.st0{fill:#24C4A1;}
</style>
<sodipodi:namedview  bordercolor="#666666" borderopacity="1" fit-margin-bottom="0" fit-margin-left="0" fit-margin-right="0" fit-margin-top="0" gridtolerance="10" guidetolerance="10" id="namedview20" inkscape:current-layer="text1233" inkscape:cx="1761.0644" inkscape:cy="721.53833" inkscape:document-rotation="0" inkscape:guide-bbox="true" inkscape:pagecheckerboard="0" inkscape:pageopacity="0" inkscape:pageshadow="2" inkscape:window-height="1376" inkscape:window-maximized="0" inkscape:window-width="2529" inkscape:window-x="2830" inkscape:window-y="27" inkscape:zoom="0.39152459" objecttolerance="10" pagecolor="#ffffff" showgrid="false" showguides="true">
	<sodipodi:guide  id="guide954" orientation="1,0" position="-0.84499062,610.47897"></sodipodi:guide>
	<sodipodi:guide  id="guide956" orientation="0,-1" position="385.98619,833.80988"></sodipodi:guide>
	<sodipodi:guide  id="guide958" orientation="1,0" position="772.83914,610.46808"></sodipodi:guide>
	<sodipodi:guide  id="guide960" orientation="0,-1" position="385.98619,-59.535626"></sodipodi:guide>
	<sodipodi:guide  id="guide962" orientation="0,-1" position="669.41759,385.00115"></sodipodi:guide>
	<sodipodi:guide  id="guide866" orientation="0,-1" position="1187.8718,271.1712"></sodipodi:guide>
	<sodipodi:guide  id="guide1227" orientation="0,-1" position="1108.6942,497.52991"></sodipodi:guide>
	<sodipodi:guide  id="guide1290" orientation="1,0" position="877.38692,385.00115"></sodipodi:guide>
	<sodipodi:guide  id="guide1292" orientation="1,0" position="2849.6831,454.7902"></sodipodi:guide>
	<sodipodi:guide  id="guide865" orientation="1,0" position="2954.4424,385.00115"></sodipodi:guide>
</sodipodi:namedview>
<g id="layer8" transform="translate(-106.10815,-166.81171)" inkscape:groupmode="layer" inkscape:label="text ">
	<g id="text1233">
		<path id="path2999" class="st0" d="M1095.4,475.2c-19,0-33.7,7.2-44.1,21.5c-10.4,14.2-15.6,34.1-15.6,59.6
			c0,53.1,19.9,79.6,59.7,79.6c16.7,0,36.9-4.2,60.7-12.5v42.3c-19.5,8.1-41.3,12.2-65.4,12.2c-34.6,0-61.1-10.5-79.4-31.4
			c-18.3-21.1-27.5-51.2-27.5-90.5c0-24.7,4.5-46.4,13.5-64.9c9-18.7,21.9-32.9,38.7-42.8c16.9-10,36.7-15,59.4-15
			c23.1,0,46.3,5.6,69.7,16.8l-16.3,41c-8.9-4.2-17.8-7.9-26.9-11.1C1112.9,476.8,1104.1,475.2,1095.4,475.2L1095.4,475.2z"/>
		<path id="path3001" class="st0" d="M1242.4,583.3c0,18,2.9,31.6,8.8,40.9c6,9.2,15.6,13.8,29,13.8c13.2,0,22.7-4.6,28.5-13.7
			c5.9-9.2,8.8-22.9,8.8-41c0-18-2.9-31.5-8.8-40.5c-5.9-9-15.5-13.5-28.8-13.5c-13.2,0-22.8,4.5-28.6,13.5
			C1245.3,551.7,1242.4,565.2,1242.4,583.3L1242.4,583.3z M1368.2,583.3c0,29.6-7.8,52.8-23.4,69.5c-15.6,16.7-37.4,25.1-65.3,25.1
			c-17.5,0-32.9-3.8-46.2-11.4c-13.3-7.7-23.6-18.7-30.8-33c-7.2-14.3-10.7-31-10.7-50.1c0-29.7,7.8-52.8,23.3-69.3
			c15.5-16.5,37.3-24.7,65.4-24.7c17.5,0,32.9,3.8,46.2,11.4c13.3,7.6,23.6,18.5,30.8,32.7C1364.6,547.5,1368.2,564.2,1368.2,583.3
			L1368.2,583.3z"/>
		<path id="path3003" class="st0" d="M1466.8,677.9c-21.4,0-38.2-8.3-50.5-24.9c-12.2-16.6-18.2-39.6-18.2-69
			c0-29.8,6.2-53.1,18.6-69.7c12.5-16.7,29.6-25.1,51.4-25.1c22.9,0,40.4,8.9,52.4,26.7h1.6c-2.5-13.6-3.7-25.7-3.7-36.3v-58.3h49.8
			v253.3h-38.1l-9.6-23.6h-2.1C1507.1,668.9,1489.9,677.9,1466.8,677.9L1466.8,677.9z M1484.2,638.3c12.7,0,22-3.7,27.8-11.1
			c6-7.4,9.2-19.9,9.8-37.6v-5.4c0-19.5-3-33.5-9.1-42c-6-8.5-15.7-12.7-29.3-12.7c-11.1,0-19.7,4.7-25.9,14.2
			c-6.1,9.3-9.1,22.9-9.1,40.9c0,17.9,3.1,31.4,9.3,40.4C1463.9,633.9,1472.7,638.3,1484.2,638.3L1484.2,638.3z"/>
		<path id="path3005" class="st0" d="M1695.5,524.5c-10.5,0-18.8,3.4-24.7,10.1c-6,6.6-9.4,16.1-10.3,28.3h69.7
			c-0.2-12.3-3.4-21.7-9.6-28.3C1714.4,527.9,1706,524.5,1695.5,524.5z M1702.5,677.9c-29.3,0-52.2-8.1-68.7-24.3
			c-16.5-16.2-24.7-39.1-24.7-68.7c0-30.5,7.6-54,22.8-70.6c15.3-16.7,36.4-25.1,63.3-25.1c25.7,0,45.7,7.3,60.1,22
			c14.3,14.6,21.5,34.9,21.5,60.7V596h-117.3c0.5,14.1,4.7,25.1,12.5,33s18.8,11.9,32.9,11.9c11,0,21.3-1.1,31.1-3.4
			c9.8-2.3,20-5.9,30.6-10.9V665c-8.7,4.3-18,7.5-27.8,9.6C1728.8,676.8,1716.7,677.9,1702.5,677.9L1702.5,677.9z"/>
		<path id="path3007" class="st0" d="M2032.1,674.6H1968l-103.5-180h-1.5c2.1,31.8,3.1,54.5,3.1,68v112H1821v-238h63.6L1988,614.9
			h1.1c-1.6-30.9-2.4-52.8-2.4-65.6V436.7h45.4V674.6z"/>
		<path id="path3009" class="st0" d="M2127.6,583.3c0,18,2.9,31.6,8.8,40.9c6,9.2,15.6,13.8,29,13.8c13.2,0,22.7-4.6,28.5-13.7
			c5.9-9.2,8.8-22.9,8.8-41c0-18-2.9-31.5-8.8-40.5c-5.9-9-15.5-13.5-28.8-13.5c-13.2,0-22.8,4.5-28.6,13.5
			C2130.6,551.7,2127.6,565.2,2127.6,583.3z M2253.4,583.3c0,29.6-7.8,52.8-23.4,69.5c-15.6,16.7-37.4,25.1-65.3,25.1
			c-17.5,0-32.9-3.8-46.2-11.4c-13.3-7.7-23.6-18.7-30.8-33s-10.7-31-10.7-50.1c0-29.7,7.8-52.8,23.3-69.3
			c15.5-16.5,37.3-24.7,65.4-24.7c17.5,0,32.9,3.8,46.2,11.4c13.3,7.6,23.6,18.5,30.8,32.7C2249.9,547.5,2253.4,564.2,2253.4,583.3
			L2253.4,583.3z"/>
		<path id="path3011" class="st0" d="M2371.1,638.3c8.7,0,19.1-1.9,31.2-5.7v36.9c-12.4,5.5-27.6,8.3-45.6,8.3
			c-19.9,0-34.3-5-43.5-15c-9-10.1-13.5-25.2-13.5-45.2v-87.7h-23.8v-21l27.3-16.6l14.3-38.4h31.7v38.7h50.9v37.3h-50.9v87.7
			c0,7.1,2,12.3,5.9,15.6C2359.3,636.6,2364.6,638.3,2371.1,638.3L2371.1,638.3z"/>
		<path id="path3013" class="st0" d="M2554.7,674.6l-9.6-24.7h-1.3c-8.4,10.5-17,17.8-25.9,22c-8.8,4-20.3,6-34.5,6
			c-17.5,0-31.2-5-41.3-15c-10-10-15-24.2-15-42.6c0-19.3,6.7-33.5,20.2-42.6c13.6-9.2,34-14.3,61.2-15.3l31.6-1v-8
			c0-18.4-9.4-27.7-28.3-27.7c-14.5,0-31.6,4.4-51.3,13.2l-16.4-33.5c20.9-11,44.2-16.4,69.7-16.4c24.4,0,43.1,5.3,56.2,16
			c13,10.6,19.5,26.8,19.5,48.5v121.3L2554.7,674.6z M2540.1,590.3l-19.2,0.7c-14.4,0.4-25.2,3-32.2,7.8c-7.1,4.8-10.6,12-10.6,21.8
			c0,14,8,21,24.1,21c11.5,0,20.7-3.3,27.5-9.9c6.9-6.6,10.4-15.4,10.4-26.4L2540.1,590.3z"/>
		<path id="path3015" class="st0" d="M2742,489.2c6.7,0,12.3,0.5,16.8,1.5l-3.7,46.5c-4-1.1-8.9-1.6-14.6-1.6
			c-15.8,0-28.2,4.1-37.1,12.2c-8.8,8.1-13.2,19.5-13.2,34.2v92.6h-49.6v-182h37.6l7.3,30.6h2.4c5.6-10.2,13.2-18.4,22.8-24.6
			C2720.3,492.4,2730.8,489.2,2742,489.2L2742,489.2z"/>
		<path id="path3017" class="st0" d="M2765.8,492.6h54.4l34.3,102.4c2.9,8.9,4.9,19.4,6,31.6h1c1.2-11.2,3.5-21.7,7-31.6l33.7-102.4
			h53.2l-77,205.2c-7.1,19-17.1,33.2-30.3,42.6c-13,9.4-28.3,14.2-45.7,14.2c-8.6,0-17-0.9-25.2-2.8v-39.4c6,1.4,12.5,2.1,19.5,2.1
			c8.8,0,16.4-2.7,22.9-8.1c6.6-5.3,11.8-13.4,15.5-24.3l2.9-9L2765.8,492.6z"/>
	</g>
</g>
<g id="g888" transform="matrix(7.7226132,0,0,7.7226132,-863.09589,337.19386)">
	<g id="SvgjsG1910" transform="matrix(1.3438337,0,0,1.3438337,116.35163,16.562202)">
	</g>
</g>
<g id="layer6" transform="translate(-106.10815,-166.81171)" inkscape:groupmode="layer" inkscape:label="logo">
	<g id="SvgjsG1909" transform="matrix(3.3723202,0,0,3.3723202,104.42127,165.12529)">
		<desc  id="desc852">Created with Sketch.</desc>
		<g id="g882">
			<g id="g880">
				<path id="path854" class="st0" d="M115,0.5C51.8,0.5,0.5,51.8,0.5,115S51.8,229.5,115,229.5c63.2-0.1,114.4-51.3,114.5-114.5
					C229.5,51.8,178.2,0.5,115,0.5z M115,5.5C175.4,5.6,224.4,54.6,224.5,115c0,60.5-49,109.5-109.5,109.5S5.5,175.5,5.5,115
					S54.5,5.5,115,5.5z"/>
				<path id="path856" class="st0" d="M115,216.9c-5.9,0-11.8-0.5-17.7-1.5c-0.9-0.1-1.7-0.7-2-1.6s-0.2-1.8,0.4-2.5s1.5-1,2.4-0.8
					c11.1,1.9,22.5,1.9,33.7,0c1.4-0.2,2.7,0.7,2.9,2c0.2,1.4-0.7,2.7-2,2.9C126.9,216.4,120.9,216.9,115,216.9L115,216.9z
					 M65.3,203.7c-0.4,0-0.9-0.1-1.2-0.3c-10.3-6-19.4-13.7-27.1-22.8c-0.9-1.1-0.8-2.6,0.3-3.5s2.6-0.8,3.5,0.3
					c7.3,8.7,16,16,25.7,21.6c1,0.6,1.4,1.7,1.2,2.8S66.5,203.7,65.3,203.7z M164.8,203.7c-1.1,0-2.1-0.8-2.4-1.8s0.2-2.3,1.2-2.8
					c9.8-5.7,18.5-13,25.8-21.6c0.6-0.7,1.5-1.1,2.4-0.9s1.6,0.8,2,1.6c0.3,0.9,0.1,1.8-0.5,2.5c-7.6,9.1-16.8,16.8-27.1,22.7
					C165.6,203.5,165.2,203.6,164.8,203.7L164.8,203.7z M21.6,151.7c-1.1,0-2-0.7-2.4-1.7c-4.1-11.2-6.2-23-6.2-34.9
					c0-0.7,0.3-1.3,0.7-1.8c0.5-0.5,1.1-0.7,1.8-0.7c1.4,0,2.5,1.1,2.5,2.5c0,11.3,2,22.5,5.9,33.1c0.5,1.3-0.2,2.7-1.5,3.2
					C22.1,151.6,21.9,151.6,21.6,151.7L21.6,151.7z M208.5,151.6c-0.3,0-0.6,0-0.9-0.1c-0.6-0.2-1.1-0.7-1.4-1.3
					c-0.3-0.6-0.3-1.3-0.1-1.9c3.9-10.6,5.8-21.9,5.8-33.2v-0.2c0-1.4,1.1-2.5,2.5-2.5s2.5,1.1,2.5,2.5v0.2
					c0,11.9-2.1,23.7-6.1,34.9C210.5,150.9,209.5,151.5,208.5,151.6L208.5,151.6z M21.5,83.6c-0.8,0-1.6-0.4-2.1-1.1
					c-0.5-0.7-0.6-1.5-0.3-2.3c4.1-11.2,10-21.6,17.7-30.7c0.9-1.1,2.5-1.2,3.5-0.3s1.2,2.5,0.3,3.5c-7.3,8.7-13,18.5-16.8,29.2
					C23.5,82.9,22.6,83.6,21.5,83.6L21.5,83.6z M208.4,83.3c-1.1,0-2-0.7-2.4-1.6c-3.9-10.6-9.6-20.5-16.9-29.1
					c-0.6-0.7-0.7-1.6-0.4-2.5c0.3-0.8,1-1.5,1.9-1.6s1.8,0.2,2.4,0.9c7.7,9.1,13.7,19.4,17.8,30.6c0.5,1.3-0.2,2.7-1.5,3.2
					C209,83.2,208.7,83.3,208.4,83.3L208.4,83.3z M65.2,31.4c-1.1,0-2.1-0.8-2.4-1.9c-0.3-1.1,0.2-2.2,1.2-2.8
					c10.3-6,21.5-10.1,33.2-12.2c0.9-0.2,1.8,0.2,2.4,0.9s0.7,1.6,0.4,2.5s-1,1.5-1.9,1.6c-11.1,2-21.8,5.9-31.6,11.6
					C66,31.3,65.6,31.4,65.2,31.4L65.2,31.4z M164.6,31.3c-0.4,0-0.9-0.1-1.2-0.3c-9.8-5.6-20.5-9.5-31.7-11.5
					c-1.3-0.3-2.1-1.6-1.9-2.9c0.2-1.3,1.5-2.2,2.8-2c11.7,2,23,6.1,33.3,12c1,0.6,1.5,1.7,1.2,2.8
					C166.7,30.5,165.7,31.2,164.6,31.3L164.6,31.3z"/>
				<path id="path858" class="st0" d="M115,203.7c-49,0-88.7-39.7-88.7-88.7S66,26.3,115,26.3S203.7,66,203.7,115
					C203.6,163.9,163.9,203.6,115,203.7L115,203.7z M115,31.3c-46.2,0-83.7,37.5-83.7,83.7s37.5,83.7,83.7,83.7s83.7-37.5,83.7-83.7
					C198.6,68.8,161.2,31.4,115,31.3L115,31.3z"/>
				<path id="path860" class="st0" d="M110.3,140c-0.2,0-0.4,0-0.6-0.1c-9.1-2.4-16.3-9.3-19.2-18.2s-1.1-18.7,4.9-26v-0.1
					c0.6-0.7,1.2-1.4,1.8-2l22.3-22.3c7-7,17.2-9.7,26.7-7.2c9.6,2.6,17,10,19.6,19.6c2.6,9.6-0.2,19.8-7.2,26.7l-22.3,22.3
					c-0.7,0.7-1.4,1.3-2.1,1.9c-1,0.8-2.4,0.7-3.3-0.2c-0.9-0.9-1-2.3-0.2-3.3c4.6-5.7,6.2-13.2,4.3-20.2c-0.2-0.9,0-1.8,0.6-2.4
					l10.5-10.5c3.8-4,3.7-10.2-0.2-14.1c-3.9-3.9-10.2-4-14.1-0.2l-22.3,22.3c-0.5,0.5-0.9,1-1.3,1.6c-2.6,4-2.1,9.3,1.3,12.7
					c3.4,3.4,8.7,3.9,12.7,1.3c1-0.6,2.3-0.5,3.1,0.3c0.8,0.8,1,2.1,0.3,3.1c-0.6,0.9-1.2,1.7-1.9,2.4l-11.8,11.8
					C111.6,139.8,110.9,140,110.3,140L110.3,140z M99.2,98.9c-4.7,5.8-6.2,13.5-4.1,20.6c2.1,7.1,7.5,12.8,14.5,15.2l6.4-6.4
					c-5.4-0.3-10.2-3.4-12.7-8.2c-2.4-4.8-2.1-10.6,0.9-15.1c0.6-0.9,1.2-1.7,1.9-2.4l22.3-22.2c5.9-5.9,15.5-5.9,21.4,0
					s5.9,15.5,0,21.4l-9.5,9.5c0.4,1.9,0.6,3.8,0.6,5.8c0,1.6-0.1,3.2-0.4,4.8l14.7-14.6c8.9-8.9,8.9-23.3,0-32.1
					c-8.9-8.9-23.3-8.9-32.1,0l-22.3,22.3C100.2,97.7,99.7,98.2,99.2,98.9L99.2,98.9z"/>
				<path id="path862" class="st0" d="M116.8,128.3c-5.6,0-10.7-3-13.3-7.9c-2.6-4.9-2.4-10.8,0.7-15.5c0.2-0.3,0.4-0.5,0.7-0.7
					c4.6-3,10.6-3.3,15.5-0.7c4.9,2.6,7.9,7.7,7.9,13.3c0,2.9-0.9,5.8-2.5,8.3c-0.2,0.3-0.4,0.5-0.7,0.7
					C122.6,127.4,119.8,128.3,116.8,128.3z M108.1,108.1c-2.3,4-1.7,9,1.6,12.2c3.2,3.2,8.3,3.9,12.2,1.6c0.9-1.6,1.4-3.3,1.4-5.1
					c0-3.6-1.9-7-5.1-8.8S111.2,106.3,108.1,108.1L108.1,108.1z"/>
				<path id="path864" class="st0" d="M137.5,112.8c-0.2,0-0.4,0-0.6-0.1c-0.9-0.2-1.5-0.9-1.8-1.8c-2.1-7.8-8.2-13.9-16-16
					c-0.9-0.2-1.5-0.9-1.7-1.8c-0.2-0.9,0-1.8,0.7-2.4l10.4-10.5c5.9-5.9,15.5-5.9,21.4,0s5.9,15.5,0,21.4l-10.5,10.4
					C138.8,112.5,138.2,112.8,137.5,112.8L137.5,112.8z M124.3,91.4c6.4,2.8,11.5,7.9,14.3,14.3l7.7-7.7c2.6-2.5,3.7-6.3,2.8-9.8
					s-3.7-6.3-7.2-7.2s-7.3,0.1-9.8,2.8L124.3,91.4z"/>
				<path id="path866" class="st0" d="M116.8,128.3c-5.6,0-10.7-3-13.3-7.9c-2.6-4.9-2.4-10.8,0.7-15.5c0.2-0.3,0.4-0.5,0.7-0.7
					c4.6-3,10.6-3.3,15.5-0.7c4.9,2.6,7.9,7.7,7.9,13.3c0,2.9-0.9,5.8-2.5,8.3c-0.2,0.3-0.4,0.5-0.7,0.7
					C122.6,127.4,119.8,128.3,116.8,128.3z M108.1,108.1c-2.3,4-1.7,9,1.6,12.2c3.2,3.2,8.3,3.9,12.2,1.6c0.9-1.6,1.4-3.3,1.4-5.1
					c0-3.6-1.9-7-5.1-8.8S111.2,106.3,108.1,108.1L108.1,108.1z"/>
				<path id="path868" class="st0" d="M137.5,112.8c-0.2,0-0.4,0-0.6-0.1c-0.9-0.2-1.5-0.9-1.8-1.8c-2.1-7.8-8.2-13.9-16-16
					c-0.9-0.2-1.5-0.9-1.7-1.8c-0.2-0.9,0-1.8,0.7-2.4l10.4-10.5c5.9-5.9,15.5-5.9,21.4,0s5.9,15.5,0,21.4l-10.5,10.4
					C138.8,112.5,138.2,112.8,137.5,112.8L137.5,112.8z M124.3,91.4c6.4,2.8,11.5,7.9,14.3,14.3l7.7-7.7c2.6-2.5,3.7-6.3,2.8-9.8
					s-3.7-6.3-7.2-7.2s-7.3,0.1-9.8,2.8L124.3,91.4z"/>
				<path id="path870" class="st0" d="M90.9,166.8c-11.2,0-21.3-6.7-25.6-17.1c-4.3-10.3-1.9-22.3,6-30.2l22.3-22.3
					c0.7-0.7,1.4-1.3,2.1-1.9c1-0.8,2.4-0.7,3.3,0.2s1,2.3,0.2,3.3c-4.6,5.7-6.2,13.2-4.3,20.2c0.2,0.9,0,1.8-0.6,2.4l-10.5,10.5
					c-3.8,4-3.7,10.2,0.2,14.1c3.9,3.9,10.2,4,14.1,0.2l22.3-22.2c0.5-0.5,0.9-1,1.3-1.6c1.1-1.7,1.6-3.6,1.7-5.6
					c0-3.7-2.1-7.1-5.3-8.9c-3.3-1.8-7.2-1.6-10.3,0.4c-1,0.6-2.3,0.5-3.1-0.3c-0.8-0.8-1-2.1-0.3-3.1c0.6-0.9,1.2-1.7,1.9-2.4
					L118,90.7c0.6-0.6,1.5-0.9,2.4-0.7c9.1,2.4,16.3,9.3,19.2,18.2c2.9,8.9,1.1,18.7-4.9,26v0.1c-0.6,0.7-1.2,1.4-1.8,2l-22.4,22.3
					C105.3,163.9,98.3,166.8,90.9,166.8L90.9,166.8z M89.6,108.4L74.9,123c-8.7,8.9-8.6,23.1,0.2,31.9s23,8.9,31.9,0.2l22.3-22.3
					c0.5-0.5,1-1.1,1.5-1.7l0.1-0.1c4.7-5.8,6.2-13.5,4.1-20.6c-2.1-7.1-7.5-12.8-14.5-15.2l-6.4,6.5c5.4,0.3,10.2,3.4,12.7,8.2
					c2.4,4.8,2.1,10.6-0.9,15.1c-0.6,0.9-1.2,1.7-1.9,2.4l-22.3,22.3c-5.9,5.9-15.5,5.9-21.4,0c-5.9-5.9-5.9-15.5,0-21.4l9.5-9.5
					C89,115.5,88.9,111.9,89.6,108.4L89.6,108.4z"/>
				<path id="path872" class="st0" d="M116.8,128.3c-5.6,0-10.7-3-13.3-7.9c-2.6-4.9-2.4-10.8,0.7-15.5c0.2-0.3,0.4-0.5,0.7-0.7
					c6-3.9,13.9-3.1,19,2c5.1,5.1,5.9,13,2,19c-0.2,0.3-0.4,0.5-0.7,0.7C122.6,127.4,119.8,128.3,116.8,128.3z M108.1,108.1
					c-2.3,4-1.7,9,1.6,12.2c3.2,3.2,8.3,3.9,12.2,1.6c0.9-1.6,1.4-3.3,1.4-5.1c0-3.6-2-6.9-5.1-8.7
					C115.1,106.3,111.2,106.3,108.1,108.1L108.1,108.1z"/>
				<path id="path874" class="st0" d="M90.9,154.2c-6.1,0-11.6-3.7-13.9-9.3c-2.3-5.6-1-12.1,3.3-16.5L90.7,118
					c0.6-0.6,1.6-0.9,2.4-0.7c0.9,0.2,1.5,0.9,1.8,1.8c2.1,7.8,8.2,13.9,16,16c0.9,0.2,1.5,0.9,1.8,1.8c0.2,0.9,0,1.8-0.6,2.4
					l-10.4,10.4C98.8,152.6,94.9,154.2,90.9,154.2L90.9,154.2z M91.4,124.3l-7.7,7.6c-3.8,4-3.7,10.2,0.2,14.1
					c3.9,3.9,10.2,4,14.1,0.2l7.7-7.7C99.3,135.8,94.2,130.7,91.4,124.3L91.4,124.3z"/>
				<path id="path876" class="st0" d="M116.8,128.3c-5.6,0-10.7-3-13.3-7.9c-2.6-4.9-2.4-10.8,0.7-15.5c0.2-0.3,0.4-0.5,0.7-0.7
					c6-3.9,13.9-3.1,19,2c5.1,5.1,5.9,13,2,19c-0.2,0.3-0.4,0.5-0.7,0.7C122.6,127.4,119.8,128.3,116.8,128.3z M108.1,108.1
					c-2.3,4-1.7,9,1.6,12.2c3.2,3.2,8.3,3.9,12.2,1.6c0.9-1.6,1.4-3.3,1.4-5.1c0-3.6-2-6.9-5.1-8.7
					C115.1,106.3,111.2,106.3,108.1,108.1L108.1,108.1z"/>
				<path id="path878" class="st0" d="M90.9,154.2c-6.1,0-11.6-3.7-13.9-9.3c-2.3-5.6-1-12.1,3.3-16.5L90.7,118
					c0.6-0.6,1.6-0.9,2.4-0.7c0.9,0.2,1.5,0.9,1.8,1.8c2.1,7.8,8.2,13.9,16,16c0.9,0.2,1.5,0.9,1.8,1.8c0.2,0.9,0,1.8-0.6,2.4
					l-10.4,10.4C98.8,152.6,94.9,154.2,90.9,154.2L90.9,154.2z M91.4,124.3l-7.7,7.6c-3.8,4-3.7,10.2,0.2,14.1
					c3.9,3.9,10.2,4,14.1,0.2l7.7-7.7C99.3,135.8,94.2,130.7,91.4,124.3L91.4,124.3z"/>
			</g>
		</g>
	</g>
</g>
</svg>
