<svg xmlns="http://www.w3.org/2000/svg" viewBox="0 0 1148 331.64"><title>CS Logo</title><g id="Layer_2" data-name="Layer 2"><g id="Layer_4" data-name="Layer 4"><path d="M1148,88c-1.64,3-4.2,3.54-7.42,3.49-10.63-.17-21.26,0-31.88-.11-1.87,0-2.33.42-2.33,2.31q.11,56.22.05,112.43c0,4.69-1.74,6.41-6.4,6.42h-27.63c-5.53,0-7.14-1.58-7.14-7q0-55.8,0-111.58c0-2-.45-2.58-2.52-2.56-10.91.12-21.82.05-32.73.05-4.62,0-6.22-1.6-6.22-6.28q0-12.23,0-24.44c0-4.09,1.56-5.66,5.64-5.67h58.44c18,0,36,0,54,0,2.75,0,4.83.75,6.11,3.25Z" style="fill:#231f20"/><path d="M389.33,143a4.18,4.18,0,0,0,.21-2.28q0-40,0-79.92c0-4.19,1.55-5.71,5.78-5.72h28.49c4.41,0,5.87,1.47,5.87,5.86V207.13c0,4.16-1.25,5.41-5.47,5.42-10.2,0-20.41-.17-30.61.09-3.74.09-6-1.4-7.75-4.38q-9.84-16.38-19.77-32.72Q349,147.28,331.87,119c-.25-.4-.51-.78-1.09-1.67,0,1.26-.12,2-.12,2.72q0,43.14,0,86.3a20.88,20.88,0,0,1-.16,2.74,3.37,3.37,0,0,1-3.13,3.22,19.6,19.6,0,0,1-2.53.2q-14.15,0-28.27,0c-4.35,0-5.73-1.39-5.73-5.72v-146c0-4.4,1.34-5.77,5.64-5.77,10.92,0,21.83.07,32.74,0a8,8,0,0,1,7.51,4.18q25.54,41,51.19,82C388.3,141.78,388.52,142.58,389.33,143Z" style="fill:#231f20"/><path d="M597,134V60.83c0-4.51,1.29-5.79,5.82-5.79h68.22c30.49,0,54.69,26.83,51.22,57.06-1.86,16.3-10.43,28.6-24.08,37.44-1.47,1-1.64,1.56-.83,3.07q14.19,26.49,28.25,53a7.69,7.69,0,0,1,1,2.79,3.19,3.19,0,0,1-2.72,3.88,12.58,12.58,0,0,1-2.74.23c-10.84,0-21.68-.1-32.52.07-4,.06-6.4-1.1-8.3-5-5.11-10.42-10.78-20.56-16.23-30.81-2.66-5-5.35-10-7.93-15a2.63,2.63,0,0,0-2.75-1.71c-4.39.11-8.78.12-13.17,0-1.66,0-2.12.41-2.11,2.1.07,14.87,0,29.75,0,44.63,0,4.38-1.3,5.68-5.71,5.69H602.72c-4.4,0-5.69-1.31-5.69-5.7V134Zm41.15-27v17.64c0,.92-.18,1.84,1.31,1.8,7.85-.21,15.71.36,23.56-.37,8.47-.78,14.25-5.82,16.36-14,3-11.72-6-23.86-17.64-24.14-7.29-.18-14.58-.18-21.86-.34-1.41,0-1.78.39-1.76,1.77C638.22,95.16,638.18,101,638.18,106.91Z" style="fill:#231f20"/><path d="M752.76,212.55H738.52a12.45,12.45,0,0,1-2.12-.11c-3-.49-3.86-1.92-2.76-4.76q5.82-15.15,11.69-30.3,22.78-59,45.56-118a6.48,6.48,0,0,1,6.2-4.3c8.86,0,17.72,0,26.58,0,3,0,4.68,1.74,5.77,4.22,4.29,9.72,7.9,19.71,11.74,29.6Q864,147.54,886.69,206.23a14.59,14.59,0,0,1,.74,2.2,2.89,2.89,0,0,1-2.2,3.75,10.43,10.43,0,0,1-3.15.38H853.17c-4.26,0-5.49-.85-7-4.79-2.42-6.34-4.85-12.68-7.17-19.06a2.19,2.19,0,0,0-2.45-1.68q-26.27.06-52.51,0a2.3,2.3,0,0,0-2.57,1.81c-2.31,6.32-4.72,12.59-7.11,18.87-1.49,3.94-2.81,4.86-7,4.86Zm57.48-107.16a3.41,3.41,0,0,0-.29.51c-5.11,15.21-10.19,30.42-15.35,45.6-.53,1.54.2,1.43,1.22,1.42,9.56,0,19.11,0,28.66,0,1.5,0,2-.17,1.41-1.85-4.95-14.59-9.8-29.22-14.71-43.82C811,106.64,811,105.85,810.24,105.39Z" style="fill:#231f20"/><path d="M953.75,51.56c16.39-.17,33.16,6.13,47.42,19,5.65,5.08,5.65,7.09.53,12.58C996.82,88.34,992,93.57,987,98.74c-3.15,3.31-5.06,3.39-8.57.42-4.28-3.62-8.58-7.16-13.7-9.59a27.26,27.26,0,0,0-21.84-1.16c-4.82,1.77-6.93,5.11-6.66,9.92.17,3,1.79,5.16,4,6.92a34.7,34.7,0,0,0,9.79,5c10.32,3.7,20.81,7,30.87,11.36a67.94,67.94,0,0,1,16.33,9.82c11.27,9.35,15.28,21.65,14,35.83-2,21.89-14.92,35.46-34.75,42.65-24.13,8.75-47,5.14-68.55-8.62a85.93,85.93,0,0,1-17.62-15.55c-2.54-2.84-2.49-4.65.25-7.31q8.85-8.56,17.83-17c3.48-3.27,5.11-3.29,8.8-.15,5.34,4.56,10.6,9.17,16.87,12.47,7.63,4,15.58,5.49,24,3.47,7-1.66,10.81-6.44,10.92-13.29a8.61,8.61,0,0,0-2.5-6.33c-3.4-3.59-7.66-5.8-12.2-7.49-8.68-3.24-17.51-6.1-25.86-10.2-8.05-4-15.5-8.71-21.86-15.17-16.58-16.86-17.4-52.49,12.77-66.57C929.39,53.48,940,51.64,953.75,51.56Z" style="fill:#231f20"/><path d="M492.77,150.31c0-18.84,0-37.69.05-56.53,0-2-.59-2.4-2.46-2.39-11.05.09-22.1,0-33.15,0-4.23,0-5.88-1.66-5.89-6q0-12.54,0-25.08c0-3.68,1.64-5.35,5.3-5.35H569.89c3.94,0,5.66,1.77,5.67,5.75q0,12.23,0,24.44c0,4.28-1.95,6.19-6.24,6.19-11.13,0-22.25,0-33.37,0-1.71,0-2.06.5-2.06,2.12q.06,56.2,0,112.42c0,4.95-1.66,6.62-6.63,6.62h-28c-4.68,0-6.47-1.75-6.47-6.34Z" style="fill:#231f20"/><path d="M408.18,331.64c-4.11-.94-8.29-1.64-12.17-3.41a43.73,43.73,0,0,1-10.26-6.33,1.72,1.72,0,0,1-.52-2.52c1.23-2.31,2.41-4.66,3.51-7,.61-1.33,1.15-1.21,2.17-.36a35.54,35.54,0,0,0,17.8,8.42,21.28,21.28,0,0,0,11.49-1c5.47-2.24,6.63-8.33,2.3-12.38-2.45-2.3-5.61-3.24-8.7-4.24-5.25-1.69-10.63-2.92-15.62-5.4-9.77-4.84-11.5-14.87-8.14-22.69,2.58-6,7.78-9.07,13.85-10.55,11.2-2.73,21.74-.64,31.71,4.93,1.08.6,1.35,1.24.77,2.39-1.16,2.27-2.27,4.56-3.25,6.91-.64,1.53-1.36,1.59-2.72.82-6.08-3.42-12.52-5.6-19.61-5.31a14.29,14.29,0,0,0-4.75,1c-5.41,2.16-6.28,8.2-1.7,11.84a22.89,22.89,0,0,0,6.82,3.38c4.6,1.62,9.39,2.72,13.89,4.64,5.07,2.16,9.58,5,11.65,10.49,3.8,10.06-1.19,20.36-11.67,24.3-2.72,1-5.59,1.35-8.35,2.15Z" style="fill:#959698"/><path d="M713.46,331.64c-1.56-.39-3.12-.77-4.67-1.17-11.4-3-19.17-12.14-19.46-23.89-.33-13.8-.11-27.62-.18-41.43,0-1.38.57-1.65,1.78-1.62,2.48.06,5,.13,7.43,0,1.85-.11,2.41.42,2.4,2.34-.09,12.53,0,25.07-.06,37.61a21,21,0,0,0,.88,6.06c2,6.57,6.52,10.25,13.14,11.47a21.06,21.06,0,0,0,10.68-.66c7.14-2.41,11.05-8.16,11.08-16.32,0-12.53,0-25.07,0-37.6,0-2.85,0-2.86,2.85-2.86,2.27,0,4.53.06,6.8,0,1.34,0,1.87.34,1.87,1.78,0,13.53.15,27.06-.11,40.58s-9.55,23.59-23.08,25.37c-.42.05-.86,0-1.16.39Z" style="fill:#959698"/><path d="M611.42,331.64c-2-.52-3.93-1-5.87-1.58A34.05,34.05,0,0,1,608.91,264c12.05-2.38,22.71.5,32.23,8.12,1.21,1,1.66,1.72.45,3.06-1.6,1.79-3.11,3.68-4.53,5.62-.81,1.1-1.29,1.05-2.26.13a27,27,0,0,0-14.38-7.21,23.76,23.76,0,1,0-2.9,47.23,27,27,0,0,0,17-6.78c1.16-1,1.82-.93,2.74.17a54.71,54.71,0,0,0,4.28,4.72c1.25,1.18.92,1.93-.19,2.9a39,39,0,0,1-19,9.26c-.41.08-.86,0-1.13.44Z" style="fill:#959698"/><path d="M856.58,331.21c-4.41,0-8.3,0-12.19,0-1,0-1.3-.63-1.71-1.3-3.55-5.88-7.13-11.74-10.64-17.65a2.65,2.65,0,0,0-2.7-1.48q-7.65.13-15.3,0c-1.62,0-2,.49-2,2.06.09,5.45,0,10.91.07,16.36,0,1.6-.43,2.1-2,2-2.54-.13-5.1-.12-7.64,0-1.54.07-1.9-.52-1.89-2,.07-6.59,0-13.17,0-19.76,0-14.53,0-29-.05-43.57,0-2,.6-2.48,2.51-2.46,8.93.09,17.86,0,26.78,0a32.31,32.31,0,0,1,12.83,2.57c10.13,4.32,13.41,13.41,12.64,23a23.9,23.9,0,0,1-3.49,11.23,19.31,19.31,0,0,1-8.36,7.3c-1.73.79-1.76,1.48-.75,2.95,4.15,6,8.18,12.08,12.25,18.13C855.39,329.4,855.84,330.1,856.58,331.21Zm-44.51-44.13c0,4,0,7.93,0,11.89,0,1,.16,1.61,1.37,1.58,6.42-.16,12.87.36,19.28-.41,7.09-.86,11.6-5.74,11.69-12.55.1-7.68-3.75-12.27-11.31-13.35-6.55-.94-13.14-.22-19.71-.44-1.25-.05-1.33.66-1.32,1.61C812.08,279.3,812.07,283.19,812.07,287.08Z" style="fill:#959698"/><path d="M487.28,297.31c0-10.56,0-21.11,0-31.67,0-1.71.5-2.14,2.16-2.13q22.11.09,44.21,0c1.63,0,2.29.38,2.16,2.11a36.54,36.54,0,0,0,0,5.73c.15,1.9-.39,2.52-2.41,2.5-10.7-.1-21.4,0-32.1-.1-2.09,0-2.61.62-2.54,2.63.15,4.38.12,8.78,0,13.17-.05,1.74.43,2.31,2.23,2.29,9.5-.08,19,0,28.48-.08,2,0,2.67.53,2.5,2.51a39.39,39.39,0,0,0,0,6c.12,1.67-.42,2.16-2.12,2.14-9.56-.08-19.13,0-28.69-.08-1.79,0-2.48.34-2.41,2.31.15,4.67.12,9.35,0,14,0,1.74.56,2.13,2.19,2.12,11.19-.06,22.38,0,33.58-.07,1.92,0,2.68.46,2.52,2.47a52.23,52.23,0,0,0,0,6.38c0,1.24-.3,1.74-1.65,1.73q-23.18-.06-46.34,0c-1.68,0-1.76-.77-1.75-2.06Q487.31,313.25,487.28,297.31Z" style="fill:#959698"/><path d="M1086.35,296.24c5.85-10.18,11.51-19.9,17-29.72,1.2-2.14,2.44-3.35,5.06-3a48.14,48.14,0,0,0,6.58,0c1.36,0,1.85.24,1.06,1.67-7.64,13.81-15.23,27.65-22.88,41.46a7.47,7.47,0,0,0-1,3.82c0,6.23,0,12.47,0,18.7,0,1.51-.3,2.17-2,2.08a74.88,74.88,0,0,0-7.64,0c-1.5.06-1.93-.44-1.92-1.92.08-5.95,0-11.9.06-17.85a8.53,8.53,0,0,0-1.17-4.42q-11.37-20.4-22.69-40.84c-.24-.43-.46-.88-.71-1.3-.58-1-.38-1.4.8-1.39,3,0,6,.08,8.92,0,1.41,0,1.79,1,2.31,1.84q7.47,12.72,14.93,25.47C1084.13,292.52,1085.14,294.2,1086.35,296.24Z" style="fill:#959698"/><path d="M997,302.57c0,8.85,0,17.71,0,26.56,0,1.69-.47,2.22-2.15,2.12a60,60,0,0,0-7.22,0c-1.87.12-2.4-.5-2.4-2.38.07-16.21,0-32.43,0-48.65,0-1.49-.1-3,0-4.46.15-1.65-.54-2-2.07-2-5.74.08-11.48,0-17.21.07-1.71,0-2.23-.49-2.12-2.16.13-2.18.08-4.39,0-6.58,0-1.22.45-1.58,1.62-1.57q25.61,0,51.21,0c1.19,0,1.63.41,1.6,1.6-.07,2.27-.11,4.54,0,6.8.07,1.53-.5,1.92-2,1.9-5.74-.07-11.48,0-17.21-.06-1.76,0-2.28.46-2.27,2.24C997,284.86,997,293.72,997,302.57Z" style="fill:#959698"/><path d="M906.59,297.43c0-10.55,0-21.1,0-31.65,0-1.74.43-2.38,2.24-2.28,2.54.15,5.1.1,7.65,0,1.33,0,1.87.32,1.86,1.77q0,32.07,0,64.15c0,1.36-.37,1.87-1.8,1.81-2.68-.11-5.38-.12-8.07,0-1.55.07-1.87-.53-1.86-2C906.62,318.67,906.59,308.05,906.59,297.43Z" style="fill:#959698"/><path d="M182.3,193.7c0-3.9,0-7.79,0-11.69a15.43,15.43,0,0,1,.43-4c1-3.75,3.23-5.59,7.12-5.84a49.84,49.84,0,0,0,20-5.35c12.46-6.43,18.48-17.06,18.91-30.75s-3.7-25.6-14.77-34.34c-6.15-4.85-13.36-7-21.17-7.16a31.93,31.93,0,0,1-3.39-.17c-4.65-.61-7-3.3-7.07-8q-.06-12.22,0-24.45c0-5.91,3-8.78,9-8.81,21.49-.08,40.59,6.37,56.47,21.11,14.35,13.32,23,29.89,25.12,49.3,2.92,27-5,50.6-25,69.47-11.79,11.12-26,17.7-42,20.44a75.39,75.39,0,0,1-14.39,1c-6.33-.12-9.2-3-9.2-9.27Z" style="fill:#231f20"/><path d="M0,124.15c1.16-3.1,1.3-6.43,2.08-9.63A79.54,79.54,0,0,1,67.47,54.31a90.58,90.58,0,0,1,14-1.1H121c6.63,0,9.59,2.38,9.8,9,.26,8.41.43,16.85-.15,25.26-.27,4-2.42,6.23-6.26,6.91a27.88,27.88,0,0,1-4.65.39c-13.67,0-27.35-.31-41,.15C64,95.4,54,103.24,48.37,116.53c-5.1,12-5.62,24.26.59,36.1,4.8,9.15,11.54,16.3,22.23,18.52A57.76,57.76,0,0,0,83,172.24q19.14,0,38.26,0c6.11,0,9.34,2.58,9.49,8.63.23,8.84.46,17.71-.16,26.54-.32,4.49-3.13,7-7.78,7-12.89.05-25.79-.15-38.68.07-10.86.19-21.5-.78-31.71-4.65-19.14-7.27-33.33-20.3-43.26-38-5-8.94-7.47-18.74-8.71-28.87-.06-.46.12-1-.45-1.31Z" style="fill:#4bc1b1"/><path d="M161.57,0q0,94.46,0,188.92,0,35.82,0,71.62c0,1.9-.42,2.72-2.45,2.55a44,44,0,0,0-5.74,0c-1.42.07-2.18-.35-2-1.9a12.18,12.18,0,0,0,0-1.48V2.76c0-.92-.06-1.84-.09-2.76Z" style="fill:#959698"/></g></g></svg>