<?xml version="1.0" encoding="UTF-8" standalone="no"?>
<!DOCTYPE svg PUBLIC "-//W3C//DTD SVG 1.1//EN" "http://www.w3.org/Graphics/SVG/1.1/DTD/svg11.dtd">
<svg width="100%" height="100%" viewBox="0 0 300 34" version="1.1" xmlns="http://www.w3.org/2000/svg" xmlns:xlink="http://www.w3.org/1999/xlink" xml:space="preserve" xmlns:serif="http://www.serif.com/" style="fill-rule:evenodd;clip-rule:evenodd;stroke-linejoin:round;stroke-miterlimit:2;">
    <path d="M117.027,22.965C115.469,21.405 114.678,19.42 114.678,16.98C114.678,14.515 115.469,12.491 117.066,10.906C118.663,9.298 120.586,8.506 122.85,8.506C124.276,8.506 125.602,8.834 126.819,9.498C128.036,10.162 128.998,11.018 129.657,12.099L128.16,13.355C126.904,11.595 125.028,10.49 122.873,10.49C121.144,10.49 119.694,11.106 118.5,12.339C117.306,13.571 116.709,15.131 116.709,17.004C116.709,18.852 117.283,20.372 118.462,21.565C119.632,22.757 121.105,23.349 122.857,23.349C125.075,23.349 126.866,22.405 128.253,20.532L129.703,21.789C128.23,23.901 125.672,25.309 122.795,25.309C120.524,25.301 118.601,24.533 117.027,22.965Z" style="fill-rule:nonzero;"/>
    <path d="M154.132,8.786L148.736,19.156L148.736,25.053L146.774,25.053L146.774,19.156L141.44,8.786L143.619,8.786L147.759,17.196L151.961,8.786L154.132,8.786Z" style="fill-rule:nonzero;"/>
    <path d="M178.165,20.388C178.165,21.645 177.739,22.741 176.886,23.669C176.033,24.597 174.839,25.053 173.304,25.053L166.908,25.053L166.908,8.786L173.033,8.786C174.374,8.786 175.444,9.202 176.188,10.018C176.956,10.834 177.343,11.778 177.343,12.859C177.343,14.331 176.514,15.651 175.211,16.163C177.095,16.716 178.165,18.428 178.165,20.388ZM168.87,10.73L168.87,15.395L172.731,15.395C174.351,15.395 175.312,14.275 175.312,12.955C175.312,11.746 174.351,10.73 172.793,10.73L168.87,10.73ZM173.002,23.117C173.963,23.117 174.707,22.829 175.266,22.261C175.839,21.685 176.118,21.029 176.118,20.26C176.118,18.652 174.963,17.308 172.901,17.308L168.87,17.308L168.87,23.117L173.002,23.117Z" style="fill-rule:nonzero;"/>
    <path d="M190.407,25.061L190.407,8.786L200.067,8.786L200.067,10.722L192.369,10.722L192.369,15.811L199.493,15.811L199.493,17.748L192.369,17.748L192.369,23.117L200.09,23.117L200.09,25.053L190.407,25.053L190.407,25.061Z" style="fill-rule:nonzero;"/>
    <path d="M213.875,25.061L213.875,8.786L215.836,8.786L215.836,23.077L224.372,23.077L224.372,25.061L213.875,25.061Z" style="fill-rule:nonzero;"/>
    <path d="M237.079,25.061L237.079,8.786L239.04,8.786L239.04,23.077L247.576,23.077L247.576,25.061L237.079,25.061Z" style="fill-rule:nonzero;"/>
    <path d="M259.849,8.786L261.81,8.786L261.81,19.22C261.81,21.885 263.136,23.333 265.5,23.333C267.803,23.333 269.144,21.789 269.144,19.22L269.144,8.786L271.129,8.786L271.129,19.644C271.129,21.405 270.617,22.789 269.594,23.829C268.57,24.845 267.206,25.349 265.5,25.349C263.795,25.349 262.43,24.845 261.384,23.829C260.36,22.797 259.849,21.405 259.849,19.644L259.849,8.786Z" style="fill-rule:nonzero;"/>
    <path d="M284.518,25.061L284.518,8.786L285.37,8.786L292.278,19.268L299.124,8.786L300,8.786L300,25.053L298.015,25.053L298.015,13.811L292.487,22.221L291.999,22.221L286.471,13.811L286.471,25.061L284.518,25.061Z" style="fill-rule:nonzero;"/>
    <path d="M34.29,33.319L51.788,0.528L55.44,0.528L37.949,33.319L34.29,33.319Z" style="fill:rgb(178,153,106);fill-rule:nonzero;"/>
    <path d="M4.729,29.15C1.589,25.997 0,22.005 0,17.084C0,12.115 1.589,8.034 4.814,4.833C8.04,1.592 11.908,0 16.467,0C19.351,0 22.01,0.664 24.46,2C26.91,3.329 28.848,5.065 30.174,7.234L27.166,9.762C24.631,6.209 20.847,3.993 16.506,3.993C13.025,3.993 10.102,5.233 7.691,7.722C5.28,10.202 4.078,13.355 4.078,17.132C4.078,20.86 5.241,23.925 7.605,26.318C9.97,28.71 12.939,29.91 16.459,29.91C20.932,29.91 24.538,28.006 27.336,24.229L30.259,26.758C27.29,31.015 22.134,33.855 16.327,33.855C11.776,33.855 7.908,32.303 4.729,29.15Z" style="fill-rule:nonzero;"/>
    <path d="M73.046,33.855C67.239,33.855 62.084,31.015 59.114,26.758L62.037,24.229C64.836,27.998 68.441,29.91 72.914,29.91C76.442,29.91 79.403,28.71 81.768,26.318C84.132,23.925 85.295,20.86 85.295,17.132C85.295,13.363 84.094,10.21 81.683,7.722C79.279,5.233 76.349,3.993 72.868,3.993C68.526,3.993 64.743,6.209 62.208,9.762L59.2,7.234C60.533,5.057 62.463,3.329 64.913,2C67.363,0.672 70.03,0 72.906,0C77.465,0 81.334,1.6 84.559,4.833C87.784,8.026 89.373,12.107 89.373,17.084C89.373,22.013 87.784,26.006 84.644,29.15C81.473,32.303 77.605,33.855 73.046,33.855Z" style="fill-rule:nonzero;"/>
</svg>
