<?xml version="1.0" encoding="UTF-8" standalone="no"?>
<!DOCTYPE svg PUBLIC "-//W3C//DTD SVG 1.1//EN" "http://www.w3.org/Graphics/SVG/1.1/DTD/svg11.dtd">
<svg width="100%" height="100%" viewBox="0 0 304 76" version="1.1" xmlns="http://www.w3.org/2000/svg" xmlns:xlink="http://www.w3.org/1999/xlink" xml:space="preserve" xmlns:serif="http://www.serif.com/" style="fill-rule:evenodd;clip-rule:evenodd;stroke-linejoin:round;stroke-miterlimit:2;">
    <g transform="matrix(1,0,0,1,-17.1172,-18.0741)">
        <path d="M46.14,18.14C57.09,17.57 67.94,20.75 77.61,25.7C78.74,28.65 78.7,31.9 79.15,35C79.75,43.6 80.46,52.3 79.3,60.88C76.92,72.79 69.94,84.2 59.05,90.06C54.58,92.44 49.27,95.32 44.2,92.93C28.21,87.48 17.66,71.14 17.15,54.58C16.95,45.01 17.67,35.41 19.18,25.97C27.42,21.49 36.73,18.58 46.14,18.14M42.55,20.78C35.22,21.78 28.03,24.07 21.43,27.41C20.28,31.15 20.42,35.12 19.91,38.97C19.1,49.33 18.41,60.3 23.08,69.93C27.19,79.89 35.78,87.69 46.01,91.01C49.43,92.52 52.89,90.26 56,88.98C69.52,82.65 77.66,67.64 77.71,53C77.68,44.46 77.39,35.79 75.65,27.43C65.51,22.31 53.94,19.38 42.55,20.78Z" style="fill:#b70404;fill-rule:nonzero;"/>
    </g>
    <g transform="matrix(1,0,0,1,-17.1172,-18.0741)">
        <path d="M227.86,36.33C237.62,36.23 247.38,36.3 257.14,36.29C257.13,38.34 257.13,40.39 257.13,42.44C253.37,42.45 249.62,42.44 245.86,42.46C245.88,52.45 245.84,62.43 245.89,72.42C243.68,72.41 241.48,72.43 239.28,72.43C239.32,62.44 239.27,52.45 239.31,42.45C235.49,42.45 231.68,42.46 227.86,42.42L227.86,36.33Z" style="fill:#b70404;fill-rule:nonzero;"/>
    </g>
    <g transform="matrix(1,0,0,1,-17.1172,-18.0741)">
        <path d="M307.05,40.49C309.11,40.2 311.16,39.89 313.22,39.6C313.21,41.98 313.19,44.35 313.16,46.73C315.5,46.85 317.84,47.02 320.19,47.21C320.17,48.95 320.16,50.68 320.16,52.42C317.83,52.43 315.49,52.43 313.16,52.43C313.27,56.58 312.91,60.76 313.38,64.89C314.03,67.73 317.58,66.56 319.62,66.64C320.1,68.44 320.58,70.25 320.98,72.08C316.56,72.89 310.62,73.56 308.18,68.78C306.1,63.64 307.48,57.86 307.11,52.46C305.51,52.45 303.91,52.44 302.31,52.43C302.33,50.57 302.36,48.71 302.4,46.84C303.97,46.83 305.54,46.82 307.12,46.81C307.1,44.7 307.08,42.59 307.05,40.49Z" style="fill:#b70404;fill-rule:nonzero;"/>
    </g>
    <g transform="matrix(1,0,0,1,-17.1172,-18.0741)">
        <path d="M254.16,52.24C258.51,44.42 271.7,43.86 276.43,51.57C278.35,54.6 278.32,58.33 278.41,61.79C271.68,61.86 264.95,61.76 258.22,61.86C259.41,63.88 260.63,66.29 263.13,66.9C266.55,68.23 270.05,66.6 273.14,65.17C274.42,66.48 275.69,67.8 276.97,69.12C272.17,73.08 265.27,74.01 259.52,71.81C252.31,68.57 250.47,58.73 254.16,52.24M258.33,56.54C263.19,56.75 268.07,56.83 272.93,56.46C271.43,53.98 269.21,51.46 266.01,51.68C262.57,51.36 260.05,53.9 258.33,56.54Z" style="fill:#b70404;fill-rule:nonzero;"/>
    </g>
    <g transform="matrix(1,0,0,1,-17.1172,-18.0741)">
        <path d="M283.25,48.17C288.51,44.9 295.37,46 300.4,49.2C299.31,50.63 298.2,52.04 297.09,53.45C294.11,51.92 290.38,50.39 287.18,52.17C285.55,52.61 286.17,54.22 286.52,55.39C290.44,57.83 295.98,56.07 299.45,59.55C303.12,63.25 301.48,69.93 296.85,72.01C290.97,74.56 283.83,73.22 279.07,69C280.03,67.47 281,65.94 281.97,64.41C285.85,67.46 292.59,69.89 296.06,64.98C292.94,60.75 286.98,62.76 283.04,59.92C278.9,57.52 279.09,50.46 283.25,48.17Z" style="fill:#b70404;fill-rule:nonzero;"/>
    </g>
    <g transform="matrix(1,0,0,1,-17.1172,-18.0741)">
        <path d="M23.36,29.4C31.16,25.98 39.42,22.97 48.06,23.14C57.06,22.83 65.73,25.8 73.82,29.48C75.17,42.59 77.82,56.72 71.91,69.14C67.78,78.71 59.12,86.3 48.94,88.73C33.61,86.04 22.76,71.01 21.68,55.96C21.28,47.08 22,38.17 23.36,29.4M42.74,66.68C38.18,62.44 33.68,58.11 28.89,54.12C33.43,61.67 38.18,69.1 42.83,76.59C52.32,62.94 62.31,49.62 71.51,35.78C61.72,45.88 52.4,56.45 42.74,66.68Z" style="fill:#2257ac;fill-rule:nonzero;"/>
    </g>
    <g transform="matrix(1,0,0,1,-17.1172,-18.0741)">
        <path d="M100.71,37.71C108.08,33.61 117.64,35.07 123.66,40.89C122.09,42.47 120.55,44.1 118.85,45.54C114.88,43.52 110.2,42.06 105.83,43.86C97.78,47.16 97.05,60.16 104.53,64.48C109.3,67.17 115.18,65.62 119.42,62.61C120.99,64.47 122.59,66.31 124.2,68.14C117.06,74.61 105.26,75.16 97.64,69.29C88.38,61.12 89.8,43.81 100.71,37.71Z" style="fill:#2257ac;fill-rule:nonzero;"/>
    </g>
    <g transform="matrix(1,0,0,1,-17.1172,-18.0741)">
        <path d="M151.86,36.35C154.34,36.34 156.81,36.33 159.29,36.33C159.27,40.75 159.34,45.17 159.17,49.59C164.26,44.59 173.53,45.5 177.38,51.56C181,57.61 180.22,66.89 174,70.99C169.31,74.06 162.58,73.33 158.67,69.29C158.63,70.07 158.56,71.64 158.52,72.43C156.3,72.42 154.09,72.41 151.87,72.4C151.86,60.38 151.9,48.37 151.86,36.35M163.43,53.55C158.68,55.06 157.78,62.4 161.96,65.05C165.56,67.64 171.66,65.81 172.05,61.02C173.47,56.08 168.17,51.28 163.43,53.55Z" style="fill:#2257ac;fill-rule:nonzero;"/>
    </g>
    <g transform="matrix(1,0,0,1,-17.1172,-18.0741)">
        <path d="M182.14,53.1C185.98,44.63 199.55,43.74 204.86,51.14C207.13,54.24 206.77,58.23 206.76,61.84C200.38,62.47 193.96,61.84 187.57,62.37C189.11,64 190.58,66.09 193,66.36C196.04,67.01 199.02,65.87 201.84,64.85C203.14,66.36 204.45,67.87 205.75,69.38C200.85,73.21 193.98,73.8 188.24,71.77C181.15,68.93 179.07,59.59 182.14,53.1M187.61,56.45C191.97,56.72 196.36,56.73 200.73,56.45C199.12,54.31 196.96,52.05 193.99,52.54C191.15,52.18 189.37,54.68 187.61,56.45Z" style="fill:#2257ac;fill-rule:nonzero;"/>
    </g>
    <g transform="matrix(1,0,0,1,-17.1172,-18.0741)">
        <path d="M216.36,49.37C219.92,45.75 225.48,45.43 229.57,48.35C228.6,50.27 227.61,52.18 226.62,54.09C223.18,52.75 218.08,52.79 216.83,57.06C216.2,62.15 216.71,67.31 216.58,72.43C214.16,72.42 211.74,72.42 209.32,72.43C209.37,63.89 209.32,55.35 209.35,46.81C211.63,46.81 213.92,46.82 216.2,46.82C216.24,47.46 216.32,48.73 216.36,49.37Z" style="fill:#2257ac;fill-rule:nonzero;"/>
    </g>
    <g transform="matrix(1,0,0,1,-17.1172,-18.0741)">
        <path d="M122.04,46.8C124.77,46.79 127.51,46.79 130.24,46.78C132.33,52.13 134.34,57.52 136.54,62.82C138.59,57.48 140.58,52.11 142.67,46.78C145.33,46.79 147.99,46.79 150.65,46.8C145.6,59.14 140.46,71.43 135.35,83.74C132.69,83.75 130.03,83.75 127.38,83.77C128.9,80.16 130.54,76.6 131.97,72.96C132.93,71.51 131.77,70.01 131.33,68.63C128.21,61.37 125.14,54.08 122.04,46.8Z" style="fill:#2257ac;fill-rule:nonzero;"/>
    </g>
</svg>
