<svg xmlns="http://www.w3.org/2000/svg" data-name="Layer 1" viewBox="0 0 1142.765 180.097"><g fill="#0d1840"><path d="M273.536 123.54h-85.834q.67 13.975 7.096 20.075 6.436 6.1 16.419 6.1 8.426 0 13.969-4.217a19.686 19.686 0 0 0 7.319-10.867h40.144a52.536 52.536 0 0 1-10.644 23.4 56.744 56.744 0 0 1-20.847 16.189 65.963 65.963 0 0 1-28.167 5.877q-18.193 0-32.276-7.651a54.638 54.638 0 0 1-22.066-22.066q-7.983-14.419-7.983-33.712 0-19.515 7.874-33.827a53.939 53.939 0 0 1 22.066-21.958q14.192-7.648 32.385-7.651 18.4 0 32.378 7.543a53.245 53.245 0 0 1 21.626 21.179q7.648 13.64 7.651 31.383a52.064 52.064 0 0 1-1.11 10.203Zm-43.8-34.267a24.093 24.093 0 0 0-16.745-6.1q-10.436 0-17.3 6.209-6.878 6.218-7.765 18.192h48.35q.217-12.2-6.54-18.3ZM398.96 60.883q12.082 7.657 19.073 21.958 6.987 14.31 6.987 33.827 0 19.296-6.987 33.712-6.988 14.418-19.074 22.066a50.108 50.108 0 0 1-27.394 7.651q-14.192 0-24.396-6.432a37.338 37.338 0 0 1-14.862-17.523v22.404h-37.923V14.416h37.923v62.771a37.395 37.395 0 0 1 14.862-17.523q10.2-6.426 24.396-6.432a50.159 50.159 0 0 1 27.394 7.651ZM339.74 94.595q-7.657 8.1-7.657 22.073 0 13.748 7.657 21.957 7.648 8.21 19.629 8.207 12.192 0 19.629-7.99 7.421-7.982 7.427-22.174 0-14.192-7.427-22.181-7.44-7.983-19.629-7.983-11.984 0-19.629 8.091ZM500.982 60.105a46.69 46.69 0 0 1 24.287-6.65V94.04h-10.867q-15.088 0-23.4 6.432-8.318 6.436-8.321 21.74v56.334h-37.924V54.783h37.924v23.291a53.836 53.836 0 0 1 18.301-17.97ZM543.896 5.66Q550.105.003 560.308 0q10.201 0 16.413 5.66a18.502 18.502 0 0 1 6.209 14.3 18.254 18.254 0 0 1-6.209 14.084q-6.209 5.657-16.412 5.66-10.21 0-16.413-5.66a18.234 18.234 0 0 1-6.209-14.083 18.482 18.482 0 0 1 6.209-14.301Zm35.263 49.123v123.763h-37.924V54.783ZM701.365 66.428q16.184 13.197 20.401 36.265h-40.144a21.16 21.16 0 0 0-7.319-12.418q-5.548-4.435-13.969-4.441a20.277 20.277 0 0 0-16.412 7.874q-6.445 7.875-6.433 22.96 0 15.079 6.433 22.953a20.26 20.26 0 0 0 16.412 7.874q8.427 0 13.969-4.435a21.158 21.158 0 0 0 7.32-12.424h40.143q-4.208 23.071-20.4 36.265-16.193 13.196-40.145 13.196-18.192 0-32.276-7.651a54.638 54.638 0 0 1-22.066-22.066q-7.983-14.419-7.983-33.712 0-19.514 7.874-33.827a53.939 53.939 0 0 1 22.067-21.958q14.192-7.648 32.384-7.651 23.95 0 40.144 13.196ZM816.476 178.546l-37.043-52.568v52.568H741.51V14.416h37.923v90.05l37.043-49.683h44.58l-49.902 61.885 51.012 61.878ZM992.356 123.54h-85.834q.67 13.975 7.096 20.075 6.435 6.1 16.418 6.1 8.427 0 13.97-4.217a19.686 19.686 0 0 0 7.318-10.867h40.145a52.535 52.535 0 0 1-10.644 23.4 56.744 56.744 0 0 1-20.848 16.189 65.963 65.963 0 0 1-28.167 5.877q-18.192 0-32.276-7.651a54.638 54.638 0 0 1-22.066-22.066q-7.983-14.419-7.983-33.712 0-19.514 7.874-33.827a53.939 53.939 0 0 1 22.067-21.958q14.192-7.648 32.384-7.651 18.401 0 32.379 7.543a53.245 53.245 0 0 1 21.626 21.179q7.648 13.64 7.65 31.383a52.065 52.065 0 0 1-1.11 10.203Zm-43.801-34.267a24.093 24.093 0 0 0-16.745-6.1q-10.436 0-17.3 6.209-6.878 6.218-7.765 18.192h48.35q.218-12.2-6.54-18.3ZM130.732 78.558s-.02 2.755-.018 3.475a24.06 24.06 0 0 1-23.974 24.146h-.172c-7.225 0-13.548-2.504-18.558-8.833-4.937-6.238-10.91-10.898-22.293-10.898-12.089 0-27.296 7.835-27.296 29.821 0 21.139 13.732 30.557 27.296 30.557 13.068 0 18.45-7.065 21.928-11.075 6.066-6.996 12.353-9.065 19.87-9.045 9.11.023 23.051 7.997 23.2 24.145.17 18.705.058 27.71.058 27.71H92.7l.1-22.408s-8.073 24.826-41.851 23.92C25.476 179.389.009 158.68 0 116.637-.008 75.81 23.772 54.058 51.046 53.203c24.461-.767 36.542 11.75 41.753 23.924l-.1-62.823h38.074ZM1142.688 78.558s-.02 2.755-.017 3.475a24.06 24.06 0 0 1-23.974 24.146h-.172c-7.226 0-13.549-2.504-18.559-8.833-4.937-6.238-10.91-10.898-22.292-10.898-12.09 0-27.297 7.835-27.297 29.821 0 21.139 13.733 30.557 27.297 30.557 13.068 0 18.45-7.065 21.927-11.075 6.067-6.996 12.354-9.065 19.87-9.045 9.11.023 23.052 7.997 23.2 24.145.17 18.705.058 27.71.058 27.71h-38.073l.1-22.408s-8.072 24.826-41.85 23.92c-25.474-.684-50.941-21.392-50.95-63.436-.008-40.826 23.772-62.579 51.046-63.434 24.462-.767 36.542 11.75 41.754 23.924l-.1-62.823h38.073Z"/></g></svg>