<?xml version="1.0" encoding="UTF-8" standalone="no"?>
<!DOCTYPE svg PUBLIC "-//W3C//DTD SVG 1.1//EN" "http://www.w3.org/Graphics/SVG/1.1/DTD/svg11.dtd">
<svg width="100%" height="100%" viewBox="0 0 385 76" version="1.1" xmlns="http://www.w3.org/2000/svg" xmlns:xlink="http://www.w3.org/1999/xlink" xml:space="preserve" xmlns:serif="http://www.serif.com/" style="fill-rule:evenodd;clip-rule:evenodd;stroke-linejoin:round;stroke-miterlimit:2;">
    <g>
        <g>
            <path d="M71.1,43.6L54.2,22.5L46.9,13.3L43.6,9.2L36.3,0L0,0L10.1,13.3L31.1,13.3L34.4,17.3L39,22.5L63.5,53.1L60.6,56.7L33.2,22.5L28.6,17.3L13.4,17.3L18,22.5L53,66.3L60.6,75.8L68.2,66.3L71.1,62.7L78.7,53.1L71.1,43.6Z" style="fill:url(#_Linear1);fill-rule:nonzero;"/>
            <g>
                <path d="M91.9,36.7L103.2,22.5L107.2,17.5L76.4,17.5L91.9,36.7Z" style="fill:url(#_Linear2);fill-rule:nonzero;"/>
                <path d="M67.9,13.4L110.5,13.4L110.6,13.3L113.8,9.2L121.2,0L42,0L49.4,9.2L52.6,13.3L60,22.5L81.6,49.5L89.2,40L89.3,39.9L71.2,17.5L67.9,13.4Z" style="fill:url(#_Linear3);fill-rule:nonzero;"/>
            </g>
        </g>
        <g>
            <path d="M130.2,58.7C126.7,58.7 123.8,57.4 121.7,54.9C119.6,52.4 118.5,48.6 118.5,43.6C118.5,38.6 119.6,34.8 121.8,32.2C124,29.6 126.8,28.3 130.4,28.3C132.6,28.3 134.4,28.7 135.8,29.5C137.2,30.3 138.3,31.3 139.2,32.5L139.5,32.5C139.4,32 139.3,31.3 139.2,30.3C139.1,29.3 139,28.5 139,27.8L139,17L144.7,17L144.7,58.2L140.2,58.2L139.2,54.3L139,54.3C138.2,55.5 137,56.6 135.6,57.4C134.3,58.3 132.4,58.7 130.2,58.7ZM131.5,54C134.3,54 136.3,53.2 137.4,51.7C138.5,50.1 139.1,47.8 139.2,44.6L139.2,43.7C139.2,40.3 138.6,37.6 137.5,35.8C136.4,34 134.4,33.1 131.4,33.1C129,33.1 127.3,34 126.1,35.9C124.9,37.8 124.3,40.4 124.3,43.7C124.3,47 124.9,49.5 126.1,51.3C127.4,53.1 129.2,54 131.5,54Z" style="fill-rule:nonzero;"/>
            <path d="M165.3,28.4C169.1,28.4 172.2,29.6 174.4,32C176.6,34.4 177.7,37.6 177.7,41.7L177.7,44.8L158,44.8C158.1,47.8 158.9,50.1 160.4,51.7C161.9,53.3 164,54.1 166.7,54.1C168.6,54.1 170.3,53.9 171.7,53.6C173.2,53.3 174.7,52.7 176.2,52.1L176.2,56.9C174.7,57.6 173.2,58.1 171.8,58.4C170.3,58.7 168.5,58.9 166.5,58.9C163.7,58.9 161.2,58.3 159,57.2C156.8,56.1 155.1,54.4 153.9,52.2C152.7,50 152.1,47.2 152.1,44C152.1,40.7 152.7,37.9 153.8,35.6C154.9,33.3 156.4,31.6 158.4,30.4C160.3,29 162.6,28.4 165.3,28.4ZM165.3,32.9C163.2,32.9 161.6,33.6 160.3,34.9C159.1,36.2 158.3,38.1 158.1,40.6L171.9,40.6C171.9,38.3 171.3,36.5 170.2,35C169.2,33.6 167.5,32.9 165.3,32.9Z" style="fill-rule:nonzero;"/>
            <path d="M196.3,28.4C200.1,28.4 203.2,29.6 205.4,32C207.6,34.4 208.7,37.6 208.7,41.7L208.7,44.8L189,44.8C189.1,47.8 189.9,50.1 191.4,51.7C192.9,53.3 195,54.1 197.7,54.1C199.6,54.1 201.3,53.9 202.7,53.6C204.2,53.3 205.7,52.7 207.2,52.1L207.2,56.9C205.7,57.6 204.2,58.1 202.8,58.4C201.3,58.7 199.5,58.9 197.5,58.9C194.7,58.9 192.2,58.3 190,57.2C187.8,56.1 186.1,54.4 184.9,52.2C183.7,50 183.1,47.2 183.1,44C183.1,40.7 183.7,37.9 184.8,35.6C185.9,33.3 187.4,31.6 189.4,30.4C191.4,29 193.7,28.4 196.3,28.4ZM196.3,32.9C194.2,32.9 192.6,33.6 191.3,34.9C190.1,36.2 189.3,38.1 189.1,40.6L202.9,40.6C202.9,38.3 202.3,36.5 201.2,35C200.2,33.6 198.5,32.9 196.3,32.9Z" style="fill-rule:nonzero;"/>
            <path d="M230.4,28.4C233.9,28.4 236.8,29.7 238.9,32.2C241,34.7 242.1,38.5 242.1,43.5C242.1,48.5 241,52.2 238.8,54.8C236.6,57.4 233.8,58.7 230.3,58.7C228.1,58.7 226.3,58.3 224.9,57.5C223.5,56.7 222.4,55.7 221.5,54.6L221.1,54.6C221.2,55.3 221.3,56 221.3,56.9C221.4,57.8 221.4,58.6 221.4,59.3L221.4,71.2L215.6,71.2L215.6,29L220.3,29L221.1,32.9L221.4,32.9C222.2,31.7 223.3,30.6 224.7,29.8C226.3,28.9 228.1,28.4 230.4,28.4ZM229.1,33.1C226.4,33.1 224.5,33.9 223.3,35.4C222.2,37 221.6,39.3 221.6,42.6L221.6,43.5C221.6,46.9 222.1,49.5 223.2,51.3C224.3,53.1 226.3,54 229.2,54C231.6,54 233.4,53 234.5,51.1C235.7,49.1 236.2,46.6 236.2,43.5C236.2,40.3 235.6,37.8 234.4,36C233.3,34.1 231.5,33.1 229.1,33.1Z" style="fill-rule:nonzero;"/>
            <path d="M263.7,33.4L256.5,33.4L256.5,58.2L250.7,58.2L250.7,33.4L245.8,33.4L245.8,30.7L250.7,28.9L250.7,27C250.7,23.3 251.6,20.6 253.3,19.1C255,17.5 257.4,16.7 260.5,16.7C261.8,16.7 262.9,16.8 264,17C265.1,17.2 265.9,17.5 266.7,17.7L265.2,22.1C264.6,21.9 263.9,21.7 263.1,21.6C262.3,21.4 261.6,21.4 260.8,21.4C257.9,21.4 256.5,23.3 256.5,27.1L256.5,29L263.7,29L263.7,33.4Z" style="fill-rule:nonzero;"/>
            <path d="M280.3,28.4C284.1,28.4 287.2,29.6 289.4,32C291.6,34.4 292.7,37.6 292.7,41.7L292.7,44.8L273.1,44.8C273.2,47.8 274,50.1 275.5,51.7C277,53.3 279.1,54.1 281.8,54.1C283.7,54.1 285.4,53.9 286.8,53.6C288.3,53.3 289.8,52.7 291.3,52.1L291.3,56.9C289.8,57.6 288.3,58.1 286.9,58.4C285.4,58.7 283.6,58.9 281.6,58.9C278.8,58.9 276.3,58.3 274.1,57.2C271.9,56.1 270.2,54.4 269,52.2C267.8,50 267.2,47.2 267.2,44C267.2,40.7 267.8,37.9 268.9,35.6C270,33.3 271.5,31.6 273.5,30.4C275.4,29 277.7,28.4 280.3,28.4ZM280.3,32.9C278.2,32.9 276.6,33.6 275.3,34.9C274.1,36.2 273.3,38.1 273.1,40.6L286.9,40.6C286.9,38.3 286.3,36.5 285.2,35C284.2,33.6 282.6,32.9 280.3,32.9Z" style="fill-rule:nonzero;"/>
            <path d="M314.7,28.4C318.1,28.4 320.7,29.3 322.5,30.9C324.3,32.6 325.2,35.3 325.2,39.1L325.2,58.1L319.5,58.1L319.5,40C319.5,35.4 317.5,33.2 313.5,33.2C310.5,33.2 308.5,34.1 307.3,35.9C306.2,37.7 305.6,40.2 305.6,43.5L305.6,58.3L299.8,58.3L299.8,29L304.4,29L305.2,32.9L305.5,32.9C306.4,31.4 307.7,30.3 309.4,29.5C311.1,28.8 312.8,28.4 314.7,28.4Z" style="fill-rule:nonzero;"/>
            <path d="M345.8,58.7C341.8,58.7 338.5,57.5 336,55.1C333.5,52.7 332.3,48.9 332.3,43.7C332.3,40.1 332.9,37.2 334.1,34.9C335.3,32.6 336.9,31 339,29.9C341.1,28.8 343.5,28.3 346.2,28.3C347.8,28.3 349.4,28.5 350.8,28.8C352.2,29.1 353.4,29.5 354.4,30L352.7,34.7C351.7,34.3 350.6,34 349.5,33.7C348.4,33.4 347.3,33.2 346.2,33.2C340.9,33.2 338.3,36.7 338.3,43.6C338.3,46.9 339,49.5 340.3,51.2C341.6,52.9 343.5,53.8 346.1,53.8C347.7,53.8 349.1,53.6 350.4,53.3C351.7,52.9 352.8,52.5 353.9,51.9L353.9,56.9C352.9,57.5 351.7,58 350.5,58.3C349.1,58.6 347.6,58.7 345.8,58.7Z" style="fill-rule:nonzero;"/>
            <path d="M372.1,28.4C375.9,28.4 379,29.6 381.2,32C383.4,34.4 384.5,37.6 384.5,41.7L384.5,44.8L364.9,44.8C365,47.8 365.8,50.1 367.3,51.7C368.8,53.3 370.9,54.1 373.6,54.1C375.5,54.1 377.2,53.9 378.6,53.6C380.1,53.3 381.6,52.7 383.1,52.1L383.1,56.9C381.6,57.6 380.1,58.1 378.7,58.4C377.2,58.7 375.4,58.9 373.4,58.9C370.6,58.9 368.1,58.3 365.9,57.2C363.7,56.1 362,54.4 360.8,52.2C359.6,50 359,47.2 359,44C359,40.7 359.6,37.9 360.7,35.6C361.8,33.3 363.3,31.6 365.3,30.4C367.2,29 369.5,28.4 372.1,28.4ZM372.1,32.9C370,32.9 368.4,33.6 367.1,34.9C365.9,36.2 365.1,38.1 364.9,40.6L378.7,40.6C378.7,38.3 378.1,36.5 377,35C376,33.6 374.3,32.9 372.1,32.9Z" style="fill-rule:nonzero;"/>
        </g>
    </g>
    <defs>
        <linearGradient id="_Linear1" x1="0" y1="0" x2="1" y2="0" gradientUnits="userSpaceOnUse" gradientTransform="matrix(4.29589e-15,70.1572,-70.1572,4.29589e-15,39.3564,0.7229)"><stop offset="0" style="stop-color:#16c7f3;stop-opacity:1"/><stop offset="1" style="stop-color:#1f72b3;stop-opacity:1"/></linearGradient>
        <linearGradient id="_Linear2" x1="0" y1="0" x2="1" y2="0" gradientUnits="userSpaceOnUse" gradientTransform="matrix(4.29589e-15,70.1572,-70.1572,4.29589e-15,91.8085,0.7229)"><stop offset="0" style="stop-color:#16c7f3;stop-opacity:1"/><stop offset="1" style="stop-color:#1f72b3;stop-opacity:1"/></linearGradient>
        <linearGradient id="_Linear3" x1="0" y1="0" x2="1" y2="0" gradientUnits="userSpaceOnUse" gradientTransform="matrix(4.29589e-15,70.1572,-70.1572,4.29589e-15,81.5827,0.7229)"><stop offset="0" style="stop-color:#16c7f3;stop-opacity:1"/><stop offset="1" style="stop-color:#1f72b3;stop-opacity:1"/></linearGradient>
    </defs>
</svg>
