<?xml version="1.0" encoding="UTF-8" standalone="no"?>
<!DOCTYPE svg PUBLIC "-//W3C//DTD SVG 1.1//EN" "http://www.w3.org/Graphics/SVG/1.1/DTD/svg11.dtd">
<svg width="100%" height="100%" viewBox="0 0 400 33" version="1.1" xmlns="http://www.w3.org/2000/svg" xmlns:xlink="http://www.w3.org/1999/xlink" xml:space="preserve" xmlns:serif="http://www.serif.com/" style="fill-rule:evenodd;clip-rule:evenodd;stroke-linejoin:round;stroke-miterlimit:2;">
    <g transform="matrix(0.249509,0,0,0.249509,-21.1412,-23.3815)">
        <path d="M84.81,93.8C127.53,93.71 170.25,93.72 212.96,93.8C213.04,136.53 213,179.25 212.98,221.98C170.25,222 127.53,222.04 84.8,221.96C84.72,198.87 84.71,175.78 84.8,152.7C92.52,152.57 100.25,152.58 107.97,152.69C108.09,168.01 107.89,183.32 108.07,198.64C135.25,198.6 162.43,198.65 189.61,198.61C189.65,171.43 189.6,144.25 189.64,117.07C154.69,116.88 119.75,117.1 84.81,116.96C84.71,109.24 84.7,101.52 84.81,93.8Z" style="fill:rgb(13,77,118);fill-rule:nonzero;"/>
    </g>
    <g transform="matrix(0.249509,0,0,0.249509,-21.1412,-23.3815)">
        <path d="M277.27,93.83C320.02,93.73 362.77,93.61 405.52,93.89C405.5,136.57 405.47,179.25 405.53,221.92C362.77,222.07 320.01,222.01 277.25,221.95C277.25,198.88 277.23,175.8 277.26,152.73C284.98,152.56 292.7,152.57 300.43,152.69C300.61,167.99 300.45,183.3 300.5,198.6C327.66,198.66 354.82,198.6 381.98,198.63C382.28,171.43 382.1,144.23 382.08,117.04C347.14,116.92 312.19,117.09 277.25,116.95C277.23,109.25 277.22,101.54 277.27,93.83Z" style="fill:rgb(13,77,118);fill-rule:nonzero;"/>
    </g>
    <g transform="matrix(0.249509,0,0,0.249509,-21.1412,-23.3815)">
        <path d="M428.48,93.89C463.49,93.65 498.51,93.65 533.51,93.89C533.51,101.57 533.5,109.25 533.53,116.92C506.29,117.13 479.05,116.89 451.81,117.04C451.71,126.38 451.71,135.72 451.81,145.05C468.12,145.24 484.43,145.03 500.73,145.16C500.77,152.9 500.77,160.65 500.74,168.39C484.46,168.65 468.18,168.44 451.9,168.49C451.65,178.53 451.68,188.58 451.88,198.62C479.09,198.73 506.3,198.43 533.51,198.77C533.51,206.49 533.5,214.2 533.53,221.92C498.51,222.05 463.49,222.05 428.47,221.92C428.53,179.25 428.5,136.57 428.48,93.89Z" style="fill:rgb(13,77,118);fill-rule:nonzero;"/>
    </g>
    <g transform="matrix(0.249509,0,0,0.249509,-21.1412,-23.3815)">
        <path d="M556.48,93.89C591.42,93.59 626.36,93.77 661.3,93.8C661.43,101.52 661.42,109.25 661.31,116.97C634.14,117.07 606.97,116.92 579.81,117.04C579.71,126.38 579.71,135.72 579.81,145.06C596.12,145.24 612.43,145.03 628.73,145.16C628.77,152.9 628.77,160.65 628.74,168.39C612.46,168.65 596.18,168.44 579.9,168.49C579.56,186.3 579.85,204.13 579.75,221.95C571.99,222.04 564.23,222.06 556.47,221.92C556.53,179.24 556.5,136.57 556.48,93.89Z" style="fill:rgb(13,77,118);fill-rule:nonzero;"/>
    </g>
    <g transform="matrix(0.249509,0,0,0.249509,-21.1412,-23.3815)">
        <path d="M684.48,93.9C719.42,93.59 754.36,93.77 789.3,93.8C789.43,101.52 789.42,109.25 789.31,116.97C762.14,117.07 734.97,116.92 707.81,117.04C707.71,126.38 707.71,135.71 707.81,145.05C724.12,145.24 740.43,145.02 756.73,145.16C756.77,152.9 756.77,160.65 756.74,168.39C740.46,168.64 724.18,168.44 707.9,168.49C707.65,178.53 707.68,188.58 707.88,198.62C735.02,198.68 762.16,198.53 789.31,198.69C789.43,206.45 789.42,214.21 789.31,221.97C754.36,221.99 719.41,222.08 684.47,221.92C684.53,179.25 684.5,136.57 684.48,93.9Z" style="fill:rgb(13,77,118);fill-rule:nonzero;"/>
    </g>
    <g transform="matrix(0.249509,0,0,0.249509,-21.1412,-23.3815)">
        <path d="M812.48,93.89C847.42,93.59 882.36,93.77 917.3,93.8C917.43,101.52 917.42,109.25 917.31,116.97C890.14,117.07 862.97,116.92 835.8,117.04C835.76,144.23 835.63,171.43 835.87,198.62C863.02,198.68 890.16,198.53 917.31,198.69C917.43,206.45 917.42,214.21 917.31,221.97C882.36,221.99 847.41,222.08 812.47,221.92C812.53,179.25 812.5,136.57 812.48,93.89Z" style="fill:rgb(13,77,118);fill-rule:nonzero;"/>
    </g>
    <g transform="matrix(0.249509,0,0,0.249509,-21.1412,-23.3815)">
        <path d="M940.49,93.89C983.23,93.61 1025.98,93.73 1068.73,93.83C1068.78,101.54 1068.76,109.25 1068.75,116.95C1051.25,117.1 1033.75,116.9 1016.25,117.05C1016.21,152.02 1016.32,186.99 1016.2,221.96C1008.44,222.03 1000.68,222.03 992.92,221.96C992.8,186.98 992.92,152.01 992.86,117.03C975.4,116.9 957.94,117.13 940.47,116.92C940.5,109.25 940.49,101.57 940.49,93.89Z" style="fill:rgb(13,77,118);fill-rule:nonzero;"/>
    </g>
    <g transform="matrix(0.249509,0,0,0.249509,-21.1412,-23.3815)">
        <path d="M1106.49,93.82C1149.24,93.68 1191.99,93.75 1234.75,93.79C1234.76,136.52 1234.74,179.25 1234.76,221.98C1192,222 1149.24,222.03 1106.48,221.97C1106.51,198.88 1106.5,175.78 1106.49,152.69C1114.28,152.57 1122.07,152.61 1129.87,152.66C1129.92,167.98 1129.79,183.3 1129.94,198.63C1157.1,198.63 1184.26,198.61 1211.42,198.64C1211.58,171.43 1211.48,144.22 1211.47,117.01C1176.47,116.96 1141.48,117.05 1106.48,116.97C1106.51,109.25 1106.5,101.53 1106.49,93.82Z" style="fill:rgb(30,168,217);fill-rule:nonzero;"/>
    </g>
    <g transform="matrix(0.249509,0,0,0.249509,-21.1412,-23.3815)">
        <path d="M1257.78,93.78C1300.51,93.73 1343.25,93.74 1385.98,93.77C1386.02,136.51 1386,179.25 1385.99,221.99C1343.25,222 1300.51,222.02 1257.77,221.98C1257.74,179.25 1257.73,136.51 1257.78,93.78M1281.12,117.01C1281.14,144.22 1281.1,171.42 1281.15,198.63C1308.34,198.62 1335.54,198.62 1362.74,198.63C1362.77,171.42 1362.73,144.22 1362.76,117.02C1335.54,116.98 1308.33,117 1281.12,117.01Z" style="fill:rgb(30,168,217);fill-rule:nonzero;"/>
    </g>
    <g transform="matrix(0.249509,0,0,0.249509,-21.1412,-23.3815)">
        <path d="M1514.02,93.77C1521.79,93.74 1529.57,93.73 1537.35,93.78C1537.4,136.51 1537.39,179.25 1537.35,221.99C1494.61,222.01 1451.87,222.01 1409.12,221.99C1409.13,202.29 1409.11,182.6 1409.13,162.9C1416.87,162.86 1424.61,162.86 1432.35,162.9C1432.41,174.81 1432.35,186.71 1432.38,198.62C1459.58,198.64 1486.77,198.6 1513.97,198.64C1514.05,163.68 1513.96,128.73 1514.02,93.77Z" style="fill:rgb(30,168,217);fill-rule:nonzero;"/>
    </g>
    <g transform="matrix(0.249509,0,0,0.249509,-21.1412,-23.3815)">
        <path d="M1559.65,93.78C1602.39,93.73 1645.13,93.73 1687.86,93.78C1687.89,136.51 1687.87,179.25 1687.88,221.99C1645.13,222.01 1602.39,222.01 1559.65,221.99C1559.61,179.25 1559.6,136.51 1559.65,93.78M1582.9,117.02C1582.89,144.22 1582.81,171.42 1582.94,198.63C1610.1,198.63 1637.26,198.61 1664.42,198.64C1664.58,171.43 1664.49,144.22 1664.47,117.01C1637.28,117 1610.09,116.99 1582.9,117.02Z" style="fill:rgb(30,168,217);fill-rule:nonzero;"/>
    </g>
    <g transform="matrix(0.249509,0,0,0.249509,-21.1412,-23.3815)">
        <path d="M131.01,139.89C142.93,139.87 154.84,139.84 166.75,139.92C166.75,151.86 166.76,163.8 166.75,175.75C154.84,175.76 142.93,175.74 131.02,175.76C130.98,163.8 130.99,151.85 131.01,139.89Z" style="fill:rgb(30,168,217);fill-rule:nonzero;"/>
    </g>
</svg>
