<?xml version="1.0" encoding="UTF-8" standalone="no"?>
<!DOCTYPE svg PUBLIC "-//W3C//DTD SVG 1.1//EN" "http://www.w3.org/Graphics/SVG/1.1/DTD/svg11.dtd">
<svg width="100%" height="100%" viewBox="0 0 2880 759" version="1.1" xmlns="http://www.w3.org/2000/svg" xmlns:xlink="http://www.w3.org/1999/xlink" xml:space="preserve" xmlns:serif="http://www.serif.com/" style="fill-rule:evenodd;clip-rule:evenodd;stroke-linejoin:round;stroke-miterlimit:2;">
    <g transform="matrix(1,0,0,1,-3.85861,-4.26339)">
        <path d="M374.41,4.52C398.33,3.13 422.03,7.77 445.84,9.27C458.9,9.71 470.97,14.89 483.3,18.6C503.72,25.5 525.22,29.96 543.97,41.06C564.23,52.77 586.89,60.74 604.71,76.31C620.39,89.64 637.68,101.15 652.19,115.8C663.14,128.53 673.72,141.58 684.69,154.3C690.24,160.85 696.1,167.28 700.04,175C708.55,190.46 717.08,205.91 725.76,221.28C730.46,229.38 734.22,238 736.86,247C742.6,266.41 749.29,285.54 754.88,305C757.17,318.09 757.76,331.41 759.41,344.59C761.08,362.68 764.26,380.83 762.15,399.04C759.9,419.01 758.96,439.14 755.92,459.01C749.23,480.83 742.5,502.67 735.32,524.34C727.04,543.45 716.33,561.39 707.11,580.06C700.19,594.95 688.53,606.78 678.65,619.68C669.16,631.13 660.77,643.64 649.63,653.61C635.1,665.75 620.59,677.91 606.2,690.2C595.72,699.4 582.63,704.68 570.77,711.76C554.04,720.5 538.36,731.68 520,736.86C500.29,742.63 480.93,749.58 461.14,755.06C441.7,757.87 422.07,759.09 402.59,761.56C382.27,764.34 361.83,761.54 341.58,759.53C327.57,757.98 313.11,758.36 299.7,753.46C282.66,748.21 265.75,742.58 248.67,737.49C234.83,733.54 222.82,725.26 210.07,718.85C195.47,710.59 179.49,704.42 166.55,693.49C151.02,680.98 135.13,668.9 119.66,656.33C104.95,640.98 91.92,624.09 77.72,608.27C68.77,598.55 63.4,586.37 57.02,574.97C50.38,562.95 43.65,550.98 36.96,539C33.88,533.63 32.33,527.58 30.38,521.76C24.99,503.88 19.2,486.11 13.53,468.32C11.52,462.96 11.09,457.21 10.4,451.6C8.74,434.05 6.98,416.52 5.02,399.01C1.78,380.42 6.23,361.73 7.35,343.17C9.04,328.99 8.63,314.34 13.47,300.72C18.87,283.39 24.3,266.06 29.58,248.69C33.4,234.8 41.76,222.82 48.15,210.08C56.31,195.68 62.38,179.93 73.07,167.11C84.74,152.42 96.39,137.71 107.9,122.91C111.1,118.8 115,115.32 118.9,111.9C132.76,100.11 146.6,88.27 160.34,76.34C167.84,69.71 176.83,65.18 185.65,60.58C199.44,53.07 213.22,45.53 226.98,37.95C233.22,34.33 240.17,32.31 247,30.15C264.63,24.82 282.14,19.12 299.68,13.53C306.51,11.06 313.84,10.76 320.99,9.94C338.82,8.38 356.59,6.22 374.41,4.52M378.42,32.57C355.9,34.87 333.26,36.57 310.86,39.9C288.74,46.33 266.86,53.65 245.08,61.12C228.07,69.39 211.98,79.43 195.18,88.13C180.64,95.16 169.31,106.89 156.87,116.88C146.7,126.03 134.93,133.6 126.6,144.63C115.73,158.41 104.7,172.06 93.77,185.79C88.31,192.43 84.88,200.4 80.96,207.98C71.41,227.38 59.45,245.86 53.94,266.98C48.11,288.76 39.19,309.85 37.36,332.54C35.7,349.04 33.7,365.52 32.25,382.04C32.89,400.91 36.14,419.59 37.46,438.43C38.48,457.63 45.94,475.48 51.44,493.66C55.81,506.65 58.88,520.25 65.73,532.25C73.61,546.09 81.21,560.08 88.82,574.08C95.67,587.88 106.9,598.68 116.43,610.59C126.31,621.65 134.57,634.52 147,643.01C162.63,654.63 177.26,667.63 193.4,678.55C209.21,687.13 225.18,695.43 241.01,703.98C252.92,710.52 266.2,713.78 279.08,717.79C294.06,721.94 308.57,728.08 324.16,729.72C340.75,731.33 357.36,732.68 373.97,734.13C388.85,735.62 403.63,732.73 418.42,731.43C431.28,730 444.29,729.45 457.01,726.91C475.45,721.78 493.4,715.04 511.75,709.57C526.66,705.27 539.42,696.22 553.03,689.1C566.96,681.26 581.81,674.59 593.84,663.84C605.69,653.67 617.75,643.74 629.69,633.67C643.68,620.17 654.45,603.79 667.06,589.04C681.63,572.35 689.42,551.34 700.51,532.42C712.39,512.88 716.28,490.06 723.69,468.73C729.06,453.89 730.45,438.08 731.57,422.46C732.96,404.55 736.1,386.54 733.51,368.58C731,349.71 730.34,330.62 727.1,311.86C722.32,294.11 715.84,276.88 710.52,259.3C705.99,243.05 696.85,228.75 688.91,214.05C682.77,203.18 677.5,191.81 670.49,181.46C664.05,172.99 656.89,165.09 650.07,156.93C641.13,146.57 633.22,135.15 622.33,126.65C608.99,115.98 595.69,105.26 582.31,94.65C571.73,86.09 558.88,81.32 547.04,74.88C533.33,67.71 519.82,59.85 504.99,55.19C489.21,50.54 473.76,44.83 457.98,40.19C445.91,36.71 433.28,36.53 420.87,35.29C406.72,34.34 392.63,32.04 378.42,32.57Z" style="fill-rule:nonzero;"/>
    </g>
    <g transform="matrix(1,0,0,1,-3.85861,-4.26339)">
        <path d="M347.68,60.64C364.32,58.83 381.08,56.17 397.84,58.24C413.1,59.83 428.45,60.53 443.67,62.55C459.84,65.99 475.17,72.35 491.02,76.96C512.43,83 531.08,95.52 551.03,104.94C564.21,110.98 574.67,121.22 586,130C597.7,139.53 610.4,148.21 619.83,160.17C629.06,171.58 638.75,182.61 648.11,193.91C655.2,202.33 659.44,212.61 664.84,222.1C673.06,237.49 682.78,252.33 687.52,269.3C691.77,283.59 697.04,297.56 701.18,311.89C704.45,324.48 705.19,337.52 706.53,350.41C707.64,363.4 710.11,376.32 709.43,389.4C708.69,402.34 707.2,415.23 705.87,428.12C698.73,419.94 690.83,412.49 683.21,404.78C674.35,396.04 669,384.51 660.68,375.32C651.73,365.53 643.86,354.84 635.24,344.77C627.74,335.61 619.76,326.83 612.71,317.31C595.83,291.6 578.78,265.77 558.02,242.98C545.52,228.52 530.07,216.96 513.57,207.46C507.69,204.19 503.55,198.77 499.05,193.93C491.17,184.99 480.7,179 471.94,171.05C464.61,164.3 456.03,158.74 446.52,155.69C437.14,154.72 427.51,154.83 418.22,156.47C400.16,165.75 382.96,176.76 364.58,185.47C353.18,189.95 341.69,194.25 329.99,197.9C316.22,201.5 304.91,210.77 291.64,215.61C275.49,222.57 257.32,225.18 243.02,236.03C229.54,246.1 213.72,252.14 198.96,259.98C193.33,262.72 189.8,268.16 185.09,272.09C176.57,279.27 167.05,285.18 157.2,290.35C159.23,293.33 161.26,296.29 163.31,299.28C180.76,283.24 202.55,273.24 222.04,260.04C232.4,253.62 240.81,244.53 251.24,238.21C275.75,224.53 304.06,219.6 328.27,205.21C340.01,197.51 354.2,195.56 367.62,192.56C377.79,190.67 386.68,185.13 396.02,181.03C402.6,177.85 410.03,177.46 417.18,176.82C413.64,181.65 411.3,188.17 405.17,190.22C395.07,193.98 384.98,197.76 375.16,202.22C363.8,207.79 350.52,205.86 339.01,210.93C332.42,213.43 328.2,219.52 322.42,223.24C308.6,228.57 293.16,228.9 279.89,235.82C265.94,242.4 253.39,251.45 239.89,258.83C228.96,264.81 218.56,271.91 209.6,280.61C201.89,287.89 191.8,292.84 181.11,293.4C181.98,298.06 182.22,302.92 183.7,307.46C186.67,310.27 189.74,315.66 194.59,314.52C200.29,313.14 205.73,310.68 210.68,307.58C216.7,303.31 218.64,295.7 223.32,290.38C235.64,283.53 249.13,279.09 261.6,272.5C268.8,268.45 275.32,263.09 283.12,260.16C290.2,257.39 296.75,253.46 303.09,249.31C308.19,246.23 314.74,246.22 319.38,242.33C336.55,226.22 362.39,228.4 381.97,216.93C388.7,212.49 396.83,211.44 404.66,212.86C401.93,219.04 397.17,223.7 390.73,225.76C371.29,232.85 353.4,243.45 334.25,251.2C325.98,253.97 316.99,254.27 309.02,258.03C299.96,262.11 291,266.49 282.41,271.5C275.16,276.5 269.13,283.27 260.99,286.94C251.84,291.27 242.62,295.47 233.31,299.45C232.89,302.84 232.45,306.22 231.98,309.61C243.43,309.43 254.58,312.53 265.96,312.81C275.46,308.8 283.11,301.44 290.36,294.26C298.06,294.94 306.05,297.82 313.68,295.66C320.37,292.35 324.59,285.39 331.69,282.7C344.2,276.71 358.46,277.62 371.71,274.56C388.23,269.34 404.89,263.88 419.72,254.7C426.41,252.22 433.94,253.4 440.95,252.62C446.56,261.67 453.01,270.42 456.45,280.62C461.07,294.24 470.79,305.19 476.89,318.08C488.4,345.87 501.98,373.91 524.1,394.9C530.75,401.84 538.41,408.17 547.73,411.1C553.14,411.98 558.66,411.95 564.14,412.28C573.44,431.16 580.6,450.99 586.82,471.07C594.06,495.09 599.38,519.76 609.06,542.99C616.15,559.49 623.6,575.92 632.78,591.39C625.48,600.17 618.8,609.6 610.09,617.09C602.49,623.49 594.72,629.7 587.21,636.21C577.35,644.51 567.85,653.56 556.02,659.04C536.33,668.69 518.5,682.43 497.02,688.05C483.02,692.16 469.41,697.47 455.36,701.38C437,705.72 418.05,705.96 399.42,708.51C381.66,711.09 363.85,707.95 346.13,706.73C334.26,705.53 322.08,705.34 310.69,701.44C297.47,697.22 284.13,693.39 270.91,689.22C256.77,685.19 244.4,677.1 231.4,670.53C219.95,664.14 207.7,658.94 197.53,650.51C184.05,639.6 170.11,629.26 156.68,618.31C145.4,606.51 135.42,593.53 124.9,581.06C133.28,568.78 139.13,555.09 146.08,542.01C154.54,527.92 167.12,517.06 177.12,504.14C184.38,494.8 191.74,485.53 200.02,477.06C199.81,474.36 199.4,468.96 199.2,466.25C196.51,465.62 193.9,464.58 191.15,464.36C186.1,466.15 181.56,469.1 177.27,472.26C161.39,485.04 146.4,498.93 129.83,510.84C118.18,519.06 109.11,530.23 98.25,539.38C97.46,537.81 95.88,534.67 95.09,533.11C114.6,515.62 133.1,497 149.64,476.67C157.39,465.85 168.93,458.7 180.48,452.61C195.33,449.3 208.91,459.42 217.34,470.69C223.05,479.48 235.73,480.58 244.69,476.61C253.06,473.3 262.02,471.99 270.58,469.38C281.37,462.81 288.34,451.84 296.74,442.71C302.46,438.27 309.65,436.25 316.11,433.16C325.05,429.46 333.03,423.98 341.13,418.77C339.75,410.65 338.28,402.55 336.75,394.47C343.04,397.97 350.18,398.87 357.26,398.95C352.34,390.72 357.66,382.15 358.65,373.74C362.17,380.41 365.9,386.96 369.36,393.65C376.8,394.76 384.18,396.74 391.74,396.59C397.11,393.79 402.14,390.42 407.18,387.08C404.69,392.92 401.24,398.54 399.89,404.75C401.59,412.16 405.67,418.74 408.49,425.75C403.44,426.49 398.4,427.24 393.36,427.97C388.75,422.34 385.9,413.47 377.92,411.99C370.5,410.13 363.43,413.6 356.32,415.24C358.18,423.26 359.23,431.49 361.97,439.29C367.04,446.07 372.68,452.42 378.15,458.89C382.7,464.81 390.68,467.15 397.9,466.71C404.46,465.03 410.83,462.65 417.12,460.15C427.92,455.81 439.38,453.14 449.77,447.78C451.64,446.73 453.69,445.38 454.19,443.15C458.4,426.63 454.95,408.87 447.01,394C438.88,378.07 431.23,361.73 426.9,344.3C424.71,332.84 423.78,319.72 415.14,311.04C400.72,307.78 385.02,303.64 370.72,309.63C362.1,312.79 352.94,313.96 343.89,315.17C344.34,312.89 344.8,310.62 345.28,308.36C360.59,302.68 375.42,295.54 391.37,291.75C397.16,290.09 403.01,291.93 408.53,293.61C420.4,298.8 430.35,308.14 434.41,320.67C439.76,336.77 443.59,353.39 449.6,369.3C452.44,377.99 458.26,385.67 459.09,394.98C460.5,403.2 460.85,411.66 463.29,419.68C465.79,426.72 469.05,433.46 471.44,440.54C474.36,439.44 478.09,439.7 480.63,437.6C483.72,431.66 486.09,424.69 484.1,417.98C481.85,405.12 474.08,394.16 471.41,381.41C465.34,363.08 465.9,343.27 458.75,325.25C454.57,310.59 446.37,297.7 439.69,284.14C436.72,279.39 433.21,275.01 429.93,270.49C423.25,271.29 416.09,270.66 410.03,274.06C399.3,279.52 386.86,279.42 375.68,283.53C361.49,288.71 345.33,287.38 331.93,295C328.11,299.48 324.72,304.69 319.09,307.15C312.19,311.4 303.83,310.74 296.24,312.56C290.18,315.37 285.31,320.3 279.21,323.05C263.58,328.43 246.71,327.43 230.53,325.65C223.25,323.18 218.04,329.32 211.93,331.75C202.67,334.3 192.41,334.85 183.56,330.55C167.57,326.74 152.92,338.27 140.27,346.25C120.41,357.93 103.58,373.9 84.05,386.08C76.23,391.68 67.38,395.59 58.22,398.38C55.78,380.52 59.57,362.76 61.04,344.99C62.19,333.53 63.23,321.95 66.77,310.92C71.8,295.06 75.94,278.91 81.45,263.21C88.02,246.87 97.27,231.79 104.93,215.96C110.79,202.69 121.33,192.4 130.01,181.01C138.84,170.55 146.22,158.66 156.9,149.9C169.33,139.68 181.53,129.18 193.91,118.89C199.06,114.47 204.96,111.05 210.98,107.96C223.16,101.64 234.99,94.66 247.01,88.05C258.62,81.51 271.8,78.74 284.29,74.4C296.48,70.51 308.47,65.6 321.2,63.67C329.96,62.16 338.84,61.62 347.68,60.64Z" style="fill-rule:nonzero;"/>
    </g>
    <g transform="matrix(1,0,0,1,358.729,132.89)">
        <text x="1012.16px" y="170.033px" style="font-family:'SegoeUI', 'Segoe UI', sans-serif;font-size:288px;">DevOps</text>
        <text x="490.229px" y="458.033px" style="font-family:'SegoeUI', 'Segoe UI', sans-serif;font-size:288px;">KungFu Maste<tspan x="2310.9px " y="458.033px ">r</tspan>s</text>
    </g>
</svg>
