<?xml version="1.0" encoding="UTF-8" standalone="no"?>
<!DOCTYPE svg PUBLIC "-//W3C//DTD SVG 1.1//EN" "http://www.w3.org/Graphics/SVG/1.1/DTD/svg11.dtd">
<svg width="100%" height="100%" viewBox="0 0 201 54" version="1.1" xmlns="http://www.w3.org/2000/svg" xmlns:xlink="http://www.w3.org/1999/xlink" xml:space="preserve" xmlns:serif="http://www.serif.com/" style="fill-rule:evenodd;clip-rule:evenodd;stroke-linejoin:round;stroke-miterlimit:2;">
    <g id="Artboard">
        <g id="logo">
            <g>
                <rect id="Fill-1" x="0" y="-0" width="93" height="53" style="fill:rgb(214,221,218);"/>
                <path id="Fill-2" d="M18.611,36.474C17.436,35.653 15.96,34.538 14.867,33.477C13.298,32.055 12.016,30.319 11.12,28.406C11.816,30.407 12.931,32.341 14.579,33.912C15.85,34.952 17.213,35.795 18.611,36.474ZM33.767,11.648C32.536,9.781 30.178,8.68 27.912,7.96C21.183,5.307 11.59,10.367 10.168,19.091C10.077,19.497 9.926,20.427 9.963,21.123C10.571,15.787 13.805,11.104 18.199,9.112C22.53,7.03 27.644,7.397 31.148,9.863C31.329,10.004 31.509,10.157 31.681,10.307C31.068,9.991 30.422,9.723 29.753,9.509C27.383,8.367 24.563,7.913 21.76,8.515C16.242,9.38 11.239,14.405 10.376,20.673C10.306,21.078 10.259,21.491 10.23,21.906C10.064,21.786 9.963,21.491 9.963,21.123C9.87,21.55 9.87,21.978 9.891,22.41C9.831,24.415 10.283,26.481 11.12,28.406C10.795,27.412 10.592,26.408 10.48,25.405C10.879,27.358 11.701,29.236 12.952,30.746C13.774,31.592 14.694,33.45 15.808,34.046C20.042,37.405 26.467,38.545 30.804,36.074C31.397,35.914 31.989,35.743 32.524,35.434C31.831,35.664 31.053,35.816 30.431,36.035L30.224,36.037C30.045,36.139 29.955,36.187 29.864,36.238C26.662,36.642 20.106,37.352 16.065,33.945C14.918,33.122 14.03,32.039 13.198,30.928C13.623,31.218 14.308,31.612 14.721,32.047C16.757,34.081 19.553,35.919 22.276,36.139C21.02,35.626 19.942,35.017 18.754,34.297C18.139,34.014 17.154,33.851 16.707,33.33C14.163,31.159 11.989,28.933 11.598,25.592C11.538,25.264 11.75,25.005 11.644,24.706C12.286,28.406 14.603,31.142 17.514,33.324C17.909,33.788 18.355,33.979 18.754,34.297C19.263,34.48 19.714,34.656 20.089,34.853C24.411,36.469 25.182,34.696 29.058,34.64C27.31,35.084 24.322,35.901 22.81,36C25.529,36.56 30.661,35.176 33.005,33.431C35.919,31.441 35.334,31.352 36.839,28.808C36.971,28.601 37.099,28.127 37.207,27.553C38.122,25.793 38.645,23.794 38.645,21.673C38.645,17.602 36.734,13.984 33.767,11.648ZM12.442,24.405C12.187,22.755 12.111,21.069 12.466,19.394C12.433,19.724 12.405,19.99 12.421,20.116C12.26,22.137 12.415,23.788 12.6,24.86C12.554,24.717 12.502,24.57 12.442,24.405C12.514,24.723 12.599,25.039 12.697,25.347C12.858,26.103 13.007,26.404 12.964,26.125C14.257,29.512 16.983,32.127 20.006,33.361C17.052,32.994 13.139,28.962 12.442,24.405ZM21.057,9.856C18.587,10.372 16.17,11.737 14.395,14.155C15.584,12.648 17.003,11.838 18.388,11.352C18.263,11.443 18.141,11.534 18.021,11.628C16.941,12.269 15.927,13.038 15.019,14.003C14.774,14.316 14.662,14.699 14.434,14.976L13.95,15.707C13.308,16.313 12.924,17.04 12.506,17.81C10.694,21.81 10.912,26.789 13.399,30.976C8.902,24.748 10.676,15.847 15.999,11.906C18.213,10.158 20.781,9.306 23.301,9.166C22.525,9.326 21.776,9.562 21.057,9.856ZM29.227,34.5C28.809,34.574 29.456,34.393 31.339,33.281C31.503,33.186 31.68,33.073 31.865,32.951C32.599,32.561 33.294,32.1 33.936,31.574C32.082,33.37 29.804,34.509 29.227,34.5Z" style="fill:rgb(255,128,0);"/>
                <path id="Fill-3" d="M49.862,24.576C49.862,28.725 52.522,29.715 56.65,29.715L63.557,29.715L63.557,35.893L55.567,35.893C47.402,35.893 42.73,33.03 42.73,22.224C42.73,12.873 44.257,7.956 54.879,7.956C63.307,7.956 65.355,11.4 65.355,18.859L65.355,24.63L49.862,24.576ZM58.666,18.89C58.666,16.155 58.68,13.479 54.484,13.479C50.342,13.479 49.813,16.043 49.813,18.89L58.666,18.89Z" style="fill:rgb(54,57,64);"/>
                <path id="Fill-4" d="M117.152,7.956L93.21,7.956L93.21,35.893L99.196,35.893L99.196,13.942L103.417,13.942L103.417,13.944C104.854,13.944 106.025,15.037 106.179,16.436L106.179,35.893L112.164,35.893L112.164,13.942L116.354,13.942L116.354,13.944C117.893,13.944 119.146,15.197 119.146,16.736L119.146,35.893L125.131,35.893L125.131,15.937C125.131,11.533 121.561,7.956 117.152,7.956" style="fill:rgb(54,57,64);"/>
                <path id="Fill-5" d="M78.049,13.944L78.049,13.942L89.222,13.942L89.222,7.956L77.008,7.956L77.003,7.971C73.069,8.09 69.859,11.053 69.349,14.878L69.269,14.878L69.269,27.848L69.349,27.848L69.269,27.912C69.269,32.232 72.711,35.748 77.003,35.879L77.008,35.893L89.222,35.893L89.222,29.904L78.049,29.904C76.508,29.904 75.255,28.652 75.255,27.11L75.255,16.736C75.255,15.197 76.508,13.944 78.049,13.944" style="fill:rgb(54,57,64);"/>
                <path id="Fill-6" d="M149.073,15.937C149.073,11.533 145.5,7.956 141.092,7.956L129.122,7.956L129.122,13.942L140.295,13.942L140.295,13.944C142.172,13.944 143.088,15.197 143.088,16.736C143.088,16.736 143.088,17.159 142.208,17.853C141.065,18.748 136.33,20.04 133.749,21.071L133.749,21.058C129.723,22.405 127.874,24.92 127.874,28.86C127.874,33.979 130.128,35.957 134.558,35.957L149.073,35.957C148.945,32.951 149.073,15.937 149.073,15.937ZM143.088,30.053L134.556,30.053C134.019,30.053 133.707,30.053 133.666,29.672C133.259,26.012 135.481,26.151 143.088,23.53L143.088,30.053Z" style="fill:rgb(54,57,64);"/>
                <rect id="Fill-7" x="99.283" y="44.446" width="1.797" height="8.957" style="fill:rgb(187,199,193);"/>
                <path id="Fill-8" d="M103.298,44.446L105.505,44.446L108.918,51.144L108.944,51.144L108.944,44.446L110.663,44.446L110.663,53.402L108.469,53.402L105.044,46.704L105.018,46.704L105.018,53.402L103.298,53.402L103.298,44.446" style="fill:rgb(187,199,193);"/>
                <path id="Fill-9" d="M114.666,45.857L112.1,45.857L112.1,44.446L119.027,44.446L119.027,45.857L116.462,45.857L116.462,53.402L114.666,53.402L114.666,45.857" style="fill:rgb(187,199,193);"/>
                <path id="Fill-10" d="M120.555,44.446L125.84,44.446L125.84,45.857L122.351,45.857L122.351,48.064L125.546,48.064L125.546,49.476L122.351,49.476L122.351,51.991L125.866,51.991L125.866,53.402L120.555,53.402L120.555,44.446" style="fill:rgb(187,199,193);"/>
                <path id="Fill-11" d="M127.919,44.446L129.856,44.446C131.781,44.446 134.077,44.382 134.077,46.87C134.077,47.923 133.371,48.796 132.23,48.949L132.23,48.975C132.718,49.013 132.999,49.501 133.179,49.9L134.615,53.402L132.614,53.402L131.537,50.604C131.28,49.938 131.049,49.681 130.292,49.681L129.714,49.681L129.714,53.402L127.919,53.402L127.919,44.446ZM129.714,48.27L130.306,48.27C131.19,48.27 132.204,48.141 132.204,47.025C132.204,45.947 131.204,45.857 130.306,45.857L129.714,45.857L129.714,48.27Z" style="fill:rgb(187,199,193);"/>
                <path id="Fill-12" d="M136.207,44.446L138.414,44.446L141.826,51.144L141.853,51.144L141.853,44.446L143.571,44.446L143.571,53.402L141.377,53.402L137.952,46.704L137.927,46.704L137.927,53.402L136.207,53.402L136.207,44.446" style="fill:rgb(187,199,193);"/>
                <path id="Fill-13" d="M148.511,44.446L150.537,44.446L154.053,53.402L152.065,53.402L151.294,51.349L147.664,51.349L146.881,53.402L145.021,53.402L148.511,44.446ZM149.498,46.242L149.473,46.242L148.176,49.938L150.794,49.938L149.498,46.242Z" style="fill:rgb(187,199,193);"/>
                <path id="Fill-14" d="M156.197,45.857L153.632,45.857L153.632,44.446L160.559,44.446L160.559,45.857L157.994,45.857L157.994,53.402L156.197,53.402L156.197,45.857" style="fill:rgb(187,199,193);"/>
                <rect id="Fill-15" x="161.932" y="44.446" width="1.796" height="8.957" style="fill:rgb(187,199,193);"/>
                <path id="Fill-16" d="M169.989,44.292C172.799,44.292 174.377,46.191 174.377,48.898C174.377,51.606 172.825,53.556 169.989,53.556C167.115,53.556 165.601,51.644 165.601,48.898C165.601,46.152 167.141,44.292 169.989,44.292ZM169.989,52.145C171.824,52.145 172.503,50.515 172.503,48.898C172.503,47.32 171.773,45.703 169.989,45.703C168.206,45.703 167.474,47.32 167.474,48.898C167.474,50.515 168.155,52.145 169.989,52.145Z" style="fill:rgb(187,199,193);"/>
                <path id="Fill-17" d="M176.314,44.446L178.521,44.446L181.934,51.144L181.96,51.144L181.96,44.446L183.679,44.446L183.679,53.402L181.485,53.402L178.059,46.704L178.034,46.704L178.034,53.402L176.314,53.402L176.314,44.446" style="fill:rgb(187,199,193);"/>
                <path id="Fill-18" d="M188.618,44.446L190.645,44.446L194.16,53.402L192.172,53.402L191.402,51.349L187.771,51.349L186.988,53.402L185.129,53.402L188.618,44.446ZM189.606,46.242L189.581,46.242L188.284,49.938L190.901,49.938L189.606,46.242Z" style="fill:rgb(187,199,193);"/>
                <path id="Fill-19" d="M195.7,44.446L197.496,44.446L197.496,51.991L200.973,51.991L200.973,53.402L195.7,53.402L195.7,44.446" style="fill:rgb(187,199,193);"/>
            </g>
        </g>
    </g>
</svg>
