<?xml version="1.0" encoding="UTF-8" standalone="no"?>
<!DOCTYPE svg PUBLIC "-//W3C//DTD SVG 1.1//EN" "http://www.w3.org/Graphics/SVG/1.1/DTD/svg11.dtd">
<svg width="100%" height="100%" viewBox="0 0 1000 400" version="1.1" xmlns="http://www.w3.org/2000/svg" xmlns:xlink="http://www.w3.org/1999/xlink" xml:space="preserve" xmlns:serif="http://www.serif.com/" style="fill-rule:evenodd;clip-rule:evenodd;stroke-linejoin:round;stroke-miterlimit:2;">
    <g id="rect10" transform="matrix(0.708673,0.000355719,-0.000355719,0.708673,288.828,-11.3836)">
        <rect x="108.436" y="108.436" width="379.391" height="379.391"/>
    </g>
    <g id="rect1726" transform="matrix(0.708673,0.000355719,-0.000355719,0.708673,288.828,-11.3836)">
        <path d="M124.802,306.314L124.802,471.46L289.948,471.46L289.948,397.07L273.399,397.07L273.399,380.704L289.948,380.704L289.948,306.314L124.802,306.314Z" style="fill:rgb(156,156,156);fill-rule:nonzero;"/>
    </g>
    <g id="rect127-6" transform="matrix(0.708673,0.000355719,-0.000355719,0.708673,288.828,-11.3836)">
        <path d="M306.315,124.802L306.315,289.947L352.616,289.947L352.616,177.65L359.161,177.65L359.161,177.649L362.465,177.649L362.465,177.65L368.983,177.65L368.983,289.947L408.779,289.947L408.779,177.649L425.146,177.649L425.146,289.947L471.461,289.947L471.461,124.802L306.315,124.802Z" style="fill:rgb(156,156,156);fill-rule:nonzero;"/>
    </g>
    <g id="rect127" transform="matrix(0.708673,0.000355719,-0.000355719,0.708673,288.828,-11.3836)">
        <path d="M124.802,124.802L124.802,289.947L289.948,289.947L289.948,243.597L177.65,243.597L177.65,227.231L289.948,227.231L289.948,187.484L177.65,187.484L177.65,171.118L289.948,171.118L289.948,124.802L124.802,124.802Z" style="fill:rgb(156,156,156);fill-rule:nonzero;"/>
    </g>
    <g id="rect85-8-1" transform="matrix(0.708673,0.000355719,-0.000355719,0.708673,288.828,-11.3836)">
        <path d="M306.315,306.314L306.315,471.46L380.704,471.46L380.704,418.613L397.071,418.613L397.071,471.46L471.461,471.46L471.461,306.314L306.315,306.314ZM380.704,352.629L397.071,352.629L397.071,368.995L380.704,368.995L380.704,352.629Z" style="fill:rgb(156,156,156);fill-rule:nonzero;"/>
    </g>
    <g id="rect1210-7-7-8-8" transform="matrix(-0.708673,-0.000355719,-0.000355719,0.708673,288.828,-11.3836)">
        <rect x="-237.102" y="352.262" width="59.452" height="16.366"/>
    </g>
    <g id="rect1210-7-7-8-8-4" transform="matrix(-0.708673,-0.000355719,-0.000355719,0.708673,288.828,-11.3836)">
        <rect x="-237.102" y="408.376" width="59.452" height="16.366"/>
    </g>
    <g id="g950" transform="matrix(0.686564,0.000344621,-0.000344621,0.686564,299.023,-0.92267)">
        <g id="g903">
            <path id="rect1210-09-7-1-5-4" d="M539.36,284.056L505.573,284.056L505.573,300.95L539.36,300.95L539.36,284.056Z" style="fill-rule:nonzero;"/>
            <path id="rect1210-09-7-1-7-7-5" d="M539.36,141.91L505.573,141.91L505.573,158.804L539.36,158.804L539.36,141.91Z" style="fill-rule:nonzero;"/>
            <path id="rect1210-09-7-1-0-2-2" d="M539.36,212.983L505.573,212.983L505.573,229.877L539.36,229.877L539.36,212.983Z" style="fill-rule:nonzero;"/>
            <path id="rect1210-09-7-1-0-8-5-8" d="M539.36,355.128L505.573,355.128L505.573,372.022L539.36,372.022L539.36,355.128Z" style="fill-rule:nonzero;"/>
            <path id="rect1210-09-7-1-7-9-9-5" d="M539.36,426.201L505.573,426.201L505.573,443.095L539.36,443.095L539.36,426.201Z" style="fill-rule:nonzero;"/>
        </g>
        <g id="g910">
            <path id="rect1210-09-7-1" d="M284.429,46.019L284.429,79.805L301.323,79.805L301.323,46.019L284.429,46.019Z" style="fill-rule:nonzero;"/>
            <path id="rect1210-09-7-1-7" d="M142.283,46.019L142.283,79.805L159.177,79.805L159.177,46.019L142.283,46.019Z" style="fill-rule:nonzero;"/>
            <path id="rect1210-09-7-1-0" d="M213.356,46.019L213.356,79.805L230.25,79.805L230.25,46.019L213.356,46.019Z" style="fill-rule:nonzero;"/>
            <path id="rect1210-09-7-1-0-8" d="M355.501,46.019L355.501,79.805L372.396,79.805L372.396,46.019L355.501,46.019Z" style="fill-rule:nonzero;"/>
            <path id="rect1210-09-7-1-7-9" d="M426.574,46.019L426.574,79.805L443.468,79.805L443.468,46.019L426.574,46.019Z" style="fill-rule:nonzero;"/>
        </g>
        <g id="g924">
            <path id="rect1210-09-7-1-5" d="M284.429,505.2L284.429,538.987L301.323,538.987L301.323,505.2L284.429,505.2Z" style="fill-rule:nonzero;"/>
            <path id="rect1210-09-7-1-7-7" d="M142.283,505.2L142.283,538.987L159.177,538.987L159.177,505.2L142.283,505.2Z" style="fill-rule:nonzero;"/>
            <path id="rect1210-09-7-1-0-2" d="M213.356,505.2L213.356,538.987L230.25,538.987L230.25,505.2L213.356,505.2Z" style="fill-rule:nonzero;"/>
            <path id="rect1210-09-7-1-0-8-5" d="M355.501,505.2L355.501,538.987L372.396,538.987L372.396,505.2L355.501,505.2Z" style="fill-rule:nonzero;"/>
            <path id="rect1210-09-7-1-7-9-9" d="M426.574,505.2L426.574,538.987L443.468,538.987L443.468,505.2L426.574,505.2Z" style="fill-rule:nonzero;"/>
        </g>
        <g id="g917">
            <path id="rect1210-09-7-1-5-4-9" d="M80.178,284.056L46.392,284.056L46.392,300.95L80.178,300.95L80.178,284.056Z" style="fill-rule:nonzero;"/>
            <path id="rect1210-09-7-1-7-7-5-1" d="M80.178,141.91L46.392,141.91L46.392,158.804L80.178,158.804L80.178,141.91Z" style="fill-rule:nonzero;"/>
            <path id="rect1210-09-7-1-0-2-2-0" d="M80.178,212.983L46.392,212.983L46.392,229.877L80.178,229.877L80.178,212.983Z" style="fill-rule:nonzero;"/>
            <path id="rect1210-09-7-1-0-8-5-8-8" d="M80.178,355.128L46.392,355.128L46.392,372.022L80.178,372.022L80.178,355.128Z" style="fill-rule:nonzero;"/>
            <path id="rect1210-09-7-1-7-9-9-5-7" d="M80.178,426.201L46.392,426.201L46.392,443.095L80.178,443.095L80.178,426.201Z" style="fill-rule:nonzero;"/>
        </g>
    </g>
</svg>
