<svg width="125" height="51" viewBox="0 0 125 51" fill="none" xmlns="http://www.w3.org/2000/svg">
<path d="M28.7177 35.1143H26.8945V51.0001H38.922V49.3058H28.7177V35.1143Z" fill="#333333"/>
<path d="M51.0082 35.1143L42.9219 50.9955H44.8811L47.2031 46.4296H56.6772L58.9993 50.9955H61.0492L52.9402 35.1143H51.0037H51.0082ZM47.956 44.8738L51.8744 37.104H51.9651L55.9063 44.8738H47.956Z" fill="#333333"/>
<path d="M77.1371 42.9302V42.8379C78.9602 42.2331 79.6904 40.9589 79.6904 39.2462C79.6904 37.9489 79.2823 36.8594 78.1893 36.1161C76.7335 35.1881 74.7969 35.1189 71.722 35.1189H66.2344V51.0001H72.4975C75.6631 51.0001 77.7811 50.9309 79.2188 49.7259C80.0396 49.0519 80.5385 48.1009 80.5385 46.7343C80.5385 44.3706 79.1734 43.3273 77.1462 42.9302H77.1371ZM68.0485 36.6701H72.3524C75.6541 36.6701 77.8627 36.9009 77.8627 39.4539C77.8627 41.7714 76.1303 42.3301 72.3524 42.3301H68.0485V36.6701ZM73.196 49.4443H68.0485V43.8582H73.196C76.3616 43.8582 78.6836 44.0659 78.6836 46.642C78.6836 48.9826 77.0418 49.4489 73.196 49.4489V49.4443Z" fill="#333333"/>
<path d="M93.0011 42.1869C91.6632 41.9653 90.5248 41.7621 89.45 41.4297C88.1574 41.0281 87.7855 40.3125 87.7855 39.1768C87.7855 38.175 88.1166 37.3717 89.45 36.947C90.2391 36.7254 91.2459 36.6331 92.3434 36.6331C93.7221 36.6331 95.4138 36.7439 97.1644 36.9239V35.3173C95.4319 35.1834 93.8764 35.0957 92.3661 35.0957C91.0963 35.0957 89.4726 35.2065 88.2889 35.7651C86.5792 36.5453 86.1211 37.995 86.1211 39.38C86.1211 42.1222 87.8082 43.0178 91.0328 43.5765C92.5022 43.8442 93.4863 44.0012 94.7154 44.3567C96.0306 44.7814 96.4251 45.5385 96.4251 46.6973C96.4251 47.7453 96.0986 48.6594 94.738 49.061C93.9036 49.3057 92.8514 49.3934 91.5588 49.3934C90.0259 49.3934 88.1166 49.2826 86.1438 49.1026V50.7738C88.1166 50.9077 89.8717 50.9954 91.5997 50.9954C93.0464 50.9954 94.6473 50.8846 95.8537 50.3029C97.627 49.4765 98.1123 47.9807 98.1123 46.5542C98.1123 43.678 96.339 42.7178 93.0056 42.1823L93.0011 42.1869Z" fill="#333333"/>
<path d="M8.0944 13.7391H15.2601V8.2684H8.0944V5.5492H19.0833V0.00463867H1.66797V13.7437H8.0944V13.7391Z" fill="#333333"/>
<path d="M19.0846 16.7722H8.10938V22.3168H19.0846V16.7722Z" fill="#333333"/>
<path d="M31.8698 10.9183C31.8698 10.9183 32.3415 11.9155 32.8494 12.6034L39.8155 22.3122H45.3984V0H38.972V11.5693C38.972 11.5693 38.5003 10.5721 37.9924 9.88421L31.0262 0.00462115H25.4434V22.3168H31.8698V10.923V10.9183Z" fill="#333333"/>
<path d="M88.6272 0.00463867C81.838 0.00463867 77.3027 4.95366 77.3027 11.103C77.3027 17.2524 81.838 22.266 88.6272 22.266C95.4165 22.266 99.9834 17.317 99.9834 11.103C99.9834 4.88903 95.4119 0.00463867 88.6272 0.00463867ZM88.6272 16.5506C85.7882 16.5506 83.7654 14.2931 83.7654 11.103C83.7654 7.91293 85.9514 5.72001 88.6272 5.72001C91.498 5.72001 93.5207 7.97756 93.5207 11.103C93.5207 14.2285 91.498 16.5506 88.6272 16.5506Z" fill="#333333"/>
<path d="M120.912 15.6689C123.212 14.0531 124.364 11.3985 124.364 8.81778C124.364 3.96108 120.912 0.00463867 114.182 0.00463867H104.508V5.56768H110.935V5.5446H114.282C116.209 5.5446 117.561 6.98959 117.561 8.81316C117.561 10.6367 116.241 12.0817 114.246 12.0817H113.593V12.1002H104.504V22.303H110.93V17.6217H113.57C114.11 17.6217 114.481 17.5894 115.157 17.5201L117.661 22.3076H124.999L120.908 15.6643L120.912 15.6689Z" fill="#333333"/>
<path d="M6.44003 19.5422C6.44003 17.7325 4.99782 16.2644 3.22001 16.2644C1.4422 16.2644 0 17.7325 0 19.5422C0 21.3519 1.4422 22.82 3.22001 22.82C4.99782 22.82 6.44003 21.3519 6.44003 19.5422Z" fill="#00F078"/>
<path d="M60.8898 0.00463867H51.7559V13.7899H58.1823V5.5492H60.6494C63.9284 5.5492 66.0282 7.9591 66.0282 11.163C66.0282 14.367 63.933 16.7769 60.6494 16.7769H51.7559V22.3214H60.8898C68.2278 22.3214 72.8311 17.2616 72.8311 11.1677C72.8311 5.0737 68.2324 0.0138528 60.8898 0.0138528V0.00463867Z" fill="#333333"/>
</svg>
