<?xml version="1.0" encoding="UTF-8" standalone="no"?>
<!DOCTYPE svg PUBLIC "-//W3C//DTD SVG 1.1//EN" "http://www.w3.org/Graphics/SVG/1.1/DTD/svg11.dtd">
<svg width="100%" height="100%" viewBox="0 0 1664 432" version="1.1" xmlns="http://www.w3.org/2000/svg" xmlns:xlink="http://www.w3.org/1999/xlink" xml:space="preserve" xmlns:serif="http://www.serif.com/" style="fill-rule:evenodd;clip-rule:evenodd;stroke-linejoin:round;stroke-miterlimit:2;">
    <defs>
        <linearGradient id="grad1" x1="0%" y1="0%" x2="100%" y2="0%">
            <stop offset="0%" style="stop-color:rgb(142,81,242);stop-opacity:1" />
            <stop offset="100%" style="stop-color:rgb(84,44,146);stop-opacity:1" />
        </linearGradient>
    </defs>
    <g id="enso">
        <path d="M619.97,124.93C637.84,114.92 658.51,110.19 678.94,110.85C698.42,111.18 718.05,116.07 734.72,126.34C751.94,136.82 765.4,152.82 774.14,170.88C786.9,197.4 791.07,227.82 787.12,256.9C732.67,256.78 678.22,256.85 623.77,256.87C627.16,273.83 638.24,289.47 653.95,297.08C666.4,303.41 680.88,304.2 694.52,302.41C708.59,300.4 721.55,293.46 732.2,284.21C735.85,281.13 739.23,277.75 742.76,274.54C755.3,285.72 767.88,296.85 780.45,308C770.76,320.43 759.06,331.44 745.44,339.47C725.55,351.39 702.06,356.62 678.99,356.03C643.77,356.14 608.23,340.56 586.36,312.59C561.42,281.49 555.07,238.37 564.21,200.2C571.52,168.94 591.72,140.54 619.97,124.93M647.18,172.26C633.95,181.48 626.24,196.68 622.99,212.15C657.35,212.17 691.71,212.21 726.06,212.13C724.25,202.39 720.98,192.79 715.36,184.56C710.02,176.57 702.3,170.14 693.27,166.77C678.21,161.2 660.38,162.89 647.18,172.26Z" style="fill:#542c92;fill-rule:nonzero;"/>
        <path d="M966.11,115.89C981.37,110.28 998.1,109.68 1014.05,112.18C1031.58,115 1048.51,123.26 1060.26,136.76C1071.62,149.54 1078.03,166.09 1080.48,182.86C1082.39,194.82 1081.72,206.93 1081.83,218.98C1081.86,262.98 1081.77,306.98 1081.88,350.97C1061.17,351.09 1040.46,351.01 1019.75,351.01C1019.71,308.68 1019.74,266.34 1019.73,224C1019.91,212.39 1019.24,200.33 1014.14,189.69C1009.88,180.43 1001.54,173.14 991.71,170.36C979.05,166.74 964.77,167.65 953.2,174.18C942.83,180.08 936.01,190.89 933.36,202.34C930.93,211.72 931.63,221.47 931.55,231.06C931.53,271.05 931.58,311.04 931.52,351.03C910.73,351 889.93,351.09 869.13,350.98C869.15,272.53 869.24,194.08 869.09,115.64C889.89,115.2 910.71,115.54 931.53,115.47C931.49,123.59 931.71,131.72 931.39,139.83C941.05,129.48 952.63,120.59 966.11,115.89Z" style="fill:#542c92;fill-rule:nonzero;"/>
        <path d="M1536.58,110.8C1573.08,109.94 1610.01,125.2 1633.99,152.97C1646.99,167.78 1656.22,185.85 1660.59,205.06C1661.92,210.65 1662.46,216.39 1663.75,221.99C1662.58,229.57 1662.61,237.41 1663.75,245C1662.02,252.64 1661.25,260.49 1658.89,267.98C1650.36,297.99 1629.51,324.09 1602.37,339.39C1563.15,361.77 1512.02,361.82 1472.99,338.95C1446.94,323.94 1426.9,298.81 1418.38,269.95C1410.86,244.73 1411.51,217.13 1420.24,192.3C1430.75,162.04 1454.01,136.63 1483,123.09C1499.69,115.16 1518.12,111.06 1536.58,110.8M1525.55,167.71C1513.54,169.97 1502.2,175.88 1493.72,184.72C1481.3,197.4 1475.22,215.44 1475.52,233.01C1475.13,249.66 1481.02,266.44 1491.98,279.01C1503.56,292.43 1521.16,300.69 1538.96,300.19C1557.95,300.65 1576.95,291.59 1588.27,276.29C1597.59,263.98 1601.8,248.32 1601.47,233C1601.45,214.84 1594.5,196.45 1581.23,183.84C1566.84,169.66 1545.24,163.9 1525.55,167.71Z" style="fill:#542c92;fill-rule:nonzero;"/>
        <path d="M1216.25,117.06C1240.41,108.97 1266.88,110.64 1291.13,117.47C1308.74,122.51 1325.76,130.16 1340.61,140.94C1332.08,156.15 1323.7,171.45 1315.06,186.61C1296.83,175.2 1276.74,165.58 1255.09,163.42C1246,162.81 1235.78,163.3 1228.48,169.44C1222.97,173.84 1221.45,183.14 1226.7,188.31C1232.53,194.52 1240.83,197.39 1248.58,200.41C1271.39,208.78 1296.02,213.6 1316.29,227.72C1330.08,236.83 1340.77,251.27 1343.2,267.86C1345.94,287.28 1342.11,308.22 1330.25,324.16C1320.71,337.08 1306.33,345.78 1291.1,350.37C1272.05,356.02 1251.74,356.42 1232.18,353.49C1203.09,349 1175.53,336.23 1152.74,317.7C1161.8,302.77 1172,288.51 1181.34,273.73C1196.13,284.81 1212.24,294.56 1230.13,299.71C1242.85,303.32 1256.51,305.26 1269.56,302.27C1275.65,300.85 1281.97,297.66 1284.68,291.71C1286.58,287.1 1286.95,281.23 1283.75,277.1C1280.19,272.46 1274.8,269.77 1269.56,267.5C1252.17,260.29 1233.56,256.69 1216,249.99C1203.53,245.19 1191.42,238.66 1182.06,228.98C1173.59,220.41 1168.05,209.08 1166.33,197.18C1164.24,182.26 1166.13,166.55 1173.04,153.05C1181.66,135.69 1198.08,123.14 1216.25,117.06Z" style="fill:#542c92;fill-rule:nonzero;"/>
    </g>
    <g id="symbol" fill="url(#grad1)">
        <path d="M207.64,1.91C214.05,1.18 220.51,1.11 226.96,1.19C263.83,0.14 300.76,9.46 333.34,26.6C362.67,42.08 388.47,64.17 408.29,90.76C435.07,126.44 450.74,170.35 452.38,214.96C452.41,220.83 453.88,227.76 449.48,232.53C444.52,238.75 433.81,238.18 429.43,231.6C426.83,228.3 427.18,223.96 427.03,220.03C426.45,185.72 416.57,151.61 398.78,122.27C382.11,94.48 358.51,70.92 330.73,54.25C303.2,37.62 271.53,27.94 239.42,26.3C233,25.42 226.51,25.76 220.08,26.27C181.86,27.77 144.27,41 113.31,63.41C71.77,93.16 42.46,139.52 33.84,189.93C31.39,202.17 31.28,214.66 30.55,227.07C29.44,232.7 23.79,237.01 18.05,236.6C12.61,236.68 7.24,232.41 6.36,227.03C6.23,216.92 6,206.73 7.64,196.71C13.3,148.7 35.52,102.89 69.37,68.4C105.69,30.85 155.6,6.74 207.64,1.91Z" style="fill-rule:nonzero;"/>
        <path d="M209.63,48.9C235.67,46.4 262.4,48.71 287.02,57.95C322.69,70.83 353.61,96.2 373.41,128.52C390.08,155.49 398.85,187.29 398.26,219.01C398.02,224.03 399.33,229.73 395.97,234.03C391.83,240.09 382.26,241.11 377.01,235.96C373.56,233.04 372.53,228.31 372.95,223.99C373.68,199.58 368.93,174.88 357.88,153.02C343.93,124.85 320.5,101.52 292.27,87.69C255.41,69.29 210.57,68.11 172.76,84.43C134.69,100.51 104.29,133.72 91.93,173.19C86.44,189.86 84.62,207.53 85.21,225.02C85.69,230.54 82.49,236.31 77.17,238.21C72.2,240.45 65.92,238.49 62.78,234.12C58.99,229.98 60.64,224.02 60.29,218.97C59.17,174 77.77,129.27 109.51,97.55C136.18,70.71 172.02,53.22 209.63,48.9Z" style="fill-rule:nonzero;"/>
        <path d="M221.35,97.45C228.37,97.39 235.43,97.1 242.43,97.89C291.63,103.92 334.64,145.53 340.86,194.96C343.93,220.88 338.36,247.75 325.28,270.34C319.5,280.51 312.2,289.75 303.98,298.06C299.01,302.97 297.14,310.42 298.15,317.22C299.03,326.53 303.24,335.47 309.82,342.1C319.23,351.93 333.69,356.69 347.08,354.03C362.59,351.34 375.9,339.13 379.93,323.92C382.18,316.79 380.78,309.16 382.6,301.96C386.37,284.15 400.59,269.19 418.12,264.38C427.16,261.74 436.67,262.54 445.95,262.52C453.14,262.74 458.96,270.05 457.68,277.1C456.97,282.46 452.55,287.04 447.16,287.77C441.1,288.45 434.98,287.68 428.91,288.14C419.1,289.16 410.39,296.63 407.78,306.12C406.35,310.64 407.01,315.43 406.43,320.07C404.68,337.71 395.47,354.44 381.55,365.4C369.66,375.01 354.33,380.32 339.03,379.95C322,380.03 305.15,372.96 293,361.08C282.29,350.79 275.26,336.82 273.29,322.11C271.67,310.84 273.29,298.92 279.19,289.06C282.05,284.14 285.95,279.96 289.96,275.96C306.68,257.96 316.45,233.58 316.35,208.97C316.65,193.53 312.22,178.08 304.07,164.99C292.85,147.01 275.14,133.35 255.15,126.47C246.74,123.64 237.88,122.13 229,122.62C211.46,121.74 194.38,128.38 180.01,138.03C165.81,147.93 153.94,161.58 147.53,177.78C133.88,211.98 144.98,252.83 170.54,278.5C177.36,284.95 182.41,293.36 184.37,302.59C186.52,313.08 185.22,324.08 181.99,334.21C175.26,354.62 158.16,371.27 137.46,377.17C128.57,379.97 119.12,380.18 109.91,379.38C94.29,377.36 79.57,369.57 68.96,357.97C59.4,347.22 52.92,333.4 52.1,318.94C51.28,314.61 52.08,310.09 50.66,305.86C47.72,295.95 38.35,288.31 28.01,287.68C22.64,287.58 17.26,287.86 11.89,287.58C7.21,287.38 3.12,283.94 1.46,279.67C1.31,275.58 0.34,270.78 3.37,267.45C6.95,262.65 13.58,262.25 19.03,262.84C23.98,263.84 29.04,262.98 34.03,263.37C54.13,266.06 71.5,282.45 75.47,302.32C76.69,306.79 76.51,311.44 76.66,316.03C77.61,328.43 84.36,340.36 94.68,347.36C101.49,352.09 109.72,354.88 118.04,354.81C131.91,355.16 145.71,347.87 153.28,336.25C157.43,330.3 159.65,323.17 160.38,315.99C160.97,310.17 159.45,304.06 155.7,299.5C153.56,296.93 151.14,294.6 148.88,292.14C130.73,272.04 119.17,245.96 117.12,218.91C114.5,193.46 121.8,167.31 136.64,146.53C156.1,119.2 187.48,99.49 221.35,97.45Z" style="fill-rule:nonzero;"/>
        <path d="M226.65,154.89C243.44,153.52 260.17,164.85 265.08,180.97C268.5,191.53 266.88,203.55 260.83,212.85C255.3,221.49 246.05,227.69 235.93,229.41C228.37,230.43 220.38,229.89 213.44,226.52C203.06,221.76 195.05,212.03 192.61,200.85C190.22,191.25 192.17,180.76 197.41,172.42C203.72,162.43 214.83,155.7 226.65,154.89M226.32,177.52C220.46,178.53 215.59,183.31 214.31,189.1C211.95,197.68 219.08,207.14 227.93,207.55C237.29,208.57 245.85,199.18 243.99,189.96C242.82,181.86 234.36,175.89 226.32,177.52Z" style="fill-rule:nonzero;"/>
        <path d="M186.64,246.95C195.09,245.74 204.12,248.84 209.97,255.09C214.91,260.04 217.52,267.06 217.55,274C217.5,276.2 216.24,278.41 214.13,279.23C202.33,284.5 187.04,279.7 180.51,268.51C177.56,263.76 175.97,258.02 176.61,252.43C177.81,248.18 183.05,247.88 186.64,246.95Z" style="fill-rule:nonzero;"/>
        <path d="M262.28,247.3C267.53,246.02 273.14,246.58 278.17,248.51C280.43,249.25 282.15,251.48 282.05,253.9C282.32,263.19 277.25,272.4 269.31,277.21C263.22,281.02 255.62,282.05 248.65,280.48C245.39,279.77 241.04,278.4 240.93,274.37C240.49,261.81 249.96,249.81 262.28,247.3Z" style="fill-rule:nonzero;"/>
        <path d="M216.6,323.95C217.09,316.59 224.95,310.9 232.09,312.89C237.53,314.16 241.6,319.35 241.75,324.91C243.82,343.36 251.6,361.15 263.97,375.01C278.04,391.1 298.01,401.91 319.18,404.92C339.96,407.95 361.79,403.76 379.74,392.79C403.8,378.57 420.42,352.67 423.39,324.89C423.82,318.2 430.21,312.64 436.92,313.34C443.42,313.55 448.97,319.51 448.85,325.99C446.16,355.99 431.07,384.65 407.91,403.91C392.25,417.08 373.08,426.05 352.89,429.49C346.33,430.74 339.63,430.78 333.05,431.82C323.23,430.75 313.25,430.19 303.67,427.54C273.74,420.04 247.15,400.09 231.77,373.32C230.91,371.79 230.02,370.26 229.07,368.79C210.48,404.52 172.3,429.26 131.97,430.75C127.29,430.73 122.62,430.76 117.95,430.73C93.56,429.31 69.69,419.88 50.99,404.14C27.57,384.94 12.39,356.12 9.62,325.98C9.52,319.07 16.11,312.87 23.04,313.59C28.38,313.88 33.2,317.92 34.33,323.15C36.15,341.32 43.33,359 55.11,373C75.85,398.38 111.08,411.23 143.22,404.37C164.15,400.3 183.59,388.7 196.88,372.01C207.9,358.33 214.87,341.43 216.6,323.95Z" style="fill-rule:nonzero;"/>
    </g>
</svg>
