<?xml version="1.0" encoding="UTF-8" ?>
<!DOCTYPE svg PUBLIC "-//W3C//DTD SVG 1.1//EN" "http://www.w3.org/Graphics/SVG/1.1/DTD/svg11.dtd">
<svg width="1350pt" height="707pt" viewBox="0 0 1350 707" version="1.1" xmlns="http://www.w3.org/2000/svg">
<g id="#ffffffff">
</g>
<g id="#f87b28ff">
<path fill="#f87b28" opacity="1.00" d=" M 575.31 296.58 C 607.97 278.06 640.35 259.03 672.90 240.31 C 694.46 252.61 715.87 265.18 737.40 277.54 C 734.89 279.69 732.32 281.76 729.70 283.77 C 710.73 273.02 692.05 261.72 672.98 251.19 C 664.80 255.40 656.91 260.35 648.87 264.90 C 627.36 277.35 605.83 289.75 584.32 302.19 C 584.23 307.29 584.53 312.41 584.20 317.49 C 583.82 318.62 583.48 319.77 583.20 320.93 C 582.61 337.20 583.60 353.57 581.81 369.79 C 581.00 368.73 580.20 367.66 579.40 366.61 C 578.33 366.45 577.27 366.29 576.22 366.14 C 576.16 354.76 576.13 343.37 576.13 331.99 C 576.13 329.80 575.67 327.65 575.28 325.50 C 575.18 315.87 575.16 306.22 575.31 296.58 Z" />
</g>
<g id="#f57729ff">
<path fill="#f57729" opacity="1.00" d=" M 596.93 309.10 C 619.96 295.53 643.01 281.95 666.07 268.44 L 667.38 268.24 C 667.11 280.83 667.47 293.43 667.37 306.02 C 654.64 313.08 642.17 320.63 629.58 327.95 C 629.58 332.04 629.48 336.13 629.57 340.23 L 630.25 340.81 C 629.84 341.59 629.45 342.37 629.03 343.14 C 626.18 342.09 624.34 344.98 622.66 346.76 C 620.15 349.32 621.37 353.16 621.51 356.33 L 621.56 356.82 C 621.27 356.81 620.69 356.79 620.40 356.78 C 620.46 345.39 620.20 333.99 620.33 322.59 C 632.95 315.13 645.76 307.97 658.24 300.28 C 658.13 295.01 658.17 289.74 658.20 284.47 L 657.13 284.37 C 640.03 294.52 622.79 304.47 605.76 314.75 C 605.76 343.97 605.92 373.20 605.71 402.42 C 602.61 400.66 599.52 398.87 596.39 397.18 C 596.38 369.47 596.56 341.76 596.56 314.05 C 596.76 312.43 596.06 310.54 596.93 309.10 Z" />
</g>
<g id="#f47429ff">
<path fill="#f47429" opacity="1.00" d=" M 678.61 268.03 C 688.49 272.98 697.75 279.15 707.40 284.57 C 718.64 291.20 729.91 297.77 741.16 304.40 C 740.62 305.58 740.09 306.75 739.53 307.92 C 737.93 306.75 736.27 305.68 734.41 305.02 C 734.85 306.09 735.30 307.16 735.77 308.23 C 734.70 308.85 733.62 309.47 732.56 310.10 C 717.77 301.44 703.04 292.66 688.20 284.09 C 688.12 284.55 687.96 285.47 687.87 285.93 C 687.80 300.71 687.92 315.49 687.83 330.26 C 686.63 325.89 686.99 321.33 686.47 316.86 C 685.51 326.25 686.56 335.77 684.53 345.08 C 683.64 343.30 682.75 341.51 681.87 339.74 C 681.36 341.15 680.85 342.56 680.35 343.99 C 680.10 334.99 680.30 326.00 680.12 317.00 C 680.10 315.07 679.38 313.27 678.85 311.45 C 678.44 296.99 678.74 282.50 678.61 268.03 Z" />
</g>
<g id="#ee6b2aff">
<path fill="#ee6b2a" opacity="1.00" d=" M 737.40 277.54 C 747.99 283.77 758.76 289.71 769.26 296.09 C 771.24 304.82 770.00 313.85 769.87 322.71 C 769.39 324.45 768.85 326.17 768.36 327.92 C 768.18 325.54 767.92 323.17 767.49 320.83 C 767.12 323.58 766.85 326.34 766.57 329.11 C 763.52 325.13 763.25 320.06 761.81 315.44 C 761.49 311.07 761.82 306.68 761.69 302.31 C 751.06 296.06 740.34 289.98 729.70 283.77 C 732.32 281.76 734.89 279.69 737.40 277.54 Z" />
</g>
<g id="#db4e2cff">
<path fill="#db4e2c" opacity="1.00" d=" M 769.26 296.09 C 770.45 296.15 770.97 296.76 770.82 297.93 C 771.02 317.96 770.73 337.99 770.82 358.03 C 770.81 375.22 770.98 392.41 770.64 409.60 C 767.59 411.25 764.65 413.10 761.63 414.82 C 761.55 398.01 761.57 381.19 761.71 364.38 C 762.30 362.39 763.22 360.52 764.18 358.70 C 764.25 360.16 764.31 361.63 764.38 363.10 C 765.00 361.63 765.64 360.17 766.30 358.72 C 766.65 358.90 767.36 359.26 767.72 359.44 C 767.98 357.98 768.24 356.51 768.52 355.06 C 768.84 356.74 769.16 358.41 769.51 360.10 C 770.19 354.09 769.87 348.03 770.02 342.00 C 770.01 335.57 770.46 329.13 769.87 322.71 C 770.00 313.85 771.24 304.82 769.26 296.09 Z" />
</g>
<g id="#ec682aff">
<path fill="#ec682a" opacity="1.00" d=" M 734.41 305.02 C 736.27 305.68 737.93 306.75 739.53 307.92 C 740.09 306.75 740.62 305.58 741.16 304.40 C 743.84 305.95 746.46 307.62 749.22 309.05 C 749.50 321.86 749.68 334.68 749.75 347.50 C 737.01 340.06 724.20 332.75 711.52 325.20 C 711.39 329.64 711.25 334.09 711.40 338.54 C 713.74 339.86 716.09 341.17 718.39 342.58 C 718.40 343.17 718.42 344.35 718.43 344.95 C 716.45 346.61 714.42 348.20 712.36 349.75 C 708.97 347.87 705.70 345.78 702.25 344.02 C 702.05 332.64 702.20 321.25 702.36 309.87 C 706.38 310.98 709.66 313.76 713.33 315.65 C 722.39 320.69 731.13 326.38 740.39 331.00 C 740.31 326.32 740.24 321.63 740.21 316.95 C 740.54 312.75 735.09 312.31 732.56 310.10 C 733.62 309.47 734.70 308.85 735.77 308.23 C 735.30 307.16 734.85 306.09 734.41 305.02 Z" />
</g>
<g id="#0c0f42ff">
<path fill="#0c0f42" opacity="1.00" d=" M 163.84 308.67 C 164.86 308.44 165.89 308.22 166.93 308.01 C 191.82 330.53 216.70 353.06 241.62 375.55 C 241.63 384.26 241.66 392.97 241.60 401.69 C 241.04 401.75 239.91 401.87 239.35 401.93 C 221.29 385.65 203.14 369.46 185.11 353.15 C 185.07 368.86 185.11 384.57 185.09 400.27 C 178.02 400.28 170.94 400.31 163.87 400.26 C 163.86 369.73 163.92 339.20 163.84 308.67 Z" />
<path fill="#0c0f42" opacity="1.00" d=" M 891.37 310.46 C 903.87 307.03 917.73 309.24 928.82 315.85 C 927.01 322.16 925.28 328.50 923.43 334.79 C 917.88 331.07 911.61 328.18 904.93 327.41 C 900.87 327.11 895.94 327.77 893.57 331.50 C 891.49 335.23 893.60 339.95 897.24 341.79 C 905.49 346.63 915.29 348.79 922.53 355.34 C 934.03 364.85 932.91 384.33 922.25 394.05 C 915.09 400.87 904.65 402.86 895.08 402.19 C 885.45 401.33 876.00 398.20 867.81 393.06 C 869.81 386.70 871.69 380.31 873.67 373.96 C 881.09 379.10 889.88 382.65 899.01 382.71 C 902.30 382.73 906.13 381.97 908.06 379.01 C 910.21 375.53 909.18 370.56 905.86 368.18 C 898.36 362.35 888.36 361.00 881.09 354.78 C 872.71 348.55 869.39 336.76 872.90 326.99 C 875.64 318.73 883.13 312.74 891.37 310.46 Z" />
<path fill="#0c0f42" opacity="1.00" d=" M 19.75 309.82 C 38.87 309.82 57.99 309.79 77.11 309.84 C 76.83 316.28 77.70 322.90 76.65 329.23 C 64.70 329.10 52.75 329.18 40.81 329.19 C 40.79 335.75 40.79 342.31 40.81 348.87 C 51.13 348.96 61.46 348.88 71.78 348.91 C 71.86 355.11 71.81 361.32 71.81 367.53 C 61.47 367.51 51.13 367.51 40.80 367.53 C 40.80 378.44 40.79 389.36 40.81 400.27 C 33.79 400.30 26.77 400.27 19.75 400.29 C 19.77 370.13 19.76 339.97 19.75 309.82 Z" />
<path fill="#0c0f42" opacity="1.00" d=" M 106.79 309.81 C 113.82 309.82 120.84 309.81 127.87 309.81 C 127.84 339.97 127.84 370.12 127.87 400.28 C 120.84 400.29 113.81 400.28 106.78 400.29 C 106.82 370.13 106.80 339.97 106.79 309.81 Z" />
<path fill="#0c0f42" opacity="1.00" d=" M 220.55 309.80 C 227.56 309.80 234.57 309.85 241.57 309.78 C 241.68 328.86 241.64 347.95 241.59 367.04 C 234.56 360.72 227.62 354.31 220.57 348.00 C 220.53 335.27 220.56 322.54 220.55 309.80 Z" />
<path fill="#0c0f42" opacity="1.00" d=" M 277.77 309.82 C 284.80 309.82 291.84 309.80 298.87 309.83 C 298.84 339.98 298.85 370.13 298.86 400.28 C 291.83 400.30 284.80 400.27 277.77 400.29 C 277.79 370.13 277.79 339.97 277.77 309.82 Z" />
<path fill="#0c0f42" opacity="1.00" d=" M 328.24 309.82 C 353.32 309.75 378.40 309.93 403.47 309.73 C 403.71 316.21 403.61 322.71 403.52 329.20 C 394.50 329.13 385.47 329.18 376.45 329.18 C 376.45 352.88 376.45 376.59 376.45 400.29 C 369.40 400.21 362.34 400.43 355.29 400.18 C 355.45 376.51 355.32 352.84 355.35 329.18 C 346.31 329.09 337.27 329.29 328.23 329.08 C 328.26 322.66 328.25 316.24 328.24 309.82 Z" />
<path fill="#0c0f42" opacity="1.00" d=" M 429.74 309.82 C 448.88 309.82 468.02 309.80 487.17 309.83 C 487.15 316.27 487.17 322.72 487.15 329.16 C 475.03 329.20 462.91 329.13 450.79 329.20 C 450.79 334.49 450.76 339.79 450.80 345.09 C 461.80 345.13 472.79 345.10 483.78 345.10 C 483.78 351.25 483.79 357.41 483.77 363.56 C 472.78 363.53 461.78 363.54 450.79 363.55 C 450.80 369.41 450.75 375.27 450.81 381.13 C 462.92 381.16 475.04 381.10 487.15 381.15 C 487.17 387.52 487.14 393.89 487.17 400.27 C 468.03 400.32 448.88 400.25 429.74 400.30 C 429.76 370.14 429.75 339.98 429.74 309.82 Z" />
<path fill="#0c0f42" opacity="1.00" d=" M 962.07 310.36 C 987.19 310.35 1012.32 310.36 1037.44 310.36 C 1037.44 316.80 1037.43 323.24 1037.44 329.68 C 1028.39 329.70 1019.35 329.68 1010.31 329.68 C 1010.26 353.40 1010.32 377.12 1010.28 400.83 C 1003.26 400.76 996.24 400.83 989.23 400.80 C 989.23 377.10 989.22 353.40 989.23 329.70 C 980.17 329.66 971.11 329.71 962.06 329.68 C 962.10 323.24 962.07 316.80 962.07 310.36 Z" />
<path fill="#0c0f42" opacity="1.00" d=" M 1097.28 309.62 C 1098.03 309.61 1099.52 309.58 1100.27 309.57 C 1114.50 339.94 1128.63 370.36 1142.86 400.73 C 1135.54 400.91 1128.22 400.74 1120.91 400.82 C 1113.46 382.86 1105.92 364.93 1098.69 346.89 C 1095.58 353.96 1092.74 361.15 1089.75 368.28 C 1093.04 368.29 1096.34 368.25 1099.65 368.31 C 1101.80 373.68 1104.02 379.03 1106.23 384.38 C 1098.51 384.42 1090.80 384.41 1083.09 384.39 C 1080.80 389.82 1078.50 395.26 1076.35 400.74 C 1069.14 400.88 1061.93 400.80 1054.72 400.77 C 1068.98 370.42 1083.15 340.03 1097.28 309.62 Z" />
<path fill="#0c0f42" opacity="1.00" d=" M 1163.42 310.35 C 1188.55 310.36 1213.67 310.37 1238.80 310.35 C 1238.80 316.79 1238.80 323.24 1238.80 329.68 C 1229.75 329.70 1220.70 329.67 1211.65 329.69 C 1211.64 353.40 1211.64 377.11 1211.65 400.81 C 1204.63 400.81 1197.61 400.78 1190.60 400.83 C 1190.55 377.12 1190.60 353.40 1190.57 329.69 C 1181.52 329.69 1172.47 329.69 1163.43 329.68 C 1163.42 323.24 1163.42 316.79 1163.42 310.35 Z" />
<path fill="#0c0f42" opacity="1.00" d=" M 1272.66 310.37 C 1291.78 310.35 1310.91 310.35 1330.04 310.37 C 1330.15 316.80 1330.15 323.24 1330.03 329.68 C 1317.93 329.69 1305.83 329.68 1293.74 329.69 C 1293.74 335.05 1293.70 340.40 1293.75 345.76 C 1304.76 345.76 1315.78 345.76 1326.80 345.76 C 1326.82 351.87 1326.78 357.98 1326.81 364.10 C 1315.78 364.10 1304.75 364.09 1293.73 364.11 C 1293.71 369.93 1293.77 375.75 1293.70 381.58 C 1305.83 381.73 1317.97 381.57 1330.10 381.67 C 1330.10 388.03 1330.10 394.40 1330.11 400.77 C 1310.96 400.86 1291.82 400.77 1272.68 400.82 C 1272.64 370.67 1272.68 340.52 1272.66 310.37 Z" />
</g>
<g id="#eb6629ff">
<path fill="#eb6629" opacity="1.00" d=" M 678.85 311.45 C 679.38 313.27 680.10 315.07 680.12 317.00 C 680.30 326.00 680.10 334.99 680.35 343.99 C 680.85 342.56 681.36 341.15 681.87 339.74 C 682.75 341.51 683.64 343.30 684.53 345.08 C 686.56 335.77 685.51 326.25 686.47 316.86 C 686.99 321.33 686.63 325.89 687.83 330.26 C 688.44 337.49 687.86 344.79 688.12 352.04 C 694.57 355.74 700.99 359.49 707.40 363.27 C 705.66 365.93 703.45 368.24 700.94 370.19 C 693.54 365.84 686.03 361.67 678.74 357.14 C 678.83 341.91 678.54 326.67 678.85 311.45 Z" />
</g>
<g id="#e55c2bff">
<path fill="#e55c2b" opacity="1.00" d=" M 761.81 315.44 C 763.25 320.06 763.52 325.13 766.57 329.11 C 766.85 326.34 767.12 323.58 767.49 320.83 C 767.92 323.17 768.18 325.54 768.36 327.92 C 768.85 326.17 769.39 324.45 769.87 322.71 C 770.46 329.13 770.01 335.57 770.02 342.00 C 769.87 348.03 770.19 354.09 769.51 360.10 C 769.16 358.41 768.84 356.74 768.52 355.06 C 768.24 356.51 767.98 357.98 767.72 359.44 C 767.36 359.26 766.65 358.90 766.30 358.72 C 765.64 360.17 765.00 361.63 764.38 363.10 C 764.31 361.63 764.25 360.16 764.18 358.70 C 763.22 360.52 762.30 362.39 761.71 364.38 C 761.73 348.06 761.58 331.75 761.81 315.44 Z" />
</g>
<g id="#ef6c2aff">
<path fill="#ef6c2a" opacity="1.00" d=" M 583.20 320.93 C 583.48 319.77 583.82 318.62 584.20 317.49 C 584.58 346.54 584.07 375.60 584.32 404.66 C 591.66 408.76 598.89 413.05 606.16 417.27 C 603.00 418.48 600.11 420.47 599.25 423.96 C 591.22 419.31 583.16 414.68 575.17 409.96 C 575.14 381.81 574.98 353.65 575.28 325.50 C 575.67 327.65 576.13 329.80 576.13 331.99 C 576.13 343.37 576.16 354.76 576.22 366.14 C 577.27 366.29 578.33 366.45 579.40 366.61 C 580.20 367.66 581.00 368.73 581.81 369.79 C 583.60 353.57 582.61 337.20 583.20 320.93 Z" />
</g>
<g id="#f06e29ff">
<path fill="#f06e29" opacity="1.00" d=" M 663.30 321.35 C 664.42 320.50 665.77 320.14 667.17 320.03 C 667.32 332.45 667.09 344.87 667.37 357.29 C 654.82 364.62 642.14 371.75 629.47 378.88 C 629.43 379.95 629.40 381.03 629.39 382.12 C 627.01 383.49 624.19 383.34 621.56 383.67 C 621.29 380.28 621.00 376.89 620.51 373.52 L 620.47 373.21 C 633.09 366.47 645.41 359.14 657.86 352.08 C 657.71 346.54 658.39 340.90 657.46 335.42 C 645.55 342.51 633.61 349.58 621.51 356.33 C 621.37 353.16 620.15 349.32 622.66 346.76 C 624.34 344.98 626.18 342.09 629.03 343.14 C 629.45 342.37 629.84 341.59 630.25 340.81 C 641.17 334.15 652.36 327.95 663.30 321.35 Z" />
</g>
<g id="#e8612aff">
<path fill="#e8612a" opacity="1.00" d=" M 718.39 342.58 C 726.89 347.41 735.37 352.29 743.82 357.21 C 740.62 358.38 738.86 361.31 737.43 364.19 C 729.08 359.36 720.69 354.60 712.36 349.75 C 714.42 348.20 716.45 346.61 718.43 344.95 C 718.42 344.35 718.40 343.17 718.39 342.58 Z" />
</g>
<g id="#e0562bff">
<path fill="#e0562b" opacity="1.00" d=" M 737.43 364.19 C 738.86 361.31 740.62 358.38 743.82 357.21 C 745.69 358.27 747.58 359.31 749.38 360.51 C 749.04 368.49 749.62 376.49 749.28 384.46 C 745.89 389.03 747.57 394.89 746.56 400.11 C 746.27 398.47 746.01 396.83 745.75 395.20 C 745.17 396.48 744.59 397.76 744.04 399.06 C 743.40 397.48 742.70 395.94 741.91 394.46 C 739.86 401.74 741.86 409.44 740.29 416.80 C 740.12 399.81 740.08 382.81 740.16 365.81 C 739.24 365.27 738.33 364.73 737.43 364.19 Z" />
</g>
<g id="#e35b2aff">
<path fill="#e35b2a" opacity="1.00" d=" M 707.40 363.27 C 713.41 366.80 719.46 370.27 725.45 373.85 C 725.39 376.04 725.63 378.25 725.33 380.43 C 722.67 385.23 724.51 390.87 723.74 396.06 C 723.32 394.78 722.92 393.50 722.53 392.23 C 722.15 393.40 721.77 394.58 721.40 395.76 C 721.08 394.56 720.79 393.38 720.49 392.19 C 719.75 393.00 719.02 393.82 718.29 394.64 C 716.46 389.60 718.30 383.91 716.28 379.07 C 711.09 376.23 706.05 373.16 700.94 370.19 C 703.45 368.24 705.66 365.93 707.40 363.27 Z" />
</g>
<g id="#f87a28ff">
<path fill="#f87a28" opacity="1.00" d=" M 642.82 387.80 C 652.76 381.85 662.93 376.30 672.91 370.43 C 676.21 372.46 679.59 374.36 682.94 376.32 C 682.06 379.93 678.73 381.43 675.62 382.72 C 674.41 382.21 673.10 380.74 671.77 381.74 C 665.53 385.47 659.09 388.84 652.96 392.74 C 654.12 393.42 655.29 394.11 656.48 394.80 C 654.88 396.22 652.80 396.48 650.81 396.89 C 649.32 397.63 648.15 398.84 646.88 399.89 C 645.41 399.15 644.04 398.25 642.74 397.27 C 642.85 394.11 642.75 390.96 642.82 387.80 Z" />
</g>
<g id="#e96429ff">
<path fill="#e96429" opacity="1.00" d=" M 619.80 410.25 C 620.64 398.03 619.53 385.72 620.51 373.52 C 621.00 376.89 621.29 380.28 621.56 383.67 C 624.19 383.34 627.01 383.49 629.39 382.12 C 629.27 390.05 629.20 397.98 629.29 405.91 C 633.48 408.56 637.88 410.90 642.16 413.42 C 638.85 414.45 637.99 418.03 636.69 420.80 C 631.15 418.03 625.93 414.65 620.52 411.64 C 620.34 411.29 619.98 410.60 619.80 410.25 Z" />
</g>
<g id="#ec6929ff">
<path fill="#ec6929" opacity="1.00" d=" M 675.62 382.72 C 678.73 381.43 682.06 379.93 682.94 376.32 C 688.60 379.79 694.56 382.80 700.10 386.47 C 697.27 388.09 694.78 390.21 692.68 392.70 C 686.96 389.43 681.29 386.07 675.62 382.72 Z" />
</g>
<g id="#dd512aff">
<path fill="#dd512a" opacity="1.00" d=" M 716.28 379.07 C 718.30 383.91 716.46 389.60 718.29 394.64 C 719.02 393.82 719.75 393.00 720.49 392.19 C 720.79 393.38 721.08 394.56 721.40 395.76 C 721.77 394.58 722.15 393.40 722.53 392.23 C 722.92 393.50 723.32 394.78 723.74 396.06 C 724.51 390.87 722.67 385.23 725.33 380.43 C 725.60 390.83 725.58 401.25 725.58 411.67 C 708.84 421.19 692.22 430.92 675.54 440.56 C 674.50 441.01 673.34 442.28 672.15 441.53 C 660.28 434.73 648.55 427.69 636.62 421.02 L 636.69 420.80 C 637.99 418.03 638.85 414.45 642.16 413.42 C 651.93 419.16 661.75 424.82 671.58 430.47 C 673.20 431.57 674.91 430.16 676.33 429.41 C 689.64 421.58 703.10 414.01 716.39 406.15 C 716.40 397.12 716.20 388.10 716.28 379.07 Z" />
</g>
<g id="#fefffeff">
</g>
<g id="#d7472bff">
<path fill="#d7472b" opacity="1.00" d=" M 746.56 400.11 C 747.57 394.89 745.89 389.03 749.28 384.46 C 749.49 397.02 749.34 409.58 749.41 422.15 C 723.92 436.98 698.42 451.79 672.92 466.62 C 664.40 461.81 656.00 456.80 647.53 451.92 C 648.46 450.78 649.42 449.64 650.37 448.51 C 653.03 448.46 655.72 448.38 658.33 447.72 L 658.69 447.64 C 663.43 450.36 668.11 453.56 673.04 455.75 C 695.54 442.93 717.80 429.65 740.29 416.80 C 741.86 409.44 739.86 401.74 741.91 394.46 C 742.70 395.94 743.40 397.48 744.04 399.06 C 744.59 397.76 745.17 396.48 745.75 395.20 C 746.01 396.83 746.27 398.47 746.56 400.11 Z" />
</g>
<g id="#dc4f2aff">
<path fill="#dc4f2a" opacity="1.00" d=" M 692.68 392.70 C 694.78 390.21 697.27 388.09 700.10 386.47 C 701.95 386.32 702.51 388.50 702.21 389.96 C 702.18 392.65 702.23 395.35 702.24 398.04 C 692.50 403.58 683.04 409.72 673.14 414.92 C 669.35 413.34 665.99 410.79 662.34 408.90 C 664.47 408.42 667.08 408.58 668.63 406.76 C 669.61 405.73 670.49 404.59 671.42 403.51 C 671.82 403.75 672.63 404.22 673.03 404.46 C 679.61 400.60 686.31 396.90 692.68 392.70 Z" />
</g>
<g id="#ed6929ff">
<path fill="#ed6929" opacity="1.00" d=" M 650.81 396.89 C 652.80 396.48 654.88 396.22 656.48 394.80 C 661.46 397.70 666.48 400.53 671.42 403.51 C 670.49 404.59 669.61 405.73 668.63 406.76 C 667.08 408.58 664.47 408.42 662.34 408.90 C 657.16 405.94 652.06 402.84 646.88 399.89 C 648.15 398.84 649.32 397.63 650.81 396.89 Z" />
</g>
<g id="#e55e29ff">
<path fill="#e55e29" opacity="1.00" d=" M 599.25 423.96 C 600.11 420.47 603.00 418.48 606.16 417.27 C 615.55 422.74 624.99 428.13 634.35 433.66 C 632.48 435.52 629.94 435.46 627.52 435.17 C 627.90 436.22 628.31 437.28 628.73 438.34 C 627.15 438.14 625.58 438.01 624.01 438.12 L 623.76 438.12 C 615.53 433.51 607.43 428.66 599.25 423.96 Z" />
</g>
<g id="#df532aff">
<path fill="#df532a" opacity="1.00" d=" M 627.52 435.17 C 629.94 435.46 632.48 435.52 634.35 433.66 C 642.35 438.32 650.51 442.74 658.33 447.72 C 655.72 448.38 653.03 448.46 650.37 448.51 C 649.42 449.64 648.46 450.78 647.53 451.92 C 639.67 447.36 631.69 442.97 624.01 438.12 C 625.58 438.01 627.15 438.14 628.73 438.34 C 628.31 437.28 627.90 436.22 627.52 435.17 Z" />
</g>
</svg>
