<?xml version="1.0" encoding="UTF-8" standalone="no"?>
<!DOCTYPE svg PUBLIC "-//W3C//DTD SVG 1.1//EN" "http://www.w3.org/Graphics/SVG/1.1/DTD/svg11.dtd">
<svg width="100%" height="100%" viewBox="0 0 600 91" version="1.1" xmlns="http://www.w3.org/2000/svg" xmlns:xlink="http://www.w3.org/1999/xlink" xml:space="preserve" xmlns:serif="http://www.serif.com/" style="fill-rule:evenodd;clip-rule:evenodd;stroke-linejoin:round;stroke-miterlimit:2;">
    <g transform="matrix(1,0,0,1,-20.6,-276.6)">
        <path d="M231,367.2L181.5,367.1C177.4,367.1 174,366.8 171.1,366.3C168.2,365.7 165.9,364.8 164,363.3C162.1,361.9 160.8,359.9 159.9,357.4C159,354.9 158.5,351.6 158.5,347.5L158.5,301C158.5,296.9 159,293.6 159.9,291C160.8,288.4 162.2,286.4 164,285C165.9,283.6 168.2,282.6 171.1,282C174,281.4 177.4,281.2 181.5,281.2L209.4,281.2C213.5,281.2 216.9,281.5 219.6,282C222.4,282.6 224.6,283.6 226.3,285C228,286.4 229.2,288.4 229.9,291C230.6,293.6 231,296.9 231,301L231,328.9L169.2,328.9L169.2,348.9C169.2,352.2 169.9,354.4 171.3,355.6C172.7,356.8 175.6,357.4 180,357.4L231,357.4L231,367.2ZM220.2,298.8C220.2,295.6 219.6,293.5 218.4,292.3C217.2,291.1 214.4,290.5 209.9,290.5L180.5,290.5C178.2,290.5 176.4,290.6 174.9,290.9C173.4,291.2 172.3,291.6 171.4,292.3C170.6,292.9 170,293.8 169.7,294.8C169.4,295.9 169.3,297.3 169.3,298.9L169.3,319L220.2,319L220.2,298.8Z" style="fill:#00aae7;fill-rule:nonzero;"/>
    </g>
    <g transform="matrix(1,0,0,1,-20.6,-276.6)">
        <path d="M450.9,367.2L401.3,367.1C397.2,367.1 393.8,366.8 390.9,366.3C388,365.7 385.7,364.8 383.8,363.3C381.9,361.9 380.6,359.9 379.7,357.4C378.8,354.9 378.3,351.6 378.3,347.5L378.3,301C378.3,296.9 378.8,293.6 379.7,291C380.6,288.4 382,286.4 383.8,285C385.7,283.6 388,282.6 390.9,282C393.8,281.4 397.2,281.2 401.3,281.2L429.2,281.2C433.3,281.2 436.7,281.5 439.4,282C442.2,282.6 444.4,283.6 446.1,285C447.8,286.4 449,288.4 449.7,291C450.4,293.6 450.8,296.9 450.8,301L450.8,328.9L389,328.9L389,348.9C389,352.2 389.7,354.4 391.1,355.6C392.5,356.8 395.4,357.4 399.8,357.4L450.8,357.4L450.8,367.2L450.9,367.2ZM440,298.8C440,295.6 439.4,293.5 438.2,292.3C437,291.1 434.2,290.5 429.7,290.5L400.3,290.5C398,290.5 396.2,290.6 394.7,290.9C393.2,291.2 392.1,291.6 391.2,292.3C390.4,292.9 389.8,293.8 389.5,294.8C389.2,295.9 389.1,297.3 389.1,298.9L389.1,319L440,319L440,298.8Z" style="fill:#4d4d4f;fill-rule:nonzero;"/>
    </g>
    <g transform="matrix(1,0,0,1,-20.6,-276.6)">
        <path d="M142.6,367.2C142.6,367.2 120.8,367.3 117,366.8C114.2,366.4 112.1,365.3 110.5,363.8C108.9,362.3 107.8,360.3 107.2,357.7C106.6,355.1 106.3,351.9 106.3,347.9L106.3,281.2L117.3,281.2L117.3,349C117.3,350.7 117.4,352.1 117.6,353.2C117.8,354.3 118.3,355.1 119.1,355.8C119.8,356.4 120.9,357 122.3,357.2C125.2,357.6 142.8,357.5 142.8,357.5L142.8,367.2L142.6,367.2Z" style="fill:#00aae7;fill-rule:nonzero;"/>
    </g>
    <g transform="matrix(1,0,0,1,-20.6,-276.6)">
        <path d="M517.7,290.8L498.3,290.8C496,290.8 494.2,290.8 492.9,291.1C491.5,291.4 490.5,291.8 489.7,292.5C489,293.1 488.5,294 488.2,295.1C488,296.2 487.9,297.6 487.9,299.3L487.9,367.2L476.9,367.2L476.9,300.5C476.9,296.5 477.2,293.2 477.8,290.7C478.4,288.1 479.5,286.1 481.1,284.6C482.7,283.1 484.8,282 487.6,281.6C491.4,281 513.9,281.2 513.9,281.2L517.6,281.2L517.6,290.8L517.7,290.8Z" style="fill:#4d4d4f;fill-rule:nonzero;"/>
    </g>
    <g transform="matrix(1,0,0,1,-20.6,-276.6)">
        <path d="M87.6,290.5L41.4,290.5C34.8,290.5 33.2,292.5 33.2,298.3L33.2,318.8L75.3,318.7L75.3,328.9L33.1,328.9L33.1,367.3L20.6,367.3L20.6,294C20.6,286.5 22.6,281.2 35,281.2L87.6,281.2L87.6,290.5Z" style="fill:#00aae7;fill-rule:nonzero;"/>
    </g>
    <g transform="matrix(1,0,0,1,-20.6,-276.6)">
        <path d="M588.4,281.3L538.6,281L538.4,291C538.4,291 581.4,291.3 585.9,291.4C590.4,291.5 593.6,295.2 593.6,299.8L593.6,318.9L546.1,318.9C546.1,318.9 538.6,318.9 534.7,323.1C530.8,327.2 530.9,333.2 530.9,333.2C530.9,333.2 530.5,346.7 530.7,350.1C530.9,353 530.6,360.7 538.6,364.8C543.3,367.2 554.5,367.2 554.5,367.2L605.1,367.2L605.1,303.2C605.1,298.5 606.1,281.3 588.4,281.3M593.7,357.4L552.3,357.4C547.6,357.4 544.6,356.7 543.2,355.2C541.8,353.7 541.1,351.3 541.1,348.1L541.1,336.4C541.1,334.7 541.2,334 541.4,332.9C541.6,331.8 542.1,331 542.8,330.3C543.5,329.7 544.6,329.2 546,328.9C547.4,328.6 549.2,328.5 551.4,328.5L593.6,328.5L593.6,357.4L593.7,357.4Z" style="fill:#4d4d4f;fill-rule:nonzero;"/>
    </g>
    <g transform="matrix(1,0,0,1,-20.6,-276.6)">
        <path d="M613,281.1L613,277.1L611.5,277.1L611.5,276.6L615.2,276.6L615.2,277.1L613.6,277.1L613.6,281.1L613,281.1ZM620,281.1L620,277.2L618.4,280.3L618.2,280.3L616.6,277.2L616.6,281.1L616,281.1L616,276.6L616.9,276.6L618.3,279.4L619.7,276.6L620.6,276.6L620.6,281.1L620,281.1Z" style="fill:#4d4d4f;fill-rule:nonzero;"/>
    </g>
    <g transform="matrix(1,0,0,1,-20.6,-276.6)">
        <path d="M360.4,281L339.2,281L312,306.2L322.8,316.2L360.4,281Z" style="fill:#8a8c8e;fill-rule:nonzero;"/>
    </g>
    <g transform="matrix(1,0,0,1,-20.6,-276.6)">
        <path d="M322.6,325.2L312,334.8L347.8,367.2L366.5,367.2L322.6,325.2Z" style="fill:#4d4d4f;fill-rule:nonzero;"/>
    </g>
    <g transform="matrix(1,0,0,1,-20.6,-276.6)">
        <path d="M275.2,281L254,281L293.9,318.3L315.5,318.3L275.2,281Z" style="fill:#00aae7;fill-rule:nonzero;"/>
    </g>
    <g transform="matrix(1,0,0,1,-20.6,-276.6)">
        <path d="M248,367.2L266.7,367.2L315.3,323.2L294,323.2L248,367.2Z" style="fill:#00aae7;fill-rule:nonzero;"/>
    </g>
</svg>
