<?xml version="1.0" encoding="UTF-8" standalone="no"?>
<!DOCTYPE svg PUBLIC "-//W3C//DTD SVG 1.1//EN" "http://www.w3.org/Graphics/SVG/1.1/DTD/svg11.dtd">
<svg width="100%" height="100%" viewBox="0 0 273 45" version="1.1" xmlns="http://www.w3.org/2000/svg" xmlns:xlink="http://www.w3.org/1999/xlink" xml:space="preserve" xmlns:serif="http://www.serif.com/" style="fill-rule:evenodd;clip-rule:evenodd;stroke-linejoin:round;stroke-miterlimit:2;">
    <g transform="matrix(1,0,0,1,-0.19595,-1.25547)">
        <g>
            <g>
                <path d="M90.34,12.63L68.46,12.57C68.35,12.57 68.25,12.61 68.18,12.69C68.1,12.76 68.06,12.87 68.06,12.97L68.01,30.57C68.01,30.68 68.05,30.78 68.13,30.85C68.2,30.93 68.31,30.97 68.41,30.97L71.22,30.98C71.44,30.98 71.62,30.8 71.62,30.58L71.65,23.02L85.87,23.06C85.98,23.06 86.08,23.02 86.15,22.94C86.23,22.87 86.27,22.76 86.27,22.66L86.28,20.1C86.28,19.88 86.1,19.7 85.88,19.7L71.66,19.66L71.67,16.19L90.34,16.25C90.45,16.25 90.55,16.21 90.62,16.13C90.7,16.06 90.74,15.95 90.74,15.85L90.75,13.04C90.74,12.81 90.57,12.63 90.34,12.63Z" style="fill:#242428;fill-rule:nonzero;"/>
                <path d="M114.68,13.99C114.21,13.57 113.58,13.24 112.8,13.03C112.02,12.81 111.07,12.7 109.96,12.7L99.38,12.67C98.28,12.67 97.34,12.78 96.58,12.99C95.81,13.2 95.18,13.52 94.71,13.94C94.24,14.36 93.89,14.89 93.67,15.51C93.45,16.13 93.34,16.85 93.34,17.66L93.32,26.05C93.32,26.86 93.42,27.58 93.64,28.21C93.85,28.83 94.2,29.36 94.67,29.78C95.14,30.2 95.77,30.53 96.54,30.74C97.3,30.96 98.26,31.07 99.39,31.07L109.97,31.1C111.06,31.1 112,30.99 112.76,30.78C113.54,30.57 114.17,30.25 114.64,29.83C115.11,29.41 115.46,28.88 115.68,28.26C115.9,27.64 116.01,26.92 116.01,26.11L116.03,17.72C116.03,16.91 115.93,16.19 115.71,15.57C115.5,14.94 115.15,14.41 114.68,13.99ZM109.95,27.48L99.37,27.45C98.55,27.45 97.97,27.32 97.59,27.06C97.22,26.8 97.03,26.41 97.03,25.9L97.05,17.81C97.05,17.3 97.24,16.91 97.61,16.65C97.98,16.39 98.56,16.27 99.37,16.27L109.97,16.3C110.79,16.3 111.37,16.43 111.75,16.69C112.12,16.95 112.31,17.34 112.31,17.85L112.29,25.94C112.29,26.45 112.1,26.84 111.73,27.1C111.36,27.36 110.77,27.48 109.95,27.48Z" style="fill:#242428;fill-rule:nonzero;"/>
                <path d="M141.8,14.07C141.33,13.65 140.7,13.32 139.92,13.11C139.14,12.89 138.19,12.78 137.08,12.78L120.87,12.73C120.65,12.73 120.47,12.91 120.47,13.13L120.42,30.73C120.42,30.95 120.6,31.13 120.82,31.13L123.63,31.14C123.74,31.14 123.84,31.1 123.91,31.02C123.99,30.95 124.03,30.84 124.03,30.74L124.05,24.57L128.48,24.58L137.07,31.1C137.14,31.15 137.22,31.18 137.31,31.18L142.38,31.19C142.55,31.19 142.71,31.08 142.76,30.91C142.81,30.74 142.75,30.56 142.61,30.46L134.26,24.59L137.1,24.6C138.19,24.6 139.13,24.49 139.89,24.28C140.67,24.07 141.3,23.75 141.77,23.33C142.24,22.91 142.59,22.38 142.81,21.76C143.03,21.14 143.14,20.42 143.14,19.61L143.14,17.79C143.14,16.99 143.04,16.26 142.82,15.64C142.62,15.02 142.27,14.49 141.8,14.07ZM139.43,17.93L139.42,19.82C139.42,20.33 139.23,20.72 138.86,20.98C138.49,21.23 137.9,21.36 137.08,21.36L124.06,21.32L124.07,16.34L137.09,16.38C137.91,16.38 138.49,16.51 138.87,16.77C139.25,17.03 139.44,17.42 139.43,17.93Z" style="fill:#242428;fill-rule:nonzero;"/>
                <path d="M167.69,12.86L145.81,12.8C145.59,12.8 145.41,12.98 145.41,13.2L145.4,16.01C145.4,16.12 145.44,16.22 145.52,16.29C145.59,16.37 145.7,16.41 145.8,16.41L154.94,16.44L154.9,30.83C154.9,31.05 155.08,31.23 155.3,31.23L158.11,31.24C158.22,31.24 158.32,31.2 158.39,31.12C158.47,31.05 158.51,30.94 158.51,30.84L158.55,16.45L167.69,16.48C167.91,16.48 168.09,16.3 168.09,16.08L168.1,13.27C168.1,13.16 168.06,13.06 167.98,12.99C167.89,12.9 167.79,12.86 167.69,12.86Z" style="fill:#242428;fill-rule:nonzero;"/>
                <path d="M192.62,14.22C192.15,13.8 191.52,13.47 190.74,13.26C189.96,13.04 189.01,12.93 187.9,12.93L171.69,12.88C171.58,12.88 171.48,12.92 171.41,13C171.33,13.07 171.29,13.18 171.29,13.28L171.24,30.88C171.24,30.99 171.28,31.09 171.36,31.16C171.44,31.23 171.54,31.28 171.64,31.28L174.45,31.29C174.67,31.29 174.85,31.11 174.85,30.89L174.87,24.72L179.3,24.73L187.89,31.25C187.96,31.3 188.04,31.33 188.13,31.33L193.2,31.34C193.37,31.34 193.53,31.23 193.58,31.06C193.63,30.89 193.57,30.71 193.43,30.61L185.08,24.74L187.92,24.75C189,24.75 189.94,24.64 190.71,24.44C191.49,24.23 192.12,23.91 192.59,23.49C193.06,23.07 193.41,22.54 193.63,21.92C193.85,21.3 193.96,20.58 193.96,19.77L193.96,17.95C193.96,17.15 193.86,16.42 193.64,15.8C193.44,15.17 193.09,14.64 192.62,14.22ZM190.26,18.08L190.26,19.97C190.26,20.48 190.07,20.87 189.7,21.12C189.33,21.38 188.74,21.5 187.92,21.5L174.9,21.46L174.9,16.49L187.92,16.53C188.74,16.53 189.32,16.66 189.7,16.92C190.07,17.18 190.26,17.57 190.26,18.08Z" style="fill:#242428;fill-rule:nonzero;"/>
                <path d="M219.88,27.81L201.21,27.76L201.22,23.12L216.38,23.16C216.6,23.16 216.78,22.98 216.78,22.76L216.79,20.2C216.79,20.09 216.75,19.99 216.67,19.92C216.6,19.84 216.49,19.8 216.39,19.8L201.23,19.76L201.24,16.58L219.86,16.64C220.08,16.64 220.26,16.46 220.26,16.24L220.27,13.43C220.27,13.32 220.23,13.22 220.15,13.15C220.08,13.07 219.97,13.03 219.87,13.03L198.04,12.97C197.93,12.97 197.83,13.01 197.76,13.09C197.68,13.16 197.64,13.27 197.64,13.37L197.59,30.97C197.59,31.19 197.77,31.37 197.99,31.37L219.87,31.43C220.09,31.43 220.27,31.25 220.27,31.03L220.28,28.22C220.28,28.11 220.24,28.01 220.16,27.94C220.09,27.85 219.99,27.81 219.88,27.81Z" style="fill:#242428;fill-rule:nonzero;"/>
                <path d="M244.82,20.57C244.35,20.15 243.72,19.82 242.94,19.61C242.16,19.39 241.21,19.28 240.1,19.28L229.37,19.25C228.81,19.25 228.42,19.18 228.23,19.06C228.03,18.93 227.93,18.72 227.93,18.42L227.93,17.32C227.93,17.09 228.03,16.92 228.23,16.81C228.43,16.7 228.8,16.65 229.35,16.65L245.03,16.7C245.25,16.7 245.43,16.52 245.43,16.3L245.44,13.49C245.44,13.38 245.4,13.28 245.32,13.21C245.25,13.13 245.14,13.09 245.04,13.09L229.44,13.04C225.97,13.04 224.2,14.22 224.2,16.56L224.19,18.88C224.18,21.51 225.97,22.84 229.51,22.86L240.12,22.89C240.94,22.89 241.52,23.02 241.9,23.28C242.27,23.54 242.46,23.93 242.46,24.44L242.45,26.33C242.45,26.84 242.26,27.23 241.89,27.49C241.52,27.75 240.93,27.87 240.11,27.87L224.58,27.82C224.36,27.82 224.18,28 224.18,28.22L224.17,31.03C224.17,31.14 224.21,31.24 224.29,31.31C224.36,31.39 224.47,31.43 224.57,31.43L240.14,31.48C241.22,31.48 242.16,31.37 242.92,31.17C243.7,30.96 244.33,30.64 244.8,30.22C245.28,29.8 245.62,29.28 245.84,28.66C246.06,28.04 246.17,27.32 246.17,26.51L246.18,24.32C246.18,23.51 246.07,22.79 245.86,22.17C245.63,21.52 245.29,20.99 244.82,20.57Z" style="fill:#242428;fill-rule:nonzero;"/>
                <path d="M272.12,22.22C271.91,21.6 271.56,21.07 271.09,20.65C270.62,20.23 269.99,19.9 269.21,19.69C268.43,19.47 267.48,19.36 266.37,19.36L255.64,19.33C255.08,19.33 254.69,19.26 254.5,19.14C254.3,19.01 254.2,18.8 254.2,18.5L254.2,17.4C254.2,17.17 254.3,17 254.5,16.89C254.7,16.78 255.07,16.73 255.62,16.73L271.3,16.78C271.52,16.78 271.7,16.6 271.7,16.38L271.71,13.57C271.71,13.46 271.67,13.36 271.59,13.29C271.52,13.21 271.41,13.17 271.31,13.17L255.7,13.12C252.23,13.12 250.46,14.3 250.46,16.64L250.45,18.96C250.44,21.59 252.23,22.92 255.77,22.94L266.38,22.97C267.2,22.97 267.78,23.1 268.16,23.36C268.53,23.62 268.72,24.01 268.72,24.52L268.71,26.41C268.71,26.92 268.52,27.31 268.15,27.57C267.78,27.83 267.19,27.95 266.37,27.95L250.84,27.9C250.62,27.9 250.44,28.08 250.44,28.3L250.43,31.11C250.43,31.22 250.47,31.32 250.55,31.39C250.62,31.47 250.73,31.51 250.83,31.51L266.39,31.56C267.48,31.56 268.42,31.45 269.18,31.24C269.96,31.03 270.59,30.71 271.06,30.29C271.53,29.87 271.88,29.34 272.1,28.72C272.32,28.1 272.43,27.38 272.43,26.57L272.44,24.38C272.43,23.57 272.33,22.84 272.12,22.22Z" style="fill:#242428;fill-rule:nonzero;"/>
            </g>
        </g>
    </g>
    <g transform="matrix(1,0,0,1,-0.19595,-1.25547)">
        <g>
            <path d="M23.02,1.3C23.27,1.18 23.48,1.31 23.48,1.6L23.48,10.6C23.48,10.88 23.27,11.21 23.02,11.33L0.61,22.06C0.36,22.18 0.17,22.05 0.2,21.77L1.16,11.95C1.19,11.67 1.42,11.35 1.67,11.23L23.02,1.3Z" style="fill:#004d71;fill-rule:nonzero;"/>
            <path d="M22.76,16.65C23.01,16.53 23.22,16.66 23.22,16.94L23.21,25.67C23.21,25.95 23,26.28 22.75,26.4L10.78,32.18C10.53,32.3 10.17,32.23 9.98,32.02L4.81,26.27C4.62,26.06 4.67,25.78 4.91,25.64C4.91,25.64 9.27,23.2 11.68,21.85C15.53,20.06 22.76,16.65 22.76,16.65Z" style="fill:#004d71;fill-rule:nonzero;"/>
            <path d="M23.13,45.1C23.33,45.3 23.49,45.23 23.49,44.95L23.49,34.13C23.49,33.85 23.33,33.46 23.13,33.26L1.57,11.8C1.37,11.6 1.19,11.67 1.16,11.95L0.2,21.77C0.17,22.05 0.31,22.44 0.51,22.64L23.13,45.1Z" style="fill:#004d71;fill-rule:nonzero;"/>
            <path d="M1.56,11.79C1.89,12.11 8.2,18.41 8.2,18.41C8.2,18.41 0.82,21.96 0.63,22.05C0.44,22.14 0.17,22.11 0.2,21.8C0.4,19.77 1.16,11.99 1.16,11.95C1.16,11.9 1.23,11.47 1.56,11.79Z" style="fill:#006585;fill-rule:nonzero;"/>
            <path d="M11.68,21.87C8.98,23.15 6.29,24.43 3.59,25.71C5.83,27.94 8.08,30.18 10.32,32.41C12.99,31.12 15.65,29.82 18.32,28.53C16.11,26.31 13.89,24.09 11.68,21.87Z" style="fill:#006585;fill-rule:nonzero;"/>
        </g>
    </g>
    <g transform="matrix(1,0,0,1,-0.19595,-1.25547)">
        <g>
            <path d="M32.93,1.47C32.68,1.35 32.47,1.48 32.47,1.77L32.47,10.77C32.47,11.05 32.68,11.38 32.93,11.5L55.35,22.24C55.6,22.36 55.79,22.23 55.76,21.95L54.8,12.13C54.77,11.85 54.54,11.53 54.29,11.41L32.93,1.47Z" style="fill:#004d71;fill-rule:nonzero;"/>
            <path d="M33.2,16.81C32.95,16.69 32.74,16.82 32.74,17.1L32.75,25.83C32.75,26.11 32.96,26.44 33.21,26.56L45.18,32.34C45.43,32.46 45.79,32.39 45.98,32.18L51.15,26.43C51.34,26.22 51.29,25.94 51.05,25.8C51.05,25.8 46.69,23.36 44.28,22.01C40.43,20.22 33.2,16.81 33.2,16.81Z" style="fill:#004d71;fill-rule:nonzero;"/>
            <path d="M32.83,45.27C32.63,45.47 32.47,45.4 32.47,45.12L32.47,34.29C32.47,34.01 32.63,33.62 32.83,33.42L54.39,11.97C54.59,11.77 54.77,11.84 54.8,12.12L55.76,21.94C55.79,22.22 55.65,22.61 55.45,22.81L32.83,45.27Z" style="fill:#004d71;fill-rule:nonzero;"/>
            <path d="M54.4,11.95C54.11,12.24 47.76,18.57 47.76,18.57C47.76,18.57 54.96,22.04 55.36,22.23C55.76,22.42 55.75,21.91 55.75,21.91C55.75,21.91 54.8,12.17 54.79,12.1C54.79,12.02 54.69,11.66 54.4,11.95Z" style="fill:#006585;fill-rule:nonzero;"/>
            <path d="M44.27,22.03C46.97,23.31 49.66,24.59 52.36,25.87C50.12,28.1 47.87,30.34 45.63,32.57C42.96,31.28 40.3,29.98 37.63,28.69C39.85,26.47 42.06,24.25 44.27,22.03Z" style="fill:#006585;fill-rule:nonzero;"/>
        </g>
    </g>
</svg>
