<?xml version="1.0" encoding="UTF-8" standalone="no"?>
<!DOCTYPE svg PUBLIC "-//W3C//DTD SVG 1.1//EN" "http://www.w3.org/Graphics/SVG/1.1/DTD/svg11.dtd">
<svg width="100%" height="100%" viewBox="0 0 370 122" version="1.1" xmlns="http://www.w3.org/2000/svg" xmlns:xlink="http://www.w3.org/1999/xlink" xml:space="preserve" xmlns:serif="http://www.serif.com/" style="fill-rule:evenodd;clip-rule:evenodd;stroke-linejoin:round;stroke-miterlimit:2;">
    <g id="XMLID_26_" transform="matrix(1,0,0,1,-65,-189.4)">
        <path d="M156,232.2L112.8,232.2L112.8,245L143.4,245C141.9,263 126.9,270.6 112.8,270.6C94.7,270.6 79,256.4 79,236.5C79,217.1 94,202.2 112.8,202.2C127.3,202.2 135.9,211.5 135.9,211.5L144.9,202.2C144.9,202.2 133.4,189.4 112.4,189.4C85.7,189.4 65,212 65,236.3C65,260.2 84.5,283.5 113.1,283.5C138.3,283.5 156.7,266.2 156.7,240.7C156.7,235.3 156,232.2 156,232.2Z" style="fill:#4285f4;fill-rule:nonzero;"/>
    </g>
    <g id="XMLID_32_" transform="matrix(1,0,0,1,-65,-189.4)">
        <path d="M191.3,222.9C173.6,222.9 160.9,236.8 160.9,252.9C160.9,269.3 173.2,283.4 191.5,283.4C208.1,283.4 221.6,270.7 221.6,253.3C221.7,233.2 205.9,222.9 191.3,222.9ZM191.5,234.8C200.2,234.8 208.5,241.8 208.5,253.2C208.5,264.3 200.3,271.6 191.5,271.6C181.8,271.6 174.2,263.9 174.2,253.2C174.2,242.6 181.7,234.8 191.5,234.8Z" style="fill:#ea4335;fill-rule:nonzero;"/>
    </g>
    <g id="XMLID_35_" transform="matrix(1,0,0,1,-65,-189.4)">
        <path d="M257.5,222.9C239.8,222.9 227.1,236.8 227.1,252.9C227.1,269.3 239.4,283.4 257.7,283.4C274.3,283.4 287.8,270.7 287.8,253.3C287.8,233.2 272,222.9 257.5,222.9ZM257.7,234.8C266.4,234.8 274.7,241.8 274.7,253.2C274.7,264.3 266.5,271.6 257.7,271.6C248,271.6 240.4,263.9 240.4,253.2C240.3,242.6 247.9,234.8 257.7,234.8Z" style="fill:#fbbc05;fill-rule:nonzero;"/>
    </g>
    <g id="XMLID_38_" transform="matrix(1,0,0,1,-65,-189.4)">
        <path d="M322.3,222.9C306,222.9 293.3,237.1 293.3,253.1C293.3,271.3 308.1,283.4 322.1,283.4C330.7,283.4 335.3,280 338.7,276L338.7,282C338.7,292.4 332.4,298.7 322.8,298.7C313.6,298.7 308.9,291.8 307.3,287.9L295.7,292.8C299.8,301.5 308.1,310.6 322.9,310.6C339.1,310.6 351.4,300.4 351.4,279.1L351.4,224.7L338.7,224.7L338.7,229.8C334.8,225.7 329.4,222.9 322.3,222.9ZM323.5,234.8C331.5,234.8 339.7,241.6 339.7,253.2C339.7,265 331.5,271.5 323.4,271.5C314.7,271.5 306.7,264.5 306.7,253.3C306.6,241.7 315,234.8 323.5,234.8Z" style="fill:#4285f4;fill-rule:nonzero;"/>
    </g>
    <g id="XMLID_42_" transform="matrix(1,0,0,1,-65,-189.4)">
        <path d="M407.7,222.9C392.4,222.9 379.5,235.1 379.5,253.1C379.5,272.2 393.9,283.5 409.2,283.5C422,283.5 429.9,276.5 434.5,270.2L424,263.2C421.3,267.4 416.7,271.5 409.2,271.5C400.7,271.5 396.8,266.8 394.4,262.3L435,245.5L432.9,240.6C429,230.9 419.8,222.9 407.7,222.9ZM408.3,234.5C413.8,234.5 417.8,237.4 419.5,241L392.4,252.3C391.2,243.5 399.5,234.5 408.3,234.5Z" style="fill:#ea4335;fill-rule:nonzero;"/>
    </g>
    <g id="XMLID_43_" transform="matrix(1,0,0,1,-65,-189.4)">
        <rect x="360.2" y="192.5" width="13.3" height="89.2" style="fill:#34a853;"/>
    </g>
</svg>
