<?xml version="1.0" encoding="UTF-8" standalone="no"?>
<!DOCTYPE svg PUBLIC "-//W3C//DTD SVG 1.1//EN" "http://www.w3.org/Graphics/SVG/1.1/DTD/svg11.dtd">
<svg width="100%" height="100%" viewBox="0 0 4330 924" version="1.1" xmlns="http://www.w3.org/2000/svg" xmlns:xlink="http://www.w3.org/1999/xlink" xml:space="preserve" xmlns:serif="http://www.serif.com/" style="fill-rule:evenodd;clip-rule:evenodd;stroke-linejoin:round;stroke-miterlimit:2;">
    <g id="logo" transform="matrix(1,0,0,1,-38.31,-38.4757)">
        <g id="_-000000ff" serif:id="#000000ff">
            <path d="M476.06,39.16C487.99,38.36 499.96,38.3 511.91,38.78C534.39,38.84 556.79,41.41 578.98,44.9C595.42,48.13 611.74,51.99 627.93,56.3C647.16,62.61 666.62,68.49 684.98,77.11C692.77,79.94 699.9,84.19 707.41,87.64C721.84,94.35 735.1,103.19 748.94,111C758.78,117.47 768.2,124.58 777.94,131.21C785.35,137.05 792.53,143.19 799.97,149C815.21,163.06 830.83,176.81 844.39,192.56C848.3,196.68 851.97,201.03 855.34,205.61C869.6,221.81 881.46,239.9 893.14,257.99C901.23,271.73 909.54,285.39 916.02,299.98C919.92,306.74 922.37,314.17 925.73,321.19C931.08,333.05 934.96,345.47 939.14,357.76C944.16,373.14 948.61,388.73 951.6,404.64C956.53,423.91 958.06,443.81 960.19,463.52C961.55,475.29 961,487.16 961.69,498.97C961.76,519.56 960.13,540.1 957.77,560.55C956.25,571.03 954.88,581.56 952.3,591.85C950.4,604.44 946.69,616.64 943.55,628.96C935.68,653.63 926.93,678.13 915.48,701.38C910.74,709.75 907.43,718.88 902.14,726.95C893.54,742.09 884.2,756.85 873.91,770.91C868.61,777.31 864.23,784.43 858.54,790.51C840.1,814.21 818.51,835.29 795.65,854.7C788.27,860.66 780.62,866.28 773.17,872.16C768.3,875.65 763.18,878.8 758.46,882.5C753.95,886.14 748.59,888.49 743.87,891.84C735.71,897.63 726.52,901.68 718.14,907.1C696.23,918.34 673.84,928.73 650.5,936.68C624.25,945.42 597.37,952.49 569.92,956.27C560.01,958.18 549.88,958.42 539.91,959.9C534.99,960.76 529.97,960.39 525.01,960.68C507.36,961.71 489.64,962.07 471.99,960.86C451.11,958.81 430.04,957.58 409.58,952.56C400.47,951.08 391.38,949.33 382.54,946.62C373.22,944.16 363.82,941.84 354.89,938.18C347.8,935.34 340.27,933.81 333.31,930.63C321.73,926.11 310.54,920.69 299.1,915.85C289.48,910.93 279.73,906.22 270.54,900.5C257.33,893.45 244.59,885.45 232.75,876.26C225.09,870.58 217.34,865.02 209.77,859.23C200.73,851.52 191.64,843.85 182.95,835.75C170.61,823.18 157.93,810.87 146.81,797.18C138.33,787.27 130.38,776.92 122.71,766.38C117.56,758.75 112.83,750.85 107.49,743.36C102.26,735.43 98.53,726.64 93.27,718.73C88.32,707.81 82.04,697.51 77.74,686.29C73.52,678.4 71.22,669.7 67.38,661.64C64.48,655.37 63.2,648.55 60.8,642.1C56.92,629.99 52.93,617.89 50.48,605.4C48.35,597.77 47.5,589.87 45.74,582.17C42.17,566.7 41.54,550.78 39.55,535.08C38.59,521.74 38.89,508.36 38.31,495.01C38.42,489.02 38.89,483.03 38.89,477.03C38.92,469.65 40.26,462.37 40.65,455.02C41.04,442.14 44.31,429.59 45.81,416.83C48.59,404.52 50.59,392.01 54.25,379.92C55.93,372.93 58.12,366.1 60.21,359.23C61.91,352.57 65.04,346.4 66.79,339.75C75.67,316.3 86.57,293.64 98.67,271.68C103.15,263.08 109.03,255.33 113.94,246.98C124.37,230.71 136.16,215.36 148.5,200.49C162.3,184.98 176.34,169.59 192.26,156.22C198.81,149.72 205.81,143.69 213.27,138.24C224.27,130.22 234.74,121.41 246.41,114.36C252.47,109.54 259.52,106.23 265.97,102C277.83,94.39 290.7,88.62 303.32,82.4C311.17,78.18 319.61,75.28 327.74,71.68C336.81,68.69 345.34,64.31 354.51,61.63C375.92,54.8 397.71,49.05 419.91,45.48C438.37,41.61 457.24,40.07 476.06,39.16M486.35,46.41C477.86,46.58 469.4,47.19 460.92,47.53C442.75,49.09 424.8,52.36 406.84,55.42C397.86,57.64 388.93,60.09 379.92,62.19C370.24,64.86 360.76,68.22 351.09,70.88C344.54,72.73 338.54,75.99 332.14,78.24C313.14,85.3 295.01,94.45 277.4,104.42C261.37,112.82 246.78,123.63 231.81,133.73C222.3,140.07 213.59,147.51 205.1,155.13C195.98,162.61 187.38,170.71 179.18,179.19C168.69,189.06 159.04,199.79 150.04,211.03C140.38,222.21 131.79,234.26 123.47,246.45C117.28,256.29 110.25,265.63 105.12,276.1C101.17,284.07 95.86,291.33 92.54,299.62C90.74,304.26 87.99,308.44 86.01,313C79.7,327.78 73.7,342.69 68.6,357.94C66.18,368.12 62.08,377.8 59.85,388.04C55.79,405.71 52.19,423.5 49.6,441.46C48.55,455.64 46.75,469.78 46.21,484C46.5,499.34 45.39,514.72 47.03,530.01C47.9,536.98 47.74,544.05 48.93,550.99C50.35,559.65 50.51,568.5 52.6,577.05C55.1,588.36 56.28,599.97 59.73,611.07C64.44,630.72 71.03,649.88 78.45,668.66C81.94,676.2 84.45,684.17 88.53,691.44C100.16,717.28 114.47,741.89 131.28,764.71C137.11,773.69 143.93,781.95 150.84,790.1C154.86,794.15 157.83,799.09 161.99,803.01C180.67,823.37 200.75,842.54 222.73,859.32C228.16,863.97 233.87,868.3 240.01,871.99C253.37,881.18 266.68,890.59 281.26,897.79C285.23,899.65 288.75,902.34 292.79,904.07C299.48,906.86 305.63,910.77 312.37,913.46C324.94,918.6 337.27,924.33 350.13,928.77C366.6,933.92 382.94,939.8 400.02,942.71C418.76,947.08 437.79,950.18 456.96,951.93C472.23,953.86 487.64,953.62 503,953.89C515.17,953.46 527.39,953.75 539.5,952.3C574.39,949.5 608.79,942.04 642.02,931.14C656.87,926.67 671.34,920.97 685.39,914.41C697.64,909.47 709.29,903.18 720.85,896.81C729.22,891.46 738.28,887.24 746.28,881.3C752.89,877.35 759.25,873.02 765.42,868.42C771.48,863.44 778.19,859.33 784.15,854.22C791.59,848.74 797.99,842.05 805,836.07C812.83,829.59 819.92,822.27 826.81,814.82C833.23,808.55 839.37,802 844.94,794.96C850.9,788.2 856.86,781.41 862.09,774.04C877.38,752.87 892.08,731.13 903.64,707.67C914.52,687.45 923.3,666.15 930.51,644.37C933.23,634.85 936.97,625.62 938.87,615.87C943.04,602.16 945.08,587.95 948.12,573.97C951.54,553.48 952.99,532.73 953.94,511.99C954.08,504.63 953.58,497.27 953.63,489.91C953.87,472.83 952.1,455.79 949.77,438.89C948.56,426.45 945.89,414.25 943.22,402.07C938.18,377.44 930.33,353.45 920.97,330.13C917.63,320.56 912.88,311.57 908.62,302.39C905.04,293.98 900.01,286.29 896.19,278C889.07,265.56 881.6,253.32 873.37,241.59C864.83,230.19 856.94,218.25 847.21,207.8C841.66,201.66 836.73,194.98 830.7,189.3C820.99,178.36 810.03,168.66 799.31,158.74C794.09,153.57 787.92,149.51 782.56,144.5C765.69,131.37 747.9,119.45 729.64,108.34C711.88,98.37 693.91,88.63 675,80.99C666.14,76.66 656.56,74.19 647.51,70.34C636.62,67.23 626.04,63.06 614.91,60.84C607.93,58.97 600.89,57.36 593.87,55.66C558.51,48.75 522.4,45.05 486.35,46.41Z" style="fill-rule:nonzero;"/>
            <path d="M397.34,167.28C403.67,160.18 413.78,157.39 423.01,158.89C430.9,160.08 438.73,162.94 444.91,168.11C452.55,174.13 455.01,184.68 454.22,193.98C454.06,199.45 452.46,204.71 450.74,209.85C452.62,211.15 454.55,212.51 456.89,212.8C467.4,214.75 477.06,220.95 483.32,229.59C486.74,234.88 489.28,240.82 490.63,246.98C491.67,252.34 490.69,257.8 489.7,263.09C488.77,267.86 485.89,271.89 483.47,276C486.78,285.31 490.04,294.64 493.38,303.95C499.21,295.43 505.88,286.54 516.06,283.09C526.13,279.54 537.9,289.32 536.37,299.89C536.1,311.26 528.33,320.22 521.53,328.56C517.7,333.44 513.15,337.65 508.72,341.97C511.52,347.9 514.05,353.98 517.22,359.73C522.46,368.53 526.7,377.94 532.79,386.22C536.84,391.52 540.24,397.31 544.58,402.4C551.5,410.79 559.95,418.04 565.27,427.66C567.62,431.75 569.11,436.25 570.56,440.73C581.03,437.51 592.57,435.09 603.34,438.3C612.73,433.33 622.94,430.38 632.95,426.97C652.14,421.51 671.96,417.78 691.97,417.82C711.85,416.74 731.74,419.48 751.04,424.09C753.6,424.67 756.47,425.87 757.32,428.62C758.46,432.3 758.75,436.19 759.06,440.02C759.76,451.68 760.94,463.42 759.54,475.09C758.21,484.46 758.2,494.01 755.68,503.2C753.03,518.98 747.85,534.19 742.09,549.08C738.82,556.37 735.38,563.61 731.61,570.66C726.88,579.6 720.57,587.54 715.11,596.03C705.23,609.34 693.52,621.16 681.55,632.58C670.11,641.84 659.01,651.51 647.04,660.08C641.57,664.78 635.09,668.02 629.44,672.46C621.83,678.45 613.18,682.87 605.19,688.29C590.74,698.05 575.43,706.42 560.61,715.58C557.3,717.39 553.99,719.2 550.75,721.12C551.63,725.11 552.83,729.03 554,732.95C557.19,746.42 556.72,760.59 553.28,773.97C551.95,780.6 548.84,786.67 545.6,792.55C536.24,807.83 522.43,820.15 506.68,828.58C499.94,832.48 492.57,835.1 485.6,838.52C481.71,840.12 477.36,842.44 473.11,840.82C468.94,839.25 466.94,833.97 468.96,830.01C471.7,824.33 475.23,818.98 476.93,812.85C479.36,804.11 481.85,795.14 481.27,785.98C481.06,777.23 478.19,768.85 475.1,760.76C471.75,762.47 467.82,763.37 465.02,765.96C457.71,777.91 447.93,788.43 436.3,796.27C428.63,801.26 420.5,805.92 411.41,807.63C401.62,810.61 391.23,811.09 381.08,810.31C365.42,809.42 350.16,805.52 335.13,801.26C335.12,787.83 334.69,774.39 334.45,760.96C335.01,752.28 334.56,743.41 336.91,734.95C338.47,729.02 339.32,722.79 342.22,717.31C345.62,710.65 349.3,703.99 354.63,698.66C363.2,690.05 373.87,683.68 385.35,679.8C387.21,675.7 389.56,671.86 391.9,668.03C373.93,656.88 350.7,656.1 331.09,663.26C326.65,664.77 321.9,668.21 317.11,665.92C313.34,664.45 311.67,659.76 313.3,656.13C318.34,645.7 324.24,635.63 331.49,626.57C339.18,615.7 349.25,606.62 360.54,599.63C365.48,596.1 371.12,593.71 376.94,592.07C391.81,587.2 408.33,586.65 423.24,591.65C428.98,593.18 434.73,594.79 440.05,597.5C440.95,596.26 441.85,595.01 442.76,593.78C426.53,588.62 412.85,577.96 400.84,566.19C393.31,557.99 385.97,549.6 379.26,540.72C366.64,522.41 352.9,504.92 340.4,486.54C335.65,480.28 330.82,474.07 326.7,467.37C321.03,457.83 313.68,449.4 308.5,439.56C298.34,424.65 290.04,408.61 281.27,392.88C278.7,386.6 274.94,380.89 272.48,374.57C268.47,365.1 264.85,355.48 261.04,345.93C254.12,325.46 249.88,303.72 251.36,282.06C242.74,274.91 238.27,263 240.43,251.97C241.31,245.95 244.27,240.52 247.44,235.42C251.26,229.37 256.96,224.26 263.9,222.16C269.09,220.46 274.63,220.64 280.01,220.96C292.27,209.09 307.14,200.16 323,194C335.69,188.67 349.18,185.02 362.95,184.12C371.09,183.51 379.25,184.2 387.37,184.8C389.57,178.42 392.14,171.85 397.34,167.28M412.74,164.76C406.82,165.85 402.41,170.29 398.8,174.8C395.37,178.99 394.09,184.4 392.9,189.56C397.51,190.2 402.1,191.01 406.63,192.13C408.43,186.17 413.62,181.03 420.03,180.62C425.87,180.15 431.02,184.25 433.87,189.02C436.3,193.15 435.49,198.2 433.6,202.37C437.45,204.68 441.26,207.05 444.9,209.69C449.45,198.97 451.64,185.5 444.78,175.27C436.76,166.76 424.27,162.46 412.74,164.76M345.01,192.92C329.28,196.34 314.74,203.62 301.01,211.86C294.53,215.78 288.86,220.84 283.16,225.79C288.04,228.04 293.6,229.38 297.54,233.23C292.37,231.24 287.61,228.17 282.16,226.93C275.27,225.4 267.52,225.51 261.41,229.45C253.81,234.6 248.61,242.92 246.81,251.89C244.9,258.39 245.98,265.65 249.72,271.3C255.82,279.59 265.74,285 276.02,285.54C277.12,285.52 278.02,285.97 278.7,286.87C271.31,286.41 263.69,285.06 257.49,280.74C256.93,288.78 257.45,296.83 257.94,304.86C258.39,315.95 262.07,326.53 264.79,337.19C268.02,346.26 270.4,355.68 274.82,364.28C278.82,374.27 283.42,384.01 288.62,393.44C299.07,413.7 310.71,433.37 323.92,451.95C328.31,457.99 331.57,464.78 336.36,470.53C340.61,475.77 343.56,481.91 348.02,486.98C355.79,497.84 363.68,508.62 371.75,519.25C380.99,533.36 390.66,547.37 402.74,559.23C408.09,564.57 413.27,570.14 419.36,574.65C431.13,584.01 445.73,591.12 461.09,590.49C472.13,590.86 482.34,586.09 491.67,580.74C501.05,574.26 509.56,566.59 517.28,558.22C521.51,552.71 526.27,547.63 530.38,542.02C538.11,532.46 546.49,523.26 552.44,512.42C557.38,502.93 562.76,493.47 565.22,482.96C568.9,467.95 570.18,451.53 564.05,436.97C559.32,423.59 548.01,414.42 539.09,403.92C533.89,397.38 529.47,390.28 524.66,383.45C514.09,365.98 504.97,347.64 497.37,328.67C492.6,319.16 489.95,308.82 485.89,299.02C482.74,291.73 480.84,284.01 478.39,276.48C474.33,280.58 469.46,283.83 464.24,286.23C454.84,290.22 443.84,287.71 435.58,282.26C427.84,276.74 421.56,268.52 419.96,258.99C417.76,249.11 419.72,238.17 426.27,230.3C431.46,222.02 440.84,217.22 450.41,216.35C446.12,212.28 441.76,208.2 436.54,205.34C427.58,200.6 418.21,196.61 408.48,193.74C387.71,189.29 365.76,187.22 345.01,192.92M446.15,218.25C432.86,221.11 422.75,232.87 420.68,246.12C418.84,255.16 422,264.33 426.74,271.96C432.16,279.93 441.12,285.05 450.46,286.89C466.17,288.74 480.35,276.4 484.89,262.03C488.6,247.76 482.06,231.3 469.38,223.67C462.67,219.23 454.18,216.38 446.15,218.25M509.1,294.12C502.62,300.44 497.87,308.26 493.45,316.09C496.29,324.12 499.91,331.83 503.33,339.62C512.61,331.47 520.96,322.11 527.46,311.58C529.94,306.15 532.96,299.64 530.32,293.73C528.13,290.74 524.7,288.43 521.02,287.84C516.44,288.34 512.4,291.05 509.1,294.12M665.84,426.42C662.5,426.78 659.19,427.45 655.92,428.21C648.26,430.34 640.22,430.98 632.78,433.91C628.92,435.53 624.78,436.26 620.91,437.82C609.68,442.86 598.11,447.27 587.54,453.63C581.24,456.92 575.61,461.29 569.48,464.86C568.83,469.96 567.93,475.03 566.95,480.08C566.18,485.89 563.37,491.11 561.51,496.61C557.36,508.13 550.39,518.32 543.16,528.09C539.87,533.41 534.85,537.3 531.38,542.48C525.92,550.49 519.61,557.94 512.55,564.59C506.64,571.12 499.93,577.02 492.32,581.5C493.85,589.48 496.32,597.24 499.14,604.85C501.22,610.32 502.2,616.15 502.48,621.98C502.72,626.19 501.12,630.91 497.25,633.03C494.57,634.42 492.12,636.72 488.96,636.78C481.93,636.46 475.27,632.1 472.3,625.69C467.22,615.01 466.18,602.84 466.83,591.18C462.06,591.72 457.27,591.42 452.5,591.01C448.83,595.72 445.52,600.69 441.84,605.4C438.12,610.06 434.92,615.11 431.68,620.11C427.11,625.82 423.47,632.18 419.15,638.07C415.31,643.07 412.53,648.76 408.86,653.87C403.13,661.67 398.42,670.15 392.91,678.1C403.62,686.72 412.94,696.87 422.76,706.46C435.96,693.42 448.7,679.91 462.51,667.5C466.21,663.61 470.12,659.95 474.25,656.52C475.82,654.99 477.21,653.19 479.12,652.05C484.15,650.08 489.72,650.23 494.82,651.86C496.92,654.2 499.11,656.46 501.26,658.75C505.55,666.09 502.83,675.92 496.16,680.86L496.06,680.73C491.3,684.71 486.61,688.78 481.9,692.82C477.12,696.02 473.28,700.35 468.66,703.76C459.16,711.19 449.73,718.71 440.08,725.94C442.85,729.47 446.03,732.67 448.76,736.25C454.08,743.74 460.3,750.62 464.61,758.79C471.26,755.77 477.75,752.4 484.43,749.44C498.54,741.59 513.23,734.84 527.36,727C532.46,723.88 537.9,721.36 543.07,718.35C550.03,714.68 556.73,710.55 563.62,706.76C571.51,702.43 578.75,697.03 586.59,692.62C592.15,689.61 597.21,685.8 602.75,682.74C608.92,679.38 614.18,674.65 620.37,671.33C626.12,667.08 632.29,663.44 638.01,659.14C645.21,653.22 652.69,647.65 660.25,642.21C668.25,635.54 676.17,628.77 683.89,621.79C697.86,607.55 711.27,592.43 721.16,575.03C727.07,566.68 730.88,557.15 735.11,547.91C738.6,540.14 741.19,532.03 744.03,524.02C752.49,493.92 756.03,462.01 750.81,431.01C735.22,426.8 719.15,424.59 703.01,424.39C690.56,423.39 678.22,425.64 665.84,426.42M586.44,442.64C580.16,443.82 574.08,445.87 568.15,448.2C569.02,453.13 569.77,458.1 569.55,463.12C579.87,455.84 590.76,449.37 602.32,444.25C597.44,441.68 591.74,441.79 586.44,442.64M468.39,591.03C467.37,599.73 467.72,608.72 470.58,617.06C472.47,622.92 474.65,629.45 480.14,632.91C483.83,635.4 488.48,635.46 492.75,634.99C490,633.63 486.95,632.37 485.2,629.7C482.33,625.85 481.64,620.88 482.14,616.21C482.96,619.53 483.1,623.06 484.62,626.2C486.3,629.9 489.87,633.15 494.12,633.16C498.44,632.5 501.19,628.08 501.43,623.96C501.66,618.89 500.77,613.8 499.47,608.92C496.42,600.12 493.08,591.37 491.04,582.26C484.28,586.82 476.34,589.46 468.39,591.03M370.26,601.23C361.51,605.28 353.59,611 346.64,617.65C340.94,624 334.91,630.16 330.56,637.56C326.12,644.27 321.91,651.17 318.58,658.5C318.05,659.65 319.37,660.69 319.66,661.76C334.16,655.49 350.05,652.11 365.87,653.34C377.7,654.62 388.79,659.58 398.71,665.94C407.25,653.37 415.35,640.51 424.14,628.12C429.99,620.79 434.59,612.59 440.37,605.22C429.97,598.99 418.05,595.46 405.96,594.8C393.8,593.54 381.09,595.4 370.26,601.23M480.42,653.61C476.29,656.3 473.04,660.08 469.5,663.46C456.86,675.17 444.19,686.88 432.52,699.57C424.28,707.33 416.64,715.67 409.19,724.18C400.58,732.34 393.74,742.08 385.88,750.92C384.53,752.55 382.99,754.13 382.2,756.14C381.6,759.37 386,761.47 388.41,759.41C408.78,747.3 427.4,732.54 446.63,718.76C458.46,709.61 470.42,700.58 481.47,690.48C486.57,686.62 491.45,682.49 496.22,678.23C500.58,674.62 502.03,668.33 501.05,662.93C498.43,654.73 488.39,649.86 480.42,653.61M392.29,675.1C391.07,675.15 390.34,677.56 391.92,677.61C393.15,677.56 393.88,675.12 392.29,675.1M365.24,696.24C349.44,708.06 341.09,727.74 339.91,747.07C338.62,756.01 339.66,765.02 339.41,774C339.02,781.95 340.15,789.87 339.6,797.82C348.87,800.08 358.16,802.23 367.5,804.17C383.43,806.79 400.21,806.9 415.61,801.53C431.42,795.61 445.26,784.81 455.26,771.25C458.05,767.13 460.36,762.71 462.82,758.39C460.56,754.97 458.26,751.59 455.77,748.35C450.02,741.24 444.98,733.57 438.72,726.88C422.35,738.88 406.03,751.05 388.62,761.51C384.4,764.78 378.62,758.55 381.24,754.34C391.02,740.04 403.6,728 414.92,714.96C417.32,712.52 419.78,710.12 422.03,707.53C413.24,699.02 404.75,690.18 395.3,682.39C384.8,685.77 373.84,689.04 365.24,696.24M505.21,740.23C496.26,745.18 487.1,749.73 478,754.37C483,763.08 486.55,772.77 486.83,782.89C488.64,799.78 483.68,816.77 475.28,831.33C474.52,832.75 473.19,835.38 475.86,835.52C480.78,834.25 485.33,831.89 490.05,830.03C509.03,821.1 528.09,809.37 538.75,790.65C548.34,775.99 551.11,757.64 548.3,740.53C546.85,733.66 545.8,726.64 543.12,720.11C530.29,726.46 518.2,734.19 505.21,740.23M466.36,759.13C466.68,762.44 469.25,757.43 466.36,759.13Z" style="fill-rule:nonzero;"/>
            <path d="M264.84,261.99C262.64,253.55 269.07,244.83 277.05,242.47C281.93,241.36 286.84,243.42 291.12,245.6C285.65,254.63 281.55,264.7 280.98,275.35C273.58,274.69 266.5,269.39 264.84,261.99Z" style="fill-rule:nonzero;"/>
            <path d="M446.51,247.79C452.44,244.92 459.94,250.58 458.68,257.06C457.6,263.65 448.68,266.97 443.73,262.31C438.96,258.23 440.81,249.99 446.51,247.79Z" style="fill-rule:nonzero;"/>
            <path d="M350.57,259.74C359.96,257.23 369.5,260.95 377.59,265.54C382.07,267.87 384.98,272.13 388.5,275.61C394.39,282.26 397.34,291.17 397.84,299.94C399.28,322.56 376.67,343.6 354.13,339.5C341.21,336.71 330.31,327.1 324.73,315.27C321.83,308.23 320.9,300.43 321.48,292.87C323.09,282.66 328.72,273.24 336.48,266.5C340.83,263.63 345.47,260.98 350.57,259.74M350.11,261.19C338.79,263.1 331.14,272.65 326.16,282.26C321.86,290.85 321.44,301.04 324.36,310.13C326.64,319.66 333.6,327.17 341.41,332.67C349.34,338.06 359.49,340.13 368.85,337.95C376.82,335.52 383.27,329.86 388.83,323.85C394.57,317.32 396.53,308.44 396.99,299.98C395.67,288.15 389.98,276.63 380.56,269.16C372.28,262.14 360.83,258.62 350.11,261.19Z" style="fill-rule:nonzero;"/>
            <path d="M429.62,297.32C434.4,295.9 439.75,294.63 444.54,296.64C447.6,298.13 451.1,300.95 450.43,304.79C450.03,308.26 447.25,310.63 444.5,312.4C446.72,316.2 449.55,319.65 451.41,323.65C453.26,328.07 450.2,334.34 445.04,334.16C441.7,334.5 439.06,332.18 436.94,329.95C437.39,332.87 438.49,336.15 437.11,339C435.37,342.08 430.86,343.11 427.96,341.09C423.64,338.17 421.4,333.26 418.68,328.99C415.07,329.97 411.02,330.97 407.48,329.26C404.19,327.41 404.02,323.05 404.89,319.81C406.25,314.36 411.51,310.97 412.78,305.52C414.98,299.01 423.08,294.6 429.62,297.32M430.33,298.01C431.17,300.92 430.59,304.16 428.03,306.03C423.94,309.37 417.69,313.03 412.67,309.53C409.54,313.17 406.87,317.35 405.73,322.07C405.06,324.22 405.89,326.98 408.09,327.89C411.37,329.25 415.51,329.58 418.54,327.41C423.05,324.34 425.5,319.02 430.28,316.27C434.45,313.69 439.25,312.51 443.88,311.03C448.27,309.75 451.2,302.86 447.08,299.7C442.33,295.94 435.84,297.23 430.33,298.01M430.63,317.64C434.11,322.41 436.4,328.36 441.26,331.94C445.45,335.42 452.62,330.2 450.55,325.18C448.59,320.77 445.86,316.77 443.24,312.75C438.96,314.18 434.63,315.52 430.63,317.64M419.59,328.28C422.15,332.35 424.42,336.81 428.21,339.91C431.55,342.85 437.37,339.39 437.01,335.12C436.74,328.81 432.66,323.55 429.82,318.16C425.86,320.94 422.82,324.72 419.59,328.28Z" style="fill-rule:nonzero;"/>
            <path d="M348.45,300.65C353.88,297.57 362.09,301.26 361.66,307.99C362.75,314.94 353.88,319.99 348.42,315.73C342.99,312.58 342.79,303.63 348.45,300.65Z" style="fill-rule:nonzero;"/>
            <path d="M372.67,425.52C379.1,425.61 385.5,426.65 391.94,426.35C396.32,426.28 400.6,425.16 404.99,425.19C401.28,425.79 402.61,429.38 402.59,431.98C403.05,442.95 402.04,453.93 401.22,464.86C399.86,471.06 399,477.83 394.86,482.91C391.51,487.24 384.75,487.56 380.36,484.69C375.27,481.72 373.9,475.47 372.78,470.14C370.55,455.76 372.82,441.17 375.41,426.99C374.49,426.51 373.57,426.02 372.67,425.52M376.72,426.98C374.31,438.45 372.28,450.18 373.13,461.95C372.96,468.54 374.06,475.53 378.07,480.95C380.82,484.59 386.2,486.77 390.5,484.69C395.08,482.08 396.83,476.69 398.25,471.93C402.66,457.22 401.53,441.68 401.1,426.55C393.05,427.99 384.81,428.08 376.72,426.98Z" style="fill-rule:nonzero;"/>
        </g>
        <g id="_-3b5672ff" serif:id="#3b5672ff">
            <path d="M486.35,46.41C522.4,45.05 558.51,48.75 593.87,55.66C600.89,57.36 607.93,58.97 614.91,60.84C626.04,63.06 636.62,67.23 647.51,70.34C656.56,74.19 666.14,76.66 675,80.99C693.91,88.63 711.88,98.37 729.64,108.34C747.9,119.45 765.69,131.37 782.56,144.5C787.92,149.51 794.09,153.57 799.31,158.74C810.03,168.66 820.99,178.36 830.7,189.3C836.73,194.98 841.66,201.66 847.21,207.8C856.94,218.25 864.83,230.19 873.37,241.59C881.6,253.32 889.07,265.56 896.19,278C900.01,286.29 905.04,293.98 908.62,302.39C912.88,311.57 917.63,320.56 920.97,330.13C930.33,353.45 938.18,377.44 943.22,402.07C945.89,414.25 948.56,426.45 949.77,438.89C952.1,455.79 953.87,472.83 953.63,489.91C953.58,497.27 954.08,504.63 953.94,511.99C952.99,532.73 951.54,553.48 948.12,573.97C945.08,587.95 943.04,602.16 938.87,615.87C936.97,625.62 933.23,634.85 930.51,644.37C923.3,666.15 914.52,687.45 903.64,707.67C892.08,731.13 877.38,752.87 862.09,774.04C856.86,781.41 850.9,788.2 844.94,794.96C839.37,802 833.23,808.55 826.81,814.82C819.92,822.27 812.83,829.59 805,836.07C797.99,842.05 791.59,848.74 784.15,854.22C778.19,859.33 771.48,863.44 765.42,868.42C759.25,873.02 752.89,877.35 746.28,881.3C738.28,887.24 729.22,891.46 720.85,896.81C709.29,903.18 697.64,909.47 685.39,914.41C671.34,920.97 656.87,926.67 642.02,931.14C608.79,942.04 574.39,949.5 539.5,952.3C527.39,953.75 515.17,953.46 503,953.89C487.64,953.62 472.23,953.86 456.96,951.93C437.79,950.18 418.76,947.08 400.02,942.71C382.94,939.8 366.6,933.92 350.13,928.77C337.27,924.33 324.94,918.6 312.37,913.46C305.63,910.77 299.48,906.86 292.79,904.07C288.75,902.34 285.23,899.65 281.26,897.79C266.68,890.59 253.37,881.18 240.01,871.99C233.87,868.3 228.16,863.97 222.73,859.32C200.75,842.54 180.67,823.37 161.99,803.01C157.83,799.09 154.86,794.15 150.84,790.1C143.93,781.95 137.11,773.69 131.28,764.71C114.47,741.89 100.16,717.28 88.53,691.44C84.45,684.17 81.94,676.2 78.45,668.66C71.03,649.88 64.44,630.72 59.73,611.07C56.28,599.97 55.1,588.36 52.6,577.05C50.51,568.5 50.35,559.65 48.93,550.99C47.74,544.05 47.9,536.98 47.03,530.01C45.39,514.72 46.5,499.34 46.21,484C46.75,469.78 48.55,455.64 49.6,441.46C52.19,423.5 55.79,405.71 59.85,388.04C62.08,377.8 66.18,368.12 68.6,357.94C73.7,342.69 79.7,327.78 86.01,313C87.99,308.44 90.74,304.26 92.54,299.62C95.86,291.33 101.17,284.07 105.12,276.1C110.25,265.63 117.28,256.29 123.47,246.45C131.79,234.26 140.38,222.21 150.04,211.03C159.04,199.79 168.69,189.06 179.18,179.19C187.38,170.71 195.98,162.61 205.1,155.13C213.59,147.51 222.3,140.07 231.81,133.73C246.78,123.63 261.37,112.82 277.4,104.42C295.01,94.45 313.14,85.3 332.14,78.24C338.54,75.99 344.54,72.73 351.09,70.88C360.76,68.22 370.24,64.86 379.92,62.19C388.93,60.09 397.86,57.64 406.84,55.42C424.8,52.36 442.75,49.09 460.92,47.53C469.4,47.19 477.86,46.58 486.35,46.41M397.34,167.28C392.14,171.85 389.57,178.42 387.37,184.8C379.25,184.2 371.09,183.51 362.95,184.12C349.18,185.02 335.69,188.67 323,194C307.14,200.16 292.27,209.09 280.01,220.96C274.63,220.64 269.09,220.46 263.9,222.16C256.96,224.26 251.26,229.37 247.44,235.42C244.27,240.52 241.31,245.95 240.43,251.97C238.27,263 242.74,274.91 251.36,282.06C249.88,303.72 254.12,325.46 261.04,345.93C264.85,355.48 268.47,365.1 272.48,374.57C274.94,380.89 278.7,386.6 281.27,392.88C290.04,408.61 298.34,424.65 308.5,439.56C313.68,449.4 321.03,457.83 326.7,467.37C330.82,474.07 335.65,480.28 340.4,486.54C352.9,504.92 366.64,522.41 379.26,540.72C385.97,549.6 393.31,557.99 400.84,566.19C412.85,577.96 426.53,588.62 442.76,593.78C441.85,595.01 440.95,596.26 440.05,597.5C434.73,594.79 428.98,593.18 423.24,591.65C408.33,586.65 391.81,587.2 376.94,592.07C371.12,593.71 365.48,596.1 360.54,599.63C349.25,606.62 339.18,615.7 331.49,626.57C324.24,635.63 318.34,645.7 313.3,656.13C311.67,659.76 313.34,664.45 317.11,665.92C321.9,668.21 326.65,664.77 331.09,663.26C350.7,656.1 373.93,656.88 391.9,668.03C389.56,671.86 387.21,675.7 385.35,679.8C373.87,683.68 363.2,690.05 354.63,698.66C349.3,703.99 345.62,710.65 342.22,717.31C339.32,722.79 338.47,729.02 336.91,734.95C334.56,743.41 335.01,752.28 334.45,760.96C334.69,774.39 335.12,787.83 335.13,801.26C350.16,805.52 365.42,809.42 381.08,810.31C391.23,811.09 401.62,810.61 411.41,807.63C420.5,805.92 428.63,801.26 436.3,796.27C447.93,788.43 457.71,777.91 465.02,765.96C467.82,763.37 471.75,762.47 475.1,760.76C478.19,768.85 481.06,777.23 481.27,785.98C481.85,795.14 479.36,804.11 476.93,812.85C475.23,818.98 471.7,824.33 468.96,830.01C466.94,833.97 468.94,839.25 473.11,840.82C477.36,842.44 481.71,840.12 485.6,838.52C492.57,835.1 499.94,832.48 506.68,828.58C522.43,820.15 536.24,807.83 545.6,792.55C548.84,786.67 551.95,780.6 553.28,773.97C556.72,760.59 557.19,746.42 554,732.95C552.83,729.03 551.63,725.11 550.75,721.12C553.99,719.2 557.3,717.39 560.61,715.58C575.43,706.42 590.74,698.05 605.19,688.29C613.18,682.87 621.83,678.45 629.44,672.46C635.09,668.02 641.57,664.78 647.04,660.08C659.01,651.51 670.11,641.84 681.55,632.58C693.52,621.16 705.23,609.34 715.11,596.03C720.57,587.54 726.88,579.6 731.61,570.66C735.38,563.61 738.82,556.37 742.09,549.08C747.85,534.19 753.03,518.98 755.68,503.2C758.2,494.01 758.21,484.46 759.54,475.09C760.94,463.42 759.76,451.68 759.06,440.02C758.75,436.19 758.46,432.3 757.32,428.62C756.47,425.87 753.6,424.67 751.04,424.09C731.74,419.48 711.85,416.74 691.97,417.82C671.96,417.78 652.14,421.51 632.95,426.97C622.94,430.38 612.73,433.33 603.34,438.3C592.57,435.09 581.03,437.51 570.56,440.73C569.11,436.25 567.62,431.75 565.27,427.66C559.95,418.04 551.5,410.79 544.58,402.4C540.24,397.31 536.84,391.52 532.79,386.22C526.7,377.94 522.46,368.53 517.22,359.73C514.05,353.98 511.52,347.9 508.72,341.97C513.15,337.65 517.7,333.44 521.53,328.56C528.33,320.22 536.1,311.26 536.37,299.89C537.9,289.32 526.13,279.54 516.06,283.09C505.88,286.54 499.21,295.43 493.38,303.95C490.04,294.64 486.78,285.31 483.47,276C485.89,271.89 488.77,267.86 489.7,263.09C490.69,257.8 491.67,252.34 490.63,246.98C489.28,240.82 486.74,234.88 483.32,229.59C477.06,220.95 467.4,214.75 456.89,212.8C454.55,212.51 452.62,211.15 450.74,209.85C452.46,204.71 454.06,199.45 454.22,193.98C455.01,184.68 452.55,174.13 444.91,168.11C438.73,162.94 430.9,160.08 423.01,158.89C413.78,157.39 403.67,160.18 397.34,167.28M691.83,235.07C690.88,237.27 690.33,239.81 688.61,241.58C686.76,243.03 684.37,243.47 682.22,244.24C684.35,245.21 686.74,245.86 688.5,247.5C690.06,249.37 690.52,251.87 691.27,254.13C692.18,251.86 692.7,249.27 694.45,247.45C696.41,245.96 698.94,245.57 701.25,244.85C698.96,243.87 696.38,243.3 694.55,241.52C693.05,239.68 692.58,237.27 691.83,235.07M824.01,249.23C821.75,250.36 819.12,250.07 816.69,250.15C818.34,251.5 820.17,252.73 821.37,254.54C822.7,256.97 821.93,259.85 821.89,262.47C823.38,260.79 824.77,258.95 826.67,257.7C829.1,256.41 831.97,256.97 834.61,256.94C832.87,255.52 830.96,254.22 829.64,252.37C828.19,250 828.91,247.07 828.88,244.46C827.39,246.17 826.01,248.07 824.01,249.23M710.95,289.06C706.82,290.71 702.25,289.82 697.95,289.65C701.05,292.65 704.84,295.13 707.15,298.84C708.6,302.8 707.85,307.13 707.79,311.25C710.68,308.37 712.98,304.79 716.51,302.63C720.64,300.95 725.24,301.88 729.57,301.98C726.53,299.16 722.98,296.66 720.96,292.95C719.28,288.89 719.9,284.35 719.87,280.07C717.12,283.25 714.65,286.91 710.95,289.06M161.93,513.17C162.14,519.96 164.19,527.11 161.66,533.68C158.55,539.56 153.38,544.01 148.42,548.3C148.44,548.5 148.48,548.9 148.49,549.1C152.91,546.84 158.19,547.67 163,547.61C172.3,547.63 177.94,556.12 183.5,562.34C182.91,555.77 180.98,548.79 183.58,542.42C186.09,535.73 192.05,531.32 197.36,526.93C190.9,527.34 184.14,529.41 177.86,526.93C171.08,524.44 166.45,518.51 161.93,513.17M313.06,566.14C309.16,567.42 304.98,566.72 300.96,566.62C303.93,569.48 307.45,571.96 309.58,575.56C311.27,579.6 310.48,584.14 310.54,588.4C313.34,585.01 315.87,580.86 320.16,579.21C324.18,578.4 328.33,578.93 332.41,578.85C329.17,576.35 325.51,573.96 323.8,570.08C321.78,565.88 322.59,561.11 322.83,556.65C320.04,560.2 317.44,564.39 313.06,566.14M755.64,741.78C755.33,746.3 755.79,751.29 753.24,755.27C750.69,758.63 746.81,760.56 743.3,762.74C747.55,763.16 752.1,762.84 756.03,764.78C759.63,767.08 761.56,771.1 764.23,774.32C764.89,770.33 764.71,766.1 766.27,762.32C768.65,758.48 772.93,756.47 776.56,754.03C772.34,753.68 767.84,754.09 763.91,752.22C759.98,749.87 758.02,745.49 755.64,741.78M240.26,762.77C239.36,764.94 238.72,767.32 237.12,769.11C235.33,770.79 232.84,771.33 230.59,772.15C232.67,773.05 234.97,773.7 236.71,775.22C238.41,776.99 238.89,779.52 239.76,781.74C240.7,779.45 241.33,776.82 243.34,775.2C245.2,773.9 247.47,773.41 249.6,772.73C247.45,771.81 245.1,771.16 243.29,769.63C241.57,767.73 241.08,765.11 240.26,762.77M365.49,880.61C361.91,881.33 360.09,884.82 359.35,888.09C357.35,895.83 353.95,903.18 352.5,911.06C351.95,915.92 356.96,918.65 360.99,919.59C365.15,920.53 370.78,921.86 373.78,917.83C376.19,913.51 376.47,908.38 377.83,903.69C374.14,902.39 370.4,901.24 366.55,900.56C366.58,901.4 366.65,903.09 366.69,903.93C368.65,904.5 370.6,905.06 372.57,905.64C371.16,909.18 371.34,914.04 367.84,916.3C364.28,917.14 359.12,915.86 357.75,912.11C358.18,904.68 362.07,898 363.72,890.81C364.46,888.38 365.07,884.91 368.06,884.36C370.88,884.13 374,885 376,887.09C377.83,889.62 375.91,892.76 375.34,895.4C376.62,896.16 377.9,896.89 379.21,897.64C380.93,893.59 383.4,887.99 379.69,884.3C375.75,881.3 370.41,879.72 365.49,880.61M614.77,884.93C617.35,897.62 621.27,909.99 624.7,922.48C626.35,922.01 628.01,921.57 629.67,921.1C628.23,915.91 626.46,910.81 625.27,905.56C627.36,904.86 629.46,904.16 631.56,903.46C635.59,907.9 639.43,912.5 643.35,917.04C645.08,916.56 646.82,916.05 648.5,915.39C644.47,910.76 640.16,906.4 636.19,901.73C638.59,899.54 640.87,896.49 639.57,893.05C638.18,888.65 637.4,882.32 632.01,881.18C626,880.3 620.44,883.46 614.77,884.93M589.11,891.09C588.65,896.75 591.32,902.25 592.18,907.85C593.28,915.08 595.04,922.2 596.78,929.3C602.96,928.01 609.14,926.62 615.23,924.96C615.3,924.12 615.45,922.44 615.52,921.6C610.52,922.45 605.66,923.88 600.68,924.81C599.98,920.03 598.99,915.31 597.66,910.67C601.41,909.87 605.17,909.11 608.89,908.16C608.87,907.31 608.85,905.62 608.84,904.77C604.83,905.38 600.88,906.29 596.93,907.16C595.87,902.68 594.94,898.18 594.15,893.66C598.57,892.64 603.04,891.74 607.34,890.25C607,889.49 606.32,887.97 605.99,887.21C600.39,888.65 594.66,889.52 589.11,891.09M394.3,889.22C391.74,890.59 390.9,893.56 390.24,896.18C388.6,903.19 386.64,910.14 385.39,917.25C384.85,919.89 384.59,923.15 386.89,925.09C390.29,927.73 394.78,928.51 398.98,928.95C402.42,929.44 406.28,927.51 407.06,923.93C409.08,915.68 410.37,907.26 412.09,898.95C413.32,894.21 409.09,890.32 404.84,889.35C401.44,888.66 397.58,887.54 394.3,889.22M417.12,931.95C418.3,933.02 420.01,932.96 421.47,932.64C422.79,927.49 423.38,922.18 424.57,917C426.83,917.2 429.09,917.42 431.35,917.65C432.52,923.53 433.63,929.52 436.12,935.01C437.7,935.64 439.45,935.24 441.11,935.31C439.62,929.59 437.85,923.95 436.14,918.3C439.06,917.21 442.1,915.38 442.42,911.95C443.06,907.23 445.25,900.82 440.59,897.44C435.59,894.38 429.4,894.57 423.81,893.41C421.05,906.16 418.91,919.04 417.12,931.95M560.28,900.15C559.8,903.78 560.09,907.83 561.79,911.13C566.41,915.52 573.7,914.67 578.79,918.24C580.35,920.73 580.81,924.05 580.2,926.91C578.46,930 574.08,930.53 570.94,929.78C567.33,928.23 568.12,923.55 567.28,920.4C565.67,920.51 564.06,920.64 562.46,920.79C563.08,924.46 562.96,928.57 565.19,931.73C567.83,934.88 572.38,934.09 575.99,933.77C579.93,933.28 584.97,931.53 585.47,926.94C585.58,923.18 584.84,919.25 583.15,915.9C578.95,911.25 571.78,912.45 566.78,909.23C565.09,907.27 564.93,904.41 564.78,901.95C565.31,897.86 570.76,897.08 574,898.06C577.13,899.72 576.45,903.94 577.27,906.88C578.78,906.6 580.43,906.63 581.81,905.83C581.04,901.8 580.72,896.5 576.67,894.36C570.93,892.42 562.68,893.92 560.28,900.15M452.61,915.04C451.3,922.08 451.06,929.26 450.17,936.37C456.63,937.61 463.22,938.13 469.8,938.22C469.91,937.44 470.13,935.88 470.23,935.1C465.41,934.4 460.57,933.92 455.73,933.46C455.9,928.77 456.31,924.1 457.05,919.47C460.98,919.74 464.93,920.37 468.87,919.97C468.91,919.22 468.99,917.73 469.03,916.99C465.32,915.61 461.24,916.05 457.37,915.57C457.99,911.07 458.36,906.53 458.48,901.99C462.83,902.37 467.2,903.25 471.57,902.78C471.79,901.65 471.98,900.54 472.14,899.42C466.33,898.67 460.5,898.09 454.66,897.66C453.54,903.4 453.35,909.25 452.61,915.04M538.36,898.36C536.68,903.78 536.7,909.56 535.72,915.13C534.68,922.83 532.58,930.34 531.55,938.05C533.06,938.09 534.57,938.09 536.09,938.05C537.24,934.86 537.56,931.46 538.16,928.16C541.88,927.51 545.64,927.19 549.42,927.13C550.62,930.21 551.86,933.27 553.1,936.35C554.53,935.85 556.7,936.49 557.58,934.99C556.12,930.12 553.85,925.54 552.23,920.72C549.07,913.22 546.87,905.37 543.8,897.84C541.98,897.91 540.12,897.85 538.36,898.36M480.43,899.99C480.48,906.65 479.86,913.29 479.87,919.96C479.84,926.24 478.34,932.51 479.21,938.8C485.27,939.73 491.44,939.28 497.54,939.18C497.33,937.96 497.99,936.28 496.68,935.55C492.5,935.11 488.28,935.46 484.08,935.37C484.75,928.61 484.28,921.83 484.67,915.07C484.93,910.01 485.22,904.95 485.17,899.89C483.58,899.89 482.01,899.93 480.43,899.99M505.38,900.21C505.36,913.15 505.84,926.07 505.89,939.02C512.35,939.14 519.02,939.8 525.33,938.12C525.43,937.54 525.64,936.4 525.75,935.82C520.95,934.23 515.72,935.35 510.77,935.47C510.5,930.75 510.41,926.01 510.63,921.29C514.55,920.99 518.61,921.35 522.41,920.15C522.28,919.46 522.03,918.07 521.9,917.38C518.09,917.03 514.25,917.29 510.43,917.26C509.98,912.75 509.86,908.21 510.01,903.69C514.37,903.56 518.74,903.55 523.09,903.28C523.12,902.37 523.18,900.55 523.2,899.64C517.26,899.67 511.31,899.88 505.38,900.21Z" style="fill:#3b5672;fill-rule:nonzero;"/>
            <path d="M658.49,460.65C671.76,458.11 685.79,462.3 696.15,470.8C704.94,478.3 711,488.79 713.5,500.04C715.05,511.36 712.79,523.26 707.3,533.28C702.44,540.58 696.32,547.37 688.32,551.25C679.5,556.2 669.07,557.82 659.1,556.4C650.99,555.29 642.72,552.9 636.51,547.32C625.73,539.61 618.89,527.13 617.26,514.07C616.25,502.78 618.17,490.57 625.45,481.51C633.12,470.64 645.09,462.22 658.49,460.65M662.4,461.97C661.13,462.96 661.08,464.57 660.86,466.03C662.14,465.95 663.42,465.83 664.7,465.66C665.73,463.88 664.54,461.65 662.4,461.97M682.31,466.57C681.81,467.73 681.88,469 681.81,470.23C683.24,470.09 684.94,470.27 686.03,469.09C686.23,467.23 683.98,465.21 682.31,466.57M640.71,469.24C640.87,470.13 641.04,471.01 641.29,471.91C642.61,472.54 644.02,472.03 645.03,471.07C645.26,469.65 644.24,468.69 643.4,467.75C642.72,468.12 641.38,468.87 640.71,469.24M656.63,469.83C640.06,473.68 626.43,488.84 625.97,506.08C624.53,523.59 636.48,541.02 653.09,546.45C664.54,549.45 677.7,548.64 687.56,541.58C698.36,534.11 705.38,521.18 705.32,508.01C704.62,498.85 701.81,489.34 695.4,482.51C686.3,471.35 670.51,466.7 656.63,469.83M698.09,481.88C698.59,482.63 699.13,483.36 699.7,484.08C700.36,483.75 701.67,483.09 702.33,482.76C702.15,481.72 702.1,480.63 701.63,479.67C700.08,478.44 697.89,480.08 698.09,481.88M625.04,485.73C626.17,486.14 627.26,487.06 628.54,486.9C629.23,486.05 629.88,485.18 630.5,484.29C629.37,483.77 628.22,483.34 627.05,482.98C626.31,483.84 625.67,484.79 625.04,485.73M708.4,498.47C707.48,499.23 706.7,500.13 705.89,501C707.11,501.64 708.13,503.02 709.64,502.92C711.7,501.72 710.52,498.7 708.4,498.47M619.14,505.63C619.98,506.96 621.61,506.95 622.99,507.26C622.95,505.9 622.9,504.54 622.86,503.19C622.09,503.13 620.57,503 619.81,502.94C619.5,503.81 619.27,504.71 619.14,505.63M705.06,520.93C704.71,522.24 705.1,523.25 706.23,523.97C707.54,524.01 708.54,522.95 709.66,522.39C709.42,521.73 708.95,520.42 708.71,519.76C707.44,519.89 705.93,519.77 705.06,520.93M622.72,524.18C622.97,525.63 622.91,527.68 624.76,528.07C625.61,527.45 626.44,526.81 627.26,526.14C626.96,525.6 626.36,524.52 626.06,523.98C625.22,524.03 623.55,524.13 622.72,524.18M693.98,538.96C693.54,540.83 695.32,542.23 697.08,542.05C698.35,540.99 698.01,539.18 698.2,537.75C696.75,537.91 695.04,537.72 693.98,538.96M635.6,543.73C636.27,544.05 637.61,544.69 638.28,545.01C639.28,543.93 640.99,542.07 638.84,541.13C636.83,539.88 635.61,541.85 635.6,543.73M676.02,549.13C676.02,549.78 676.03,551.07 676.03,551.72C677,552.15 677.97,552.59 678.95,553.03C680.14,551.11 680.03,549.27 678.14,547.9C677.61,548.21 676.55,548.82 676.02,549.13M654.97,550.24C654.95,551.07 654.95,551.9 654.96,552.74C655.54,552.99 656.71,553.5 657.3,553.75C659.52,552.46 658.94,550.39 657.33,548.89C656.74,549.23 655.56,549.9 654.97,550.24Z" style="fill:#3b5672;fill-rule:nonzero;"/>
            <path d="M392.29,675.1C393.88,675.12 393.15,677.56 391.92,677.61C390.34,677.56 391.07,675.15 392.29,675.1Z" style="fill:#3b5672;fill-rule:nonzero;"/>
            <path d="M466.36,759.13C469.25,757.43 466.68,762.44 466.36,759.13Z" style="fill:#3b5672;fill-rule:nonzero;"/>
            <path d="M619.95,887.11C623.57,886.35 627.63,883.78 631.24,885.72C633.81,888.4 634.52,892.46 634.85,896.06C633.91,900.76 627.87,900.7 624.18,901.7C622.9,896.79 621.45,891.95 619.95,887.11Z" style="fill:#3b5672;fill-rule:nonzero;"/>
            <path d="M398.42,892.52C401.2,891.99 404.36,892.66 406.5,894.57C408.36,896.6 407.22,899.48 406.86,901.85C405.23,908.63 404.37,915.6 402.19,922.24C401.28,925.23 397.59,925.4 395.07,924.67C392.4,924.17 389.29,922.12 390.06,918.98C391.07,912.37 393.52,906.07 394.6,899.47C395.19,896.94 395.48,893.43 398.42,892.52Z" style="fill:#3b5672;fill-rule:nonzero;"/>
            <path d="M427.36,897.92C431,898.66 436.6,897.72 438.22,901.97C438.32,905.67 438.73,910.22 436.13,913.2C432.71,915.14 428.51,913.32 424.82,913.23C426.08,908.2 426.98,903.09 427.36,897.92Z" style="fill:#3b5672;fill-rule:nonzero;"/>
            <path d="M541.54,904.25C544.05,910.55 545.87,917.09 548.15,923.48C544.99,923.78 541.83,924.08 538.67,924.37C540.05,917.72 540.08,910.88 541.54,904.25Z" style="fill:#3b5672;fill-rule:nonzero;"/>
        </g>
        <g id="_-4fd0fcff" serif:id="#4fd0fcff">
            <path d="M412.74,164.76C424.27,162.46 436.76,166.76 444.78,175.27C451.64,185.5 449.45,198.97 444.9,209.69C441.26,207.05 437.45,204.68 433.6,202.37C435.49,198.2 436.3,193.15 433.87,189.02C431.02,184.25 425.87,180.15 420.03,180.62C413.62,181.03 408.43,186.17 406.63,192.13C402.1,191.01 397.51,190.2 392.9,189.56C394.09,184.4 395.37,178.99 398.8,174.8C402.41,170.29 406.82,165.85 412.74,164.76Z" style="fill:#4fd0fc;fill-rule:nonzero;"/>
            <path d="M345.01,192.92C365.76,187.22 387.71,189.29 408.48,193.74C418.21,196.61 427.58,200.6 436.54,205.34C441.76,208.2 446.12,212.28 450.41,216.35C440.84,217.22 431.46,222.02 426.27,230.3C419.72,238.17 417.76,249.11 419.96,258.99C421.56,268.52 427.84,276.74 435.58,282.26C443.84,287.71 454.84,290.22 464.24,286.23C469.46,283.83 474.33,280.58 478.39,276.48C480.84,284.01 482.74,291.73 485.89,299.02C489.95,308.82 492.6,319.16 497.37,328.67C504.97,347.64 514.09,365.98 524.66,383.45C529.47,390.28 533.89,397.38 539.09,403.92C548.01,414.42 559.32,423.59 564.05,436.97C570.18,451.53 568.9,467.95 565.22,482.96C562.76,493.47 557.38,502.93 552.44,512.42C546.49,523.26 538.11,532.46 530.38,542.02C526.27,547.63 521.51,552.71 517.28,558.22C509.56,566.59 501.05,574.26 491.67,580.74C482.34,586.09 472.13,590.86 461.09,590.49C445.73,591.12 431.13,584.01 419.36,574.65C413.27,570.14 408.09,564.57 402.74,559.23C390.66,547.37 380.99,533.36 371.75,519.25C363.68,508.62 355.79,497.84 348.02,486.98C343.56,481.91 340.61,475.77 336.36,470.53C331.57,464.78 328.31,457.99 323.92,451.95C310.71,433.37 299.07,413.7 288.62,393.44C283.42,384.01 278.82,374.27 274.82,364.28C270.4,355.68 268.02,346.26 264.79,337.19C262.07,326.53 258.39,315.95 257.94,304.86C257.45,296.83 256.93,288.78 257.49,280.74C263.69,285.06 271.31,286.41 278.7,286.87C278.02,285.97 277.12,285.52 276.02,285.54C265.74,285 255.82,279.59 249.72,271.3C245.98,265.65 244.9,258.39 246.81,251.89C248.61,242.92 253.81,234.6 261.41,229.45C267.52,225.51 275.27,225.4 282.16,226.93C287.61,228.17 292.37,231.24 297.54,233.23C293.6,229.38 288.04,228.04 283.16,225.79C288.86,220.84 294.53,215.78 301.01,211.86C314.74,203.62 329.28,196.34 345.01,192.92M264.84,261.99C266.5,269.39 273.58,274.69 280.98,275.35C281.55,264.7 285.65,254.63 291.12,245.6C286.84,243.42 281.93,241.36 277.05,242.47C269.07,244.83 262.64,253.55 264.84,261.99M350.57,259.74C345.47,260.98 340.83,263.63 336.48,266.5C328.72,273.24 323.09,282.66 321.48,292.87C320.9,300.43 321.83,308.23 324.73,315.27C330.31,327.1 341.21,336.71 354.13,339.5C376.67,343.6 399.28,322.56 397.84,299.94C397.34,291.17 394.39,282.26 388.5,275.61C384.98,272.13 382.07,267.87 377.59,265.54C369.5,260.95 359.96,257.23 350.57,259.74M429.62,297.32C423.08,294.6 414.98,299.01 412.78,305.52C411.51,310.97 406.25,314.36 404.89,319.81C404.02,323.05 404.19,327.41 407.48,329.26C411.02,330.97 415.07,329.97 418.68,328.99C421.4,333.26 423.64,338.17 427.96,341.09C430.86,343.11 435.37,342.08 437.11,339C438.49,336.15 437.39,332.87 436.94,329.95C439.06,332.18 441.7,334.5 445.04,334.16C450.2,334.34 453.26,328.07 451.41,323.65C449.55,319.65 446.72,316.2 444.5,312.4C447.25,310.63 450.03,308.26 450.43,304.79C451.1,300.95 447.6,298.13 444.54,296.64C439.75,294.63 434.4,295.9 429.62,297.32M372.67,425.52C373.57,426.02 374.49,426.51 375.41,426.99C372.82,441.17 370.55,455.76 372.78,470.14C373.9,475.47 375.27,481.72 380.36,484.69C384.75,487.56 391.51,487.24 394.86,482.91C399,477.83 399.86,471.06 401.22,464.86C402.04,453.93 403.05,442.95 402.59,431.98C402.61,429.38 401.28,425.79 404.99,425.19C400.6,425.16 396.32,426.28 391.94,426.35C385.5,426.65 379.1,425.61 372.67,425.52Z" style="fill:#4fd0fc;fill-rule:nonzero;"/>
        </g>
        <g id="_-fefefcff" serif:id="#fefefcff">
            <path d="M446.15,218.25C454.18,216.38 462.67,219.23 469.38,223.67C482.06,231.3 488.6,247.76 484.89,262.03C480.35,276.4 466.17,288.74 450.46,286.89C441.12,285.05 432.16,279.93 426.74,271.96C422,264.33 418.84,255.16 420.68,246.12C422.75,232.87 432.86,221.11 446.15,218.25M446.51,247.79C440.81,249.99 438.96,258.23 443.73,262.31C448.68,266.97 457.6,263.65 458.68,257.06C459.94,250.58 452.44,244.92 446.51,247.79Z" style="fill:#fefefc;fill-rule:nonzero;"/>
            <path d="M691.83,235.07C692.58,237.27 693.05,239.68 694.55,241.52C696.38,243.3 698.96,243.87 701.25,244.85C698.94,245.57 696.41,245.96 694.45,247.45C692.7,249.27 692.18,251.86 691.27,254.13C690.52,251.87 690.06,249.37 688.5,247.5C686.74,245.86 684.35,245.21 682.22,244.24C684.37,243.47 686.76,243.03 688.61,241.58C690.33,239.81 690.88,237.27 691.83,235.07Z" style="fill:#fefefc;fill-rule:nonzero;"/>
            <path d="M824.01,249.23C826.01,248.07 827.39,246.17 828.88,244.46C828.91,247.07 828.19,250 829.64,252.37C830.96,254.22 832.87,255.52 834.61,256.94C831.97,256.97 829.1,256.41 826.67,257.7C824.77,258.95 823.38,260.79 821.89,262.47C821.93,259.85 822.7,256.97 821.37,254.54C820.17,252.73 818.34,251.5 816.69,250.15C819.12,250.07 821.75,250.36 824.01,249.23Z" style="fill:#fefefc;fill-rule:nonzero;"/>
            <path d="M350.11,261.19C360.83,258.62 372.28,262.14 380.56,269.16C389.98,276.63 395.67,288.15 396.99,299.98C396.53,308.44 394.57,317.32 388.83,323.85C383.27,329.86 376.82,335.52 368.85,337.95C359.49,340.13 349.34,338.06 341.41,332.67C333.6,327.17 326.64,319.66 324.36,310.13C321.44,301.04 321.86,290.85 326.16,282.26C331.14,272.65 338.79,263.1 350.11,261.19M348.45,300.65C342.79,303.63 342.99,312.58 348.42,315.73C353.88,319.99 362.75,314.94 361.66,307.99C362.09,301.26 353.88,297.57 348.45,300.65Z" style="fill:#fefefc;fill-rule:nonzero;"/>
            <path d="M710.95,289.06C714.65,286.91 717.12,283.25 719.87,280.07C719.9,284.35 719.28,288.89 720.96,292.95C722.98,296.66 726.53,299.16 729.57,301.98C725.24,301.88 720.64,300.95 716.51,302.63C712.98,304.79 710.68,308.37 707.79,311.25C707.85,307.13 708.6,302.8 707.15,298.84C704.84,295.13 701.05,292.65 697.95,289.65C702.25,289.82 706.82,290.71 710.95,289.06Z" style="fill:#fefefc;fill-rule:nonzero;"/>
            <path d="M430.63,317.64C434.63,315.52 438.96,314.18 443.24,312.75C445.86,316.77 448.59,320.77 450.55,325.18C452.62,330.2 445.45,335.42 441.26,331.94C436.4,328.36 434.11,322.41 430.63,317.64Z" style="fill:#fefefc;fill-rule:nonzero;"/>
            <path d="M419.59,328.28C422.82,324.72 425.86,320.94 429.82,318.16C432.66,323.55 436.74,328.81 437.01,335.12C437.37,339.39 431.55,342.85 428.21,339.91C424.42,336.81 422.15,332.35 419.59,328.28Z" style="fill:#fefefc;fill-rule:nonzero;"/>
            <path d="M161.93,513.17C166.45,518.51 171.08,524.44 177.86,526.93C184.14,529.41 190.9,527.34 197.36,526.93C192.05,531.32 186.09,535.73 183.58,542.42C180.98,548.79 182.91,555.77 183.5,562.34C177.94,556.12 172.3,547.63 163,547.61C158.19,547.67 152.91,546.84 148.49,549.1C148.48,548.9 148.44,548.5 148.42,548.3C153.38,544.01 158.55,539.56 161.66,533.68C164.19,527.11 162.14,519.96 161.93,513.17Z" style="fill:#fefefc;fill-rule:nonzero;"/>
            <path d="M313.06,566.14C317.44,564.39 320.04,560.2 322.83,556.65C322.59,561.11 321.78,565.88 323.8,570.08C325.51,573.96 329.17,576.35 332.41,578.85C328.33,578.93 324.18,578.4 320.16,579.21C315.87,580.86 313.34,585.01 310.54,588.4C310.48,584.14 311.27,579.6 309.58,575.56C307.45,571.96 303.93,569.48 300.96,566.62C304.98,566.72 309.16,567.42 313.06,566.14Z" style="fill:#fefefc;fill-rule:nonzero;"/>
            <path d="M755.64,741.78C758.02,745.49 759.98,749.87 763.91,752.22C767.84,754.09 772.34,753.68 776.56,754.03C772.93,756.47 768.65,758.48 766.27,762.32C764.71,766.1 764.89,770.33 764.23,774.32C761.56,771.1 759.63,767.08 756.03,764.78C752.1,762.84 747.55,763.16 743.3,762.74C746.81,760.56 750.69,758.63 753.24,755.27C755.79,751.29 755.33,746.3 755.64,741.78Z" style="fill:#fefefc;fill-rule:nonzero;"/>
            <path d="M240.26,762.77C241.08,765.11 241.57,767.73 243.29,769.63C245.1,771.16 247.45,771.81 249.6,772.73C247.47,773.41 245.2,773.9 243.34,775.2C241.33,776.82 240.7,779.45 239.76,781.74C238.89,779.52 238.41,776.99 236.71,775.22C234.97,773.7 232.67,773.05 230.59,772.15C232.84,771.33 235.33,770.79 237.12,769.11C238.72,767.32 239.36,764.94 240.26,762.77Z" style="fill:#fefefc;fill-rule:nonzero;"/>
        </g>
        <g id="_-e0dedbff" serif:id="#e0dedbff">
            <path d="M509.1,294.12C512.4,291.05 516.44,288.34 521.02,287.84C524.7,288.43 528.13,290.74 530.32,293.73C532.96,299.64 529.94,306.15 527.46,311.58C520.96,322.11 512.61,331.47 503.33,339.62C499.91,331.83 496.29,324.12 493.45,316.09C497.87,308.26 502.62,300.44 509.1,294.12Z" style="fill:#e0dedb;fill-rule:nonzero;"/>
            <path d="M430.33,298.01C435.84,297.23 442.33,295.94 447.08,299.7C451.2,302.86 448.27,309.75 443.88,311.03C439.25,312.51 434.45,313.69 430.28,316.27C425.5,319.02 423.05,324.34 418.54,327.41C415.51,329.58 411.37,329.25 408.09,327.89C405.89,326.98 405.06,324.22 405.73,322.07C406.87,317.35 409.54,313.17 412.67,309.53C417.69,313.03 423.94,309.37 428.03,306.03C430.59,304.16 431.17,300.92 430.33,298.01Z" style="fill:#e0dedb;fill-rule:nonzero;"/>
            <path d="M665.84,426.42C678.22,425.64 690.56,423.39 703.01,424.39C719.15,424.59 735.22,426.8 750.81,431.01C756.03,462.01 752.49,493.92 744.03,524.02C741.19,532.03 738.6,540.14 735.11,547.91C730.88,557.15 727.07,566.68 721.16,575.03C711.27,592.43 697.86,607.55 683.89,621.79C676.17,628.77 668.25,635.54 660.25,642.21C652.69,647.65 645.21,653.22 638.01,659.14C632.29,663.44 626.12,667.08 620.37,671.33C614.18,674.65 608.92,679.38 602.75,682.74C597.21,685.8 592.15,689.61 586.59,692.62C578.75,697.03 571.51,702.43 563.62,706.76C556.73,710.55 550.03,714.68 543.07,718.35C539.63,712.07 536.2,705.76 531.92,700.01C522.28,685.85 512.94,671.35 501.26,658.75C499.11,656.46 496.92,654.2 494.82,651.86C479.07,634.33 460.73,619.4 441.84,605.4C445.52,600.69 448.83,595.72 452.5,591.01C457.27,591.42 462.06,591.72 466.83,591.18C466.18,602.84 467.22,615.01 472.3,625.69C475.27,632.1 481.93,636.46 488.96,636.78C492.12,636.72 494.57,634.42 497.25,633.03C501.12,630.91 502.72,626.19 502.48,621.98C502.2,616.15 501.22,610.32 499.14,604.85C496.32,597.24 493.85,589.48 492.32,581.5C499.93,577.02 506.64,571.12 512.55,564.59C519.61,557.94 525.92,550.49 531.38,542.48C534.85,537.3 539.87,533.41 543.16,528.09C550.39,518.32 557.36,508.13 561.51,496.61C563.37,491.11 566.18,485.89 566.95,480.08C567.93,475.03 568.83,469.96 569.48,464.86C575.61,461.29 581.24,456.92 587.54,453.63C598.11,447.27 609.68,442.86 620.91,437.82C624.78,436.26 628.92,435.53 632.78,433.91C640.22,430.98 648.26,430.34 655.92,428.21C659.19,427.45 662.5,426.78 665.84,426.42M658.49,460.65C645.09,462.22 633.12,470.64 625.45,481.51C618.17,490.57 616.25,502.78 617.26,514.07C618.89,527.13 625.73,539.61 636.51,547.32C642.72,552.9 650.99,555.29 659.1,556.4C669.07,557.82 679.5,556.2 688.32,551.25C696.32,547.37 702.44,540.58 707.3,533.28C712.79,523.26 715.05,511.36 713.5,500.04C711,488.79 704.94,478.3 696.15,470.8C685.79,462.3 671.76,458.11 658.49,460.65Z" style="fill:#e0dedb;fill-rule:nonzero;"/>
            <path d="M376.72,426.98C384.81,428.08 393.05,427.99 401.1,426.55C401.53,441.68 402.66,457.22 398.25,471.93C396.83,476.69 395.08,482.08 390.5,484.69C386.2,486.77 380.82,484.59 378.07,480.95C374.06,475.53 372.96,468.54 373.13,461.95C372.28,450.18 374.31,438.45 376.72,426.98Z" style="fill:#e0dedb;fill-rule:nonzero;"/>
            <path d="M586.44,442.64C591.74,441.79 597.44,441.68 602.32,444.25C590.76,449.37 579.87,455.84 569.55,463.12C569.77,458.1 569.02,453.13 568.15,448.2C574.08,445.87 580.16,443.82 586.44,442.64Z" style="fill:#e0dedb;fill-rule:nonzero;"/>
            <path d="M662.4,461.97C664.54,461.65 665.73,463.88 664.7,465.66C663.42,465.83 662.14,465.95 660.86,466.03C661.08,464.57 661.13,462.96 662.4,461.97Z" style="fill:#e0dedb;fill-rule:nonzero;"/>
            <path d="M682.31,466.57C683.98,465.21 686.23,467.23 686.03,469.09C684.94,470.27 683.24,470.09 681.81,470.23C681.88,469 681.81,467.73 682.31,466.57Z" style="fill:#e0dedb;fill-rule:nonzero;"/>
            <path d="M640.71,469.24C641.38,468.87 642.72,468.12 643.4,467.75C644.24,468.69 645.26,469.65 645.03,471.07C644.02,472.03 642.61,472.54 641.29,471.91C641.04,471.01 640.87,470.13 640.71,469.24Z" style="fill:#e0dedb;fill-rule:nonzero;"/>
            <path d="M698.09,481.88C697.89,480.08 700.08,478.44 701.63,479.67C702.1,480.63 702.15,481.72 702.33,482.76C701.67,483.09 700.36,483.75 699.7,484.08C699.13,483.36 698.59,482.63 698.09,481.88Z" style="fill:#e0dedb;fill-rule:nonzero;"/>
            <path d="M625.04,485.73C625.67,484.79 626.31,483.84 627.05,482.98C628.22,483.34 629.37,483.77 630.5,484.29C629.88,485.18 629.23,486.05 628.54,486.9C627.26,487.06 626.17,486.14 625.04,485.73Z" style="fill:#e0dedb;fill-rule:nonzero;"/>
            <path d="M708.4,498.47C710.52,498.7 711.7,501.72 709.64,502.92C708.13,503.02 707.11,501.64 705.89,501C706.7,500.13 707.48,499.23 708.4,498.47Z" style="fill:#e0dedb;fill-rule:nonzero;"/>
            <path d="M619.14,505.63C619.27,504.71 619.5,503.81 619.81,502.94C620.57,503 622.09,503.13 622.86,503.19C622.9,504.54 622.95,505.9 622.99,507.26C621.61,506.95 619.98,506.96 619.14,505.63Z" style="fill:#e0dedb;fill-rule:nonzero;"/>
            <path d="M705.06,520.93C705.93,519.77 707.44,519.89 708.71,519.76C708.95,520.42 709.42,521.73 709.66,522.39C708.54,522.95 707.54,524.01 706.23,523.97C705.1,523.25 704.71,522.24 705.06,520.93Z" style="fill:#e0dedb;fill-rule:nonzero;"/>
            <path d="M622.72,524.18C623.55,524.13 625.22,524.03 626.06,523.98C626.36,524.52 626.96,525.6 627.26,526.14C626.44,526.81 625.61,527.45 624.76,528.07C622.91,527.68 622.97,525.63 622.72,524.18Z" style="fill:#e0dedb;fill-rule:nonzero;"/>
            <path d="M693.98,538.96C695.04,537.72 696.75,537.91 698.2,537.75C698.01,539.18 698.35,540.99 697.08,542.05C695.32,542.23 693.54,540.83 693.98,538.96Z" style="fill:#e0dedb;fill-rule:nonzero;"/>
            <path d="M635.6,543.73C635.61,541.85 636.83,539.88 638.84,541.13C640.99,542.07 639.28,543.93 638.28,545.01C637.61,544.69 636.27,544.05 635.6,543.73Z" style="fill:#e0dedb;fill-rule:nonzero;"/>
            <path d="M676.02,549.13C676.55,548.82 677.61,548.21 678.14,547.9C680.03,549.27 680.14,551.11 678.95,553.03C677.97,552.59 677,552.15 676.03,551.72C676.03,551.07 676.02,549.78 676.02,549.13Z" style="fill:#e0dedb;fill-rule:nonzero;"/>
            <path d="M654.97,550.24C655.56,549.9 656.74,549.23 657.33,548.89C658.94,550.39 659.52,552.46 657.3,553.75C656.71,553.5 655.54,552.99 654.96,552.74C654.95,551.9 654.95,551.07 654.97,550.24Z" style="fill:#e0dedb;fill-rule:nonzero;"/>
            <path d="M468.39,591.03C476.34,589.46 484.28,586.82 491.04,582.26C493.08,591.37 496.42,600.12 499.47,608.92C500.77,613.8 501.66,618.89 501.43,623.96C501.19,628.08 498.44,632.5 494.12,633.16C489.87,633.15 486.3,629.9 484.62,626.2C483.1,623.06 482.96,619.53 482.14,616.21C481.64,620.88 482.33,625.85 485.2,629.7C486.95,632.37 490,633.63 492.75,634.99C488.48,635.46 483.83,635.4 480.14,632.91C474.65,629.45 472.47,622.92 470.58,617.06C467.72,608.72 467.37,599.73 468.39,591.03Z" style="fill:#e0dedb;fill-rule:nonzero;"/>
            <path d="M419.15,638.07C423.47,632.18 427.11,625.82 431.68,620.11C446.54,631.41 461.27,643.06 474.25,656.52C470.12,659.95 466.21,663.61 462.51,667.5C448.7,679.91 435.96,693.42 422.76,706.46C412.94,696.87 403.62,686.72 392.91,678.1C398.42,670.15 403.13,661.67 408.86,653.87C412.53,648.76 415.31,643.07 419.15,638.07Z" style="fill:#e0dedb;fill-rule:nonzero;"/>
            <path d="M496.06,680.73L496.16,680.86C501.3,687.7 506.38,694.6 511.49,701.47C517.35,709.61 522.16,718.43 527.36,727C513.23,734.84 498.54,741.59 484.43,749.44C477.75,752.4 471.26,755.77 464.61,758.79C460.3,750.62 454.08,743.74 448.76,736.25C446.03,732.67 442.85,729.47 440.08,725.94C449.73,718.71 459.16,711.19 468.66,703.76C473.28,700.35 477.12,696.02 481.9,692.82C486.61,688.78 491.3,684.71 496.06,680.73Z" style="fill:#e0dedb;fill-rule:nonzero;"/>
            <path d="M365.49,880.61C370.41,879.72 375.75,881.3 379.69,884.3C383.4,887.99 380.93,893.59 379.21,897.64C377.9,896.89 376.62,896.16 375.34,895.4C375.91,892.76 377.83,889.62 376,887.09C374,885 370.88,884.13 368.06,884.36C365.07,884.91 364.46,888.38 363.72,890.81C362.07,898 358.18,904.68 357.75,912.11C359.12,915.86 364.28,917.14 367.84,916.3C371.34,914.04 371.16,909.18 372.57,905.64C370.6,905.06 368.65,904.5 366.69,903.93C366.65,903.09 366.58,901.4 366.55,900.56C370.4,901.24 374.14,902.39 377.83,903.69C376.47,908.38 376.19,913.51 373.78,917.83C370.78,921.86 365.15,920.53 360.99,919.59C356.96,918.65 351.95,915.92 352.5,911.06C353.95,903.18 357.35,895.83 359.35,888.09C360.09,884.82 361.91,881.33 365.49,880.61Z" style="fill:#e0dedb;fill-rule:nonzero;"/>
            <path d="M614.77,884.93C620.44,883.46 626,880.3 632.01,881.18C637.4,882.32 638.18,888.65 639.57,893.05C640.87,896.49 638.59,899.54 636.19,901.73C640.16,906.4 644.47,910.76 648.5,915.39C646.82,916.05 645.08,916.56 643.35,917.04C639.43,912.5 635.59,907.9 631.56,903.46C629.46,904.16 627.36,904.86 625.27,905.56C626.46,910.81 628.23,915.91 629.67,921.1C628.01,921.57 626.35,922.01 624.7,922.48C621.27,909.99 617.35,897.62 614.77,884.93M619.95,887.11C621.45,891.95 622.9,896.79 624.18,901.7C627.87,900.7 633.91,900.76 634.85,896.06C634.52,892.46 633.81,888.4 631.24,885.72C627.63,883.78 623.57,886.35 619.95,887.11Z" style="fill:#e0dedb;fill-rule:nonzero;"/>
            <path d="M589.11,891.09C594.66,889.52 600.39,888.65 605.99,887.21C606.32,887.97 607,889.49 607.34,890.25C603.04,891.74 598.57,892.64 594.15,893.66C594.94,898.18 595.87,902.68 596.93,907.16C600.88,906.29 604.83,905.38 608.84,904.77C608.85,905.62 608.87,907.31 608.89,908.16C605.17,909.11 601.41,909.87 597.66,910.67C598.99,915.31 599.98,920.03 600.68,924.81C605.66,923.88 610.52,922.45 615.52,921.6C615.45,922.44 615.3,924.12 615.23,924.96C609.14,926.62 602.96,928.01 596.78,929.3C595.04,922.2 593.28,915.08 592.18,907.85C591.32,902.25 588.65,896.75 589.11,891.09Z" style="fill:#e0dedb;fill-rule:nonzero;"/>
            <path d="M394.3,889.22C397.58,887.54 401.44,888.66 404.84,889.35C409.09,890.32 413.32,894.21 412.09,898.95C410.37,907.26 409.08,915.68 407.06,923.93C406.28,927.51 402.42,929.44 398.98,928.95C394.78,928.51 390.29,927.73 386.89,925.09C384.59,923.15 384.85,919.89 385.39,917.25C386.64,910.14 388.6,903.19 390.24,896.18C390.9,893.56 391.74,890.59 394.3,889.22M398.42,892.52C395.48,893.43 395.19,896.94 394.6,899.47C393.52,906.07 391.07,912.37 390.06,918.98C389.29,922.12 392.4,924.17 395.07,924.67C397.59,925.4 401.28,925.23 402.19,922.24C404.37,915.6 405.23,908.63 406.86,901.85C407.22,899.48 408.36,896.6 406.5,894.57C404.36,892.66 401.2,891.99 398.42,892.52Z" style="fill:#e0dedb;fill-rule:nonzero;"/>
            <path d="M417.12,931.95C418.91,919.04 421.05,906.16 423.81,893.41C429.4,894.57 435.59,894.38 440.59,897.44C445.25,900.82 443.06,907.23 442.42,911.95C442.1,915.38 439.06,917.21 436.14,918.3C437.85,923.95 439.62,929.59 441.11,935.31C439.45,935.24 437.7,935.64 436.12,935.01C433.63,929.52 432.52,923.53 431.35,917.65C429.09,917.42 426.83,917.2 424.57,917C423.38,922.18 422.79,927.49 421.47,932.64C420.01,932.96 418.3,933.02 417.12,931.95M427.36,897.92C426.98,903.09 426.08,908.2 424.82,913.23C428.51,913.32 432.71,915.14 436.13,913.2C438.73,910.22 438.32,905.67 438.22,901.97C436.6,897.72 431,898.66 427.36,897.92Z" style="fill:#e0dedb;fill-rule:nonzero;"/>
            <path d="M560.28,900.15C562.68,893.92 570.93,892.42 576.67,894.36C580.72,896.5 581.04,901.8 581.81,905.83C580.43,906.63 578.78,906.6 577.27,906.88C576.45,903.94 577.13,899.72 574,898.06C570.76,897.08 565.31,897.86 564.78,901.95C564.93,904.41 565.09,907.27 566.78,909.23C571.78,912.45 578.95,911.25 583.15,915.9C584.84,919.25 585.58,923.18 585.47,926.94C584.97,931.53 579.93,933.28 575.99,933.77C572.38,934.09 567.83,934.88 565.19,931.73C562.96,928.57 563.08,924.46 562.46,920.79C564.06,920.64 565.67,920.51 567.28,920.4C568.12,923.55 567.33,928.23 570.94,929.78C574.08,930.53 578.46,930 580.2,926.91C580.81,924.05 580.35,920.73 578.79,918.24C573.7,914.67 566.41,915.52 561.79,911.13C560.09,907.83 559.8,903.78 560.28,900.15Z" style="fill:#e0dedb;fill-rule:nonzero;"/>
            <path d="M452.61,915.04C453.35,909.25 453.54,903.4 454.66,897.66C460.5,898.09 466.33,898.67 472.14,899.42C471.98,900.54 471.79,901.65 471.57,902.78C467.2,903.25 462.83,902.37 458.48,901.99C458.36,906.53 457.99,911.07 457.37,915.57C461.24,916.05 465.32,915.61 469.03,916.99C468.99,917.73 468.91,919.22 468.87,919.97C464.93,920.37 460.98,919.74 457.05,919.47C456.31,924.1 455.9,928.77 455.73,933.46C460.57,933.92 465.41,934.4 470.23,935.1C470.13,935.88 469.91,937.44 469.8,938.22C463.22,938.13 456.63,937.61 450.17,936.37C451.06,929.26 451.3,922.08 452.61,915.04Z" style="fill:#e0dedb;fill-rule:nonzero;"/>
            <path d="M538.36,898.36C540.12,897.85 541.98,897.91 543.8,897.84C546.87,905.37 549.07,913.22 552.23,920.72C553.85,925.54 556.12,930.12 557.58,934.99C556.7,936.49 554.53,935.85 553.1,936.35C551.86,933.27 550.62,930.21 549.42,927.13C545.64,927.19 541.88,927.51 538.16,928.16C537.56,931.46 537.24,934.86 536.09,938.05C534.57,938.09 533.06,938.09 531.55,938.05C532.58,930.34 534.68,922.83 535.72,915.13C536.7,909.56 536.68,903.78 538.36,898.36M541.54,904.25C540.08,910.88 540.05,917.72 538.67,924.37C541.83,924.08 544.99,923.78 548.15,923.48C545.87,917.09 544.05,910.55 541.54,904.25Z" style="fill:#e0dedb;fill-rule:nonzero;"/>
            <path d="M480.43,899.99C482.01,899.93 483.58,899.89 485.17,899.89C485.22,904.95 484.93,910.01 484.67,915.07C484.28,921.83 484.75,928.61 484.08,935.37C488.28,935.46 492.5,935.11 496.68,935.55C497.99,936.28 497.33,937.96 497.54,939.18C491.44,939.28 485.27,939.73 479.21,938.8C478.34,932.51 479.84,926.24 479.87,919.96C479.86,913.29 480.48,906.65 480.43,899.99Z" style="fill:#e0dedb;fill-rule:nonzero;"/>
            <path d="M505.38,900.21C511.31,899.88 517.26,899.67 523.2,899.64C523.18,900.55 523.12,902.37 523.09,903.28C518.74,903.55 514.37,903.56 510.01,903.69C509.86,908.21 509.98,912.75 510.43,917.26C514.25,917.29 518.09,917.03 521.9,917.38C522.03,918.07 522.28,919.46 522.41,920.15C518.61,921.35 514.55,920.99 510.63,921.29C510.41,926.01 510.5,930.75 510.77,935.47C515.72,935.35 520.95,934.23 525.75,935.82C525.64,936.4 525.43,937.54 525.33,938.12C519.02,939.8 512.35,939.14 505.89,939.02C505.84,926.07 505.36,913.15 505.38,900.21Z" style="fill:#e0dedb;fill-rule:nonzero;"/>
        </g>
        <g id="_-cfe7ffff" serif:id="#cfe7ffff">
            <path d="M656.63,469.83C670.51,466.7 686.3,471.35 695.4,482.51C701.81,489.34 704.62,498.85 705.32,508.01C705.38,521.18 698.36,534.11 687.56,541.58C677.7,548.64 664.54,549.45 653.09,546.45C636.48,541.02 624.53,523.59 625.97,506.08C626.43,488.84 640.06,473.68 656.63,469.83Z" style="fill:#cfe7ff;fill-rule:nonzero;"/>
        </g>
        <g id="_-e02d45ff" serif:id="#e02d45ff">
            <path d="M370.26,601.23C381.09,595.4 393.8,593.54 405.96,594.8C418.05,595.46 429.97,598.99 440.37,605.22C434.59,612.59 429.99,620.79 424.14,628.12C415.35,640.51 407.25,653.37 398.71,665.94C388.79,659.58 377.7,654.62 365.87,653.34C350.05,652.11 334.16,655.49 319.66,661.76C319.37,660.69 318.05,659.65 318.58,658.5C321.91,651.17 326.12,644.27 330.56,637.56C334.91,630.16 340.94,624 346.64,617.65C353.59,611 361.51,605.28 370.26,601.23Z" style="fill:#e02d45;fill-rule:nonzero;"/>
            <path d="M431.68,620.11C434.92,615.11 438.12,610.06 441.84,605.4C460.73,619.4 479.07,634.33 494.82,651.86C489.72,650.23 484.15,650.08 479.12,652.05C477.21,653.19 475.82,654.99 474.25,656.52C461.27,643.06 446.54,631.41 431.68,620.11Z" style="fill:#e02d45;fill-rule:nonzero;"/>
            <path d="M480.42,653.61C488.39,649.86 498.43,654.73 501.05,662.93C502.03,668.33 500.58,674.62 496.22,678.23C491.45,682.49 486.57,686.62 481.47,690.48C470.42,700.58 458.46,709.61 446.63,718.76C427.4,732.54 408.78,747.3 388.41,759.41C386,761.47 381.6,759.37 382.2,756.14C382.99,754.13 384.53,752.55 385.88,750.92C393.74,742.08 400.58,732.34 409.19,724.18C416.64,715.67 424.28,707.33 432.52,699.57C444.19,686.88 456.86,675.17 469.5,663.46C473.04,660.08 476.29,656.3 480.42,653.61Z" style="fill:#e02d45;fill-rule:nonzero;"/>
            <path d="M501.26,658.75C512.94,671.35 522.28,685.85 531.92,700.01C536.2,705.76 539.63,712.07 543.07,718.35C537.9,721.36 532.46,723.88 527.36,727C522.16,718.43 517.35,709.61 511.49,701.47C506.38,694.6 501.3,687.7 496.16,680.86C502.83,675.92 505.55,666.09 501.26,658.75Z" style="fill:#e02d45;fill-rule:nonzero;"/>
            <path d="M505.21,740.23C518.2,734.19 530.29,726.46 543.12,720.11C545.8,726.64 546.85,733.66 548.3,740.53C551.11,757.64 548.34,775.99 538.75,790.65C528.09,809.37 509.03,821.1 490.05,830.03C485.33,831.89 480.78,834.25 475.86,835.52C473.19,835.38 474.52,832.75 475.28,831.33C483.68,816.77 488.64,799.78 486.83,782.89C486.55,772.77 483,763.08 478,754.37C487.1,749.73 496.26,745.18 505.21,740.23Z" style="fill:#e02d45;fill-rule:nonzero;"/>
        </g>
        <g id="_-fac358ff" serif:id="#fac358ff">
            <path d="M365.24,696.24C373.84,689.04 384.8,685.77 395.3,682.39C404.75,690.18 413.24,699.02 422.03,707.53C419.78,710.12 417.32,712.52 414.92,714.96C403.6,728 391.02,740.04 381.24,754.34C378.62,758.55 384.4,764.78 388.62,761.51C406.03,751.05 422.35,738.88 438.72,726.88C444.98,733.57 450.02,741.24 455.77,748.35C458.26,751.59 460.56,754.97 462.82,758.39C460.36,762.71 458.05,767.13 455.26,771.25C445.26,784.81 431.42,795.61 415.61,801.53C400.21,806.9 383.43,806.79 367.5,804.17C358.16,802.23 348.87,800.08 339.6,797.82C340.15,789.87 339.02,781.95 339.41,774C339.66,765.02 338.62,756.01 339.91,747.07C341.09,727.74 349.44,708.06 365.24,696.24Z" style="fill:#fac358;fill-rule:nonzero;"/>
        </g>
    </g>
    <g transform="matrix(1,0,0,1,-37.1576,-91.5477)">
        <g transform="matrix(573.018,0,0,573.018,1287.96,759)">
            <path d="M0.382,0.017C0.562,0.017 0.681,-0.099 0.681,-0.272L0.681,-0.358L0.396,-0.358L0.396,-0.281L0.593,-0.281L0.593,-0.264C0.593,-0.145 0.508,-0.064 0.382,-0.064C0.241,-0.064 0.152,-0.175 0.152,-0.352L0.152,-0.353C0.152,-0.528 0.242,-0.64 0.382,-0.64C0.487,-0.64 0.558,-0.59 0.586,-0.5L0.588,-0.495L0.677,-0.495L0.676,-0.5C0.648,-0.633 0.538,-0.721 0.382,-0.721C0.189,-0.721 0.063,-0.575 0.063,-0.353L0.063,-0.352C0.063,-0.127 0.187,0.017 0.382,0.017Z" style="fill:#3b5672;fill-rule:nonzero;"/>
        </g>
        <g transform="matrix(573.018,0,0,573.018,1715.77,759)">
            <path d="M0.295,0.009C0.445,0.009 0.538,-0.094 0.538,-0.263L0.538,-0.264C0.538,-0.433 0.445,-0.536 0.295,-0.536C0.146,-0.536 0.053,-0.433 0.053,-0.264L0.053,-0.263C0.053,-0.094 0.146,0.009 0.295,0.009ZM0.295,-0.066C0.196,-0.066 0.14,-0.139 0.14,-0.263L0.14,-0.264C0.14,-0.388 0.196,-0.46 0.295,-0.46C0.395,-0.46 0.451,-0.388 0.451,-0.264L0.451,-0.263C0.451,-0.139 0.395,-0.066 0.295,-0.066Z" style="fill:#3b5672;fill-rule:nonzero;"/>
        </g>
        <g transform="matrix(573.018,0,0,573.018,2054.32,759)">
            <path d="M0.09,-0L0.178,-0L0.178,-0.279L0.351,-0.279L0.502,-0L0.605,-0L0.442,-0.292C0.53,-0.32 0.583,-0.396 0.583,-0.494L0.583,-0.495C0.583,-0.622 0.495,-0.705 0.359,-0.705L0.09,-0.705L0.09,-0ZM0.178,-0.357L0.178,-0.626L0.347,-0.626C0.438,-0.626 0.493,-0.576 0.493,-0.492L0.493,-0.491C0.493,-0.405 0.441,-0.357 0.351,-0.357L0.178,-0.357Z" style="fill:#3b5672;fill-rule:nonzero;"/>
        </g>
        <g transform="matrix(573.018,0,0,573.018,2420.29,759)">
            <path d="M0.294,0.009C0.418,0.009 0.493,-0.061 0.511,-0.132L0.512,-0.136L0.427,-0.136L0.425,-0.132C0.411,-0.1 0.367,-0.066 0.296,-0.066C0.202,-0.066 0.142,-0.13 0.14,-0.239L0.519,-0.239L0.519,-0.272C0.519,-0.429 0.432,-0.536 0.289,-0.536C0.146,-0.536 0.053,-0.424 0.053,-0.262L0.053,-0.261C0.053,-0.096 0.144,0.009 0.294,0.009ZM0.288,-0.46C0.366,-0.46 0.423,-0.411 0.432,-0.307L0.141,-0.307C0.15,-0.407 0.21,-0.46 0.288,-0.46Z" style="fill:#3b5672;fill-rule:nonzero;"/>
        </g>
        <g transform="matrix(573.018,0,0,573.018,2747.65,759)">
            <rect x="0.084" y="-0.735" width="0.085" height="0.735" style="fill:#3b5672;fill-rule:nonzero;"/>
        </g>
        <g transform="matrix(573.018,0,0,573.018,2892.58,759)">
            <path d="M0.294,0.009C0.418,0.009 0.493,-0.061 0.511,-0.132L0.512,-0.136L0.427,-0.136L0.425,-0.132C0.411,-0.1 0.367,-0.066 0.296,-0.066C0.202,-0.066 0.142,-0.13 0.14,-0.239L0.519,-0.239L0.519,-0.272C0.519,-0.429 0.432,-0.536 0.289,-0.536C0.146,-0.536 0.053,-0.424 0.053,-0.262L0.053,-0.261C0.053,-0.096 0.144,0.009 0.294,0.009ZM0.288,-0.46C0.366,-0.46 0.423,-0.411 0.432,-0.307L0.141,-0.307C0.15,-0.407 0.21,-0.46 0.288,-0.46Z" style="fill:#3b5672;fill-rule:nonzero;"/>
        </g>
        <g transform="matrix(573.018,0,0,573.018,3219.94,759)">
            <path d="M0.224,0.009C0.294,0.009 0.35,-0.021 0.383,-0.078L0.391,-0.078L0.391,-0L0.476,-0L0.476,-0.36C0.476,-0.47 0.404,-0.536 0.275,-0.536C0.163,-0.536 0.083,-0.48 0.069,-0.397L0.069,-0.395L0.154,-0.395L0.154,-0.396C0.168,-0.437 0.209,-0.46 0.272,-0.46C0.351,-0.46 0.391,-0.425 0.391,-0.36L0.391,-0.313L0.24,-0.303C0.117,-0.296 0.048,-0.242 0.048,-0.148L0.048,-0.147C0.048,-0.051 0.124,0.009 0.224,0.009ZM0.135,-0.149L0.135,-0.15C0.135,-0.202 0.17,-0.23 0.25,-0.235L0.391,-0.244L0.391,-0.196C0.391,-0.121 0.328,-0.064 0.241,-0.064C0.18,-0.064 0.135,-0.096 0.135,-0.149Z" style="fill:#3b5672;fill-rule:nonzero;"/>
        </g>
        <g transform="matrix(573.018,0,0,573.018,3536.11,759)">
            <path d="M0.26,0.009C0.379,0.009 0.471,-0.056 0.471,-0.149L0.471,-0.15C0.471,-0.226 0.423,-0.269 0.324,-0.292L0.243,-0.312C0.181,-0.327 0.154,-0.35 0.154,-0.385L0.154,-0.386C0.154,-0.433 0.2,-0.465 0.263,-0.465C0.326,-0.465 0.367,-0.436 0.378,-0.395L0.462,-0.395C0.45,-0.48 0.374,-0.536 0.263,-0.536C0.151,-0.536 0.067,-0.47 0.067,-0.382L0.067,-0.382C0.067,-0.306 0.112,-0.263 0.21,-0.24L0.292,-0.22C0.357,-0.205 0.384,-0.18 0.384,-0.144L0.384,-0.143C0.384,-0.095 0.333,-0.062 0.263,-0.062C0.195,-0.062 0.153,-0.09 0.139,-0.134L0.052,-0.134C0.062,-0.047 0.143,0.009 0.26,0.009Z" style="fill:#3b5672;fill-rule:nonzero;"/>
        </g>
        <g transform="matrix(573.018,0,0,573.018,3836.05,759)">
            <path d="M0.294,0.009C0.418,0.009 0.493,-0.061 0.511,-0.132L0.512,-0.136L0.427,-0.136L0.425,-0.132C0.411,-0.1 0.367,-0.066 0.296,-0.066C0.202,-0.066 0.142,-0.13 0.14,-0.239L0.519,-0.239L0.519,-0.272C0.519,-0.429 0.432,-0.536 0.289,-0.536C0.146,-0.536 0.053,-0.424 0.053,-0.262L0.053,-0.261C0.053,-0.096 0.144,0.009 0.294,0.009ZM0.288,-0.46C0.366,-0.46 0.423,-0.411 0.432,-0.307L0.141,-0.307C0.15,-0.407 0.21,-0.46 0.288,-0.46Z" style="fill:#3b5672;fill-rule:nonzero;"/>
        </g>
        <g transform="matrix(573.018,0,0,573.018,4163.41,759)">
            <path d="M0.079,-0L0.164,-0L0.164,-0.326C0.164,-0.403 0.222,-0.455 0.303,-0.455C0.321,-0.455 0.337,-0.453 0.355,-0.45L0.355,-0.532C0.347,-0.534 0.329,-0.536 0.313,-0.536C0.241,-0.536 0.192,-0.503 0.172,-0.448L0.164,-0.448L0.164,-0.526L0.079,-0.526L0.079,-0Z" style="fill:#3b5672;fill-rule:nonzero;"/>
        </g>
    </g>
</svg>
