<?xml version="1.0" encoding="UTF-8" standalone="no"?>
<!DOCTYPE svg PUBLIC "-//W3C//DTD SVG 1.1//EN" "http://www.w3.org/Graphics/SVG/1.1/DTD/svg11.dtd">
<svg width="100%" height="100%" viewBox="0 0 115 24" version="1.1" xmlns="http://www.w3.org/2000/svg" xmlns:xlink="http://www.w3.org/1999/xlink" xml:space="preserve" xmlns:serif="http://www.serif.com/" style="fill-rule:evenodd;clip-rule:evenodd;stroke-linejoin:round;stroke-miterlimit:2;">
    <g transform="matrix(1,0,0,1,-21.7,-20.53)">
        <path d="M29.34,43.54C24.54,43.54 21.7,40.11 21.7,32.75C21.7,25.2 25.38,21.3 30.18,21.3C32.467,21.335 34.615,22.42 36,24.24L34.5,25.71C33.34,24.704 31.874,24.118 30.34,24.05C27.27,24.05 25.28,26.77 25.28,32.14C25.28,38.35 27.11,40.75 29.92,40.75C30.958,40.779 31.975,40.451 32.8,39.82L32.8,33.71L30,33.71L30,31.15L36.24,31.15L36.24,41C34.338,42.678 31.876,43.584 29.34,43.54ZM48.1,30.29C47.661,30.158 47.208,30.081 46.75,30.06C45.82,30.06 44.96,30.77 43.39,32.72L43.39,43.22L40.1,43.22L40.1,27.28L42.82,27.28L43.1,30C44.83,27.76 45.92,27 47.1,27C47.592,27.006 48.075,27.13 48.51,27.36L48.1,30.29ZM59.71,43.22L59.45,41.49C58.122,42.754 56.363,43.469 54.53,43.49C51.39,43.49 49.73,41.89 49.73,39.07C49.73,35.81 52.26,33.63 57.85,33.63L59,33.63L59,32.24C59,30.32 58,29.39 55.7,29.39C54.102,29.433 52.523,29.747 51.03,30.32L50.55,28.32C52.437,27.47 54.481,27.024 56.55,27.01C60.55,27.01 62.25,28.93 62.25,31.84L62.25,43.24L59.71,43.22ZM59,35.79L57.63,35.79C54,35.79 53,37 53,38.67C52.992,38.747 52.988,38.824 52.988,38.901C52.988,40.135 54.004,41.151 55.238,41.151C55.312,41.151 55.386,41.147 55.46,41.14C56.789,41.033 58.041,40.467 59,39.54L59,35.79ZM75.25,43.22L75,41.49C73.667,42.753 71.906,43.467 70.07,43.49C66.93,43.49 65.27,41.89 65.27,39.07C65.27,35.81 67.8,33.63 73.4,33.63L74.55,33.63L74.55,32.24C74.55,30.32 73.55,29.39 71.25,29.39C69.652,29.433 68.073,29.747 66.58,30.32L66.1,28.32C67.987,27.471 70.031,27.025 72.1,27.01C76.1,27.01 77.79,28.93 77.79,31.84L77.79,43.24L75.25,43.22ZM74.55,35.79L73.18,35.79C69.5,35.79 68.54,37.01 68.54,38.67C68.533,38.743 68.529,38.816 68.529,38.89C68.529,40.13 69.549,41.15 70.789,41.15C70.86,41.15 70.93,41.147 71,41.14C72.334,41.037 73.59,40.471 74.55,39.54L74.55,35.79ZM84.55,43.44C82.55,43.44 81.64,42.86 81.64,40.27L81.64,20.53L85,20.53L85,39C85,40.86 85.23,41.15 86.15,41.15L87.02,41.15L87.18,43.15C86.343,43.377 85.476,43.475 84.61,43.44L84.55,43.44Z" style="fill:#00758f;fill-rule:nonzero;"/>
    </g>
    <g transform="matrix(1,0,0,1,-21.7,-20.53)">
        <path d="M98.69,43.22L94.59,43.22C92.052,36.163 89.977,28.948 88.38,21.62L92.16,21.62C93.28,27.38 95.1,33.49 96.93,39.62C98.721,33.713 100.151,27.701 101.21,21.62L104.64,21.62C103.231,28.966 101.241,36.189 98.69,43.22ZM125.09,43.22C124.96,36.94 124.51,30.45 124.09,26L118.65,43.22L115.8,43.22L110.3,26C109.89,30.77 109.6,36.94 109.5,43.22L106.21,43.22C106.4,36.22 106.91,28.66 107.77,21.62L112.32,21.62L117.5,37.49L122.69,21.62L127,21.62C127.83,28.62 128.47,36.21 128.66,43.22L125.09,43.22ZM131.17,41.02L130.39,41.02L130.39,40.58L132.52,40.58L132.52,41L131.74,41L131.74,43.2L131.17,43.2L131.17,41.02ZM133.08,40.58L134,40.58L134.56,42.5L135.16,40.58L136.06,40.58L136.06,43.22L135.49,43.22L135.49,41L134.78,43.26L134.31,43.26L133.61,41L133.61,43.26L133.08,43.26L133.08,40.58Z" style="fill:#f29111;fill-rule:nonzero;"/>
    </g>
</svg>
