<?xml version="1.0" encoding="UTF-8" ?>
<!DOCTYPE svg PUBLIC "-//W3C//DTD SVG 1.1//EN" "http://www.w3.org/Graphics/SVG/1.1/DTD/svg11.dtd">
<svg width="1350pt" height="367pt" viewBox="0 0 1350 367" version="1.1" xmlns="http://www.w3.org/2000/svg">
<g id="#ffffffff">
</g>
<g id="#ec1b2eff">
<path fill="#ec1b2e" opacity="1.00" d=" M 123.68 4.05 C 129.95 2.30 136.85 7.39 137.04 13.91 C 137.36 22.63 137.00 31.36 137.24 40.08 C 169.32 41.19 200.61 51.17 228.91 65.99 C 230.40 66.99 232.77 67.29 233.44 69.15 C 247.44 113.96 254.68 160.98 253.95 207.94 C 253.50 251.28 246.09 294.42 233.27 335.79 C 205.27 351.31 174.15 361.75 142.10 363.95 C 100.94 367.16 59.70 355.73 23.79 335.97 C 13.13 302.28 6.39 267.34 3.93 232.10 C -0.01 176.82 7.09 120.87 23.86 68.07 C 52.12 52.94 83.18 42.29 115.34 40.26 C 115.41 31.54 115.31 22.82 115.38 14.10 C 115.46 9.38 119.09 5.07 123.68 4.05 M 137.17 61.09 C 137.04 65.41 137.40 69.75 136.96 74.05 C 136.41 79.03 131.98 83.28 126.96 83.50 C 123.53 83.77 119.99 82.23 117.80 79.60 C 113.69 74.42 115.94 67.39 115.37 61.36 C 89.59 63.17 64.63 71.42 41.61 82.91 C 32.84 112.02 27.37 142.13 25.10 172.44 C 21.35 222.50 27.28 273.17 41.56 321.27 C 68.29 334.71 97.85 343.38 127.94 343.33 C 158.38 343.54 188.37 334.90 215.40 321.22 C 221.41 300.84 225.96 280.02 228.90 258.97 C 237.31 200.18 232.25 139.70 215.36 82.82 C 191.12 70.50 164.47 62.14 137.17 61.09 Z" />
<path fill="#ec1b2e" opacity="1.00" d=" M 113.02 92.60 C 123.34 92.54 133.66 92.32 143.99 92.29 C 156.19 92.16 168.36 96.50 177.76 104.27 C 186.78 111.63 193.37 121.82 196.78 132.93 C 199.26 140.70 199.46 148.93 199.76 157.01 C 199.50 172.95 192.00 188.54 180.20 199.17 C 170.44 208.08 157.19 212.87 144.02 212.72 C 135.02 212.71 126.04 212.95 117.05 213.27 C 115.73 218.15 114.18 222.97 112.60 227.78 C 123.73 227.87 134.86 227.76 145.98 227.82 C 159.69 228.33 174.15 231.08 185.02 240.01 C 202.99 254.24 203.87 284.59 187.21 300.18 C 176.34 310.64 160.76 314.59 146.03 314.80 C 126.65 314.85 107.28 314.84 87.90 314.80 C 82.59 314.88 77.71 310.35 77.34 305.07 C 76.46 298.89 81.66 292.69 87.94 292.71 C 106.29 292.61 124.64 292.71 142.99 292.67 C 148.40 292.88 153.36 289.36 155.92 284.75 C 159.10 279.37 157.43 272.89 157.88 266.98 C 158.77 258.61 151.76 249.92 143.12 250.15 C 118.41 250.13 93.71 250.20 69.00 250.12 C 74.05 234.94 80.71 220.31 85.88 205.16 C 70.65 195.74 60.54 178.80 58.81 161.04 C 58.48 154.72 57.64 148.36 58.53 142.06 C 60.83 126.16 69.72 111.21 82.94 101.99 C 91.74 95.96 102.36 92.68 113.02 92.60 M 110.23 115.26 C 103.41 117.08 98.73 124.01 98.79 130.95 C 99.37 143.61 99.47 156.29 99.74 168.97 C 99.84 173.68 99.45 178.78 102.07 182.95 C 104.62 187.53 109.56 191.12 114.97 190.84 C 124.65 190.78 134.34 190.62 144.03 190.54 C 149.85 190.70 155.08 186.55 157.46 181.43 C 159.37 177.91 158.80 173.78 158.82 169.95 C 158.44 156.08 158.45 142.19 157.73 128.34 C 157.03 120.67 149.87 113.81 141.99 114.48 C 131.41 114.91 120.73 114.09 110.23 115.26 Z" />
<path fill="#ec1b2e" opacity="1.00" d=" M 1182.98 163.06 C 1193.25 154.56 1206.79 151.19 1219.89 150.74 C 1230.68 150.33 1241.34 152.71 1251.62 155.79 C 1250.95 162.83 1250.26 169.86 1249.46 176.89 C 1240.82 172.19 1230.96 169.45 1221.07 170.27 C 1211.24 170.79 1201.77 176.60 1197.33 185.46 C 1190.31 198.94 1192.70 218.20 1206.06 226.90 C 1219.36 235.55 1236.45 232.80 1250.47 227.45 C 1250.89 234.29 1251.50 241.12 1251.70 247.98 C 1238.78 251.29 1225.27 252.84 1212.00 251.06 C 1198.55 249.18 1185.04 243.38 1176.44 232.52 C 1167.34 221.31 1165.18 205.92 1167.31 191.98 C 1168.79 180.86 1174.22 170.18 1182.98 163.06 Z" />
<path fill="#ec1b2e" opacity="1.00" d=" M 999.54 152.45 C 1024.27 152.38 1048.99 152.49 1073.72 152.39 C 1073.81 158.84 1073.72 165.29 1073.79 171.74 C 1065.77 171.71 1057.76 171.74 1049.75 171.73 C 1049.55 197.90 1049.85 224.07 1049.60 250.23 C 1040.95 250.14 1032.30 250.23 1023.66 250.18 C 1023.56 224.03 1023.68 197.87 1023.60 171.72 C 1015.58 171.73 1007.56 171.74 999.55 171.70 C 999.53 165.28 999.57 158.86 999.54 152.45 Z" />
<path fill="#ec1b2e" opacity="1.00" d=" M 1083.91 152.46 C 1106.88 152.37 1129.85 152.50 1152.82 152.39 C 1152.83 158.54 1152.85 164.69 1152.85 170.84 C 1138.65 170.84 1124.46 170.84 1110.27 170.84 C 1110.05 177.60 1110.17 184.37 1110.23 191.13 C 1123.67 191.14 1137.11 191.11 1150.56 191.15 C 1150.54 197.29 1150.60 203.43 1150.50 209.56 C 1137.07 209.52 1123.64 209.52 1110.21 209.56 C 1110.11 216.91 1110.16 224.27 1110.22 231.62 C 1124.96 231.54 1139.71 231.58 1154.46 231.60 C 1154.48 237.79 1154.49 243.98 1154.45 250.18 C 1131.06 250.27 1107.67 250.10 1084.28 250.26 C 1083.31 241.57 1084.19 232.77 1083.88 224.03 C 1083.88 200.17 1083.85 176.31 1083.91 152.46 Z" />
<path fill="#ec1b2e" opacity="1.00" d=" M 1263.60 152.47 C 1272.27 152.34 1280.95 152.51 1289.63 152.38 C 1289.74 164.80 1289.67 177.23 1289.69 189.65 C 1299.92 189.81 1310.17 189.74 1320.41 189.70 C 1320.51 177.28 1320.37 164.87 1320.49 152.45 C 1329.16 152.38 1337.85 152.44 1346.53 152.45 C 1346.55 185.03 1346.60 217.62 1346.51 250.20 C 1337.86 250.19 1329.22 250.16 1320.58 250.23 C 1320.27 236.27 1320.53 222.31 1320.45 208.35 C 1310.19 208.32 1299.93 208.30 1289.68 208.37 C 1289.60 222.34 1289.88 236.31 1289.54 250.27 C 1280.90 250.11 1272.27 250.24 1263.63 250.18 C 1263.55 217.61 1263.62 185.04 1263.60 152.47 Z" />
</g>
<g id="#141d22ff">
<path fill="#141d22" opacity="1.00" d=" M 331.39 161.43 C 343.56 153.22 358.64 150.94 373.04 150.75 C 383.43 150.75 393.97 151.66 403.87 155.00 C 403.22 162.13 402.50 169.25 401.77 176.36 C 389.37 169.32 374.07 168.44 360.56 172.54 C 352.16 175.08 344.48 181.07 341.51 189.52 C 337.42 201.17 339.23 215.76 348.72 224.32 C 357.40 231.95 370.39 234.44 381.33 230.87 C 381.29 224.41 381.32 217.95 381.31 211.50 C 376.24 211.48 371.17 211.49 366.10 211.49 C 366.09 205.35 366.09 199.21 366.10 193.07 C 379.58 193.07 393.07 193.08 406.55 193.07 C 406.53 211.16 406.55 229.25 406.54 247.34 C 392.34 250.96 377.59 252.37 362.96 251.58 C 347.58 250.48 331.64 244.49 321.98 231.96 C 312.57 219.85 311.02 203.39 313.80 188.74 C 315.84 177.81 322.07 167.62 331.39 161.43 Z" />
<path fill="#141d22" opacity="1.00" d=" M 424.44 152.43 C 440.25 152.44 456.06 152.40 471.88 152.44 C 480.95 152.60 490.84 154.90 497.11 161.95 C 503.49 169.12 503.67 179.99 500.39 188.59 C 497.66 195.69 490.74 200.23 483.53 201.81 C 488.66 203.08 491.82 207.69 493.38 212.45 C 498.09 224.96 502.64 237.53 507.04 250.14 C 497.99 250.14 488.94 250.14 479.89 250.14 C 477.37 242.37 475.03 234.54 472.37 226.81 C 470.63 222.21 468.87 217.24 464.97 214.00 C 460.87 210.80 455.36 211.58 450.51 211.49 C 450.49 224.38 450.56 237.27 450.48 250.16 C 441.80 250.12 433.12 250.15 424.45 250.14 C 424.43 217.57 424.45 185.00 424.44 152.43 M 450.52 170.91 C 450.51 178.29 450.49 185.68 450.53 193.06 C 455.73 193.07 460.96 193.18 466.13 192.51 C 469.40 191.97 472.95 190.73 474.81 187.79 C 477.66 183.18 476.83 175.88 471.56 173.38 C 465.06 170.19 457.54 171.05 450.52 170.91 Z" />
<path fill="#141d22" opacity="1.00" d=" M 547.65 152.43 C 558.29 152.41 568.92 152.44 579.56 152.41 C 592.17 184.98 604.69 217.57 617.28 250.15 C 607.75 250.14 598.22 250.14 588.69 250.14 C 586.23 243.20 583.81 236.25 581.40 229.29 C 569.17 229.26 556.94 229.27 544.71 229.29 C 542.17 236.24 539.58 243.19 537.03 250.14 C 528.19 250.14 519.36 250.13 510.53 250.15 C 522.88 217.57 535.27 185.00 547.65 152.43 M 563.39 172.28 C 559.30 185.15 554.97 197.94 550.74 210.76 C 558.90 210.78 567.06 210.79 575.23 210.76 C 571.21 197.95 567.55 185.03 563.39 172.28 Z" />
<path fill="#141d22" opacity="1.00" d=" M 626.73 152.43 C 640.42 152.43 654.12 152.40 667.81 152.45 C 674.75 174.17 681.59 195.92 688.65 217.60 C 696.00 195.90 703.16 174.13 710.49 152.42 C 723.63 152.43 736.78 152.42 749.92 152.42 C 749.91 185.00 749.94 217.57 749.91 250.15 C 741.43 250.13 732.95 250.14 724.48 250.14 C 724.56 224.97 724.84 199.80 724.80 174.62 C 716.38 199.80 708.14 225.03 699.62 250.17 C 691.67 250.11 683.71 250.15 675.76 250.14 C 667.74 224.98 659.78 199.80 651.78 174.63 C 651.68 199.80 652.17 224.97 652.26 250.14 C 643.75 250.14 635.25 250.14 626.74 250.14 C 626.74 217.57 626.76 185.00 626.73 152.43 Z" />
<path fill="#141d22" opacity="1.00" d=" M 766.73 152.43 C 780.43 152.44 794.12 152.40 807.82 152.45 C 814.76 174.18 821.59 195.95 828.67 217.63 C 835.96 195.90 843.17 174.14 850.49 152.41 C 863.64 152.43 876.78 152.43 889.93 152.42 C 889.91 184.99 889.94 217.57 889.91 250.15 C 881.43 250.13 872.95 250.14 864.47 250.14 C 864.57 224.97 864.84 199.81 864.80 174.64 C 856.36 199.80 848.14 225.03 839.62 250.17 C 831.66 250.12 823.71 250.15 815.76 250.15 C 807.75 224.99 799.79 199.82 791.79 174.67 C 791.66 199.82 792.19 224.98 792.26 250.14 C 783.75 250.15 775.24 250.13 766.73 250.15 C 766.75 217.57 766.74 185.00 766.73 152.43 Z" />
<path fill="#141d22" opacity="1.00" d=" M 936.58 152.42 C 947.21 152.43 957.85 152.43 968.49 152.42 C 981.07 184.99 993.65 217.56 1006.17 250.14 C 996.65 250.14 987.12 250.14 977.60 250.15 C 975.15 243.20 972.74 236.24 970.32 229.29 C 958.09 229.27 945.86 229.26 933.63 229.30 C 931.09 236.25 928.49 243.18 925.97 250.13 C 917.12 250.14 908.28 250.15 899.44 250.13 C 911.83 217.56 924.19 184.99 936.58 152.42 M 939.69 210.77 C 947.84 210.76 955.99 210.81 964.14 210.74 C 960.16 197.94 956.42 185.07 952.35 172.31 C 948.16 185.14 943.90 197.94 939.69 210.77 Z" />
</g>
</svg>
