<?xml version="1.0" encoding="UTF-8" standalone="no"?>
<!DOCTYPE svg PUBLIC "-//W3C//DTD SVG 1.1//EN" "http://www.w3.org/Graphics/SVG/1.1/DTD/svg11.dtd">
<svg width="100%" height="100%" viewBox="0 0 800 229" version="1.1" xmlns="http://www.w3.org/2000/svg" xmlns:xlink="http://www.w3.org/1999/xlink" xml:space="preserve" xmlns:serif="http://www.serif.com/" style="fill-rule:evenodd;clip-rule:evenodd;stroke-linejoin:round;stroke-miterlimit:2;">
    <g transform="matrix(1,0,0,1,-21.3524,-24.8092)">
        <path d="M30.83,26.13C31.91,24.95 33.49,24.68 35.02,24.86C43.84,25.62 52.77,29.76 57.68,37.36C61.04,42.08 61.85,48.21 60.54,53.79C59.61,59.89 56.02,65.65 57.07,71.96C57.57,75.73 60.43,78.42 62.83,81.1C54.26,87.48 47.42,95.85 41.58,104.73C34.8,102.6 27.05,100.43 23.09,93.97C19.59,88.01 21.95,80.72 25.13,75.17C28.73,68.27 35.3,63.19 37.51,55.54C39.44,49.03 40.69,41.57 37.7,35.19C36.14,31.61 31.77,29.98 30.83,26.13Z" style="fill:#4b53bc;fill-rule:nonzero;"/>
    </g>
    <g transform="matrix(1,0,0,1,-21.3524,-24.8092)">
        <path d="M191.75,26.6C195.84,25.38 200.51,23.78 204.56,25.98C202.38,30.46 197.17,32.92 196.18,38.08C194.12,48.18 197.26,59.22 204.15,66.88C209.18,73.37 214.55,81.08 213.46,89.73C211.89,97.9 203.31,102 195.97,103.74C190.37,94.12 182.6,85.81 173.39,79.56C177.31,76.35 179.07,70.96 177.75,66.06C176.04,58.95 172.65,51.77 174.29,44.3C176.27,35.76 183.58,29.2 191.75,26.6Z" style="fill:#4b53bc;fill-rule:nonzero;"/>
    </g>
    <g transform="matrix(1,0,0,1,-21.3524,-24.8092)">
        <path d="M103.08,52.96C108.98,49.5 115.99,53.03 119.19,58.44C119.81,58.25 121.04,57.88 121.66,57.69C121.49,56.29 121.33,54.88 121.14,53.48C122.51,53.85 124.13,53.77 125.27,54.71C126.27,56.81 126.81,59.22 128.76,60.71C129.86,59.52 130.87,58.25 131.97,57.07C135.2,58.45 136.43,61.87 138.82,64.14C142.55,66.26 146.92,66.79 150.93,68.19C148.21,70.31 144.94,72.33 143.89,75.84C142.34,80.41 143.23,86.66 148.05,88.9C152.9,91.12 159.05,91.52 163.77,88.75C167.88,85.98 167.66,80.47 168.24,76.11C169.98,77.22 171.7,78.37 173.39,79.56C182.6,85.81 190.37,94.12 195.97,103.74C200.9,112.59 203.41,122.55 205.32,132.43C208.98,153.13 209.34,174.4 206.59,195.24C199.89,194.75 192.78,193.78 186.4,196.48C179.88,199.34 175.88,206.16 174.93,213.02C174.12,218.6 174.69,224.97 178.72,229.27C182.62,233.61 188.55,234.92 193.96,236.31C190.1,242.47 184.95,248.29 177.95,250.85C171.14,253.49 163.11,253.97 156.48,250.53C146.61,245.51 140.03,235.82 129.96,231.09C120.43,226.45 108.8,227.63 99.72,232.76C90.6,237.66 83.66,245.82 74.26,250.23C66.76,253.83 57.64,252.62 50.69,248.32C46.11,245.2 42.94,240.47 40.35,235.66C35.72,226.79 32.94,217.09 30.84,207.34C26.79,187.44 25.87,166.91 28.14,146.73C30.6,147.23 33.3,148.16 35.67,146.79C41.41,144.21 43.33,136.92 41.91,131.21C40.92,126.88 36.81,124.55 33.43,122.24C35.42,116.11 37.99,110.11 41.58,104.73C47.42,95.85 54.26,87.48 62.83,81.1C70.43,75.48 78.89,71 87.91,68.15C93.72,66.22 99.84,65.1 105.32,62.28C107.24,61.39 108.85,59.41 108.15,57.19C107.01,55.23 104.84,54.26 103.08,52.96M129.41,73.41C125.4,74.12 123.83,80.32 127.35,82.62C130.41,84.66 136.36,84.29 136.9,79.81C138.22,75.46 133.37,71.93 129.41,73.41M110.38,89.48C94.8,91.32 79.93,100.43 72.37,114.35C61.26,135.42 67.69,163.94 86.88,178.11C98,186.26 112.45,188.91 125.99,187.88C137.66,187.08 148.37,180.62 155.66,171.65C164.95,160.47 169.52,145.47 167.89,131C166.59,118.78 160.31,107.01 150.4,99.63C139.09,91.1 124.35,87.73 110.38,89.48M31.33,159.25C27.68,160.57 26.87,165.4 28.21,168.64C30.38,171.67 34.79,172.26 38.16,171.2C41.78,170.18 42.48,165.57 41.52,162.45C39.93,158.62 34.83,157.94 31.33,159.25M180.43,172.39C176.24,174.45 174.93,181.22 178.71,184.3C181.03,186.03 184.14,186.18 186.93,185.91C191.69,185.53 193.98,179.27 191.7,175.42C189.7,171.38 184.2,170.93 180.43,172.39M105.72,195.06L105.72,195.9C103.32,195.83 100.65,195.09 98.43,196.31C95.15,198.67 94.99,204.26 98.27,206.71C103.08,210.23 109.11,211.66 114.96,212.21C122.84,212.74 131.2,211.37 137.81,206.84C141.74,204.31 141.09,196.29 135.97,195.79C130.31,195.38 124.62,195.54 118.97,195.93L118.99,195.08C114.56,195.13 110.14,195.15 105.72,195.06Z" style="fill:#4a8cff;fill-rule:nonzero;"/>
    </g>
    <g transform="matrix(1,0,0,1,-21.3524,-24.8092)">
        <path d="M143.89,75.84C144.94,72.33 148.21,70.31 150.93,68.19C156.96,70.22 162.75,72.9 168.24,76.11C167.66,80.47 167.88,85.98 163.77,88.75C159.05,91.52 152.9,91.12 148.05,88.9C143.23,86.66 142.34,80.41 143.89,75.84Z" style="fill:#68b6ff;fill-rule:nonzero;"/>
    </g>
    <g transform="matrix(1,0,0,1,-21.3524,-24.8092)">
        <path d="M129.41,73.41C133.37,71.93 138.22,75.46 136.9,79.81C136.36,84.29 130.41,84.66 127.35,82.62C123.83,80.32 125.4,74.12 129.41,73.41Z" style="fill:#68b6ff;fill-rule:nonzero;"/>
    </g>
    <g transform="matrix(1,0,0,1,-21.3524,-24.8092)">
        <path d="M110.38,89.48C124.35,87.73 139.09,91.1 150.4,99.63C160.31,107.01 166.59,118.78 167.89,131C169.52,145.47 164.95,160.47 155.66,171.65C148.37,180.62 137.66,187.08 125.99,187.88C112.45,188.91 98,186.26 86.88,178.11C67.69,163.94 61.26,135.42 72.37,114.35C79.93,100.43 94.8,91.32 110.38,89.48M115.45,95.42C100.24,95.88 85.06,104.28 77.97,117.98C68.09,136.89 74.87,162.59 92.73,174.22C102.63,180.35 114.76,182.56 126.26,181.3C136.8,180.18 146.1,173.69 152.23,165.27C160.36,154.08 163.76,139.23 160.11,125.77C158.15,117.92 153.5,110.86 147.28,105.72C138.6,98.21 126.79,94.97 115.45,95.42Z" style="fill:#68b6ff;fill-rule:nonzero;"/>
    </g>
    <g transform="matrix(1,0,0,1,-21.3524,-24.8092)">
        <path d="M28.14,146.73C29.25,138.44 30.75,130.17 33.43,122.24C36.81,124.55 40.92,126.88 41.91,131.21C43.33,136.92 41.41,144.21 35.67,146.79C33.3,148.16 30.6,147.23 28.14,146.73Z" style="fill:#68b6ff;fill-rule:nonzero;"/>
    </g>
    <g transform="matrix(1,0,0,1,-21.3524,-24.8092)">
        <path d="M31.33,159.25C34.83,157.94 39.93,158.62 41.52,162.45C42.48,165.57 41.78,170.18 38.16,171.2C34.79,172.26 30.38,171.67 28.21,168.64C26.87,165.4 27.68,160.57 31.33,159.25Z" style="fill:#68b6ff;fill-rule:nonzero;"/>
    </g>
    <g transform="matrix(1,0,0,1,-21.3524,-24.8092)">
        <path d="M180.43,172.39C184.2,170.93 189.7,171.38 191.7,175.42C193.98,179.27 191.69,185.53 186.93,185.91C184.14,186.18 181.03,186.03 178.71,184.3C174.93,181.22 176.24,174.45 180.43,172.39Z" style="fill:#68b6ff;fill-rule:nonzero;"/>
    </g>
    <g transform="matrix(1,0,0,1,-21.3524,-24.8092)">
        <path d="M186.4,196.48C192.78,193.78 199.89,194.75 206.59,195.24C204.64,209.46 201.24,223.8 193.96,236.31C188.55,234.92 182.62,233.61 178.72,229.27C174.69,224.97 174.12,218.6 174.93,213.02C175.88,206.16 179.88,199.34 186.4,196.48Z" style="fill:#68b6ff;fill-rule:nonzero;"/>
    </g>
    <g transform="matrix(1,0,0,1,-21.3524,-24.8092)">
        <path d="M115.45,95.42C126.79,94.97 138.6,98.21 147.28,105.72C153.5,110.86 158.15,117.92 160.11,125.77C163.76,139.23 160.36,154.08 152.23,165.27C146.1,173.69 136.8,180.18 126.26,181.3C114.76,182.56 102.63,180.35 92.73,174.22C74.87,162.59 68.09,136.89 77.97,117.98C85.06,104.28 100.24,95.88 115.45,95.42M100.65,122.64C97.77,125.7 95.84,130.12 96.29,134.51C96.469,136.253 93.95,139.13 95.32,140.88C94.82,143.05 95.83,145.19 96.29,147.28C98.8,152.33 102.67,157 108.11,158.96C114.44,161.31 121.82,162.15 128.08,159.15C136.93,154.75 141.72,144.13 140.28,134.51C139.83,135.16 139.38,135.8 138.91,136.44C136.71,136.27 134.4,136.56 132.3,135.77C129.08,134.26 127.23,130.53 127.79,127.05C128.07,124.23 130.26,122.22 131.94,120.13C122.31,114.43 108.97,114.7 100.65,122.64Z" style="fill:#bfe9fc;fill-rule:nonzero;"/>
    </g>
    <g transform="matrix(1,0,0,1,-21.3524,-24.8092)">
        <path d="M105.72,195.06C110.14,195.15 114.56,195.13 118.99,195.08L118.97,195.93C118.9,198.66 118.91,201.39 118.71,204.12C114.47,204.62 110.18,204.59 105.94,204.14C105.79,201.39 105.69,198.64 105.72,195.9L105.72,195.06Z" style="fill:#bfe9fc;fill-rule:nonzero;"/>
    </g>
    <g transform="matrix(1,0,0,1,-21.3524,-24.8092)">
        <path d="M100.65,122.64C108.97,114.7 122.31,114.43 131.94,120.13C130.26,122.22 128.07,124.23 127.79,127.05C127.23,130.53 129.08,134.26 132.3,135.77C134.4,136.56 136.71,136.27 138.91,136.44C136.24,142.43 129.72,144.94 123.91,146.86C114.95,149.75 105.41,148.8 96.29,147.28C95.83,145.19 94.236,142.97 94.736,140.8C94.393,140.317 94.243,139.313 94.193,138.562C94.085,136.953 94.068,135.886 94.45,134.526L94.463,134.51C94.516,134.32 94.478,134.484 94.464,134.529C94.014,130.139 97.77,125.7 100.65,122.64Z" style="fill:#343c8c;fill-rule:nonzero;"/>
    </g>
    <g transform="matrix(1,0,0,1,-21.3524,-24.8092)">
        <path d="M138.91,136.44C139.38,135.8 139.83,135.16 140.28,134.51C141.72,144.13 136.93,154.75 128.08,159.15C121.82,162.15 114.44,161.31 108.11,158.96C102.67,157 98.8,152.33 96.29,147.28C105.41,148.8 114.95,149.75 123.91,146.86C129.72,144.94 136.24,142.43 138.91,136.44Z" style="fill:#292e67;fill-rule:nonzero;"/>
    </g>
    <g transform="matrix(1,0,0,1,-21.3524,-24.8092)">
        <path d="M98.43,196.31C100.65,195.09 103.32,195.83 105.72,195.9C105.69,198.64 105.79,201.39 105.94,204.14C110.18,204.59 114.47,204.62 118.71,204.12C118.91,201.39 118.9,198.66 118.97,195.93C124.62,195.54 130.31,195.38 135.97,195.79C141.09,196.29 141.74,204.31 137.81,206.84C131.2,211.37 122.84,212.74 114.96,212.21C109.11,211.66 103.08,210.23 98.27,206.71C94.99,204.26 95.15,198.67 98.43,196.31Z" style="fill:#292e67;fill-rule:nonzero;"/>
    </g>
    <g transform="matrix(2.94834,0,0,2.94834,186.916,-791.392)">
        <path d="M27.04,300.06C27.84,292.03 34.88,285.17 42.99,284.85C47.22,284.4 51,286.67 54.19,289.17C54.6,287.91 55.01,286.65 55.45,285.41C57.33,285.41 59.22,285.43 61.1,285.45C61.74,294.95 61.27,304.49 61.4,314.01C61.6,320.04 58.55,326.31 52.96,328.95C46.58,331.96 38.3,331.67 32.63,327.28C30.5,325.41 34.01,323.26 34.74,321.41C39.57,324.08 46.05,325.24 50.82,321.85C53.19,320.34 53.74,317.44 54.3,314.91C50.47,317.55 46.01,320.16 41.15,319C32.3,317.86 25.66,308.83 27.04,300.06M41.32,292.22C33.61,294.51 31.93,305.96 38.36,310.61C43.73,315.16 52.62,311.5 54.05,304.85C56.32,297.61 48.61,289.65 41.32,292.22Z" style="fill:#292e67;fill-rule:nonzero;"/>
    </g>
    <g transform="matrix(2.94834,0,0,2.94834,186.916,-791.392)">
        <path d="M77.45,288.72C79.61,286.89 81.98,284.8 85.02,285.04C88.78,284.7 91.99,286.89 94.83,289.05C93.73,290.95 92.56,292.81 91.32,294.62C88.31,293.25 84.86,290.69 81.48,292.48C79.08,293.66 77.97,296.39 77.99,298.95C77.71,305.65 78.12,312.35 77.78,319.05C75.33,319.09 72.88,319.08 70.43,318.93C70.27,307.89 70.34,296.84 70.39,285.79C72.29,285.6 74.19,285.48 76.09,285.36C76.53,286.48 76.99,287.6 77.45,288.72Z" style="fill:#292e67;fill-rule:nonzero;"/>
    </g>
    <g transform="matrix(2.94834,0,0,2.94834,186.916,-791.392)">
        <path d="M133.8,285.74C135.75,285.51 137.71,285.43 139.66,285.28C140.16,286.77 140.62,288.28 141.08,289.8C144.41,286.47 148.99,283.98 153.83,285.03C163.18,286.11 169.99,295.85 168.28,305.01C167.21,313.29 159.44,320.11 151.03,319.65C147.24,319.76 144.13,317.38 141.3,315.19C141.46,319.88 141.5,324.58 141.26,329.27C138.8,329.31 136.34,329.29 133.88,329.2C133.62,314.72 133.76,300.23 133.8,285.74M148.33,292.29C143.2,293.76 139.71,299.6 141.2,304.79C142.36,309.8 147.59,313.58 152.74,312.59C158.31,311.72 161.87,305.59 160.73,300.23C159.92,294.67 153.8,290.35 148.33,292.29Z" style="fill:#292e67;fill-rule:nonzero;"/>
    </g>
    <g transform="matrix(2.94834,0,0,2.94834,186.916,-791.392)">
        <path d="M183.05,287.03C191.33,282.14 203.26,286.16 206.78,295.14C208.11,298.19 207.97,301.58 207.9,304.83C199.17,305.59 190.4,304.85 181.66,305.28C183.09,308.93 185.88,312.53 190.09,312.87C194.11,313.61 197.57,311.16 200.93,309.39C202.05,310.89 203.24,312.35 204.2,313.97C197.84,322.18 184.08,321.09 178.07,312.99C171.36,305.19 173.94,291.8 183.05,287.03M181.79,298.64C188.23,298.85 194.68,298.84 201.12,298.65C199.38,295.03 196.38,291.48 192,291.52C187.29,291.05 183.74,294.78 181.79,298.64Z" style="fill:#292e67;fill-rule:nonzero;"/>
    </g>
    <g transform="matrix(2.94834,0,0,2.94834,186.916,-791.392)">
        <path d="M97.04,285.73C99.33,285.56 101.64,285.4 103.93,285.62C105.14,286.37 105.37,287.92 105.95,289.12C108.19,295.28 110.2,301.54 112.88,307.53C115.85,300.31 118.28,292.88 121.09,285.6C123.68,285.5 126.27,285.53 128.85,285.67C123.41,300.48 117.61,315.16 111.83,329.84C109.39,329.55 106.31,330.82 104.34,329.03C105.61,324.61 108.21,320.6 108.95,316.03C105.51,305.75 100.48,296.03 97.04,285.73Z" style="fill:#292e67;fill-rule:nonzero;"/>
    </g>
</svg>
