<?xml version="1.0" encoding="utf-8"?>
<!-- Generator: Adobe Illustrator 27.0.0, SVG Export Plug-In . SVG Version: 6.00 Build 0)  -->
<svg version="1.1" id="Layer_1" xmlns="http://www.w3.org/2000/svg" xmlns:xlink="http://www.w3.org/1999/xlink" x="0px" y="0px"
	 viewBox="0 0 949 195" style="enable-background:new 0 0 949 195;" xml:space="preserve">
<style type="text/css">
	.st0{fill:#467AF0;}
</style>
<g>
	<g>
		<path class="st0" d="M880.5,107.8v42.1c-4.1,0-7.7,0.1-11.4-0.1c-0.8-0.1-1.8-1.3-2.1-2.2c-0.4-1.1-0.1-2.3-0.1-3.6
			c0-38.1,0-76.2,0-114.3v-7.2h13.5v80.4c1.9-1.5,3-2.3,4-3.3C895.4,89,906.4,78.6,917,67.8c3.5-3.5,7-5.6,12-4.9
			c3,0.4,6.1,0.1,10.2,0.1c-14.8,14.2-28.9,27.6-43.5,41.6l47.8,45.2c-6.3,0-11.6,0.2-16.8-0.1c-1.3-0.1-2.7-1.7-3.9-2.8
			c-13-12.1-26-24.3-39-36.5C883.1,109.8,882.3,109.2,880.5,107.8z"/>
		<path class="st0" d="M539.5,130c1.3,2.8,2.8,5.2,3.5,7.9c0.3,1.1-0.9,3.3-2,4.1c-11.3,8-24.2,10.6-37.6,8.5
			c-22.5-3.4-35-18.4-35.7-41.3c-0.3-10.7,1.3-21,7-30.3c12.9-21.1,45.5-24.9,61-7c8.1,9.4,9.8,20.9,9.9,33.3
			c-1.8,0.1-3.4,0.2-4.9,0.2c-18.4,0-36.8,0.1-55.2-0.1c-3.6,0-5,1.1-4.2,4.6c1,4.5,1.5,9.1,3.1,13.4c3.8,10.2,11.8,15.3,22.3,16.4
			C518.8,141,529.6,137.4,539.5,130z M482.1,96.6h51c-0.4-15.4-9.3-25.2-23-25.7C494.8,70.4,483.4,80.7,482.1,96.6z"/>
		<path class="st0" d="M668.1,189c-0.9-3.1-1.8-6.3-2.8-9.7l9.6-3.1c12.7-4,18.3-14.4,22.5-25.8c0.5-1.4-0.4-3.5-1-5
			c-11.1-26-22.2-52-33.3-78c-0.5-1.2-0.9-2.5-1.6-4.5c4.4,0,8.3-0.3,12.2,0.2c1.2,0.1,2.6,2.2,3.2,3.7c8.7,21.1,17.3,42.2,26,63.3
			c0.6,1.5,1.3,2.8,2.4,5.1c1.8-4.2,3.4-7.7,4.8-11.2c7.8-18.7,15.6-37.4,23.2-56.3c1.4-3.6,3.1-5.3,7.1-4.8c2.5,0.3,5,0.1,8.3,0.1
			c-3,7.1-5.7,13.4-8.4,19.8c-11.6,26.8-22.8,53.7-34.7,80.3C698.6,178,684.2,187.5,668.1,189z"/>
		<path class="st0" d="M309.5,62.9c-0.4,0.2-0.3,0.1-0.1,0.1c11.7-0.8,11.7-0.8,12.8,10.6c0.1,1,0.2,2,0.4,4.5
			c1.5-2.1,2.4-3.3,3.2-4.5c10.7-15.2,38.3-17.7,50.6-4.5c6.2,6.7,7.9,15.2,8,23.9c0.3,17.6,0,35.3,0.1,52.9c0,3.1-0.9,4.3-4,4.1
			c-2.9-0.2-5.9-0.1-9.4-0.1c-0.1-1.8-0.2-3.4-0.2-5c0-15.9,0-31.7,0-47.6v-1.8c-0.1-15.3-5.2-22.2-17.7-23.6
			c-13.8-1.6-26,6.5-29,19.4c-0.6,2.9-1,5.8-1,8.8c-0.1,15,0,30,0,44.9v4.6h-13.7V62.9z"/>
		<path class="st0" d="M777.9,77.5c0.7-0.6,1.3-1.3,1.9-2c9.3-16.3,33.1-18.4,46.6-10.7c8.9,5,12.5,13.7,12.8,23.1
			c0.6,20.4,0.2,40.9,0.2,61.6h-12.7c-0.1-1.7-0.4-3.4-0.4-5.1c-0.1-16.9,0-33.8-0.3-50.8c-0.1-3.8-0.7-7.6-2-11.3
			c-1.8-5.5-6.1-8.6-11.7-9.9c-18.6-4.2-33.4,7.3-33.9,26.8c-0.4,15-0.1,30-0.1,45v5.2h-13.4V63.2c-0.3,0.1,0.1-0.2,0.5-0.2
			c13.1,0.1,10.4-2.3,11.9,10.2C777.4,74.4,777.6,75.6,777.9,77.5z"/>
		<path class="st0" d="M416.4,73.2h-16.8V62.9c4.3,0,8.4-0.1,12.5,0c3.2,0.1,4.5-0.9,4.4-4.3c-0.2-5.2-0.2-10.4,0-15.6
			c0.1-0.7,0.3-1.4,0.7-2.1c0.4-0.6,0.9-1.2,1.5-1.6c3.5-1.6,7.2-2.7,11.3-4.1c0,8,0.2,15.4-0.1,22.9c-0.1,3.5,1,4.7,4.5,4.6
			c6.7-0.2,13.3-0.1,20.3-0.1v10.3h-24.4c-0.1,2-0.2,3.6-0.2,5.2c0,14.4,0,28.8,0,43.1c0,14.1,7.2,20.1,21,17.5
			c1.1-0.2,2.3-0.4,3.3-0.5c0.2,0.3,0.3,0.5,0.4,0.6c1.1,10.7,0.1,11.8-10.7,11.9c-18.2,0.1-27.4-9-27.6-27.7c-0.2-14.7,0-29.4,0-44
			L416.4,73.2z"/>
		<path class="st0" d="M631.1,22.4H644v127.3h-12.9V22.4z"/>
		<path class="st0" d="M266.8,149.9V26.7h12.8c0.1,1.2,0.3,2.3,0.3,3.4c0,38.1-0.1,76.3,0.1,114.4c0,4.1-0.8,6.1-5.3,5.5
			C272.2,149.6,269.7,149.9,266.8,149.9z"/>
		<path class="st0" d="M615.5,61.3v12c-2.4-0.3-4.4-0.6-6.4-0.7C593,71.5,582,80.8,581.4,97c-0.6,15.9-0.4,31.7-0.2,47.6
			c0.1,4.4-1.2,5.6-5.5,5.4c-8-0.3-8-0.1-8-8c-0.1-22-0.1-43.9-0.2-65.9c0-4.1-0.5-8.3-0.9-13.2c3.6,0,7-0.3,10.2,0.2
			c1,0.1,2.2,2.1,2.4,3.3c0.6,3.6,0.8,7.3,1.5,11.2C588.3,63.4,600.1,59,615.5,61.3z"/>
	</g>
	<g>
		<g>
			<path class="st0" d="M102.6,4.9c-15.4,0-27.9,12.5-27.9,27.9c0,13.8,10.1,25.3,23.3,27.5c1.5,0.3,3.1,0.4,4.7,0.4
				c1.6,0,3.2-0.1,4.8-0.4c13.1-2.3,23.1-13.8,23.1-27.5C130.5,17.4,118,4.9,102.6,4.9z M102.6,51.3c-10.2,0-18.5-8.3-18.5-18.5
				s8.3-18.5,18.5-18.5s18.5,8.3,18.5,18.5S112.8,51.3,102.6,51.3z"/>
		</g>
		<g>
			<path class="st0" d="M58.4,137.7c-1.3-2.6-3-4.9-5-7c-5.1-5.2-12.2-8.4-20-8.4c-15.4,0-27.9,12.5-27.9,27.9
				c0,15.4,12.5,27.9,27.9,27.9s27.9-12.5,27.9-27.9C61.4,145.8,60.3,141.5,58.4,137.7z M33.4,168.8c-10.2,0-18.5-8.3-18.5-18.5
				s8.3-18.5,18.5-18.5s18.5,8.3,18.5,18.5S43.6,168.8,33.4,168.8z"/>
		</g>
		<g>
			<path class="st0" d="M178.4,122.4c-8.3,0-15.7,3.6-20.8,9.3c-2.1,2.4-3.8,5.1-5,8c-1.3,3.3-2.1,6.8-2.1,10.6
				c0,15.4,12.5,27.9,27.9,27.9s27.9-12.5,27.9-27.9C206.3,134.9,193.8,122.4,178.4,122.4z M178.4,168.8c-10.2,0-18.5-8.3-18.5-18.5
				s8.3-18.5,18.5-18.5s18.5,8.3,18.5,18.5S188.5,168.8,178.4,168.8z"/>
		</g>
		<g>
			<path class="st0" d="M126.5,97.8c-1-2.7-2.5-5.2-4.4-7.3c-3.6-4.1-8.6-7-14.2-8c-1.4-0.3-2.9-0.4-4.4-0.4c-1.8,0-3.5,0.2-5.1,0.5
				c-5.6,1.2-10.4,4.2-13.9,8.5c-2,2.4-3.5,5.3-4.5,8.3c-0.7,2.3-1.1,4.7-1.1,7.3c0,2.9,0.5,5.7,1.4,8.3c1,2.7,2.4,5.2,4.2,7.4
				c3.7,4.5,9,7.6,15,8.6c1.3,0.2,2.6,0.3,4,0.3c1.9,0,3.7-0.2,5.5-0.6c5.2-1.2,9.7-4,13.1-7.9c2.1-2.4,3.7-5.2,4.7-8.2
				c0.9-2.5,1.3-5.1,1.3-7.9C128.2,103.6,127.6,100.6,126.5,97.8z M114.4,118.6c-1.6,1.5-3.5,2.6-5.6,3.4c-1.7,0.6-3.4,0.9-5.3,0.9
				c-1.4,0-2.9-0.2-4.2-0.6c-2.8-0.8-5.3-2.2-7.3-4.3c-2-2-3.5-4.6-4.2-7.4c-0.3-1.2-0.5-2.5-0.5-3.8c0-1,0.1-2,0.3-3
				c0.6-3.2,2.2-6.1,4.4-8.4c1.8-1.8,4-3.2,6.5-4c1.6-0.5,3.2-0.8,4.9-0.8c1.6,0,3.1,0.2,4.6,0.7c2.4,0.7,4.6,2,6.4,3.7
				c2.1,1.9,3.7,4.4,4.5,7.3c0.4,1.4,0.7,3,0.7,4.5c0,1.3-0.1,2.5-0.4,3.7C118.5,113.6,116.8,116.4,114.4,118.6z"/>
		</g>
		<g>
			<path class="st0" d="M165.1,53.7c-8.9,0-16.1,7.2-16.1,16.1c0,1.6,0.2,3.1,0.7,4.5c0.8,2.8,2.4,5.3,4.5,7.3
				c2.9,2.7,6.7,4.3,11,4.3c8.9,0,16.1-7.2,16.1-16.1S174,53.7,165.1,53.7z M165.1,77.4c-4.2,0-7.6-3.4-7.6-7.6
				c0-4.2,3.4-7.6,7.6-7.6s7.6,3.4,7.6,7.6C172.7,74,169.3,77.4,165.1,77.4z"/>
		</g>
		<g>
			<path class="st0" d="M42.9,55.6c-8.9,0-16.1,7.2-16.1,16.1S34,87.8,42.9,87.8c3.7,0,7.2-1.3,9.9-3.4c2.5-2,4.5-4.7,5.5-7.8
				c0.5-1.5,0.8-3.2,0.8-4.9C59,62.8,51.8,55.6,42.9,55.6z M42.9,79.3c-4.2,0-7.6-3.4-7.6-7.6c0-4.2,3.4-7.6,7.6-7.6
				s7.6,3.4,7.6,7.6C50.5,75.9,47.1,79.3,42.9,79.3z"/>
		</g>
		<g>
			<path class="st0" d="M109.6,158.7c-1.6-0.6-3.4-0.9-5.2-0.9c-1.5,0-2.9,0.2-4.3,0.6c-6.8,1.9-11.8,8.1-11.8,15.5
				c0,8.9,7.2,16.1,16.1,16.1s16.1-7.2,16.1-16.1C120.6,166.9,116,160.9,109.6,158.7z M104.5,181.6c-4.2,0-7.6-3.4-7.6-7.6
				c0-4.2,3.4-7.6,7.6-7.6c4.2,0,7.6,3.4,7.6,7.6C112.1,178.2,108.7,181.6,104.5,181.6z"/>
		</g>
		<g>
			<path class="st0" d="M87.9,110.6c0.7,2.9,2.2,5.4,4.2,7.4c-2.6,1.5-5.1,3-7.5,4.4c-12.3,7.2-22.3,13.1-26.2,15.3
				c-0.8,0.5-1.3,0.8-1.5,0.9l-4.2-7.4c0.1-0.1,0.4-0.2,0.8-0.4c3-1.8,13.7-8,26.9-15.8C82.8,113.6,85.3,112.1,87.9,110.6z"/>
			<path class="st0" d="M155.4,80.8c-0.2,0.1-0.6,0.4-1.3,0.8c-3.7,2.2-14.5,8.5-27.7,16.2c-2.4,1.4-4.9,2.9-7.5,4.4
				c-0.8-2.8-2.4-5.3-4.5-7.3c2.6-1.5,5.1-3,7.6-4.4c13.1-7.7,23.8-14,27.6-16.2c0.9-0.5,1.4-0.8,1.4-0.9L155.4,80.8z"/>
		</g>
		<g>
			<path class="st0" d="M84.5,91.1l7.7,4.2c-2.2,2.2-3.8,5.1-4.4,8.4L80,99.5L52.8,84.4l-1.8-1l4.6-8.3l2.6,1.4L84.5,91.1z"/>
			<path class="st0" d="M162.4,134.4l-4.6,8.3l-5.3-2.9l-30.4-16.8l-7.7-4.3c2.3-2.2,4-5,4.8-8.2l7.6,4.2l30.7,17L162.4,134.4z"/>
		</g>
		<g>
			<path class="st0" d="M103.5,90.6c-1.7,0-3.4,0.3-4.9,0.8l-0.2-8.8l-0.5-22.2l-0.1-2.3l9.5-0.2l0.1,2.5l0.5,22.1l0.2,8.8
				C106.6,90.9,105.1,90.6,103.5,90.6z"/>
			<path class="st0" d="M109.7,159l-9.5,0.2l0-0.7L99.5,131l-0.2-8.8c1.3,0.4,2.7,0.6,4.2,0.6c1.8,0,3.6-0.3,5.3-0.9l0.2,8.8l0.6,28
				L109.7,159z"/>
		</g>
	</g>
</g>
</svg>
