<?xml version="1.0" encoding="UTF-8" standalone="no"?>
<!DOCTYPE svg PUBLIC "-//W3C//DTD SVG 1.1//EN" "http://www.w3.org/Graphics/SVG/1.1/DTD/svg11.dtd">
<svg width="100%" height="100%" viewBox="0 0 346 93" version="1.1" xmlns="http://www.w3.org/2000/svg" xmlns:xlink="http://www.w3.org/1999/xlink" xml:space="preserve" xmlns:serif="http://www.serif.com/" style="fill-rule:evenodd;clip-rule:evenodd;stroke-linejoin:round;stroke-miterlimit:2;">
    <g transform="matrix(1,0,0,1,-9,-5.36577)">
        <path d="M109.417,42.683L114.274,42.683L114.274,65.492L109.417,65.492L109.417,42.682L109.417,42.683ZM138.546,54.105C138.546,49.829 135.81,46.615 131.606,46.615C127.399,46.615 124.697,49.829 124.697,54.105C124.697,58.344 127.399,61.593 131.607,61.593C135.81,61.593 138.546,58.343 138.546,54.105M119.706,54.105C119.706,47.23 124.733,42.306 131.606,42.306C138.511,42.306 143.539,47.23 143.539,54.105C143.539,60.978 138.511,65.902 131.606,65.902C124.733,65.902 119.706,60.978 119.706,54.105M164.934,65.49L154.061,50.616L154.061,65.49L149.203,65.49L149.203,42.68L154.196,42.68L164.764,57.01L164.764,42.68L169.619,42.68L169.619,65.49L164.934,65.49ZM183.627,54.105C183.627,47.093 188.927,42.306 195.766,42.306C200.793,42.306 203.7,45.041 205.306,47.88L201.135,49.932C200.177,48.086 198.126,46.614 195.766,46.614C191.629,46.614 188.619,49.794 188.619,54.104C188.619,58.413 191.629,61.594 195.766,61.594C198.126,61.594 200.176,60.157 201.135,58.274L205.307,60.294C203.667,63.131 200.793,65.902 195.766,65.902C188.927,65.902 183.627,61.113 183.627,54.105M225.763,65.49L225.763,55.917L214.993,55.917L214.993,65.491L210.136,65.491L210.136,42.68L214.992,42.68L214.992,51.64L225.763,51.64L225.763,42.68L230.653,42.68L230.653,65.49L225.763,65.49ZM247.299,47.539L243.741,57.353L250.855,57.353L247.299,47.539ZM253.589,65.49L252.189,61.627L242.409,61.627L240.97,65.49L235.433,65.49L244.254,42.683L250.342,42.683L259.129,65.49L253.589,65.49ZM279.707,65.49L268.835,50.616L268.835,65.49L263.978,65.49L263.978,42.68L268.969,42.68L279.537,57.01L279.537,42.68L284.392,42.68L284.392,65.49L279.707,65.49ZM306.948,65.49L296.075,50.616L296.075,65.49L291.217,65.49L291.217,42.68L296.21,42.68L306.778,57.01L306.778,42.68L311.633,42.68L311.633,65.49L306.948,65.49ZM317.67,65.49L317.67,42.683L333.81,42.683L333.81,46.958L322.527,46.958L322.527,51.78L333.572,51.78L333.572,56.054L322.527,56.054L322.527,61.218L333.809,61.218L333.809,65.492L317.669,65.492L317.67,65.49ZM339.888,65.492L339.888,42.683L344.746,42.683L344.746,61.218L354.387,61.218L354.387,65.492L339.888,65.492Z" style="fill-rule:nonzero;"/>
    </g>
    <g transform="matrix(1,0,0,1,-9,-5.36577)">
        <path d="M30.764,57.51L12.927,57.51C12.548,60.199 11.14,62.639 9,64.312L23.477,89.386C24.742,88.858 26.101,88.588 27.472,88.592C28.814,88.592 30.132,88.844 31.38,89.352L40.459,73.576C35.094,70.066 31.387,64.24 30.764,57.512" style="fill:rgb(93,95,132);fill-rule:nonzero;"/>
    </g>
    <g transform="matrix(1,0,0,1,-9,-5.36577)">
        <path d="M43.041,75.008L33.942,90.821C36.089,92.494 37.501,94.939 37.878,97.634L66.584,97.634C66.964,94.887 68.404,92.434 70.611,90.751L61.533,74.978C58.637,76.368 55.466,77.092 52.253,77.095C49.066,77.092 45.918,76.379 43.041,75.008" style="fill:rgb(122,122,156);fill-rule:nonzero;"/>
    </g>
    <g transform="matrix(1,0,0,1,-9,-5.36577)">
        <path d="M40.014,37.716L31.38,22.713C30.139,23.219 28.812,23.479 27.472,23.48C26.086,23.48 24.744,23.215 23.466,22.68L9,47.754C11.137,49.429 12.545,51.868 12.927,54.556L30.712,54.556C30.997,47.799 34.446,41.555 40.014,37.716" style="fill:rgb(70,68,113);fill-rule:nonzero;"/>
    </g>
    <g transform="matrix(1,0,0,1,-9,-5.36577)">
        <path d="M62.016,36.252L70.611,21.321C68.41,19.649 66.96,17.169 66.584,14.431L37.877,14.431C37.502,17.127 36.09,19.573 33.942,21.245L42.558,36.221C45.563,34.698 48.884,33.903 52.253,33.901C55.771,33.901 59.082,34.761 62.016,36.251" style="fill:rgb(203,210,235);fill-rule:nonzero;"/>
    </g>
    <g transform="matrix(1,0,0,1,-9,-5.36577)">
        <path d="M73.8,54.556L91.588,54.556C91.961,51.865 93.371,49.423 95.516,47.755L81.024,22.665C79.737,23.205 78.384,23.478 76.994,23.478C75.692,23.479 74.402,23.235 73.19,22.759L64.557,37.761C70.092,41.602 73.516,47.825 73.8,54.556" style="fill:rgb(182,190,219);fill-rule:nonzero;"/>
    </g>
    <g transform="matrix(1,0,0,1,-9,-5.36577)">
        <path d="M91.588,57.51L73.748,57.51C73.128,64.215 69.446,70.023 64.114,73.538L73.19,89.307C74.401,88.83 75.691,88.587 76.993,88.591C78.384,88.591 79.736,88.86 81.023,89.398L95.517,64.31C93.37,62.645 91.959,60.202 91.589,57.51" style="fill:rgb(152,156,188);fill-rule:nonzero;"/>
    </g>
    <g transform="matrix(1,0,0,1,-9,-5.36577)">
        <path d="M19.937,12.786C19.968,8.706 23.333,5.366 27.414,5.366C27.433,5.366 27.453,5.366 27.472,5.366C31.604,5.396 34.92,8.773 34.89,12.902C34.861,16.979 31.499,20.318 27.421,20.318C27.401,20.318 27.38,20.318 27.36,20.318C23.279,20.291 19.937,16.926 19.937,12.845C19.937,12.825 19.937,12.806 19.937,12.786" style="fill:rgb(56,179,74);fill-rule:nonzero;"/>
    </g>
</svg>
