<?xml version="1.0" encoding="UTF-8" standalone="no"?>
<!DOCTYPE svg PUBLIC "-//W3C//DTD SVG 1.1//EN" "http://www.w3.org/Graphics/SVG/1.1/DTD/svg11.dtd">
<svg width="100%" height="100%" viewBox="0 0 400 142" version="1.1" xmlns="http://www.w3.org/2000/svg" xmlns:xlink="http://www.w3.org/1999/xlink" xml:space="preserve" xmlns:serif="http://www.serif.com/" style="fill-rule:evenodd;clip-rule:evenodd;stroke-linejoin:round;stroke-miterlimit:2;">
    <g transform="matrix(2.15234,0,0,2.16427,0.575154,0.332276)">
        <g id="_-ffffffff" serif:id="#ffffffff">
            <path d="M0,64.12C2.98,65 6.04,65.63 9.12,66L0,66L0,64.12Z" style="fill:white;fill-rule:nonzero;"/>
        </g>
    </g>
    <g id="_-ff870cff" serif:id="#ff870cff" transform="matrix(1,0,0,1,107,37.9677)">
        <g transform="matrix(2.15234,0,0,2.16427,-106.425,-37.6355)">
            <path d="M18.27,0L32.81,0C32.44,13.66 32.82,27.33 32.62,40.99C32.38,48.16 30.25,55.85 24.8,60.82C20.75,64.56 15.1,65.42 9.83,66L9.12,66C6.04,65.63 2.98,65 0,64.12L0,50.92C3.99,52.79 8.94,54.62 13.04,52C17.56,49.41 18.02,43.66 18.22,39.01C18.34,26.01 18.22,13 18.27,0Z" style="fill:rgb(255,135,12);fill-rule:nonzero;"/>
        </g>
        <g transform="matrix(2.04711,0,0,2.32059,-97.9174,-37.7172)">
            <path d="M85.29,1.2C90.25,-0.87 97.5,1.92 97.22,8C96.92,14.72 87.62,17.33 83.13,12.89C79.22,9.7 80.57,2.84 85.29,1.2Z" style="fill:rgb(255,135,12);fill-rule:nonzero;"/>
        </g>
    </g>
    <g id="_-00165cff" serif:id="#00165cff" transform="matrix(1,0,0,1,107,37.9677)">
        <g transform="matrix(2.15234,0,0,2.16427,-106.425,-37.6355)">
            <path d="M35.2,0L47.44,0C53.47,0.84 59.72,1.76 65,5C70.06,7.98 73.88,12.91 75.59,18.52C78.79,28.51 78.53,40 73.27,49.26C68.85,57.26 60.52,62.73 51.62,64.39C42.47,65.93 33.14,65.07 23.91,65.04C27.72,61.7 31.02,57.83 33.25,53.25C39.76,53.1 46.81,54.13 52.7,50.7C57.62,48.06 60.81,42.95 61.71,37.51C63.32,29.9 61.79,20.66 55.16,15.81C49.55,11.35 41.94,12.09 35.22,11.75C35.21,7.83 35.18,3.92 35.2,0Z" style="fill:rgb(0,22,92);fill-rule:nonzero;"/>
        </g>
        <g transform="matrix(2.15234,0,0,2.16427,-106.425,-37.6355)">
            <path d="M115.81,20.82C123.71,16.14 133.712,16.636 142.272,19.096C142.339,22.643 142.363,26.101 142.321,29.597C137.041,28.007 131.24,25.86 125.74,27.77C123.19,28.81 122.96,32.36 125.37,33.72C130.73,36.74 137.59,37.28 141.94,42.05C145.36,45.5 145.48,50.92 144.19,55.32C142.32,59.79 138.04,63.06 133.39,64.22C125.78,66.16 117.375,65.4 109.855,63.43C109.801,59.628 109.723,55.746 109.763,51.906C115.563,54.846 122.52,56.99 128.95,54.96C131.39,54.12 132.34,50.5 129.89,49.06C124.55,45.88 117.68,45.44 113.12,40.86C107.84,35.25 108.93,24.72 115.81,20.82Z" style="fill:rgb(0,22,92);fill-rule:nonzero;"/>
        </g>
        <g transform="matrix(2.15234,0,0,2.16427,-106.425,-37.6355)">
            <path d="M150.57,30.59C154.1,22.28 163.08,17.15 171.95,17.2C176.37,17.25 181.277,16.961 185.287,19.251C185.306,23.037 185.3,26.731 185.298,30.501C180.598,28.431 174.93,27.14 169.99,29.03C160.39,32.95 160.03,49.2 169.62,53.33C174.66,55.6 180.498,53.827 185.278,51.697C185.279,55.422 185.376,58.997 185.28,62.547C179.51,65.267 172.52,65.89 166.32,64.76C157.38,63.4 149.94,55.69 148.56,46.8C148.09,41.36 148.04,35.59 150.57,30.59Z" style="fill:rgb(0,22,92);fill-rule:nonzero;"/>
        </g>
        <g transform="matrix(2.15234,0,0,2.16427,-106.425,-37.6355)">
            <path d="M81.28,18.23C85.9,18.12 90.52,18.19 95.13,18.15C95.75,28.96 94.91,39.83 95.54,50.64C96.3,55.12 101.817,54.524 105.227,54.054C105.177,57.274 105.325,60.343 105.109,63.53C99.429,64.7 92.82,66.51 87.39,63.67C83.08,61.62 81.37,56.5 81.33,52.03C81.29,40.76 81.37,29.49 81.28,18.23Z" style="fill:rgb(0,22,92);fill-rule:nonzero;"/>
        </g>
    </g>
</svg>
