<?xml version="1.0" encoding="UTF-8" standalone="no"?>
<!DOCTYPE svg PUBLIC "-//W3C//DTD SVG 1.1//EN" "http://www.w3.org/Graphics/SVG/1.1/DTD/svg11.dtd">
<svg width="100%" height="100%" viewBox="0 0 500 141" version="1.1" xmlns="http://www.w3.org/2000/svg" xmlns:xlink="http://www.w3.org/1999/xlink" xml:space="preserve" xmlns:serif="http://www.serif.com/" style="fill-rule:evenodd;clip-rule:evenodd;stroke-linejoin:round;stroke-miterlimit:2;">
    <g transform="matrix(0.509593,0,0,0.509593,-2.98727,-2.91357)">
        <path d="M12.4,6.34C17.31,4.8 22.87,6.31 27.27,8.76C31.75,11.16 33.89,16.18 34.88,20.92C35.9,25.92 33.08,31.43 28.3,33.3C24.52,34.66 20.99,32.02 18.04,30C14.43,27.3 10.35,25.14 7.22,21.86C3.69,16.58 7.62,9.4 12.4,6.34Z" style="fill:#40be46;fill-rule:nonzero;"/>
    </g>
    <g transform="matrix(0.509593,0,0,0.509593,-2.98727,-2.91357)">
        <path d="M299.29,11.14C302.01,10.86 305.14,11.93 306.24,14.64C308.25,19.53 306.2,25.89 301.52,28.46C299,29.34 295.59,28.03 294.71,25.37C293.57,22.23 292.8,18.76 293.49,15.43C294.01,12.75 296.71,11.2 299.29,11.14Z" style="fill:#40be46;fill-rule:nonzero;"/>
    </g>
    <g transform="matrix(0.509593,0,0,0.509593,-2.98727,-2.91357)">
        <path d="M115.28,15.23C119.8,14.13 126.18,14.94 127.98,19.96C130.04,23.98 127.61,29.91 123,30.59C119.73,29.63 116.66,27.96 113.78,26.14C109.92,23.45 110.23,16.38 115.28,15.23Z" style="fill:#40be46;fill-rule:nonzero;"/>
    </g>
    <g transform="matrix(0.509593,0,0,0.509593,-2.98727,-2.91357)">
        <path d="M471.32,15.12C477.83,12.5 484.04,19.8 482.17,25.99C480.5,30.83 477.02,35.71 471.74,36.87C468.37,37.69 464.58,38.16 461.32,36.73C457.98,34.84 457.95,30.34 458.29,26.99C459.21,20.52 465.51,16.68 471.32,15.12Z" style="fill:#40be46;fill-rule:nonzero;"/>
    </g>
    <g transform="matrix(0.509593,0,0,0.509593,-2.98727,-2.91357)">
        <path d="M47.4,39.71C53.04,38.02 59.22,40.74 62.7,45.26C64.15,47.3 64.87,49.74 65.89,52.01C69.13,59.85 75.08,66.09 80.88,72.11C87.28,78.41 93.98,84.56 101.76,89.14C106.33,91.72 111.57,93.96 116.93,93.02C120.49,92.38 123.15,89.72 126.26,88.08C128.53,86.7 129.56,89.93 130.57,91.37C141.77,114.25 158.14,134.12 175.68,152.39C181.75,156.89 188.5,160.5 195.41,163.55C206.11,168.65 218.29,170.63 230.04,169C241.77,167.41 252.85,162.77 263.19,157.16C270.39,153.03 277.24,148.33 284.5,144.31C288.49,142.11 293.51,141.16 297.76,143.2C303.68,146.01 308.42,150.92 314.68,153.09C323.86,156.47 333.97,155.09 343.15,152.45C355.75,148.96 367.23,142.58 379.04,137.14C386.49,133.75 394.64,131.33 400.84,125.72C408.75,118.56 414.92,109.78 421.22,101.23C422.96,98.94 424.7,96.41 427.4,95.15C434.81,91.7 443.98,100.15 441.95,107.81C440.71,111.76 436.56,113.64 432.82,114.46C419.62,117.01 408.47,126.26 401.41,137.43C395.69,147.12 393.43,158.33 390.95,169.17C389.29,176.7 387.64,184.61 382.86,190.89C378.94,196.2 373.04,199.53 367.21,202.34C353.21,208.77 338.1,212.3 322.99,214.99C295.58,219.49 267.58,220.6 239.92,217.89C225.63,216.36 211.39,213.79 197.78,209.09C187.39,205.36 177.24,200.39 168.97,192.95C162.57,187.29 157.44,180.37 152.92,173.16C145.97,162.74 139.67,151.89 132.34,141.72C109.17,109.3 79.12,82.57 47.76,58.29C44.74,55.63 40.82,53.06 40.05,48.83C39.5,44.35 43.31,40.69 47.4,39.71Z" style="fill:#40be46;fill-rule:nonzero;"/>
    </g>
    <g transform="matrix(0.509593,0,0,0.509593,-2.98727,-2.91357)">
        <path d="M133.42,40.44C136.06,38.15 139.83,39.92 141.65,42.36C146.02,48.12 149.17,54.72 153.64,60.43C161.76,71.6 172.08,82.79 186.12,85.86C200.69,88.9 214.5,81.68 228.56,79.17C242.47,75.95 256.78,79.16 270.81,77.41C276.5,76.75 281.99,74.01 285.65,69.56C290.77,63.41 292.95,55.47 294.5,47.78C295.11,44.97 295.89,41.43 299.07,40.53C302.95,41.09 303.34,45.77 303.78,48.86C304.91,60.45 306.62,72.34 312.3,82.68C314.86,87.15 318.42,91.59 323.46,93.29C332.35,95.83 342.22,94.77 350.3,90.21C353.96,88.55 356.38,85.01 360.05,83.41C363.49,87.28 363.13,92.9 364.67,97.61C365.56,102.69 369.22,108.4 375.03,108.01C383.17,107.42 389.85,101.95 396.1,97.21C408.86,87.71 420.95,76.5 428.11,62.05C431.1,55.74 435.89,49.38 443.11,47.89C449.83,46.57 457.15,53.63 454.45,60.41C451.45,67.35 443.79,70.04 437.82,73.78C430.5,77.84 423.88,83.07 417.95,88.96C411.27,95.63 405.57,103.2 399.15,110.11C393.9,115.73 387.54,120.19 380.78,123.8C374.59,127.41 367.34,131.09 360,129.1C351.76,126.81 344.39,122.24 336.21,119.76C326.09,116.4 315.64,113.84 304.99,112.91C295.08,112.52 287.2,119.23 279.5,124.47C274.73,127.85 268.46,129.43 262.95,126.89C245.6,120.06 226.71,114.71 207.95,118.01C195.03,119.94 183.33,126.46 173.17,134.44C163.3,128.61 157.17,118.43 151.17,109C160.5,99.16 157.89,83.51 151.05,73.03C146.78,66.1 137.61,65.44 132.28,59.7C127.08,54.56 128,45.06 133.42,40.44Z" style="fill:#40be46;fill-rule:nonzero;"/>
    </g>
    <g transform="matrix(0.509593,0,0,0.509593,-2.98727,-2.91357)">
        <path d="M99.44,57.45C105.73,54.92 111.24,62.54 109.32,68.2C105.72,73.09 96.7,71.51 94.77,65.74C93.35,62.24 96.22,58.6 99.44,57.45Z" style="fill:#40be46;fill-rule:nonzero;"/>
    </g>
    <g transform="matrix(0.509593,0,0,0.509593,-2.98727,-2.91357)">
        <path d="M459.62,81.72C466.35,78.74 473.72,88.37 469.18,94.11C465.42,99.36 456.76,96.99 454.42,91.59C453.47,87.7 455.98,83.26 459.62,81.72Z" style="fill:#40be46;fill-rule:nonzero;"/>
    </g>
    <g transform="matrix(0.509593,0,0,0.509593,-2.98727,-2.91357)">
        <path d="M85.24,153.26C94.92,148.3 105.36,145.11 115.82,142.3C101.8,150.48 88.12,160.49 79.63,174.64C74.24,183.7 71.77,194.71 74.03,205.12C75.11,210.65 77.56,215.77 80.34,220.63C71.16,215.2 62.05,208.33 57.56,198.35C54.15,190.94 54.8,181.96 59.06,175.03C65.18,165.18 75.01,158.32 85.24,153.26Z" style="fill:#40be46;fill-rule:nonzero;"/>
    </g>
    <g transform="matrix(0.509593,0,0,0.509593,-2.98727,-2.91357)">
        <path d="M421.83,162.76C432.27,168.51 442.82,175.3 449.22,185.65C453.39,192.18 454.59,200.57 451.83,207.88C448.4,217.25 440.68,224.2 432.69,229.77C415.02,241.56 394.52,248.18 374.08,253.34C330.59,263.62 285.49,265.95 240.99,263.1C217.94,261.45 194.96,258.25 172.53,252.61C152.97,247.5 133.39,240.93 116.51,229.54C107.59,223.26 98.71,214.99 96.64,203.8C94.83,195.48 98.41,187.03 103.77,180.77C107.7,175.81 113.07,172.36 117.95,168.45C114.59,175.11 113.58,183.2 116.76,190.14C121.53,201.09 131.69,208.41 141.73,214.2C158.59,223.5 177.24,229.02 195.99,233.07C227.19,239.51 259.23,241.43 291.02,240.03C325.73,238.18 360.91,232.98 392.9,218.79C406.06,212.48 419.99,204.5 426.61,190.86C431.26,181.53 428.32,170.4 421.83,162.76Z" style="fill:#40be46;fill-rule:nonzero;"/>
    </g>
    <g transform="matrix(0.509593,0,0,0.509593,-2.98727,-2.91357)">
        <path d="M474.31,184.8C483.67,191.84 492.43,200.98 495.1,212.74C497.8,223.9 493.43,235.63 486.05,244.04C474.98,256.71 459.51,264.5 443.9,270.08C414,280.35 381.76,282.58 350.45,279.33C376.83,274.41 403.05,267.23 427.06,255.04C443.1,246.78 458.82,236.22 468.77,220.82C475.69,210.33 478.1,196.89 474.31,184.8Z" style="fill:#40be46;fill-rule:nonzero;"/>
    </g>
    <g transform="matrix(0.509593,0,0,0.509593,256.292,-123.046)">
        <path d="M73.32,278.86C83.49,278.85 93.67,278.85 103.84,278.85L103.84,369.01C103.79,386.01 104.04,403.01 103.47,420C103.5,430.79 101.09,441.92 94.82,450.86C87.99,460.72 77.82,467.85 66.85,472.45C62.21,467.01 57.55,461.59 52.9,456.15C62.35,449.53 71.55,440.21 72.5,428.09C73.6,412.41 73.26,396.69 73.32,380.98C73.32,346.94 73.31,312.9 73.32,278.86Z" style="fill:#40be46;fill-rule:nonzero;"/>
        <path d="M120.32,278.34C125.08,278.61 129.69,279.87 134.33,280.86C155.89,285.5 177.77,288.5 199.74,290.38C199.13,294.94 198.51,299.5 197.89,304.06C182.06,304.06 166.22,304.06 150.39,304.07L150.39,340.06C163.08,340.06 175.76,340.05 188.45,340.06C188.45,348.65 188.44,357.25 188.45,365.84C175.77,365.85 163.08,365.84 150.39,365.84L150.39,435.33L120.29,435.33C120.31,383 120.25,330.67 120.32,278.34Z" style="fill:#40be46;fill-rule:nonzero;"/>
        <path d="M446.08,322.6C453.7,321.91 460.58,317.91 466.2,312.91C470.21,319.32 474.23,325.73 478.24,332.15C474.61,335.35 470.63,338.42 465.85,339.63C460.87,341.13 455.61,340.63 450.53,340.04C455.31,346.27 457.68,354.27 456.66,362.09C455.82,374.15 447.2,384.67 436.25,389.3C428.73,392.86 420.29,393.46 412.09,393.44C408,395.11 403.49,397.28 401.1,401.17C399.49,403.6 402.29,405.33 404.49,405.28C417.06,406.17 430.1,404.62 442.24,408.78C451.71,412.16 459.65,420.1 462.16,429.95C464.95,440.89 463.71,453.46 456.52,462.51C449.41,472.09 437.6,476.72 426.16,478.53C414.79,479.98 403.14,480.1 391.87,477.76C382.34,476.15 372.9,471.75 366.85,464.01C360.24,456.02 358.82,444.25 363.17,434.87C372.02,434.88 380.87,434.88 389.73,434.86C388.24,440.2 387.72,446.76 391.83,451.1C396.49,455.88 403.64,456.57 409.97,456.57C417.06,456.44 425.14,455.82 430.3,450.32C434.62,446.07 435.63,438.9 432.31,433.78C430.37,430.43 426.39,429.3 422.88,428.42C407.33,425.47 390.89,428.79 375.75,423.35C366.95,419.64 365.38,407.85 368.93,399.94C372.8,393.49 380.41,390.78 387.25,388.71C380.25,386.68 373.36,383.06 369.18,376.9C363.25,368.16 362.72,356.81 364.91,346.76C367.34,336.22 375.02,327.33 384.76,322.79C397.95,316.64 413.36,316.16 427.32,319.8C433.5,321.06 439.66,323.42 446.08,322.6M403.32,340.56C392.22,343.64 389.95,358.72 395.59,367.42C400.85,374.27 411.13,374.41 418.61,371.64C427.97,367.84 429.27,355.06 424.89,347.06C420.66,339.75 410.82,338.4 403.32,340.56Z" style="fill:#40be46;fill-rule:nonzero;"/>
        <path d="M197.7,323.98C206.3,321.56 214.89,319.15 223.49,316.74C226.02,321.94 227.4,327.55 227.98,333.29C234.03,325.72 241.64,317.38 252.01,316.88C256.34,316.44 260.61,317.51 264.56,319.21C261.92,328.09 259.24,336.97 256.64,345.86C252.69,343.99 248.19,343.12 243.9,344.27C238.47,345.5 234.18,349.33 230.58,353.38C230.59,380.7 230.58,408.01 230.58,435.33L201.77,435.33C201.77,411.23 201.77,387.13 201.78,363.03C201.71,349.94 201.57,336.6 197.7,323.98Z" style="fill:#40be46;fill-rule:nonzero;"/>
        <path d="M300.48,317.84C313.27,315.95 327.18,318.35 337.51,326.48C347.12,334.09 354.18,345.13 356.38,357.25C358.63,367 358.66,377.13 357.89,387.06C357.11,401.42 351.52,415.93 340.73,425.73C331.86,434.99 318.46,438.34 305.98,437.72C293.91,437.36 281.96,432.18 273.91,423.11C265.14,413.57 261.05,400.74 259.63,388.09C258.05,371.6 259.88,354.03 268.54,339.6C275.32,328.12 287.21,319.72 300.48,317.84M303.53,340.69C295.11,343.99 292.72,353.76 291.85,361.85C290.81,376.11 290.09,390.83 294.1,404.72C296.6,413.69 307.92,418.54 316.13,414.18C322.01,410.93 324.2,403.95 325.43,397.76C327.42,386.59 327.36,375.14 326.47,363.87C325.76,357.42 324.76,350.62 320.83,345.26C316.9,340.11 309.48,338.4 303.53,340.69Z" style="fill:#40be46;fill-rule:nonzero;"/>
    </g>
</svg>
