<?xml version="1.0" encoding="UTF-8" standalone="no"?>
<!DOCTYPE svg PUBLIC "-//W3C//DTD SVG 1.1//EN" "http://www.w3.org/Graphics/SVG/1.1/DTD/svg11.dtd">
<svg width="100%" height="100%" viewBox="0 0 983 287" version="1.1" xmlns="http://www.w3.org/2000/svg" xmlns:xlink="http://www.w3.org/1999/xlink" xml:space="preserve" xmlns:serif="http://www.serif.com/" style="fill-rule:evenodd;clip-rule:evenodd;stroke-linejoin:round;stroke-miterlimit:2;">
    <g transform="matrix(1,0,0,1,-20.82,-113.51)">
        <path d="M880.26,120.49C890.74,116.09 902.1,114.35 913.37,113.55C913.37,116.62 913.39,119.7 913.37,122.78C909.51,123.84 905.42,125.79 903.94,129.8C902.73,133.6 902.93,138.23 905.64,141.38C907.6,143.71 910.67,144.54 913.38,145.7C913.38,148.44 913.47,151.18 913.39,153.92C913.72,157.62 908.53,157.95 907.59,161.08C907.06,163.61 906.97,166.33 907.82,168.8C909.21,170.78 911.38,171.97 913.37,173.26C913.43,179.62 913.36,185.99 913.42,192.35C909.61,193.97 905.5,195.49 902.92,198.92C897.86,205.11 898.57,215.13 904.46,220.54C906.94,222.92 910.27,224 913.42,225.19C913.37,229.6 913.37,234.02 913.42,238.43C910.52,240.45 906.93,242.95 907.41,247.01C906.78,251.17 910.56,253.71 913.4,255.95C913.38,264.22 913.42,272.48 913.37,280.75C898.38,281.09 883.63,276.6 870.42,269.76C870.37,264.93 870.41,260.11 870.36,255.28C873.99,253.48 878.44,250.75 877.78,246C878.15,241.45 873.92,238.93 870.33,237.37C870.46,229.66 870.34,221.94 870.41,214.22C873.15,212.93 876.25,211.69 877.82,208.91C880.58,204.62 879.99,198.32 876.03,194.97C873.84,193.06 870.07,192.32 870,188.84C873.4,187.33 877.2,185.11 877.45,180.93C878.24,176.22 874.37,172.76 870.4,171.2C870.35,164.26 870.43,157.31 870.35,150.37C874.11,149.58 878.06,148.67 881.02,146.04C886.33,141.58 887.75,133.48 884.98,127.24C883.82,124.72 881.9,122.68 880.26,120.49Z" style="fill:rgb(237,27,36);fill-rule:nonzero;"/>
    </g>
    <g transform="matrix(1,0,0,1,-20.82,-113.51)">
        <path d="M917.45,113.51C931.61,114.2 945.95,116.83 958.65,123.35C958.52,126.82 958.98,130.34 958.35,133.77C955.41,136.32 951.66,139.5 952.86,143.89C953.2,147.41 956.69,148.93 958.53,151.49C958.8,153.8 958.62,156.13 958.66,158.45C955.47,160.22 952.01,162.9 952.39,167C952.05,171.12 955.52,173.82 958.69,175.66C958.63,178.72 958.63,181.78 958.6,184.84C955.96,185.94 953.05,186.89 951.19,189.2C947.89,193.02 947.68,199.11 950.92,203.03C952.81,205.55 955.88,206.6 958.65,207.82C958.59,218.18 958.72,228.54 958.58,238.9C953.12,240.37 947.66,243.65 945.98,249.39C944.76,254.45 944.78,260.37 948.06,264.7C950.53,268.34 954.83,269.92 958.83,271.24C946.14,278.1 931.72,280.45 917.51,281.48C917.31,273.68 917.4,265.87 917.39,258.06C916.97,255.21 920.46,254.74 922.04,253.13C925,251.06 925.08,246.94 924.16,243.79C923.01,240.88 919.95,239.66 917.36,238.39C917.41,234.02 917.4,229.65 917.38,225.29C921.08,224.4 925.05,223.65 927.98,221.02C934.63,215.38 935.33,204.09 929.11,197.87C926.14,194.45 921.58,193.38 917.38,192.34C917.4,186.06 917.42,179.78 917.36,173.5C921.35,171.64 925.34,167.94 924.26,163.08C923.86,159.19 919.87,157.88 917.48,155.48C917.23,152.16 917.43,148.83 917.4,145.5C922.24,143.7 926.76,139.61 926.42,134.01C926.6,128.53 922.22,124.58 917.41,122.91C917.39,119.77 917.39,116.64 917.45,113.51Z" style="fill:rgb(237,27,36);fill-rule:nonzero;"/>
    </g>
    <g transform="matrix(1,0,0,1,-20.82,-113.51)">
        <path d="M962.66,125.62C979.46,134.42 992.45,150.1 998.4,168.08C1004.46,186.81 1004.51,207.51 998.53,226.27C994.81,238.33 987.56,248.97 978.71,257.86C978.71,253.75 978.66,249.32 976.07,245.89C973.14,241.25 967.63,239.55 962.56,238.47C962.64,228.24 962.57,218.01 962.6,207.77C966.22,206.06 970.59,204.1 971.46,199.72C971.82,196.48 972.25,192.67 970.08,189.94C968.22,187.38 965.25,186.08 962.55,184.64C962.59,181.71 962.6,178.78 962.61,175.86C966.15,174.24 970.39,171.53 969.7,167C970.45,162.43 966.09,159.84 962.61,158.11C962.6,155.9 962.58,153.69 962.54,151.48C966.12,149.81 970.3,147.4 970.43,142.92C970.89,138.07 966.41,135.09 962.57,133.31C962.59,130.75 962.6,128.18 962.66,125.62Z" style="fill:rgb(237,27,36);fill-rule:nonzero;"/>
    </g>
    <g transform="matrix(1,0,0,1,-20.82,-113.51)">
        <path d="M831.32,178.66C834.12,163.31 841.72,148.82 852.95,137.96C854.17,140.62 855.31,143.46 857.49,145.52C859.96,147.96 863.35,149.01 866.47,150.36C866.27,157.05 866.66,163.76 866.31,170.45C864.22,173.43 860.01,175.17 859.69,179.3C859.23,183.86 863.53,186.44 866.36,189.18C866.4,189.64 866.47,190.55 866.51,191.01C863.58,192.85 859.84,193.8 857.93,196.92C855.2,201.27 855.74,207.8 859.79,211.19C861.72,212.81 864.15,213.59 866.45,214.55C866.42,222.23 866.39,229.91 866.46,237.59C863.58,239.56 860.03,242.01 860.39,246C859.6,250.43 864.05,252.52 866.33,255.48C866.62,259.37 866.37,263.28 866.33,267.18C850.16,257.63 838.28,241.52 833.08,223.56C829.02,209 828.39,193.49 831.32,178.66Z" style="fill:rgb(237,27,36);fill-rule:nonzero;"/>
    </g>
    <g transform="matrix(1,0,0,1,-20.82,-113.51)">
        <path d="M246.11,170.09C248.02,168.55 250.12,167.27 252.36,166.26C252.58,166.95 253.04,168.34 253.26,169.03C252.15,177.79 251.65,186.61 250.51,195.37C261.38,195.42 272.24,195.38 283.11,195.39C282.6,199.83 282.04,204.27 281.39,208.69C270.71,208.66 260.03,208.72 249.35,208.66C245.69,238.67 242.73,268.78 239.62,298.84C239.57,304.87 237.75,310.93 239.05,316.92C239.91,320.84 242.96,324.1 246.75,325.36C254.05,327.96 261.92,327 269.52,327.21C269.41,328.2 269.3,329.19 269.2,330.19C254.18,336.96 237.69,342.08 221.04,339.97C214.25,339.14 207.22,336.67 202.87,331.11C198.43,325.51 197.38,317.94 197.86,311.01C200.47,285.99 202.85,260.96 205.42,235.95C206.17,226.84 207.53,217.79 208,208.67C203.56,208.69 199.13,208.71 194.7,208.63C194.86,207.89 195.19,206.4 195.35,205.66C205.03,199.65 215.18,194.27 224.02,187.01C231.39,181.38 238.79,175.79 246.11,170.09Z" style="fill-rule:nonzero;"/>
    </g>
    <g transform="matrix(1,0,0,1,-20.82,-113.51)">
        <path d="M310.05,206.05C318.97,198.49 330.44,194.51 341.96,193.29C348.91,192.1 356,192.78 363.02,192.62C375.64,193.33 388.33,194.56 400.54,198.07C395.4,208.17 390.66,218.49 385.3,228.46C382.25,227.11 380.29,224.3 377.79,222.21C371.87,216.88 364.89,212.28 356.9,210.94C351.17,210.04 344.88,210.62 339.98,213.93C334.6,217.61 331.84,225.26 334.79,231.29C337.34,236.64 342.86,239.54 347.8,242.32C359,247.72 370.99,252.2 380.42,260.57C388.17,267.41 393.08,277.58 392.74,288C393.73,303.16 386.09,318.02 374.36,327.36C362.91,336.21 348.24,339.76 334,340.37C317.93,340.61 301.78,338.72 286.24,334.62C286.26,324.12 285.19,313.63 285.68,303.15C290.87,305.82 295.24,309.8 300.33,312.66C311.67,319.54 325.42,324.26 338.74,321.27C344.47,320.17 349.98,316.8 352.62,311.46C354.35,307.75 355.33,303.23 353.51,299.36C350.89,293.26 344.72,289.94 339.27,286.74C328.94,281.21 317.93,276.7 308.77,269.22C300.73,262.92 294.94,253.33 294.3,243.02C293.24,229.12 299.52,215.05 310.05,206.05Z" style="fill-rule:nonzero;"/>
    </g>
    <g transform="matrix(1,0,0,1,-20.82,-113.51)">
        <path d="M745.04,199.05C756.79,192.31 771.33,190.87 784.32,194.55C792.88,196.85 800.23,203.29 803.44,211.57C806.72,219.28 805.68,227.83 805.6,235.97C802.91,260.88 800.18,285.81 797.52,310.73C797.38,314.98 795.85,319.38 797.69,323.48C799.95,328.58 804.99,331.63 809.67,334.27C809.68,335.07 809.71,336.69 809.73,337.5C791.29,337.51 772.85,337.55 754.4,337.48C757.68,306.64 760.76,275.79 764.33,244.98C764.96,240.07 764.77,234.52 761.37,230.6C758.03,226.9 752.77,225.94 748.02,225.74C737.34,225.74 726.7,228.93 717.68,234.61C716.44,235.26 716.79,236.89 716.55,238.03C713.21,271.18 709.13,304.27 706.25,337.45C692.59,337.59 678.93,337.48 665.27,337.51C669.14,299.33 673.12,261.17 677.33,223.01C677.96,217.42 677.6,211.39 674.45,206.55C672.25,203.03 668.8,200.58 665.29,198.51C665.34,197.47 665.4,196.44 665.47,195.41C683.93,195.38 702.39,195.42 720.85,195.39C720.48,205 718.58,214.48 718.31,224.1C727.35,215.89 735.83,207.07 745.04,199.05Z" style="fill-rule:nonzero;"/>
    </g>
    <g transform="matrix(1,0,0,1,-20.82,-113.51)">
        <path d="M42.18,195.41C60.71,195.39 79.23,195.38 97.76,195.42C92.72,240.41 88.28,285.43 83.21,330.41C81.94,340.92 80.61,351.51 77.44,361.66C74.76,370.18 69.51,377.99 62.14,383.12C50.18,391.71 35.78,395.63 21.93,400.04C21.56,399 21.19,397.96 20.82,396.93C25.42,392.82 30.19,388.6 32.94,382.95C36.92,374.86 38.04,365.79 39.36,356.98C44.62,311.36 49.37,265.66 54.18,220C54.67,214.06 53.02,207.61 48.65,203.36C46.57,201.25 44.03,199.68 41.56,198.07C41.71,197.41 42.02,196.08 42.18,195.41Z" style="fill-rule:nonzero;"/>
    </g>
    <g transform="matrix(1,0,0,1,-20.82,-113.51)">
        <path d="M121.34,195.44C139.8,195.33 158.26,195.42 176.72,195.4C173.97,224.82 170.44,254.19 167.45,283.59C166.39,295.41 164.58,307.18 164.18,319.05C163.81,326.59 171.12,330.91 176.76,334.28C176.73,335.35 176.71,336.43 176.69,337.51C158.17,337.5 139.64,337.54 121.12,337.49C125.31,299.67 128.93,261.82 133.13,223.99C133.74,218.77 133.91,213.2 131.52,208.37C129.39,203.92 125.38,200.77 121.21,198.34C121.25,197.37 121.3,196.41 121.34,195.44Z" style="fill-rule:nonzero;"/>
    </g>
    <g transform="matrix(1,0,0,1,-20.82,-113.51)">
        <path d="M417.3,195.42C435.82,195.38 454.34,195.39 472.86,195.41C469.6,223.65 466.54,251.89 463.52,280.15C463.29,287.45 460.63,295.98 465.71,302.27C469.86,307.38 477.02,307.01 482.97,306.81C492.8,306.8 502.14,302.91 510.38,297.82C512.78,274.64 515.21,251.47 517.49,228.29C517.82,222.71 519.44,217 517.68,211.5C516.21,205.59 511.35,201.37 506.29,198.4C506.31,197.4 506.33,196.41 506.36,195.42C524.83,195.36 543.31,195.42 561.79,195.39C557.55,232.74 553.92,270.12 549.71,307.47C549.37,312.51 547.84,317.73 549.36,322.71C551.49,328.09 556.76,331.12 561.35,334.16C561.47,334.97 561.69,336.6 561.8,337.41C543.69,337.62 525.56,337.49 507.45,337.48C508.16,327.89 508.51,318.28 509.22,308.69C499.9,316.89 491.25,325.83 481.84,333.91C469.58,340.85 454.36,342.36 440.98,337.93C434.11,335.63 427.99,330.84 424.65,324.35C420.38,316.3 419.98,306.82 421.12,297.95C423.18,276.6 425.77,255.3 427.89,233.95C428.8,227.34 429.07,220.63 428.77,213.96C428.53,206.96 422.88,201.76 417.23,198.46C417.25,197.44 417.27,196.43 417.3,195.42Z" style="fill-rule:nonzero;"/>
    </g>
    <g transform="matrix(1,0,0,1,-20.82,-113.51)">
        <path d="M585.9,195.41C604.24,195.38 622.58,195.39 640.92,195.41C640.73,204.83 639.2,214.16 638.34,223.54C634.92,254.7 631.71,285.87 628.53,317.03C628.33,319.95 628.61,323.07 630.48,325.46C633.24,329.61 637.81,331.86 641.64,334.82C641.47,335.47 641.12,336.77 640.94,337.42C622.48,337.63 604,337.47 585.53,337.49C589.82,299.67 593.53,261.8 597.58,223.96C598.02,218.42 598.43,212.45 595.56,207.45C593.38,203.3 589.4,200.57 585.53,198.16C585.62,197.47 585.81,196.1 585.9,195.41Z" style="fill-rule:nonzero;"/>
    </g>
</svg>
