<?xml version="1.0" encoding="UTF-8" standalone="no"?>
<!DOCTYPE svg PUBLIC "-//W3C//DTD SVG 1.1//EN" "http://www.w3.org/Graphics/SVG/1.1/DTD/svg11.dtd">
<svg width="100%" height="100%" viewBox="0 0 770 187" version="1.1" xmlns="http://www.w3.org/2000/svg" xmlns:xlink="http://www.w3.org/1999/xlink" xml:space="preserve" xmlns:serif="http://www.serif.com/" style="fill-rule:evenodd;clip-rule:evenodd;stroke-linejoin:round;stroke-miterlimit:2;">
    <g transform="matrix(1,0,0,1,-35.8701,-3.39586)">
        <g transform="matrix(1,0,0,1,36.0192,39.3999)">
            <g id="logo">
                <g>
                    <clipPath id="_clip1">
                        <path d="M95.34,89.31C76.053,111.885 41.608,114.593 19.03,95.31C16.861,93.47 14.838,91.464 12.98,89.31L95.34,89.31ZM101.08,81.19L7.24,81.19C4.548,76.54 2.572,71.51 1.38,66.27L18.1,66.27C23.3,66.27 28.65,66.14 33.97,64.73C42.49,62.47 49.65,57.79 56.58,53.27L56.74,53.17C58.272,52.058 59.956,51.173 61.74,50.54C64.293,49.89 66.927,49.61 69.56,49.71L108.12,49.71C108.23,51.16 108.31,52.62 108.31,54.1C108.332,63.609 105.837,72.956 101.08,81.19ZM89,66C89,60.788 84.712,56.5 79.5,56.5C74.288,56.5 70,60.788 70,66C70,71.212 74.288,75.5 79.5,75.5C84.712,75.5 89,71.212 89,66ZM95.34,19C85.062,6.959 70.001,0.014 54.17,0.014C38.339,0.014 23.278,6.959 13,19L95.34,19ZM0,54.15C0,55.5 0.07,56.83 0.16,58.15L16.36,58.2C21.58,58.2 27,58.2 31.89,56.93C39.14,55.01 45.46,50.93 52.15,46.52L52.3,46.42C54.504,44.861 56.927,43.638 59.49,42.79C62.787,41.939 66.186,41.552 69.59,41.64L106.85,41.64C105.648,36.54 103.704,31.645 101.08,27.11L7.24,27.11C2.488,35.328 -0.01,44.657 -0,54.15Z"/>
                    </clipPath>
                    <g clip-path="url(#_clip1)">
                        <g transform="matrix(0.707107,-0.707107,0.707107,0.707107,-15.9601,59.7099)">
                            <rect x="-4.23" y="-19.87" width="119.72" height="144.73" style="fill:url(#_Linear2);fill-rule:nonzero;"/>
                        </g>
                    </g>
                </g>
            </g>
        </g>
        <path d="M235.63,109.63C235.69,112.78 235.189,115.916 234.15,118.89C233.381,121.169 232.038,123.211 230.25,124.82C228.768,126.099 227.076,127.114 225.25,127.82C223.573,128.461 221.795,128.8 220,128.82C217.976,128.82 215.975,128.39 214.13,127.56C212.179,126.652 210.43,125.359 208.99,123.76C207.239,121.76 205.961,119.391 205.25,116.83C204.273,113.513 203.808,110.067 203.87,106.61L203.87,106L190.24,109.26L190.24,109.65C190.24,118.91 192.9,126.51 198.17,132.25C203.44,137.99 210.79,140.92 220.02,140.92C229.25,140.92 236.7,138 241.87,132.35C247.04,126.7 249.71,118.7 249.71,108.59L249.71,50L235.63,50L235.63,109.63ZM303.96,108.83C303.997,111.838 303.433,114.823 302.3,117.61C301.352,119.998 299.891,122.149 298.02,123.91C296.322,125.449 294.37,126.68 292.25,127.55C290.272,128.361 288.158,128.789 286.02,128.81C282.392,128.954 278.864,127.571 276.3,125C273.83,122.46 272.58,118.14 272.58,112.18L272.58,76.28L259.51,76.28L259.51,113.15C259.51,122.44 261.69,129.47 265.99,134.02C270.29,138.57 276.44,140.9 284.23,140.9C292.23,140.9 298.89,137.44 303.96,130.62L303.96,139.91L317.04,139.91L317.04,76.28L303.96,76.28L303.96,108.83ZM359.75,75.29C355.562,75.269 351.435,76.301 347.75,78.29C344.651,79.903 341.956,82.197 339.87,85L339.87,76.28L326.76,76.28L326.76,168.21L339.87,168.21L339.87,131C341.893,133.858 344.553,136.207 347.64,137.86C351.35,139.859 355.505,140.891 359.72,140.86C367.567,140.928 375.044,137.467 380.07,131.44C385.55,125.21 388.33,117.34 388.33,108.05C388.33,98.76 385.58,91 380.1,84.71C375.074,78.683 367.597,75.222 359.75,75.29ZM375.28,108.09C375.417,113.428 373.643,118.643 370.28,122.79C367.22,126.657 362.521,128.879 357.59,128.79C352.79,128.79 348.59,126.73 345.14,122.67C341.664,118.617 339.789,113.429 339.87,108.09C339.773,102.751 341.638,97.557 345.11,93.5C348.57,89.44 352.76,87.38 357.56,87.38C362.491,87.291 367.19,89.513 370.25,93.38C373.628,97.525 375.413,102.745 375.28,108.09ZM519.26,86.24C517.373,83.813 515.091,81.72 512.51,80.05C510.014,78.428 507.281,77.204 504.41,76.42C501.573,75.66 498.647,75.28 495.71,75.29C486.37,75.29 478.71,78.39 472.82,84.51C466.93,90.63 464.02,98.51 464.02,108.09C463.943,113.806 465.218,119.46 467.74,124.59C470.242,129.524 474.105,133.64 478.87,136.45C484.058,139.48 489.983,141.02 495.99,140.9C499.155,140.918 502.307,140.483 505.35,139.61C507.959,138.879 510.45,137.782 512.75,136.35C514.801,135.006 516.679,133.414 518.34,131.61C519.858,129.983 521.199,128.2 522.34,126.29C523.341,124.565 524.216,122.77 524.96,120.92L525.17,120.39L512.68,117.12L512.51,117.51C511.111,120.728 508.915,123.536 506.13,125.67C503.263,127.794 499.767,128.9 496.2,128.81C490.72,128.81 486.2,127.17 482.79,123.95C479.492,120.833 477.44,116.619 477.02,112.1L525.17,112.1L525.23,111.69C525.476,110.213 525.603,108.718 525.61,107.22C525.629,103.182 525.042,99.164 523.87,95.3C522.871,92.035 521.311,88.969 519.26,86.24ZM477.79,101.06C480.18,91.66 486.41,86.89 496.33,86.89C500.397,86.75 504.356,88.233 507.33,91.01C510.093,93.649 511.807,97.204 512.15,101.01L477.79,101.06ZM658.65,62.47C654.744,58.252 649.994,54.903 644.71,52.64C633.199,47.822 620.221,47.822 608.71,52.64C603.455,54.903 598.737,58.253 594.87,62.47C591.028,66.74 588.031,71.702 586.04,77.09C581.818,88.626 581.818,101.294 586.04,112.83C588.034,118.217 591.03,123.178 594.87,127.45C598.761,131.671 603.502,135.021 608.78,137.28C620.289,142.108 633.271,142.108 644.78,137.28C650.06,135.01 654.808,131.661 658.72,127.45C662.575,123.184 665.582,118.222 667.58,112.83C671.802,101.294 671.802,88.626 667.58,77.09C665.561,71.693 662.53,66.73 658.65,62.47ZM626.72,128.81C621.236,128.873 615.855,127.299 611.27,124.29C606.692,121.262 603.032,117.034 600.69,112.07C598.165,106.737 596.883,100.9 596.94,95C596.868,89.085 598.151,83.232 600.69,77.89C603.026,72.911 606.687,68.669 611.27,65.63C620.685,59.62 632.785,59.62 642.2,65.63C646.789,68.654 650.46,72.882 652.81,77.85C655.351,83.206 656.634,89.072 656.56,95C656.63,100.914 655.347,106.767 652.81,112.11C650.461,117.071 646.789,121.289 642.2,124.3C637.601,127.304 632.212,128.874 626.72,128.81ZM712.87,75.29C710.153,75.282 707.453,75.707 704.87,76.55C702.542,77.281 700.349,78.389 698.38,79.83C696.861,80.948 695.43,82.182 694.1,83.52C693.42,84.23 692.79,84.93 692.24,85.63L692.24,76.28L679.06,76.28L679.06,139.91L692.2,139.91L692.2,107.35C692.165,104.345 692.733,101.362 693.87,98.58C694.806,96.186 696.269,94.032 698.15,92.28C699.83,90.742 701.766,89.511 703.87,88.64C705.845,87.819 707.961,87.391 710.1,87.38C713.755,87.21 717.314,88.612 719.87,91.23C722.31,93.8 723.55,98.12 723.55,104.09L723.55,139.91L736.69,139.91L736.69,103C736.65,84.63 728.67,75.29 712.87,75.29ZM805.49,111.69C805.736,110.213 805.863,108.718 805.87,107.22C805.88,103.18 805.28,99.161 804.09,95.3C803.11,92.033 801.559,88.966 799.51,86.24C797.623,83.813 795.341,81.72 792.76,80.05C790.264,78.428 787.531,77.204 784.66,76.42C781.823,75.66 778.897,75.28 775.96,75.29C766.62,75.29 758.96,78.39 753.07,84.51C747.18,90.63 744.27,98.51 744.27,108.09C744.193,113.806 745.468,119.46 747.99,124.59C750.484,129.52 754.336,133.635 759.09,136.45C764.278,139.48 770.203,141.02 776.21,140.9C779.375,140.918 782.527,140.483 785.57,139.61C788.179,138.879 790.67,137.782 792.97,136.35C795.021,135.006 796.899,133.414 798.56,131.61C800.078,129.983 801.419,128.2 802.56,126.29C803.561,124.565 804.436,122.77 805.18,120.92L805.39,120.39L792.87,117.12L792.7,117.51C791.301,120.728 789.105,123.536 786.32,125.67C783.453,127.794 779.957,128.9 776.39,128.81C770.91,128.81 766.39,127.17 762.98,123.95C759.682,120.833 757.63,116.619 757.21,112.1L805.36,112.1L805.49,111.69ZM758.04,101.06C760.43,91.66 766.66,86.89 776.58,86.89C780.647,86.75 784.606,88.233 787.58,91.01C790.343,93.649 792.057,97.204 792.4,101.01L758.04,101.06ZM407.97,80.43C404.291,81.51 400.379,81.51 396.7,80.43L395.81,80.11L395.81,140.36L408.81,140.36L408.81,80.18L407.97,80.43ZM402.45,53.39C400.103,53.306 397.826,54.214 396.18,55.89C394.568,57.544 393.691,59.781 393.75,62.09C393.691,64.406 394.563,66.651 396.17,68.32C399.643,71.703 405.257,71.703 408.73,68.32C410.342,66.654 411.218,64.408 411.16,62.09C411.219,59.781 410.342,57.544 408.73,55.89C407.08,54.215 404.8,53.307 402.45,53.39ZM441.87,58.41L430.09,58.41L430.09,58.66C430.09,76.14 418.29,79.4 416.92,79.72L416.55,79.81L416.55,88.61L428.23,88.61L428.23,118.07C428.168,121.448 428.603,124.818 429.52,128.07C430.19,130.532 431.331,132.842 432.88,134.87C434.29,136.569 436.041,137.952 438.02,138.93C439.931,139.898 441.978,140.572 444.09,140.93C449.375,141.731 454.762,141.548 459.98,140.39L460.37,140.3L460.37,127.69L460.05,127.79C459.96,127.79 450.39,130.58 445.2,126.7C443,125.05 441.88,122.42 441.88,118.86L441.88,88.61L460.37,88.61L460.37,76.9L441.87,76.9L441.87,58.41ZM563.87,76.29C559.782,77.037 555.931,78.752 552.64,81.29C550.214,83.065 548.238,85.384 546.87,88.06L546.87,76.28L533.71,76.28L533.71,139.91L546.87,139.91L546.87,108C546.838,105.26 547.352,102.54 548.38,100C549.288,97.71 550.707,95.657 552.53,94C554.327,92.409 556.397,91.155 558.64,90.3C560.808,89.478 563.112,89.071 565.43,89.1L566.09,89.1C568.883,89.201 571.642,89.751 574.26,90.73L574.81,90.93L574.89,90.54C575.211,85.86 576.098,81.237 577.53,76.77L577.61,76.53L576.81,76.28C572.537,75.448 568.142,75.452 563.87,76.29Z" style="fill-rule:nonzero;"/>
    </g>
    <defs>
        <linearGradient id="_Linear2" x1="0" y1="0" x2="1" y2="0" gradientUnits="userSpaceOnUse" gradientTransform="matrix(119.918,0,0,119.918,-3.764,52.49)"><stop offset="0" style="stop-color:#5900e9;stop-opacity:1"/><stop offset="0.02" style="stop-color:#5900e9;stop-opacity:1"/><stop offset="0.24" style="stop-color:#6647ff;stop-opacity:1"/><stop offset="0.73" style="stop-color:#00dab5;stop-opacity:1"/><stop offset="0.78" style="stop-color:#3ce3b5;stop-opacity:1"/><stop offset="0.85" style="stop-color:#8eefb5;stop-opacity:1"/><stop offset="0.92" style="stop-color:#cbf7b5;stop-opacity:1"/><stop offset="0.96" style="stop-color:#f1fdb5;stop-opacity:1"/><stop offset="0.99" style="stop-color:#ffffb5;stop-opacity:1"/><stop offset="1" style="stop-color:#ffffb5;stop-opacity:1"/></linearGradient>
    </defs>
</svg>
