<?xml version="1.0" encoding="UTF-8" standalone="no"?>
<!DOCTYPE svg PUBLIC "-//W3C//DTD SVG 1.1//EN" "http://www.w3.org/Graphics/SVG/1.1/DTD/svg11.dtd">
<svg width="100%" height="100%" viewBox="0 0 1026 303" version="1.1" xmlns="http://www.w3.org/2000/svg" xmlns:xlink="http://www.w3.org/1999/xlink" xml:space="preserve" xmlns:serif="http://www.serif.com/" style="fill-rule:evenodd;clip-rule:evenodd;stroke-linejoin:round;stroke-miterlimit:2;">
    <rect x="773.15" y="0" width="68.79" height="12" style="fill:#4397d2;"/>
    <rect x="848.95" y="0" width="12.8" height="12" style="fill:#fdec3f;"/>
    <rect x="805.15" y="32" width="25.6" height="12" style="fill:#77c263;"/>
    <rect x="837.76" y="32" width="72.07" height="12" style="fill:#8e6aae;"/>
    <rect x="805.15" y="64" width="71.99" height="12" style="fill:#fdec3f;"/>
    <path d="M884.15,76L884.14,64L896.95,64L896.95,76L884.15,76Z" style="fill:#f3756d;fill-rule:nonzero;"/>
    <rect x="773.15" y="128.01" width="160" height="12" style="fill:#f3756d;"/>
    <rect x="859.95" y="96" width="12.8" height="11.99" style="fill:#4397d2;"/>
    <path d="M791.28,96L791.28,108L852.95,108L852.95,96L791.28,96Z" style="fill:#77c263;fill-rule:nonzero;"/>
    <path d="M69.76,219.78L57.2,219.78L9.1,265.3L9.1,219.78L0,219.78L0,300.99L9.1,300.99L9.1,277.43L27.33,260.21L58.42,300.4L58.87,300.99L70.45,300.99L34.02,253.74L69.76,219.78Z" style="fill-rule:nonzero;"/>
    <path d="M163.9,218.28C140.758,218.258 121.682,237.248 121.6,260.39C121.557,271.594 126.029,282.356 134,290.23C141.911,298.153 152.659,302.61 163.856,302.61C187,302.61 206.046,283.565 206.046,260.42C206.046,237.292 187.028,218.254 163.9,218.23L163.9,218.28ZM163.9,293.39C145.778,293.396 130.849,278.512 130.8,260.39C130.8,242.259 145.719,227.34 163.85,227.34C181.981,227.34 196.9,242.259 196.9,260.39C196.9,278.493 182.003,293.39 163.9,293.39Z" style="fill-rule:nonzero;"/>
    <path d="M334,284.69L282.77,220.35L282.32,219.78L274.7,219.78L274.7,300.99L283.8,300.99L283.8,236.18L334.93,300.42L335.38,300.99L343.1,300.99L343.1,219.78L334,219.78L334,284.69Z" style="fill-rule:nonzero;"/>
    <path d="M449.3,219.78L417.2,219.78L417.2,301L449.3,301C460.9,301 470.6,297 477.36,289.34C483.8,282.09 487.2,272.08 487.2,260.4C487.2,248.72 483.79,238.72 477.32,231.45C470.55,223.81 460.86,219.78 449.3,219.78ZM478.1,260.39C478.1,279.58 466.68,291.99 449,291.99L426.3,291.99L426.3,228.78L449,228.78C466.68,228.78 478.1,241.19 478.1,260.39Z" style="fill-rule:nonzero;"/>
    <path d="M614.7,269.69C614.7,277.1 612.3,283.2 607.76,287.34C603.22,291.48 597.04,293.49 589.5,293.49C573.95,293.49 564.3,284.37 564.3,269.69L564.3,219.78L555.2,219.78L555.2,269.89C555.2,289.69 568.66,302.49 589.5,302.49C610.34,302.49 623.8,289.69 623.8,269.89L623.8,219.78L614.7,219.78L614.7,269.69Z" style="fill-rule:nonzero;"/>
    <path d="M766.66,219.78L754.1,219.78L706,265.3L706,219.78L696.9,219.78L696.9,300.99L706,300.99L706,277.43L724.23,260.21L755.77,300.99L767.35,300.99L730.91,253.74L766.66,219.78Z" style="fill-rule:nonzero;"/>
    <path d="M982.9,218.28C959.756,218.252 940.677,237.246 940.6,260.39C940.557,271.594 945.029,282.356 953,290.23C960.911,298.153 971.659,302.61 982.856,302.61C1006,302.61 1025.05,283.565 1025.05,260.42C1025.05,237.292 1006.03,218.254 982.9,218.23L982.9,218.28ZM982.9,293.39C964.778,293.396 949.849,278.512 949.8,260.39C949.8,242.259 964.719,227.34 982.85,227.34C1000.98,227.34 1015.9,242.259 1015.9,260.39C1015.9,278.493 1001,293.39 982.9,293.39Z" style="fill-rule:nonzero;"/>
    <rect x="848.6" y="193.58" width="9.1" height="21.25" style="fill:#f3756d;"/>
    <path d="M880.75,218.43L878.12,230.75C873.19,228.2 865.12,225.53 853.12,225.53C841.12,225.53 832.28,228.48 826.82,231.18L825.7,219.86L816.64,220.76L818.49,239.37C818.659,241.079 819.785,242.55 821.39,243.16C821.909,243.366 822.462,243.471 823.02,243.47C824.15,243.467 825.24,243.047 826.08,242.29C826.15,242.22 833.56,235.93 848.57,234.82L848.57,301.92L857.67,301.92L857.67,234.79C872.06,235.79 877.77,241.41 877.79,241.43C878.65,242.354 879.858,242.88 881.12,242.88C883.259,242.88 885.123,241.372 885.57,239.28L889.57,220.33L880.75,218.43Z" style="fill:#4397d2;fill-rule:nonzero;"/>
    <g transform="matrix(0.20757,-0.97822,0.97822,0.20757,508.32,1028.78)">
        <rect x="876.28" y="196.66" width="25.66" height="8" style="fill:#d6d5d5;"/>
    </g>
</svg>
