<?xml version="1.0" encoding="UTF-8" standalone="no"?>
<!DOCTYPE svg PUBLIC "-//W3C//DTD SVG 1.1//EN" "http://www.w3.org/Graphics/SVG/1.1/DTD/svg11.dtd">
<svg width="100%" height="100%" viewBox="0 0 377 74" version="1.1" xmlns="http://www.w3.org/2000/svg" xmlns:xlink="http://www.w3.org/1999/xlink" xml:space="preserve" xmlns:serif="http://www.serif.com/" style="fill-rule:evenodd;clip-rule:evenodd;stroke-linejoin:round;stroke-miterlimit:2;">
    <g transform="matrix(1.83133,0,0,1.72249,0,-1.63125)">
        <path d="M3.376,0.947L3.376,11.514L13.943,11.514C13.943,5.678 9.212,0.947 3.376,0.947Z" style="fill:#31b2df;fill-rule:nonzero;"/>
    </g>
    <g transform="matrix(1.83133,0,0,1.72249,0,-1.63125)">
        <path d="M19.433,0.947L19.433,11.514L30,11.514C30,5.678 25.269,0.947 19.433,0.947Z" style="fill:#31b2df;fill-rule:nonzero;"/>
    </g>
    <g transform="matrix(1.83133,0,0,1.72249,0,-1.63125)">
        <path d="M19.433,11.514L14.256,16.745L20.15,16.745C21.67,16.745 22.913,17.988 22.913,19.508C22.913,21.027 21.67,22.271 20.15,22.271L8.786,22.271L0,31.147L4.87,35.974L30,35.974L30,11.514L19.433,11.514Z" style="fill:#1e3c61;fill-rule:nonzero;"/>
    </g>
    <g transform="matrix(1.83133,0,0,1.72249,0,-1.63125)">
        <path d="M6.597,20.693C5.942,20.693 5.412,20.162 5.412,19.508C5.412,18.854 5.942,18.323 6.597,18.323C7.251,18.323 7.781,18.854 7.781,19.508C7.781,20.162 7.251,20.693 6.597,20.693ZM6.139,16.745C4.62,16.745 3.376,17.988 3.376,19.508C3.376,21.027 4.62,22.271 6.139,22.271L8.786,22.271L14.256,16.745L6.139,16.745Z" style="fill:#31b2df;fill-rule:nonzero;"/>
    </g>
    <g transform="matrix(1.83133,0,0,1.72249,0,-1.63125)">
        <path d="M17.259,17.334L17.259,19.512L15.082,19.512C15.082,20.714 16.056,21.688 17.259,21.688C18.461,21.688 19.436,20.714 19.436,19.512C19.436,18.309 18.461,17.334 17.259,17.334Z" style="fill:#31b2df;fill-rule:nonzero;"/>
    </g>
    <g transform="matrix(1,0,0,1,-3.8,-6.35588)">
        <path d="M349.1,36.63C352.39,36.58 355.69,36.58 358.99,36.6C361.01,42.8 362.82,49.07 365.08,55.2C367.05,49.27 368.45,43.17 370.42,37.25C373.18,35.74 376.93,36.95 380.07,36.62C376.11,47.49 372.22,58.39 368.28,69.27C367.01,72.65 365.6,76.35 362.41,78.39C359.04,80.6 354.83,79.97 351.05,79.66C351.28,76.96 351.61,74.26 351.93,71.57C353.7,71.52 355.59,71.96 357.27,71.23C358.91,69.68 360.11,67.36 360.07,65.1C356.69,55.51 352.53,46.2 349.1,36.63Z" style="fill:#1e3c61;fill-rule:nonzero;"/>
    </g>
    <g transform="matrix(1,0,0,1,-3.8,-6.35588)">
        <path d="M332.12,28.85L340.87,28.85C340.91,31.43 340.88,34.01 340.91,36.59C343.02,36.59 345.13,36.6 347.25,36.62C347.26,39.04 347.27,41.46 347.29,43.89C345.15,43.89 343.03,43.89 340.9,43.9C341.19,48.7 340.13,53.72 341.61,58.36C343.27,59.15 345.17,59 346.95,59.22C346.92,61.48 346.93,63.75 346.93,66.01C342.17,66.97 335.35,67.39 333.14,61.97C331.18,56.21 332.46,49.95 332.12,43.98C330.66,43.93 329.19,43.87 327.74,43.82C327.73,41.42 327.72,39.03 327.71,36.63C329.17,36.61 330.63,36.59 332.09,36.57C332.13,34 332.08,31.43 332.12,28.85Z" style="fill:#1e3c61;fill-rule:nonzero;"/>
    </g>
    <g transform="matrix(1,0,0,1,-3.8,-6.35588)">
        <path d="M314,36.6C317,36.59 320,36.59 323,36.6C323,46.36 323,56.13 322.99,65.89L314.01,65.89C313.99,56.13 314,46.36 314,36.6Z" style="fill:#1e3c61;fill-rule:nonzero;"/>
    </g>
    <g transform="matrix(1,0,0,1,-3.8,-6.35588)">
        <path d="M316.5,22.36C320.02,20.5 324.21,24.17 323.62,27.88C323.33,31.56 318.52,34.03 315.54,31.59C312.13,29.53 312.8,23.72 316.5,22.36Z" style="fill:#1e3c61;fill-rule:nonzero;"/>
    </g>
    <g transform="matrix(1,0,0,1,-3.8,-6.35588)">
        <path d="M300.06,39.88C302.3,37.06 305.48,35.38 309.14,35.56C309.07,38.4 308.96,41.25 308.86,44.09C305.56,43.88 301.37,44.77 300.54,48.53C299.62,54.25 300.37,60.11 300.14,65.89C297.13,65.89 294.12,65.89 291.12,65.88C291.1,56.13 291.11,46.38 291.11,36.62C293.89,36.59 296.68,36.59 299.46,36.54C299.66,37.65 299.86,38.76 300.06,39.88Z" style="fill:#1e3c61;fill-rule:nonzero;"/>
    </g>
    <g transform="matrix(1,0,0,1,-3.8,-6.35588)">
        <path d="M258.67,40.32C263.7,35.99 271.07,34.13 277.33,36.79C281.58,38.69 283.02,43.7 283.28,47.98C283.58,53.95 283.35,59.94 283.38,65.91C280.35,65.58 276.57,66.97 274.38,64.19C271.1,66.33 266.98,67.48 263.21,65.91C257.08,64.23 255.37,55.12 260.19,51.14C264.38,47.53 270.26,47.85 275.43,47.25C274.62,45.87 274.22,44 272.58,43.35C269.24,41.83 265.82,43.87 263.09,45.71C261.63,43.9 260.13,42.12 258.67,40.32M267.35,54.34C265.74,55.06 265.3,57.14 266.1,58.62C267.94,60.88 271.64,60.43 273.68,58.69C274.91,57.08 275.04,54.97 275.44,53.06C272.73,53.27 269.82,53.04 267.35,54.34Z" style="fill:#1e3c61;fill-rule:nonzero;"/>
    </g>
    <g transform="matrix(1,0,0,1,-3.8,-6.35588)">
        <path d="M241.89,21.34C244.92,21.35 247.95,21.34 250.98,21.33C251.02,36.18 251,51.04 250.99,65.89L241.86,65.89C241.88,51.04 241.83,36.19 241.89,21.34Z" style="fill:#1e3c61;fill-rule:nonzero;"/>
    </g>
    <g transform="matrix(1,0,0,1,-3.8,-6.35588)">
        <path d="M218.83,37.84C224.53,34.23 232.09,35.27 237.32,39.25C235.7,41.46 233.96,43.6 232.31,45.8C230.43,44.75 228.44,43.22 226.16,43.87C219.59,45.29 219.11,56.43 225.53,58.4C228.01,59.3 230.42,57.81 232.69,56.99C234.2,59.1 235.76,61.17 237.31,63.25C231.5,67.91 222.45,68.2 216.76,63.23C209.59,56.62 210.19,42.95 218.83,37.84Z" style="fill:#1e3c61;fill-rule:nonzero;"/>
    </g>
    <g transform="matrix(1,0,0,1,-3.8,-6.35588)">
        <path d="M185.56,37.48C190.83,34.48 198.22,34.99 202.52,39.47C206.04,43.36 206.8,48.79 206.79,53.84C200.02,53.97 193.26,53.79 186.5,53.96C187.59,56.36 189.19,58.92 192.09,59.23C195.01,60.03 197.54,58.09 199.85,56.61C201.84,58.02 203.85,59.41 205.84,60.81C200.98,67.27 191.3,68.78 184.6,64.41C175.64,58.38 176.29,42.92 185.56,37.48M186.53,47.75C190.59,47.91 194.65,47.92 198.71,47.73C197.96,45.05 196.3,41.92 193.01,42.28C189.64,42.04 187.6,44.97 186.53,47.75Z" style="fill:#1e3c61;fill-rule:nonzero;"/>
    </g>
    <g transform="matrix(1,0,0,1,-3.8,-6.35588)">
        <path d="M142.74,21.32C145.71,21.35 148.68,21.34 151.66,21.35C151.66,27.32 151.64,33.29 151.68,39.27C155.27,35.96 160.66,34.5 165.16,36.87C172.51,40.62 174.46,50.49 171.78,57.77C170.14,62.75 165.42,66.89 160,66.76C156.54,66.91 153.52,64.99 151,62.83C150.98,63.61 150.95,65.16 150.93,65.94C148.2,65.9 145.48,65.88 142.75,65.88C142.7,51.03 142.73,36.17 142.74,21.32M155.34,44.15C149.54,46.89 150.12,56.88 156.44,58.54C161.29,59.82 165.01,54.49 164.2,50.07C164.06,45.81 159.42,42.2 155.34,44.15Z" style="fill:#1e3c61;fill-rule:nonzero;"/>
    </g>
    <g transform="matrix(1,0,0,1,-3.8,-6.35588)">
        <path d="M107.73,36.59C110.74,36.59 113.76,36.58 116.78,36.63C116.91,42.74 116.5,48.86 116.97,54.96C117.03,57.01 118.83,59.05 121,58.7C124.01,58.65 125.46,55.41 125.5,52.79C125.76,47.4 125.5,42 125.61,36.61C128.36,36.61 131.12,36.45 133.87,36.68C135.14,37.67 134.29,39.59 134.57,40.98C134.51,49.27 134.52,57.57 134.55,65.87C131.73,65.88 128.9,65.89 126.08,65.93C126.01,65.11 125.87,63.47 125.8,62.64C123.33,64.78 120.48,67.07 116.99,66.76C111.88,66.73 107.98,61.91 107.87,57.02C107.51,50.22 107.83,43.4 107.73,36.59Z" style="fill:#1e3c61;fill-rule:nonzero;"/>
    </g>
    <g transform="matrix(1,0,0,1,-3.8,-6.35588)">
        <path d="M75.11,21.32C78.11,21.34 81.11,21.35 84.11,21.34C84.2,30.37 84.04,39.4 84.2,48.43C87.2,44.55 90.05,40.55 92.94,36.59C96.52,36.59 100.1,36.56 103.67,36.66C100.36,41.14 96.81,45.43 93.4,49.84C97.07,55.15 100.62,60.54 104.26,65.87C100.56,65.9 96.86,65.89 93.16,65.87C90.19,61.14 87.17,56.43 84.2,51.7C84.09,56.43 84.15,61.16 84.14,65.89C81.13,65.89 78.12,65.89 75.11,65.88C75.1,51.03 75.11,36.18 75.11,21.32Z" style="fill:#1e3c61;fill-rule:nonzero;"/>
    </g>
</svg>
