<?xml version="1.0" encoding="UTF-8" ?>
<!DOCTYPE svg PUBLIC "-//W3C//DTD SVG 1.1//EN" "http://www.w3.org/Graphics/SVG/1.1/DTD/svg11.dtd">
<svg width="2084pt" height="657pt" viewBox="0 0 2084 657" version="1.1" xmlns="http://www.w3.org/2000/svg">
<g id="#3783c4ff">
<path fill="#3783c4" opacity="1.00" d=" M 360.44 34.47 C 366.18 28.40 375.68 26.45 383.47 29.32 C 389.66 31.24 394.42 36.54 396.21 42.70 C 398.15 48.21 397.25 54.13 396.45 59.77 C 394.09 74.15 389.61 88.06 385.22 101.92 C 386.18 101.94 388.11 101.97 389.08 101.99 C 390.10 124.38 394.31 146.45 398.37 168.44 C 400.96 182.12 403.73 196.10 401.90 210.06 C 400.91 219.21 397.59 228.29 391.28 235.12 C 393.24 235.11 395.22 235.12 397.19 235.12 C 397.19 240.99 397.20 246.86 397.19 252.74 C 390.07 249.78 382.92 246.86 375.82 243.86 C 368.77 246.65 361.82 249.65 354.80 252.50 C 354.81 246.71 354.80 240.92 354.81 235.12 C 356.78 235.12 358.76 235.11 360.74 235.11 C 354.17 228.04 350.89 218.53 350.00 209.05 C 348.37 195.15 351.23 181.29 353.79 167.69 C 357.80 145.95 361.93 124.12 362.94 101.98 C 364.24 101.97 365.55 101.95 366.86 101.94 C 361.92 86.59 356.87 71.11 354.95 55.03 C 353.83 47.83 355.43 39.95 360.44 34.47 Z" />
<path fill="#3783c4" opacity="1.00" d=" M 594.60 148.58 C 600.35 142.43 609.53 138.69 617.83 141.41 C 628.27 144.64 635.47 156.50 632.46 167.22 C 630.54 174.20 625.08 179.48 618.93 182.94 C 605.62 190.96 591.06 196.58 576.63 202.20 C 577.41 203.26 578.21 204.31 579.01 205.36 C 564.28 218.16 551.51 233.00 538.79 247.75 C 529.02 258.90 520.03 271.00 508.00 279.88 C 499.09 286.62 488.19 291.62 476.78 290.75 C 478.05 292.30 479.32 293.86 480.59 295.42 C 475.66 299.43 470.73 303.42 465.79 307.41 C 461.41 296.83 457.06 286.25 452.64 275.69 C 449.30 274.33 445.97 272.94 442.63 271.57 C 446.36 268.51 450.13 265.49 453.87 262.44 C 455.12 263.98 456.38 265.52 457.63 267.07 C 460.36 249.18 475.40 236.79 489.98 227.92 C 514.39 214.00 539.90 201.75 562.51 184.91 C 563.34 185.91 564.17 186.91 565.00 187.91 C 574.05 174.24 582.98 160.27 594.60 148.58 Z" />
<path fill="#3783c4" opacity="1.00" d=" M 117.37 159.93 C 119.14 150.61 127.40 142.72 136.99 142.16 C 144.08 141.84 150.93 145.24 155.73 150.32 C 167.28 161.90 176.32 175.65 185.38 189.18 C 186.19 188.15 187.00 187.11 187.82 186.08 C 210.74 202.86 236.56 214.92 261.24 228.77 C 275.64 237.49 290.69 249.66 293.34 267.35 C 294.62 265.81 295.89 264.25 297.16 262.69 C 300.93 265.69 304.69 268.71 308.49 271.68 C 305.25 273.04 302.01 274.37 298.78 275.72 C 294.35 286.36 289.96 297.02 285.53 307.66 C 280.59 303.76 275.66 299.84 270.74 295.90 C 271.96 294.32 273.19 292.74 274.39 291.15 C 262.31 292.20 250.86 286.62 241.57 279.38 C 233.88 273.49 227.30 266.32 221.03 258.98 C 205.21 240.89 189.69 222.39 171.49 206.61 C 172.31 205.58 173.13 204.55 173.96 203.52 C 158.36 197.59 142.49 191.77 128.39 182.70 C 120.84 178.07 115.43 168.92 117.37 159.93 Z" />
<path fill="#3783c4" opacity="1.00" d=" M 778.12 227.22 C 791.59 227.22 805.06 227.21 818.53 227.23 C 818.57 264.03 818.45 300.83 818.60 337.63 C 849.94 300.95 880.97 263.99 912.21 227.21 C 928.24 227.22 944.28 227.22 960.31 227.21 C 927.14 267.20 893.95 307.18 860.78 347.16 C 895.07 389.32 929.51 431.37 963.83 473.50 C 947.79 473.51 931.75 473.52 915.71 473.50 C 883.33 434.43 851.11 395.24 818.60 356.29 C 818.44 395.36 818.58 434.43 818.53 473.51 C 805.06 473.51 791.59 473.51 778.12 473.51 C 778.11 391.41 778.12 309.32 778.12 227.22 Z" />
<path fill="#3783c4" opacity="1.00" d=" M 1361.64 307.67 C 1374.46 299.13 1389.65 294.49 1404.96 293.39 C 1423.35 291.80 1442.56 294.90 1458.55 304.47 C 1472.31 312.68 1483.42 324.98 1491.12 338.96 C 1501.37 357.94 1504.53 380.44 1500.97 401.63 C 1454.26 401.62 1407.56 401.61 1360.86 401.64 C 1362.89 411.31 1367.26 420.68 1374.40 427.65 C 1384.34 437.43 1398.23 442.40 1411.99 443.16 C 1423.72 443.94 1435.96 442.31 1446.35 436.52 C 1452.90 432.91 1458.42 427.63 1462.70 421.52 C 1473.13 427.59 1483.53 433.71 1493.97 439.77 C 1484.52 453.83 1471.02 465.29 1455.15 471.40 C 1436.26 478.72 1415.31 479.54 1395.47 476.26 C 1376.48 473.04 1358.48 463.77 1345.37 449.59 C 1333.01 436.63 1324.96 419.75 1322.43 402.03 C 1319.96 384.47 1321.16 366.13 1327.67 349.52 C 1334.34 332.53 1346.48 317.79 1361.64 307.67 M 1389.35 332.39 C 1373.94 339.17 1363.48 354.39 1360.60 370.74 C 1395.09 370.77 1429.58 370.74 1464.07 370.75 C 1461.90 358.53 1456.45 346.34 1446.46 338.56 C 1430.66 325.75 1407.62 324.47 1389.35 332.39 Z" />
<path fill="#3783c4" opacity="1.00" d=" M 1714.06 301.12 C 1728.59 293.09 1746.01 291.65 1762.21 294.07 C 1777.72 296.37 1792.27 304.69 1801.87 317.14 C 1809.05 326.26 1813.28 337.44 1815.09 348.85 C 1816.76 358.81 1816.32 368.94 1816.38 379.00 C 1816.38 410.50 1816.38 442.00 1816.38 473.51 C 1803.74 473.51 1791.10 473.51 1778.47 473.51 C 1778.46 443.33 1778.47 413.14 1778.47 382.96 C 1778.29 374.69 1779.04 366.34 1777.46 358.16 C 1776.08 350.62 1772.61 343.32 1766.87 338.13 C 1759.47 331.13 1748.99 328.37 1739.01 328.49 C 1728.19 328.34 1717.06 331.54 1708.88 338.82 C 1702.96 343.83 1698.98 350.82 1696.88 358.22 C 1694.21 367.22 1694.10 376.70 1694.19 386.00 C 1694.19 415.17 1694.20 444.34 1694.19 473.50 C 1681.59 473.52 1668.98 473.51 1656.38 473.51 C 1656.37 414.84 1656.37 356.17 1656.38 297.50 C 1668.98 297.50 1681.59 297.49 1694.19 297.50 C 1694.22 304.96 1694.13 312.42 1694.25 319.87 C 1699.48 312.36 1705.93 305.52 1714.06 301.12 Z" />
<path fill="#3783c4" opacity="1.00" d=" M 1927.58 293.79 C 1948.84 291.17 1971.27 294.94 1989.55 306.45 C 2004.27 315.74 2016.63 329.00 2024.27 344.69 C 2032.96 362.55 2034.88 383.20 2031.78 402.67 C 2027.20 431.93 2006.51 457.47 1979.88 469.86 C 1961.74 478.16 1940.97 479.88 1921.45 476.36 C 1885.48 469.76 1854.91 439.35 1848.91 403.15 C 1845.48 382.71 1847.79 360.92 1857.53 342.44 C 1871.38 316.39 1898.01 296.99 1927.58 293.79 M 1930.49 330.73 C 1917.41 332.68 1905.45 340.02 1897.23 350.29 C 1885.98 363.94 1883.18 383.03 1887.03 399.96 C 1890.94 417.04 1904.00 431.59 1920.36 437.72 C 1933.64 442.50 1948.76 442.34 1961.89 437.08 C 1978.09 430.35 1990.75 415.32 1993.99 398.00 C 1997.72 379.59 1993.11 358.95 1979.26 345.73 C 1966.87 332.82 1947.90 327.78 1930.49 330.73 Z" />
<path fill="#3783c4" opacity="1.00" d=" M 1589.98 305.84 C 1600.68 297.43 1614.64 294.38 1628.03 294.44 C 1628.03 308.13 1628.03 321.82 1628.03 335.52 C 1611.73 334.34 1594.11 339.60 1583.32 352.34 C 1576.23 361.19 1573.90 372.86 1573.90 383.95 C 1573.86 413.80 1573.90 443.66 1573.88 473.51 C 1561.24 473.51 1548.61 473.51 1535.98 473.51 C 1535.96 414.84 1535.97 356.17 1535.97 297.50 C 1548.61 297.50 1561.24 297.50 1573.88 297.50 C 1573.91 307.29 1573.82 317.08 1573.93 326.87 C 1577.76 318.86 1582.85 311.28 1589.98 305.84 Z" />
<path fill="#3783c4" opacity="1.00" d=" M 949.89 297.49 C 963.70 297.50 977.51 297.50 991.32 297.50 C 1008.86 340.07 1026.21 382.72 1043.89 425.23 C 1059.05 382.70 1073.89 340.05 1088.97 297.50 C 1102.42 297.50 1115.86 297.49 1129.31 297.50 C 1106.61 358.64 1083.84 419.76 1061.09 480.88 C 1053.51 500.72 1042.01 520.12 1023.95 532.07 C 1009.95 541.53 992.65 544.87 975.97 543.99 C 975.97 532.15 975.96 520.32 975.97 508.48 C 986.73 509.12 998.30 506.97 1006.46 499.45 C 1015.32 491.81 1019.86 480.80 1024.51 470.38 C 999.65 412.75 974.73 355.13 949.89 297.49 Z" />
<path fill="#3783c4" opacity="1.00" d=" M 1132.91 297.49 C 1146.72 297.50 1160.53 297.50 1174.34 297.49 C 1190.80 342.20 1207.12 386.96 1223.67 431.63 C 1240.18 386.98 1256.32 342.20 1272.68 297.49 C 1286.49 297.50 1300.30 297.50 1314.11 297.50 C 1291.31 356.16 1268.30 414.74 1245.58 473.43 C 1230.90 473.61 1216.22 473.46 1201.55 473.51 C 1178.67 414.84 1155.77 356.17 1132.91 297.49 Z" />
<path fill="#3783c4" opacity="1.00" d=" M 102.15 381.98 C 102.02 375.28 108.22 369.63 114.84 370.01 C 287.24 369.99 459.65 370.01 632.05 369.99 C 638.75 369.46 645.35 375.10 645.10 381.97 C 645.14 410.33 645.13 438.70 645.11 467.06 C 645.23 470.74 643.50 474.39 640.60 476.65 C 636.15 480.27 629.08 480.00 624.96 476.00 C 622.19 473.51 620.99 469.73 621.11 466.08 C 621.11 442.07 621.13 418.05 621.11 394.03 C 542.62 394.03 464.13 394.03 385.64 394.04 C 385.59 418.40 385.65 442.76 385.61 467.12 C 385.93 473.81 379.65 479.82 372.97 479.17 C 366.72 479.05 361.43 473.26 361.64 467.05 C 361.57 442.71 361.64 418.37 361.61 394.04 C 283.12 394.03 204.63 394.02 126.13 394.04 C 126.10 418.37 126.15 442.70 126.11 467.03 C 126.47 473.57 120.52 479.54 113.97 479.19 C 107.53 479.34 101.92 473.45 102.14 467.06 C 102.11 438.70 102.08 410.33 102.15 381.98 Z" />
</g>
<g id="#e77e5bff">
<path fill="#e77e5b" opacity="1.00" d=" M 185.56 163.54 C 239.25 137.69 292.94 111.83 346.63 85.98 C 347.56 89.26 348.58 92.53 349.54 95.81 C 348.61 98.43 348.26 101.19 348.19 103.96 C 348.03 109.53 347.39 115.07 346.88 120.62 C 302.15 142.19 257.39 163.72 212.65 185.27 C 207.34 182.00 202.13 178.54 197.11 174.83 C 195.36 173.50 193.36 172.58 191.31 171.80 C 189.38 169.06 187.50 166.28 185.56 163.54 Z" />
<path fill="#e77e5b" opacity="1.00" d=" M 405.39 85.97 C 458.41 111.49 511.42 137.04 564.44 162.55 C 562.55 165.26 560.73 168.02 558.84 170.72 C 554.79 171.98 551.68 174.95 548.25 177.28 C 544.76 179.74 541.18 182.08 537.59 184.40 C 493.42 163.14 449.25 141.90 405.11 120.58 C 404.64 115.03 403.97 109.49 403.83 103.91 C 403.76 101.15 403.38 98.40 402.47 95.78 C 403.44 92.51 404.45 89.25 405.39 85.97 Z" />
<path fill="#e77e5b" opacity="1.00" d=" M 592.54 211.70 C 595.42 210.32 598.47 209.30 601.40 208.01 C 611.92 254.36 622.53 300.69 633.10 347.03 C 622.40 347.04 611.70 347.03 601.01 347.03 C 592.06 307.99 583.15 268.94 574.26 229.88 C 580.02 223.48 587.13 218.39 592.54 211.70 Z" />
<path fill="#e77e5b" opacity="1.00" d=" M 150.21 209.94 C 152.95 211.08 155.72 212.15 158.46 213.29 C 159.64 215.13 161.00 216.86 162.69 218.26 C 167.77 222.62 172.63 227.22 177.29 232.01 C 168.56 270.36 159.82 308.70 151.03 347.03 C 140.33 347.03 129.63 347.03 118.93 347.03 C 129.36 301.34 139.81 255.64 150.21 209.94 Z" />
<path fill="#e77e5b" opacity="1.00" d=" M 308.01 284.95 C 330.58 275.59 353.15 266.27 375.71 256.90 C 397.46 265.90 419.18 274.94 440.94 283.89 C 442.02 284.42 443.51 284.67 443.86 286.04 C 452.33 306.35 460.70 326.71 469.15 347.03 C 448.72 347.03 428.30 347.03 407.87 347.03 C 405.27 340.76 402.70 334.48 400.07 328.23 C 391.93 324.94 383.84 321.51 375.72 318.18 C 367.58 321.54 359.46 324.93 351.32 328.27 C 348.75 334.53 346.14 340.77 343.56 347.03 C 323.14 347.03 302.72 347.03 282.30 347.03 C 290.87 326.34 299.42 305.64 308.01 284.95 Z" />
<path fill="#e77e5b" opacity="1.00" d=" M 110.34 507.18 C 111.68 506.37 113.32 506.23 114.67 507.11 C 130.05 514.52 145.44 521.93 160.82 529.34 C 162.32 529.89 163.21 531.24 163.43 532.80 C 167.22 549.52 171.09 566.23 174.85 582.95 C 175.56 584.91 173.85 586.40 172.84 587.85 C 162.43 600.79 152.16 613.83 141.74 626.77 C 140.75 628.41 138.74 628.41 137.05 628.40 C 120.36 628.35 103.67 628.42 86.98 628.37 C 85.52 628.48 84.12 627.89 83.31 626.67 C 72.65 613.33 62.02 599.97 51.36 586.63 C 50.24 585.44 49.92 583.78 50.44 582.25 C 54.21 565.72 57.98 549.19 61.76 532.67 C 61.96 531.09 63.01 529.82 64.49 529.26 C 79.77 521.90 95.06 514.54 110.34 507.18 M 90.45 551.17 C 88.62 559.12 86.78 567.07 85.01 575.04 C 90.06 581.46 95.17 587.81 100.26 594.20 C 108.46 594.29 116.67 594.27 124.87 594.21 C 129.97 587.83 135.09 581.46 140.14 575.04 C 138.36 567.07 136.54 559.11 134.68 551.16 C 127.39 547.52 120.00 544.09 112.69 540.50 C 105.21 543.92 97.83 547.54 90.45 551.17 Z" />
<path fill="#e77e5b" opacity="1.00" d=" M 371.33 507.22 C 372.72 506.39 374.40 506.20 375.80 507.14 C 391.14 514.51 406.47 521.92 421.81 529.29 C 423.47 529.84 424.32 531.39 424.57 533.04 C 428.31 549.70 432.24 566.33 435.91 583.01 C 436.60 585.00 434.88 586.47 433.85 587.92 C 423.46 600.86 413.17 613.90 402.77 626.84 C 401.95 628.10 400.44 628.45 399.03 628.38 C 382.35 628.40 365.67 628.36 348.98 628.40 C 347.25 628.47 345.31 628.26 344.34 626.62 C 333.67 613.28 323.04 599.90 312.38 586.55 C 310.98 585.19 311.24 583.18 311.68 581.48 C 315.39 565.33 319.06 549.18 322.75 533.03 C 322.98 531.47 323.74 529.94 325.32 529.39 C 340.65 521.98 356.00 514.62 371.33 507.22 M 351.51 551.20 C 349.69 559.13 347.86 567.07 346.08 575.02 C 351.10 581.45 356.25 587.79 361.32 594.20 C 369.53 594.30 377.73 594.26 385.94 594.22 C 391.04 587.82 396.19 581.46 401.22 575.01 C 399.40 567.05 397.64 559.07 395.74 551.13 C 388.43 547.53 381.06 544.05 373.73 540.49 C 366.28 543.97 358.86 547.52 351.51 551.20 Z" />
<path fill="#e77e5b" opacity="1.00" d=" M 629.35 507.17 C 630.68 506.37 632.31 506.24 633.66 507.11 C 649.03 514.50 664.39 521.91 679.76 529.30 C 681.27 529.85 682.21 531.19 682.43 532.78 C 686.22 549.52 690.10 566.24 693.86 582.99 C 694.47 584.64 693.24 586.01 692.32 587.24 C 681.77 600.40 671.30 613.64 660.73 626.79 C 659.92 628.03 658.46 628.46 657.05 628.37 C 640.35 628.41 623.65 628.36 606.95 628.40 C 605.26 628.44 603.32 628.31 602.35 626.71 C 591.66 613.36 581.02 599.97 570.36 586.61 C 569.23 585.43 568.94 583.77 569.45 582.25 C 572.94 566.85 576.50 551.46 579.97 536.05 C 580.46 534.20 580.61 532.18 581.63 530.53 C 583.27 529.05 585.45 528.39 587.39 527.38 C 601.38 520.65 615.36 513.91 629.35 507.17 M 609.44 551.19 C 607.62 559.14 605.78 567.07 604.02 575.03 C 609.04 581.46 614.18 587.80 619.25 594.20 C 627.46 594.30 635.66 594.27 643.87 594.21 C 648.98 587.83 654.09 581.46 659.15 575.03 C 657.36 567.07 655.55 559.10 653.69 551.16 C 646.43 547.51 639.03 544.14 631.77 540.50 C 624.24 543.87 616.84 547.54 609.44 551.19 Z" />
</g>
</svg>
