<svg enable-background="new 0 0 1220 450" viewBox="0 0 1220 450" xmlns="http://www.w3.org/2000/svg" xmlns:xlink="http://www.w3.org/1999/xlink"><linearGradient id="a" gradientUnits="userSpaceOnUse" x1="562.2399" x2="1210" y1="238.7198" y2="238.7198"><stop offset="0" stop-color="#00aeef"/><stop offset="1" stop-color="#2b3990"/></linearGradient><linearGradient id="b" gradientUnits="userSpaceOnUse" x1="296.3391" x2="425.3021" y1="272.9663" y2="144.0033"><stop offset="0" stop-color="#4578e6"/><stop offset=".9" stop-color="#2bc0e4"/></linearGradient><linearGradient id="c" gradientUnits="userSpaceOnUse" x1="282.0891" x2="123.0271" y1="241.3875" y2="430.9502"><stop offset="0" stop-color="#4578e6"/><stop offset=".75" stop-color="#262d65"/></linearGradient><linearGradient id="d" gradientUnits="userSpaceOnUse" x1="237.7399" x2="-25.232" y1="37.8957" y2="300.8676"><stop offset=".15" stop-color="#4578e6"/><stop offset=".95" stop-color="#262d65"/></linearGradient><linearGradient id="e" gradientUnits="userSpaceOnUse" x1="231.6333" x2="395.1127" y1="113.8652" y2="113.8652"><stop offset="0" stop-color="#4578e6"/><stop offset=".55" stop-color="#2bc0e4"/></linearGradient><path d="m587.57 128.51v175.19h-25.33v-189.86zm101.41 65.52h25.45v109.67h-25.45v-11.48c-10.43 9.76-21.66 14.64-33.67 14.64-15.16 0-27.7-5.48-37.61-16.44-9.83-11.18-14.75-25.15-14.75-41.89 0-16.44 4.92-30.14 14.75-41.1s22.14-16.44 36.93-16.44c12.76 0 24.21 5.25 34.34 15.76v-12.72zm-60.13 54.5c0 10.51 2.81 19.07 8.44 25.67 5.78 6.68 13.06 10.02 21.84 10.02 9.38 0 16.96-3.23 22.74-9.68 5.78-6.68 8.67-15.16 8.67-25.45 0-10.28-2.89-18.76-8.67-25.45-5.78-6.53-13.29-9.8-22.52-9.8-8.71 0-15.99 3.3-21.84 9.91-5.77 6.69-8.66 14.94-8.66 24.78zm212.09 52.58c0 5.18-.17 9.74-.51 13.68s-.81 7.41-1.41 10.41c-1.8 8.26-5.33 15.35-10.58 21.28-9.91 11.41-23.53 17.11-40.87 17.11-14.64 0-26.69-3.94-36.14-11.82-9.76-8.11-15.39-19.33-16.89-33.67h25.45c.97 5.4 2.59 9.57 4.84 12.5 5.25 6.83 12.91 10.25 22.97 10.25 18.54 0 27.81-11.37 27.81-34.12v-15.31c-10.06 10.29-21.66 15.43-34.79 15.43-14.94 0-27.17-5.4-36.71-16.21-9.61-10.96-14.41-24.66-14.41-41.1 0-15.99 4.46-29.57 13.4-40.76 9.61-11.86 22.29-17.79 38.06-17.79 13.81 0 25.29 5.14 34.45 15.43v-12.39h25.33zm-24.33-52.02c0-10.66-2.85-19.18-8.56-25.56-5.78-6.53-13.17-9.8-22.18-9.8-9.61 0-17.19 3.57-22.74 10.7-5.03 6.38-7.54 14.64-7.54 24.77 0 9.98 2.51 18.17 7.54 24.55 5.48 6.98 13.06 10.47 22.74 10.47s17.34-3.53 22.97-10.58c5.19-6.38 7.77-14.57 7.77-24.55zm39.59-1.01c0-15.84 5.67-29.31 17-40.42s25.15-16.66 41.43-16.66c16.36 0 30.25 5.59 41.66 16.78 11.26 11.19 16.89 24.92 16.89 41.21 0 16.44-5.67 30.21-17 41.32-11.41 11.03-25.41 16.55-42 16.55-16.44 0-30.21-5.63-41.32-16.89-11.1-11.12-16.66-25.08-16.66-41.89zm25.9.45c0 10.96 2.93 19.63 8.78 26.01 6.01 6.46 13.92 9.68 23.76 9.68 9.91 0 17.83-3.19 23.76-9.57s8.9-14.9 8.9-25.56-2.97-19.18-8.9-25.56c-6.01-6.46-13.92-9.68-23.76-9.68-9.68 0-17.53 3.23-23.53 9.68-6.01 6.46-9.01 14.79-9.01 25zm101.18-.45c0-15.84 5.67-29.31 17-40.42s25.15-16.66 41.44-16.66c16.36 0 30.25 5.59 41.66 16.78 11.26 11.19 16.89 24.92 16.89 41.21 0 16.44-5.67 30.21-17 41.32-11.41 11.03-25.41 16.55-42 16.55-16.44 0-30.21-5.63-41.32-16.89-11.12-11.12-16.67-25.08-16.67-41.89zm25.9.45c0 10.96 2.93 19.63 8.78 26.01 6.01 6.46 13.92 9.68 23.76 9.68 9.91 0 17.83-3.19 23.76-9.57s8.9-14.9 8.9-25.56-2.97-19.18-8.9-25.56c-6.01-6.46-13.92-9.68-23.76-9.68-9.68 0-17.53 3.23-23.53 9.68-6.01 6.46-9.01 14.79-9.01 25zm106.35-54.5h25.45v10.13c8.86-8.78 18.84-13.17 29.95-13.17 12.76 0 22.71 4.02 29.84 12.05 6.15 6.83 9.23 17.98 9.23 33.44v67.22h-25.45v-61.25c0-10.81-1.5-18.28-4.5-22.41-2.93-4.2-8.26-6.31-15.99-6.31-8.41 0-14.37 2.78-17.9 8.33-3.45 5.48-5.18 15.05-5.18 28.71v52.92h-25.45z" fill="url(#a)"/><path d="m231.63 208.26 163.48 95.34v-189.79l-78.87 43.13z" fill="url(#b)"/><path d="m395.06 336.18-192.5-111.21-63.8 31.12-128.7 80.07 192.62 111.13z" fill="url(#c)"/><path d="m202.56 224.97v-222.26l-192.56 111.04.06 222.41z" fill="url(#d)"/><path d="m395.11 113.81-163.48-94.34v188.79z" fill="url(#e)"/></svg>