<svg width="139" height="32" xmlns="http://www.w3.org/2000/svg" xmlns:xlink="http://www.w3.org/1999/xlink"><defs><circle id="a" cx="14" cy="14" r="14"></circle><filter x="-31.3%" y="-31.3%" width="162.5%" height="162.5%" filterUnits="objectBoundingBox" id="b"><feGaussianBlur stdDeviation="3" in="SourceGraphic"></feGaussianBlur></filter></defs><g fill="none" fill-rule="evenodd"><path d="M56.61 25V7.855h3.85v13.48h8.538V25H56.61zm26.54-6.658c0 .51-.046 1.02-.116 1.53h-9.35c.395 1.393 1.486 2.39 3.458 2.39 1.368 0 2.946-.533 3.967-1.23l1.438 2.483c-1.23.928-3.201 1.763-5.568 1.763-4.756 0-6.96-3.201-6.96-6.658 0-3.782 2.668-6.658 6.705-6.658 3.642 0 6.426 2.343 6.426 6.38zm-6.426-3.434c-1.485 0-2.645.882-3.062 2.366h5.985c-.325-1.438-1.392-2.366-2.923-2.366zm18.12-2.622h3.433V25h-3.434v-1.3c-.928.929-2.18 1.625-3.92 1.625-3.666 0-6.265-2.97-6.265-6.751 0-3.805 2.668-6.612 6.264-6.612 1.717 0 2.993.719 3.921 1.67v-1.346zm-3.295 9.721c1.925 0 3.294-1.554 3.294-3.387 0-1.81-1.369-3.34-3.294-3.34-1.926 0-3.248 1.53-3.248 3.34 0 1.856 1.345 3.387 3.248 3.387zM101.084 25V12.286h3.55v1.764c.626-1.137 2.088-2.112 4.013-2.112 2.529 0 4.942 1.694 4.942 5.29V25h-3.643v-6.82c0-1.88-.997-2.9-2.482-2.9-1.624 0-2.738 1.206-2.738 2.992V25h-3.642zm15.544-17.145h3.851V25h-3.851V7.855zM122.358 25l5.406-8.654-5.011-8.49h4.431l3.062 5.59 3.248-5.59h4.478l-5.313 8.49L137.926 25h-4.432l-3.294-5.754L126.836 25h-4.478z" fill="#222F4B" fill-rule="nonzero"></path><g transform="translate(14.4 2.8)"><mask id="c" fill="#fff"><use xlink:href="#a"></use></mask><use fill="#166BFF" xlink:href="#a"></use><path fill-opacity=".65" fill="#039" filter="url(#b)" mask="url(#c)" d="M-9.8 16.8L4.6 2.4 19 16.8 4.6 31.2z"></path></g><path fill="#166BFF" d="M0 16.8L14.4 2.4l14.4 14.4-14.4 14.4z"></path><path d="M18.632 26.8a13.898 13.898 0 0 1-4.232-10c0-3.92 1.621-7.464 4.232-10l10.168 10-10.168 10z" fill="#FFF"></path></g></svg>