<?xml version="1.0" encoding="UTF-8" standalone="no"?>
<!DOCTYPE svg PUBLIC "-//W3C//DTD SVG 1.1//EN" "http://www.w3.org/Graphics/SVG/1.1/DTD/svg11.dtd">
<svg width="100%" height="100%" viewBox="0 0 400 97" version="1.1" xmlns="http://www.w3.org/2000/svg" xmlns:xlink="http://www.w3.org/1999/xlink" xml:space="preserve" xmlns:serif="http://www.serif.com/" style="fill-rule:evenodd;clip-rule:evenodd;stroke-linejoin:round;stroke-miterlimit:2;">
    <g transform="matrix(1.11266,0,0,1.11266,0,0)">
        <path d="M178.46,44.23L173.83,54.05L169.64,54.05L169.19,44.23L169.03,44.23L167,54.05L162.6,54.05L165.66,39.35L172.89,39.35L173,47.8L173.19,47.8L176.77,39.35L184.21,39.35L181.16,54.05L176.52,54.05L178.64,44.23L178.46,44.23Z" style="fill:rgb(0,62,105);fill-rule:nonzero;"/>
    </g>
    <g transform="matrix(1.11266,0,0,1.11266,-240.612,-292.261)">
        <path d="M413.65,311.05L413.37,305.48L413.2,305.48L410.5,311.05L413.65,311.05ZM410.74,302.05L417.44,302.05L418.44,316.74L413.64,316.74L413.57,314.14L409.27,314.14L408.1,316.74L403.58,316.74L410.74,302.05Z" style="fill:rgb(0,62,105);fill-rule:nonzero;"/>
    </g>
    <g transform="matrix(1.11266,0,0,1.11266,0,0)">
        <path d="M231.42,42.82L228.2,42.82L228.92,39.35L240.16,39.35L239.44,42.82L236.22,42.82L233.88,54.05L229.08,54.05L231.42,42.82Z" style="fill:rgb(0,62,105);fill-rule:nonzero;"/>
    </g>
    <g transform="matrix(1.11266,0,0,1.11266,0,0)">
        <path d="M259.32,39.35L265.83,39.35L267.26,48.13L267.4,48.13L269.23,39.35L273.79,39.35L270.74,54.05L264.23,54.05L263,45.06L262.84,45.06L260.97,54.05L256.26,54.05L259.32,39.35Z" style="fill:rgb(0,62,105);fill-rule:nonzero;"/>
    </g>
    <g transform="matrix(1.11266,0,0,1.11266,-240.612,-292.261)">
        <path d="M432.8,308.14C434.16,308.14 434.74,307.47 434.74,306.58C434.74,305.85 434.32,305.49 433.34,305.49L432.13,305.49L431.58,308.14L432.8,308.14ZM428,302L435.09,302C438.55,302 439.77,303.92 439.77,305.75C439.753,307.709 438.24,309.356 436.29,309.54L436.29,309.74C437.498,309.855 438.399,310.941 438.29,312.15C438.29,313.15 438.08,314.15 438.08,315.38C438.092,315.819 438.135,316.257 438.21,316.69L433.07,316.69C433.028,316.408 433.001,316.125 432.99,315.84C432.99,314.61 433.33,313.75 433.33,312.4C433.336,312.353 433.339,312.307 433.339,312.26C433.339,311.667 432.852,311.18 432.259,311.18C432.209,311.18 432.159,311.183 432.11,311.19L430.87,311.19L429.73,316.69L425,316.69L428,302Z" style="fill:rgb(0,62,105);fill-rule:nonzero;"/>
    </g>
    <g transform="matrix(1.11266,0,0,1.11266,0,0)">
        <path d="M246.25,39.35L251.05,39.35L248,54.05L243.19,54.05L246.25,39.35Z" style="fill:rgb(0,62,105);fill-rule:nonzero;"/>
    </g>
    <g transform="matrix(1.11266,0,0,1.11266,0,0)">
        <path d="M3.06,39.35L7.86,39.35L5.53,50.58L10.23,50.58L9.54,54.05L0,54.05L3.06,39.35Z" style="fill:rgb(0,62,105);fill-rule:nonzero;"/>
    </g>
    <g transform="matrix(1.11266,0,0,1.11266,0,0)">
        <path d="M58.64,39.35L63.44,39.35L62.13,45.67L62.25,45.67L66.5,39.35L71.62,39.35L66.31,46.29L68.97,54.05L63.85,54.05L61.86,47.52L61.74,47.52L60.39,54.05L55.58,54.05L58.64,39.35Z" style="fill:rgb(0,62,105);fill-rule:nonzero;"/>
    </g>
    <g transform="matrix(1.11266,0,0,1.11266,0,0)">
        <path d="M83.55,48.54L80.69,48.54L79.54,54.05L74.73,54.05L77.79,39.35L82.6,39.35L81.45,44.87L84.32,44.87L85.46,39.35L90.27,39.35L87.21,54.05L82.4,54.05L83.55,48.54Z" style="fill:rgb(0,62,105);fill-rule:nonzero;"/>
    </g>
    <g transform="matrix(1.11266,0,0,1.11266,0,0)">
        <path d="M117.33,39.35L127.43,39.35L126.7,42.82L121.41,42.82L120.96,44.99L125.76,44.99L125.03,48.45L120.24,48.45L119.8,50.58L125.33,50.58L124.61,54.05L114.27,54.05L117.33,39.35Z" style="fill:rgb(0,62,105);fill-rule:nonzero;"/>
    </g>
    <g transform="matrix(1.11266,0,0,1.11266,0,0)">
        <path d="M98.92,39.35L109.02,39.35L108.3,42.82L103,42.82L102.55,44.99L107.35,44.99L106.62,48.45L101.83,48.45L101.39,50.58L106.92,50.58L106.2,54.05L95.86,54.05L98.92,39.35Z" style="fill:rgb(0,62,105);fill-rule:nonzero;"/>
    </g>
    <g transform="matrix(1.11266,0,0,1.11266,-240.612,-292.261)">
        <path d="M238.84,313.25C240.95,313.25 241.84,308 241.84,306.79C241.846,306.742 241.849,306.693 241.849,306.645C241.849,306.014 241.33,305.495 240.699,305.495C240.663,305.495 240.626,305.497 240.59,305.5C238.42,305.5 237.59,310.84 237.59,311.95C237.583,312.001 237.579,312.053 237.579,312.105C237.579,312.736 238.099,313.255 238.729,313.255C238.766,313.255 238.803,313.254 238.84,313.25M241.12,301.82C244.69,301.82 246.62,303.82 246.62,307.01C246.62,310.87 244.62,316.92 238.33,316.92C234.85,316.92 232.82,315 232.82,311.76C232.82,307.49 235.03,301.82 241.12,301.82" style="fill:rgb(0,62,105);fill-rule:nonzero;"/>
    </g>
    <g transform="matrix(1.11266,0,0,1.11266,-240.612,-292.261)">
        <path d="M355.29,313.25L356.69,313.25C358.64,313.25 359.99,310.68 359.99,307.51C359.99,306.36 359.48,305.51 357.76,305.51L356.9,305.51L355.29,313.25ZM352.83,302L358.27,302C362.91,302 364.83,304.6 364.83,307.47C364.83,312.93 361.39,316.69 355.63,316.69L349.77,316.69L352.83,302Z" style="fill:rgb(0,62,105);fill-rule:nonzero;"/>
    </g>
    <g transform="matrix(1.11266,0,0,1.11266,-240.612,-292.261)">
        <path d="M265,311.21C264.468,314.636 261.381,317.125 257.92,316.92C254.37,316.92 252.42,314.92 252.42,311.75C252.42,308.05 254.31,301.82 260.72,301.82C263.66,301.82 266.01,302.91 265.93,306.04C265.911,306.539 265.864,307.036 265.79,307.53L261.32,307.53C261.372,307.226 261.403,306.918 261.41,306.61C261.411,306.591 261.411,306.573 261.411,306.554C261.411,305.973 260.933,305.494 260.351,305.494C260.314,305.494 260.277,305.496 260.24,305.5C258.04,305.5 257.24,310.78 257.24,311.96C257.233,312.011 257.23,312.062 257.23,312.114C257.23,312.739 257.744,313.254 258.37,313.254C258.4,313.254 258.43,313.252 258.46,313.25C259.2,313.25 259.88,312.68 260.46,311.25L265,311.21Z" style="fill:rgb(0,62,105);fill-rule:nonzero;"/>
    </g>
    <g transform="matrix(1.11266,0,0,1.11266,-240.612,-292.261)">
        <path d="M575.75,292.46L543.12,292.46C547.4,276.34 551.27,262.67 551.27,262.67C551.27,262.67 536.58,278.38 523.53,292.46L394.18,292.73L520.33,295.91C510.62,306.23 505.51,312.11 505.33,312.32L505.38,312.27C505.8,311.9 523.26,295.98 523.26,295.98L538.61,296.37L536.3,308.48L464.37,349.17L464.08,349.33C464.08,349.33 521.2,319.33 535.62,312.03C535.62,312.03 530.56,338.45 530.56,338.56C530.562,338.543 530.562,338.527 530.56,338.51L530.56,338.56L530.62,338.3C531.09,336.58 534.12,326.19 538.25,310.82C557.02,301.24 575.78,292.46 575.78,292.46M541.91,279L539.33,292.49L527.1,292.49L541.91,279ZM541.99,296.48L556.86,296.86L539.2,306.86C540.2,303.31 541.02,300.07 541.99,296.49" style="fill:rgb(0,62,105);fill-rule:nonzero;"/>
    </g>
</svg>
