<?xml version="1.0" encoding="UTF-8" standalone="no"?>
<!DOCTYPE svg PUBLIC "-//W3C//DTD SVG 1.1//EN" "http://www.w3.org/Graphics/SVG/1.1/DTD/svg11.dtd">
<svg width="100%" height="100%" viewBox="0 0 1850 280" version="1.1" xmlns="http://www.w3.org/2000/svg" xmlns:xlink="http://www.w3.org/1999/xlink" xml:space="preserve" xmlns:serif="http://www.serif.com/" style="fill-rule:evenodd;clip-rule:evenodd;stroke-linejoin:round;stroke-miterlimit:2;">
    <g transform="matrix(1,0,0,1,-35.96,-31.57)">
        <path d="M1794.52,33.56C1795.41,32.57 1796.7,32.13 1797.91,31.57C1797.83,35.36 1796.42,38.91 1795.39,42.5C1785.65,75.37 1775.94,108.25 1766.2,141.11C1806.09,141.24 1846,140.91 1885.89,141.28C1885.87,141.84 1885.83,142.96 1885.81,143.52C1839.71,165.43 1793.57,187.28 1747.5,209.27C1739.42,242.48 1731.16,275.64 1723.01,308.83C1722.96,310.47 1721.38,310.9 1720.14,311.41C1720.42,303.82 1722.71,296.46 1723.87,288.98C1736.34,223.32 1749.09,157.71 1761.41,92.02C1743.26,108.18 1725.33,124.63 1707.43,141.06C1718.12,141.19 1728.83,141.09 1739.53,141.12C1739.02,145.58 1738.45,150.03 1737.93,154.49C1575.97,150.97 1414.02,147.48 1252.07,143.84C1252.07,143.18 1252.09,141.85 1252.1,141.19C1398.75,141.04 1545.39,141.16 1692.04,141.12C1693.39,141.12 1694.91,141.08 1695.76,139.8C1728.69,104.39 1761.6,68.97 1794.52,33.56M1762.35,155.08C1759.02,167.55 1755.5,179.98 1752.18,192.46C1772.6,180.42 1792.98,168.33 1813.35,156.2C1796.35,155.77 1779.35,155.41 1762.35,155.08Z" style="fill:rgb(1,51,120);fill-rule:nonzero;"/>
    </g>
    <g transform="matrix(1,0,0,1,-35.96,-31.57)">
        <path d="M1629.38,210.34C1645.94,193.47 1662.53,176.62 1679.04,159.7C1681.95,159.79 1684.85,159.89 1687.78,160.04C1670.28,176.46 1652.6,192.69 1635.06,209.07C1632.81,211.11 1630.74,213.59 1627.65,214.28C1628.04,212.9 1628.2,211.34 1629.38,210.34Z" style="fill:rgb(1,51,120);fill-rule:nonzero;"/>
    </g>
    <g transform="matrix(1,0,0,1,-35.96,-31.57)">
        <path d="M188.37,167.24C199.77,166.07 211.86,166.58 222.34,171.67C230.21,175.44 236.27,182.58 238.89,190.88C242.64,202.5 241.34,215.07 238.45,226.73C234.85,241.21 227.05,254.94 215.12,264.13C200.87,275.28 182.04,279.68 164.21,277.79C153.62,276.64 142.77,272.55 135.83,264.13C128.89,255.84 126.95,244.5 127.8,233.99C129.04,219 134.19,204.24 142.96,191.99C153.23,177.22 170.78,168.98 188.37,167.24M186.37,188.57C174.52,190.53 166.67,201.21 162.95,211.9C159.72,221.1 157.48,230.97 158.55,240.77C159.17,246.64 162.33,252.66 168.06,254.92C178.15,258.8 190.56,255.87 197.68,247.66C205.08,239.18 208.24,227.93 209.91,217.02C210.93,209.37 211.23,200.83 206.91,194.08C202.21,187.91 193.42,187.4 186.37,188.57Z" style="fill:rgb(1,51,120);fill-rule:nonzero;"/>
    </g>
    <g transform="matrix(1,0,0,1,-35.96,-31.57)">
        <path d="M285.17,175.15C294.49,169.78 305.34,167.6 316.03,167.48C325.92,167.33 336.26,168.15 345.17,172.82C351.43,176.05 356.31,181.91 358.04,188.77C359.3,193.44 358.83,198.34 358.12,203.06C348.02,203.06 337.93,203.07 327.83,203.05C327.81,199.08 327.45,194.58 324.24,191.78C320,188.08 313.85,187.89 308.58,188.83C301.53,190.07 295.63,194.89 291.81,200.78C286.58,208.66 284.02,217.94 282.23,227.13C281.01,233.99 280.49,241.36 283.14,247.97C284.95,252.59 289.3,255.95 294.18,256.76C300.96,257.92 308.65,256.67 313.75,251.74C316.68,249.04 318.32,245.34 319.85,241.74C330.05,241.78 340.25,241.71 350.46,241.78C348.05,253.02 341.22,263.36 331.18,269.15C320.03,275.79 306.77,277.86 293.96,277.79C283.15,277.61 271.73,275.78 262.89,269.11C255.85,263.9 252.19,255.28 251.1,246.79C249.69,235.45 251.82,223.96 255.27,213.16C260.39,197.55 270.76,183.35 285.17,175.15Z" style="fill:rgb(1,51,120);fill-rule:nonzero;"/>
    </g>
    <g transform="matrix(1,0,0,1,-35.96,-31.57)">
        <path d="M57.8,172.65C58.13,171.47 58.14,169.27 59.98,169.64C69.45,169.58 78.93,169.63 88.4,169.64C82.43,198.04 76.31,226.42 70.35,254.82C86.23,254.8 102.11,254.83 117.98,254.81C116.53,261.79 115.01,268.76 113.57,275.74C87.7,275.78 61.83,275.74 35.96,275.76C43.22,241.38 50.59,207.03 57.8,172.65Z" style="fill:rgb(1,51,120);fill-rule:nonzero;"/>
    </g>
    <g transform="matrix(1,0,0,1,-35.96,-31.57)">
        <path d="M382.97,169.62C392.95,169.63 402.93,169.61 412.91,169.64C409.64,185.1 406.33,200.56 403.11,216.04C417,201.29 430.92,186.56 444.76,171.77C445.74,170.98 446.54,169.51 447.99,169.66C459.21,169.59 470.44,169.59 481.66,169.68C466.3,185.33 450.77,200.8 435.29,216.33C444.19,236.17 453.26,255.92 462.19,275.74C449.99,275.76 437.78,275.78 425.58,275.73C417.91,257 410.25,238.28 402.43,219.62C398.36,238.31 394.4,257.02 390.41,275.73C380.43,275.78 370.45,275.74 360.47,275.76C367.92,240.37 375.48,205 382.97,169.62Z" style="fill:rgb(1,51,120);fill-rule:nonzero;"/>
    </g>
    <g transform="matrix(1,0,0,1,-35.96,-31.57)">
        <path d="M473.26,275.71C480.8,240.35 488.25,204.97 495.81,169.61C505.72,169.65 515.64,169.6 525.56,169.64C522.72,183.45 519.77,197.24 516.92,211.05C528.72,211.04 540.52,211.13 552.32,211C555.14,197.2 558.09,183.42 560.95,169.63C570.94,169.63 580.92,169.61 590.9,169.64C583.41,205 575.86,240.36 568.4,275.74C558.42,275.78 548.43,275.74 538.45,275.76C541.43,261.46 544.54,247.19 547.53,232.89C535.7,232.86 523.87,232.9 512.03,232.87C508.98,247.17 505.96,261.47 502.9,275.77C493.02,275.71 483.14,275.82 473.26,275.71Z" style="fill:rgb(1,51,120);fill-rule:nonzero;"/>
    </g>
    <g transform="matrix(1,0,0,1,-35.96,-31.57)">
        <path d="M610.77,170.01C637.38,169.86 664,169.96 690.61,169.95C689.43,175.71 688.2,181.45 687.03,187.21C686.65,188.31 686.75,190.58 684.97,190.24C668.55,190.29 652.14,190.21 635.72,190.27C634.2,197.6 632.6,204.92 631.05,212.25C646.94,212.27 662.83,212.19 678.72,212.29C677.22,219.04 675.76,225.79 674.31,232.55C658.42,232.57 642.53,232.57 626.65,232.56C625.04,240.06 623.5,247.59 621.94,255.11C639.19,255.14 656.44,255.11 673.69,255.12C672.27,262 670.73,268.85 669.32,275.73C642.31,275.78 615.3,275.75 588.28,275.75C595.79,240.5 603.33,205.26 610.77,170.01Z" style="fill:rgb(1,51,120);fill-rule:nonzero;"/>
    </g>
    <g transform="matrix(1,0,0,1,-35.96,-31.57)">
        <path d="M708.93,169.92C735.54,169.97 762.14,169.91 788.75,169.95C787.32,176.7 785.88,183.45 784.5,190.22C767.62,190.29 750.75,190.23 733.87,190.25C732.28,197.57 730.75,204.92 729.15,212.25C745.04,212.25 760.94,212.24 776.83,212.25C775.35,219.02 773.88,225.79 772.41,232.56C756.53,232.56 740.64,232.58 724.76,232.55C723.15,240.06 721.62,247.59 720.04,255.11C737.29,255.14 754.55,255.12 771.8,255.12C770.4,262 768.83,268.85 767.42,275.74C740.42,275.78 713.43,275.73 686.43,275.76C693.88,240.47 701.44,205.2 708.93,169.92Z" style="fill:rgb(1,51,120);fill-rule:nonzero;"/>
    </g>
    <g transform="matrix(1,0,0,1,-35.96,-31.57)">
        <path d="M785.1,275.75C792.64,240.38 800.08,204.98 807.66,169.61C824.1,169.69 840.54,169.51 856.97,169.71C867.69,170.15 878.96,171.08 888.45,176.54C897.96,182.17 903.06,193.24 903.48,204.02C904.03,216.45 901.01,228.86 896.21,240.26C890.84,252.91 880.84,263.56 868.26,269.2C857.35,274.48 845.02,275.68 833.05,275.73C817.07,275.79 801.08,275.74 785.1,275.75M833.55,189.88C829.02,211.67 824.35,233.44 819.78,255.23C829.65,255.13 839.93,256.11 849.31,252.34C857.08,249.42 863.33,243.21 866.85,235.76C870.7,227.49 873.05,218.3 872.53,209.14C872.21,202.63 868.78,196.08 862.76,193.17C853.71,188.67 843.29,190.28 833.55,189.88Z" style="fill:rgb(1,51,120);fill-rule:nonzero;"/>
    </g>
    <g transform="matrix(1,0,0,1,-35.96,-31.57)">
        <path d="M955.14,275.75C962.68,240.37 970.12,204.98 977.69,169.61C993.15,169.64 1008.61,169.61 1024.07,169.63C1024.92,193.48 1025.7,217.33 1026.58,241.18C1037.13,217.78 1047.4,194.24 1057.94,170.83C1058.45,169.1 1060.6,169.78 1061.93,169.59C1076.23,169.65 1090.52,169.46 1104.82,169.52C1097.37,204.94 1089.81,240.33 1082.35,275.74C1073.05,275.78 1063.75,275.74 1054.46,275.76C1060.93,246.67 1067.93,217.69 1074.16,188.55C1059.32,217.42 1045.22,246.69 1030.71,275.74C1021.86,275.77 1013,275.74 1004.15,275.76C1002.35,246.11 1000.92,216.42 998.91,186.78C992.83,216.43 986.74,246.09 980.69,275.75C972.17,275.76 963.65,275.76 955.14,275.75Z" style="fill:rgb(1,51,120);fill-rule:nonzero;"/>
    </g>
    <g transform="matrix(1,0,0,1,-35.96,-31.57)">
        <path d="M1157.1,172.07C1157.85,171.14 1158.4,169.36 1159.94,169.64C1171.49,169.61 1183.04,169.6 1194.6,169.66C1200.99,205.03 1207.54,240.38 1213.99,275.75C1202.88,275.76 1191.76,275.76 1180.65,275.75C1179.74,268.64 1178.8,261.54 1177.86,254.43C1163.71,254.45 1149.56,254.43 1135.42,254.44C1131.52,261.55 1127.55,268.62 1123.68,275.74C1113.82,275.78 1103.96,275.74 1094.11,275.76C1115.11,241.2 1136.13,206.65 1157.1,172.07M1146.5,234.85C1156.07,234.9 1165.64,234.86 1175.21,234.88C1173.74,220 1172.49,205.1 1170.84,190.24C1162.48,204.98 1154.63,220 1146.5,234.85Z" style="fill:rgb(1,51,120);fill-rule:nonzero;"/>
    </g>
    <g transform="matrix(1,0,0,1,-35.96,-31.57)">
        <path d="M1225.06,275.76C1232.58,240.37 1240.05,204.98 1247.61,169.6C1265.74,169.69 1283.86,169.53 1301.98,169.69C1308.1,169.89 1314.39,169.85 1320.28,171.8C1327.08,174.02 1331.5,181.02 1331.71,188.02C1332.02,196.76 1329.79,206.13 1323.65,212.63C1317.18,219.07 1308.08,221.64 1299.36,223.31C1304.69,224.1 1310.83,224.05 1314.98,228.03C1318.58,231.67 1318.58,237.21 1318.52,241.99C1318.06,253.24 1316.55,264.5 1317.45,275.78C1306.79,275.73 1296.14,275.77 1285.48,275.75C1285.06,264.76 1287.42,253.93 1287.79,242.98C1288.05,239.66 1286.47,235.87 1282.92,235.13C1276.57,233.65 1269.96,234.55 1263.51,234.32C1260.63,248.14 1257.62,261.93 1254.72,275.75C1244.83,275.76 1234.95,275.75 1225.06,275.76M1273.1,189.25C1271.29,197.89 1269.47,206.53 1267.68,215.17C1274.76,215.05 1281.88,215.55 1288.94,214.75C1297.57,213.61 1303.11,203.84 1301.29,195.69C1300.26,191.79 1296.04,190.1 1292.41,189.65C1286,188.91 1279.53,189.38 1273.1,189.25Z" style="fill:rgb(1,51,120);fill-rule:nonzero;"/>
    </g>
    <g transform="matrix(1,0,0,1,-35.96,-31.57)">
        <path d="M1341.25,190.7C1342.76,183.68 1344.2,176.64 1345.71,169.62C1377.46,169.63 1409.2,169.62 1440.95,169.63C1439.48,176.64 1437.98,183.65 1436.55,190.68C1425.49,190.72 1414.44,190.63 1403.39,190.73C1397.45,219.08 1391.31,247.39 1385.35,275.73C1375.42,275.78 1365.48,275.75 1355.55,275.75C1361.53,247.39 1367.63,219.06 1373.61,190.71C1362.82,190.67 1352.04,190.68 1341.25,190.7Z" style="fill:rgb(1,51,120);fill-rule:nonzero;"/>
    </g>
    <g transform="matrix(1,0,0,1,-35.96,-31.57)">
        <path d="M1451.12,169.66C1461.25,169.59 1471.39,169.62 1481.53,169.65C1474.04,205.02 1466.53,240.39 1459.01,275.75C1448.89,275.76 1438.77,275.75 1428.65,275.76C1436.09,240.38 1443.7,205.04 1451.12,169.66Z" style="fill:rgb(1,51,120);fill-rule:nonzero;"/>
    </g>
    <g transform="matrix(1,0,0,1,-35.96,-31.57)">
        <path d="M1501.14,169.66C1514.71,169.59 1528.28,169.63 1541.85,169.64C1548.21,195.67 1554.27,221.77 1560.88,247.73C1566.75,221.8 1571.84,195.68 1577.34,169.66C1585.95,169.59 1594.57,169.62 1603.19,169.64C1595.71,205.01 1588.16,240.37 1580.69,275.74C1567.42,275.77 1554.16,275.75 1540.89,275.76C1534.49,248.43 1528.31,221.06 1521.77,193.77C1516.01,221.08 1510.32,248.42 1504.64,275.75C1495.98,275.76 1487.32,275.76 1478.67,275.75C1486.1,240.38 1493.7,205.03 1501.14,169.66Z" style="fill:rgb(1,51,120);fill-rule:nonzero;"/>
    </g>
    <g transform="matrix(1,0,0,1,-35.96,-31.57)">
        <path d="M1615.04,272.06C1654.07,249.28 1693.02,226.35 1732.07,203.6C1731.47,208.13 1731.45,212.78 1730.31,217.22C1693.64,235.99 1656.7,254.29 1619.95,272.93C1617.59,274.18 1615.15,275.31 1612.56,275.9C1612.71,274.24 1613.4,272.72 1615.04,272.06Z" style="fill:rgb(1,51,120);fill-rule:nonzero;"/>
    </g>
</svg>
