<?xml version="1.0" encoding="UTF-8" standalone="no"?>
<!DOCTYPE svg PUBLIC "-//W3C//DTD SVG 1.1//EN" "http://www.w3.org/Graphics/SVG/1.1/DTD/svg11.dtd">
<svg width="100%" height="100%" viewBox="0 0 1500 365" version="1.1" xmlns="http://www.w3.org/2000/svg" xmlns:xlink="http://www.w3.org/1999/xlink" xml:space="preserve" xmlns:serif="http://www.serif.com/" style="fill-rule:evenodd;clip-rule:evenodd;stroke-linejoin:round;stroke-miterlimit:2;">
    <g id="_-fefefeff" serif:id="#fefefeff">
        <path d="M159.46,0L161.12,0C167.23,0.24 172.97,4.2 175.37,9.83C179.28,18.16 174.57,29.06 165.78,31.84C156.95,35.31 146.18,29.29 144.37,20.03C141.8,10.54 149.68,0.25 159.46,0Z" style="fill:rgb(35,141,172);fill-rule:nonzero;"/>
        <path d="M82.4,42.65C91.82,38.51 103.72,45.58 104.67,55.8C106.06,64.64 98.96,73.51 90.09,74.27C81.23,75.38 72.38,68.03 72.11,59.07C71.4,52.08 75.88,45.13 82.4,42.65Z" style="fill:rgb(35,141,172);fill-rule:nonzero;"/>
        <path d="M226.45,42.57C236.28,38.37 248.56,46.38 248.61,57.06C249.64,67.48 238.71,76.68 228.62,73.89C220.18,72.18 214.11,62.95 216.27,54.54C217.24,49.11 221.36,44.55 226.45,42.57Z" style="fill:rgb(35,141,172);fill-rule:nonzero;"/>
        <path d="M154.44,79.61C165.48,75.84 178.48,83.7 180.56,95.1C182.46,103.2 178.75,112.16 171.81,116.69C167.25,119.65 161.48,120.97 156.14,119.7C147.97,118.14 141.23,111.12 139.93,102.92C138.03,92.96 144.66,82.3 154.44,79.61Z" style="fill:rgb(35,141,172);fill-rule:nonzero;"/>
        <path d="M14.31,83.22C23.55,81.66 32.93,89.54 32.83,98.93C33.43,107.65 25.76,115.81 17.05,115.81C8.3,116.41 0.15,108.72 0.07,99.99C-0.4,91.83 6.21,84.09 14.31,83.22Z" style="fill:rgb(35,141,172);fill-rule:nonzero;"/>
        <path d="M299.47,83.72C309.34,80.43 320.78,88.54 320.56,99C321.17,108.01 312.94,116.31 303.94,115.81C294.22,116.03 285.94,106.01 288.07,96.5C289.09,90.56 293.7,85.44 299.47,83.72Z" style="fill:rgb(35,141,172);fill-rule:nonzero;"/>
        <path d="M1260.91,117.81C1270.48,109.44 1283.57,107.01 1295.86,105.93C1312.42,104.69 1330.38,105.82 1344.45,115.61C1355.64,123 1361.9,136.41 1362.03,149.64C1351.26,149.72 1340.49,149.59 1329.73,149.71C1329.1,143.84 1325.41,138.44 1319.8,136.33C1311.6,133.22 1302.42,133.14 1293.91,134.9C1289.05,135.84 1284.54,139.09 1282.79,143.81C1281.06,149.2 1282.79,155.97 1288.01,158.78C1294.28,162.02 1301.23,163.63 1308.1,165.1C1319.5,167.38 1330.93,169.89 1341.77,174.19C1349.69,177.3 1357.07,182.4 1361.74,189.62C1366.84,197.67 1367.93,207.66 1366.88,216.96C1365.36,232.9 1354.79,247.96 1339.77,253.88C1330.98,257.57 1321.4,258.79 1311.95,259.36C1299.48,259.74 1286.75,259.19 1274.78,255.39C1267.12,252.89 1259.66,248.75 1254.82,242.16C1247.13,232.56 1242.27,220.51 1242.23,208.13C1253.72,208.13 1265.21,208.21 1276.71,208.08C1277.23,215.88 1280.97,224.13 1288.18,227.84C1295.09,231.22 1303.04,231.38 1310.58,231.12C1316.73,230.55 1323.5,229.77 1328.29,225.46C1332.96,221.17 1333.1,213.64 1330.13,208.36C1326.21,202.15 1318.96,199.45 1312.27,197.42C1299.36,194.08 1286.07,192.08 1273.47,187.6C1265.2,184.38 1257.12,179.33 1252.56,171.49C1247.81,163.92 1246.77,154.72 1247.17,145.97C1247.44,135.17 1252.76,124.81 1260.91,117.81Z" style="fill:rgb(35,141,172);fill-rule:nonzero;"/>
        <path d="M425.32,255.31C425.32,206.77 425.31,158.23 425.32,109.69C441.36,109.7 457.4,109.72 473.44,109.67C485.03,143.06 496.89,176.37 508.16,209.86C519.97,176.55 531.46,143.12 543,109.72C559.1,109.66 575.2,109.72 591.3,109.69C591.29,158.23 591.29,206.77 591.3,255.31C579.82,255.29 568.34,255.32 556.87,255.29C556.88,223.53 556.87,191.77 556.87,160.01C556.84,156.9 557.09,153.75 556.51,150.67C544.38,185.56 532.05,220.38 519.96,255.28C512.19,255.34 504.42,255.27 496.66,255.32C484.36,220.48 472.41,185.52 459.92,150.76C459.4,153.12 459.61,155.55 459.59,157.95C459.62,190.4 459.58,222.86 459.62,255.31C448.18,255.3 436.75,255.29 425.32,255.31Z" style="fill:rgb(35,141,172);fill-rule:nonzero;"/>
        <path d="M660.3,109.67C671.85,109.75 683.39,109.66 694.94,109.72C713.24,158.24 731.36,206.82 749.75,255.31C737.63,255.32 725.52,255.26 713.4,255.34C710.14,246.33 707.06,237.25 704.01,228.17C686.34,228.09 668.68,228.1 651.02,228.17C648.15,237.25 644.81,246.18 642.01,255.29C629.93,255.33 617.86,255.28 605.79,255.31C623.95,206.76 642.07,158.2 660.3,109.67M658.57,203.31C671.22,203.3 683.86,203.3 696.5,203.31C690.28,184.76 683.76,166.29 677.83,147.64C671.23,166.13 665.1,184.79 658.57,203.31Z" style="fill:rgb(35,141,172);fill-rule:nonzero;"/>
        <path d="M763.26,109.7C774.83,109.7 786.39,109.68 797.95,109.71C809.49,127.93 821.08,146.14 832.62,164.37C840.52,176.44 847.76,188.97 856.05,200.78C856.18,185.85 856.08,170.92 856.11,155.99L856.11,122.01C856.15,117.91 856.08,113.81 855.85,109.71C867.33,109.67 878.82,109.72 890.32,109.69C890.31,158.23 890.31,206.77 890.32,255.31C878.68,255.3 867.05,255.28 855.42,255.32C836.15,224.8 816.96,194.23 797.67,163.73C797.44,194.25 797.62,224.78 797.57,255.31C786.13,255.29 774.7,255.31 763.26,255.3C763.29,206.77 763.28,158.23 763.26,109.7Z" style="fill:rgb(35,141,172);fill-rule:nonzero;"/>
        <path d="M922.31,109.69C933.74,109.7 945.18,109.7 956.61,109.69C956.6,158.23 956.6,206.77 956.62,255.31C945.18,255.3 933.74,255.3 922.3,255.31C922.33,206.77 922.31,158.23 922.31,109.69Z" style="fill:rgb(35,141,172);fill-rule:nonzero;"/>
        <path d="M988.68,109.69C1023.9,109.7 1059.12,109.7 1094.35,109.69C1094.33,119.09 1094.33,128.49 1094.34,137.89C1070.63,137.81 1046.91,137.93 1023.2,137.83C1022.52,148.96 1023.1,160.14 1022.9,171.29C1043.05,171.31 1063.2,171.31 1083.35,171.29C1083.34,180.72 1083.34,190.14 1083.36,199.56C1063.2,199.54 1043.05,199.53 1022.9,199.57C1023,218.14 1022.72,236.72 1023.04,255.28C1011.59,255.33 1000.13,255.28 988.67,255.31C988.68,206.77 988.67,158.23 988.68,109.69Z" style="fill:rgb(35,141,172);fill-rule:nonzero;"/>
        <path d="M1112.81,109.69C1151.14,109.7 1189.46,109.7 1227.78,109.69C1227.77,119.09 1227.79,128.49 1227.77,137.89C1200.92,137.83 1174.07,137.89 1147.23,137.86C1147.12,147.76 1147.23,157.65 1147.17,167.55C1170.88,167.54 1194.6,167.55 1218.31,167.54C1218.29,176.49 1218.3,185.43 1218.31,194.37C1194.6,194.36 1170.88,194.38 1147.17,194.37C1147.22,205.29 1147.12,216.22 1147.23,227.15C1174.75,227.15 1202.27,227.16 1229.8,227.15C1229.82,236.53 1229.79,245.92 1229.82,255.31C1190.81,255.3 1151.81,255.3 1112.81,255.31C1112.82,206.77 1112.81,158.23 1112.81,109.69Z" style="fill:rgb(35,141,172);fill-rule:nonzero;"/>
        <path d="M1377.65,109.69C1418.44,109.71 1459.22,109.68 1500,109.7L1500,137.84C1485.39,137.89 1470.77,137.85 1456.16,137.86C1456.06,177 1456.14,216.15 1456.12,255.29C1444.65,255.32 1433.18,255.29 1421.72,255.31C1421.71,216.16 1421.76,177.01 1421.69,137.86C1407.01,137.88 1392.33,137.83 1377.66,137.89C1377.66,128.49 1377.66,119.09 1377.65,109.69Z" style="fill:rgb(35,141,172);fill-rule:nonzero;"/>
        <path d="M73.55,126.55C77.78,122.17 84.02,119.81 90.09,120.34C97.24,120.84 103.91,125.44 107.01,131.9C108.93,135.65 109.28,139.98 109.12,144.13C120.54,150.72 132,157.25 143.37,163.95C147.87,160.39 153.27,157.71 159.1,157.52C165.69,157.12 172.2,159.66 177.16,163.93C188.69,157.35 200.15,150.64 211.67,144.03C211.1,138.61 212.4,133 215.68,128.6C219.85,122.93 227.09,119.69 234.1,120.36C242.75,120.97 250.46,127.71 252.42,136.13C253.58,141.86 252.73,148.2 249.14,152.95C246.85,156.32 243.39,158.59 239.86,160.49C239.89,175.16 239.9,189.84 239.85,204.51C247.46,207.96 253.02,215.5 253.09,224C252.86,230.16 250.2,236.28 245.27,240.12C239.04,245.33 229.67,246.18 222.55,242.32C214.3,238.06 209.68,227.78 212.26,218.81C213.82,212.46 218.65,207.3 224.58,204.72C224.6,189.9 224.6,175.09 224.58,160.28C222.76,159.34 220.99,158.31 219.25,157.25C207.86,164.19 196.03,170.38 184.75,177.48C188.08,190.69 178.11,204.96 164.82,207.12C153.21,209.45 140.74,202.23 136.86,191.08C135.1,186.64 135.15,181.77 135.77,177.11C124.26,170.52 112.79,163.87 101.31,157.24C99.64,158.31 97.94,159.33 96.18,160.25C96.13,175.08 96.14,189.92 96.18,204.75C102.42,207.49 107.44,213.17 108.68,219.95C110.37,227.62 107.07,236.07 100.72,240.66C94.38,245.52 85.16,246.04 78.26,242.09C70.89,238.06 66.55,229.21 67.93,220.92C68.96,213.73 74.11,207.57 80.71,204.71C80.73,189.9 80.72,175.09 80.7,160.27C74.97,157.81 70.28,152.9 68.56,146.85C66.34,139.84 68.44,131.78 73.55,126.55Z" style="fill:rgb(35,141,172);fill-rule:nonzero;"/>
        <path d="M14.31,166.28C19.57,165.54 25.06,167.48 28.59,171.46C33.89,176.99 34.28,186.38 29.58,192.38C24.84,198.94 15.05,200.84 8.17,196.65C1.36,192.79 -1.87,183.69 1.25,176.45C3.34,171.05 8.53,166.9 14.31,166.28Z" style="fill:rgb(35,141,172);fill-rule:nonzero;"/>
        <path d="M299.55,166.75C308.99,163.72 319.83,170.93 320.53,180.83C321.81,190.18 313.44,199.38 304,198.83C294.22,199.19 285.9,189.04 288.11,179.53C289.08,173.54 293.77,168.47 299.55,166.75Z" style="fill:rgb(35,141,172);fill-rule:nonzero;"/>
        <path d="M158.65,244.9C165.11,244.33 171.79,247.09 176,252.02C180.02,256.67 181.86,263.15 180.69,269.2C179.36,277.51 172.4,284.49 164.11,285.92C153.17,288.33 141.53,280.01 139.92,268.99C137.62,257.48 146.98,245.61 158.65,244.9Z" style="fill:rgb(35,141,172);fill-rule:nonzero;"/>
        <path d="M12.44,249.63C20.41,247.49 29.35,252.28 31.96,260.1C34.07,266.14 32.43,273.36 27.58,277.61C22.02,282.99 12.48,283.4 6.48,278.53C2.08,275.24 -0.4,269.64 0.13,264.17C0.58,257.35 5.87,251.31 12.44,249.63Z" style="fill:rgb(35,141,172);fill-rule:nonzero;"/>
        <path d="M299.61,249.78C309.39,246.59 320.64,254.65 320.55,264.96C321.26,273.99 313.01,282.46 303.96,281.9C296.57,282.07 289.74,276.35 288.21,269.19C286.06,261.02 291.58,252.05 299.61,249.78Z" style="fill:rgb(35,141,172);fill-rule:nonzero;"/>
        <path d="M82.55,291.76C91.95,287.74 103.57,294.77 104.65,304.84C106.01,313.09 100.02,321.57 91.83,323.12C82.87,325.38 72.93,318.34 72.19,309.11C71.1,301.83 75.66,294.29 82.55,291.76Z" style="fill:rgb(35,141,172);fill-rule:nonzero;"/>
        <path d="M226.54,291.72C236.29,287.59 248.43,295.51 248.59,306.06C249.62,315.66 240.54,324.45 231.02,323.48C221.84,322.97 214.32,313.65 216.08,304.56C216.92,298.8 221.07,293.7 226.54,291.72Z" style="fill:rgb(35,141,172);fill-rule:nonzero;"/>
        <path d="M144.16,351.22C142.31,341.83 150.39,332.09 159.97,332.26C168.58,331.82 176.66,339.27 176.67,347.94C177.37,356.54 170.05,364.55 161.5,365L159.35,365C151.89,364.64 145.2,358.61 144.16,351.22Z" style="fill:rgb(35,141,172);fill-rule:nonzero;"/>
    </g>
</svg>
