<?xml version="1.0" encoding="UTF-8" standalone="no"?>
<!DOCTYPE svg PUBLIC "-//W3C//DTD SVG 1.1//EN" "http://www.w3.org/Graphics/SVG/1.1/DTD/svg11.dtd">
<svg width="100%" height="100%" viewBox="0 0 139 30" version="1.1" xmlns="http://www.w3.org/2000/svg" xmlns:xlink="http://www.w3.org/1999/xlink" xml:space="preserve" xmlns:serif="http://www.serif.com/" style="fill-rule:evenodd;clip-rule:evenodd;stroke-linejoin:round;stroke-miterlimit:2;">
    <g id="Path_29" transform="matrix(1,0,0,1,0,-16.51)">
        <path d="M0,38.919L0,23.236L3.363,23.236L3.363,25.173C3.844,24.419 4.533,23.821 5.347,23.452C6.197,23.022 7.137,22.799 8.089,22.8C9.862,22.701 11.548,23.606 12.445,25.139C12.986,24.407 13.706,23.826 14.536,23.451C15.425,23.019 16.401,22.797 17.389,22.8C18.727,22.73 20.036,23.219 21,24.149C21.927,25.121 22.415,26.432 22.349,27.774L22.349,38.917L18.986,38.917L18.986,28.891C18.986,26.985 17.963,25.837 16.274,25.837C15.34,25.798 14.435,26.178 13.81,26.874C13.158,27.647 12.826,28.64 12.88,29.649L12.88,38.916L9.515,38.916L9.515,28.8C9.525,28.706 9.53,28.611 9.53,28.516C9.53,27.047 8.321,25.838 6.852,25.838C6.82,25.838 6.788,25.839 6.756,25.84C5.799,25.828 4.892,26.278 4.323,27.048C3.65,27.954 3.31,29.066 3.363,30.193L3.363,38.919L0,38.919Z" style="fill-rule:nonzero;stroke:white;stroke-width:1px;"/>
    </g>
    <g id="Path_30" transform="matrix(1,0,0,1,-166.752,-16.517)">
        <path d="M243.158,34.479L242.91,34.479C242.289,35.058 241.584,35.538 240.819,35.905C240.111,36.195 239.352,36.337 238.587,36.324C237.23,36.377 235.915,35.833 234.992,34.837C234.082,33.805 233.599,32.463 233.643,31.088C233.596,29.716 234.08,28.378 234.992,27.353C235.909,26.347 237.227,25.798 238.587,25.853C239.369,25.836 240.147,25.967 240.88,26.239C241.643,26.552 242.342,27.004 242.941,27.571L243.159,27.571L243.159,24.142C241.821,23.237 240.233,22.771 238.618,22.81C236.469,22.797 234.388,23.575 232.775,24.995C231.121,26.581 230.215,28.796 230.281,31.086C230.25,32.643 230.652,34.177 231.442,35.519C232.166,36.744 233.218,37.743 234.479,38.402C235.758,39.059 237.179,39.394 238.617,39.379C240.233,39.421 241.819,38.929 243.127,37.979L243.157,37.279L243.157,34.479L243.158,34.479Z" style="fill-rule:nonzero;stroke:white;stroke-width:1px;"/>
    </g>
    <g id="Path_31" transform="matrix(1,0,0,1,-210.619,-16.517)">
        <path d="M300.949,23.538C300.232,23.04 299.374,22.785 298.502,22.81C296.778,22.832 295.173,23.71 294.223,25.149L294.223,23.243L290.86,23.243L290.86,38.927L294.223,38.927L294.223,30.744C294.117,29.36 294.55,27.987 295.431,26.915C296.107,26.222 297.037,25.835 298.005,25.845C299.094,25.878 300.129,26.334 300.888,27.117L300.949,27.117L300.949,23.538Z" style="fill-rule:nonzero;stroke:white;stroke-width:1px;"/>
    </g>
    <g id="Path_32" transform="matrix(1,0,0,1,-336.624,-5.815)">
        <path d="M472.865,25.744C472.389,25.744 471.93,25.565 471.579,25.244C471.193,24.868 470.99,24.342 471.022,23.804L471.022,15.47L475.408,15.47L475.408,12.54L471.022,12.54L471.022,8.03L467.659,9.564L467.659,12.541L464.87,12.541L464.87,15.471L467.659,15.471L467.659,23.808C467.568,25.136 468.022,26.445 468.914,27.433C469.774,28.267 470.939,28.715 472.136,28.672C473.276,28.682 474.4,28.404 475.405,27.866L475.405,24.792C474.695,25.395 473.796,25.732 472.865,25.744Z" style="fill-rule:nonzero;stroke:white;stroke-width:1px;"/>
    </g>
    <g id="Path_33" transform="matrix(1,0,0,1,-66.649,-16.51)">
        <path d="M106.25,34.16C104.711,35.622 102.654,36.419 100.531,36.375C99.302,36.395 98.101,36.002 97.121,35.26C96.102,34.439 95.467,33.232 95.369,31.927L107.736,31.927L107.736,30.7C107.894,27.936 106.508,25.302 104.141,23.867C102.876,23.135 101.434,22.764 99.973,22.797C97.856,22.798 95.827,23.653 94.348,25.167C92.849,26.763 92.021,28.877 92.039,31.067C92.028,32.535 92.408,33.979 93.139,35.252C93.851,36.508 94.89,37.547 96.146,38.259C97.435,38.991 98.895,39.37 100.378,39.359C102.546,39.366 104.668,38.724 106.469,37.516L106.469,34.16L106.25,34.16ZM97.168,26.5C97.952,25.835 98.946,25.468 99.974,25.463C101.085,25.435 102.164,25.841 102.981,26.594C103.824,27.351 104.354,28.397 104.468,29.524L95.468,29.524C95.648,28.343 96.253,27.267 97.168,26.5Z" style="fill-rule:nonzero;stroke:white;stroke-width:1px;"/>
    </g>
    <g id="Path_71" transform="matrix(-3.82857e-16,-1,1,-3.82857e-16,0,29.136)">
        <rect x="0" y="0" width="3.363" height="60.3" style="fill:rgb(0,174,239);fill-rule:nonzero;"/>
    </g>
    <g id="Path_34" transform="matrix(1,0,0,1,-289.122,-16.51)">
        <path d="M413.7,25.126C412.245,23.59 410.204,22.744 408.089,22.8C406.032,22.817 404.065,23.66 402.635,25.139L402.635,23.233L399.27,23.233L399.27,45.642L402.633,45.642L402.633,37.107C404.052,38.593 406.033,39.415 408.087,39.369C410.159,39.394 412.157,38.59 413.635,37.137C415.171,35.502 415.996,33.321 415.927,31.079C416.018,28.876 415.214,26.728 413.7,25.126ZM411.157,34.8C410.194,35.771 408.883,36.317 407.515,36.317C406.148,36.317 404.837,35.771 403.874,34.8C402.021,32.68 402.021,29.482 403.874,27.362C404.836,26.39 406.148,25.842 407.515,25.842C408.883,25.842 410.195,26.39 411.157,27.362C413.028,29.475 413.028,32.687 411.157,34.8Z" style="fill-rule:nonzero;stroke:white;stroke-width:1px;"/>
    </g>
    <g id="Path_35" transform="matrix(1,0,0,1,-241.474,-17.654)">
        <path d="M334.75,46.789L338.229,46.789L349.123,24.38L345.636,24.38L341.31,33.462L337.064,24.38L333.47,24.38L339.639,37.12L334.75,46.789Z" style="fill-rule:nonzero;stroke:white;stroke-width:1px;"/>
    </g>
    <g id="Path_36" transform="matrix(1,0,0,1,-114.542,0)">
        <path d="M171.477,0L171.477,8.538C170.167,7.011 168.217,6.179 166.208,6.29C164.061,6.228 161.98,7.052 160.459,8.569C158.903,10.167 158.077,12.341 158.18,14.569C158.159,16.072 158.522,17.555 159.234,18.878C159.906,20.106 160.903,21.125 162.117,21.822C163.344,22.521 164.736,22.879 166.148,22.859C168.16,22.873 170.09,22.053 171.478,20.597L171.478,22.409L174.841,22.409L174.841,0L171.477,0ZM170.222,18.288C169.259,19.259 167.948,19.805 166.581,19.805C165.213,19.805 163.902,19.259 162.939,18.288C162.006,17.278 161.504,15.943 161.539,14.569C161.502,13.195 162.005,11.859 162.939,10.85C163.901,9.878 165.213,9.33 166.581,9.33C167.948,9.33 169.26,9.878 170.222,10.85C171.164,11.855 171.671,13.192 171.632,14.569C171.671,15.946 171.164,17.283 170.222,18.288Z" style="fill-rule:nonzero;stroke:white;stroke-width:1px;"/>
    </g>
</svg>
