<?xml version="1.0" encoding="UTF-8" ?>
<!DOCTYPE svg PUBLIC "-//W3C//DTD SVG 1.1//EN" "http://www.w3.org/Graphics/SVG/1.1/DTD/svg11.dtd">
<svg width="540pt" height="144pt" viewBox="0 0 540 144" version="1.1" xmlns="http://www.w3.org/2000/svg">
<g id="#3f79bdff">
<path fill="#3f79bd" opacity="1.00" d=" M 9.37 32.66 C 21.75 28.36 34.54 24.37 47.75 24.16 C 47.94 28.19 47.99 32.23 47.68 36.25 C 43.06 36.85 38.59 38.23 33.97 38.85 C 35.25 42.84 38.18 45.99 40.26 49.56 C 41.49 51.93 44.25 54.01 43.40 56.97 C 41.67 56.33 39.98 55.56 38.45 54.53 C 28.61 48.00 18.96 41.19 9.55 34.06 C 9.50 33.71 9.42 33.01 9.37 32.66 Z" />
<path fill="#3f79bd" opacity="1.00" d=" M 57.40 24.20 C 70.55 24.57 83.25 28.48 95.60 32.71 C 95.60 33.06 95.60 33.75 95.60 34.09 C 85.81 41.57 75.71 48.65 65.40 55.41 C 64.05 56.22 61.30 58.07 61.34 55.15 C 64.31 50.34 67.35 45.56 70.59 40.92 C 70.63 40.40 70.71 39.36 70.75 38.84 C 66.23 38.30 61.83 37.09 57.36 36.27 C 56.91 32.26 56.92 28.21 57.40 24.20 Z" />
<path fill="#3f79bd" opacity="1.00" d=" M 5.78 38.48 C 8.22 38.14 9.93 40.09 11.79 41.32 C 21.43 48.13 31.11 54.90 40.54 62.00 C 40.20 62.41 39.50 63.24 39.15 63.66 C 31.89 62.89 24.76 61.19 17.49 60.45 C 17.65 67.29 21.75 73.33 22.34 80.01 C 20.57 82.15 18.14 83.58 15.88 85.13 C 8.61 70.81 5.43 54.47 5.78 38.48 Z" />
<path fill="#3f79bd" opacity="1.00" d=" M 95.66 39.75 C 96.69 38.92 97.86 38.51 99.19 38.51 C 99.69 54.51 96.45 70.87 89.26 85.22 C 86.83 83.72 84.55 82.01 82.43 80.10 C 83.83 73.51 87.13 67.39 87.69 60.61 C 80.11 61.18 72.75 63.36 65.16 63.68 C 65.19 62.47 65.18 61.14 66.49 60.57 C 76.13 53.51 85.90 46.64 95.66 39.75 Z" />
<path fill="#3f79bd" opacity="1.00" d=" M 121.28 39.44 C 129.85 39.52 138.41 39.25 146.97 39.59 C 153.60 54.20 160.63 68.62 167.38 83.18 C 174.38 68.58 181.47 54.02 188.45 39.41 C 196.89 39.46 205.32 39.43 213.76 39.43 C 213.72 61.43 213.71 83.44 213.76 105.44 C 208.53 105.43 203.31 105.45 198.08 105.42 C 198.18 88.73 198.10 72.04 198.12 55.36 C 190.19 72.10 182.13 88.77 174.07 105.45 C 169.61 105.43 165.16 105.43 160.70 105.45 C 153.35 89.37 145.37 73.59 138.09 57.48 C 137.75 57.40 137.06 57.24 136.71 57.15 C 136.84 73.24 136.68 89.34 136.80 105.43 C 131.63 105.44 126.46 105.43 121.29 105.44 C 121.33 83.44 121.33 61.44 121.28 39.44 Z" />
<path fill="#3f79bd" opacity="1.00" d=" M 320.65 39.50 C 325.36 39.39 330.08 39.44 334.80 39.45 C 334.77 61.44 334.73 83.43 334.82 105.42 C 330.11 105.44 325.40 105.46 320.69 105.39 C 320.70 102.36 320.58 99.32 320.47 96.29 C 319.64 99.41 318.20 102.82 315.01 104.13 C 307.52 107.63 298.84 106.67 290.94 105.31 C 285.54 104.49 281.18 99.86 280.42 94.49 C 279.22 86.37 279.25 78.02 280.48 69.90 C 281.06 65.87 283.77 62.30 287.51 60.66 C 293.61 57.95 300.52 57.99 307.07 58.30 C 312.32 58.45 317.92 60.70 320.52 65.52 C 320.84 56.85 320.62 48.17 320.65 39.50 M 293.81 73.60 C 292.00 78.94 292.48 84.80 293.85 90.19 C 295.27 94.33 300.39 94.38 304.02 94.37 C 308.65 94.05 313.98 94.94 317.95 92.04 C 320.98 88.08 320.27 82.66 320.21 77.98 C 319.89 74.25 318.16 70.41 314.09 69.68 C 309.38 69.45 304.65 69.20 299.95 69.70 C 297.46 70.00 294.93 71.24 293.81 73.60 Z" />
<path fill="#3f79bd" opacity="1.00" d=" M 230.54 60.33 C 236.84 58.33 243.59 59.51 250.09 58.96 C 256.53 59.03 264.30 58.59 268.92 63.96 C 273.79 70.01 272.96 78.31 273.03 85.58 C 260.47 85.64 247.92 85.56 235.36 85.62 C 235.81 88.62 235.50 92.66 238.55 94.40 C 241.83 95.88 245.56 95.26 249.05 95.51 C 252.13 95.41 255.65 95.97 258.26 93.94 C 258.54 92.74 258.77 91.53 258.96 90.31 C 263.64 90.20 268.33 90.26 273.02 90.25 C 272.97 95.50 271.86 102.12 266.21 104.15 C 256.35 107.92 245.56 106.16 235.31 105.59 C 230.77 105.59 226.13 103.14 224.16 98.95 C 220.73 91.83 221.16 83.70 221.36 76.01 C 221.60 69.84 224.12 62.49 230.54 60.33 M 238.23 69.52 C 235.33 70.58 235.61 74.10 235.22 76.58 C 243.12 76.70 251.03 76.64 258.93 76.61 C 258.85 74.23 258.58 71.80 257.04 69.87 C 256.02 69.49 255.01 69.10 254.02 68.69 C 248.78 68.56 243.26 67.70 238.23 69.52 Z" />
<path fill="#3f79bd" opacity="1.00" d=" M 39.99 99.58 C 42.88 92.97 45.28 86.06 49.04 79.89 C 50.78 82.63 50.29 85.91 50.33 88.97 C 50.29 98.32 50.34 107.67 50.31 117.01 C 38.63 111.29 28.09 102.83 20.53 92.20 C 22.75 90.55 24.99 88.91 27.19 87.23 C 31.20 90.78 34.33 95.19 38.19 98.87 C 38.64 99.05 39.54 99.40 39.99 99.58 Z" />
<path fill="#3f79bd" opacity="1.00" d=" M 54.67 84.96 C 54.54 83.11 55.07 81.33 56.03 79.77 C 60.08 86.06 61.54 93.73 65.87 99.83 C 69.55 95.57 73.62 91.65 77.15 87.26 C 79.65 88.41 81.83 90.12 84.08 91.69 C 83.61 94.00 81.82 95.65 80.36 97.37 C 73.20 105.50 64.36 112.06 54.74 116.99 C 54.62 106.32 54.73 95.64 54.67 84.96 Z" />
</g>
<g id="#46c4f2ff">
<path fill="#46c4f2" opacity="1.00" d=" M 348.20 42.93 C 353.36 39.26 359.96 39.80 365.91 38.84 C 374.96 38.53 384.02 38.57 393.07 38.84 C 397.19 39.68 402.00 39.56 405.05 42.96 C 408.93 47.46 409.29 53.75 409.36 59.43 C 403.82 59.45 398.28 59.51 392.75 59.39 C 392.62 58.15 392.51 56.92 392.40 55.68 C 390.99 54.62 389.54 53.39 387.68 53.38 C 379.94 52.98 372.17 53.34 364.45 53.81 C 362.08 53.87 360.42 55.66 359.59 57.72 C 359.62 58.55 359.64 59.38 359.66 60.21 C 360.44 62.10 361.97 63.41 363.78 64.30 C 373.53 64.59 383.29 64.54 393.04 64.72 C 398.50 65.16 404.96 65.78 408.44 70.61 C 411.68 75.71 411.69 82.07 411.52 87.91 C 411.18 92.73 410.50 98.28 406.56 101.60 C 404.21 103.75 400.98 104.30 398.04 105.20 C 383.33 105.60 368.59 106.24 353.89 105.30 C 350.88 104.19 347.41 103.19 345.75 100.19 C 343.03 95.42 343.43 89.71 343.29 84.43 C 348.72 84.39 354.16 84.40 359.59 84.41 C 359.90 86.09 360.27 87.75 360.54 89.44 C 362.18 90.52 364.01 91.38 366.02 91.41 C 373.83 91.84 381.67 91.51 389.48 91.13 C 391.47 91.19 393.06 90.02 394.46 88.75 C 394.49 86.76 394.50 84.76 394.49 82.77 C 392.95 80.90 390.68 79.75 388.25 79.76 C 378.48 79.66 368.71 79.44 358.94 79.25 C 354.64 79.03 349.65 78.85 346.77 75.13 C 343.02 70.33 342.94 63.81 343.00 57.99 C 343.30 52.72 343.67 46.44 348.20 42.93 Z" />
<path fill="#46c4f2" opacity="1.00" d=" M 494.91 59.48 C 504.42 59.18 514.52 57.72 523.52 61.63 C 529.35 64.45 529.77 71.80 529.79 77.45 C 525.18 77.43 520.57 77.43 515.96 77.45 C 515.43 75.05 514.53 72.00 511.71 71.53 C 506.43 70.97 501.10 71.22 495.82 71.55 C 493.61 73.06 491.59 75.16 491.52 78.01 C 491.30 82.44 490.60 87.74 493.71 91.37 C 496.65 93.47 500.49 93.44 503.95 93.57 C 507.24 93.48 510.80 93.69 513.78 92.04 C 515.63 90.87 515.63 88.46 516.02 86.56 C 520.76 86.56 525.50 86.57 530.24 86.55 C 530.08 91.56 529.98 97.36 526.09 101.10 C 524.27 103.22 521.63 104.23 519.11 105.23 C 517.08 105.43 515.05 105.66 513.07 106.16 C 507.02 106.55 500.94 106.52 494.88 106.20 C 492.90 105.68 490.86 105.43 488.83 105.24 C 483.38 103.59 479.41 98.85 478.21 93.36 C 476.51 85.10 476.14 76.18 479.29 68.21 C 481.69 61.99 488.76 59.62 494.91 59.48 Z" />
<path fill="#46c4f2" opacity="1.00" d=" M 423.71 62.74 C 427.54 59.22 433.05 59.17 437.95 59.14 C 445.29 59.25 452.78 58.20 459.98 60.04 C 464.61 61.30 467.81 65.38 469.32 69.76 C 470.45 74.95 470.58 80.26 470.38 85.55 C 457.74 85.70 445.10 85.51 432.46 85.65 C 432.79 87.88 433.25 90.08 433.61 92.31 C 435.05 94.31 437.38 95.40 439.83 95.32 C 444.98 95.30 450.40 96.34 455.30 94.33 C 455.65 92.95 455.99 91.57 456.34 90.19 C 461.07 90.31 465.80 90.17 470.53 90.33 C 470.35 91.86 470.16 93.38 469.95 94.91 C 469.59 96.26 469.27 97.62 468.96 98.98 C 466.74 104.05 460.90 105.19 456.06 106.20 C 449.75 106.45 443.38 106.68 437.11 105.86 C 431.80 105.87 425.63 105.36 422.32 100.58 C 418.40 94.54 418.31 86.96 418.24 80.00 C 418.35 73.97 419.08 67.12 423.71 62.74 M 437.91 68.64 C 435.63 69.30 433.60 70.50 432.66 72.77 C 432.63 74.04 432.59 75.32 432.55 76.59 C 440.46 76.70 448.37 76.60 456.28 76.65 C 456.19 73.22 455.08 69.43 451.26 68.61 C 446.81 68.40 442.35 68.38 437.91 68.64 Z" />
</g>
</svg>
