<?xml version="1.0" encoding="UTF-8"?> <svg xmlns="http://www.w3.org/2000/svg" xmlns:xlink="http://www.w3.org/1999/xlink" version="1.1" id="Layer_1" x="0px" y="0px" viewBox="0 0 150 34" style="enable-background:new 0 0 150 34;" xml:space="preserve"> <style type="text/css"> .st0{fill:#1A1B3A;} .st1{fill:#00C7BA;} .st2{fill:#007FA0;} .st3{fill:#241F49;} </style> <g> <path class="st0" d="M49.64,15.61C48.93,7.44,42.08,1.02,33.72,1.02L9.56,1C9.1,1,8.74,1.37,8.74,1.82v15.86 c0,0.45,0.37,0.82,0.82,0.82h8.25c0.75,8.13,7.59,14.49,15.91,14.49L57.88,33c0.45,0,0.82-0.37,0.82-0.82V16.43 c0-0.45-0.37-0.82-0.82-0.82H49.64z"></path> <path class="st1" d="M10.18,2.84v13.79c0,0.23,0.18,0.41,0.41,0.41h7.06c0-6.27,3.69-12,9.39-14.61H10.59 C10.36,2.43,10.18,2.62,10.18,2.84"></path> <path class="st2" d="M47.03,22.82c-0.19,0.03-0.38,0.05-0.57,0.05c-1.82,0-3.3-1.49-3.3-3.31v-4.88c0-0.01,0-0.02,0-0.03v-0.12 c0-1-0.81-1.81-1.8-1.81c-0.99,0-1.8,0.81-1.8,1.81v1.43c0,0.01,0,0.02,0,0.03v3.56c0,1.83-1.48,3.31-3.3,3.31s-3.3-1.49-3.3-3.31 v-1.07c0,0,0,0,0,0v-3.95c0-1-0.81-1.81-1.8-1.81c-0.99,0-1.8,0.81-1.8,1.81v1.43c0,0.01,0,0.02,0,0.03v3.56 c0,1.83-1.48,3.31-3.3,3.31s-3.3-1.49-3.3-3.31v-4.41c0-0.01,0-0.02,0-0.03v-0.58c0-1-0.81-1.81-1.8-1.81 c-0.51,0-0.97,0.22-1.3,0.57c-0.32,1.2-0.49,2.46-0.49,3.76c0,8.01,6.5,14.51,14.51,14.51C39.68,31.56,44.8,27.96,47.03,22.82"></path> <path class="st1" d="M21,11.22c1.82,0,3.3,1.49,3.3,3.31v4.41c0,0.01,0,0.02,0,0.03v0.58c0,1,0.81,1.81,1.8,1.81 c0.99,0,1.8-0.81,1.8-1.81v-0.95c0-0.01,0-0.02,0-0.03v-4.04c0-1.83,1.48-3.31,3.3-3.31c1.82,0,3.3,1.49,3.3,3.31v0.14c0,0,0,0,0,0 v4.88c0,1,0.81,1.81,1.8,1.81c0.99,0,1.8-0.81,1.8-1.81v-0.95c0-0.01,0-0.02,0-0.03v-4.04c0-1.83,1.48-3.31,3.3-3.31 c1.82,0,3.3,1.49,3.3,3.31v3.95c0,0.01,0,0.02,0,0.03v1.04c0,1,0.81,1.81,1.8,1.81c0.49,0,0.94-0.2,1.26-0.52 c0.33-1.21,0.51-2.49,0.51-3.8c0-8.01-6.5-14.51-14.51-14.51c-5.96,0-11.08,3.6-13.32,8.74C20.6,11.24,20.8,11.22,21,11.22"></path> <path class="st2" d="M49.78,17.05c0,6.15-3.59,11.84-9.14,14.5h16.21c0.23,0,0.41-0.18,0.41-0.41V17.46c0-0.23-0.18-0.41-0.41-0.41 H49.78z"></path> <path class="st3" d="M130.76,29.41V19.13h2.51c1.1,0,1.93,0.27,2.49,0.8c0.56,0.53,0.86,1.36,0.89,2.47 c0.03,0.46,0.05,1.08,0.05,1.84c0,0.76-0.02,1.39-0.05,1.87c-0.03,1.15-0.31,1.98-0.83,2.51c-0.52,0.52-1.33,0.79-2.43,0.79H130.76 z M126.87,33h6.64c2.47,0,4.36-0.56,5.65-1.68c1.3-1.12,1.98-2.84,2.07-5.15c0.02-0.46,0.02-1.1,0.02-1.9 c0-0.8-0.01-1.44-0.02-1.92c-0.07-2.21-0.78-3.9-2.13-5.06c-1.35-1.16-3.26-1.75-5.72-1.75h-6.52c-0.17,0-0.31,0.06-0.44,0.17 c-0.13,0.12-0.19,0.27-0.19,0.45v16.21c0,0.17,0.06,0.31,0.19,0.44C126.56,32.94,126.7,33,126.87,33 M108.16,33h3.01 c0.18,0,0.33-0.06,0.45-0.19c0.12-0.12,0.18-0.27,0.18-0.44V23.3l6.12,9.23c0.18,0.32,0.46,0.47,0.83,0.47h2.68 c0.18,0,0.33-0.06,0.45-0.19c0.12-0.12,0.17-0.28,0.17-0.46V16.17c0-0.18-0.06-0.33-0.17-0.45c-0.12-0.12-0.27-0.17-0.45-0.17 h-3.01c-0.17,0-0.31,0.06-0.44,0.17s-0.19,0.27-0.19,0.45v9.43l-6.12-9.58c-0.15-0.31-0.44-0.47-0.85-0.47h-2.66 c-0.17,0-0.31,0.06-0.44,0.17s-0.19,0.27-0.19,0.45v16.21c0,0.17,0.06,0.31,0.19,0.44C107.85,32.94,107.99,33,108.16,33 M91.38,33 h11.91c0.18,0,0.33-0.06,0.45-0.19c0.12-0.12,0.18-0.27,0.18-0.44v-2.34c0-0.18-0.06-0.33-0.18-0.45 c-0.12-0.12-0.27-0.17-0.45-0.17h-8.2v-3.47h7.45c0.18,0,0.34-0.06,0.45-0.19c0.12-0.12,0.18-0.27,0.18-0.44v-2.17 c0-0.18-0.06-0.34-0.18-0.46c-0.12-0.13-0.27-0.19-0.45-0.19h-7.45v-3.37h8c0.18,0,0.33-0.06,0.45-0.19 c0.12-0.12,0.18-0.27,0.18-0.44v-2.34c0-0.18-0.06-0.33-0.18-0.45s-0.27-0.17-0.45-0.17H91.38c-0.17,0-0.31,0.06-0.44,0.17 c-0.13,0.12-0.19,0.27-0.19,0.45v16.21c0,0.17,0.06,0.31,0.19,0.44C91.06,32.94,91.21,33,91.38,33 M69.95,33h3.01 c0.18,0,0.33-0.06,0.45-0.19c0.12-0.12,0.17-0.27,0.17-0.44v-9.35l2.83,5.21c0.1,0.18,0.22,0.32,0.35,0.42 c0.13,0.1,0.31,0.15,0.53,0.15h1.3c0.37,0,0.66-0.19,0.88-0.57l2.81-5.21v9.35c0,0.18,0.06,0.33,0.19,0.45 c0.13,0.12,0.28,0.17,0.46,0.17h2.98c0.18,0,0.34-0.06,0.46-0.17c0.13-0.12,0.19-0.27,0.19-0.45V16.17c0-0.18-0.06-0.33-0.19-0.45 c-0.13-0.12-0.28-0.17-0.46-0.17h-2.68c-0.4,0-0.69,0.18-0.88,0.55l-4.41,7.86l-4.41-7.86c-0.18-0.37-0.48-0.55-0.88-0.55h-2.71 c-0.17,0-0.31,0.06-0.44,0.17c-0.13,0.12-0.19,0.27-0.19,0.45v16.21c0,0.17,0.06,0.31,0.19,0.44C69.63,32.94,69.78,33,69.95,33"></path> </g> </svg> 