<?xml version="1.0" encoding="UTF-8" ?>
<!DOCTYPE svg PUBLIC "-//W3C//DTD SVG 1.1//EN" "http://www.w3.org/Graphics/SVG/1.1/DTD/svg11.dtd">
<svg width="877pt" height="236pt" viewBox="0 0 877 236" version="1.1" xmlns="http://www.w3.org/2000/svg">
<g id="#006a84f8">
<path fill="#006a84" d=" M 89.41 3.33 C 97.19 2.39 105.07 2.86 112.87 2.08 C 116.92 1.74 120.97 2.15 125.00 2.44 C 148.38 2.76 171.69 5.91 194.41 11.37 C 204.79 13.97 215.10 16.94 225.04 20.94 C 225.51 39.92 221.59 58.65 218.86 77.35 C 191.74 68.77 163.27 65.65 135.03 63.32 C 113.52 62.55 91.83 62.55 70.61 66.61 C 60.32 68.60 49.92 70.77 40.41 75.33 C 31.70 79.61 23.53 85.07 16.47 91.77 C 9.40 68.84 6.99 44.76 5.50 20.91 C 32.57 11.51 60.85 5.63 89.41 3.33 Z" />
<path fill="#006a84" d=" M 243.00 71.00 C 251.26 71.00 259.53 71.00 267.80 71.00 C 274.33 88.32 281.18 105.51 287.81 122.79 C 294.56 105.54 301.23 88.26 307.96 71.00 C 316.14 70.99 324.32 71.01 332.50 71.00 C 332.32 98.66 332.32 126.34 332.50 154.01 C 326.66 153.99 320.83 154.00 315.00 154.00 C 314.92 134.18 315.16 114.35 314.88 94.53 C 307.16 114.34 299.28 134.10 291.77 154.00 C 289.18 154.00 286.60 154.00 284.01 154.00 C 276.36 134.64 269.01 115.15 261.23 95.85 C 260.97 95.37 260.70 94.90 260.44 94.42 C 260.39 114.28 260.28 134.15 260.50 154.00 C 254.66 154.00 248.83 154.00 243.00 154.00 C 243.00 126.33 243.00 98.67 243.00 71.00 Z" />
<path fill="#006a84" d=" M 64.99 87.99 C 79.70 84.51 94.91 84.40 109.95 84.50 C 129.28 84.25 148.68 86.06 167.52 90.43 C 155.23 101.46 143.50 113.14 131.05 123.96 C 118.07 122.50 104.94 121.56 91.92 123.11 C 72.30 124.74 50.93 130.49 38.45 146.89 C 33.52 134.95 28.13 123.20 23.13 111.29 C 33.62 98.67 49.28 91.60 64.99 87.99 Z" />
<path fill="#006a84" d=" M 354.98 99.93 C 366.51 89.08 387.07 89.16 397.64 101.34 C 404.41 108.81 406.01 119.27 406.06 129.00 C 391.09 129.04 376.13 128.93 361.17 129.05 C 362.23 133.84 364.67 138.53 369.05 141.05 C 377.21 145.81 387.89 143.31 394.78 137.39 C 396.91 140.96 399.29 144.37 401.56 147.85 C 394.45 153.72 385.09 156.14 376.00 156.03 C 366.98 155.76 357.74 152.22 351.99 145.05 C 341.68 132.14 342.75 111.25 354.98 99.93 M 366.06 108.06 C 363.20 110.81 361.73 114.65 360.97 118.47 C 370.95 118.50 380.94 118.54 390.92 118.45 C 390.18 114.59 388.96 110.60 385.89 107.93 C 380.43 103.23 371.45 103.21 366.06 108.06 Z" />
<path fill="#006a84" d=" M 467.20 98.19 C 474.57 91.79 485.87 89.95 494.67 94.42 C 497.84 95.96 500.39 98.43 502.86 100.89 C 502.86 98.59 502.86 96.30 502.87 94.00 C 508.08 94.00 513.29 94.01 518.50 93.99 C 518.24 114.12 518.47 134.25 518.39 154.38 C 517.90 162.68 513.28 170.92 505.70 174.69 C 496.63 179.36 485.83 179.94 475.95 177.95 C 470.19 176.83 464.97 173.92 460.58 170.09 C 462.95 166.28 465.28 162.44 467.48 158.52 C 471.78 162.99 477.67 166.08 483.98 166.00 C 489.82 166.48 496.61 165.29 500.18 160.15 C 503.47 155.77 502.84 150.03 502.88 144.88 C 499.32 148.66 495.09 152.06 489.93 153.25 C 479.83 155.87 467.94 151.55 462.71 142.32 C 457.61 133.55 457.02 122.78 459.06 113.02 C 460.33 107.47 462.99 102.10 467.20 98.19 M 478.89 109.95 C 472.79 116.35 472.55 127.33 477.52 134.47 C 483.52 142.76 497.52 141.24 502.76 132.92 C 503.07 126.25 502.73 119.55 502.90 112.87 C 497.56 105.52 485.63 103.32 478.89 109.95 Z" />
<path fill="#006a84" d=" M 540.47 99.48 C 548.07 92.76 559.13 90.42 568.88 93.00 C 576.54 94.83 583.16 100.25 586.69 107.27 C 590.27 113.90 590.89 121.60 591.06 129.00 C 576.09 129.04 561.13 128.93 546.17 129.05 C 547.25 134.07 549.95 138.96 554.65 141.40 C 562.78 145.68 573.04 143.16 579.78 137.40 C 581.92 140.96 584.29 144.37 586.56 147.85 C 573.89 157.91 553.95 159.22 540.98 149.02 C 526.37 137.03 526.38 111.88 540.47 99.48 M 551.01 108.10 C 548.19 110.86 546.73 114.67 545.96 118.47 C 555.95 118.50 565.94 118.54 575.92 118.45 C 575.18 114.64 573.99 110.68 570.99 108.02 C 565.52 103.21 556.43 103.19 551.01 108.10 Z" />
<path fill="#006a84" d=" M 432.35 102.32 C 437.38 96.99 444.07 93.26 451.49 92.80 C 451.52 97.93 451.48 103.07 451.52 108.20 C 445.13 107.39 438.19 108.85 433.44 113.40 C 432.01 114.47 432.35 116.37 432.26 117.92 C 432.32 129.94 432.28 141.97 432.29 154.00 C 427.15 154.00 422.01 154.00 416.87 154.00 C 416.87 134.00 416.87 114.00 416.87 94.00 C 422.01 94.00 427.15 94.00 432.29 94.00 C 432.28 96.78 432.29 99.55 432.35 102.32 Z" />
</g>
<g id="#58585Ca7">
<path fill="#58585C" d=" M 332.50 71.00 C 332.72 98.66 332.72 126.34 332.50 154.01 C 332.32 126.34 332.32 98.66 332.50 71.00 Z" />
<path fill="#58585C" d=" M 607.01 70.82 C 621.66 70.85 636.31 70.72 650.96 70.88 C 658.45 70.96 666.50 73.73 670.81 80.21 C 678.07 90.61 674.20 108.28 661.08 111.76 C 666.33 113.24 670.97 116.73 673.49 121.61 C 677.92 129.88 676.60 141.12 669.80 147.74 C 665.37 152.06 659.05 153.98 652.96 154.01 C 637.64 153.99 622.32 154.01 607.00 154.00 C 607.00 126.27 606.99 98.55 607.01 70.82 M 624.67 86.01 C 624.65 92.34 624.65 98.66 624.66 104.99 C 632.75 104.82 640.86 105.38 648.92 104.71 C 655.10 103.92 658.17 96.10 655.20 90.94 C 653.82 87.82 650.42 86.14 647.13 86.08 C 639.64 85.86 632.15 86.07 624.67 86.01 M 624.66 120.01 C 624.65 126.34 624.65 132.66 624.66 138.99 C 631.42 139.00 638.19 139.00 644.95 139.02 C 648.07 138.95 651.48 139.02 654.14 137.12 C 659.08 133.96 659.24 125.80 654.56 122.33 C 651.90 120.10 648.26 120.02 644.98 119.99 C 638.20 120.00 631.43 120.00 624.66 120.01 Z" />
<path fill="#58585C" d=" M 191.75 87.87 C 199.66 88.52 207.44 90.52 214.78 93.54 C 215.03 96.12 213.92 98.63 213.39 101.12 C 204.88 134.08 186.88 164.01 164.21 189.17 C 149.80 204.90 133.90 219.40 116.03 231.14 C 94.35 214.77 73.67 196.66 57.13 174.98 C 53.45 170.05 50.05 164.91 47.23 159.44 C 52.82 154.32 59.21 150.16 65.74 146.37 C 80.39 166.50 96.79 185.60 116.06 201.46 C 131.29 190.80 144.12 177.01 154.98 161.99 C 171.04 139.42 183.24 114.19 191.75 87.87 Z" />
<path fill="#58585C" d=" M 688.06 101.27 C 697.82 92.98 711.57 90.12 723.96 93.04 C 728.73 94.18 733.34 96.69 736.27 100.72 C 739.48 105.08 740.44 110.63 740.42 115.93 C 740.40 128.62 740.41 141.31 740.40 153.99 C 735.13 154.01 729.86 154.01 724.60 153.99 C 724.59 152.30 724.59 150.61 724.61 148.92 C 716.02 157.06 701.28 158.87 691.82 151.21 C 684.92 145.66 683.27 135.38 686.51 127.42 C 688.85 121.94 694.31 118.40 700.00 117.20 C 708.53 115.51 718.10 117.26 724.61 123.31 C 724.51 117.93 725.78 111.05 720.59 107.52 C 712.12 102.02 700.81 105.86 694.10 112.45 C 692.05 108.74 690.04 105.01 688.06 101.27 M 704.48 129.30 C 699.96 132.26 699.65 139.74 704.18 142.84 C 710.16 147.12 719.50 145.70 724.31 140.29 C 724.89 137.65 724.53 134.90 724.63 132.22 C 719.66 126.88 710.69 125.23 704.48 129.30 Z" />
<path fill="#58585C" d=" M 757.70 98.72 C 762.73 93.70 770.12 91.91 777.04 91.94 C 785.71 91.85 794.37 94.70 801.21 100.05 C 799.11 103.78 797.00 107.50 794.90 111.23 C 789.31 105.78 781.12 103.03 773.40 104.45 C 770.74 104.99 767.56 106.90 767.98 110.04 C 768.04 112.79 770.98 113.96 773.17 114.76 C 780.97 117.22 789.75 117.42 796.56 122.44 C 805.01 128.42 805.41 142.17 798.09 149.21 C 794.31 152.94 789.10 154.80 783.94 155.60 C 772.26 157.23 759.60 154.64 750.51 146.83 C 752.79 143.01 755.11 139.21 757.33 135.35 C 763.14 140.14 770.33 143.57 777.94 143.83 C 781.30 143.87 785.29 143.27 787.32 140.25 C 788.77 137.73 787.63 134.32 784.97 133.16 C 779.49 130.40 773.19 130.23 767.41 128.42 C 762.77 127.02 758.01 124.81 755.23 120.67 C 750.90 113.97 751.93 104.28 757.70 98.72 Z" />
<path fill="#58585C" d=" M 818.90 101.89 C 829.82 89.25 851.89 88.34 863.32 100.77 C 870.36 108.29 872.23 119.04 872.04 129.00 C 857.13 129.03 842.21 128.95 827.30 129.03 C 828.30 134.02 831.02 138.86 835.66 141.28 C 843.79 145.58 854.07 143.06 860.78 137.23 C 863.01 140.82 865.39 144.32 867.70 147.87 C 859.22 154.90 847.57 157.13 836.85 155.59 C 827.65 154.26 818.96 148.71 814.72 140.33 C 808.59 128.22 809.75 112.22 818.90 101.89 M 830.69 109.78 C 828.69 112.22 827.87 115.33 827.04 118.31 C 836.97 118.35 846.90 118.39 856.83 118.28 C 856.04 115.31 855.42 112.12 853.36 109.71 C 847.98 102.82 835.98 102.74 830.69 109.78 Z" />
<path fill="#58585C" d=" M 518.50 93.99 C 518.81 107.98 518.54 121.97 518.63 135.96 C 518.52 142.10 518.90 148.25 518.39 154.38 C 518.47 134.25 518.24 114.12 518.50 93.99 Z" />
<path fill="#58585C" d=" M 260.44 94.42 C 260.70 94.90 260.97 95.37 261.23 95.85 C 260.14 99.50 260.76 103.33 260.63 107.06 C 260.54 122.71 260.81 138.36 260.50 154.00 C 260.28 134.15 260.39 114.28 260.44 94.42 Z" />
</g>
</svg>
