<?xml version="1.0" encoding="UTF-8" standalone="no"?>
<!DOCTYPE svg PUBLIC "-//W3C//DTD SVG 1.1//EN" "http://www.w3.org/Graphics/SVG/1.1/DTD/svg11.dtd">
<svg width="100%" height="100%" viewBox="0 0 916 232" version="1.1" xmlns="http://www.w3.org/2000/svg" xmlns:xlink="http://www.w3.org/1999/xlink" xml:space="preserve" xmlns:serif="http://www.serif.com/" style="fill-rule:evenodd;clip-rule:evenodd;stroke-linejoin:round;stroke-miterlimit:2;">
    <g id="text">
        <g transform="matrix(1.43901,-0.0105265,0.0105265,1.43901,336.38,-330.272)">
            <path d="M0,282.9C1.7,282.89 3.4,282.88 5.1,282.88C14.49,296.65 24.2,310.22 33.35,324.16C32.99,310.41 33.23,296.64 33.21,282.88L37.7,282.88C37.75,298.98 37.77,315.07 37.69,331.17C35.58,330.93 32.75,331.71 31.76,329.2C22.79,315.95 13.32,303.02 4.63,289.59C4.77,303.38 4.7,317.17 4.66,330.95C3.05,330.88 1.5,331.09 0,331.59L0,282.9Z" style="fill-rule:nonzero;"/>
        </g>
        <g transform="matrix(1.43901,-0.0105265,0.0105265,1.43901,336.38,-330.272)">
            <path d="M77.39,331.1C77.34,315.03 77.32,298.95 77.4,282.88C85.19,282.89 92.98,282.89 100.76,282.88C100.78,284.31 100.79,285.75 100.81,287.19C94.49,287.18 88.17,287.17 81.85,287.19C81.85,293.01 81.86,298.82 81.84,304.63C87.7,304.68 93.56,304.65 99.42,304.65C99.41,306.02 99.41,307.4 99.41,308.78C93.55,308.74 87.7,308.77 81.85,308.76C81.85,314.78 81.86,320.81 81.84,326.83C88.51,326.85 95.18,326.85 101.85,326.83C101.85,328.19 101.87,329.55 101.88,330.92C93.72,331.14 85.55,330.76 77.39,331.1Z" style="fill-rule:nonzero;"/>
        </g>
        <g transform="matrix(1.43901,-0.0105265,0.0105265,1.43901,336.38,-330.272)">
            <path d="M134.66,282.88C145.37,282.88 156.07,282.89 166.78,282.88C166.8,284.31 166.81,285.75 166.83,287.19C162.24,287.18 157.66,287.18 153.08,287.18C153.14,301.69 152.98,316.21 153.16,330.72C151.61,330.99 150.05,331.09 148.49,330.98C148.49,316.37 148.5,301.76 148.48,287.16C143.87,287.2 139.25,287.17 134.64,287.18C134.64,285.75 134.65,284.31 134.66,282.88Z" style="fill-rule:nonzero;"/>
        </g>
        <g transform="matrix(1.43901,-0.0105265,0.0105265,1.43901,336.38,-330.272)">
            <path d="M316.84,284.83C322.66,281.24 330,281.8 336.33,283.63C336.32,285.29 336.33,286.96 336.36,288.63C331.09,286.24 324.46,285.01 319.26,288.17C314.14,291.18 315.25,299.2 320.32,301.67C325.32,305.02 331.32,307.02 335.45,311.57C339.9,316.35 339.08,324.96 333.72,328.73C330.57,331.05 326.58,331.63 322.8,332L322.22,332C318.42,331.67 314.7,330.78 311.14,329.44C311.13,327.66 311.11,325.87 311.1,324.1C316.47,327.37 323.39,329.11 329.39,326.51C334.28,324.51 335.02,317.17 331.12,313.85C326.79,309.93 321.05,308.08 316.46,304.52C309.35,300.29 309.6,288.78 316.84,284.83Z" style="fill:#ad131e;fill-rule:nonzero;"/>
        </g>
        <g transform="matrix(1.43901,-0.0105265,0.0105265,1.43901,336.38,-330.272)">
            <path d="M201.82,283.21C208.72,282.88 216.05,282.02 222.68,284.4C230.28,287.36 232.2,298.07 227.07,304.05C225.09,306.56 222.07,307.81 219.12,308.79C222.85,310.82 224.6,314.84 226.56,318.38C228.79,322.64 231.26,326.78 233.32,331.13C231.54,331.03 229.77,330.94 228,330.85C224.64,324.91 222.09,318.46 218.05,312.95C215.31,309.3 210.39,310.26 206.44,310.14C206.44,317.08 206.45,324.01 206.44,330.94C204.91,330.91 203.39,330.87 201.87,330.84C201.85,314.96 201.94,299.08 201.82,283.21M206.45,287.17C206.44,293.45 206.45,299.74 206.44,306.03C211.13,306.01 216.26,306.87 220.57,304.54C226.23,301.52 227.07,292.08 221.38,288.68C216.83,286.17 211.39,287.51 206.45,287.17Z" style="fill:#ad131e;fill-rule:nonzero;"/>
        </g>
        <g transform="matrix(1.43901,-0.0105265,0.0105265,1.43901,336.38,-330.272)">
            <path d="M268.72,282.89L273.23,282.89C273.27,298.89 273.24,314.89 273.25,330.9C271.73,330.89 270.22,330.9 268.71,330.91C268.72,314.9 268.69,298.9 268.72,282.89Z" style="fill:#ad131e;fill-rule:nonzero;"/>
        </g>
        <g transform="matrix(1.43901,-0.0105265,0.0105265,1.43901,336.38,-330.272)">
            <path d="M375.46,282.89C383.24,282.88 391.01,282.89 398.79,282.89C398.79,284.32 398.81,285.74 398.84,287.18C392.51,287.19 386.18,287.14 379.86,287.21C379.87,293.02 379.86,298.83 379.86,304.64C385.73,304.69 391.6,304.66 397.47,304.66C397.47,305.68 397.48,307.73 397.48,308.75C391.61,308.74 385.74,308.73 379.86,308.75C379.86,314.77 379.87,320.79 379.86,326.81C386.57,326.89 393.28,326.83 400,326.85L400,330.87C391.81,330.93 383.62,330.86 375.44,330.91C375.46,314.91 375.41,298.9 375.46,282.89Z" style="fill:#ad131e;fill-rule:nonzero;"/>
        </g>
    </g>
    <g id="symbol" transform="matrix(1,0,0,1,-53.1546,-0.117987)">
        <g id="_-e60000ff" serif:id="#e60000ff">
            <path d="M108.59,3.48C109.44,-0.39 114.81,-0.65 117.46,1.56C129.78,9.58 142.07,17.66 154.39,25.68C157.05,27.23 158.51,30.25 158.66,33.26C159.04,40.84 158.54,48.44 158.89,56.02C159.74,66.88 168.05,76.4 178.53,79.12C175.66,84.72 171.41,89.39 167.59,94.34C159.52,89.63 151.41,85.01 143.31,80.35C143.09,76.08 141.34,71.7 137.6,69.34C133.58,66.46 128.09,66.74 123.89,69.1C120.15,66.95 115.99,65.14 113.27,61.64C110.19,57.83 108.19,53 108.45,48.04C108.58,33.19 108.29,18.33 108.59,3.48Z" style="fill:url(#_Linear1);fill-rule:nonzero;"/>
            <path d="M215.61,25.73C225.32,19.49 234.87,13.01 244.65,6.89C243.05,12.02 238.93,15.63 235.77,19.79C229.17,28.5 222.27,37 215.35,45.46C212.49,48.72 211.91,53.14 211.06,57.22C211.62,49.27 211.02,41.29 211.4,33.34C211.53,30.33 212.94,27.28 215.61,25.73Z" style="fill:url(#_Linear2);fill-rule:nonzero;"/>
            <path d="M93.38,76.42C97.76,73.79 103.16,73.21 108.1,74.26C111.81,74.98 114.93,77.26 118.15,79.09C118.03,85.03 122.32,90.72 128.23,91.83C131.38,92.69 134.59,91.57 137.4,90.19C144.52,94.15 151.51,98.34 158.6,102.33C155.87,107.61 151.82,112.01 148.28,116.73C141.13,113.35 132.55,112.79 125.33,116.27C118.76,119.63 112.58,123.71 106.07,127.17C103.36,128.65 99.92,129.35 97.05,127.89C83.76,121.19 70.44,114.53 57.15,107.82C54.71,106.59 52.66,103.95 53.26,101.09C53.54,99.38 55.25,98.57 56.55,97.73C68.85,90.65 81.11,83.53 93.38,76.42Z" style="fill:url(#_Linear3);fill-rule:nonzero;"/>
            <path d="M127.54,74.69C131.29,71.99 137.11,75.47 136.52,80.03C136.49,84.39 130.81,87.17 127.37,84.47C123.94,82.28 124.02,76.72 127.54,74.69Z" style="fill:url(#_Linear4);fill-rule:nonzero;"/>
        </g>
        <g id="_-ba0202ff" serif:id="#ba0202ff">
            <path d="M244.65,6.89C247.6,4.59 250.85,2.57 254.11,0.71C256.83,-0.74 261.47,0.51 261.52,4.06C261.69,18.72 261.5,33.39 261.58,48.05C261.82,53.26 259.63,58.35 256.25,62.23C253.54,65.33 249.72,67.07 246.18,69.01C241.58,66.41 235.33,66.57 231.39,70.32C228.48,72.72 227.14,76.44 227.02,80.13C216.51,86.28 205.93,92.3 195.4,98.43C191.42,100.85 186.57,101.68 181.98,101.02C176.57,100.41 172.23,96.83 167.59,94.34C171.41,89.39 175.66,84.72 178.53,79.12C183.98,80.18 189.75,80.09 194.92,77.88C203.48,74.48 209.72,66.3 211.06,57.22C211.91,53.14 212.49,48.72 215.35,45.46C222.27,37 229.17,28.5 235.77,19.79C238.93,15.63 243.05,12.02 244.65,6.89Z" style="fill:url(#_Linear5);fill-rule:nonzero;"/>
            <path d="M237.18,74.31C240.91,72.33 245.84,75.83 245.39,79.99C245.37,84.55 239.21,87.32 235.85,84.14C232.48,81.65 233.29,75.82 237.18,74.31Z" style="fill:url(#_Linear6);fill-rule:nonzero;"/>
            <path d="M200.62,108.66C211.37,102.54 222.05,96.3 232.82,90.21C236.96,92.68 241.99,92.57 246.23,90.41C241.19,99.04 233.88,106.01 228.51,114.42C215.87,117.1 206.64,129.7 207.83,142.57C202.3,150.07 196.09,157.04 190.61,164.58L190.17,165.18C190.21,152.44 190.17,139.7 190.15,126.96C189.83,119.57 194.13,112.17 200.62,108.66Z" style="fill:url(#_Linear7);fill-rule:nonzero;"/>
            <path d="M158.6,102.33C162.25,104.38 165.86,106.49 169.5,108.56C176.07,112.09 180.37,119.53 180.18,126.98C180.14,139.41 180.16,151.85 180.16,164.29C175.96,166.62 172.91,170.72 172.49,175.58C169.5,178.55 166.62,181.65 164.13,185.07C152.19,200.61 139.68,215.71 127.76,231.26C126.25,229.51 124.7,227.54 125.07,225.06C125.56,210.05 126.59,195.07 127.37,180.08C127.43,176.5 130.3,173.88 133.16,172.18C138.81,168.79 144.59,165.62 150.23,162.21C158.92,156.84 163.79,146.03 162.02,135.96C160.77,127.86 155.44,120.62 148.18,116.85L148.28,116.73C151.82,112.01 155.87,107.61 158.6,102.33Z" style="fill:url(#_Linear8);fill-rule:nonzero;"/>
        </g>
        <g id="_-9a0000ff" serif:id="#9a0000ff">
            <path d="M252.19,79C258.95,74.05 268.32,71.73 276.01,75.96C288.91,83.39 301.8,90.86 314.67,98.34C317.32,99.41 317.57,102.91 316.16,105.07C315.02,107.04 312.83,107.93 310.9,108.94C298.22,115.26 285.59,121.69 272.9,128C267.61,130.31 262.65,126.22 258.23,123.81C251.38,120.2 245.03,114.86 237.05,114.09C234.21,113.64 231.34,114.09 228.51,114.42C233.88,106.01 241.19,99.04 246.23,90.41C249.72,87.58 252.1,83.59 252.19,79Z" style="fill:url(#_Linear9);fill-rule:nonzero;"/>
            <path d="M190.61,164.58C196.09,157.04 202.3,150.07 207.83,142.57C208.85,149.66 212.27,156.53 218.08,160.88C224.71,165.41 232.03,168.85 238.73,173.29C241.3,174.99 243.02,177.89 242.95,181.01C243.67,193.98 244.3,206.96 245.08,219.93C245.17,223.18 246.08,226.96 243.81,229.72C242.55,231.5 239.98,232.18 238.12,230.89C226.26,224.09 214.47,217.17 202.62,210.36C198.31,208.23 194.42,205.05 192.35,200.62C190.02,196.63 190.01,191.92 190.16,187.45C195.38,184.82 198.84,178.74 197.2,172.92C196.37,169.29 193.63,166.56 190.61,164.58Z" style="fill:url(#_Linear10);fill-rule:nonzero;"/>
            <path d="M182.52,170.69C186.57,168.42 191.85,172.54 190.83,176.99C190.21,181.41 184.02,183.52 181.03,180.05C178.12,177.42 179.08,172.37 182.52,170.69Z" style="fill:url(#_Linear11);fill-rule:nonzero;"/>
            <path d="M164.13,185.07C166.62,181.65 169.5,178.55 172.49,175.58C172.67,180.69 175.74,185.15 180.18,187.56C181.06,195.59 177.79,204.38 170.64,208.61C157.97,215.96 145.29,223.31 132.62,230.65C131.2,231.72 129.41,231.53 127.76,231.26C139.68,215.71 152.19,200.61 164.13,185.07Z" style="fill:url(#_Linear12);fill-rule:nonzero;"/>
        </g>
    </g>
    <defs>
        <linearGradient id="_Linear1" x1="0" y1="0" x2="1" y2="0" gradientUnits="userSpaceOnUse" gradientTransform="matrix(346.845,0,0,331.882,53.1546,166.059)"><stop offset="0" style="stop-color:#e90100;stop-opacity:1"/><stop offset="1" style="stop-color:#940001;stop-opacity:1"/></linearGradient>
        <linearGradient id="_Linear2" x1="0" y1="0" x2="1" y2="0" gradientUnits="userSpaceOnUse" gradientTransform="matrix(346.845,0,0,331.882,53.1546,166.059)"><stop offset="0" style="stop-color:#e90100;stop-opacity:1"/><stop offset="1" style="stop-color:#940001;stop-opacity:1"/></linearGradient>
        <linearGradient id="_Linear3" x1="0" y1="0" x2="1" y2="0" gradientUnits="userSpaceOnUse" gradientTransform="matrix(346.845,0,0,331.882,53.1546,166.059)"><stop offset="0" style="stop-color:#e90100;stop-opacity:1"/><stop offset="1" style="stop-color:#940001;stop-opacity:1"/></linearGradient>
        <linearGradient id="_Linear4" x1="0" y1="0" x2="1" y2="0" gradientUnits="userSpaceOnUse" gradientTransform="matrix(346.845,0,0,331.882,53.1546,166.059)"><stop offset="0" style="stop-color:#e90100;stop-opacity:1"/><stop offset="1" style="stop-color:#940001;stop-opacity:1"/></linearGradient>
        <linearGradient id="_Linear5" x1="0" y1="0" x2="1" y2="0" gradientUnits="userSpaceOnUse" gradientTransform="matrix(346.845,0,0,331.882,53.1546,166.059)"><stop offset="0" style="stop-color:#e90100;stop-opacity:1"/><stop offset="1" style="stop-color:#940001;stop-opacity:1"/></linearGradient>
        <linearGradient id="_Linear6" x1="0" y1="0" x2="1" y2="0" gradientUnits="userSpaceOnUse" gradientTransform="matrix(346.845,0,0,331.882,53.1546,166.059)"><stop offset="0" style="stop-color:#e90100;stop-opacity:1"/><stop offset="1" style="stop-color:#940001;stop-opacity:1"/></linearGradient>
        <linearGradient id="_Linear7" x1="0" y1="0" x2="1" y2="0" gradientUnits="userSpaceOnUse" gradientTransform="matrix(346.845,0,0,331.882,53.1546,166.059)"><stop offset="0" style="stop-color:#e90100;stop-opacity:1"/><stop offset="1" style="stop-color:#940001;stop-opacity:1"/></linearGradient>
        <linearGradient id="_Linear8" x1="0" y1="0" x2="1" y2="0" gradientUnits="userSpaceOnUse" gradientTransform="matrix(346.845,0,0,331.882,53.1546,166.059)"><stop offset="0" style="stop-color:#e90100;stop-opacity:1"/><stop offset="1" style="stop-color:#940001;stop-opacity:1"/></linearGradient>
        <linearGradient id="_Linear9" x1="0" y1="0" x2="1" y2="0" gradientUnits="userSpaceOnUse" gradientTransform="matrix(346.845,0,0,331.882,53.1546,166.059)"><stop offset="0" style="stop-color:#e90100;stop-opacity:1"/><stop offset="1" style="stop-color:#940001;stop-opacity:1"/></linearGradient>
        <linearGradient id="_Linear10" x1="0" y1="0" x2="1" y2="0" gradientUnits="userSpaceOnUse" gradientTransform="matrix(346.845,0,0,331.882,53.1546,166.059)"><stop offset="0" style="stop-color:#e90100;stop-opacity:1"/><stop offset="1" style="stop-color:#940001;stop-opacity:1"/></linearGradient>
        <linearGradient id="_Linear11" x1="0" y1="0" x2="1" y2="0" gradientUnits="userSpaceOnUse" gradientTransform="matrix(346.845,0,0,331.882,53.1546,166.059)"><stop offset="0" style="stop-color:#e90100;stop-opacity:1"/><stop offset="1" style="stop-color:#940001;stop-opacity:1"/></linearGradient>
        <linearGradient id="_Linear12" x1="0" y1="0" x2="1" y2="0" gradientUnits="userSpaceOnUse" gradientTransform="matrix(346.845,0,0,331.882,53.1546,166.059)"><stop offset="0" style="stop-color:#e90100;stop-opacity:1"/><stop offset="1" style="stop-color:#940001;stop-opacity:1"/></linearGradient>
    </defs>
</svg>
