<?xml version="1.0" encoding="UTF-8" standalone="no"?>
<!DOCTYPE svg PUBLIC "-//W3C//DTD SVG 1.1//EN" "http://www.w3.org/Graphics/SVG/1.1/DTD/svg11.dtd">
<svg width="100%" height="100%" viewBox="0 0 496 181" version="1.1" xmlns="http://www.w3.org/2000/svg" xmlns:xlink="http://www.w3.org/1999/xlink" xml:space="preserve" xmlns:serif="http://www.serif.com/" style="fill-rule:evenodd;clip-rule:evenodd;stroke-linejoin:round;stroke-miterlimit:2;">
    <g transform="matrix(1,0,0,1,-12.7485,-33.9439)">
        <path d="M403.27,51.33C413.09,39.43 428.81,33.54 444.02,33.98C457.48,33.51 471.24,37.63 481.68,46.26C490.06,52.95 496.5,62.35 498.57,72.96C500.63,83.39 499.36,94.71 493.83,103.91C490.34,109.75 485.28,114.53 479.75,118.42C489.93,122.71 498.67,130.54 503.41,140.59C508.6,151.46 508.92,164.19 505.86,175.71C502.12,189.46 491.33,200.53 478.53,206.34C469.59,210.3 459.75,212.16 449.98,212.01C440.07,211.98 430.15,212.02 420.25,211.99L420.25,190.01C431.22,189.87 442.21,190.3 453.18,189.69C461.32,189.19 469.69,186.44 475.45,180.44C487.07,168.63 485.2,145.96 470.46,137.47C464.96,134.08 458.5,132.5 452.08,132.26C441.48,131.74 430.86,132.11 420.25,132C420.25,124.66 420.25,117.34 420.24,110.01C432.83,109.56 445.95,111.43 458.04,107.02C465.72,104.22 472.68,98.06 474.59,89.89C476.35,81.83 475.01,72.78 469.74,66.24C464.16,59.02 455,55.05 445.94,55.22C438.17,54.9 430.07,56.89 424.02,61.95C418.65,66.36 414.98,72.6 413.19,79.28C410.93,87.31 411.23,95.72 411.25,103.98L411.25,212L388,212C388.02,174.63 387.96,137.26 388.03,99.89C388.23,82.77 391.78,64.63 403.27,51.33Z" style="fill:rgb(75,112,170);fill-rule:nonzero;"/>
    </g>
    <g transform="matrix(1,0,0,1,-12.7485,-33.9439)">
        <path d="M52.78,89.85C66.41,87.62 81.38,89 92.98,97.08C107.49,106.97 114.46,124.83 114.75,141.93C114.76,165.28 114.74,188.64 114.75,211.99C107.67,212 100.58,212.01 93.5,211.99C93.48,189 93.54,166 93.47,143.01C93.48,134.62 91.32,125.89 85.56,119.55C75.09,107.17 53.7,106.94 42.87,118.96C36.65,125.25 34.25,134.3 34.27,142.95C34.22,165.96 34.26,188.98 34.25,212L12.75,212C12.76,190.33 12.73,168.66 12.77,146.99C12.88,135.9 14.4,124.54 19.6,114.61C26.08,101.83 38.57,92.21 52.78,89.85Z" style="fill:rgb(75,112,170);fill-rule:nonzero;"/>
    </g>
    <g transform="matrix(1,0,0,1,-12.7485,-33.9439)">
        <path d="M155.64,104.67C166.69,94.36 181.83,88.46 196.97,88.97C213.18,88.63 229.15,96.08 239.84,108.17C244.93,113.79 248.92,120.3 252.3,127.06C226.05,141.54 199.73,155.92 173.45,170.37C170.44,164.81 167.29,159.32 164.33,153.73C183.7,143.05 203.1,132.44 222.51,121.82C215.78,114.5 206.02,109.86 195.98,110.21C185.81,109.85 175.83,114.49 169.02,121.95C153.43,138.41 154.17,167.63 171.05,182.94C183.83,195.76 206.62,196.22 219.99,184.07C228.41,176.73 232.77,165.8 234.32,154.95C241.73,155.79 249.06,157.22 256.46,158.16C253.74,174.77 246.09,191.14 232.67,201.73C219.36,212.83 200.84,216.18 184.08,212.93C169.05,209.94 155.63,200.62 146.75,188.23C137.75,175.61 133.95,159.59 135.7,144.24C137.21,129.19 144.57,114.92 155.64,104.67Z" style="fill:rgb(75,112,170);fill-rule:nonzero;"/>
    </g>
    <g transform="matrix(1,0,0,1,-12.7485,-33.9439)">
        <path d="M266.75,92.01C276.13,91.58 285.76,92.54 294.38,96.49C304.84,101.05 313.13,109.51 319.06,119.13C324.59,110.27 331.99,102.27 341.41,97.52C350.58,92.78 361.05,91.48 371.25,92.01C371.27,98.91 370.83,105.8 371,112.71C360.06,112.68 348.7,115.95 340.65,123.63C327.93,135.26 325.84,155.61 333.21,170.7C340.2,184.49 355.98,191.74 371,191.56C370.83,198.37 371.27,205.18 371.25,211.99C357.55,212.76 343.17,209.49 332.48,200.55C327.19,196.17 322.75,190.87 319.04,185.11C312.14,196.11 301.91,205.45 289.3,209.26C282.04,211.65 274.35,212.28 266.75,211.99L266.75,191.56C277.78,191.44 289.18,188.11 297.28,180.35C310.76,168.08 312.43,146.07 303.25,130.82C295.65,118.49 280.83,112.48 266.75,112.7L266.75,92.01Z" style="fill:rgb(75,112,170);fill-rule:nonzero;"/>
    </g>
    <g transform="matrix(1,0,0,1,-12.7485,-33.9439)">
        <path d="M316.26,56.23C324.82,54.06 334.32,60.28 335.47,69.09C337.29,77.99 330.02,87.38 320.87,87.57C312.14,88.51 303.7,80.83 303.96,72.03C303.52,64.7 309.14,57.73 316.26,56.23Z" style="fill:rgb(255,136,0);fill-rule:nonzero;"/>
    </g>
</svg>
