<svg version="1.1" id="Layer_1" xmlns="http://www.w3.org/2000/svg" x="0px" y="0px" viewBox="0 0 552.7 112.4" style="enable-background:new 0 0 552.7 112.4;" xml:space="preserve">
<style type="text/css">
                                        .st0 {
                                            fill: #0099FF;
                                        }
                                    </style>
<g>
<path class="st0" d="M122.9,48.4L99.5,7.8C96.7,3,91.5,0,86,0H62.5H39c-5.6,0-10.7,3-13.5,7.8L2.1,48.2C-0.7,53-0.7,59,2.1,63.9
        L13.8,84c0,0.1,0.1,0.1,0.1,0.2l16.8,28.2H86c5.6,0,10.8-3,13.5-7.8L122.9,64C125.7,59.2,125.7,53.2,122.9,48.4z M10,52.8
        l23.4-40.4c1.2-2,3.3-3.2,5.6-3.2h15.6L17.8,72.8L10,59.3C8.8,57.3,8.8,54.8,10,52.8z M77.4,39.8l9.5,16.4l-27,47.1H40.7L77.4,39.8
        z M115,59.4L91.6,100c-1.2,2-3.3,3.3-5.6,3.3H70.4l25.7-44.8c0.2-0.4,0.4-0.9,0.5-1.4c0,0,0,0,0,0c0-0.1,0-0.1,0-0.2
        c0,0,0-0.1,0-0.1c0-0.1,0-0.1,0-0.2c0,0,0-0.1,0-0.1c0-0.1,0-0.1,0-0.2c0,0,0-0.1,0-0.1c0-0.1,0-0.1,0-0.2c0,0,0-0.1,0-0.1
        c0-0.1,0-0.1,0-0.2c0,0,0-0.1,0-0.1c0-0.1,0-0.1,0-0.2c0,0,0-0.1,0-0.1c0-0.1,0-0.1,0-0.2c0,0,0-0.1,0-0.1c0-0.1,0-0.1-0.1-0.2
        c0,0,0-0.1,0-0.1c-0.1-0.3-0.2-0.6-0.4-0.8L81.4,28.4c-0.2-0.4-0.5-0.7-0.7-1c-0.8-0.8-2-1.3-3.2-1.3h0h0c-0.3,0-0.5,0-0.8,0.1
        c-0.1,0-0.1,0-0.2,0c-1,0.2-2,0.8-2.6,1.6c0,0,0,0,0,0c0,0,0,0.1-0.1,0.1c-0.1,0.1-0.2,0.3-0.3,0.4L32.7,98.7l-9.7-16.8L65.2,9.1
        H86c2.3,0,4.5,1.2,5.6,3.3L115,52.9C116.2,55,116.2,57.4,115,59.4z"></path>
</g>
<g>
<g>
<path class="st0" d="M204.5,25.9v60.5h-2.1c-0.4,0-0.7-0.1-0.9-0.2c-0.2-0.1-0.5-0.3-0.7-0.7l-39.3-52.5c0.1,0.9,0.1,1.7,0.1,2.4
            v50.9h-3.8V25.9h2.2c0.4,0,0.7,0.1,0.9,0.1c0.2,0.1,0.4,0.3,0.7,0.7l39.2,52.4c-0.1-0.9-0.1-1.7-0.1-2.4V25.9H204.5z"></path>
<path class="st0" d="M233.8,43.2c3.1,0,5.8,0.5,8.2,1.6c2.4,1,4.4,2.5,6.1,4.4c1.7,1.9,2.9,4.2,3.8,6.9c0.9,2.7,1.3,5.7,1.3,9
            s-0.4,6.3-1.3,9c-0.9,2.7-2.1,5-3.8,6.9c-1.7,1.9-3.7,3.4-6.1,4.4c-2.4,1-5.1,1.5-8.2,1.5s-5.8-0.5-8.2-1.5
            c-2.4-1-4.4-2.5-6.1-4.4c-1.7-1.9-2.9-4.2-3.8-6.9c-0.9-2.7-1.3-5.7-1.3-9s0.4-6.4,1.3-9c0.9-2.7,2.1-5,3.8-6.9
            c1.7-1.9,3.7-3.4,6.1-4.4C228.1,43.7,230.8,43.2,233.8,43.2z M233.8,83.8c2.5,0,4.8-0.4,6.6-1.3c1.9-0.9,3.5-2.1,4.7-3.7
            c1.3-1.6,2.2-3.6,2.8-5.9c0.6-2.3,0.9-4.9,0.9-7.7c0-2.8-0.3-5.4-0.9-7.7c-0.6-2.3-1.6-4.3-2.8-5.9c-1.3-1.6-2.9-2.9-4.7-3.8
            c-1.9-0.9-4.1-1.3-6.6-1.3c-2.5,0-4.8,0.4-6.6,1.3c-1.9,0.9-3.5,2.1-4.7,3.8c-1.3,1.6-2.2,3.6-2.9,5.9c-0.6,2.3-1,4.9-1,7.7
            c0,2.9,0.3,5.4,1,7.7c0.6,2.3,1.6,4.3,2.9,5.9c1.3,1.6,2.9,2.9,4.7,3.7C229.1,83.4,231.3,83.8,233.8,83.8z"></path>
<path class="st0" d="M318.3,43.9l-14.2,42.6h-3c-0.5,0-0.8-0.3-1-0.9L288.4,51c-0.1-0.4-0.3-0.9-0.4-1.3c-0.1-0.4-0.2-0.9-0.3-1.3
            c-0.1,0.9-0.4,1.7-0.6,2.6l-11.8,34.6c-0.2,0.6-0.5,0.9-1,0.9h-2.9l-14.2-42.6h3.1c0.4,0,0.7,0.1,1,0.3c0.3,0.2,0.4,0.4,0.5,0.7
            l10.7,33.6c0.2,0.7,0.3,1.3,0.5,1.9c0.1,0.6,0.3,1.2,0.3,1.8c0.2-0.6,0.3-1.2,0.5-1.8c0.2-0.6,0.4-1.2,0.6-1.9l11.4-33.9
            c0.2-0.6,0.6-0.9,1.2-0.9h1.7c0.6,0,1,0.3,1.2,0.9l11.3,33.9c0.2,0.7,0.4,1.3,0.6,1.9c0.2,0.6,0.3,1.2,0.5,1.8
            c0.1-0.6,0.2-1.2,0.4-1.8c0.1-0.6,0.3-1.2,0.5-1.9l10.8-33.6c0.1-0.3,0.3-0.6,0.6-0.7c0.3-0.2,0.6-0.3,0.9-0.3H318.3z"></path>
<path class="st0" d="M356.1,33.3c-0.3,0.5-0.6,0.7-1.1,0.7c-0.4,0-0.8-0.3-1.4-0.8c-0.6-0.5-1.4-1.1-2.4-1.8
            c-1-0.6-2.2-1.2-3.7-1.8c-1.5-0.5-3.3-0.8-5.5-0.8c-2.2,0-4.1,0.3-5.8,0.9c-1.7,0.6-3.1,1.5-4.2,2.6c-1.1,1.1-2,2.3-2.6,3.8
            c-0.6,1.4-0.9,2.9-0.9,4.5c0,2.1,0.4,3.7,1.3,5.1c0.9,1.3,2,2.5,3.4,3.4c1.4,0.9,3,1.7,4.9,2.4c1.8,0.6,3.7,1.3,5.6,1.9
            c1.9,0.6,3.8,1.3,5.6,2.1c1.8,0.8,3.4,1.7,4.9,2.8c1.4,1.1,2.6,2.5,3.4,4.2c0.9,1.7,1.3,3.7,1.3,6.2c0,2.5-0.4,4.9-1.3,7.2
            s-2.1,4.2-3.8,5.8c-1.7,1.7-3.7,3-6.1,3.9c-2.4,1-5.1,1.4-8.2,1.4c-4,0-7.4-0.7-10.3-2.1c-2.9-1.4-5.4-3.3-7.6-5.8l1.2-1.9
            c0.3-0.4,0.7-0.6,1.2-0.6c0.3,0,0.6,0.2,1,0.5c0.4,0.3,0.9,0.8,1.5,1.3c0.6,0.5,1.3,1,2.1,1.6c0.8,0.6,1.7,1.1,2.8,1.6
            c1.1,0.5,2.3,0.9,3.6,1.3c1.4,0.3,2.9,0.5,4.7,0.5c2.4,0,4.5-0.4,6.4-1.1s3.5-1.7,4.8-3c1.3-1.3,2.3-2.7,3-4.5
            c0.7-1.7,1-3.6,1-5.5c0-2.1-0.4-3.9-1.3-5.3c-0.9-1.4-2-2.5-3.4-3.5c-1.4-0.9-3-1.7-4.9-2.3c-1.8-0.6-3.7-1.2-5.6-1.8
            c-1.9-0.6-3.8-1.3-5.6-2c-1.8-0.7-3.4-1.7-4.9-2.8c-1.4-1.2-2.6-2.6-3.4-4.3c-0.9-1.7-1.3-3.9-1.3-6.5c0-2,0.4-4,1.2-5.9
            c0.8-1.9,1.9-3.5,3.4-5c1.5-1.4,3.3-2.6,5.5-3.5c2.2-0.9,4.7-1.3,7.5-1.3c3.1,0,5.9,0.5,8.4,1.5c2.5,1,4.8,2.5,6.8,4.6L356.1,33.3
            z"></path>
<path class="st0" d="M369.4,63.5v0.8c0,3.2,0.4,6,1.1,8.4c0.7,2.4,1.8,4.5,3.2,6.1c1.4,1.6,3,2.9,5,3.7s4.1,1.2,6.5,1.2
            c2.1,0,4-0.2,5.6-0.7c1.6-0.5,2.9-1,4-1.6c1.1-0.6,1.9-1.1,2.5-1.6c0.6-0.5,1.1-0.7,1.4-0.7c0.4,0,0.7,0.1,0.9,0.4l1.1,1.4
            c-0.7,0.9-1.6,1.7-2.7,2.4c-1.1,0.7-2.4,1.4-3.8,1.9c-1.4,0.5-2.9,0.9-4.4,1.3c-1.6,0.3-3.2,0.5-4.8,0.5c-2.9,0-5.6-0.5-8-1.5
            c-2.4-1-4.4-2.5-6.2-4.4c-1.7-1.9-3-4.3-4-7.1c-0.9-2.8-1.4-6-1.4-9.6c0-3.1,0.4-5.9,1.3-8.4c0.9-2.6,2.1-4.8,3.8-6.7
            c1.6-1.9,3.7-3.3,6-4.4c2.4-1.1,5.1-1.6,8.1-1.6c2.4,0,4.6,0.4,6.7,1.2c2.1,0.8,3.8,2,5.3,3.6c1.5,1.6,2.7,3.5,3.6,5.8
            c0.9,2.3,1.3,5,1.3,8c0,0.6-0.1,1.1-0.3,1.3c-0.2,0.2-0.5,0.3-0.9,0.3H369.4z M397.8,60.9c0-2.3-0.3-4.3-1-6.1
            c-0.6-1.8-1.5-3.3-2.7-4.6c-1.2-1.3-2.6-2.2-4.2-2.9c-1.6-0.7-3.4-1-5.3-1c-2.2,0-4.2,0.3-5.9,1c-1.7,0.7-3.2,1.7-4.5,3
            c-1.3,1.3-2.3,2.8-3.1,4.6c-0.8,1.8-1.3,3.8-1.5,6H397.8z"></path>
<path class="st0" d="M439.1,49.6c-0.1,0.1-0.3,0.3-0.4,0.4c-0.1,0.1-0.3,0.1-0.5,0.1c-0.3,0-0.7-0.2-1.2-0.6
            c-0.5-0.4-1.1-0.8-2-1.3c-0.8-0.5-1.9-0.9-3.1-1.3c-1.2-0.4-2.7-0.6-4.5-0.6c-2.5,0-4.6,0.4-6.5,1.3c-1.9,0.9-3.5,2.1-4.8,3.7
            c-1.3,1.6-2.3,3.6-3,5.9s-1,4.9-1,7.8c0,3,0.3,5.6,1,8c0.7,2.3,1.7,4.3,3,5.8c1.3,1.6,2.8,2.8,4.7,3.6c1.8,0.8,3.8,1.2,6.1,1.2
            c2.1,0,3.8-0.2,5.2-0.7s2.5-1,3.4-1.6c0.9-0.6,1.6-1.1,2.1-1.6c0.5-0.5,0.9-0.7,1.3-0.7c0.3,0,0.6,0.1,0.9,0.4l1.1,1.4
            c-0.7,0.9-1.5,1.7-2.5,2.4c-1,0.7-2.1,1.4-3.4,1.9c-1.3,0.5-2.6,1-4.1,1.3c-1.5,0.3-3,0.4-4.6,0.4c-2.7,0-5.2-0.5-7.4-1.5
            c-2.2-1-4.2-2.4-5.8-4.3c-1.6-1.9-2.9-4.2-3.8-6.9c-0.9-2.7-1.3-5.8-1.3-9.2c0-3.2,0.4-6.2,1.3-8.9c0.9-2.7,2.1-5,3.8-6.9
            c1.7-1.9,3.7-3.4,6.1-4.5s5.1-1.6,8.2-1.6c2.8,0,5.2,0.4,7.4,1.3c2.1,0.9,4,2.1,5.6,3.6L439.1,49.6z"></path>
<path class="st0" d="M481.6,43.9v42.6h-2.3c-0.7,0-1.1-0.4-1.2-1.1l-0.4-6.3c-2,2.5-4.2,4.4-6.8,5.9c-2.6,1.5-5.5,2.2-8.6,2.2
            c-2.4,0-4.4-0.4-6.2-1.1c-1.8-0.7-3.2-1.8-4.4-3.2c-1.2-1.4-2.1-3.1-2.7-5c-0.6-2-0.9-4.2-0.9-6.7V43.9h4.1v27.2
            c0,4,0.9,7.1,2.7,9.4c1.8,2.3,4.6,3.4,8.3,3.4c2.8,0,5.4-0.7,7.8-2.1c2.4-1.4,4.6-3.4,6.4-5.9v-32H481.6z"></path>
<path class="st0" d="M497.4,54.2c0.7-1.7,1.4-3.3,2.2-4.6c0.8-1.4,1.8-2.5,2.9-3.4c1.1-0.9,2.3-1.7,3.7-2.2
            c1.4-0.5,2.9-0.7,4.5-0.7c0.9,0,1.8,0.1,2.6,0.2c0.9,0.2,1.6,0.4,2.3,0.8l-0.3,2.8c-0.1,0.5-0.4,0.7-0.8,0.7
            c-0.3,0-0.9-0.1-1.6-0.3s-1.6-0.3-2.8-0.3c-1.7,0-3.1,0.2-4.4,0.7c-1.3,0.5-2.4,1.2-3.4,2.2c-1,1-1.9,2.2-2.7,3.7
            c-0.8,1.5-1.4,3.2-2.1,5.1v27.5h-4.1V43.9h2.2c0.5,0,0.8,0.1,1,0.3c0.2,0.2,0.3,0.5,0.4,1L497.4,54.2z"></path>
<path class="st0" d="M520.6,63.5v0.8c0,3.2,0.4,6,1.1,8.4c0.7,2.4,1.8,4.5,3.2,6.1c1.4,1.6,3,2.9,5,3.7s4.1,1.2,6.5,1.2
            c2.1,0,4-0.2,5.6-0.7c1.6-0.5,2.9-1,4-1.6c1.1-0.6,1.9-1.1,2.5-1.6c0.6-0.5,1.1-0.7,1.4-0.7c0.4,0,0.7,0.1,0.9,0.4l1.1,1.4
            c-0.7,0.9-1.6,1.7-2.7,2.4c-1.1,0.7-2.4,1.4-3.8,1.9c-1.4,0.5-2.9,0.9-4.4,1.3c-1.6,0.3-3.2,0.5-4.8,0.5c-2.9,0-5.6-0.5-8-1.5
            c-2.4-1-4.4-2.5-6.2-4.4c-1.7-1.9-3-4.3-4-7.1c-0.9-2.8-1.4-6-1.4-9.6c0-3.1,0.4-5.9,1.3-8.4c0.9-2.6,2.1-4.8,3.8-6.7
            c1.6-1.9,3.7-3.3,6-4.4c2.4-1.1,5.1-1.6,8.1-1.6c2.4,0,4.6,0.4,6.7,1.2c2.1,0.8,3.8,2,5.3,3.6c1.5,1.6,2.7,3.5,3.6,5.8
            c0.9,2.3,1.3,5,1.3,8c0,0.6-0.1,1.1-0.3,1.3c-0.2,0.2-0.5,0.3-0.9,0.3H520.6z M549,60.9c0-2.3-0.3-4.3-1-6.1
            c-0.6-1.8-1.5-3.3-2.7-4.6c-1.2-1.3-2.6-2.2-4.2-2.9c-1.6-0.7-3.4-1-5.3-1c-2.2,0-4.2,0.3-5.9,1c-1.7,0.7-3.2,1.7-4.5,3
            c-1.3,1.3-2.3,2.8-3.1,4.6c-0.8,1.8-1.3,3.8-1.5,6H549z"></path>
</g>
</g>
</svg>