<svg width="104" height="32" viewBox="0 0 104 32" fill="none" xmlns="http://www.w3.org/2000/svg">
<path fill-rule="evenodd" clip-rule="evenodd" d="M10.9708 1.74929C10.3771 2.41206 10.0187 3.04565 9.82588 3.63917C9.49032 4.67263 9.62677 5.67888 10.0512 6.65954C10.481 7.65243 11.1961 8.59317 11.9733 9.44956C12.4901 10.0192 12.9973 10.5141 13.4585 10.964C13.7039 11.2035 13.9362 11.4302 14.1501 11.6488L14.15 11.649C14.6486 12.1422 15.1542 12.5931 15.6301 13.0174C17.7186 14.8792 19.2333 16.2297 17.0475 18.4033L15.5272 19.9153C15.7206 20.1098 15.9406 20.3215 16.1842 20.5559L16.1846 20.556C16.2705 20.6386 16.3594 20.7242 16.451 20.8128C16.834 21.1825 17.2544 21.5951 17.6714 22.0418C18.5003 22.9299 19.3467 23.9843 19.8785 25.1633C20.2788 26.0504 20.5066 27.0224 20.4072 28.0473L20.7709 27.6856H20.7717H20.7725L25.5241 22.9602L26.4136 22.0756C29.5284 18.9781 29.5284 13.9564 26.4136 10.8589L20.6416 5.11869L20.6411 5.11821L17.2285 1.72461C15.5073 0.0130304 12.7168 0.0130144 10.9957 1.7246L10.9708 1.74929Z" fill="url(#paint0_linear_246_5264)"/>
<path fill-rule="evenodd" clip-rule="evenodd" d="M17.7788 30.6577C18.3726 29.9948 18.7311 29.3612 18.9237 28.7677C19.2593 27.7342 19.123 26.7281 18.6986 25.7473C18.2688 24.7544 17.5535 23.8137 16.7765 22.9573C16.2596 22.3876 15.7525 21.8928 15.2913 21.4428C15.0459 21.2035 14.8135 20.9766 14.5995 20.758L14.5998 20.7579C14.1012 20.2647 13.5955 19.8138 13.1195 19.3894C11.0311 17.5276 9.51635 16.1772 11.7021 14.0035L13.2226 12.4917C13.0291 12.297 12.809 12.0854 12.5654 11.8511L12.5652 11.851V11.8508C12.4793 11.7682 12.3904 11.6828 12.2986 11.5942C11.9156 11.2243 11.4954 10.8117 11.0783 10.365C10.2495 9.47708 9.40303 8.42253 8.87112 7.24371C8.47097 6.35642 8.24321 5.38446 8.3426 4.35953L7.97871 4.7214H7.97807H7.97726L3.22565 9.44666L2.33599 10.3312C-0.778665 13.4287 -0.778665 18.4506 2.33599 21.548L8.10821 27.2882L8.1087 27.2886L11.5213 30.6823C13.2423 32.3938 16.0329 32.394 17.754 30.6823L17.7788 30.6577Z" fill="url(#paint1_linear_246_5264)"/>
<path d="M53.0639 1.96385C53.0639 1.75141 53.2361 1.57919 53.4485 1.57919H56.8619C57.0743 1.57919 57.2465 1.75141 57.2465 1.96385V23.8638C57.2465 24.0763 57.0743 24.2485 56.8619 24.2485H53.4485C53.2361 24.2485 53.0639 24.0763 53.0639 23.8638V1.96385Z" fill="#000219"/>
<path fill-rule="evenodd" clip-rule="evenodd" d="M33.7461 16.6495C33.7461 11.9241 37.0667 8.63541 41.856 8.63541C46.6133 8.63541 49.9339 11.9241 49.9339 16.6495C49.9339 21.343 46.6133 24.6316 41.856 24.6316C37.0667 24.6316 33.7461 21.343 33.7461 16.6495ZM37.9287 16.6495C37.9287 19.108 39.5252 20.8321 41.856 20.8321C44.1548 20.8321 45.7512 19.108 45.7512 16.6495C45.7512 14.1591 44.1548 12.4349 41.856 12.4349C39.5252 12.4349 37.9287 14.1591 37.9287 16.6495Z" fill="#000219"/>
<path d="M65.9882 4.36002C65.9882 5.76487 64.8388 6.81851 63.4339 6.81851C61.9971 6.81851 60.8796 5.76487 60.8796 4.36002C60.8796 2.92323 61.9971 1.86959 63.4339 1.86959C64.8388 1.86959 65.9882 2.92323 65.9882 4.36002Z" fill="#000219"/>
<path d="M61.3586 23.8638C61.3586 24.0763 61.5308 24.2485 61.7432 24.2485H65.1565C65.369 24.2485 65.5412 24.0763 65.5412 23.8638V9.40321C65.5412 9.19077 65.369 9.01855 65.1565 9.01855H61.7432C61.5308 9.01855 61.3586 9.19077 61.3586 9.40321V23.8638Z" fill="#000219"/>
<path fill-rule="evenodd" clip-rule="evenodd" d="M81.2543 9.01855C81.0419 9.01855 80.8696 9.19077 80.8696 9.40321V9.84869C79.6883 9.08241 78.1876 8.63541 76.4954 8.63541C72.2808 8.63541 68.8964 11.7006 68.8964 16.2663C68.8964 20.1936 72.2808 23.6099 76.4954 23.6099C78.1876 23.6099 79.6883 23.1629 80.8696 22.3966V23.5749C80.8696 26.0654 79.3051 27.4064 77.2617 27.4064C75.2439 27.4064 73.9431 26.4412 73.6157 24.9977C73.5725 24.8075 73.411 24.6605 73.2159 24.6605H69.7295C69.5045 24.6605 69.3266 24.8534 69.3582 25.0762C69.8704 28.6868 73.0474 31.2059 77.2617 31.2059C81.7956 31.2059 85.0523 28.3323 85.0523 23.5749V9.40321C85.0523 9.19077 84.8801 9.01855 84.6676 9.01855H81.2543ZM76.4734 19.9512C74.4394 19.6341 73.0791 17.8848 73.0791 16.2663C73.0791 13.8398 74.7393 12.2433 77.134 12.2433C78.0735 12.2433 79.8868 12.7344 80.8696 14.2209C81.2226 14.7953 81.4255 15.475 81.4255 16.2211C81.4255 18.405 79.608 20.0429 77.3865 20.0429C77.0713 20.0429 76.7658 20.0114 76.4734 19.9512Z" fill="#000219"/>
<path fill-rule="evenodd" clip-rule="evenodd" d="M95.9222 8.63541C91.1329 8.63541 87.8123 11.9241 87.8123 16.6495C87.8123 21.343 91.1329 24.6316 95.9222 24.6316C100.68 24.6316 104 21.343 104 16.6495C104 11.9241 100.68 8.63541 95.9222 8.63541ZM95.9222 20.8321C93.5914 20.8321 91.995 19.108 91.995 16.6495C91.995 14.1591 93.5914 12.4349 95.9222 12.4349C98.2211 12.4349 99.8175 14.1591 99.8175 16.6495C99.8175 19.108 98.2211 20.8321 95.9222 20.8321Z" fill="#000219"/>
<defs>
<linearGradient id="paint0_linear_246_5264" x1="12.0302" y1="3.70369" x2="27.0704" y2="23.9167" gradientUnits="userSpaceOnUse">
<stop stop-color="#182D82"/>
<stop offset="1" stop-color="#5726F4"/>
</linearGradient>
<linearGradient id="paint1_linear_246_5264" x1="2.39248" y1="7.6223" x2="15.7413" y2="31.984" gradientUnits="userSpaceOnUse">
<stop stop-color="#4668F0"/>
<stop offset="1" stop-color="#591EF4"/>
</linearGradient>
</defs>
</svg>
