<?xml version="1.0" encoding="UTF-8" ?>
<!DOCTYPE svg PUBLIC "-//W3C//DTD SVG 1.1//EN" "http://www.w3.org/Graphics/SVG/1.1/DTD/svg11.dtd">
<svg width="1463pt" height="256pt" viewBox="0 0 1463 256" version="1.1" xmlns="http://www.w3.org/2000/svg">
<g id="#000000ff">
<path fill="#000000" opacity="1.00" d=" M 7.33 0.00 L 135.41 0.00 C 135.46 0.58 135.56 1.74 135.61 2.32 C 139.79 2.34 144.08 1.94 148.14 3.17 C 154.93 3.74 161.24 6.35 167.75 8.11 C 182.23 14.01 196.32 21.48 207.87 32.15 C 213.10 35.48 217.38 40.04 220.83 45.17 C 237.86 64.13 247.57 88.89 250.48 114.01 C 250.49 119.28 250.37 124.56 250.49 129.84 C 247.95 131.52 245.26 133.42 242.06 133.24 C 208.91 133.38 175.76 133.02 142.62 133.42 C 146.43 137.90 150.73 141.91 154.86 146.08 C 186.71 178.02 218.73 209.78 250.47 241.82 C 250.44 243.85 250.44 245.88 250.45 247.91 C 247.86 250.21 244.54 251.84 241.00 251.67 C 165.34 251.68 89.68 251.63 14.03 251.70 C 11.02 251.52 7.65 252.26 5.01 250.44 C 3.23 249.37 1.66 248.02 0.00 246.80 L 0.00 5.47 C 1.28 4.60 2.57 3.77 3.87 2.93 C 5.02 1.95 6.16 0.96 7.33 0.00 M 24.15 13.82 C 24.39 14.83 24.66 15.84 24.92 16.85 C 25.94 17.54 26.96 18.25 27.88 19.08 C 56.84 48.10 85.86 77.06 114.83 106.07 C 116.24 107.46 117.75 108.75 119.29 110.01 C 119.83 80.34 119.32 50.66 119.55 20.99 C 119.50 18.80 119.88 16.31 118.31 14.52 C 119.54 13.06 120.46 15.64 120.53 16.64 C 120.33 47.84 120.47 79.06 120.45 110.26 C 119.34 110.41 118.24 110.55 117.14 110.70 C 118.25 110.58 119.36 110.45 120.47 110.33 C 120.81 77.93 120.27 45.52 120.79 13.13 C 117.84 13.16 114.95 13.81 112.00 13.84 C 82.72 13.80 53.43 13.85 24.15 13.82 M 133.20 20.11 L 132.72 20.91 C 133.01 31.25 133.38 41.59 132.93 51.94 C 133.49 64.34 132.52 76.72 133.33 89.10 L 132.68 89.91 C 132.90 99.76 133.12 109.61 133.34 119.47 C 167.96 119.45 202.58 119.73 237.20 119.33 C 238.21 113.03 236.51 106.76 236.48 100.48 C 233.14 98.12 234.16 93.53 233.40 90.02 C 233.62 93.86 233.12 98.11 235.79 101.27 C 236.87 107.16 237.89 113.33 236.82 119.31 C 237.35 113.42 235.49 107.85 235.27 102.03 C 234.99 101.78 234.43 101.29 234.15 101.04 C 233.39 98.00 232.85 94.89 232.32 91.79 C 231.86 90.55 231.40 89.31 230.92 88.08 C 229.40 86.78 229.80 84.52 228.56 83.04 C 228.48 82.53 228.34 81.53 228.26 81.02 C 227.13 80.35 226.84 79.06 226.35 77.96 C 225.27 75.15 223.54 72.66 222.30 69.93 C 221.00 67.55 219.33 65.41 218.02 63.04 C 216.04 60.92 214.59 58.40 212.86 56.09 C 210.78 53.85 208.50 51.79 206.89 49.17 C 205.01 46.06 201.73 44.39 199.02 42.15 C 194.76 37.49 189.25 34.24 183.88 31.03 C 182.56 29.94 181.16 28.94 179.67 28.09 C 177.72 27.15 175.79 26.17 173.80 25.31 C 172.41 24.67 170.98 24.07 169.82 23.04 C 166.02 22.43 162.64 20.49 158.93 19.59 C 156.89 18.93 154.63 18.74 152.87 17.43 C 151.15 17.35 149.43 17.32 147.71 17.31 C 146.88 16.75 146.06 16.20 145.24 15.64 C 142.48 15.65 139.73 15.66 136.98 15.54 C 136.11 15.23 134.38 14.60 133.52 14.29 C 133.23 16.22 133.24 18.17 133.20 20.11 M 14.51 25.69 C 14.31 56.94 14.40 88.21 14.47 119.47 C 43.00 119.58 71.54 119.47 100.07 119.53 C 102.97 119.54 105.86 119.46 108.75 119.26 C 106.53 116.52 104.02 114.03 101.51 111.56 C 74.99 85.03 48.45 58.52 21.94 31.98 C 19.62 29.71 17.35 27.33 14.51 25.69 M 13.21 238.87 C 15.48 238.62 17.76 238.34 20.05 238.36 C 33.29 238.37 46.54 238.41 59.78 238.34 C 60.00 203.32 59.84 168.29 59.86 133.27 C 58.21 133.03 56.57 132.80 54.92 132.58 L 54.11 133.34 C 52.41 133.26 50.71 133.18 49.02 133.07 C 47.67 133.05 46.32 133.06 44.97 133.11 C 39.99 133.56 35.03 132.27 30.07 133.17 C 24.84 132.99 19.62 132.76 14.40 133.42 C 14.41 164.95 14.42 196.47 14.40 227.99 C 14.45 231.25 14.07 234.60 15.08 237.76 C 13.16 237.22 13.79 234.50 13.57 233.01 C 13.62 199.39 13.61 165.78 13.54 132.16 C 13.10 167.73 13.79 203.31 13.21 238.87 M 106.00 132.99 C 101.35 133.21 96.68 133.44 92.02 133.11 C 85.90 132.40 79.76 133.18 73.64 133.43 C 73.64 168.38 73.52 203.33 73.70 238.28 C 89.16 238.37 104.63 238.56 120.09 238.18 C 120.22 207.12 120.08 176.05 120.16 144.99 C 120.06 141.59 119.26 138.11 120.81 134.89 L 120.92 133.86 C 120.87 133.52 120.77 132.83 120.73 132.49 C 115.86 133.19 110.91 133.20 106.00 132.99 M 133.23 156.03 C 133.23 165.33 133.37 174.63 133.13 183.92 C 131.98 194.60 133.50 205.33 132.91 216.01 C 133.09 223.46 133.30 230.90 133.40 238.35 C 164.62 238.28 195.84 238.59 227.05 238.19 C 225.62 235.05 222.78 232.96 220.46 230.51 C 191.51 201.68 162.80 172.61 133.70 143.93 C 132.57 147.89 132.83 151.99 133.23 156.03 Z" />
<path fill="#000000" opacity="1.00" d=" M 1133.33 2.38 C 1143.38 2.35 1153.44 2.28 1163.49 2.42 C 1163.55 12.82 1163.51 23.21 1163.52 33.61 C 1158.38 34.64 1153.13 34.24 1147.94 34.28 C 1143.05 34.26 1138.13 34.58 1133.31 33.70 C 1133.28 23.26 1133.23 12.82 1133.33 2.38 Z" />
<path fill="#000000" opacity="1.00" d=" M 366.74 4.78 C 367.22 4.47 368.18 3.86 368.66 3.55 C 395.40 3.66 422.15 3.41 448.89 3.67 C 449.90 4.31 450.83 5.35 452.15 5.26 C 457.44 5.42 462.74 5.17 468.04 5.29 C 469.43 5.19 470.73 5.68 471.94 6.32 C 474.64 6.47 477.34 6.46 480.05 6.55 C 482.32 9.21 486.99 5.99 488.79 9.13 C 491.61 9.36 494.31 10.19 497.05 10.86 C 497.48 11.17 498.34 11.78 498.77 12.09 C 500.63 12.37 502.42 12.97 504.13 13.77 C 511.21 16.94 518.46 20.37 523.98 25.96 C 526.48 27.05 528.26 29.14 530.11 31.06 C 530.24 31.53 530.49 32.48 530.61 32.96 C 534.44 35.55 535.68 40.16 537.86 43.98 C 538.25 44.96 538.64 45.95 539.03 46.93 C 540.60 47.77 540.27 49.64 540.61 51.10 C 541.55 53.22 541.55 55.57 541.82 57.83 C 543.53 61.65 542.44 65.99 542.73 70.04 C 542.42 74.37 543.53 78.97 541.87 83.10 C 541.03 86.32 541.36 90.29 539.06 92.90 C 538.55 93.84 538.07 94.78 537.60 95.73 C 536.90 97.57 536.10 99.38 535.13 101.10 C 530.98 105.81 528.40 112.30 522.38 114.99 C 516.43 120.82 508.67 124.20 501.08 127.34 C 500.53 127.41 499.43 127.56 498.88 127.64 C 497.56 128.27 496.15 128.65 494.71 128.86 C 493.91 129.35 493.11 129.84 492.33 130.34 C 490.21 130.37 488.10 130.42 485.99 130.60 C 487.07 131.75 488.42 132.63 489.76 133.46 C 492.44 133.18 494.59 134.97 497.16 135.21 C 498.48 135.94 499.69 136.86 501.06 137.53 C 501.53 137.62 502.45 137.81 502.92 137.90 C 505.90 140.75 509.90 142.21 512.88 145.07 C 515.78 147.86 518.58 150.76 521.30 153.74 C 521.46 154.24 521.77 155.26 521.93 155.77 C 523.41 157.39 524.68 159.18 525.88 161.02 C 526.36 161.99 526.82 162.98 527.27 163.98 C 527.40 164.44 527.65 165.37 527.78 165.83 C 530.26 168.93 530.94 173.18 531.95 176.95 C 533.55 177.72 533.22 179.57 533.59 181.01 C 534.76 182.78 534.46 184.97 534.72 186.98 C 537.43 188.25 535.43 191.95 537.16 194.02 C 537.66 197.33 538.51 200.57 539.03 203.88 C 539.31 204.15 539.88 204.71 540.16 204.99 C 540.27 208.43 541.66 211.66 541.81 215.10 C 543.62 218.81 544.11 222.99 544.75 227.02 C 545.02 227.25 545.54 227.73 545.80 227.97 C 546.39 231.32 546.86 234.71 547.75 238.00 C 549.31 242.39 549.45 247.13 550.61 251.63 C 540.27 251.65 529.92 251.75 519.57 251.58 C 519.53 250.37 519.47 249.17 519.42 247.97 C 516.82 247.15 518.20 243.95 517.58 242.01 C 516.38 240.17 516.66 237.91 516.42 235.84 C 515.27 234.04 515.35 231.89 515.27 229.85 C 514.91 229.46 514.18 228.69 513.81 228.30 C 513.59 226.51 514.14 224.34 512.66 222.97 C 512.23 220.99 513.19 218.17 510.95 217.10 C 510.81 215.42 510.69 213.73 510.51 212.06 C 509.38 210.24 509.62 208.03 509.34 206.00 C 508.37 204.40 508.33 202.53 508.26 200.72 C 507.78 199.89 507.30 199.07 506.84 198.25 C 506.75 195.01 505.11 192.05 505.33 188.78 C 504.97 188.36 504.24 187.53 503.88 187.12 C 503.79 185.73 503.71 184.35 503.60 182.97 C 502.49 181.49 502.58 179.58 502.25 177.86 C 501.47 175.94 501.50 173.58 499.92 172.09 C 499.55 171.07 499.20 170.05 498.87 169.02 C 497.61 166.30 496.25 163.63 494.74 161.04 C 493.46 158.01 490.83 155.98 488.60 153.68 C 486.54 151.68 484.70 149.25 481.90 148.23 C 480.50 147.62 478.98 147.18 477.95 146.00 C 476.04 145.07 474.00 144.48 471.90 144.22 C 471.60 143.95 471.02 143.41 470.73 143.14 C 470.03 143.15 468.62 143.17 467.92 143.18 C 466.26 139.66 460.68 143.36 459.02 139.61 C 461.87 140.61 464.85 141.06 467.88 140.76 C 465.56 140.35 463.34 139.48 461.01 139.23 C 457.68 139.46 454.41 140.36 451.05 140.30 C 433.19 140.33 415.33 140.20 397.47 140.36 C 397.40 177.43 397.49 214.50 397.43 251.57 C 387.20 251.70 376.96 251.79 366.74 251.51 C 366.73 169.27 366.72 87.02 366.74 4.78 M 397.44 20.33 C 397.49 54.76 397.37 89.19 397.50 123.62 C 413.33 123.71 429.16 123.60 444.99 123.69 C 446.69 123.72 448.44 123.58 449.90 122.62 C 454.30 122.27 458.73 122.54 463.14 122.28 C 465.61 121.11 468.37 120.85 471.06 120.62 C 471.46 120.33 472.25 119.76 472.65 119.48 C 473.95 119.49 475.24 119.50 476.55 119.51 C 476.88 119.15 477.55 118.43 477.89 118.07 C 479.29 117.86 480.68 117.53 482.03 117.03 C 484.49 115.73 487.19 114.85 489.49 113.24 C 491.28 111.79 492.84 109.98 495.08 109.20 C 496.12 108.21 497.13 107.18 498.10 106.13 C 499.15 104.11 500.56 102.32 502.04 100.60 C 505.49 96.44 507.65 91.36 508.76 86.10 C 509.94 84.12 509.53 81.75 509.61 79.57 C 510.16 78.86 510.72 78.15 511.29 77.44 C 511.30 73.77 511.29 70.09 511.30 66.42 C 510.72 65.72 510.15 65.02 509.59 64.32 C 509.60 62.12 509.58 59.92 509.47 57.73 C 508.75 56.52 508.35 55.17 508.10 53.80 C 507.16 51.51 506.16 49.25 505.14 47.01 C 503.94 45.15 503.29 43.05 503.02 40.87 C 502.45 40.85 501.90 40.79 501.35 40.70 C 498.39 37.63 495.46 34.52 492.26 31.71 C 489.32 30.45 486.91 28.27 484.11 26.75 C 483.56 26.67 482.47 26.52 481.92 26.44 C 479.42 24.92 476.61 24.08 473.66 24.25 C 473.43 23.87 472.97 23.10 472.73 22.71 C 470.67 22.69 468.60 22.66 466.54 22.66 C 466.21 22.35 465.53 21.74 465.20 21.43 C 460.10 21.44 455.01 21.52 449.91 21.35 C 448.88 20.90 447.85 20.46 446.82 20.04 C 446.67 19.95 446.37 19.78 446.22 19.69 C 434.13 19.78 422.05 19.71 409.96 19.73 C 405.79 19.79 401.55 19.36 397.44 20.33 Z" />
<path fill="#000000" opacity="1.00" d=" M 1242.21 25.61 C 1243.55 24.80 1245.11 24.42 1246.62 23.95 C 1246.81 36.62 1246.66 49.30 1246.71 61.97 C 1246.78 66.12 1246.28 70.36 1247.39 74.43 C 1263.32 74.44 1279.27 74.23 1295.21 74.55 C 1295.21 79.46 1295.22 84.36 1295.19 89.27 C 1279.04 89.55 1262.90 89.13 1246.76 89.49 C 1246.62 130.32 1246.77 171.14 1246.69 211.96 C 1246.71 215.01 1246.19 218.37 1248.29 220.92 C 1248.37 222.68 1248.45 224.44 1248.53 226.21 C 1249.00 227.12 1249.47 228.04 1249.95 228.97 C 1250.75 232.15 1253.41 233.56 1256.00 235.09 C 1257.26 235.68 1258.51 236.51 1259.97 236.62 C 1271.54 237.20 1283.22 235.89 1294.74 237.33 C 1294.70 242.09 1294.73 246.86 1294.67 251.63 C 1281.38 251.69 1268.08 251.69 1254.79 251.63 C 1255.42 251.88 1256.08 252.14 1256.75 252.39 C 1253.49 252.06 1250.22 252.09 1246.96 252.07 C 1244.31 248.88 1238.53 251.21 1235.87 247.78 C 1235.39 247.69 1234.43 247.50 1233.95 247.41 C 1229.79 244.81 1225.68 241.73 1223.58 237.16 C 1223.49 236.66 1223.32 235.67 1223.23 235.17 C 1221.90 234.10 1221.47 232.39 1220.76 230.95 C 1220.54 229.09 1220.91 227.01 1220.01 225.33 C 1218.39 223.24 1218.99 220.48 1218.89 218.05 C 1218.98 175.18 1218.85 132.31 1218.96 89.44 C 1208.60 89.15 1198.22 89.61 1187.87 89.22 C 1187.60 88.94 1187.06 88.39 1186.79 88.11 C 1186.52 83.54 1186.37 78.91 1187.13 74.38 C 1197.85 74.38 1208.57 74.48 1219.29 74.30 C 1219.49 63.55 1219.25 52.79 1219.44 42.03 C 1226.91 36.39 1234.72 31.23 1242.21 25.61 Z" />
<path fill="#000000" opacity="1.00" d=" M 645.81 71.24 C 650.19 68.76 655.41 69.70 659.93 71.27 C 665.64 71.59 671.45 72.00 676.92 73.81 C 681.51 75.34 685.96 77.24 690.45 79.02 C 693.76 81.03 697.23 82.78 700.48 84.90 C 705.47 89.01 711.48 92.12 714.99 97.77 C 724.57 109.12 730.43 123.24 732.75 137.84 C 734.60 145.53 734.10 153.47 734.10 161.30 C 690.23 161.59 646.36 161.27 602.48 161.45 C 601.86 171.47 604.01 181.36 605.54 191.21 C 605.75 191.62 606.19 192.43 606.41 192.83 C 606.56 194.07 606.72 195.31 606.90 196.55 C 610.21 203.75 612.05 211.71 617.03 218.05 C 625.04 231.36 640.37 240.30 656.01 239.64 C 662.60 239.29 669.30 240.34 675.80 238.87 C 682.75 237.25 689.48 234.41 695.20 230.10 C 699.83 227.16 704.21 223.58 706.87 218.68 C 712.07 212.75 714.75 205.19 716.11 197.52 C 721.35 197.31 726.60 197.35 731.85 197.42 C 732.32 197.86 732.81 198.31 733.31 198.75 C 730.99 209.88 726.60 220.73 719.18 229.44 C 716.31 234.76 710.64 237.26 706.45 241.31 C 697.52 247.81 686.94 251.79 676.18 254.02 C 672.05 255.11 667.52 253.82 663.66 256.00 L 651.59 256.00 C 647.75 253.53 642.97 255.40 638.86 253.77 C 634.21 252.93 629.57 251.95 625.19 250.15 C 620.05 247.51 614.74 245.18 609.73 242.30 C 602.54 237.39 595.34 232.12 590.40 224.82 C 584.79 218.37 581.73 210.33 577.79 202.86 C 577.01 200.59 576.22 198.32 575.52 196.02 C 574.18 192.42 573.15 188.70 573.21 184.83 C 572.73 184.13 572.25 183.45 571.77 182.76 C 571.94 178.79 571.45 174.86 570.67 170.99 C 569.52 155.85 571.64 140.55 576.28 126.12 C 579.19 119.04 582.16 111.90 586.68 105.66 C 590.23 99.69 595.65 95.26 600.41 90.32 C 607.09 83.80 615.65 79.90 623.92 75.85 C 626.03 75.28 628.14 74.67 630.27 74.15 C 630.97 73.70 631.67 73.26 632.39 72.82 C 633.55 72.70 634.73 72.57 635.91 72.44 C 639.08 71.29 642.49 71.44 645.81 71.24 M 641.03 86.34 C 639.65 86.43 638.28 86.51 636.93 86.61 C 636.36 87.83 635.08 88.09 633.96 88.49 C 632.68 89.05 631.39 89.64 630.14 90.23 C 628.04 91.37 626.03 92.64 624.04 93.92 C 620.08 98.02 615.32 101.59 613.05 106.99 C 609.31 112.79 607.82 119.67 605.60 126.09 C 605.26 128.74 605.71 131.71 603.74 133.83 C 603.61 137.21 603.63 140.60 603.63 143.98 C 603.24 144.55 602.48 145.69 602.09 146.26 C 634.86 146.63 667.64 146.41 700.41 146.37 C 700.33 141.57 700.86 136.71 700.23 131.94 C 699.13 128.75 699.85 125.05 697.76 122.23 C 697.44 120.48 697.99 118.31 696.45 117.03 C 696.43 116.46 696.39 115.32 696.38 114.75 C 695.50 113.20 694.65 111.64 693.78 110.10 C 690.57 101.38 683.53 94.73 675.94 89.72 C 674.63 89.36 673.35 89.01 672.05 88.68 C 670.90 88.17 669.59 87.85 668.94 86.65 C 666.63 86.29 663.94 87.00 662.01 85.38 C 657.34 85.07 652.66 85.28 647.99 85.19 C 645.64 85.28 643.02 84.78 641.03 86.34 Z" />
<path fill="#000000" opacity="1.00" d=" M 1367.24 71.70 C 1371.61 71.95 1375.77 70.78 1379.97 69.78 C 1386.00 69.79 1391.80 72.13 1397.90 71.71 C 1399.97 72.33 1402.09 72.70 1404.25 72.98 C 1404.72 73.25 1405.65 73.79 1406.12 74.06 C 1416.69 76.61 1426.35 81.94 1435.02 88.40 C 1442.17 93.82 1447.66 101.08 1452.12 108.81 C 1455.67 115.57 1459.44 122.36 1460.88 129.95 C 1461.45 132.85 1462.01 135.76 1463.00 138.56 L 1463.00 161.41 C 1419.23 161.46 1375.46 161.30 1331.69 161.49 C 1331.65 164.64 1331.64 167.78 1331.65 170.93 C 1332.06 171.39 1332.88 172.30 1333.29 172.76 C 1332.96 182.48 1334.77 192.28 1338.52 201.26 C 1341.42 210.22 1346.13 218.61 1352.43 225.62 C 1360.00 233.32 1370.19 238.52 1380.98 239.59 C 1388.42 239.71 1395.87 239.51 1403.33 239.64 C 1403.73 239.34 1404.52 238.75 1404.92 238.45 C 1406.24 238.36 1407.58 238.27 1408.94 238.19 C 1416.55 235.32 1424.25 231.96 1430.03 226.04 C 1438.15 218.62 1444.42 208.55 1445.78 197.51 C 1451.51 197.32 1457.26 197.32 1463.00 197.49 L 1463.00 199.89 C 1460.58 209.50 1456.80 218.90 1450.91 226.93 C 1443.48 237.87 1431.61 244.65 1419.87 250.10 C 1415.46 251.86 1410.89 253.31 1406.14 253.74 C 1402.31 255.02 1398.22 254.62 1394.27 254.65 L 1394.23 256.00 L 1381.31 256.00 C 1377.89 254.07 1373.92 254.88 1370.23 254.34 C 1361.85 252.24 1353.36 250.15 1345.78 245.87 C 1338.09 242.51 1331.80 236.91 1325.46 231.58 C 1319.28 224.43 1313.64 216.71 1309.72 208.06 C 1310.82 206.21 1310.29 204.22 1309.45 202.41 C 1308.87 203.44 1308.32 204.48 1307.82 205.53 C 1306.64 199.61 1304.27 194.01 1302.93 188.12 C 1302.62 185.98 1302.29 183.84 1301.60 181.79 C 1301.03 177.23 1302.28 172.28 1299.82 168.13 C 1299.24 162.71 1299.72 157.30 1301.19 152.07 C 1301.13 142.29 1303.46 132.63 1307.06 123.56 C 1312.93 108.11 1323.14 94.25 1336.73 84.73 C 1337.19 84.55 1338.09 84.18 1338.55 84.00 C 1345.44 78.79 1353.69 75.75 1361.84 73.11 C 1363.63 72.67 1365.45 72.22 1367.24 71.70 M 1373.00 85.40 C 1370.24 86.96 1366.88 86.74 1363.96 87.88 C 1361.98 89.00 1359.95 90.03 1357.90 90.97 C 1357.04 91.73 1356.15 92.48 1355.32 93.23 C 1354.78 93.46 1353.72 93.92 1353.18 94.15 C 1347.94 98.34 1343.83 103.93 1341.25 110.11 C 1340.60 111.46 1340.04 112.84 1339.14 114.04 C 1338.63 114.99 1338.14 115.96 1337.67 116.92 C 1337.47 118.64 1337.37 120.39 1336.68 121.99 C 1336.24 123.70 1335.76 125.42 1334.71 126.86 C 1334.54 129.00 1334.67 131.19 1334.14 133.28 C 1332.70 137.51 1333.43 142.02 1333.38 146.39 C 1366.07 146.44 1398.78 146.53 1431.48 146.35 C 1431.37 143.50 1430.68 140.73 1429.73 138.07 C 1429.71 134.61 1430.05 131.05 1428.78 127.75 C 1427.95 125.59 1429.36 122.43 1427.01 121.11 C 1426.74 119.41 1426.44 117.72 1426.00 116.06 C 1425.55 115.01 1425.16 113.95 1424.77 112.90 C 1423.14 109.10 1421.42 105.29 1418.97 101.95 C 1416.09 98.77 1412.91 95.89 1409.92 92.82 C 1408.44 92.00 1407.07 91.00 1405.73 90.01 C 1403.41 88.33 1400.41 88.16 1398.01 86.64 C 1396.63 86.53 1395.29 86.45 1393.95 86.34 C 1393.47 86.09 1392.52 85.58 1392.04 85.33 C 1385.70 85.10 1379.33 85.12 1373.00 85.40 Z" />
<path fill="#000000" opacity="1.00" d=" M 1078.87 77.98 C 1087.16 73.24 1097.10 74.40 1106.27 74.57 C 1107.31 74.35 1108.36 74.12 1109.42 73.88 C 1109.90 82.19 1109.58 90.51 1109.63 98.82 C 1107.41 98.76 1105.17 98.70 1103.14 97.75 C 1096.78 97.56 1090.41 97.53 1084.06 97.77 C 1081.23 99.42 1077.88 99.54 1074.85 100.65 C 1073.56 101.50 1072.26 102.35 1071.00 103.22 C 1070.55 103.34 1069.65 103.57 1069.20 103.69 C 1066.47 106.62 1063.58 109.41 1060.77 112.27 C 1060.39 113.20 1060.02 114.14 1059.67 115.08 C 1059.18 116.14 1058.80 117.27 1057.88 118.05 C 1056.89 119.92 1056.36 121.97 1056.05 124.05 C 1054.27 125.46 1054.64 128.03 1053.51 129.86 C 1053.33 132.61 1053.33 135.38 1053.34 138.14 C 1052.92 138.51 1052.08 139.27 1051.66 139.64 C 1051.68 176.97 1051.73 214.30 1051.63 251.62 C 1042.55 251.69 1033.47 251.70 1024.39 251.62 C 1024.32 193.29 1024.30 134.97 1024.40 76.65 C 1024.10 77.37 1023.81 78.09 1023.54 78.81 C 1023.69 77.40 1023.83 75.99 1023.99 74.59 C 1033.16 74.23 1042.36 74.39 1051.54 74.50 C 1051.93 83.67 1051.39 92.86 1051.86 102.02 C 1052.12 102.63 1052.65 103.83 1052.91 104.44 C 1053.86 102.55 1054.78 100.64 1055.62 98.70 C 1056.97 94.52 1061.83 92.74 1062.80 88.41 C 1066.86 86.87 1069.10 82.88 1072.90 80.98 C 1074.90 80.03 1076.90 79.02 1078.87 77.98 Z" />
<path fill="#000000" opacity="1.00" d=" M 741.50 74.47 C 751.17 74.34 760.83 74.37 770.50 74.45 C 770.53 75.09 770.60 76.38 770.63 77.02 C 772.78 77.83 771.98 80.55 773.30 82.04 C 773.39 83.05 773.49 84.07 773.60 85.09 C 775.83 86.13 775.06 89.08 776.02 90.96 C 776.81 93.22 777.46 95.53 777.94 97.88 C 779.04 98.60 779.30 99.87 779.75 101.00 C 780.36 102.72 780.35 104.89 782.05 105.98 C 782.15 106.98 782.26 107.98 782.40 108.98 C 782.99 110.29 783.39 111.68 783.80 113.06 C 784.30 114.47 784.57 115.93 784.82 117.41 C 785.13 117.78 785.77 118.52 786.08 118.89 C 786.38 120.28 786.23 121.92 787.42 122.97 C 787.47 123.49 787.58 124.54 787.64 125.07 C 789.58 125.54 789.08 127.65 789.52 129.09 C 791.41 134.46 793.15 139.88 794.88 145.31 C 795.27 146.55 795.63 147.81 796.02 149.07 C 798.25 153.44 799.14 158.33 801.45 162.66 C 801.49 163.34 801.58 164.69 801.62 165.36 C 802.10 165.93 802.59 166.51 803.09 167.09 C 803.10 168.55 803.52 169.86 804.35 171.02 C 804.46 171.99 804.58 172.96 804.71 173.93 C 806.45 177.55 807.98 181.32 808.84 185.26 C 809.16 185.64 809.80 186.41 810.12 186.80 C 810.37 188.22 810.37 189.79 811.42 190.94 C 811.50 191.95 811.59 192.95 811.70 193.97 C 814.26 195.73 813.55 199.54 814.69 202.15 C 815.48 203.84 816.24 205.54 816.97 207.27 C 817.39 208.51 817.86 209.75 818.36 210.98 C 818.54 212.11 818.73 213.25 818.93 214.38 C 820.84 213.94 820.56 212.11 820.66 210.61 C 821.01 210.21 821.70 209.43 822.04 209.04 C 822.56 206.68 823.15 204.34 823.78 202.00 C 824.88 200.41 824.24 197.99 826.04 196.85 C 826.62 194.37 827.26 191.91 827.79 189.42 C 828.16 189.06 828.89 188.36 829.26 188.00 C 829.29 187.23 829.34 185.68 829.37 184.91 C 829.67 184.52 830.28 183.74 830.59 183.35 C 830.59 182.76 830.58 181.59 830.57 181.00 C 831.72 179.95 831.65 178.32 831.98 176.93 C 832.29 176.55 832.91 175.78 833.22 175.40 C 833.57 171.82 835.42 168.62 835.83 165.06 C 836.03 163.94 836.01 162.64 837.17 161.99 C 837.70 158.87 838.85 155.92 840.15 153.05 C 840.46 151.66 840.51 150.13 841.49 148.99 C 841.58 147.93 841.67 146.87 841.76 145.81 C 842.12 145.42 842.82 144.65 843.17 144.27 C 843.57 141.11 844.81 138.17 845.56 135.09 C 845.91 133.96 845.96 132.58 847.12 131.88 C 847.71 129.48 848.34 127.08 848.92 124.67 C 849.24 124.28 849.89 123.51 850.22 123.12 C 850.45 121.68 850.22 120.03 851.43 118.95 C 851.54 117.99 851.66 117.03 851.79 116.08 C 852.69 114.86 852.77 113.33 853.11 111.91 C 854.52 110.96 854.45 109.18 854.82 107.70 C 856.06 105.33 856.47 102.66 857.27 100.12 C 857.36 99.59 857.55 98.52 857.64 97.98 C 858.41 95.99 859.19 94.01 860.02 92.04 C 860.35 90.65 860.62 89.21 861.37 87.96 C 861.48 86.97 861.61 85.98 861.74 84.98 C 862.50 83.00 863.20 80.97 864.29 79.13 C 864.37 78.37 864.54 76.85 864.62 76.10 C 865.18 75.56 865.75 75.02 866.33 74.48 C 873.04 74.33 879.76 74.39 886.48 74.45 C 887.37 76.26 888.22 78.09 889.12 79.91 C 889.86 82.00 890.51 84.12 890.84 86.32 C 891.16 86.70 891.79 87.45 892.10 87.83 C 892.37 89.24 892.27 90.87 893.43 91.96 C 893.50 92.98 893.58 94.00 893.67 95.02 C 895.57 95.54 895.11 97.57 895.51 99.02 C 896.06 100.35 896.40 101.75 896.73 103.16 C 898.04 106.02 899.14 108.98 900.25 111.93 C 900.57 113.41 900.51 115.22 902.15 115.92 C 902.21 116.94 902.29 117.95 902.39 118.97 C 903.53 120.05 903.46 121.65 903.80 123.05 C 904.70 124.97 905.37 126.97 906.10 128.96 C 907.26 133.78 909.86 138.14 910.89 143.02 C 913.93 146.91 912.93 153.08 916.12 156.93 C 916.38 158.32 916.28 159.87 917.23 161.05 C 918.33 165.93 920.97 170.32 921.88 175.27 C 922.20 175.64 922.85 176.40 923.17 176.77 C 923.40 178.19 923.36 179.75 924.35 180.92 C 924.61 182.44 924.60 184.15 925.98 185.15 C 926.70 189.30 928.21 193.26 930.12 197.01 C 930.95 199.66 930.93 202.90 933.07 204.92 C 934.02 208.24 933.87 212.83 937.63 214.36 C 937.68 213.46 937.77 211.68 937.82 210.79 C 938.19 210.43 938.95 209.72 939.32 209.37 C 939.50 207.56 939.23 205.56 940.38 204.01 C 940.52 203.41 940.81 202.20 940.95 201.60 C 941.67 199.72 941.58 197.35 943.23 195.95 C 943.54 194.28 943.45 192.45 944.50 191.01 C 944.87 189.56 944.37 187.48 946.31 186.98 C 946.39 185.96 946.48 184.94 946.59 183.93 C 947.53 182.73 947.64 181.19 947.90 179.74 C 948.21 179.35 948.83 178.58 949.14 178.19 C 949.57 175.98 950.18 173.82 950.79 171.66 C 951.21 170.83 951.63 170.01 952.06 169.18 C 952.34 167.79 952.74 166.42 953.27 165.10 C 953.38 164.52 953.60 163.35 953.71 162.76 C 954.84 160.96 954.10 158.16 956.24 157.06 C 956.35 155.71 956.47 154.36 956.61 153.02 C 957.25 151.80 957.69 150.51 957.92 149.15 C 958.32 148.49 958.74 147.84 959.17 147.19 C 959.40 145.71 959.35 144.10 960.30 142.84 C 960.41 141.89 960.54 140.95 960.69 140.00 C 961.45 138.83 961.89 137.53 961.99 136.10 C 962.39 135.52 962.80 134.95 963.23 134.38 C 964.17 131.63 963.75 128.07 966.02 125.97 C 966.60 123.01 967.38 120.08 968.51 117.28 C 968.86 115.82 968.55 113.98 970.12 113.16 C 970.87 110.57 971.62 107.97 971.93 105.28 C 972.34 104.66 972.77 104.05 973.21 103.43 C 973.87 99.53 975.74 95.94 976.08 91.96 C 978.10 89.76 978.05 86.47 978.95 83.73 C 979.27 83.34 979.93 82.55 980.26 82.15 C 980.51 80.70 980.17 78.97 981.53 77.95 C 981.59 76.80 981.64 75.65 981.70 74.51 C 987.72 74.34 993.74 74.35 999.77 74.50 C 998.92 78.42 997.26 82.10 996.29 85.99 C 995.63 87.20 995.42 88.57 995.12 89.89 C 994.06 91.75 993.45 93.81 992.79 95.84 C 991.64 98.46 992.28 102.20 989.75 104.00 C 989.64 105.01 989.54 106.03 989.45 107.04 C 987.02 110.16 988.63 115.13 985.79 117.86 C 985.44 119.23 985.16 120.61 984.77 121.97 C 984.15 123.57 983.56 125.18 982.88 126.75 C 981.62 130.89 980.31 135.02 978.67 139.02 C 978.49 139.98 978.33 140.94 978.20 141.91 C 977.38 143.85 976.67 145.81 975.88 147.75 C 975.45 149.14 975.05 150.52 974.62 151.90 C 974.21 153.33 974.50 155.20 972.91 155.98 C 972.56 157.34 972.51 158.81 971.78 160.05 C 970.09 162.75 971.41 167.04 968.64 168.94 C 968.52 169.96 968.42 170.98 968.34 172.01 C 967.47 173.91 966.82 175.90 965.93 177.80 C 965.16 180.54 964.54 183.34 963.44 185.97 C 963.00 187.40 963.51 189.47 961.61 190.01 C 961.50 191.01 961.40 192.01 961.32 193.01 C 960.43 194.24 960.21 195.73 959.96 197.17 C 959.66 197.55 959.06 198.30 958.75 198.67 C 958.52 202.75 956.00 206.24 955.67 210.25 C 954.24 211.03 954.52 212.78 954.18 214.11 C 953.42 216.12 952.73 218.16 951.72 220.06 C 951.59 221.03 951.47 222.00 951.37 222.98 C 950.14 224.01 950.39 225.68 950.08 227.07 C 948.03 229.23 948.18 232.56 947.04 235.21 C 946.10 237.07 946.79 239.90 944.64 240.99 C 944.52 242.00 944.42 243.02 944.34 244.04 C 943.15 246.49 942.32 249.07 941.32 251.60 C 934.15 251.69 926.99 251.73 919.83 251.57 C 919.47 250.31 919.21 248.94 918.15 248.07 C 917.82 246.63 917.59 245.15 916.82 243.88 C 916.67 242.95 916.54 242.02 916.43 241.09 C 915.40 240.00 915.41 238.45 915.07 237.10 C 912.64 233.04 912.02 228.25 909.86 224.08 C 909.18 221.75 908.55 219.41 908.02 217.05 C 905.78 214.98 906.26 211.45 905.11 208.80 C 904.26 206.90 903.50 204.96 902.72 203.04 C 902.63 202.51 902.46 201.47 902.37 200.95 C 900.58 200.34 900.98 198.31 900.55 196.91 C 899.55 194.27 898.55 191.62 898.21 188.82 C 897.91 188.42 897.31 187.63 897.01 187.24 C 896.71 185.81 896.37 184.40 895.80 183.07 C 894.73 180.43 894.93 177.12 892.87 175.01 C 892.30 170.79 890.06 167.08 888.85 163.04 C 887.85 160.34 886.86 157.62 885.75 154.96 C 885.62 154.01 885.50 153.06 885.40 152.11 C 884.26 150.99 884.43 149.33 884.15 147.91 C 883.83 147.54 883.19 146.79 882.87 146.42 C 882.32 143.98 881.69 141.58 881.04 139.17 C 880.02 137.92 879.40 136.40 878.72 134.97 C 878.61 133.93 878.51 132.90 878.41 131.87 C 876.55 131.39 876.95 129.36 876.53 127.98 C 875.45 125.35 874.74 122.59 874.09 119.83 C 873.23 118.48 872.71 116.98 872.64 115.38 C 871.71 114.59 870.78 113.81 869.87 113.04 C 869.40 114.71 870.01 116.85 868.44 118.08 C 868.35 119.08 868.27 120.08 868.20 121.09 C 866.31 122.39 866.55 124.94 865.73 126.87 C 864.36 129.41 865.22 133.27 862.63 134.97 C 862.52 135.98 862.42 137.00 862.34 138.02 C 861.35 139.17 861.30 140.72 861.01 142.13 C 860.70 142.50 860.08 143.23 859.77 143.60 C 859.41 146.51 858.38 149.27 857.44 152.02 C 857.02 153.45 857.44 155.44 855.63 156.04 C 855.50 157.03 855.38 158.01 855.28 159.01 C 854.59 160.31 854.22 161.72 853.95 163.15 C 853.64 163.56 853.01 164.36 852.70 164.76 C 852.40 166.20 852.81 167.98 851.44 169.01 C 851.35 170.02 851.27 171.02 851.21 172.04 C 849.31 173.35 849.56 175.92 848.70 177.85 C 848.43 179.57 848.22 181.32 847.54 182.94 C 847.07 184.35 847.52 186.40 845.66 186.92 C 845.52 187.92 845.40 188.92 845.29 189.93 C 844.69 191.14 844.25 192.41 843.97 193.74 C 843.57 194.40 843.19 195.06 842.81 195.73 C 842.48 197.16 842.16 198.59 841.71 199.99 C 841.32 201.43 841.50 203.22 839.97 204.04 C 839.67 205.68 839.41 207.32 838.83 208.89 C 837.54 211.46 838.28 215.25 835.71 217.01 C 835.61 218.02 835.53 219.03 835.46 220.05 C 834.23 221.11 834.41 222.79 834.15 224.21 C 833.82 224.59 833.17 225.34 832.85 225.72 C 832.65 227.18 832.32 228.62 831.81 230.01 C 831.41 231.37 831.40 232.93 830.35 234.02 C 830.25 235.03 830.17 236.04 830.10 237.06 C 828.31 237.68 828.54 239.61 828.25 241.12 C 826.79 244.30 825.97 247.71 825.00 251.06 C 817.67 252.43 810.00 251.33 802.54 251.61 C 802.27 249.95 802.74 247.75 800.77 247.05 C 800.69 246.02 800.62 245.00 800.56 243.99 C 799.21 242.92 799.57 241.12 799.30 239.66 C 798.99 239.28 798.36 238.52 798.04 238.14 C 797.76 236.72 797.51 235.26 796.73 234.02 C 796.63 233.52 796.43 232.52 796.33 232.01 C 793.74 229.79 794.85 225.57 792.57 223.00 C 792.48 221.97 792.41 220.94 792.35 219.91 C 792.00 219.53 791.28 218.76 790.93 218.37 C 790.06 215.62 790.16 212.26 788.06 210.10 C 787.75 208.66 787.77 207.08 786.83 205.87 C 786.70 205.41 786.44 204.49 786.32 204.03 C 785.47 202.37 785.42 200.28 783.97 198.98 C 783.42 196.58 782.80 194.20 782.11 191.83 C 781.29 189.91 780.54 187.95 779.73 186.03 C 779.60 185.06 779.47 184.11 779.35 183.15 C 778.76 182.16 778.29 181.11 777.95 180.02 C 777.31 179.49 776.92 178.84 776.78 178.06 C 776.05 174.62 774.53 171.40 774.03 167.91 C 773.67 167.56 772.94 166.88 772.57 166.53 C 772.51 165.37 772.45 164.22 772.38 163.06 C 770.54 162.49 770.92 160.47 770.52 159.03 C 768.98 153.64 766.35 148.65 764.94 143.22 C 764.73 142.93 764.31 142.35 764.10 142.06 C 763.78 140.66 763.57 139.21 762.88 137.94 C 762.56 136.61 762.41 135.21 761.71 134.01 C 759.85 128.64 758.06 123.21 755.66 118.06 C 755.61 117.51 755.49 116.41 755.43 115.86 C 753.96 112.37 753.09 108.68 751.59 105.21 C 751.51 104.65 751.36 103.51 751.29 102.95 C 749.72 100.03 748.75 96.84 747.21 93.91 C 746.83 92.55 746.54 91.13 745.79 89.91 C 745.66 88.95 745.54 88.00 745.43 87.04 C 744.19 85.98 744.46 84.28 744.21 82.87 C 743.88 82.48 743.24 81.71 742.92 81.33 C 742.69 79.85 742.49 78.33 741.65 77.04 C 741.59 76.19 741.54 75.33 741.50 74.47 Z" />
<path fill="#000000" opacity="1.00" d=" M 1134.50 74.46 C 1143.76 74.39 1153.01 74.29 1162.27 74.53 C 1162.29 133.52 1162.28 192.52 1162.27 251.52 C 1153.01 251.79 1143.75 251.68 1134.49 251.59 C 1134.45 192.55 1134.43 133.50 1134.50 74.46 Z" />
</g>
</svg>
