<?xml version="1.0" encoding="UTF-8" standalone="no"?>
<!DOCTYPE svg PUBLIC "-//W3C//DTD SVG 1.1//EN" "http://www.w3.org/Graphics/SVG/1.1/DTD/svg11.dtd">
<svg width="100%" height="100%" viewBox="0 0 887 175" version="1.1" xmlns="http://www.w3.org/2000/svg" xmlns:xlink="http://www.w3.org/1999/xlink" xml:space="preserve" xmlns:serif="http://www.serif.com/" style="fill-rule:evenodd;clip-rule:evenodd;stroke-linejoin:round;stroke-miterlimit:2;">
    <g id="_-1d1819ff" serif:id="#1d1819ff" transform="matrix(1,0,0,1,-56.8135,-162.713)">
        <path d="M441.46,337.28C441.45,279.09 441.45,220.91 441.46,162.72C443.7,162.71 445.95,162.71 448.2,162.72L448.2,337.28L441.46,337.28Z" style="fill:#1d1819;fill-rule:nonzero;"/>
        <path d="M70.94,209.98C81,197.52 95.97,189.13 111.88,187.19C126.27,185.32 141.27,188.6 153.51,196.4C166.35,204.47 176.11,217.31 180.36,231.87C184.8,246.81 183.45,263.4 176.56,277.39C170.11,290.64 158.87,301.48 145.38,307.41C130.38,314.11 112.71,314.58 97.39,308.64C94.79,307.66 92.36,306.26 89.71,305.39C84.38,305.01 79.04,305.72 73.7,305.71C81.09,298.29 88.51,290.9 95.92,283.5C102.46,287.84 110.06,290.73 117.96,290.98C130.82,291.69 143.78,285.87 151.86,275.85C158.89,267.33 162.23,255.9 160.88,244.93C159.58,232.98 152.66,221.83 142.6,215.26C133.1,208.9 120.89,206.88 109.82,209.68C97.14,212.78 86.28,222.29 81.52,234.43C76.26,247.23 78.26,262.4 86.12,273.71C80.95,278.86 75.8,284.04 70.62,289.19C63.17,279.67 58.27,268.12 57.15,256.05C55.41,239.67 60.48,222.71 70.94,209.98Z" style="fill:#1d1819;fill-rule:nonzero;"/>
        <path d="M230.83,187.54C250.06,184.26 270.54,189.57 285.64,201.96C281.8,207.39 277.95,212.81 274.1,218.23C265.25,211.75 255.03,206.53 243.91,205.79C237.29,205.3 229.93,206.27 224.91,211.02C219.04,216.38 219.58,227.31 226.56,231.51C235.64,237.19 246.53,238.53 256.63,241.55C267.92,244.9 280.33,249.85 286.06,260.91C292.62,274.76 289.24,293.27 276.96,302.89C266.42,311.34 252.19,313.33 239.09,312.26C222.59,311.04 206.8,303.94 194.48,292.97C198.79,287.84 203.11,282.71 207.43,277.58C216.39,285.3 227.07,291.67 239.02,293.01C247,293.95 256,293.81 262.64,288.67C269.04,283.86 269.8,272.81 263.34,267.74C258.7,264.08 252.89,262.45 247.32,260.82C235.87,257.79 223.91,255.58 213.65,249.36C207.54,245.73 202.6,239.93 200.77,232.99C198.11,223.03 199.17,211.72 205.15,203.11C210.97,194.53 220.78,189.36 230.83,187.54Z" style="fill:#1d1819;fill-rule:nonzero;"/>
        <path d="M292.95,188.36L316.72,188.36C329.03,219.71 341.32,251.08 353.62,282.43C365.88,251.08 378.11,219.72 390.35,188.36L413.6,188.36C396.64,229.46 379.68,270.56 362.71,311.65L343.83,311.65C326.87,270.55 309.9,229.46 292.95,188.36Z" style="fill:#1d1819;fill-rule:nonzero;"/>
        <path d="M496.36,191.47C504.31,189.06 513.57,190.57 519.9,196.11C529.51,204.17 530.6,219.98 522.52,229.49C514.31,239.75 497.5,240.92 487.73,232.26C480.41,226.02 477.89,215.14 481.1,206.17C483.45,199.2 489.31,193.57 496.36,191.47M500.22,198.19C490.54,200.12 485.74,211.88 489.42,220.59C492.17,228.55 501.91,232.8 509.65,229.54C518.09,226.4 521.57,215.67 518.2,207.67C515.61,200.61 507.52,196.34 500.22,198.19Z" style="fill:#1d1819;fill-rule:nonzero;"/>
        <path d="M687.63,192.69C695.94,188.38 706.29,190.74 713.53,196.15C712.09,198.2 710.65,200.25 709.21,202.29C704.34,199.12 698.21,196.17 692.39,198.49C688.62,199.76 687.81,205.61 691.43,207.53C697.75,211.03 705.84,210.58 711.42,215.6C717.45,221.22 715.21,232.54 707.77,235.87C698.3,240.31 686.81,237.19 679.08,230.66C680.68,228.71 682.31,226.77 683.94,224.84C689.27,229.26 696.81,232.57 703.62,229.69C707.26,228.26 707.97,222.47 704.39,220.57C698.07,217.08 689.96,217.6 684.37,212.63C678.54,207.12 680.5,196.2 687.63,192.69Z" style="fill:#1d1819;fill-rule:nonzero;"/>
        <path d="M536.83,202.48L544.82,202.48C544.8,204.32 544.77,206.16 544.75,208.01C546.96,205.71 549.29,203.22 552.48,202.34C559.45,200.22 567.44,203.91 570.62,210.4C575.1,219.12 572.8,231.97 563.4,236.43C557.07,239.72 549.12,237.61 544.75,232.13C544.84,237.35 544.8,242.57 544.8,247.79L536.83,247.79L536.83,202.48M551.25,209.32C544.37,211.89 542.65,221.55 546.89,227.11C549.82,231.26 556.16,232.35 560.28,229.35C565.07,225.93 565.85,218.75 563.22,213.77C561.09,209.54 555.63,207.52 551.25,209.32Z" style="fill:#1d1819;fill-rule:nonzero;"/>
        <path d="M586.63,204.63C593.23,200.01 603.47,200.92 608.55,207.41C612.05,211.65 612.8,217.35 612.75,222.68C604.07,222.76 595.39,222.64 586.72,222.74C587.91,226 589.52,229.66 593.11,230.82C597.87,232.77 602.96,230.64 606.63,227.5C608.17,228.89 609.72,230.29 611.25,231.7C604.24,239.85 590.09,240.37 583.15,231.9C576.55,223.99 578.02,210.52 586.63,204.63M590.39,210.37C588.3,212.16 587.6,214.93 586.66,217.39C592.8,217.45 598.95,217.46 605.1,217.37C604.17,214.93 603.63,212.13 601.58,210.34C598.54,207.56 593.41,207.6 590.39,210.37Z" style="fill:#1d1819;fill-rule:nonzero;"/>
        <path d="M620.73,202.49C623.4,202.48 626.06,202.48 628.73,202.48C628.69,204.19 628.64,205.89 628.61,207.6C631.61,203.92 636.06,201.02 641.03,201.82C646.92,201.99 651.58,207.24 651.81,212.99C652.17,221.07 651.84,229.17 651.95,237.26L643.98,237.26C643.95,231.17 644.02,225.07 644.01,218.98C643.92,216.5 643.95,213.76 642.39,211.67C639.52,207.81 632.81,208.19 630.2,212.16C628.61,214.45 628.73,217.37 628.67,220.03C628.69,225.77 628.71,231.51 628.7,237.25C626.04,237.26 623.39,237.26 620.74,237.26C620.73,225.67 620.73,214.08 620.73,202.49Z" style="fill:#1d1819;fill-rule:nonzero;"/>
        <path d="M734.4,202.6C741.94,200.22 750.98,202.87 755.45,209.53C760.48,216.58 759.42,227.16 753.01,233.01C746.42,239.37 735.08,239.75 728.06,233.89C722.86,229.72 720.5,222.51 721.99,216.05C723.27,209.74 728.24,204.41 734.4,202.6M736.3,209.37C729.31,211.8 727.52,221.61 731.92,227.12C735.14,231.51 741.91,232.41 746.27,229.24C750.95,225.88 751.91,218.82 749.09,213.97C746.7,209.55 740.95,207.62 736.3,209.37Z" style="fill:#1d1819;fill-rule:nonzero;"/>
        <path d="M789.59,202.48L797.56,202.48L797.56,237.26C794.88,237.26 792.21,237.26 789.55,237.25C789.58,235.53 789.62,233.8 789.69,232.08C787.66,234.21 785.58,236.58 782.64,237.41C778.22,238.68 772.87,237.91 769.66,234.4C767.06,231.64 766.33,227.72 766.34,224.06C766.31,216.86 766.36,209.67 766.35,202.48C768.99,202.48 771.65,202.48 774.31,202.49C774.35,209.01 774.25,215.54 774.32,222.07C774.3,225.05 775.17,228.52 778.08,229.93C782.43,232.24 788.66,229.67 789.31,224.57C789.98,217.24 789.39,209.84 789.59,202.48Z" style="fill:#1d1819;fill-rule:nonzero;"/>
        <path d="M820.67,203.69C822.78,202.26 825.38,202.02 827.82,201.57C827.85,204.38 827.85,207.2 827.85,210.01C823.37,210.34 818.56,212.22 816.87,216.74C814.51,223.3 815.89,230.44 815.54,237.26L807.57,237.26C807.56,225.67 807.57,214.08 807.57,202.49C810.23,202.48 812.89,202.48 815.56,202.49C815.53,205.01 815.51,207.53 815.44,210.05C816.91,207.74 818.31,205.22 820.67,203.69Z" style="fill:#1d1819;fill-rule:nonzero;"/>
        <path d="M837.45,206.51C844.62,199.65 857.03,200.38 863.71,207.59C862.08,209.39 860.45,211.17 858.82,212.96C855.85,210.35 852.1,207.95 847.96,208.9C842.05,209.85 838.69,216.49 839.82,222.05C840.47,226.99 844.88,231.28 849.99,231.13C853.59,231.35 856.53,229 859.22,226.93C860.81,228.5 862.4,230.08 863.98,231.67C857.46,239.25 844.87,240.34 837.49,233.44C829.76,226.66 829.81,213.34 837.45,206.51Z" style="fill:#1d1819;fill-rule:nonzero;"/>
        <path d="M874.07,206.08C880.48,199.96 892.13,200.28 897.74,207.34C901.3,211.59 902.02,217.31 902,222.67C893.32,222.77 884.64,222.63 875.97,222.76C877.14,225.96 878.7,229.56 882.21,230.77C886.98,232.79 892.16,230.69 895.85,227.5C897.39,228.88 898.93,230.27 900.48,231.67C894.19,238.93 882.32,240.29 874.78,234.24C866.28,227.56 866.19,213.28 874.07,206.08M879.94,210.1C877.63,211.85 876.92,214.82 875.9,217.37C882.04,217.46 888.19,217.45 894.33,217.39C893.44,214.9 892.84,212.04 890.72,210.25C887.77,207.65 882.96,207.63 879.94,210.1Z" style="fill:#1d1819;fill-rule:nonzero;"/>
    </g>
    <g id="_-e62129ff" serif:id="#e62129ff" transform="matrix(1,0,0,1,-56.8135,-162.713)">
        <path d="M111.43,221.62C124.96,217.25 140.83,224.44 146.53,237.44C152.67,250.07 147.99,266.59 136.17,274.16C124.66,282.16 107.61,280.14 98.31,269.64C88.46,259.41 87.94,241.94 97.17,231.14C100.84,226.65 105.87,223.28 111.43,221.62M111.41,234.77C113.18,235.75 115.02,236.6 116.71,237.72C115.44,239.35 114.23,241.02 113.09,242.74C117.52,241.25 122.21,241.09 126.62,242.78C125.48,241.04 124.27,239.37 123.04,237.7C124.72,236.57 126.59,235.78 128.36,234.81C125.28,233.02 122.12,234.83 121.07,237.97C120.29,237.98 119.5,237.99 118.72,238C117.6,234.92 114.57,232.98 111.41,234.77M111.3,246.01C108.2,245.89 103.86,248.4 106.14,251.93C107.3,250.28 108.58,248.72 110.28,247.6C110.34,248.56 110.47,250.48 110.53,251.44C107.61,251.79 104.1,254.31 106.09,257.55C107.25,255.91 108.39,254.21 110.24,253.28C110.33,254.56 110.41,255.85 110.48,257.14C107.62,257.58 104.14,259.88 106.02,263.17C107.21,261.71 108.43,260.27 109.85,259.03C113.07,267.68 126.82,267.49 130.06,258.94C131.23,260.13 132.3,261.42 133.21,262.83C133.58,262.61 134.33,262.16 134.7,261.94C134.11,259.18 131.95,257.61 129.27,257.15C129.35,255.88 129.43,254.61 129.52,253.35C131.39,254.2 132.47,255.92 133.54,257.58C135.75,254.36 132.14,251.82 129.23,251.47C129.28,250.29 129.33,249.11 129.37,247.94C130.05,248.25 130.74,248.57 131.43,248.89C132.31,250.03 133.24,251.13 134.21,252.21C135.29,248.31 131.95,245.98 128.5,246.05C126.21,244.23 123.54,243.05 120.7,242.45C120.62,248.26 120.69,254.06 120.65,259.86C120.26,259.88 119.49,259.92 119.11,259.94C119.07,254.12 119.11,248.3 119.08,242.48C116.23,243.04 113.57,244.2 111.3,246.01Z" style="fill:#e62129;fill-rule:nonzero;"/>
        <path d="M568.91,260.77C571.56,260.76 574.21,260.76 576.87,260.77L576.87,308.84L568.91,308.84C568.9,292.82 568.9,276.79 568.91,260.77Z" style="fill:#e62129;fill-rule:nonzero;"/>
        <path d="M732.1,260.77C734.75,260.76 737.4,260.76 740.07,260.77C740.04,267.06 740.13,273.35 739.99,279.65C742.18,277.29 744.54,274.81 747.76,273.92C754.74,271.8 762.75,275.53 765.91,282.04C770.29,290.68 768.11,303.28 758.96,307.88C752.57,311.36 744.42,309.28 739.99,303.68C740.02,305.39 740.06,307.12 740.09,308.84L732.1,308.84L732.1,260.77M747.36,280.62C740.39,282.5 737.95,291.64 741.38,297.52C743.65,301.84 749.32,303.9 753.81,301.89C761.75,298.51 762.06,285.51 754.59,281.42C752.41,280.2 749.75,279.96 747.36,280.62Z" style="fill:#e62129;fill-rule:nonzero;"/>
        <path d="M776.35,261.17C779.2,261.16 782.05,261.16 784.91,261.16L784.91,268.74C782.05,268.73 779.2,268.73 776.35,268.73C776.35,266.21 776.34,263.69 776.35,261.17Z" style="fill:#e62129;fill-rule:nonzero;"/>
        <path d="M795.52,260.77C798.17,260.76 800.82,260.76 803.49,260.77L803.49,308.84L795.52,308.84L795.52,260.77Z" style="fill:#e62129;fill-rule:nonzero;"/>
        <path d="M814.02,261.16C816.87,261.16 819.72,261.16 822.58,261.17L822.58,268.74C819.73,268.73 816.87,268.73 814.03,268.74C814.01,266.21 814.01,263.69 814.02,261.16Z" style="fill:#e62129;fill-rule:nonzero;"/>
        <path d="M859.86,261.17C862.71,261.16 865.56,261.16 868.42,261.16C868.41,263.69 868.41,266.21 868.42,268.73C865.56,268.74 862.71,268.74 859.86,268.74C859.85,266.21 859.85,263.69 859.86,261.17Z" style="fill:#e62129;fill-rule:nonzero;"/>
        <path d="M477.83,262.74L486.78,262.74C491.41,274.55 496.04,286.36 500.68,298.16C505.3,286.36 509.89,274.55 514.51,262.74L523.26,262.74C516.88,278.22 510.49,293.7 504.1,309.17L496.99,309.17C490.6,293.7 484.21,278.22 477.83,262.74Z" style="fill:#e62129;fill-rule:nonzero;"/>
        <path d="M834.37,264.52L842.34,264.52C842.33,267.7 842.34,270.89 842.34,274.07L851.69,274.07L851.69,280.92L842.34,280.92C842.36,286.29 842.29,291.66 842.34,297.03C842.36,298.74 842.38,300.99 844.21,301.85C846.6,302.91 849.21,301.88 851.62,301.4C851.56,303.58 851.54,305.75 851.51,307.93C847.43,309.44 842.68,310.27 838.64,308.22C835.59,306.67 834.44,303.08 834.4,299.87C834.29,293.56 834.41,287.24 834.37,280.92L829.96,280.92C829.95,278.63 829.95,276.35 829.96,274.07L834.37,274.07L834.37,264.52Z" style="fill:#e62129;fill-rule:nonzero;"/>
        <path d="M601.98,273.98C606.43,272.59 611.87,273.37 615.15,276.9C617.69,279.57 618.47,283.39 618.49,286.96C618.53,294.26 618.48,301.55 618.5,308.84L610.53,308.84C610.46,301.94 610.64,295.03 610.47,288.12C610.45,284.84 608.45,281.32 604.98,280.77C600.69,279.62 595.88,282.61 595.45,287.11C594.96,294.34 595.38,301.6 595.25,308.84L587.28,308.84L587.28,274.07L595.28,274.07C595.24,275.79 595.2,277.51 595.15,279.23C597.12,277.15 599.14,274.86 601.98,273.98Z" style="fill:#e62129;fill-rule:nonzero;"/>
        <path d="M632.38,277.31C638.92,271.48 650.39,272.04 655.81,279.13C659.22,283.37 659.98,288.99 659.9,294.27C651.24,294.36 642.58,294.18 633.92,294.37C635.02,297.52 636.52,300.99 639.89,302.26C644.68,304.39 650.08,302.42 653.73,299.05C655.28,300.45 656.83,301.84 658.38,303.24C651.94,310.81 639.36,311.91 631.94,305.19C624.03,298.12 624.38,284.17 632.38,277.31M637.25,282.23C635.38,284 634.71,286.57 633.86,288.91C639.97,289.12 646.09,289 652.21,289.01C651.41,286.58 650.83,283.87 648.88,282.06C645.77,279.05 640.28,279.15 637.25,282.23Z" style="fill:#e62129;fill-rule:nonzero;"/>
        <path d="M884.23,276.22C890.8,271.63 900.96,272.49 906.07,278.9C909.64,283.15 910.43,288.9 910.34,294.28C901.68,294.34 893.02,294.2 884.37,294.36C885.45,297.7 887.21,301.3 890.83,302.46C895.54,304.29 900.61,302.27 904.18,299.06C905.73,300.44 907.27,301.83 908.82,303.23C902.46,310.75 890.07,311.89 882.62,305.39C874,298.02 874.85,282.61 884.23,276.22M887.97,281.97C885.88,283.76 885.16,286.51 884.35,289.02C890.43,289.03 896.52,289.03 902.61,289.02C901.89,286.69 901.37,284.14 899.61,282.35C896.65,279.15 891.14,279.04 887.97,281.97Z" style="fill:#e62129;fill-rule:nonzero;"/>
        <path d="M527.22,274.07L535.19,274.07C535.22,280.74 535.12,287.42 535.21,294.09C535.24,296.6 535.92,299.35 538.02,300.94C541.36,303.33 546.73,302.64 549.02,299.1C550.43,297.02 550.45,294.42 550.48,292.01C550.47,286.03 550.46,280.05 550.47,274.07C553.12,274.07 555.77,274.06 558.43,274.07L558.43,308.84L550.43,308.84C550.45,307.13 550.49,305.42 550.55,303.71C546.49,309.62 537.74,311.59 531.89,307.22C528.45,304.66 527.19,300.19 527.23,296.07C527.18,288.74 527.24,281.41 527.22,274.07Z" style="fill:#e62129;fill-rule:nonzero;"/>
        <path d="M667.89,274.07C670.54,274.07 673.21,274.07 675.87,274.08C675.86,276.59 675.83,279.1 675.79,281.62C678.01,276.71 682.65,273.22 688.15,273.17C688.16,275.98 688.17,278.8 688.18,281.62C683.47,281.81 678.51,284.1 676.97,288.87C674.94,295.31 676.19,302.2 675.86,308.84L667.89,308.84C667.89,297.25 667.88,285.66 667.89,274.07Z" style="fill:#e62129;fill-rule:nonzero;"/>
        <path d="M694.1,276.34C700.6,273.66 708.15,272.35 714.9,274.85C719.62,276.58 722.36,281.53 722.52,286.39C722.75,293.87 722.54,301.36 722.62,308.84L714.66,308.84C714.71,307.86 714.79,305.89 714.84,304.9C709.41,310.3 699.7,311.48 693.92,306.04C689.44,301.62 690.26,293 695.8,289.8C701.66,286.33 708.82,287.48 715.14,288.79C714.56,286.18 714.09,282.96 711.33,281.73C706.48,279.51 700.97,281.09 696.19,282.72C695.49,280.59 694.79,278.47 694.1,276.34M701.75,293.76C698.55,295.16 697.92,300.11 700.8,302.15C704.45,304.55 709.82,303.88 712.98,300.92C714.94,299.17 714.81,296.37 715.15,293.99C710.81,292.95 705.99,291.79 701.75,293.76Z" style="fill:#e62129;fill-rule:nonzero;"/>
        <rect x="776.68" y="274.07" width="7.97" height="34.77" style="fill:#e62129;fill-rule:nonzero;"/>
        <rect x="814.35" y="274.07" width="7.97" height="34.77" style="fill:#e62129;fill-rule:nonzero;"/>
        <path d="M860.19,274.07L868.16,274.07C868.16,285.66 868.15,297.25 868.16,308.84L860.19,308.84L860.19,274.07Z" style="fill:#e62129;fill-rule:nonzero;"/>
        <path d="M922.31,275.28C928.7,271.75 936.42,273.94 942.42,277.27C941.38,279.19 940.33,281.09 939.28,282.99C935.52,281.17 931.32,278.97 927.04,280.14C924.78,280.61 923.46,283.89 925.53,285.39C930.32,288.65 936.97,288.48 941.08,292.9C945.24,297.54 942.95,305.81 937.26,308.1C930,311.22 921.65,308.78 915.45,304.43C916.61,302.61 917.8,300.8 919,299C923.27,301.71 928.52,304.37 933.66,302.61C936.14,301.82 936.74,297.97 934.27,296.78C929.62,294.12 923.63,294.17 919.64,290.32C915.32,286.04 917.03,278 922.31,275.28Z" style="fill:#e62129;fill-rule:nonzero;"/>
    </g>
</svg>
