<?xml version="1.0" encoding="UTF-8" ?>
<!DOCTYPE svg PUBLIC "-//W3C//DTD SVG 1.1//EN" "http://www.w3.org/Graphics/SVG/1.1/DTD/svg11.dtd">
<svg width="1000pt" height="500pt" viewBox="0 0 1000 500" version="1.1" xmlns="http://www.w3.org/2000/svg">
<g id="#1d1819ff">
<path fill="#1d1819" opacity="1.00" d=" M 441.46 337.28 C 441.45 279.09 441.45 220.91 441.46 162.72 C 443.70 162.71 445.95 162.71 448.20 162.72 C 448.20 220.91 448.20 279.09 448.20 337.28 C 445.95 337.28 443.70 337.28 441.46 337.28 Z" />
<path fill="#1d1819" opacity="1.00" d=" M 70.94 209.98 C 81.00 197.52 95.97 189.13 111.88 187.19 C 126.27 185.32 141.27 188.60 153.51 196.40 C 166.35 204.47 176.11 217.31 180.36 231.87 C 184.80 246.81 183.45 263.40 176.56 277.39 C 170.11 290.64 158.87 301.48 145.38 307.41 C 130.38 314.11 112.71 314.58 97.39 308.64 C 94.79 307.66 92.36 306.26 89.71 305.39 C 84.38 305.01 79.04 305.72 73.70 305.71 C 81.09 298.29 88.51 290.90 95.92 283.50 C 102.46 287.84 110.06 290.73 117.96 290.98 C 130.82 291.69 143.78 285.87 151.86 275.85 C 158.89 267.33 162.23 255.90 160.88 244.93 C 159.58 232.98 152.66 221.83 142.60 215.26 C 133.10 208.90 120.89 206.88 109.82 209.68 C 97.14 212.78 86.28 222.29 81.52 234.43 C 76.26 247.23 78.26 262.40 86.12 273.71 C 80.95 278.86 75.80 284.04 70.62 289.19 C 63.17 279.67 58.27 268.12 57.15 256.05 C 55.41 239.67 60.48 222.71 70.94 209.98 Z" />
<path fill="#1d1819" opacity="1.00" d=" M 230.83 187.54 C 250.06 184.26 270.54 189.57 285.64 201.96 C 281.80 207.39 277.95 212.81 274.10 218.23 C 265.25 211.75 255.03 206.53 243.91 205.79 C 237.29 205.30 229.93 206.27 224.91 211.02 C 219.04 216.38 219.58 227.31 226.56 231.51 C 235.64 237.19 246.53 238.53 256.63 241.55 C 267.92 244.90 280.33 249.85 286.06 260.91 C 292.62 274.76 289.24 293.27 276.96 302.89 C 266.42 311.34 252.19 313.33 239.09 312.26 C 222.59 311.04 206.80 303.94 194.48 292.97 C 198.79 287.84 203.11 282.71 207.43 277.58 C 216.39 285.30 227.07 291.67 239.02 293.01 C 247.00 293.95 256.00 293.81 262.64 288.67 C 269.04 283.86 269.80 272.81 263.34 267.74 C 258.70 264.08 252.89 262.45 247.32 260.82 C 235.87 257.79 223.91 255.58 213.65 249.36 C 207.54 245.73 202.60 239.93 200.77 232.99 C 198.11 223.03 199.17 211.72 205.15 203.11 C 210.97 194.53 220.78 189.36 230.83 187.54 Z" />
<path fill="#1d1819" opacity="1.00" d=" M 292.95 188.36 C 300.87 188.36 308.80 188.36 316.72 188.36 C 329.03 219.71 341.32 251.08 353.62 282.43 C 365.88 251.08 378.11 219.72 390.35 188.36 C 398.10 188.36 405.85 188.36 413.60 188.36 C 396.64 229.46 379.68 270.56 362.71 311.65 C 356.42 311.65 350.12 311.65 343.83 311.65 C 326.87 270.55 309.90 229.46 292.95 188.36 Z" />
<path fill="#1d1819" opacity="1.00" d=" M 496.36 191.47 C 504.31 189.06 513.57 190.57 519.90 196.11 C 529.51 204.17 530.60 219.98 522.52 229.49 C 514.31 239.75 497.50 240.92 487.73 232.26 C 480.41 226.02 477.89 215.14 481.10 206.17 C 483.45 199.20 489.31 193.57 496.36 191.47 M 500.22 198.19 C 490.54 200.12 485.74 211.88 489.42 220.59 C 492.17 228.55 501.91 232.80 509.65 229.54 C 518.09 226.40 521.57 215.67 518.20 207.67 C 515.61 200.61 507.52 196.34 500.22 198.19 Z" />
<path fill="#1d1819" opacity="1.00" d=" M 687.63 192.69 C 695.94 188.38 706.29 190.74 713.53 196.15 C 712.09 198.20 710.65 200.25 709.21 202.29 C 704.34 199.12 698.21 196.17 692.39 198.49 C 688.62 199.76 687.81 205.61 691.43 207.53 C 697.75 211.03 705.84 210.58 711.42 215.60 C 717.45 221.22 715.21 232.54 707.77 235.87 C 698.30 240.31 686.81 237.19 679.08 230.66 C 680.68 228.71 682.31 226.77 683.94 224.84 C 689.27 229.26 696.81 232.57 703.62 229.69 C 707.26 228.26 707.97 222.47 704.39 220.57 C 698.07 217.08 689.96 217.60 684.37 212.63 C 678.54 207.12 680.50 196.20 687.63 192.69 Z" />
<path fill="#1d1819" opacity="1.00" d=" M 536.83 202.48 C 539.49 202.48 542.15 202.48 544.82 202.48 C 544.80 204.32 544.77 206.16 544.75 208.01 C 546.96 205.71 549.29 203.22 552.48 202.34 C 559.45 200.22 567.44 203.91 570.62 210.40 C 575.10 219.12 572.80 231.97 563.40 236.43 C 557.07 239.72 549.12 237.61 544.75 232.13 C 544.84 237.35 544.80 242.57 544.80 247.79 C 542.14 247.79 539.48 247.79 536.83 247.79 C 536.83 232.68 536.83 217.58 536.83 202.48 M 551.25 209.32 C 544.37 211.89 542.65 221.55 546.89 227.11 C 549.82 231.26 556.16 232.35 560.28 229.35 C 565.07 225.93 565.85 218.75 563.22 213.77 C 561.09 209.54 555.63 207.52 551.25 209.32 Z" />
<path fill="#1d1819" opacity="1.00" d=" M 586.63 204.63 C 593.23 200.01 603.47 200.92 608.55 207.41 C 612.05 211.65 612.80 217.35 612.75 222.68 C 604.07 222.76 595.39 222.64 586.72 222.74 C 587.91 226.00 589.52 229.66 593.11 230.82 C 597.87 232.77 602.96 230.64 606.63 227.50 C 608.17 228.89 609.72 230.29 611.25 231.70 C 604.24 239.85 590.09 240.37 583.15 231.90 C 576.55 223.99 578.02 210.52 586.63 204.63 M 590.39 210.37 C 588.30 212.16 587.60 214.93 586.66 217.39 C 592.80 217.45 598.95 217.46 605.10 217.37 C 604.17 214.93 603.63 212.13 601.58 210.34 C 598.54 207.56 593.41 207.60 590.39 210.37 Z" />
<path fill="#1d1819" opacity="1.00" d=" M 620.73 202.49 C 623.40 202.48 626.06 202.48 628.73 202.48 C 628.69 204.19 628.64 205.89 628.61 207.60 C 631.61 203.92 636.06 201.02 641.03 201.82 C 646.92 201.99 651.58 207.24 651.81 212.99 C 652.17 221.07 651.84 229.17 651.95 237.26 C 649.29 237.26 646.63 237.26 643.98 237.26 C 643.95 231.17 644.02 225.07 644.01 218.98 C 643.92 216.50 643.95 213.76 642.39 211.67 C 639.52 207.81 632.81 208.19 630.20 212.16 C 628.61 214.45 628.73 217.37 628.67 220.03 C 628.69 225.77 628.71 231.51 628.70 237.25 C 626.04 237.26 623.39 237.26 620.74 237.26 C 620.73 225.67 620.73 214.08 620.73 202.49 Z" />
<path fill="#1d1819" opacity="1.00" d=" M 734.40 202.60 C 741.94 200.22 750.98 202.87 755.45 209.53 C 760.48 216.58 759.42 227.16 753.01 233.01 C 746.42 239.37 735.08 239.75 728.06 233.89 C 722.86 229.72 720.50 222.51 721.99 216.05 C 723.27 209.74 728.24 204.41 734.40 202.60 M 736.30 209.37 C 729.31 211.80 727.52 221.61 731.92 227.12 C 735.14 231.51 741.91 232.41 746.27 229.24 C 750.95 225.88 751.91 218.82 749.09 213.97 C 746.70 209.55 740.95 207.62 736.30 209.37 Z" />
<path fill="#1d1819" opacity="1.00" d=" M 789.59 202.48 C 792.24 202.48 794.90 202.48 797.56 202.48 C 797.56 214.07 797.56 225.67 797.56 237.26 C 794.88 237.26 792.21 237.26 789.55 237.25 C 789.58 235.53 789.62 233.80 789.69 232.08 C 787.66 234.21 785.58 236.58 782.64 237.41 C 778.22 238.68 772.87 237.91 769.66 234.40 C 767.06 231.64 766.33 227.72 766.34 224.06 C 766.31 216.86 766.36 209.67 766.35 202.48 C 768.99 202.48 771.65 202.48 774.31 202.49 C 774.35 209.01 774.25 215.54 774.32 222.07 C 774.30 225.05 775.17 228.52 778.08 229.93 C 782.43 232.24 788.66 229.67 789.31 224.57 C 789.98 217.24 789.39 209.84 789.59 202.48 Z" />
<path fill="#1d1819" opacity="1.00" d=" M 820.67 203.69 C 822.78 202.26 825.38 202.02 827.82 201.57 C 827.85 204.38 827.85 207.20 827.85 210.01 C 823.37 210.34 818.56 212.22 816.87 216.74 C 814.51 223.30 815.89 230.44 815.54 237.26 C 812.88 237.26 810.22 237.26 807.57 237.26 C 807.56 225.67 807.57 214.08 807.57 202.49 C 810.23 202.48 812.89 202.48 815.56 202.49 C 815.53 205.01 815.51 207.53 815.44 210.05 C 816.91 207.74 818.31 205.22 820.67 203.69 Z" />
<path fill="#1d1819" opacity="1.00" d=" M 837.45 206.51 C 844.62 199.65 857.03 200.38 863.71 207.59 C 862.08 209.39 860.45 211.17 858.82 212.96 C 855.85 210.35 852.10 207.95 847.96 208.90 C 842.05 209.85 838.69 216.49 839.82 222.05 C 840.47 226.99 844.88 231.28 849.99 231.13 C 853.59 231.35 856.53 229.00 859.22 226.93 C 860.81 228.50 862.40 230.08 863.98 231.67 C 857.46 239.25 844.87 240.34 837.49 233.44 C 829.76 226.66 829.81 213.34 837.45 206.51 Z" />
<path fill="#1d1819" opacity="1.00" d=" M 874.07 206.08 C 880.48 199.96 892.13 200.28 897.74 207.34 C 901.30 211.59 902.02 217.31 902.00 222.67 C 893.32 222.77 884.64 222.63 875.97 222.76 C 877.14 225.96 878.70 229.56 882.21 230.77 C 886.98 232.79 892.16 230.69 895.85 227.50 C 897.39 228.88 898.93 230.27 900.48 231.67 C 894.19 238.93 882.32 240.29 874.78 234.24 C 866.28 227.56 866.19 213.28 874.07 206.08 M 879.94 210.10 C 877.63 211.85 876.92 214.82 875.90 217.37 C 882.04 217.46 888.19 217.45 894.33 217.39 C 893.44 214.90 892.84 212.04 890.72 210.25 C 887.77 207.65 882.96 207.63 879.94 210.10 Z" />
</g>
<g id="#e62129ff">
<path fill="#e62129" opacity="1.00" d=" M 111.43 221.62 C 124.96 217.25 140.83 224.44 146.53 237.44 C 152.67 250.07 147.99 266.59 136.17 274.16 C 124.66 282.16 107.61 280.14 98.31 269.64 C 88.46 259.41 87.94 241.94 97.17 231.14 C 100.84 226.65 105.87 223.28 111.43 221.62 M 111.41 234.77 C 113.18 235.75 115.02 236.60 116.71 237.72 C 115.44 239.35 114.23 241.02 113.09 242.74 C 117.52 241.25 122.21 241.09 126.62 242.78 C 125.48 241.04 124.27 239.37 123.04 237.70 C 124.72 236.57 126.59 235.78 128.36 234.81 C 125.28 233.02 122.12 234.83 121.07 237.97 C 120.29 237.98 119.50 237.99 118.72 238.00 C 117.60 234.92 114.57 232.98 111.41 234.77 M 111.30 246.01 C 108.20 245.89 103.86 248.40 106.14 251.93 C 107.30 250.28 108.58 248.72 110.28 247.60 C 110.34 248.56 110.47 250.48 110.53 251.44 C 107.61 251.79 104.10 254.31 106.09 257.55 C 107.25 255.91 108.39 254.21 110.24 253.28 C 110.33 254.56 110.41 255.85 110.48 257.14 C 107.62 257.58 104.14 259.88 106.02 263.17 C 107.21 261.71 108.43 260.27 109.85 259.03 C 113.07 267.68 126.82 267.49 130.06 258.94 C 131.23 260.13 132.30 261.42 133.21 262.83 C 133.58 262.61 134.33 262.16 134.70 261.94 C 134.11 259.18 131.95 257.61 129.27 257.15 C 129.35 255.88 129.43 254.61 129.52 253.35 C 131.39 254.20 132.47 255.92 133.54 257.58 C 135.75 254.36 132.14 251.82 129.23 251.47 C 129.28 250.29 129.33 249.11 129.37 247.94 C 130.05 248.25 130.74 248.57 131.43 248.89 C 132.31 250.03 133.24 251.13 134.21 252.21 C 135.29 248.31 131.95 245.98 128.50 246.05 C 126.21 244.23 123.54 243.05 120.70 242.45 C 120.62 248.26 120.69 254.06 120.65 259.86 C 120.26 259.88 119.49 259.92 119.11 259.94 C 119.07 254.12 119.11 248.30 119.08 242.48 C 116.23 243.04 113.57 244.20 111.30 246.01 Z" />
<path fill="#e62129" opacity="1.00" d=" M 568.91 260.77 C 571.56 260.76 574.21 260.76 576.87 260.77 C 576.87 276.79 576.87 292.82 576.87 308.84 C 574.21 308.84 571.56 308.84 568.91 308.84 C 568.90 292.82 568.90 276.79 568.91 260.77 Z" />
<path fill="#e62129" opacity="1.00" d=" M 732.10 260.77 C 734.75 260.76 737.40 260.76 740.07 260.77 C 740.04 267.06 740.13 273.35 739.99 279.65 C 742.18 277.29 744.54 274.81 747.76 273.92 C 754.74 271.80 762.75 275.53 765.91 282.04 C 770.29 290.68 768.11 303.28 758.96 307.88 C 752.57 311.36 744.42 309.28 739.99 303.68 C 740.02 305.39 740.06 307.12 740.09 308.84 C 737.42 308.84 734.76 308.84 732.10 308.84 C 732.10 292.82 732.10 276.79 732.10 260.77 M 747.36 280.62 C 740.39 282.50 737.95 291.64 741.38 297.52 C 743.65 301.84 749.32 303.90 753.81 301.89 C 761.75 298.51 762.06 285.51 754.59 281.42 C 752.41 280.20 749.75 279.96 747.36 280.62 Z" />
<path fill="#e62129" opacity="1.00" d=" M 776.35 261.17 C 779.20 261.16 782.05 261.16 784.91 261.16 C 784.91 263.69 784.91 266.21 784.91 268.74 C 782.05 268.73 779.20 268.73 776.35 268.73 C 776.35 266.21 776.34 263.69 776.35 261.17 Z" />
<path fill="#e62129" opacity="1.00" d=" M 795.52 260.77 C 798.17 260.76 800.82 260.76 803.49 260.77 C 803.49 276.79 803.49 292.82 803.49 308.84 C 800.82 308.84 798.17 308.84 795.52 308.84 C 795.52 292.82 795.52 276.79 795.52 260.77 Z" />
<path fill="#e62129" opacity="1.00" d=" M 814.02 261.16 C 816.87 261.16 819.72 261.16 822.58 261.17 C 822.58 263.69 822.58 266.21 822.58 268.74 C 819.73 268.73 816.87 268.73 814.03 268.74 C 814.01 266.21 814.01 263.69 814.02 261.16 Z" />
<path fill="#e62129" opacity="1.00" d=" M 859.86 261.17 C 862.71 261.16 865.56 261.16 868.42 261.16 C 868.41 263.69 868.41 266.21 868.42 268.73 C 865.56 268.74 862.71 268.74 859.86 268.74 C 859.85 266.21 859.85 263.69 859.86 261.17 Z" />
<path fill="#e62129" opacity="1.00" d=" M 477.83 262.74 C 480.81 262.74 483.79 262.74 486.78 262.74 C 491.41 274.55 496.04 286.36 500.68 298.16 C 505.30 286.36 509.89 274.55 514.51 262.74 C 517.42 262.74 520.34 262.74 523.26 262.74 C 516.88 278.22 510.49 293.70 504.10 309.17 C 501.73 309.17 499.36 309.17 496.99 309.17 C 490.60 293.70 484.21 278.22 477.83 262.74 Z" />
<path fill="#e62129" opacity="1.00" d=" M 834.37 264.52 C 837.02 264.52 839.68 264.52 842.34 264.52 C 842.33 267.70 842.34 270.89 842.34 274.07 C 845.45 274.07 848.57 274.07 851.69 274.07 C 851.69 276.35 851.69 278.63 851.69 280.92 C 848.57 280.92 845.45 280.92 842.34 280.92 C 842.36 286.29 842.29 291.66 842.34 297.03 C 842.36 298.74 842.38 300.99 844.21 301.85 C 846.60 302.91 849.21 301.88 851.62 301.40 C 851.56 303.58 851.54 305.75 851.51 307.93 C 847.43 309.44 842.68 310.27 838.64 308.22 C 835.59 306.67 834.44 303.08 834.40 299.87 C 834.29 293.56 834.41 287.24 834.37 280.92 C 832.89 280.92 831.42 280.92 829.96 280.92 C 829.95 278.63 829.95 276.35 829.96 274.07 C 831.42 274.07 832.89 274.07 834.37 274.07 C 834.37 270.88 834.37 267.70 834.37 264.52 Z" />
<path fill="#e62129" opacity="1.00" d=" M 601.98 273.98 C 606.43 272.59 611.87 273.37 615.15 276.90 C 617.69 279.57 618.47 283.39 618.49 286.96 C 618.53 294.26 618.48 301.55 618.50 308.84 C 615.83 308.84 613.18 308.84 610.53 308.84 C 610.46 301.94 610.64 295.03 610.47 288.12 C 610.45 284.84 608.45 281.32 604.98 280.77 C 600.69 279.62 595.88 282.61 595.45 287.11 C 594.96 294.34 595.38 301.60 595.25 308.84 C 592.58 308.84 589.93 308.84 587.28 308.84 C 587.28 297.25 587.28 285.66 587.28 274.07 C 589.94 274.07 592.61 274.07 595.28 274.07 C 595.24 275.79 595.20 277.51 595.15 279.23 C 597.12 277.15 599.14 274.86 601.98 273.98 Z" />
<path fill="#e62129" opacity="1.00" d=" M 632.38 277.31 C 638.92 271.48 650.39 272.04 655.81 279.13 C 659.22 283.37 659.98 288.99 659.90 294.27 C 651.24 294.36 642.58 294.18 633.92 294.37 C 635.02 297.52 636.52 300.99 639.89 302.26 C 644.68 304.39 650.08 302.42 653.73 299.05 C 655.28 300.45 656.83 301.84 658.38 303.24 C 651.94 310.81 639.36 311.91 631.94 305.19 C 624.03 298.12 624.38 284.17 632.38 277.31 M 637.25 282.23 C 635.38 284.00 634.71 286.57 633.86 288.91 C 639.97 289.12 646.09 289.00 652.21 289.01 C 651.41 286.58 650.83 283.87 648.88 282.06 C 645.77 279.05 640.28 279.15 637.25 282.23 Z" />
<path fill="#e62129" opacity="1.00" d=" M 884.23 276.22 C 890.80 271.63 900.96 272.49 906.07 278.90 C 909.64 283.15 910.43 288.90 910.34 294.28 C 901.68 294.34 893.02 294.20 884.37 294.36 C 885.45 297.70 887.21 301.30 890.83 302.46 C 895.54 304.29 900.61 302.27 904.18 299.06 C 905.73 300.44 907.27 301.83 908.82 303.23 C 902.46 310.75 890.07 311.89 882.62 305.39 C 874.00 298.02 874.85 282.61 884.23 276.22 M 887.97 281.97 C 885.88 283.76 885.16 286.51 884.35 289.02 C 890.43 289.03 896.52 289.03 902.61 289.02 C 901.89 286.69 901.37 284.14 899.61 282.35 C 896.65 279.15 891.14 279.04 887.97 281.97 Z" />
<path fill="#e62129" opacity="1.00" d=" M 527.22 274.07 C 529.87 274.07 532.52 274.07 535.19 274.07 C 535.22 280.74 535.12 287.42 535.21 294.09 C 535.24 296.60 535.92 299.35 538.02 300.94 C 541.36 303.33 546.73 302.64 549.02 299.10 C 550.43 297.02 550.45 294.42 550.48 292.01 C 550.47 286.03 550.46 280.05 550.47 274.07 C 553.12 274.07 555.77 274.06 558.43 274.07 C 558.43 285.66 558.43 297.25 558.43 308.84 C 555.76 308.84 553.09 308.84 550.43 308.84 C 550.45 307.13 550.49 305.42 550.55 303.71 C 546.49 309.62 537.74 311.59 531.89 307.22 C 528.45 304.66 527.19 300.19 527.23 296.07 C 527.18 288.74 527.24 281.41 527.22 274.07 Z" />
<path fill="#e62129" opacity="1.00" d=" M 667.89 274.07 C 670.54 274.07 673.21 274.07 675.87 274.08 C 675.86 276.59 675.83 279.10 675.79 281.62 C 678.01 276.71 682.65 273.22 688.15 273.17 C 688.16 275.98 688.17 278.80 688.18 281.62 C 683.47 281.81 678.51 284.10 676.97 288.87 C 674.94 295.31 676.19 302.20 675.86 308.84 C 673.19 308.84 670.54 308.84 667.89 308.84 C 667.89 297.25 667.88 285.66 667.89 274.07 Z" />
<path fill="#e62129" opacity="1.00" d=" M 694.10 276.34 C 700.60 273.66 708.15 272.35 714.90 274.85 C 719.62 276.58 722.36 281.53 722.52 286.39 C 722.75 293.87 722.54 301.36 722.62 308.84 C 719.96 308.84 717.31 308.84 714.66 308.84 C 714.71 307.86 714.79 305.89 714.84 304.90 C 709.41 310.30 699.70 311.48 693.92 306.04 C 689.44 301.62 690.26 293.00 695.80 289.80 C 701.66 286.33 708.82 287.48 715.14 288.79 C 714.56 286.18 714.09 282.96 711.33 281.73 C 706.48 279.51 700.97 281.09 696.19 282.72 C 695.49 280.59 694.79 278.47 694.10 276.34 M 701.75 293.76 C 698.55 295.16 697.92 300.11 700.80 302.15 C 704.45 304.55 709.82 303.88 712.98 300.92 C 714.94 299.17 714.81 296.37 715.15 293.99 C 710.81 292.95 705.99 291.79 701.75 293.76 Z" />
<path fill="#e62129" opacity="1.00" d=" M 776.68 274.07 C 779.33 274.07 781.99 274.07 784.65 274.07 C 784.65 285.66 784.65 297.25 784.65 308.84 C 781.99 308.84 779.33 308.84 776.68 308.84 C 776.68 297.25 776.68 285.66 776.68 274.07 Z" />
<path fill="#e62129" opacity="1.00" d=" M 814.35 274.07 C 817.00 274.07 819.65 274.07 822.32 274.07 C 822.32 285.66 822.32 297.25 822.32 308.84 C 819.66 308.84 817.00 308.84 814.35 308.84 C 814.35 297.25 814.35 285.66 814.35 274.07 Z" />
<path fill="#e62129" opacity="1.00" d=" M 860.19 274.07 C 862.84 274.07 865.49 274.07 868.16 274.07 C 868.16 285.66 868.15 297.25 868.16 308.84 C 865.49 308.84 862.84 308.84 860.19 308.84 C 860.19 297.25 860.19 285.66 860.19 274.07 Z" />
<path fill="#e62129" opacity="1.00" d=" M 922.31 275.28 C 928.70 271.75 936.42 273.94 942.42 277.27 C 941.38 279.19 940.33 281.09 939.28 282.99 C 935.52 281.17 931.32 278.97 927.04 280.14 C 924.78 280.61 923.46 283.89 925.53 285.39 C 930.32 288.65 936.97 288.48 941.08 292.90 C 945.24 297.54 942.95 305.81 937.26 308.10 C 930.00 311.22 921.65 308.78 915.45 304.43 C 916.61 302.61 917.80 300.80 919.00 299.00 C 923.27 301.71 928.52 304.37 933.66 302.61 C 936.14 301.82 936.74 297.97 934.27 296.78 C 929.62 294.12 923.63 294.17 919.64 290.32 C 915.32 286.04 917.03 278.00 922.31 275.28 Z" />
</g>
</svg>
