<svg xmlns="http://www.w3.org/2000/svg" xmlns:xlink="http://www.w3.org/1999/xlink" id="Layer_1" x="0px" y="0px" viewBox="0 0 109.8 33.5" style="enable-background:new 0 0 109.8 33.5;" xml:space="preserve"><style type="text/css">	.st0{fill:#1FC7F5;}	.st1{fill:#1AC7FF;}	.st2{fill:#2FC8D9;}	.st3{fill:#35C8CF;}	.st4{fill:#3AC9C6;}	.st5{fill:#3FC9BC;}	.st6{fill:#45C9B3;}	.st7{fill:#4ACAA9;}	.st8{fill:#4FCA9F;}	.st9{fill:#55CA96;}	.st10{fill:#5ACA8C;}	.st11{fill:#5FCB83;}	.st12{fill:#65CB79;}	.st13{fill:#6ACB70;}	.st14{fill:#6FCB66;}	.st15{fill:#75CC5D;}	.st16{fill:#7ACC53;}	.st17{fill:#000000;}</style><path class="st0" d="M15.7,33.4c-0.4,0.1-0.9,0.2-1.3,0.2c-0.6,0-1.1-0.1-1.6-0.3c-1.7-0.7-2.9-2.2-3.4-3.9l0,0 C9,27.7,8.9,26,9.2,24.4c0.3-1.6,0.9-3.2,1.8-4.7c0.3-0.6,0.7-1.1,1.1-1.6c0.2-0.3,0.5-0.6,0.9-0.8c0.1-0.1,0.3-0.1,0.4,0 c0.1,0.1,0.2,0.3,0.1,0.5c0,0,0,0.1,0,0.1c-0.6,2.1-0.8,4.2-0.6,6.4c0.3,2.8,1.4,5.5,3.3,7.7c0.1,0.1,0.1,0.2,0.2,0.2 c0.1,0.1,0.1,0.2,0.1,0.4c0,0.1,0,0.3-0.1,0.4C16.1,33.2,15.9,33.3,15.7,33.4L15.7,33.4z"></path><path class="st1" d="M21.4,31.7L21.4,31.7c-1.6,0.2-3.2-0.4-4.3-1.6c-1-1.1-1.8-2.4-2.4-3.9c-0.5-1.5-0.8-3-0.7-4.6 c0-0.6,0.1-1.2,0.1-1.8c0-0.4,0.1-0.7,0.3-1.1c0.1-0.1,0.2-0.2,0.3-0.2c0.1,0,0.2,0.1,0.3,0.4v0.1c0.4,1.9,1.2,3.8,2.3,5.4 c1.4,2.1,3.5,3.8,5.9,4.7c0.2,0.1,0.4,0.2,0.5,0.4c0.1,0.1,0.1,0.2,0.1,0.4c-0.1,0.2-0.1,0.4-0.3,0.6c-0.3,0.3-0.6,0.5-0.9,0.7 C22.3,31.5,21.8,31.6,21.4,31.7z"></path><path class="st2" d="M4.5,28.8L4.5,28.8c-1-1.5-1.4-3.3-1-5c0.4-1.5,1.1-2.9,2.1-4.1c1-1.2,2.2-2.2,3.6-2.9c0.5-0.3,1.1-0.5,1.7-0.7 c0.4-0.1,0.7-0.2,1.1-0.2c0.2,0,0.4,0.2,0.4,0.4c0,0.1-0.1,0.2-0.2,0.3l-0.1,0c-1.5,1.4-2.6,3-3.5,4.9c-1.1,2.5-1.4,5.3-0.8,8l0,0 c0,0.1,0,0.2,0,0.3c0,0.1,0,0.2-0.1,0.4c-0.1,0.1-0.2,0.2-0.3,0.2c-0.2,0.1-0.4,0.1-0.7,0c-0.4-0.1-0.8-0.3-1.2-0.6 C5.2,29.6,4.8,29.2,4.5,28.8L4.5,28.8z"></path><path class="st3" d="M0.6,20.4c-0.2-1.4,0.3-2.8,1.3-3.7c0.9-0.9,2-1.6,3.2-2C6.4,14.3,7.7,14,9,14.1c0.5,0,1,0,1.5,0.1 c0.3,0,0.6,0.1,0.9,0.2c0.1,0.1,0.2,0.2,0.1,0.3c0,0.1-0.1,0.2-0.3,0.3h-0.1C9.6,15.4,8,16,6.6,17c-1.8,1.3-3.2,3.1-3.9,5.1 c-0.1,0.2-0.2,0.3-0.3,0.4c-0.1,0.1-0.2,0.1-0.3,0.1c-0.2,0-0.3-0.1-0.5-0.2l0,0c-0.3-0.2-0.5-0.5-0.6-0.8 C0.8,21.2,0.7,20.8,0.6,20.4L0.6,20.4z"></path><path class="st4" d="M0.1,13.6c0.4-1.2,1.3-2,2.5-2.4c1.1-0.3,2.2-0.5,3.4-0.3c1.2,0.1,2.3,0.5,3.3,1c0.4,0.2,0.8,0.4,1.1,0.7 c0.2,0.2,0.4,0.3,0.6,0.6c0.1,0.1,0.1,0.2,0,0.3c-0.1,0.1-0.2,0.1-0.3,0.1h-0.1c-1.5-0.3-3-0.4-4.4-0.1c-1.9,0.3-3.7,1.2-5.1,2.6 C1,16,0.9,16.1,0.7,16.2c-0.1,0-0.2,0-0.3-0.1c-0.1-0.1-0.2-0.2-0.3-0.4C0.1,15.4,0,15.1,0,14.8C0,14.4,0,14,0.1,13.6z"></path><path class="st5" d="M1.7,10.4c-0.1,0.1-0.3,0.1-0.4,0.1c-0.1,0-0.2-0.1-0.2-0.1C1,10.2,1,10.1,1,9.9c0-0.3,0-0.5,0.1-0.8 c0.1-0.3,0.3-0.6,0.5-0.9l0,0c0.7-0.9,1.8-1.3,2.9-1.3l0,0c1,0,2,0.3,2.9,0.8c0.9,0.5,1.8,1.1,2.5,1.9c0.3,0.3,0.5,0.6,0.8,0.9 c0.1,0.2,0.3,0.4,0.4,0.7c0,0.1,0,0.2-0.1,0.2c-0.1,0.1-0.2,0.1-0.3,0l0,0c-1.1-0.7-2.4-1.2-3.7-1.5C5.1,9.5,3.3,9.7,1.7,10.4 L1.7,10.4z"></path><path class="st6" d="M4.6,4.1L4.6,4.1c0.8-0.5,1.9-0.6,2.8-0.2c0.8,0.3,1.6,0.9,2.2,1.5C10.2,6,10.7,6.8,11,7.7 c0.1,0.3,0.2,0.7,0.3,1c0.1,0.2,0.1,0.4,0.1,0.7c0,0.1-0.1,0.1-0.1,0.2c-0.1,0-0.1,0-0.2-0.1L11,9.3c-0.7-1-1.5-1.8-2.5-2.4 C7.1,6.2,5.6,5.8,4.1,5.9c-0.1,0-0.2,0-0.4,0c-0.1,0-0.1-0.1-0.1-0.2c0-0.1,0-0.2,0-0.4c0.1-0.2,0.2-0.4,0.3-0.6 C4.1,4.5,4.3,4.3,4.6,4.1L4.6,4.1z"></path><path class="st7" d="M7.4,2.1c0.1-0.2,0.3-0.3,0.5-0.4c0.2-0.1,0.4-0.2,0.7-0.3l0,0c0.8-0.1,1.7,0.1,2.3,0.7c0.6,0.5,1,1.2,1.3,1.9 c0.3,0.7,0.5,1.6,0.5,2.4c0,0.3,0,0.6-0.1,0.9c0,0.2-0.1,0.4-0.1,0.6C12.4,8,12.3,8,12.2,8c-0.1,0-0.1,0-0.2-0.2s0,0,0-0.1 c-0.2-1-0.7-1.9-1.3-2.8C10,3.9,8.9,3.1,7.6,2.8c-0.1,0-0.2-0.1-0.3-0.2C7.2,2.5,7.2,2.4,7.2,2.4C7.2,2.3,7.3,2.2,7.4,2.1z"></path><path class="st8" d="M11.7,0.3c0.2,0,0.5,0,0.7,0c0.7,0.1,1.4,0.6,1.8,1.2c0.3,0.6,0.5,1.3,0.5,2c0,0.7-0.1,1.5-0.3,2.1 c-0.1,0.3-0.2,0.5-0.3,0.8c-0.1,0.2-0.2,0.3-0.3,0.4c0,0-0.1,0-0.2,0c-0.1,0-0.1-0.1-0.1-0.2v0c0.1-0.9,0-1.8-0.2-2.7 c-0.4-1.1-1.1-2.1-2-2.8C11.1,1,11.1,1,11,0.9c0-0.1,0-0.1,0-0.2c0-0.1,0.1-0.2,0.2-0.2C11.3,0.4,11.5,0.3,11.7,0.3L11.7,0.3z"></path><path class="st9" d="M15,0c0.2,0,0.3,0,0.5,0c0.2,0,0.4,0.1,0.6,0.2c0.6,0.3,1.1,0.9,1.2,1.6c0.2,1.1,0,2.3-0.6,3.2 c-0.3,0.5-0.7,1-1.2,1.3c0,0-0.1,0-0.1,0c0-0.1,0-0.1,0-0.2V6.1c0.3-0.8,0.5-1.6,0.5-2.4c0-1.1-0.3-2.1-0.9-3 c-0.1-0.1-0.1-0.2-0.1-0.3c0-0.1,0-0.1,0-0.2C14.8,0.1,14.9,0.1,15,0L15,0z"></path><path class="st10" d="M19.6,1.4L19.6,1.4c0.4,0.5,0.6,1.1,0.5,1.8c-0.1,1-0.7,1.8-1.5,2.4c-0.3,0.2-0.6,0.4-1,0.6 c-0.2,0.1-0.4,0.2-0.6,0.2c0,0-0.1,0-0.1-0.1c0,0,0-0.1,0-0.2l0,0c0.6-0.6,1-1.2,1.2-2c0.4-0.9,0.5-1.8,0.2-2.7c0-0.1,0-0.2,0-0.3 c0,0,0-0.1,0-0.1c0.1,0,0.1-0.1,0.2,0C18.7,1,18.9,1,19,1.1C19.2,1.2,19.4,1.3,19.6,1.4L19.6,1.4z"></path><path class="st11" d="M22.2,3.9L22.2,3.9c0.2,0.5,0.1,1.2-0.2,1.6c-0.4,0.8-1.1,1.3-2,1.5c-0.3,0.1-0.7,0.1-1,0.1 c-0.2,0-0.4,0-0.6,0c0,0-0.1-0.1-0.1-0.1c0,0,0-0.1,0.1-0.1h0c0.7-0.3,1.2-0.7,1.7-1.2c0.6-0.6,0.9-1.4,1-2.2c0-0.1,0-0.2,0.1-0.3 c0,0,0.1-0.1,0.1-0.1c0.1,0,0.1,0,0.2,0c0.1,0.1,0.2,0.2,0.3,0.3C22.1,3.5,22.2,3.7,22.2,3.9L22.2,3.9z"></path><path class="st12" d="M23.5,6.3c0.1,0.2,0.1,0.4,0.1,0.5c0,0.6-0.3,1.1-0.8,1.4c-0.6,0.5-1.4,0.7-2.2,0.5c-0.3-0.1-0.6-0.2-0.9-0.3 c-0.2-0.1-0.3-0.2-0.5-0.3c0,0,0-0.1,0-0.1c0,0,0-0.1,0.1-0.1h0.2c0.1,0,0.3,0,0.4,0c0.4-0.1,0.9-0.2,1.3-0.4 c0.7-0.3,1.3-0.9,1.7-1.6C22.9,6,23,6,23.1,5.9c0,0,0.1,0,0.1,0c0.1,0,0.1,0.1,0.1,0.1C23.4,6.1,23.5,6.3,23.5,6.3L23.5,6.3z"></path><path class="st13" d="M23.2,9.2C23.3,9.1,23.4,9,23.6,9c0.1,0,0.1,0,0.2,0c0.1,0,0.1,0.1,0.1,0.2c0,0.1,0,0.3,0,0.4 c0,0.2-0.1,0.4-0.1,0.5l0,0c-0.5,0.7-1.3,1.1-2.2,1c-0.6,0-1.1-0.3-1.5-0.6c-0.3-0.2-0.5-0.5-0.6-0.7c0-0.1,0-0.1,0.1-0.2 c0,0,0.1,0,0.1,0l0,0c0.6,0.2,1.2,0.3,1.8,0.3C22.1,9.9,22.7,9.6,23.2,9.2z"></path><path class="st14" d="M22.3,12.9L22.3,12.9c-0.7,0.4-1.5,0.4-2.2,0c-0.5-0.3-0.8-0.7-1-1.2c-0.1-0.3-0.2-0.6-0.2-0.9 c0,0,0-0.1,0.1-0.1c0,0,0.1,0,0.1,0l0,0c0.4,0.4,0.9,0.8,1.4,1c0.6,0.2,1.2,0.2,1.8,0.1c0.1,0,0.2,0,0.3,0c0.1,0.1,0.2,0.2,0.1,0.4 C22.7,12.5,22.5,12.8,22.3,12.9z"></path><path class="st15" d="M19.8,14.4c-0.1,0.1-0.2,0.1-0.3,0.1c-0.1,0-0.3,0.1-0.4,0.1c-0.7,0-1.2-0.4-1.4-1.1c-0.1-0.4-0.1-0.9,0-1.3 c0.1-0.3,0.2-0.5,0.3-0.7c0,0,0.1-0.1,0.1-0.1c0,0,0.1,0,0.1,0s0,0,0.1,0.1l0,0c0,0.5,0.2,1,0.4,1.4c0.2,0.4,0.6,0.8,1.1,1 c0.1,0,0.1,0.1,0.1,0.1C19.9,14.2,19.9,14.3,19.8,14.4L19.8,14.4z"></path><path class="st16" d="M16,13.9L16,13.9c-0.4-0.3-0.5-0.9-0.2-1.3c0.1-0.3,0.4-0.6,0.7-0.8c0.2-0.1,0.3-0.2,0.5-0.3h0.1l0,0 c0,0,0,0,0,0.1l0,0c-0.2,0.3-0.4,0.6-0.5,1c-0.1,0.4-0.1,0.8,0.1,1.2c0,0.1,0,0.1,0,0.2c0,0-0.1,0.1-0.2,0.1c-0.1,0-0.2,0-0.2,0 C16.2,14,16.1,13.9,16,13.9L16,13.9z"></path><path class="st17" d="M109.4,12.1c-0.4,0-0.5,0.3-0.5,0.4v4.2c0,0.1,0,0.4,0.5,0.4s0.5-0.3,0.5-0.4v-4.2 C109.8,12.4,109.8,12.1,109.4,12.1z"></path><path class="st17" d="M40.3,15.8c-0.1-2.1-1.9-3.7-4-3.7h-6.7c-2.1,0-3.8,1.6-4,3.7v2.7c0.2,2.1,1.9,3.7,4,3.7h8.2v3.3 c0,0.5,0.2,1.1,1.3,1.1s1.3-0.6,1.3-1.1V15.8z M29.9,14.2h6c1,0,1.8,0.8,1.8,1.8v4.2h-7.8c-1,0-1.8-0.8-1.8-1.8l0,0V16 C28.2,15,29,14.2,29.9,14.2z"></path><path class="st17" d="M69.3,11.9c-0.8,0-1.3,0.4-1.3,1.1v8.3c0,0.5,0.2,1.1,1.3,1.1s1.3-0.6,1.3-1.1V13 C70.6,12.3,70.1,11.9,69.3,11.9z"></path><path class="st17" d="M69.3,11c0.9,0,1.4-0.4,1.4-1.2s-0.5-1.2-1.4-1.2c-1.2,0-1.4,0.6-1.4,1.2S68.2,11,69.3,11z"></path><path class="st17" d="M84.2,12.1h-7.1c-2.2,0-4,1.8-4,4v2.5c0,2,1.7,3.7,3.7,3.7h5.3c0.5,0,1.2-0.1,1.2-1s-0.8-1-1.2-1h-4.6 c-1,0-1.8-0.8-1.8-1.8v-0.4h11c1,0,1.2-0.6,1.2-1v-1.3C87.9,13.8,86.3,12.1,84.2,12.1z M77.5,14.2h6.1c1,0,1.7,0.8,1.8,1.8v0.2h-9.6 v-0.3C75.8,15,76.6,14.2,77.5,14.2z"></path><path class="st17" d="M93.7,12.1v-1.9c0-0.4-0.2-1.1-1.3-1.1s-1.3,0.7-1.3,1.1v1.9h-0.8c-1,0-1.2,0.6-1.2,0.9s0.2,0.9,1.2,0.9h0.8 v7.3c0,0.5,0.2,1.1,1.3,1.1s1.3-0.7,1.3-1.1V14h4.6c0.5,0,1.2,0,1.2-0.9s-0.8-0.9-1.2-0.9L93.7,12.1z"></path><path class="st17" d="M105.2,12.4c-0.1-0.2-0.3-0.2-0.5-0.2c-0.2,0-0.4,0.1-0.5,0.2l-2.7,4.1c-0.1,0.1-0.1,0.2-0.1,0.3 c0,0.2,0.2,0.4,0.5,0.4c0.2,0,0.3-0.1,0.4-0.2l0.7-1.1h3.3l0.7,1.1c0.1,0.2,0.3,0.2,0.4,0.2c0.3,0,0.5-0.2,0.5-0.4 c0-0.1,0-0.2-0.1-0.3L105.2,12.4L105.2,12.4z M105.9,15.1h-2.4l1.2-1.9L105.9,15.1z"></path><path class="st17" d="M64.1,11.9c-0.6-0.1-1.2,0.4-1.3,1c0,0.1,0,0.1,0,0.2v5.3c0,1-0.8,1.8-1.8,1.8h-3.8c-1,0-1.8-0.8-1.8-1.8l0,0 v-1.8c0-0.2,0-0.3-0.1-0.5c-0.4-0.7-1.2-0.9-1.9-0.5c-0.2,0.1-0.4,0.3-0.5,0.5c-0.1,0.2-0.1,0.3-0.1,0.5v1.8c0,1-0.8,1.7-1.8,1.7 h-3.9c-1,0-1.8-0.8-1.8-1.8v-5.3c-0.1-0.7-0.7-1.2-1.4-1.2c-0.6,0.1-1.1,0.5-1.2,1.2v5.4c0,2,1.7,3.7,3.7,3.7h4 c1.3,0.1,2.5-0.2,3.6-0.9c1.1,0.6,2.3,0.9,3.6,0.9h3.7c2.2,0,4-1.8,4-4v-5.1c0-0.6-0.5-1.2-1.1-1.2C64.3,11.9,64.2,11.9,64.1,11.9 L64.1,11.9z"></path></svg>