<svg width="161" height="45" viewBox="0 0 161 45" fill="none" xmlns="http://www.w3.org/2000/svg">
<g clip-path="url(#clip0_233_259636)">
<path d="M35.2702 44.2111C32.5302 35.8311 29.7702 27.4511 26.9902 18.9511C27.3005 18.8834 27.6148 18.8363 27.9312 18.8101H42.7772C43.9422 18.8101 44.0452 18.9911 43.6772 20.0961C41.8166 25.7227 39.9696 31.3631 38.1362 37.0171C37.3552 39.3881 36.5772 41.7391 35.8022 44.1111C35.6182 44.1511 35.4342 44.1911 35.2702 44.2111ZM37.1102 20.7591C37.1136 20.6254 37.107 20.4917 37.0902 20.3591C36.7632 20.1781 36.4152 19.8371 36.1092 19.8771C35.9468 19.9303 35.801 20.025 35.6863 20.1518C35.5716 20.2786 35.492 20.4331 35.4552 20.6001C35.4752 20.8611 35.8842 21.3241 36.1302 21.3241C36.4772 21.3021 36.8042 20.9601 37.1102 20.7591ZM32.0602 23.0901C31.4872 22.7481 31.1602 22.4271 30.8952 22.4671C30.6302 22.5071 30.3842 22.8891 30.1392 23.1301C30.4052 23.3911 30.6502 23.7731 30.9772 23.8541C31.2022 23.8941 31.5292 23.4931 32.0602 23.0911V23.0901Z" fill="black"/>
<path d="M37.2949 43.1258C37.8679 41.3578 38.4399 39.5688 39.0329 37.8008C41.0329 31.7918 43.0399 25.8008 45.1049 19.8148C45.2479 19.4148 45.8049 18.8498 46.1679 18.8498C49.1939 18.7698 52.2199 18.8098 55.2449 18.8098C55.4546 18.8502 55.6599 18.9108 55.8579 18.9908C49.7859 27.1908 43.7546 35.3295 37.7639 43.4068C37.6219 43.3268 37.4559 43.2268 37.2949 43.1258Z" fill="black"/>
<path d="M20.6118 19.8752H22.2878C22.2481 19.7485 22.1934 19.627 22.1248 19.5132C21.7978 19.2722 21.1438 18.9132 21.1838 18.8132C21.4498 18.0892 21.9608 18.5132 22.4518 18.6132C23.0922 18.779 23.7541 18.8465 24.4148 18.8132C24.5922 18.7762 24.7753 18.7757 24.953 18.8116C25.1306 18.8475 25.2991 18.9192 25.4482 19.0223C25.5973 19.1254 25.7239 19.2577 25.8202 19.4112C25.9166 19.5647 25.9808 19.7362 26.0088 19.9152C27.0518 23.1152 28.1348 26.3052 29.1988 29.5012C30.6298 33.8012 32.0608 38.0822 33.4918 42.3822C33.5916 42.7004 33.5699 43.0442 33.4308 43.3472C33.1047 43.0735 32.7973 42.7782 32.5108 42.4632C29.3418 38.2032 26.1928 33.9222 23.0038 29.6632C22.6803 29.3073 22.3103 28.9965 21.9038 28.7392C22.0268 28.5182 22.2108 28.2392 22.3948 27.9392C21.9658 27.8192 21.5568 27.6782 21.0658 27.5392C21.1068 27.1392 21.1888 26.7152 21.1888 26.3132C21.2088 25.5492 21.0658 24.9872 20.0438 25.0272C19.7168 25.0472 19.3688 24.6452 18.9808 24.4272C20.2278 23.1812 20.1258 22.7192 18.6538 22.2972C18.5136 21.8157 18.4043 21.3257 18.3268 20.8302C18.2646 20.5654 18.3001 20.287 18.4268 20.0462C18.52 19.9704 18.6291 19.9166 18.7459 19.8887C18.8628 19.8609 18.9844 19.8597 19.1018 19.8852C19.2669 20.1254 19.3785 20.3982 19.4288 20.6852C19.4698 20.8052 19.4078 20.9262 19.4078 21.0672C19.5308 21.0672 19.6328 21.0872 19.7558 21.0872V19.5332C19.7243 19.2704 19.7451 19.004 19.8168 18.7492C19.9059 18.6974 20.0058 18.6668 20.1086 18.6599C20.2115 18.6529 20.3145 18.6698 20.4098 18.7092C20.56 18.9122 20.6648 19.1451 20.7168 19.3922C20.6669 19.5496 20.6317 19.7113 20.6118 19.8752ZM22.9828 25.6652C23.3708 25.0422 23.7388 24.7212 23.7188 24.4192C23.7188 24.1782 23.2278 23.7762 22.9828 23.7762C22.7378 23.7762 22.3288 24.1982 22.2828 24.4762C22.2678 24.7382 22.6188 25.0402 22.9828 25.6652ZM21.6128 23.0532C22.0418 22.4702 22.4508 22.1692 22.4128 21.9482C22.3498 21.7735 22.2495 21.6145 22.1187 21.4826C21.988 21.3506 21.83 21.2488 21.6558 21.1842C21.5328 21.1242 20.9808 21.5462 20.9808 21.7472C20.9798 22.0652 21.2858 22.4072 21.6128 23.0502V23.0532ZM25.4768 20.6012C24.9038 20.2192 24.5978 19.8572 24.3518 19.9012C24.0658 19.9412 23.8408 20.3232 23.5958 20.5642C23.8408 20.8052 24.0458 21.2272 24.3318 21.2642C24.5568 21.2822 24.8848 20.9402 25.4778 20.5982L25.4768 20.6012Z" fill="black"/>
<path d="M43.0592 17.4638H28.0732C28.1342 17.1828 28.0932 16.9638 28.1962 16.8638C29.4842 15.4168 30.7722 13.9898 32.0812 12.5638C32.2731 12.3914 32.5233 12.2981 32.7812 12.3028C33.5812 12.2828 34.3352 12.3828 34.4572 11.2578C34.4772 11.0768 35.2572 10.9578 35.6222 10.8358C35.5612 10.3538 35.3362 9.87084 35.4582 9.50984C35.6012 9.08784 36.2582 9.44984 36.3372 10.0928C36.3579 10.3671 36.3579 10.6426 36.3372 10.9168C37.8502 10.7758 38.3612 12.0018 39.1372 12.7858C40.3432 14.0118 41.4472 15.2978 42.5922 16.5858C42.7924 16.8526 42.9499 17.1488 43.0592 17.4638ZM33.3482 16.3138H33.7572C33.9412 16.0328 34.3092 15.7138 34.2682 15.4698C34.1862 15.1478 33.7982 14.9268 33.5322 14.6458C33.2872 14.8868 32.8572 15.1278 32.8322 15.3688C32.8162 15.6758 33.1642 15.9968 33.3482 16.3138ZM38.6022 12.8568C38.0502 12.4568 37.7642 12.0928 37.4572 12.0728C37.2322 12.0528 36.7822 12.5548 36.8032 12.7728C36.8516 12.9488 36.942 13.1103 37.0667 13.2434C37.1915 13.3765 37.3468 13.4772 37.5192 13.5368C37.7232 13.6058 38.0702 13.2238 38.6022 12.8618V12.8568Z" fill="black"/>
<path d="M46.4121 17.2629C48.0271 14.5899 49.6631 11.8969 51.4211 8.98389C52.5661 10.8329 53.5271 12.3999 54.4671 13.9679C54.9991 14.8319 55.5101 15.7159 56.0211 16.5809C56.3071 17.0429 56.4501 17.5459 55.6531 17.5659C52.6481 17.6059 49.6421 17.5859 46.6371 17.5859C46.5561 17.4639 46.4941 17.3639 46.4121 17.2629Z" fill="black"/>
<path d="M44.92 17.4028C43.039 15.2328 41.342 13.2628 39.666 11.3138C39.707 11.2138 39.748 11.1138 39.789 10.9918H41.036C41.609 10.9918 42.058 10.9518 42.201 10.1678C42.364 9.2438 43.223 9.7458 43.775 9.7058C44.061 9.6858 44.613 9.9868 44.634 10.1878C44.734 11.2328 45.35 10.9878 45.759 10.8878C45.984 10.3048 46.127 9.5218 46.352 9.5008C47.497 9.3598 46.597 10.4448 47.17 10.9878C47.2264 10.6691 47.3225 10.3587 47.456 10.0638C47.5416 9.95866 47.6479 9.87227 47.7684 9.80999C47.8888 9.74771 48.0207 9.71088 48.156 9.7018C48.2753 9.74281 48.3816 9.81465 48.4641 9.91001C48.5467 10.0054 48.6025 10.1209 48.626 10.2448C48.6647 10.6376 48.5955 11.0334 48.426 11.3898C47.333 13.3208 46.208 15.2328 44.92 17.4028ZM42.569 13.6848H42.978C43.142 13.4038 43.448 13.1018 43.407 12.8408C43.366 12.5408 43.019 12.2978 42.794 12.0168C42.549 12.2978 42.16 12.5388 42.079 12.8408C42.062 13.0828 42.405 13.4038 42.569 13.6858V13.6848Z" fill="black"/>
<path d="M24.802 12.0782C24.7817 12.3371 24.8158 12.5973 24.902 12.8422C25.025 13.1232 25.331 13.4852 25.577 13.5052C25.843 13.5252 26.149 13.2242 26.415 13.0052C26.647 12.7915 26.8592 12.5572 27.049 12.3052C27.1892 12.5541 27.3537 12.7886 27.54 13.0052C27.74 13.2052 28.072 13.4872 28.297 13.4472C28.4607 13.4183 28.6149 13.3501 28.7466 13.2486C28.8782 13.1471 28.9834 13.0152 29.053 12.8642C29.237 12.1812 29.585 12.0802 30.402 12.4222C29.602 13.3462 28.889 14.2102 28.153 15.0752L28.03 14.7132C27.458 14.7932 26.906 14.8542 26.33 14.9342C26.43 15.4342 26.555 15.9192 26.657 16.4212H26.964C26.764 16.6422 26.555 16.8832 26.33 17.1442C26.146 17.0442 25.983 17.0032 25.921 16.9032C25.0443 15.6151 24.2391 14.2798 23.509 12.9032C23.264 12.4032 23.609 11.6372 23.775 11.0142C23.795 10.9542 24.475 11.1352 24.838 11.0742C25.39 10.9742 25.922 10.7522 26.453 10.6122C26.78 10.5322 27.271 10.3912 27.414 10.5322C27.6435 10.77 27.9458 10.9243 28.273 10.9707C28.6001 11.0171 28.9335 10.9529 29.22 10.7882C29.5152 10.7045 29.8288 10.7115 30.12 10.8082C30.1765 10.8894 30.2118 10.9835 30.2224 11.0819C30.2331 11.1803 30.2188 11.2798 30.181 11.3712C29.9758 11.5726 29.7224 11.7179 29.445 11.7932C29.0926 11.9382 28.7094 11.992 28.3306 11.9499C27.9519 11.9078 27.5899 11.771 27.278 11.5522C27.114 11.4112 26.665 11.5922 26.337 11.6522C25.865 11.7772 25.42 11.9182 24.802 12.0782Z" fill="black"/>
<path d="M22.206 17.544C21.6953 17.5777 21.1827 17.571 20.673 17.524C20.387 17.484 19.896 17.224 19.896 17.062C19.916 16.74 20.121 16.238 20.366 16.162C21.429 15.862 21.066 15.017 21.143 14.374C21.22 13.731 20.979 13.349 20.243 13.289C20.1 13.269 19.875 12.927 19.875 12.767C19.9031 12.6574 19.9594 12.557 20.0383 12.476C20.1173 12.3949 20.2161 12.336 20.325 12.305C20.6427 12.2002 20.9863 12.2046 21.3012 12.3175C21.6161 12.4304 21.8843 12.6453 22.063 12.928C22.763 14.114 23.474 15.299 24.148 16.485C24.639 17.349 24.516 17.55 23.535 17.55H22.881C22.6563 17.5682 22.4304 17.5662 22.206 17.544Z" fill="black"/>
<path d="M18.5863 16.8412C18.1573 17.1832 17.9113 17.3632 17.6663 17.5642C17.5023 17.3432 17.1963 17.1022 17.1963 16.8812C17.1963 16.6402 17.4623 16.3992 17.6253 16.1372C17.8913 16.3382 18.1373 16.5192 18.5863 16.8412Z" fill="black"/>
<path d="M16.1341 17.323C15.6641 17.604 15.4181 17.886 15.1941 17.865C14.9691 17.825 14.7851 17.503 14.5811 17.302C14.8061 17.121 15.0101 16.802 15.2561 16.78C15.4591 16.74 15.7051 17.042 16.1341 17.323Z" fill="black"/>
<path d="M8.44643 11.1132L8.56943 12.1982L7.69043 12.1382C7.75143 11.7762 7.83343 11.4382 7.89043 11.0732C8.07843 11.0932 8.26243 11.0932 8.44643 11.1132Z" fill="black"/>
<path d="M14.4975 5.00908C14.1095 5.02908 13.6975 5.06908 13.3115 5.08908C13.3315 4.78908 13.3525 4.50608 13.3525 4.20508C13.7405 4.26508 14.1295 4.34608 14.5385 4.40508C14.5175 4.62308 14.5175 4.80908 14.4975 5.00908Z" fill="black"/>
<path d="M10.0006 7.3161C9.71463 6.9341 9.36663 6.6731 9.38763 6.4721C9.40763 6.2511 9.77562 6.0501 9.98062 5.8291C10.1806 6.0291 10.5526 6.2291 10.5526 6.4521C10.5726 6.6731 10.2666 6.9341 10.0006 7.3161Z" fill="black"/>
<path d="M23.351 9.46609H22.251C22.271 9.18509 22.292 8.90309 22.312 8.64209C22.68 8.70209 23.048 8.74209 23.412 8.80309L23.351 9.46609Z" fill="black"/>
<path d="M9.01537 13.9268C9.30137 14.3268 9.62837 14.5898 9.58737 14.8108C9.53641 14.9476 9.45148 15.0692 9.34057 15.1642C9.22966 15.2592 9.09642 15.3244 8.95337 15.3538C8.75337 15.3538 8.42137 14.9718 8.40137 14.7538C8.40537 14.5298 8.73237 14.2888 9.01537 13.9268Z" fill="black"/>
<path d="M22.4106 2.03218C22.0426 2.07218 21.6746 2.13218 21.2866 2.17318C21.2866 1.91218 21.2666 1.65118 21.2666 1.40918H22.3906C22.3867 1.61705 22.3934 1.82498 22.4106 2.03218Z" fill="black"/>
<path d="M17.3797 0.723817C16.9917 0.904817 16.7257 1.14582 16.5417 1.10582C16.2967 1.04582 16.1127 0.743817 15.8877 0.542817C16.1127 0.342817 16.3577 -0.0201833 16.5627 -0.000183272C16.7867 0.0208167 16.9917 0.382817 17.3797 0.723817Z" fill="black"/>
<path d="M0.615657 10.6519C0.881657 10.9519 1.24966 11.2749 1.20866 11.3349C1.03167 11.6093 0.784443 11.8313 0.492657 11.9779C0.410657 12.0179 -0.0393426 11.5959 0.00165737 11.4779C0.0636574 11.2149 0.349657 10.9899 0.615657 10.6519Z" fill="black"/>
<path d="M27.7252 9.52606C27.3982 9.14406 27.0502 8.92606 27.0712 8.70206C27.0912 8.46106 27.4392 8.26006 27.6442 8.03906C27.8692 8.23906 28.2172 8.42106 28.2572 8.63906C28.2772 8.84306 27.9702 9.12406 27.7252 9.52606Z" fill="black"/>
<path d="M13.739 6.12988C14.025 6.55188 14.332 6.82988 14.291 7.02988C14.25 7.25088 13.882 7.49188 13.616 7.52988C13.473 7.54988 13.125 7.16788 13.125 6.96688C13.149 6.75588 13.455 6.53188 13.739 6.12988Z" fill="black"/>
<path d="M35.2693 6.61208C34.8193 6.89308 34.5943 7.15508 34.4103 7.13408C34.1653 7.09408 33.9403 6.85308 33.6953 6.69208C33.8793 6.49208 34.0423 6.14908 34.2263 6.12908C34.4723 6.08908 34.7383 6.35008 35.2693 6.61208Z" fill="black"/>
<path d="M43.6532 4.72314C44.0012 5.14514 44.3072 5.36614 44.3282 5.60714C44.3482 5.80714 44.0422 6.04914 43.8582 6.27014C43.6582 6.07014 43.3672 5.87014 43.3062 5.62714C43.2442 5.44614 43.4482 5.18514 43.6532 4.72314Z" fill="black"/>
<path d="M19.0373 2.57308C18.6083 2.83408 18.3213 3.13608 18.1373 3.09508C18.0157 3.02745 17.9116 2.93223 17.8335 2.81709C17.7553 2.70195 17.7053 2.57008 17.6873 2.43208C17.6673 2.29108 18.0353 1.95008 18.1783 1.97008C18.4243 2.01008 18.6283 2.27208 19.0373 2.57308Z" fill="black"/>
<path d="M19.9808 14.269C20.3078 14.631 20.4918 14.852 20.6808 15.053C20.4358 15.234 20.2108 15.495 19.9448 15.535C19.8218 15.555 19.4948 15.213 19.4748 14.992C19.4658 14.812 19.7318 14.611 19.9808 14.269Z" fill="black"/>
<path d="M39.9927 10.712C39.7267 10.29 39.4197 10.029 39.4817 9.84803C39.546 9.72256 39.6385 9.61373 39.752 9.53009C39.8655 9.44645 39.9968 9.39029 40.1357 9.36603C40.2787 9.34603 40.6467 9.70803 40.6267 9.86603C40.5857 10.109 40.2997 10.31 39.9927 10.712Z" fill="black"/>
<path d="M32.5914 7.79785C32.8364 8.17985 33.1434 8.46085 33.1234 8.66185C33.0824 8.88285 32.7144 9.24485 32.5104 9.22485C32.3702 9.18474 32.2433 9.10801 32.1426 9.00256C32.0419 8.8971 31.9711 8.76674 31.9374 8.62485C31.9164 8.40085 32.2634 8.15885 32.5914 7.79785Z" fill="black"/>
<path d="M17.9099 26.4662C17.4399 26.6662 17.1739 26.8662 16.9699 26.8282C16.7249 26.7682 16.5199 26.5072 16.2949 26.3282C16.5199 26.1472 16.7449 25.8462 16.9489 25.8462C17.2179 25.8642 17.4629 26.1452 17.9099 26.4662Z" fill="black"/>
<path d="M19.2605 10.491C18.8515 10.752 18.6065 11.013 18.3605 11.013C18.1765 11.013 17.8285 10.571 17.8695 10.47C18.0017 10.2087 18.2284 10.0074 18.5035 9.90704C18.6465 9.86804 18.8925 10.189 19.2605 10.491Z" fill="black"/>
<path d="M13.9445 10.37C13.5565 10.67 13.3515 10.953 13.0855 10.993C12.9215 11.013 12.5135 10.593 12.5535 10.471C12.607 10.3326 12.6876 10.2062 12.7904 10.0993C12.8932 9.99232 13.0163 9.9069 13.1525 9.848C13.3115 9.807 13.5775 10.109 13.9445 10.37Z" fill="black"/>
<path d="M17.5654 18.9711C17.2174 19.2711 17.0334 19.5541 16.7654 19.6141C16.6424 19.6541 16.2334 19.2521 16.2744 19.1141C16.3135 18.9759 16.381 18.8473 16.4726 18.7366C16.5642 18.6259 16.6779 18.5355 16.8064 18.4711C16.9114 18.4271 17.1974 18.7271 17.5654 18.9711Z" fill="black"/>
<path d="M25.4564 7.9788C25.0684 8.2398 24.8024 8.5418 24.6384 8.5008C24.3934 8.4208 24.2294 8.11881 24.0254 7.90081C24.2254 7.73981 24.4544 7.4588 24.6794 7.4588C24.8634 7.4328 25.0884 7.6968 25.4564 7.9788Z" fill="black"/>
<path d="M21.1826 4.90391C21.5306 4.76291 21.8986 4.62291 22.2456 4.46191C22.3276 4.70291 22.4096 4.92391 22.4906 5.16191C22.1026 5.26191 21.7346 5.36191 21.3456 5.48391C21.3033 5.28741 21.2489 5.0937 21.1826 4.90391Z" fill="black"/>
<path d="M16.0096 4.50195C16.3976 4.52195 16.7866 4.56195 17.1746 4.58195C17.1136 4.86295 17.0516 5.12495 16.9906 5.40595C16.6226 5.26495 16.2546 5.10595 15.8906 4.96395C15.9326 4.80295 15.9686 4.64395 16.0096 4.50195Z" fill="black"/>
<path d="M16.3178 23.4719C15.8888 23.7129 15.6178 23.9539 15.3768 23.9719C15.2338 23.9719 14.9678 23.5719 14.9678 23.3489C14.9878 23.1489 15.3358 22.7859 15.4588 22.8269C15.7048 22.8889 15.9088 23.1479 16.3178 23.4719Z" fill="black"/>
<path d="M16.4605 11.6968C16.7875 12.0388 17.1355 12.2598 17.1355 12.4808C17.0896 12.6135 17.0113 12.7326 16.9078 12.8274C16.8043 12.9222 16.6787 12.9897 16.5425 13.0238C16.4065 12.9828 16.282 12.9106 16.179 12.8128C16.076 12.715 15.9974 12.5945 15.9495 12.4608C15.8875 12.2998 16.1945 12.0388 16.4605 11.6968Z" fill="black"/>
<path d="M37.1096 20.7588C36.7826 20.9588 36.4556 21.3218 36.1486 21.3018C35.9819 21.252 35.8315 21.1587 35.7129 21.0314C35.5943 20.9042 35.5117 20.7476 35.4736 20.5778C35.5103 20.4108 35.5899 20.2563 35.7046 20.1295C35.8193 20.0026 35.9651 19.908 36.1276 19.8548C36.4346 19.8348 36.7816 20.1768 37.1086 20.3368L37.1096 20.7588Z" fill="black"/>
<path d="M32.0597 23.0901C31.5277 23.4901 31.2007 23.8901 30.9757 23.8331C30.6487 23.7731 30.4237 23.3711 30.1377 23.1101C30.3827 22.8691 30.6077 22.4871 30.8937 22.4471C31.1597 22.4271 31.4867 22.7691 32.0597 23.0901Z" fill="black"/>
<path d="M22.9818 25.6629C22.5938 25.0399 22.2658 24.7389 22.2818 24.4769C22.3321 24.3117 22.4223 24.1615 22.5443 24.0394C22.6664 23.9173 22.8167 23.8271 22.9818 23.7769C23.2478 23.7769 23.7178 24.1769 23.7178 24.4199C23.7428 24.7179 23.3908 25.0399 22.9818 25.6629Z" fill="black"/>
<path d="M21.6145 23.0491C21.2875 22.4061 20.9805 22.0641 20.9805 21.7431C20.9805 21.5431 21.5325 21.1201 21.6555 21.1801C21.8259 21.2509 21.9804 21.355 22.1102 21.4861C22.24 21.6173 22.3424 21.773 22.4115 21.9441C22.4555 22.1671 22.0435 22.4881 21.6145 23.0491Z" fill="black"/>
<path d="M25.4772 20.5992C24.8842 20.9412 24.5572 21.2822 24.3122 21.2422C24.0262 21.2022 23.8212 20.8002 23.5762 20.5422C23.8212 20.3012 24.0672 19.9192 24.3322 19.8792C24.5982 19.8592 24.9042 20.2172 25.4772 20.5992Z" fill="black"/>
<path d="M33.3488 16.3179C33.1648 15.9969 32.8168 15.6749 32.8378 15.3739C32.8578 15.1129 33.2878 14.8919 33.5378 14.6509C33.8038 14.9119 34.1918 15.1509 34.2738 15.4749C34.3348 15.6959 33.9468 16.0379 33.7628 16.3189C33.6256 16.2979 33.4861 16.2976 33.3488 16.3179Z" fill="black"/>
<path d="M38.6033 12.8618C38.0713 13.2238 37.7243 13.6058 37.5193 13.5448C37.347 13.4852 37.1918 13.3844 37.0673 13.2513C36.9427 13.1182 36.8524 12.9567 36.8043 12.7808C36.7633 12.5598 37.2333 12.0578 37.4583 12.0808C37.7643 12.0988 38.0513 12.4598 38.6033 12.8618Z" fill="black"/>
<path d="M42.5684 13.6861C42.4044 13.4051 42.0574 13.0861 42.1184 12.8421C42.2004 12.5201 42.5684 12.2791 42.8334 12.0181C43.0584 12.2791 43.4054 12.5401 43.4464 12.8421C43.4874 13.1031 43.1604 13.4051 43.0174 13.6861H42.5684Z" fill="black"/>
<path d="M58.1689 32.5971H62.3259C62.8823 32.5952 63.4374 32.6518 63.9819 32.7661C64.4902 32.8552 64.9773 33.0387 65.4179 33.3071C65.8353 33.5653 66.1795 33.9261 66.4179 34.3551C66.6836 34.8718 66.8114 35.4484 66.7889 36.0291C66.8153 36.8194 66.5577 37.5931 66.0629 38.2101C65.547 38.8191 64.8127 39.2014 64.0179 39.2751L67.1939 44.5661H64.6239L61.8529 39.4951H60.2979V44.5651H58.1689V32.5971ZM61.9539 37.6681C62.2579 37.6681 62.5619 37.6567 62.8659 37.6341C63.1499 37.6061 63.4286 37.5388 63.6939 37.4341C63.9425 37.3299 64.1584 37.1606 64.3189 36.9441C64.4912 36.6656 64.574 36.341 64.5559 36.0141C64.5698 35.7166 64.4931 35.422 64.3359 35.1691C64.1945 34.9591 63.995 34.7948 63.7619 34.6961C63.5113 34.5793 63.243 34.505 62.9679 34.4761C62.6932 34.4426 62.4167 34.4256 62.1399 34.4251H60.2979V37.6711L61.9539 37.6681ZM73.8339 32.5971H75.6749L80.8289 44.5651H78.3949L77.2799 41.8271H72.0929L71.0119 44.5651H68.6299L73.8339 32.5971ZM76.5339 39.9971L74.6919 35.1291L72.8169 39.9971H76.5339ZM83.3069 32.5971H87.3279C87.8843 32.5952 88.4394 32.6518 88.9839 32.7661C89.4899 32.8645 89.9721 33.0597 90.4039 33.3411C90.8134 33.6047 91.1457 33.9722 91.3669 34.4061C91.6318 34.9171 91.7599 35.4879 91.7389 36.0631C91.7667 36.6949 91.6329 37.3234 91.3499 37.8891C91.1043 38.3374 90.7422 38.7112 90.3019 38.9711C89.8245 39.2316 89.3037 39.4033 88.7649 39.4781C88.1667 39.5699 87.5622 39.6151 86.9569 39.6131H85.4389V44.5651H83.3099L83.3069 32.5971ZM86.7199 37.7871C87.0239 37.7871 87.3393 37.7757 87.6659 37.7531C87.9749 37.7362 88.2789 37.6686 88.5659 37.5531C88.8342 37.4505 89.0684 37.2749 89.2419 37.0461C89.4373 36.7704 89.5325 36.4363 89.5119 36.0991C89.5292 35.7882 89.4461 35.4801 89.2749 35.2201C89.1222 34.9989 88.912 34.8235 88.6669 34.7131C88.4072 34.5855 88.1268 34.5053 87.8389 34.4761C87.5471 34.4429 87.2537 34.4258 86.9599 34.4251H85.4389V37.7851L86.7199 37.7871ZM94.7379 32.5971H96.8689V44.5651H94.7399L94.7379 32.5971ZM100.644 32.5971H105.358C106.134 32.595 106.904 32.7207 107.639 32.9691C108.371 33.1972 109.044 33.5813 109.613 34.095C110.182 34.6086 110.632 35.2394 110.934 35.9441C111.29 36.7767 111.462 37.6759 111.441 38.5811C111.465 39.4471 111.288 40.307 110.924 41.0931C110.559 41.8791 110.018 42.5699 109.341 43.1111C108.731 43.5971 108.039 43.9697 107.297 44.2111C106.586 44.4426 105.844 44.5624 105.097 44.5661H100.636L100.644 32.5971ZM104.369 42.6381C105.001 42.6418 105.631 42.5679 106.245 42.4181C106.802 42.2783 107.329 42.0377 107.799 41.7081C108.239 41.3807 108.593 40.9514 108.83 40.4571C109.104 39.8705 109.237 39.2281 109.219 38.5811C109.235 37.9448 109.12 37.312 108.881 36.7221C108.677 36.2315 108.351 35.8009 107.935 35.4711C107.519 35.1333 107.035 34.8909 106.515 34.7611C105.932 34.5974 105.329 34.5176 104.724 34.5241H102.781V42.6381H104.369ZM114.625 32.5971H122.347V34.5241H116.749V37.6681H122.02V39.5951H116.749V44.5651H114.62L114.625 32.5971ZM124.837 38.6321C124.825 37.7429 124.986 36.8598 125.311 36.0321C125.602 35.2796 126.045 34.5948 126.611 34.0201C127.181 33.4639 127.86 33.0321 128.605 32.7521C130.257 32.1551 132.064 32.1431 133.724 32.7181C134.477 32.9846 135.163 33.4114 135.735 33.9691C136.308 34.5358 136.756 35.2151 137.053 35.9641C137.377 36.792 137.538 37.675 137.526 38.5641C137.537 39.4375 137.377 40.3047 137.053 41.1161C136.753 41.8585 136.305 42.5316 135.735 43.0941C135.157 43.6554 134.473 44.0971 133.724 44.3941C132.076 45.0134 130.261 45.0255 128.605 44.4281C127.864 44.1396 127.186 43.7088 126.611 43.1601C126.05 42.594 125.608 41.9215 125.311 41.1821C124.985 40.3718 124.822 39.5053 124.832 38.6321H124.837ZM127.068 38.4971C127.062 39.1008 127.159 39.7011 127.355 40.2721C127.544 40.7886 127.831 41.2639 128.2 41.6721C128.56 42.0664 128.997 42.3829 129.484 42.6021C130.019 42.8253 130.594 42.9402 131.174 42.9402C131.754 42.9402 132.328 42.8253 132.864 42.6021C133.357 42.3859 133.8 42.0691 134.164 41.6721C134.531 41.266 134.813 40.7898 134.992 40.2721C135.198 39.7033 135.3 39.102 135.292 38.4971C135.298 37.9252 135.196 37.3573 134.992 36.8231C134.81 36.321 134.529 35.861 134.164 35.4711C133.802 35.0756 133.359 34.764 132.864 34.5581C132.328 34.3348 131.754 34.2199 131.174 34.2199C130.594 34.2199 130.019 34.3348 129.484 34.5581C128.996 34.7671 128.558 35.0784 128.2 35.4711C127.834 35.8632 127.547 36.3223 127.355 36.8231C127.159 37.3592 127.06 37.9261 127.063 38.4971H127.068ZM140.706 32.5971H144.863C145.419 32.5952 145.974 32.6518 146.519 32.7661C147.027 32.8552 147.514 33.0387 147.955 33.3071C148.372 33.5653 148.717 33.9261 148.955 34.3551C149.221 34.8718 149.348 35.4484 149.326 36.0291C149.352 36.8196 149.094 37.5934 148.599 38.2101C148.083 38.8191 147.349 39.2015 146.555 39.2751L149.731 44.5661H147.163L144.392 39.4951H142.838V44.5651H140.709L140.706 32.5971ZM144.491 37.6681C144.795 37.6681 145.099 37.6567 145.403 37.6341C145.687 37.6061 145.966 37.5388 146.231 37.4341C146.479 37.3296 146.695 37.1603 146.856 36.9441C147.028 36.6655 147.11 36.3409 147.092 36.0141C147.106 35.7167 147.03 35.4221 146.873 35.1691C146.731 34.9589 146.531 34.7946 146.298 34.6961C146.047 34.5794 145.779 34.5051 145.504 34.4761C145.229 34.4426 144.953 34.4256 144.676 34.4251H142.835V37.6711L144.491 37.6681ZM154.654 34.5241H150.987V32.5971H160.449V34.5241H156.779V44.5651H154.65L154.654 34.5241Z" fill="black"/>
</g>
<defs>
<clipPath id="clip0_233_259636">
<rect width="160.445" height="44.869" fill="white"/>
</clipPath>
</defs>
</svg>
