<?xml version="1.0" encoding="UTF-8" standalone="no"?>
<!DOCTYPE svg PUBLIC "-//W3C//DTD SVG 1.1//EN" "http://www.w3.org/Graphics/SVG/1.1/DTD/svg11.dtd">
<svg width="100%" height="100%" viewBox="0 0 864 176" version="1.1" xmlns="http://www.w3.org/2000/svg" xmlns:xlink="http://www.w3.org/1999/xlink" xml:space="preserve" xmlns:serif="http://www.serif.com/" style="fill-rule:evenodd;clip-rule:evenodd;stroke-linejoin:round;stroke-miterlimit:2;">
    <g id="Longname" transform="matrix(1,0,0,1,-454.697,247.532)">
        <g transform="matrix(47,0,0,47,454.214,-79.0575)">
            <path d="M0.15,-0.291C0.15,-0.253 0.144,-0.095 0.134,-0.022L0.021,-0.005L0.021,-0L0.383,-0L0.383,-0.005L0.262,-0.022C0.255,-0.071 0.249,-0.123 0.249,-0.173L0.249,-0.263C0.249,-0.285 0.25,-0.304 0.252,-0.322C0.269,-0.325 0.293,-0.325 0.3,-0.325C0.347,-0.325 0.363,-0.316 0.389,-0.29C0.432,-0.246 0.529,-0.085 0.572,-0.043C0.606,-0.008 0.645,-0 0.685,-0L0.77,-0L0.77,-0.005C0.743,-0.005 0.717,-0.018 0.689,-0.046C0.637,-0.098 0.543,-0.261 0.493,-0.312C0.481,-0.324 0.465,-0.337 0.438,-0.348C0.508,-0.357 0.583,-0.418 0.583,-0.515C0.583,-0.564 0.543,-0.715 0.342,-0.715L0.021,-0.715L0.021,-0.71L0.136,-0.693C0.144,-0.634 0.15,-0.517 0.15,-0.442L0.15,-0.291ZM0.249,-0.514C0.249,-0.557 0.255,-0.647 0.261,-0.683C0.276,-0.688 0.295,-0.688 0.304,-0.688C0.383,-0.688 0.478,-0.616 0.478,-0.505C0.478,-0.429 0.437,-0.352 0.306,-0.352C0.29,-0.352 0.27,-0.352 0.252,-0.355C0.251,-0.367 0.249,-0.407 0.249,-0.434L0.249,-0.514ZM0.198,-0.019L0.164,-0.019L0.164,-0.696L0.198,-0.696L0.198,-0.019ZM0.41,-0.361C0.464,-0.388 0.495,-0.436 0.495,-0.502C0.495,-0.581 0.442,-0.696 0.297,-0.699L0.297,-0.704L0.321,-0.704C0.42,-0.704 0.529,-0.636 0.529,-0.512C0.529,-0.434 0.478,-0.375 0.413,-0.359L0.41,-0.361ZM0.374,-0.331C0.425,-0.321 0.45,-0.292 0.484,-0.243L0.569,-0.121C0.608,-0.066 0.638,-0.031 0.669,-0.022L0.669,-0.017C0.609,-0.018 0.574,-0.053 0.53,-0.118L0.425,-0.272C0.41,-0.293 0.394,-0.313 0.372,-0.327L0.374,-0.331Z" style="fill-rule:nonzero;"/>
        </g>
        <g transform="matrix(47,0,0,47,490.451,-79.0575)">
            <path d="M0.192,-0.696L0.192,-0.019L0.158,-0.019L0.158,-0.696L0.192,-0.696ZM0.01,-0.71L0.13,-0.693C0.14,-0.605 0.144,-0.487 0.144,-0.444L0.144,-0.321C0.144,-0.257 0.136,-0.072 0.127,-0.022L0.011,-0.005L0.011,-0L0.538,-0L0.548,-0.153L0.541,-0.153L0.502,-0.035C0.464,-0.031 0.435,-0.031 0.408,-0.031C0.356,-0.031 0.297,-0.035 0.252,-0.049C0.246,-0.097 0.243,-0.201 0.243,-0.26C0.243,-0.286 0.245,-0.324 0.248,-0.353C0.292,-0.358 0.327,-0.359 0.366,-0.359C0.397,-0.359 0.425,-0.358 0.459,-0.354L0.482,-0.265L0.49,-0.265L0.49,-0.474L0.482,-0.474L0.46,-0.39C0.424,-0.386 0.384,-0.385 0.346,-0.385C0.315,-0.385 0.282,-0.386 0.247,-0.388C0.244,-0.418 0.243,-0.458 0.243,-0.491C0.243,-0.571 0.249,-0.64 0.253,-0.672C0.29,-0.68 0.342,-0.685 0.406,-0.685C0.437,-0.685 0.471,-0.684 0.499,-0.682L0.535,-0.563L0.542,-0.563L0.53,-0.715L0.01,-0.715L0.01,-0.71Z" style="fill-rule:nonzero;"/>
        </g>
        <g transform="matrix(47,0,0,47,517.382,-79.0575)">
            <path d="M0.2,-0.697L0.2,-0.019L0.166,-0.019L0.166,-0.697L0.2,-0.697ZM0.561,-0.045C0.545,-0.04 0.496,-0.032 0.431,-0.032C0.37,-0.032 0.316,-0.039 0.259,-0.057C0.255,-0.098 0.251,-0.166 0.251,-0.215L0.251,-0.425C0.251,-0.517 0.258,-0.633 0.266,-0.693L0.387,-0.71L0.387,-0.715L0.018,-0.715L0.018,-0.71L0.138,-0.693C0.147,-0.639 0.152,-0.521 0.152,-0.443L0.152,-0.32C0.152,-0.264 0.144,-0.072 0.133,-0.022L0.017,-0.005L0.017,-0L0.597,-0L0.619,-0.178L0.612,-0.178L0.561,-0.045Z" style="fill-rule:nonzero;"/>
        </g>
        <g transform="matrix(47,0,0,47,546.757,-79.0575)">
            <path d="M0.2,-0.696L0.2,-0.019L0.166,-0.019L0.166,-0.696L0.2,-0.696ZM0.386,-0.005L0.266,-0.022C0.258,-0.079 0.251,-0.214 0.251,-0.304L0.251,-0.412C0.251,-0.506 0.256,-0.615 0.265,-0.693L0.386,-0.71L0.386,-0.715L0.017,-0.715L0.017,-0.71L0.137,-0.693C0.145,-0.638 0.152,-0.536 0.152,-0.421L0.152,-0.339C0.152,-0.236 0.146,-0.101 0.136,-0.023L0.017,-0.005L0.017,-0L0.386,-0L0.386,-0.005Z" style="fill-rule:nonzero;"/>
        </g>
        <g transform="matrix(47,0,0,47,564.852,-79.0575)">
            <path d="M0.399,-0.667L0.669,-0.019L0.636,-0.019L0.383,-0.626L0.399,-0.667ZM0.375,-0.585C0.431,-0.482 0.493,-0.335 0.519,-0.259C0.472,-0.253 0.425,-0.252 0.379,-0.252C0.332,-0.252 0.284,-0.253 0.239,-0.259C0.26,-0.312 0.33,-0.498 0.375,-0.585ZM0.388,-0.722L0.162,-0.147C0.145,-0.104 0.123,-0.058 0.102,-0.022L0.012,-0.005L0.012,-0L0.285,-0L0.285,-0.005L0.157,-0.022C0.166,-0.077 0.204,-0.17 0.226,-0.226L0.532,-0.226C0.564,-0.169 0.593,-0.087 0.603,-0.022L0.47,-0.005L0.47,-0L0.815,-0L0.815,-0.005L0.734,-0.022C0.697,-0.088 0.666,-0.151 0.638,-0.218L0.428,-0.722L0.388,-0.722Z" style="fill-rule:nonzero;"/>
        </g>
        <g transform="matrix(47,0,0,47,603.063,-79.0575)">
            <path d="M0.011,-0L0.404,-0C0.601,-0 0.641,-0.122 0.641,-0.189C0.641,-0.281 0.566,-0.373 0.412,-0.379L0.412,-0.381C0.497,-0.388 0.582,-0.443 0.582,-0.548C0.582,-0.62 0.541,-0.715 0.375,-0.715L0.012,-0.715L0.012,-0.71L0.139,-0.693C0.146,-0.652 0.152,-0.558 0.152,-0.469L0.152,-0.312C0.152,-0.259 0.146,-0.084 0.134,-0.023L0.011,-0.005L0.011,-0ZM0.481,-0.545C0.481,-0.439 0.406,-0.388 0.312,-0.388C0.293,-0.388 0.273,-0.389 0.254,-0.397C0.251,-0.419 0.251,-0.471 0.251,-0.497C0.251,-0.568 0.255,-0.629 0.263,-0.682C0.282,-0.688 0.314,-0.688 0.321,-0.688C0.436,-0.688 0.481,-0.62 0.481,-0.545ZM0.321,-0.362C0.46,-0.362 0.535,-0.287 0.535,-0.186C0.535,-0.081 0.464,-0.028 0.362,-0.028C0.32,-0.028 0.294,-0.035 0.258,-0.055C0.255,-0.093 0.251,-0.176 0.251,-0.239C0.251,-0.271 0.252,-0.328 0.255,-0.355C0.27,-0.361 0.293,-0.362 0.321,-0.362ZM0.2,-0.019L0.166,-0.019L0.166,-0.697L0.2,-0.697L0.2,-0.019ZM0.387,-0.39C0.438,-0.403 0.498,-0.448 0.498,-0.542C0.498,-0.632 0.443,-0.696 0.333,-0.699L0.333,-0.703C0.343,-0.704 0.354,-0.705 0.362,-0.705C0.459,-0.705 0.532,-0.646 0.532,-0.545C0.532,-0.467 0.481,-0.397 0.387,-0.385L0.387,-0.39ZM0.365,-0.017C0.501,-0.016 0.551,-0.104 0.551,-0.184C0.551,-0.295 0.47,-0.352 0.387,-0.367L0.387,-0.371C0.519,-0.366 0.587,-0.29 0.587,-0.184C0.587,-0.097 0.525,-0.011 0.394,-0.011C0.386,-0.011 0.373,-0.011 0.365,-0.012L0.365,-0.017Z" style="fill-rule:nonzero;"/>
        </g>
        <g transform="matrix(47,0,0,47,634.412,-79.0575)">
            <path d="M0.2,-0.697L0.2,-0.019L0.166,-0.019L0.166,-0.697L0.2,-0.697ZM0.561,-0.045C0.545,-0.04 0.496,-0.032 0.431,-0.032C0.37,-0.032 0.316,-0.039 0.259,-0.057C0.255,-0.098 0.251,-0.166 0.251,-0.215L0.251,-0.425C0.251,-0.517 0.258,-0.633 0.266,-0.693L0.387,-0.71L0.387,-0.715L0.018,-0.715L0.018,-0.71L0.138,-0.693C0.147,-0.639 0.152,-0.521 0.152,-0.443L0.152,-0.32C0.152,-0.264 0.144,-0.072 0.133,-0.022L0.017,-0.005L0.017,-0L0.597,-0L0.619,-0.178L0.612,-0.178L0.561,-0.045Z" style="fill-rule:nonzero;"/>
        </g>
        <g transform="matrix(47,0,0,47,663.787,-79.0575)">
            <path d="M0.192,-0.696L0.192,-0.019L0.158,-0.019L0.158,-0.696L0.192,-0.696ZM0.01,-0.71L0.13,-0.693C0.14,-0.605 0.144,-0.487 0.144,-0.444L0.144,-0.321C0.144,-0.257 0.136,-0.072 0.127,-0.022L0.011,-0.005L0.011,-0L0.538,-0L0.548,-0.153L0.541,-0.153L0.502,-0.035C0.464,-0.031 0.435,-0.031 0.408,-0.031C0.356,-0.031 0.297,-0.035 0.252,-0.049C0.246,-0.097 0.243,-0.201 0.243,-0.26C0.243,-0.286 0.245,-0.324 0.248,-0.353C0.292,-0.358 0.327,-0.359 0.366,-0.359C0.397,-0.359 0.425,-0.358 0.459,-0.354L0.482,-0.265L0.49,-0.265L0.49,-0.474L0.482,-0.474L0.46,-0.39C0.424,-0.386 0.384,-0.385 0.346,-0.385C0.315,-0.385 0.282,-0.386 0.247,-0.388C0.244,-0.418 0.243,-0.458 0.243,-0.491C0.243,-0.571 0.249,-0.64 0.253,-0.672C0.29,-0.68 0.342,-0.685 0.406,-0.685C0.437,-0.685 0.471,-0.684 0.499,-0.682L0.535,-0.563L0.542,-0.563L0.53,-0.715L0.01,-0.715L0.01,-0.71Z" style="fill-rule:nonzero;"/>
        </g>
        <g transform="matrix(47,0,0,47,703.643,-79.0575)">
            <path d="M0.192,-0.696L0.192,-0.019L0.158,-0.019L0.158,-0.696L0.192,-0.696ZM0.01,-0.71L0.13,-0.693C0.14,-0.605 0.144,-0.487 0.144,-0.444L0.144,-0.321C0.144,-0.257 0.136,-0.072 0.127,-0.022L0.011,-0.005L0.011,-0L0.538,-0L0.548,-0.153L0.541,-0.153L0.502,-0.035C0.464,-0.031 0.435,-0.031 0.408,-0.031C0.356,-0.031 0.297,-0.035 0.252,-0.049C0.246,-0.097 0.243,-0.201 0.243,-0.26C0.243,-0.286 0.245,-0.324 0.248,-0.353C0.292,-0.358 0.327,-0.359 0.366,-0.359C0.397,-0.359 0.425,-0.358 0.459,-0.354L0.482,-0.265L0.49,-0.265L0.49,-0.474L0.482,-0.474L0.46,-0.39C0.424,-0.386 0.384,-0.385 0.346,-0.385C0.315,-0.385 0.282,-0.386 0.247,-0.388C0.244,-0.418 0.243,-0.458 0.243,-0.491C0.243,-0.571 0.249,-0.64 0.253,-0.672C0.29,-0.68 0.342,-0.685 0.406,-0.685C0.437,-0.685 0.471,-0.684 0.499,-0.682L0.535,-0.563L0.542,-0.563L0.53,-0.715L0.01,-0.715L0.01,-0.71Z" style="fill-rule:nonzero;"/>
        </g>
        <g transform="matrix(47,0,0,47,730.574,-79.0575)">
            <path d="M0.102,-0.692L0.167,-0.644C0.172,-0.593 0.174,-0.532 0.174,-0.477L0.174,-0.238C0.174,-0.199 0.171,-0.071 0.163,-0.022L0.043,-0.005L0.043,-0L0.34,-0L0.34,-0.005L0.216,-0.023C0.211,-0.066 0.206,-0.121 0.206,-0.171L0.206,-0.48C0.206,-0.521 0.209,-0.566 0.214,-0.604C0.25,-0.571 0.29,-0.53 0.326,-0.491L0.625,-0.158C0.676,-0.101 0.724,-0.044 0.773,0.019L0.778,0.019L0.778,-0.516C0.778,-0.571 0.781,-0.644 0.787,-0.692L0.906,-0.71L0.906,-0.715L0.615,-0.715L0.615,-0.71L0.734,-0.692C0.742,-0.637 0.746,-0.567 0.746,-0.504L0.746,-0.293C0.746,-0.261 0.743,-0.21 0.74,-0.175C0.691,-0.221 0.652,-0.265 0.61,-0.311L0.391,-0.555C0.346,-0.604 0.291,-0.671 0.259,-0.715L0.012,-0.715L0.012,-0.71L0.102,-0.692ZM0.199,-0.697L0.748,-0.087L0.748,-0.041L0.158,-0.697L0.199,-0.697Z" style="fill-rule:nonzero;"/>
        </g>
        <g transform="matrix(47,0,0,47,773.156,-79.0575)">
            <path d="M0.192,-0.696L0.192,-0.019L0.158,-0.019L0.158,-0.696L0.192,-0.696ZM0.01,-0.71L0.13,-0.693C0.14,-0.605 0.144,-0.487 0.144,-0.444L0.144,-0.321C0.144,-0.257 0.136,-0.072 0.127,-0.022L0.011,-0.005L0.011,-0L0.538,-0L0.548,-0.153L0.541,-0.153L0.502,-0.035C0.464,-0.031 0.435,-0.031 0.408,-0.031C0.356,-0.031 0.297,-0.035 0.252,-0.049C0.246,-0.097 0.243,-0.201 0.243,-0.26C0.243,-0.286 0.245,-0.324 0.248,-0.353C0.292,-0.358 0.327,-0.359 0.366,-0.359C0.397,-0.359 0.425,-0.358 0.459,-0.354L0.482,-0.265L0.49,-0.265L0.49,-0.474L0.482,-0.474L0.46,-0.39C0.424,-0.386 0.384,-0.385 0.346,-0.385C0.315,-0.385 0.282,-0.386 0.247,-0.388C0.244,-0.418 0.243,-0.458 0.243,-0.491C0.243,-0.571 0.249,-0.64 0.253,-0.672C0.29,-0.68 0.342,-0.685 0.406,-0.685C0.437,-0.685 0.471,-0.684 0.499,-0.682L0.535,-0.563L0.542,-0.563L0.53,-0.715L0.01,-0.715L0.01,-0.71Z" style="fill-rule:nonzero;"/>
        </g>
        <g transform="matrix(47,0,0,47,800.087,-79.0575)">
            <path d="M0.15,-0.291C0.15,-0.253 0.144,-0.095 0.134,-0.022L0.021,-0.005L0.021,-0L0.383,-0L0.383,-0.005L0.262,-0.022C0.255,-0.071 0.249,-0.123 0.249,-0.173L0.249,-0.263C0.249,-0.285 0.25,-0.304 0.252,-0.322C0.269,-0.325 0.293,-0.325 0.3,-0.325C0.347,-0.325 0.363,-0.316 0.389,-0.29C0.432,-0.246 0.529,-0.085 0.572,-0.043C0.606,-0.008 0.645,-0 0.685,-0L0.77,-0L0.77,-0.005C0.743,-0.005 0.717,-0.018 0.689,-0.046C0.637,-0.098 0.543,-0.261 0.493,-0.312C0.481,-0.324 0.465,-0.337 0.438,-0.348C0.508,-0.357 0.583,-0.418 0.583,-0.515C0.583,-0.564 0.543,-0.715 0.342,-0.715L0.021,-0.715L0.021,-0.71L0.136,-0.693C0.144,-0.634 0.15,-0.517 0.15,-0.442L0.15,-0.291ZM0.249,-0.514C0.249,-0.557 0.255,-0.647 0.261,-0.683C0.276,-0.688 0.295,-0.688 0.304,-0.688C0.383,-0.688 0.478,-0.616 0.478,-0.505C0.478,-0.429 0.437,-0.352 0.306,-0.352C0.29,-0.352 0.27,-0.352 0.252,-0.355C0.251,-0.367 0.249,-0.407 0.249,-0.434L0.249,-0.514ZM0.198,-0.019L0.164,-0.019L0.164,-0.696L0.198,-0.696L0.198,-0.019ZM0.41,-0.361C0.464,-0.388 0.495,-0.436 0.495,-0.502C0.495,-0.581 0.442,-0.696 0.297,-0.699L0.297,-0.704L0.321,-0.704C0.42,-0.704 0.529,-0.636 0.529,-0.512C0.529,-0.434 0.478,-0.375 0.413,-0.359L0.41,-0.361ZM0.374,-0.331C0.425,-0.321 0.45,-0.292 0.484,-0.243L0.569,-0.121C0.608,-0.066 0.638,-0.031 0.669,-0.022L0.669,-0.017C0.609,-0.018 0.574,-0.053 0.53,-0.118L0.425,-0.272C0.41,-0.293 0.394,-0.313 0.372,-0.327L0.374,-0.331Z" style="fill-rule:nonzero;"/>
        </g>
        <g transform="matrix(47,0,0,47,832.564,-79.0575)">
            <path d="M0.671,-0.254L0.671,-0.075L0.637,-0.063L0.637,-0.254L0.671,-0.254ZM0.814,-0.274L0.488,-0.274L0.488,-0.268L0.613,-0.251C0.621,-0.22 0.623,-0.178 0.623,-0.144C0.623,-0.112 0.619,-0.081 0.614,-0.054C0.576,-0.049 0.535,-0.04 0.494,-0.04C0.31,-0.04 0.168,-0.189 0.168,-0.37C0.168,-0.519 0.25,-0.69 0.49,-0.69C0.569,-0.69 0.647,-0.675 0.675,-0.667L0.706,-0.558L0.713,-0.558L0.706,-0.721C0.696,-0.72 0.665,-0.718 0.627,-0.718C0.58,-0.718 0.543,-0.72 0.513,-0.722C0.483,-0.723 0.459,-0.725 0.438,-0.725C0.19,-0.725 0.055,-0.542 0.055,-0.346C0.055,-0.181 0.171,0.005 0.44,0.005C0.564,0.005 0.65,-0.031 0.722,-0.059C0.722,-0.122 0.727,-0.2 0.736,-0.251L0.814,-0.268L0.814,-0.274ZM0.511,-0.012C0.493,-0.01 0.47,-0.008 0.452,-0.008C0.215,-0.008 0.075,-0.165 0.075,-0.346C0.075,-0.556 0.223,-0.714 0.438,-0.714C0.458,-0.714 0.475,-0.713 0.497,-0.711L0.497,-0.707L0.48,-0.707C0.238,-0.707 0.11,-0.56 0.11,-0.361C0.11,-0.207 0.21,-0.013 0.511,-0.016L0.511,-0.012Z" style="fill-rule:nonzero;"/>
        </g>
        <g transform="matrix(47,0,0,47,869.365,-79.0575)">
            <path d="M0.374,-0.321L0.139,-0.697L0.175,-0.697L0.408,-0.324L0.408,-0.019L0.374,-0.019L0.374,-0.321ZM0.224,-0.005L0.224,-0L0.594,-0L0.594,-0.005L0.474,-0.022C0.462,-0.072 0.459,-0.135 0.459,-0.184C0.459,-0.215 0.46,-0.273 0.463,-0.318C0.549,-0.452 0.654,-0.606 0.727,-0.693L0.811,-0.709L0.811,-0.715L0.527,-0.715L0.527,-0.71L0.67,-0.693C0.631,-0.619 0.515,-0.446 0.445,-0.368C0.386,-0.443 0.292,-0.591 0.246,-0.693L0.392,-0.71L0.392,-0.715L0.012,-0.715L0.012,-0.71L0.111,-0.693C0.193,-0.59 0.3,-0.42 0.357,-0.316C0.359,-0.266 0.36,-0.233 0.36,-0.206C0.36,-0.157 0.355,-0.072 0.343,-0.022L0.224,-0.005Z" style="fill-rule:nonzero;"/>
        </g>
        <g transform="matrix(47,0,0,47,919.091,-79.0575)">
            <path d="M0.399,-0.667L0.669,-0.019L0.636,-0.019L0.383,-0.626L0.399,-0.667ZM0.375,-0.585C0.431,-0.482 0.493,-0.335 0.519,-0.259C0.472,-0.253 0.425,-0.252 0.379,-0.252C0.332,-0.252 0.284,-0.253 0.239,-0.259C0.26,-0.312 0.33,-0.498 0.375,-0.585ZM0.388,-0.722L0.162,-0.147C0.145,-0.104 0.123,-0.058 0.102,-0.022L0.012,-0.005L0.012,-0L0.285,-0L0.285,-0.005L0.157,-0.022C0.166,-0.077 0.204,-0.17 0.226,-0.226L0.532,-0.226C0.564,-0.169 0.593,-0.087 0.603,-0.022L0.47,-0.005L0.47,-0L0.815,-0L0.815,-0.005L0.734,-0.022C0.697,-0.088 0.666,-0.151 0.638,-0.218L0.428,-0.722L0.388,-0.722Z" style="fill-rule:nonzero;"/>
        </g>
        <g transform="matrix(47,0,0,47,955.892,-79.0575)">
            <path d="M0.102,-0.692L0.167,-0.644C0.172,-0.593 0.174,-0.532 0.174,-0.477L0.174,-0.238C0.174,-0.199 0.171,-0.071 0.163,-0.022L0.043,-0.005L0.043,-0L0.34,-0L0.34,-0.005L0.216,-0.023C0.211,-0.066 0.206,-0.121 0.206,-0.171L0.206,-0.48C0.206,-0.521 0.209,-0.566 0.214,-0.604C0.25,-0.571 0.29,-0.53 0.326,-0.491L0.625,-0.158C0.676,-0.101 0.724,-0.044 0.773,0.019L0.778,0.019L0.778,-0.516C0.778,-0.571 0.781,-0.644 0.787,-0.692L0.906,-0.71L0.906,-0.715L0.615,-0.715L0.615,-0.71L0.734,-0.692C0.742,-0.637 0.746,-0.567 0.746,-0.504L0.746,-0.293C0.746,-0.261 0.743,-0.21 0.74,-0.175C0.691,-0.221 0.652,-0.265 0.61,-0.311L0.391,-0.555C0.346,-0.604 0.291,-0.671 0.259,-0.715L0.012,-0.715L0.012,-0.71L0.102,-0.692ZM0.199,-0.697L0.748,-0.087L0.748,-0.041L0.158,-0.697L0.199,-0.697Z" style="fill-rule:nonzero;"/>
        </g>
        <g transform="matrix(47,0,0,47,996.124,-79.0575)">
            <path d="M0.399,-0.667L0.669,-0.019L0.636,-0.019L0.383,-0.626L0.399,-0.667ZM0.375,-0.585C0.431,-0.482 0.493,-0.335 0.519,-0.259C0.472,-0.253 0.425,-0.252 0.379,-0.252C0.332,-0.252 0.284,-0.253 0.239,-0.259C0.26,-0.312 0.33,-0.498 0.375,-0.585ZM0.388,-0.722L0.162,-0.147C0.145,-0.104 0.123,-0.058 0.102,-0.022L0.012,-0.005L0.012,-0L0.285,-0L0.285,-0.005L0.157,-0.022C0.166,-0.077 0.204,-0.17 0.226,-0.226L0.532,-0.226C0.564,-0.169 0.593,-0.087 0.603,-0.022L0.47,-0.005L0.47,-0L0.815,-0L0.815,-0.005L0.734,-0.022C0.697,-0.088 0.666,-0.151 0.638,-0.218L0.428,-0.722L0.388,-0.722Z" style="fill-rule:nonzero;"/>
        </g>
        <g transform="matrix(47,0,0,47,1034.34,-79.0575)">
            <path d="M0.2,-0.697L0.2,-0.019L0.166,-0.019L0.166,-0.697L0.2,-0.697ZM0.561,-0.045C0.545,-0.04 0.496,-0.032 0.431,-0.032C0.37,-0.032 0.316,-0.039 0.259,-0.057C0.255,-0.098 0.251,-0.166 0.251,-0.215L0.251,-0.425C0.251,-0.517 0.258,-0.633 0.266,-0.693L0.387,-0.71L0.387,-0.715L0.018,-0.715L0.018,-0.71L0.138,-0.693C0.147,-0.639 0.152,-0.521 0.152,-0.443L0.152,-0.32C0.152,-0.264 0.144,-0.072 0.133,-0.022L0.017,-0.005L0.017,-0L0.597,-0L0.619,-0.178L0.612,-0.178L0.561,-0.045Z" style="fill-rule:nonzero;"/>
        </g>
        <g transform="matrix(47,0,0,47,1058.54,-79.0575)">
            <path d="M0.374,-0.321L0.139,-0.697L0.175,-0.697L0.408,-0.324L0.408,-0.019L0.374,-0.019L0.374,-0.321ZM0.224,-0.005L0.224,-0L0.594,-0L0.594,-0.005L0.474,-0.022C0.462,-0.072 0.459,-0.135 0.459,-0.184C0.459,-0.215 0.46,-0.273 0.463,-0.318C0.549,-0.452 0.654,-0.606 0.727,-0.693L0.811,-0.709L0.811,-0.715L0.527,-0.715L0.527,-0.71L0.67,-0.693C0.631,-0.619 0.515,-0.446 0.445,-0.368C0.386,-0.443 0.292,-0.591 0.246,-0.693L0.392,-0.71L0.392,-0.715L0.012,-0.715L0.012,-0.71L0.111,-0.693C0.193,-0.59 0.3,-0.42 0.357,-0.316C0.359,-0.266 0.36,-0.233 0.36,-0.206C0.36,-0.157 0.355,-0.072 0.343,-0.022L0.224,-0.005Z" style="fill-rule:nonzero;"/>
        </g>
        <g transform="matrix(47,0,0,47,1096.75,-79.0575)">
            <path d="M0.362,-0.697L0.362,-0.019L0.329,-0.019L0.329,-0.697L0.362,-0.697ZM0.119,-0.715C0.09,-0.715 0.06,-0.721 0.031,-0.723L0.021,-0.563L0.027,-0.563L0.063,-0.679C0.084,-0.683 0.127,-0.688 0.161,-0.688C0.175,-0.688 0.242,-0.686 0.304,-0.67C0.311,-0.612 0.315,-0.531 0.315,-0.461L0.315,-0.284C0.315,-0.201 0.308,-0.082 0.3,-0.023L0.181,-0.005L0.181,-0L0.55,-0L0.55,-0.005L0.428,-0.023C0.419,-0.087 0.413,-0.208 0.413,-0.293L0.413,-0.455C0.413,-0.502 0.417,-0.597 0.425,-0.67C0.481,-0.684 0.523,-0.689 0.573,-0.689C0.605,-0.689 0.638,-0.686 0.665,-0.681L0.701,-0.566L0.707,-0.566L0.697,-0.723C0.646,-0.719 0.594,-0.715 0.543,-0.715L0.119,-0.715Z" style="fill-rule:nonzero;"/>
        </g>
        <g transform="matrix(47,0,0,47,1130.54,-79.0575)">
            <path d="M0.2,-0.696L0.2,-0.019L0.166,-0.019L0.166,-0.696L0.2,-0.696ZM0.386,-0.005L0.266,-0.022C0.258,-0.079 0.251,-0.214 0.251,-0.304L0.251,-0.412C0.251,-0.506 0.256,-0.615 0.265,-0.693L0.386,-0.71L0.386,-0.715L0.017,-0.715L0.017,-0.71L0.137,-0.693C0.145,-0.638 0.152,-0.536 0.152,-0.421L0.152,-0.339C0.152,-0.236 0.146,-0.101 0.136,-0.023L0.017,-0.005L0.017,-0L0.386,-0L0.386,-0.005Z" style="fill-rule:nonzero;"/>
        </g>
        <g transform="matrix(47,0,0,47,1148.64,-79.0575)">
            <path d="M0.522,-0.008C0.235,0.012 0.089,-0.17 0.089,-0.351C0.089,-0.55 0.23,-0.713 0.465,-0.713L0.522,-0.713L0.522,-0.706L0.488,-0.706C0.227,-0.706 0.126,-0.516 0.126,-0.356C0.126,-0.187 0.247,-0.008 0.522,-0.014L0.522,-0.008ZM0.743,-0.132L0.738,-0.134C0.672,-0.048 0.588,-0.031 0.514,-0.031C0.339,-0.031 0.184,-0.157 0.184,-0.365C0.184,-0.559 0.293,-0.69 0.5,-0.69C0.575,-0.69 0.659,-0.675 0.698,-0.666L0.731,-0.558L0.737,-0.558L0.731,-0.721C0.707,-0.717 0.672,-0.717 0.629,-0.717C0.588,-0.717 0.557,-0.719 0.528,-0.721C0.5,-0.722 0.474,-0.724 0.442,-0.724C0.23,-0.724 0.069,-0.574 0.069,-0.35C0.069,-0.182 0.189,0.006 0.465,0.006C0.514,0.006 0.552,-0.002 0.603,-0.002C0.626,-0.002 0.659,0.001 0.671,0.002L0.743,-0.132Z" style="fill-rule:nonzero;"/>
        </g>
        <g transform="matrix(47,0,0,47,1184.88,-79.0575)">
            <path d="M0.279,-0.714L0.279,-0.709C0.141,-0.705 0.092,-0.619 0.092,-0.56C0.092,-0.528 0.103,-0.488 0.143,-0.448C0.194,-0.399 0.312,-0.336 0.361,-0.288C0.402,-0.247 0.413,-0.211 0.413,-0.167C0.413,-0.089 0.338,-0.004 0.211,-0.008L0.211,-0.013C0.32,-0.015 0.38,-0.09 0.38,-0.163C0.38,-0.192 0.371,-0.226 0.336,-0.261C0.284,-0.313 0.185,-0.361 0.12,-0.427C0.078,-0.468 0.066,-0.508 0.066,-0.542C0.066,-0.645 0.154,-0.714 0.263,-0.714L0.279,-0.714ZM0.04,-0.171L0.033,-0.171L0.041,0.001C0.049,0.001 0.058,-0.002 0.084,-0.002C0.12,-0.002 0.154,0.005 0.219,0.005C0.403,0.005 0.455,-0.117 0.455,-0.193C0.455,-0.218 0.45,-0.274 0.397,-0.327C0.301,-0.422 0.132,-0.469 0.132,-0.575C0.132,-0.646 0.194,-0.697 0.278,-0.697C0.315,-0.697 0.357,-0.684 0.396,-0.668L0.427,-0.554L0.433,-0.554L0.43,-0.721C0.42,-0.72 0.407,-0.718 0.379,-0.718C0.363,-0.718 0.346,-0.72 0.327,-0.721C0.308,-0.723 0.287,-0.724 0.262,-0.724C0.113,-0.724 0.051,-0.621 0.051,-0.544C0.051,-0.489 0.073,-0.45 0.11,-0.413C0.215,-0.308 0.365,-0.272 0.365,-0.16C0.365,-0.098 0.311,-0.023 0.207,-0.023C0.169,-0.022 0.113,-0.035 0.077,-0.051L0.04,-0.171Z" style="fill-rule:nonzero;"/>
        </g>
        <g transform="matrix(47,0,0,47,1220.31,-79.0575)">
            <path d="M0.2,-0.697L0.2,-0.019L0.166,-0.019L0.166,-0.697L0.2,-0.697ZM0.561,-0.045C0.545,-0.04 0.496,-0.032 0.431,-0.032C0.37,-0.032 0.316,-0.039 0.259,-0.057C0.255,-0.098 0.251,-0.166 0.251,-0.215L0.251,-0.425C0.251,-0.517 0.258,-0.633 0.266,-0.693L0.387,-0.71L0.387,-0.715L0.018,-0.715L0.018,-0.71L0.138,-0.693C0.147,-0.639 0.152,-0.521 0.152,-0.443L0.152,-0.32C0.152,-0.264 0.144,-0.072 0.133,-0.022L0.017,-0.005L0.017,-0L0.597,-0L0.619,-0.178L0.612,-0.178L0.561,-0.045Z" style="fill-rule:nonzero;"/>
        </g>
        <g transform="matrix(47,0,0,47,1249.69,-79.0575)">
            <path d="M0.2,-0.697L0.2,-0.019L0.166,-0.019L0.166,-0.697L0.2,-0.697ZM0.561,-0.045C0.545,-0.04 0.496,-0.032 0.431,-0.032C0.37,-0.032 0.316,-0.039 0.259,-0.057C0.255,-0.098 0.251,-0.166 0.251,-0.215L0.251,-0.425C0.251,-0.517 0.258,-0.633 0.266,-0.693L0.387,-0.71L0.387,-0.715L0.018,-0.715L0.018,-0.71L0.138,-0.693C0.147,-0.639 0.152,-0.521 0.152,-0.443L0.152,-0.32C0.152,-0.264 0.144,-0.072 0.133,-0.022L0.017,-0.005L0.017,-0L0.597,-0L0.619,-0.178L0.612,-0.178L0.561,-0.045Z" style="fill-rule:nonzero;"/>
        </g>
        <g transform="matrix(47,0,0,47,1279.06,-79.0575)">
            <path d="M0.522,-0.008C0.235,0.012 0.089,-0.17 0.089,-0.351C0.089,-0.55 0.23,-0.713 0.465,-0.713L0.522,-0.713L0.522,-0.706L0.488,-0.706C0.227,-0.706 0.126,-0.516 0.126,-0.356C0.126,-0.187 0.247,-0.008 0.522,-0.014L0.522,-0.008ZM0.743,-0.132L0.738,-0.134C0.672,-0.048 0.588,-0.031 0.514,-0.031C0.339,-0.031 0.184,-0.157 0.184,-0.365C0.184,-0.559 0.293,-0.69 0.5,-0.69C0.575,-0.69 0.659,-0.675 0.698,-0.666L0.731,-0.558L0.737,-0.558L0.731,-0.721C0.707,-0.717 0.672,-0.717 0.629,-0.717C0.588,-0.717 0.557,-0.719 0.528,-0.721C0.5,-0.722 0.474,-0.724 0.442,-0.724C0.23,-0.724 0.069,-0.574 0.069,-0.35C0.069,-0.182 0.189,0.006 0.465,0.006C0.514,0.006 0.552,-0.002 0.603,-0.002C0.626,-0.002 0.659,0.001 0.671,0.002L0.743,-0.132Z" style="fill-rule:nonzero;"/>
        </g>
    </g>
    <g id="A" transform="matrix(1,0,0,1,-8.45961,-2.7354)">
        <g transform="matrix(47,0,0,47,559.66,80.3139)">
            <path d="M0.399,-0.667L0.669,-0.019L0.636,-0.019L0.383,-0.626L0.399,-0.667ZM0.375,-0.585C0.431,-0.482 0.493,-0.335 0.519,-0.259C0.472,-0.253 0.425,-0.252 0.379,-0.252C0.332,-0.252 0.284,-0.253 0.239,-0.259C0.26,-0.312 0.33,-0.498 0.375,-0.585ZM0.388,-0.722L0.162,-0.147C0.145,-0.104 0.123,-0.058 0.102,-0.022L0.012,-0.005L0.012,-0L0.285,-0L0.285,-0.005L0.157,-0.022C0.166,-0.077 0.204,-0.17 0.226,-0.226L0.532,-0.226C0.564,-0.169 0.593,-0.087 0.603,-0.022L0.47,-0.005L0.47,-0L0.815,-0L0.815,-0.005L0.734,-0.022C0.697,-0.088 0.666,-0.151 0.638,-0.218L0.428,-0.722L0.388,-0.722Z" style="fill-rule:nonzero;"/>
        </g>
    </g>
    <g id="E" transform="matrix(1,0,0,1,5.07629,-22.9367)">
        <g transform="matrix(47,0,0,47,420.502,101.081)">
            <path d="M0.192,-0.696L0.192,-0.019L0.158,-0.019L0.158,-0.696L0.192,-0.696ZM0.01,-0.71L0.13,-0.693C0.14,-0.605 0.144,-0.487 0.144,-0.444L0.144,-0.321C0.144,-0.257 0.136,-0.072 0.127,-0.022L0.011,-0.005L0.011,-0L0.538,-0L0.548,-0.153L0.541,-0.153L0.502,-0.035C0.464,-0.031 0.435,-0.031 0.408,-0.031C0.356,-0.031 0.297,-0.035 0.252,-0.049C0.246,-0.097 0.243,-0.201 0.243,-0.26C0.243,-0.286 0.245,-0.324 0.248,-0.353C0.292,-0.358 0.327,-0.359 0.366,-0.359C0.397,-0.359 0.425,-0.358 0.459,-0.354L0.482,-0.265L0.49,-0.265L0.49,-0.474L0.482,-0.474L0.46,-0.39C0.424,-0.386 0.384,-0.385 0.346,-0.385C0.315,-0.385 0.282,-0.386 0.247,-0.388C0.244,-0.418 0.243,-0.458 0.243,-0.491C0.243,-0.571 0.249,-0.64 0.253,-0.672C0.29,-0.68 0.342,-0.685 0.406,-0.685C0.437,-0.685 0.471,-0.684 0.499,-0.682L0.535,-0.563L0.542,-0.563L0.53,-0.715L0.01,-0.715L0.01,-0.71Z" style="fill-rule:nonzero;"/>
        </g>
    </g>
    <g id="R" transform="matrix(1,0,0,1,7.30484,5.46943)">
        <g transform="matrix(47,0,0,47,280.153,71.7446)">
            <path d="M0.15,-0.291C0.15,-0.253 0.144,-0.095 0.134,-0.022L0.021,-0.005L0.021,-0L0.383,-0L0.383,-0.005L0.262,-0.022C0.255,-0.071 0.249,-0.123 0.249,-0.173L0.249,-0.263C0.249,-0.285 0.25,-0.304 0.252,-0.322C0.269,-0.325 0.293,-0.325 0.3,-0.325C0.347,-0.325 0.363,-0.316 0.389,-0.29C0.432,-0.246 0.529,-0.085 0.572,-0.043C0.606,-0.008 0.645,-0 0.685,-0L0.77,-0L0.77,-0.005C0.743,-0.005 0.717,-0.018 0.689,-0.046C0.637,-0.098 0.543,-0.261 0.493,-0.312C0.481,-0.324 0.465,-0.337 0.438,-0.348C0.508,-0.357 0.583,-0.418 0.583,-0.515C0.583,-0.564 0.543,-0.715 0.342,-0.715L0.021,-0.715L0.021,-0.71L0.136,-0.693C0.144,-0.634 0.15,-0.517 0.15,-0.442L0.15,-0.291ZM0.249,-0.514C0.249,-0.557 0.255,-0.647 0.261,-0.683C0.276,-0.688 0.295,-0.688 0.304,-0.688C0.383,-0.688 0.478,-0.616 0.478,-0.505C0.478,-0.429 0.437,-0.352 0.306,-0.352C0.29,-0.352 0.27,-0.352 0.252,-0.355C0.251,-0.367 0.249,-0.407 0.249,-0.434L0.249,-0.514ZM0.198,-0.019L0.164,-0.019L0.164,-0.696L0.198,-0.696L0.198,-0.019ZM0.41,-0.361C0.464,-0.388 0.495,-0.436 0.495,-0.502C0.495,-0.581 0.442,-0.696 0.297,-0.699L0.297,-0.704L0.321,-0.704C0.42,-0.704 0.529,-0.636 0.529,-0.512C0.529,-0.434 0.478,-0.375 0.413,-0.359L0.41,-0.361ZM0.374,-0.331C0.425,-0.321 0.45,-0.292 0.484,-0.243L0.569,-0.121C0.608,-0.066 0.638,-0.031 0.669,-0.022L0.669,-0.017C0.609,-0.018 0.574,-0.053 0.53,-0.118L0.425,-0.272C0.41,-0.293 0.394,-0.313 0.372,-0.327L0.374,-0.331Z" style="fill-rule:nonzero;"/>
        </g>
    </g>
    <g id="Circles">
        <path d="M294.59,2.85C301,2 307.51,2.44 313.96,2.48C327.6,4.39 340.81,10.57 350.52,20.44C360.17,29.8 369.49,39.51 379.37,48.63C384.12,53.89 389.56,58.46 394.4,63.62C395.46,64.45 393.99,65.52 393.46,66.16C378.92,80.36 364.48,94.67 350.02,108.96C340.25,118.39 327.48,124.57 314.04,126.4C305.38,126.86 296.5,127.13 288.15,124.41C271.56,119.72 257.2,107.88 249.29,92.58C242.73,79.43 240.5,63.9 244.42,49.62C249.78,25.78 270.77,7.09 294.59,2.85M294.02,7.79C280.01,10.83 266.95,18.83 258.47,30.47C246.71,45.85 243.48,67.47 250.73,85.47C257.26,103.84 273.99,117.88 292.94,121.99C307.05,125.36 322.34,123 334.98,115.96C350,107.76 360.98,92.63 364.15,75.81C366.76,63.38 364.46,50.21 358.91,38.89C352.01,25.22 339.54,14.52 324.97,9.79C315.06,6.28 304.31,5.81 294.02,7.79Z" style="fill:#4472c3;fill-rule:nonzero;"/>
        <path d="M378.41,43.5C386.06,21.24 407.61,4.6 431,2.41C436.32,2.42 441.67,2.2 446.99,2.59C460.32,4.52 473.02,10.84 482.54,20.38C496.28,34.01 510.16,47.49 523.99,61.03C525.13,62.18 526.16,63.45 527.17,64.72C514.31,77.36 501.43,89.98 488.59,102.65C483.43,107.84 478.21,113.1 471.94,116.97C461.84,123.26 449.96,127.15 437.98,126.62C420.51,127.3 403.18,119.37 391.4,106.61C385.04,100.26 380.91,92.12 377.6,83.87C377.9,83.27 378.49,82.09 378.79,81.5C379.6,81.38 380.42,81.27 381.25,81.16C385.99,98.47 399.5,112.83 416.12,119.36C426.26,122.97 437.37,124.78 448.02,122.56C464.79,119.91 480.1,109.47 488.79,94.9C499.02,78.29 499.78,56.46 490.87,39.14C479.66,15.7 451.39,2.02 426.05,7.86C405.39,11.91 387.57,27.75 381.45,47.95C378.77,48.35 377.57,45.7 378.41,43.5Z" style="fill:#4472c3;fill-rule:nonzero;"/>
        <path d="M530.79,16.75C544.09,5.87 561.97,0.62 579.03,3.02C592.47,4.49 605.16,10.85 615.03,20.01C627.51,31.76 634.48,48.86 634.41,65.95C633.89,78.12 630.48,90.35 623.29,100.3C616.21,110.55 606.07,118.66 594.45,123.18C578.02,129.64 558.81,129.03 542.97,121.12C527.32,113.69 515.26,99.4 510.23,82.85C511.2,81.8 512.18,80.75 513.16,79.71C513.97,81.36 514.75,83.04 515.35,84.79C520.28,98.93 531.13,110.81 544.55,117.37C558.79,124.68 576.04,125.37 591,119.83C605.49,114.36 617.64,103 623.97,88.85C627.17,82.02 628.55,74.49 629.24,67.03C629.17,55.48 626.42,43.72 620.04,33.96C610.62,18.83 593.8,8.54 576.07,6.87C561.69,5.42 546.89,9.64 535.37,18.34C525.62,25.53 518.4,35.82 514.6,47.29C513.9,50.49 511.39,47.41 510.43,46.2C514.52,34.86 521.19,24.22 530.79,16.75Z" style="fill:#4472c3;fill-rule:nonzero;"/>
    </g>
</svg>
