<?xml version="1.0" encoding="UTF-8" standalone="no"?>
<!-- Creator: CorelDRAW -->

<svg
   xmlns:dc="http://purl.org/dc/elements/1.1/"
   xmlns:cc="http://creativecommons.org/ns#"
   xmlns:rdf="http://www.w3.org/1999/02/22-rdf-syntax-ns#"
   xmlns:svg="http://www.w3.org/2000/svg"
   xmlns="http://www.w3.org/2000/svg"
   xmlns:sodipodi="http://sodipodi.sourceforge.net/DTD/sodipodi-0.dtd"
   xmlns:inkscape="http://www.inkscape.org/namespaces/inkscape"
   xml:space="preserve"
   width="594.85388"
   height="260.11176"
   style="clip-rule:evenodd;fill-rule:evenodd;image-rendering:optimizeQuality;shape-rendering:geometricPrecision;text-rendering:geometricPrecision"
   viewBox="0 0 594.85388 245.24779"
   version="1.1"
   id="svg42"
   sodipodi:docname="Logo_Reliza2.svg"
   inkscape:version="0.92.4 (5da689c313, 2019-01-14)"><metadata
   id="metadata46"><rdf:RDF><cc:Work
       rdf:about=""><dc:format>image/svg+xml</dc:format><dc:type
         rdf:resource="http://purl.org/dc/dcmitype/StillImage" /><dc:title></dc:title></cc:Work></rdf:RDF></metadata><sodipodi:namedview
   pagecolor="#ffffff"
   bordercolor="#666666"
   borderopacity="1"
   objecttolerance="10"
   gridtolerance="10"
   guidetolerance="10"
   inkscape:pageopacity="0"
   inkscape:pageshadow="2"
   inkscape:window-width="2400"
   inkscape:window-height="1271"
   id="namedview44"
   showgrid="false"
   inkscape:zoom="0.70138889"
   inkscape:cx="64.23513"
   inkscape:cy="-72.526748"
   inkscape:window-x="1991"
   inkscape:window-y="-9"
   inkscape:window-maximized="1"
   inkscape:current-layer="Слой_x0020_1"
   fit-margin-top="0"
   fit-margin-left="0"
   fit-margin-right="0"
   fit-margin-bottom="0" />
 <defs
   id="defs26">
  <style
   type="text/css"
   id="style10">
   <![CDATA[
    .fil2 {fill:#191919}
    .fil0 {fill:#191919;fill-rule:nonzero}
    .fil1 {fill:#666666;fill-rule:nonzero}
    .fil4 {fill:url(#id0)}
    .fil3 {fill:url(#id1)}
   ]]>
  </style>
  <linearGradient
   id="id0"
   gradientUnits="userSpaceOnUse"
   x1="531.58502"
   y1="380.58701"
   x2="677.409"
   y2="380.58701"
   gradientTransform="translate(2.9072294,22.984019)">
   <stop
   offset="0"
   style="stop-color:#CC66FF"
   id="stop12" />
   <stop
   offset="0.560784"
   style="stop-color:#FFE378"
   id="stop14" />
   <stop
   offset="1"
   style="stop-color:#FF9482"
   id="stop16" />
  </linearGradient>
  <linearGradient
   id="id1"
   gradientUnits="userSpaceOnUse"
   x1="542.65601"
   y1="305.319"
   x2="380.44101"
   y2="283.30099"
   gradientTransform="translate(2.9072294,22.984019)">
   <stop
   offset="0"
   style="stop-color:#7070F7"
   id="stop19" />
   <stop
   offset="0.45098"
   style="stop-color:#99FFFF"
   id="stop21" />
   <stop
   offset="1"
   style="stop-color:#59FC84"
   id="stop23" />
  </linearGradient>
 </defs>
 <g
   id="Слой_x0020_1"
   transform="matrix(0.98082564,0,0,0.93047865,-74.397003,-218.43886)">
  <metadata
   id="CorelCorpID_0Corel-Layer" />
  <path
   class="fil0"
   d="m 124.84623,481.73702 h -9.0507 l -8.77385,-18.8233 c -0.66085,-1.42885 -1.33705,-2.62766 -2.02825,-3.58034 -0.69157,-0.93733 -1.42921,-1.68997 -2.22793,-2.24329 -0.79945,-0.55333 -1.65961,-0.95269 -2.6123,-1.19845 -0.937327,-0.2304 -1.997901,-0.35365 -3.165621,-0.35365 h -3.78002 v 26.199 h -8.02085 v -58.8361 h 15.749901 c 3.42674,0 6.37696,0.36864 8.83566,1.12165 2.45833,0.75301 4.47159,1.79785 6.05403,3.15026 1.56709,1.35205 2.71982,2.98057 3.45746,4.88631 0.73765,1.90537 1.10629,4.01042 1.10629,6.33088 0,1.82821 -0.27685,3.56462 -0.81445,5.19351 -0.53796,1.64389 -1.33669,3.11918 -2.39689,4.45586 -1.07557,1.33705 -2.39726,2.48942 -3.96471,3.47282 -1.58245,0.96805 -3.3803,1.70569 -5.42391,2.18185 1.64389,0.56869 3.04238,1.56745 4.2101,2.99666 1.15237,1.41349 2.33545,3.31886 3.5339,5.68539 l 9.31218,19.3609 z m -12.8307,-42.6712 c 0,-3.1499 -0.98341,-5.51643 -2.95022,-7.06816 -1.96681,-1.56745 -4.73271,-2.35118 -8.29769,-2.35118 h -7.560051 v 19.4531 h 6.46912 c 1.890011,0 3.595701,-0.21467 5.116711,-0.66048 1.52137,-0.43008 2.81198,-1.07557 3.87255,-1.92073 1.06021,-0.86053 1.89001,-1.92073 2.47369,-3.16526 0.58405,-1.24489 0.87589,-2.6741 0.87589,-4.28727 z m 84.0591,42.6712 h -33.4515 v -58.8361 h 33.4515 v 6.7456 h -25.4457 v 18.2396 h 24.4469 v 6.74523 h -24.4469 v 20.2679 h 25.4457 v 6.83776 z m 77.8821,0 h -33.8512 v -58.8361 h 8.14409 v 51.9984 h 25.7072 v 6.83776 z m 52.9894,-52.0905 h -13.5526 v -6.7456 h 35.2029 v 6.7456 h -13.5526 v 45.2528 h 13.5526 v 6.83776 h -35.2029 v -6.83776 h 13.5526 z m 99.8093,-0.44581 -30.0251,45.0684 h 30.6088 v 7.46789 h -40.6583 v -5.99259 l 30.2095,-45.56 h -29.395 v -7.28357 h 39.2602 v 6.29979 z m 81.2164,52.5363 h -8.74313 l -4.08722,-12.8304 h -24.4933 l -4.14903,12.8304 h -8.32841 l 19.5456,-58.8361 h 10.9868 l 19.2688,58.8361 z m -15.1355,-19.991 -9.94194,-31.4697 -9.95694,31.4697 h 19.8989 z"
   id="path29"
   inkscape:connector-curvature="0"
   style="fill:#191919;fill-rule:nonzero" />
  
  <path
   class="fil2"
   d="m 416.15123,383.66202 2.03447,-0.10496 0.66816,-1.99534 -1.0379,0.0519 -1.66473,2.04837 z m 14.4208,-15.3549 -2.21257,2.32704 75.8323,-14.5598 -5.40343,-0.86455 -68.2163,13.0973 z m -29.5036,20.706 -18.6043,-9.06569 -2.09664,1.00791 c 0.01,0.0739 -0.0197,0.19237 0.33061,0.34085 l 19.8543,9.67461 c 0.26551,0.0527 0.56722,-0.143 0.72265,-0.34853 l 0.9973,-1.05435 -1.20393,-0.55479 z m 111.325,-51.411 -2.43419,0.55771 10.2711,12.0766 c 0.14921,0.19273 0.24613,0.22748 0.38144,0.0143 l 1.18638,-1.72032 -9.40471,-10.9283 z m -0.88869,11.4842 -57.4113,-9.06679 -0.87515,1.90171 c -0.0472,0.12617 -0.006,0.17847 0.11447,0.27173 l 60.5681,9.58903 -2.39616,-2.69568 z m 43.5979,-27.2892 -9.60439,0.99547 -1.12494,2.26706 13.0235,-1.34875 -2.29413,-1.91378 z m -16.0132,1.7536 -33.1077,7.20274 -6.27712,-6.73317 -1.87831,0.86418 6.90981,8.50981 33.2208,-7.55273 1.13262,-2.29083 z m -24.4959,-14.7387 -18.9802,8.29074 c -0.80347,0.35072 -1.44823,0.20809 -1.65925,-0.0241 l -9.792,-10.8427 -0.8543,2.01728 c -0.0263,0.22455 0.002,0.43081 0.1152,0.60051 l 9.40288,10.3409 c 0.87625,1.18053 1.12128,0.85028 1.36155,0.77238 l 19.8031,-8.71534 0.60306,-2.43968 z m -65.6307,27.0647 -42.6701,-69.0575 -3.19195,-1.7141 44.9408,72.7172 0.92124,-1.9456 z m 75.7819,-45.8968 0.0176,0.0457 c 0.5131,-2.01362 0.88064,-3.14587 0.61952,-5.21179 l -14.0771,-45.289 c -0.57015,-1.88562 -3.4293,-2.10139 -4.55461,-0.70729 -0.37157,0.4608 -0.81006,1.46432 -0.86199,2.08347 1.52503,-1.47237 4.04041,-0.46043 4.62811,1.61719 l 14.024,45.6934 0.21614,1.70898 -0.0117,0.0592 z m -46.072,13.6704 1.03936,-2.45102 c -2.57317,-2.89207 -5.3493,-7.31794 -8.84114,-9.05691 l -73.7964,-40.226 c -2.4459,-0.69486 -4.27886,0.7808 -3.8027,3.24133 0.93367,-0.6773 1.95401,-1.01193 3.30752,-0.62647 l 73.4402,40.034 c 0.72558,0.36169 1.15383,0.67255 1.74775,1.22624 l 6.90542,7.85883 z m 41.3659,5.23776 26.8299,0.23515 c 1.44055,0.0563 2.31168,0.11667 3.33239,1.17065 l 17.5287,15.341 c 0.10972,0.11667 0.20992,0.23662 0.29843,0.35767 1.3184,-0.13202 2.24622,-0.8181 1.34949,-2.1237 -5.66345,-5.02784 -11.2578,-10.6214 -17.1615,-15.4181 -1.58318,-1.28695 -2.10213,-1.43945 -4.12379,-1.68155 l -27.4629,-0.24393 -0.59063,2.36288 z m -76.5414,33.3071 -70.987,34.1965 c -1.15785,0.77568 -1.52686,1.62011 -1.37801,2.9045 0.25527,-0.35657 0.59356,-0.66377 0.99621,-0.88649 l 72.2454,-34.8003 -0.87662,-1.41422 z"
   id="path33"
   inkscape:connector-curvature="0"
   style="fill:#191919" />
  <path
   class="fil3"
   d="m 418.18623,383.55702 -2.03483,0.10496 3.40114,-4.18487 z m 10.1742,-12.9232 21.4557,-22.5712 c 0.40887,-0.35438 0.56137,-0.36023 1.10373,-0.42862 l 53.2729,8.44032 -75.8323,14.5595 z m -27.0848,19.9885 c -0.21833,0.29001 -0.53248,0.40558 -0.72265,0.34853 l -20.006,-9.74848 c -0.13056,-0.10094 -0.15836,-0.10533 -0.17884,-0.26698 l 55.1292,-26.5022 -34.2217,36.1691 z m 119.337,-40.3712 c -0.17262,0.24357 -0.24247,0.14629 -0.44507,-0.0885 l -10.2075,-12.0031 22.3294,-4.84206 -11.6769,16.9337 z m -67.3331,-8.4853 17.8055,-38.1711 42.8167,48.1872 -60.5681,-9.58903 c -0.21029,-0.16311 -0.14153,-0.17737 -0.0541,-0.42715 z m 95.3805,-25.344 8.73728,7.28905 -13.0231,1.34912 4.28581,-8.63817 z m -5.14999,-1.80955 -5.55227,11.2289 -32.7197,7.05207 -7.41083,-8.00914 23.4708,-10.7933 22.3364,0.36133 -0.12434,0.16018 z m -24.3452,-24.2739 -4.31872,17.4574 -0.85467,3.456 -19.8027,8.71534 c -0.49811,0.17262 -0.66853,0.0315 -1.06935,-0.44361 l -9.69582,-10.6697 c -0.11667,-0.23077 -0.13203,-0.29989 -0.11264,-0.60745 l 24.4963,-56.1346 11.3203,36.7843 0.12617,0.99694 -0.0889,0.44544 z m -116.066,-25.2365 63.2642,34.0151 -18.3205,38.705 z m 102.051,-23.0883 -26.511,61.6046 -6.87067,-7.82629 c -0.59355,-0.55369 -1.02144,-0.86491 -1.74702,-1.22661 l -73.3886,-39.9876 c -2.90414,-0.9344 -5.34235,1.63694 -4.24082,4.53157 l 51.983,84.4997 -72.3171,34.7959 c -1.59634,0.88283 -2.03154,3.62167 -0.45019,4.9408 l 27.8115,13.6038 c 1.61463,0.7435 2.38117,1.01961 3.75808,-0.0406 l 6.92699,-7.17897 c 0.31853,-0.38693 0.46518,-0.49262 0.94317,-0.55333 l 10.4452,0.17115 c 0.74899,-0.11556 1.07813,-0.50944 1.29902,-1.17687 l 3.50903,-10.6825 c 0.12069,-0.34413 0.18359,-0.34011 0.51603,-0.4992 l 94.4607,-18.052 c 0.62134,-0.17188 0.94208,-0.41179 1.33486,-0.89197 l 18.2718,-26.6083 25.9591,-2.80869 c 1.70715,-0.25417 1.74446,-2.07982 0.88795,-2.99374 l -17.5291,-15.3406 c -1.02034,-1.05399 -1.89147,-1.11433 -3.33239,-1.17065 l -26.8295,-0.23516 4.62958,-18.5216 0.0881,-0.44544 -0.21577,-1.70935 -14.0244,-45.6931 c -0.69925,-2.47186 -4.12453,-3.43515 -5.36759,-0.50505 z"
   id="path35"
   inkscape:connector-curvature="0"
   style="fill:url(#id1)" />
  <path
   class="fil2"
   d="m 622.75423,438.90002 -50.0272,6.80485 -2.98715,2.96631 58.3409,-7.93563 -5.32663,-1.83552 z m -61.9604,6.78802 -10.0663,9.73458 -3.84329,-1.43067 -2.0363,1.21381 6.84544,2.64521 c 0.0695,0.0161 0.14117,0.0157 0.19163,-0.0336 l 17.6995,-17.393 c -2.93339,1.75909 -5.85143,3.51159 -8.79067,5.26373 z m 86.1502,-17.6786 -7.06523,7.04475 c 0.20846,0.33499 1.15785,2.39067 1.58208,1.9467 l 9.02327,-9.17979 -3.54011,0.18834 z m -14.6015,5.86203 -36.7598,-12.5967 c -0.27063,0.40229 -1.50528,1.6011 -0.63927,1.87867 l 39.0495,13.3811 -1.65047,-2.66313 z m 34.5523,-14.0193 -1.91525,-0.16018 -1.58281,2.21659 5.60055,0.46665 z m -11.4648,-0.68352 -24.8093,0.95378 1.50528,2.40859 24.2699,-0.93367 4.20059,-5.75707 -2.38263,-0.48676 -2.78382,3.81513 z m -50.2978,-26.4642 c -5.1573,7.68768 -10.7096,15.3249 -15.5513,23.2049 0.11557,0.28672 0.77897,2.62766 1.16187,2.10907 l 15.8687,-23.6507 c 0.0823,-0.30281 -0.0245,-0.51895 -0.18834,-0.64768 -0.40009,-0.31451 -0.80494,-0.63342 -1.29097,-1.01559 z m 21.832,16.0135 -2.71799,1.00389 1.19003,1.91707 2.02277,-0.77787 -7.46789,-32.3643 6.97307,30.2212 z m -14.0687,-17.1878 c -0.55479,-1.82894 -1.3323,-3.72114 -2.71141,-5.09111 l -8.34597,-6.59127 0.26185,2.85038 m -9.16407,-38.0054 -0.002,1.23794 c 0.8064,-2.61522 3.09723,-2.9173 4.9653,-1.66473 l 26.9144,30.1857 0.46665,0.9333 c -0.26368,-1.52503 -0.54711,-4.07808 -1.60841,-5.26738 l -25.227,-28.2902 c -2.41883,-1.61061 -5.50912,0.0154 -5.50912,2.86537 z m 2.61595,30.2749 -31.0605,-24.542 c -2.98825,-2.24146 -7.40206,0.0922 -5.96114,3.68201 l 0.47726,1.18857 c 0.34413,-2.74542 2.78565,-3.96398 5.2875,-2.16137 l 31.503,24.802 -0.2827,-3.35982 0.0366,0.39058 z m -2.59584,-27.8301 -0.0355,-0.38217 m -7.50446,74.368 -50.402,30.2537 c -1.18894,1.05765 -1.25769,3.25705 0.18797,4.34176 0.011,-0.6806 0.18067,-1.16773 0.58807,-1.65413 0.15909,-0.18981 0.27502,-0.2549 0.45715,-0.40887 l 49.8282,-29.88 c 0.58258,-0.44069 -0.4513,-2.13394 -0.65939,-2.65253 z m 93.1796,3.91899 c 0.90075,-0.79799 1.24014,-1.93243 0.14226,-3.43223 l -8.65207,-10.6423 c -1.56379,-1.91817 -3.78953,-2.46199 -6.09938,-2.84635 l -17.8911,-3.42345 c -1.07995,-0.15397 -1.72763,-0.0589 -2.80027,0.15579 l -10.6514,2.58706 0.57125,2.48686 11.046,-2.64521 c 0.95561,-0.23917 1.81175,-0.29659 2.80027,-0.15579 l 17.8911,3.42309 c 1.40142,0.28379 2.55525,0.51456 3.40261,1.72507 l 10.2407,12.7675 z"
   id="path37"
   inkscape:connector-curvature="0"
   style="fill:#191919" />
  <path
   class="fil4"
   d="m 569.73923,448.67102 20.6917,-20.5389 c 0.2048,-0.2048 0.49627,-0.19858 0.75154,-0.11118 l 36.8976,12.7144 -58.3409,7.93563 z m -17.8575,9.14834 c -0.045,0.0443 -0.11703,0.0497 -0.18907,0.0315 l -6.84544,-2.64485 c 8.25051,-4.91813 16.5003,-9.8421 24.7365,-14.7818 l -17.702,17.3952 z m 82.1105,-21.2849 z m 7.46789,0.46665 c -0.2293,0.24028 -0.29221,0.094 -0.46702,-0.15579 l -5.1339,-8.24649 14.6242,-0.77788 c -3.0325,3.0325 -6.01746,6.12059 -9.02327,9.18016 z m -46.8286,-14.3148 16.0241,-23.8065 23.3366,37.6547 c -13.0165,-4.46025 -26.033,-8.92087 -39.0495,-13.3811 -0.22857,-0.0461 -0.36791,-0.17079 -0.31122,-0.46702 z m 68.7649,-0.77787 2.33326,-3.26802 c 0.0424,-0.0454 0.0947,-0.0428 0.15579,0 l 3.11113,3.73467 z m -7.00123,-0.31123 -24.2699,0.93367 -3.11113,-4.9792 -0.26405,-0.50578 16.4436,-4.0064 c 0.32622,-0.0819 0.59758,-0.15579 0.93331,-0.15579 l 14.4688,2.95643 -4.20059,5.75707 z m -87.7447,-57.5707 37.7746,29.6953 c 0.20809,0.2081 0.24357,0.36023 0.18578,0.64586 -5.28969,7.88334 -10.5794,15.7667 -15.8687,23.6507 -0.10423,0.14372 -0.20809,0.12653 -0.31122,0 l -21.7805,-53.9919 z m 0,0 z m 30.9595,-9.02473 19.6027,21.9392 0.62208,0.77788 0.15579,0.77787 7.46752,32.3643 -2.0224,0.77788 -11.9793,-19.294 c -0.28854,-0.43264 -0.56356,-0.87443 -0.93366,-1.24453 l -10.4232,-8.40229 -2.33399,-25.0511 -0.15543,-2.64521 z m -6.69001,-9.02437 v 0.77788 l 2.80064,30.0299 0.0768,1.15163 -31.503,-24.802 c -2.2645,-1.69874 -4.91557,-0.81774 -5.28969,2.17856 9.0752,22.6128 18.1504,45.2264 27.2256,67.84 0.11154,0.25783 0.0399,0.45934 -0.15543,0.62244 l -49.6344,29.7534 c -1.94816,1.16736 -1.36082,3.80233 0.16128,4.94409 l 13.8463,5.13463 c 2.10907,0.70254 3.15721,0.47178 4.82304,-0.77787 l 4.82231,1.08946 c 1.57147,0 2.33801,-0.16018 3.42309,-1.24489 l 4.20059,-7.77984 72.4981,-9.95803 c 0.96695,-0.13787 1.7525,-0.19712 2.48905,-0.93403 l 16.1799,-16.493 14.7566,0.93037 c 2.03447,0 6.67538,0.38803 5.18363,-3.10528 l -10.4499,-13.0736 c -0.89271,-1.1904 -1.99205,-1.42885 -3.42272,-1.71154 l -17.8911,-3.42309 c -0.97682,-0.13897 -1.85454,-0.0808 -2.80064,0.1558 l -11.0457,2.64521 -7.93454,-34.5428 -0.46665,-0.93331 -26.9144,-30.1857 c -2.15406,-1.4347 -4.31543,-0.60854 -4.97883,1.71154 z"
   id="path39"
   inkscape:connector-curvature="0"
   style="fill:url(#id0)" />
 </g>
</svg>