<?xml version="1.0" encoding="UTF-8" standalone="no"?>
<!DOCTYPE svg PUBLIC "-//W3C//DTD SVG 1.1//EN" "http://www.w3.org/Graphics/SVG/1.1/DTD/svg11.dtd">
<svg width="100%" height="100%" viewBox="0 0 600 120" version="1.1" xmlns="http://www.w3.org/2000/svg" xmlns:xlink="http://www.w3.org/1999/xlink" xml:space="preserve" xmlns:serif="http://www.serif.com/" style="fill-rule:evenodd;clip-rule:evenodd;stroke-linejoin:round;stroke-miterlimit:2;">
    <g transform="matrix(1,0,0,1,-21,-261.5)">
        <path d="M48.4,310C45.6,310 43.1,310.2 40.9,310.7C38.8,311.2 37,311.7 35.6,312.2C34.2,312.8 33.1,313.3 32.2,313.9C31.4,314.5 30.9,314.8 30.7,315L30.7,378.4L21,378.4L21,310.5C21.3,310.3 22,309.7 23.3,308.8C24.5,307.8 26.3,306.8 28.6,305.8C30.9,304.7 33.7,303.8 36.9,302.9C40.2,302 43.9,301.6 48.2,301.6C53.2,301.6 56.9,301.9 59.5,302.6C62,303.3 63.8,304 64.9,304.8C66.5,305.8 67.2,307.2 67.2,309C67.2,310.1 67,311.1 66.5,312C66,312.9 65.5,313.6 65,314C63.8,313.2 61.9,312.3 59.1,311.4C56.3,310.5 52.8,310 48.4,310M82,338.7C82.1,335.2 82.8,331.7 84,328.2C85.2,324.7 87,321.6 89.2,318.9C91.4,316.2 94.2,314 97.5,312.2C100.8,310.5 104.6,309.6 108.9,309.6C112.7,309.6 115.9,310.1 118.6,311.2C121.3,312.3 123.4,313.6 125,315.4C126.6,317.1 127.8,319.1 128.5,321.4C129.2,323.7 129.6,326 129.6,328.4C129.6,332.6 128.5,335.4 126.5,336.7C124.4,338 121.4,338.7 117.5,338.7L82,338.7ZM121.5,346.8C127.7,346.8 132.3,345.3 135,342.3C137.8,339.3 139.2,335.1 139.2,329.7C139.2,320.8 136.6,313.9 131.4,309C126.2,304.1 118.7,301.6 108.7,301.6C103.4,301.6 98.5,302.6 93.9,304.6C89.3,306.6 85.4,309.4 82,313.1C78.7,316.7 76.1,321.1 74.2,326.1C72.3,331.1 71.3,336.7 71.3,342.7C71.3,349 72.3,354.4 74.2,359.1C76.2,363.8 78.8,367.7 82.1,370.9C85.4,374.1 89.3,376.5 93.8,378.1C98.3,379.7 103.1,380.5 108.3,380.5C111.6,380.5 114.7,380.2 117.6,379.7C120.5,379.1 123.1,378.5 125.4,377.7C127.7,376.9 129.6,376.1 131.3,375.3C132.9,374.4 134.1,373.8 134.9,373.3L131,365.9C129.2,367 126.5,368.2 122.7,369.6C118.9,371 114.6,371.6 109.8,371.6C101.6,371.6 95.2,369.6 90.6,365.6C86,361.6 83.2,355.3 82.2,346.8L121.5,346.8ZM149.9,317.4C151.2,320.6 153,324.8 155.2,330C157.5,335.1 160,340.6 162.7,346.3C165.4,352 168.2,357.8 171,363.5C173.8,369.2 176.4,374.2 178.6,378.4L189.3,378.4C191,375.3 192.8,371.6 194.9,367.5C196.9,363.4 199,359 201.2,354.5C203.3,350 205.5,345.3 207.6,340.6C209.7,335.9 211.7,331.3 213.5,327C215.3,322.7 216.9,318.7 218.3,315.1C219.7,311.5 220.8,308.4 221.4,306C221.2,305.8 220.6,305.4 219.7,304.7C218.8,304 217.6,303.7 216.1,303.7C214.4,303.7 213.3,304.1 212.6,304.8C211.9,305.6 211.4,306.3 211.1,307C209.3,311.5 207.3,316.7 205,322.4C202.7,328.1 200.2,333.9 197.8,339.7C195.3,345.5 192.9,351 190.5,356.3C188.1,361.5 186,366 184.1,369.6C182.2,365.7 180.2,361.2 177.8,356.2C175.5,351.2 173,345.9 170.4,340.2C167.8,334.6 165.3,328.7 162.7,322.6C160.2,316.5 157.8,310.4 155.7,304.4C155.5,304.3 155.1,304.1 154.5,303.9C153.9,303.7 153,303.6 151.9,303.6C150.1,303.6 148.9,304.1 148.1,305C147.3,306 146.9,307.1 146.9,308.6C146.9,309.7 147.2,311.2 147.9,313C148.9,314.8 149.4,316.3 149.9,317.4M237.2,338.7C237.3,335.2 238,331.7 239.2,328.2C240.4,324.7 242.2,321.6 244.4,318.9C246.6,316.2 249.4,314 252.7,312.2C256,310.5 259.8,309.6 264.1,309.6C267.9,309.6 271.1,310.1 273.8,311.2C276.5,312.3 278.6,313.6 280.2,315.4C281.8,317.1 283,319.1 283.7,321.4C284.4,323.7 284.8,326 284.8,328.4C284.8,332.6 283.7,335.4 281.7,336.7C279.6,338 276.6,338.7 272.7,338.7L237.2,338.7ZM276.7,346.8C282.9,346.8 287.5,345.3 290.2,342.3C293,339.3 294.4,335.1 294.4,329.7C294.4,320.8 291.8,313.9 286.6,309C281.4,304.1 273.9,301.6 263.9,301.6C258.6,301.6 253.7,302.6 249.1,304.6C244.5,306.6 240.6,309.4 237.2,313.1C233.9,316.7 231.3,321.1 229.4,326.1C227.5,331.1 226.5,336.7 226.5,342.7C226.5,349 227.5,354.4 229.4,359.1C231.4,363.8 234,367.7 237.3,370.9C240.6,374.1 244.5,376.5 249,378.1C253.5,379.7 258.3,380.5 263.5,380.5C266.8,380.5 269.9,380.2 272.8,379.7C275.7,379.1 278.3,378.5 280.6,377.7C282.9,376.9 284.8,376.1 286.5,375.3C288.1,374.4 289.3,373.8 290.1,373.3L286.2,365.9C284.4,367 281.7,368.2 277.9,369.6C274.1,371 269.8,371.6 265,371.6C256.8,371.6 250.4,369.6 245.8,365.6C241.2,361.6 238.4,355.3 237.4,346.8L276.7,346.8ZM376.6,378.4L376.6,332.1C376.6,327.7 375.8,323.6 374.3,319.8C372.7,316.1 370.5,312.8 367.6,310.1C364.7,307.4 361.1,305.3 356.9,303.7C352.7,302.2 347.9,301.4 342.6,301.4C338.1,301.4 334,301.7 330.3,302.2C326.6,302.8 323.4,303.4 320.6,304.1C317.9,304.8 315.7,305.5 314.1,306.1C312.5,306.8 311.5,307.1 311.2,307.2L311.2,378.1L320.9,378.1L320.9,313.8C321.2,313.7 321.9,313.4 322.9,313C323.9,312.5 325.3,312.1 327.1,311.6C328.9,311.1 330.9,310.7 333.3,310.4C335.7,310 338.3,309.9 341.3,309.9C350.4,309.9 356.9,312.2 361,316.8C365,321.4 367.1,327.9 367.1,336.4L367.1,378.1L376.6,378.1L376.6,378.4ZM404.2,338.7C404.3,335.2 405,331.7 406.2,328.2C407.4,324.7 409.2,321.6 411.4,318.9C413.6,316.2 416.4,314 419.7,312.2C423,310.5 426.8,309.6 431.1,309.6C434.9,309.6 438.1,310.1 440.8,311.2C443.5,312.3 445.6,313.6 447.2,315.4C448.8,317.1 450,319.1 450.7,321.4C451.4,323.7 451.8,326 451.8,328.4C451.8,332.6 450.7,335.4 448.7,336.7C446.6,338 443.6,338.7 439.7,338.7L404.2,338.7ZM443.7,346.8C449.9,346.8 454.5,345.3 457.2,342.3C460,339.3 461.4,335.1 461.4,329.7C461.4,320.8 458.8,313.9 453.6,309C448.4,304.1 440.9,301.6 430.9,301.6C425.6,301.6 420.7,302.6 416.1,304.6C411.5,306.6 407.6,309.4 404.2,313.1C400.9,316.7 398.3,321.1 396.4,326.1C394.5,331.1 393.5,336.7 393.5,342.7C393.5,349 394.5,354.4 396.4,359.1C398.4,363.8 401,367.7 404.3,370.9C407.6,374.1 411.5,376.5 416,378.1C420.5,379.7 425.3,380.5 430.5,380.5C433.8,380.5 436.9,380.2 439.8,379.7C442.7,379.1 445.3,378.5 447.6,377.7C449.9,376.9 451.8,376.1 453.5,375.3C455.1,374.4 456.3,373.8 457.1,373.3L453.2,365.9C451.4,367 448.7,368.2 444.9,369.6C441.1,371 436.8,371.6 432,371.6C423.8,371.6 417.4,369.6 412.8,365.6C408.2,361.6 405.4,355.3 404.4,346.8L443.7,346.8ZM505.5,310C509.9,310 513.5,310.5 516.3,311.4C519.1,312.3 521.1,313.2 522.2,314C522.7,313.6 523.2,312.9 523.7,312C524.2,311.1 524.4,310.1 524.4,309C524.4,307.2 523.6,305.8 522.1,304.8C521,304 519.2,303.3 516.7,302.6C514.2,301.9 510.4,301.6 505.4,301.6C501.1,301.6 497.3,302 494.1,302.9C490.8,303.8 488,304.7 485.8,305.8C483.5,306.9 481.8,307.9 480.5,308.8C479.3,309.8 478.5,310.3 478.2,310.5L478.2,378.4L487.9,378.4L487.9,315C488.1,314.8 488.6,314.4 489.4,313.9C490.2,313.3 491.4,312.8 492.8,312.2C494.2,311.6 496,311.1 498.1,310.7C500.2,310.2 502.7,310 505.5,310M584.3,370.5C583.2,370.9 581.1,371.4 577.9,371.9C574.7,372.4 570,372.7 563.7,372.7C554.6,372.7 548.3,371.3 544.8,368.6C541.3,365.9 539.5,361.8 539.5,356.3C539.5,350.1 541.6,345.7 545.9,343.3C550.2,340.9 556,339.7 563.3,339.7C565.3,339.7 567.5,339.8 569.8,339.9C572.1,340 574.2,340.1 576.2,340.3C578.1,340.4 579.9,340.6 581.3,340.8C582.8,341 583.7,341.1 584.2,341.2L584.2,370.5L584.3,370.5ZM559,309.8C568.1,309.8 574.6,311.7 578.5,315.5C582.4,319.3 584.4,324.8 584.4,332.1L584.4,332.4C583.5,332.4 582.3,332.4 580.7,332.3C579.1,332.2 577.4,332.1 575.4,332C573.4,331.9 571.4,331.8 569.1,331.7C566.9,331.6 564.7,331.6 562.5,331.6C556.2,331.6 550.9,332.2 546.6,333.5C542.4,334.8 539,336.5 536.5,338.8C534,341.1 532.3,343.7 531.2,346.7C530.2,349.7 529.7,352.9 529.7,356.4C529.7,359.1 530,361.9 530.7,364.8C531.4,367.7 532.9,370.3 535.2,372.6C537.5,374.9 540.9,376.8 545.4,378.3C549.8,379.8 555.8,380.6 563.3,380.6C571.2,380.6 577.5,380.3 582.3,379.8C587.1,379.2 590.9,378.7 593.7,378.2L593.7,333C593.7,322 590.7,314 584.8,309.1C578.8,304.2 570,301.7 558.3,301.7C552.6,301.7 548.3,302.2 545.4,303.2C542.5,304.2 540.5,305.1 539.5,305.9C538.7,306.5 538.1,307.2 537.5,308C537,308.8 536.7,309.8 536.7,310.9C536.7,312 537,313 537.5,314C538,315 538.6,315.7 539.3,316.2C540.6,315 542.7,313.7 545.8,312.2C549.2,310.6 553.5,309.8 559,309.8M608.1,367L600.2,367L600.2,368.4L603.4,368.4L603.4,378.3L604.9,378.3L604.9,368.4L608.1,368.4L608.1,367ZM621,367L618.8,367L615.5,375.9L612.2,367L610,367L610,378.3L611.4,378.3L611.4,368.9L614.9,378.3L615.9,378.3L619.4,368.9L619.4,378.3L620.9,378.3L620.9,367L621,367Z" style="fill:rgb(50,62,72);fill-rule:nonzero;"/>
    </g>
    <g transform="matrix(1,0,0,1,-21,-261.5)">
        <path d="M392.4,261.5C390.7,264.6 387.1,273.2 386.4,288.5L386.4,316.3C386.4,316.4 386.5,316.6 386.5,316.7C388.7,312.3 391.5,308.3 394.7,304.8C399.4,299.7 405,295.6 411.5,292.8C417.9,290 424.8,288.6 432,288.6L433.1,288.6C424.6,273.8 409.8,263.5 392.4,261.5" style="fill:rgb(30,214,95);fill-rule:nonzero;"/>
    </g>
    <g transform="matrix(1,0,0,1,-21,-261.5)">
        <path d="M380.5,261.5C382.2,264.6 385.8,273.2 386.5,288.5L386.5,316.3C386.5,316.4 386.4,316.6 386.4,316.7C384.2,312.3 381.4,308.3 378.2,304.8C373.5,299.7 367.9,295.6 361.4,292.8C355,290 348.1,288.6 340.9,288.6L339.8,288.6C348.3,273.8 363.2,263.5 380.5,261.5" style="fill:rgb(137,238,70);fill-rule:nonzero;"/>
    </g>
</svg>
