<?xml version="1.0" encoding="utf-8"?>
<!-- Generator: Adobe Illustrator 22.0.1, SVG Export Plug-In . SVG Version: 6.00 Build 0)  -->
<svg version="1.1" id="Layer_1" xmlns="http://www.w3.org/2000/svg" xmlns:xlink="http://www.w3.org/1999/xlink" x="0px" y="0px"
	 width="214.60001px" height="22.6px" viewBox="0 0 214.60001 22.6" enable-background="new 0 0 214.60001 22.6"
	 xml:space="preserve">
<g>
	<polygon fill="#F6143F" points="148.89999,22.2 148.89999,0.4 153,0.4 153,18.7 162.8,18.7 162.2,22.2 	"/>
	<g>
		<path fill="#F6143F" d="M176.10001,22.2l-1.89999-6.1h-7l-1.89999,6.1h-4.2l6.60001-21.7h6.10001l6.60001,21.7H176.10001z
			 M170.89999,3.3h-0.3l-2.60001,9.4h5.39999L170.89999,3.3z"/>
		<path fill="#F6143F" d="M187.7,22.3c-2.5,0-3.5-0.1-6.3-0.2V0.4c2.89999-0.1,3.89999-0.2,6.39999-0.2c5.8,0,9.39999,1,9.39999,5.9
			v0.3c0,1.9-0.8,3.7-2.7,4.6c2,0.8,2.89999,2.7,2.89999,4.6v0.3C197.3,21.3,193.3,22.3,187.7,22.3 M193.2,6.3
			c0-2.5-2-2.7-5.39999-2.7h-2.39999v5.9h3.7c3.39999,0,4.2-1.1,4.2-2.9V6.3H193.2z M193.3,15.6c0-1.9-0.89999-3.1-4.2-3.1h-3.7V19
			h1.10001c4.39999,0,6.8,0,6.8-3.1L193.3,15.6L193.3,15.6z"/>
		<path fill="#F6143F" d="M206.89999,22.6c-2.8,0-5.8-0.4-6.8-0.7v-3.1c1.8,0.2,3.8,0.3,6.5,0.3c2.60001,0,3.89999-0.7,3.89999-2.7
			c0-1.4-0.60001-2.2-2.7-3.1l-3.3-1.3c-3.2-1.3-4.89999-3.2-4.89999-6.3c0-4.2,2.60001-5.7,7.8-5.7c2.7,0,5.3,0.4,6.39999,0.7v3.1
			c-1.7-0.1-3.89999-0.4-6.2-0.4c-2.5,0-3.89999,0.4-3.89999,2.2c0,1.3,0.60001,2,2.8,2.9l3,1.2c3.8,1.5,5.3,3.1,5.3,6.8
			C214.60001,20.4,211.8,22.6,206.89999,22.6"/>
		<path d="M0,22.2l5.1-8.9c-2.3-1-3.7-2.7-3.7-6V7.1c0-5.7,4.3-6.8,9.6-6.8c2.2,0,4.2,0.1,6.1,0.1v21.7h-4v-8h-2c-0.7,0-1.3,0-1.9,0
			l-4.8,8H0V22.2z M5.4,7.3c0,2.8,1.7,3.6,5.4,3.6c0.8,0,1.5,0,2.3,0V3.7c-5.3,0-7.7,0-7.7,3.4C5.4,7.1,5.4,7.3,5.4,7.3z"/>
		<polygon points="19.7,22.2 19.7,0.4 33.6,0.4 33.6,3.8 23.8,3.8 23.8,9.4 33,9.4 33,12.6 23.8,12.6 23.8,18.8 33.6,18.8 
			33.6,22.2 		"/>
		<path d="M44.9,22.2h-6L32.4,0.4h4.2L41,15.5c0.4,1.3,0.6,2.8,0.9,3.9H42c0.2-1.2,0.5-2.6,0.9-3.9l4.5-15.1h4.1L44.9,22.2z"/>
		<polygon points="52.6,22.2 52.6,0.4 66.4,0.4 66.4,3.8 56.7,3.8 56.7,9.4 65.8,9.4 65.8,12.6 56.7,12.6 56.7,18.8 66.4,18.8 
			66.4,22.2 		"/>
		<path d="M81.5,22.2l-4.8-8c-0.6,0-1.2,0-1.9,0h-2v8h-4V0.4c1.9-0.1,3.9-0.1,6.1-0.1c5.2,0,9.6,1.1,9.6,6.8v0.2c0,3.3-1.4,5-3.7,6
			l5.1,8.9H81.5z M80.4,7.1c0-3.4-2.3-3.4-7.7-3.4v7.1c0.8,0,1.5,0,2.3,0C78.7,10.8,80.4,10,80.4,7.1C80.4,7.2,80.4,7.1,80.4,7.1z"
			/>
		<path d="M93.7,22.6c-2.8,0-5.8-0.4-6.8-0.7v-3.1c1.8,0.2,3.8,0.3,6.5,0.3c2.6,0,3.9-0.7,3.9-2.7c0-1.4-0.6-2.2-2.7-3.1L91.3,12
			c-3.2-1.3-4.9-3.2-4.9-6.3C86.4,1.5,89,0,94.2,0c2.8,0,5.3,0.4,6.4,0.7v3.1c-1.7-0.1-3.9-0.4-6.2-0.4c-2.5,0-3.9,0.4-3.9,2.2
			c0,1.3,0.6,2,2.8,2.9l3,1.2c3.8,1.5,5.3,3.1,5.3,6.8C101.4,20.4,98.6,22.6,93.7,22.6"/>
		<rect x="103.2" y="0.4" width="4.1" height="21.7"/>
		<path d="M122.7,22.2l-7-12.9c-0.5-1-1.1-2.2-1.6-3.2H114c0.1,1.2,0.1,2.6,0.1,3.9v12.3h-3.7V0.4h4.7L122,13c0.5,1,1.2,2.3,1.7,3.3
			h0.1c-0.1-1.3-0.1-2.8-0.1-4.1V0.4h3.8v21.7h-4.8V22.2z"/>
		<path d="M138.89999,22.6c-5,0-9.10001-1.9-9.10001-9.8v-3c0-8.3,4.7-9.8,9.2-9.8c3.2,0,6.3,0.5,7,0.7v3.1
			c-1.39999-0.1-4.8-0.3-6.3-0.3c-3.5,0-5.8,0.8-5.8,6.2v3.1c0,5,1.8,6.2,5.3,6.2c1.10001,0,2.2,0,2.89999-0.1v-5.3h-1.7v-3.1
			h5.60001V22C144.8,22.2,142,22.6,138.89999,22.6"/>
	</g>
</g>
</svg>
