<?xml version="1.0" encoding="UTF-8" standalone="no"?>
<!DOCTYPE svg PUBLIC "-//W3C//DTD SVG 1.1//EN" "http://www.w3.org/Graphics/SVG/1.1/DTD/svg11.dtd">
<svg xmlns="http://www.w3.org/2000/svg" width="200" height="54" viewBox="0 0 200 54"><g fill="none" fill-rule="evenodd"><path fill="#406BB4" d="M23.33,32.13 C17.04,33.24 14.44,40.82 18.67,45.56 L19.07,45.98 C21.46,48.45 24.05,50.74 26.8,52.81 L26.81,52.81 C29.31,50.93 31.66,48.88 33.86,46.68 C29.56,45.75 25.52,43.76 22.18,40.95 C19.1,38.36 19.9,33.69 23.33,32.13 L23.33,32.13 Z"></path> <path fill="#84CEBC" d="M27.7,32.16 C30.73,33.57 31.71,37.5 29.57,40.17 C28.6,41.38 27.15,42.09 25.63,42.13 C28.19,42.11 30.62,41.59 32.84,40.66 C35.27,39.64 37.44,38.35 38.6,35.86 C40.38,32.05 38.84,27.55 35.18,25.59 L1.38,9.67 C1.91,13.57 2.79,17.35 3.98,21 L27.7,32.16 L27.7,32.16 Z"></path> <path fill="#406BB4" d="M35.58 3.45C35.64 4.27 35.9 5.06 36.32 5.76L36.42 5.91C36.93 6.7 37.67 7.36 38.58 7.78 38.27 7.95 37.97 8.16 37.71 8.4 37.27 8.8 36.9 9.29 36.63 9.86 35.57 12.13 36.55 14.83 38.83 15.89L40.75 16.79 40.77 16.8C42.14 17.45 43.31 18.37 44.23 19.48 44.16 19.09 44.07 18.7 43.97 18.31 43.78 17.58 43.56 16.88 43.29 16.19 43.24 16.08 43.19 15.96 43.15 15.84L43.08 15.66 43.1 15.65C42.92 14.95 42.99 14.23 43.26 13.6 43.56 12.92 44.09 12.35 44.81 12.01 44.96 11.94 45.12 11.88 45.28 11.83 46.74 11.41 48.33 12.11 48.99 13.53 49.16 13.89 49.25 14.28 49.28 14.65 49.45 14.43 49.6 14.2 49.73 13.93 50.54 12.19 49.8 10.14 48.08 9.31L48.03 9.29 48.02 9.29 43.82 7.31 38.65 4.88 38.62 4.87C37 4.1 36.06 2.49 36.06.81L36.05.83C35.66 1.68 35.51 2.58 35.58 3.45L35.58 3.45zM1.06 6.72L13.43 12.54 36.33 23.32C39.49 24.9 41.56 28.24 41.84 31.69 43.1 30.43 43.9 28.75 44.09 26.97 44.43 23.76 42.75 20.54 39.68 19.07L39.58 19.02.8.76C.79 2.78.88 4.76 1.06 6.72L1.06 6.72zM72.05 30.12C72.75 30.59 73.38 31.12 73.94 31.72 73.25 32.68 72.67 33.71 72.2 34.81 71.94 35.42 71.72 36.05 71.54 36.69 71.23 36.01 70.82 35.41 70.3 34.9 69.76 34.36 69.13 33.93 68.41 33.62 67.7 33.31 66.93 33.15 66.12 33.15 65.31 33.15 64.54 33.31 63.81 33.62 63.07 33.93 62.44 34.36 61.92 34.9 61.39 35.44 60.96 36.08 60.65 36.81 60.34 37.54 60.18 38.31 60.18 39.12L60.18 48.06 60.18 53.14 55.38 53.14 55.38 39.12 55.38 28.36 60.18 28.36 60.22 30.13C61.06 29.57 61.98 29.14 62.99 28.83 64 28.52 65.05 28.36 66.13 28.36 67.22 28.36 68.27 28.52 69.28 28.83 70.28 29.13 71.21 29.57 72.05 30.12L72.05 30.12zM87.97 42.51L78.61 42.51C78.8 43.35 79.11 44.13 79.56 44.86 80.01 45.59 80.56 46.22 81.21 46.75 81.86 47.28 82.59 47.69 83.4 47.98 84.21 48.28 85.06 48.42 85.96 48.42 87.05 48.42 88.06 48.2 89.01 47.77 89.96 47.34 90.79 46.73 91.5 45.95L92.38 45.95 97.13 45.95C96.94 46.42 96.72 46.86 96.45 47.28 96.19 47.7 95.9 48.11 95.59 48.51 94.47 49.94 93.07 51.08 91.4 51.93 89.72 52.78 87.91 53.21 85.95 53.21 84.24 53.21 82.64 52.89 81.15 52.26 79.66 51.62 78.36 50.75 77.24 49.63 76.12 48.51 75.24 47.21 74.61 45.72 73.97 44.23 73.66 42.63 73.66 40.92 73.66 39.21 73.98 37.61 74.61 36.12 75.25 34.63 76.12 33.33 77.24 32.21 78.36 31.09 79.66 30.21 81.15 29.58 82.64 28.94 84.24 28.63 85.95 28.63 87.91 28.63 89.72 29.06 91.4 29.91 93.08 30.76 94.47 31.92 95.59 33.38 96.61 34.62 97.36 36.08 97.83 37.76 98.11 38.75 98.25 39.81 98.25 40.93 98.25 41.49 98.2 42.02 98.11 42.51L93.27 42.51 87.97 42.51 87.97 42.51zM85.97 33.43C84.45 33.43 83.09 33.82 81.89 34.6 80.69 35.38 79.79 36.42 79.17 37.71L90.02 37.71 92.77 37.71C92.61 37.46 92.47 37.22 92.33 36.97 92.19 36.72 92.04 36.5 91.89 36.28 91.18 35.39 90.31 34.69 89.28 34.18 88.25 33.69 87.15 33.43 85.97 33.43L85.97 33.43zM162.82 28.59C164.53 28.59 166.13 28.91 167.62 29.54 169.11 30.18 170.42 31.05 171.53 32.17 172.65 33.29 173.52 34.59 174.16 36.08 174.8 37.57 175.11 39.17 175.11 40.88 175.11 42.59 174.79 44.19 174.16 45.68 173.52 47.17 172.65 48.47 171.53 49.59 170.41 50.71 169.11 51.59 167.62 52.22 166.13 52.86 164.53 53.17 162.82 53.17 161.11 53.17 159.51 52.85 158.02 52.22 156.53 51.58 155.22 50.71 154.11 49.59 153 48.47 152.12 47.17 151.48 45.68 150.84 44.19 150.53 42.59 150.53 40.88 150.53 39.17 150.85 37.57 151.48 36.08 152.12 34.59 152.99 33.29 154.11 32.17 155.23 31.05 156.53 30.17 158.02 29.54 159.51 28.91 161.11 28.59 162.82 28.59L162.82 28.59zM162.84 48.38C163.86 48.38 164.83 48.19 165.74 47.8 166.65 47.41 167.45 46.88 168.13 46.19 168.81 45.51 169.34 44.71 169.73 43.79 170.12 42.87 170.31 41.9 170.31 40.88 170.31 39.86 170.12 38.88 169.73 37.97 169.34 37.05 168.81 36.25 168.13 35.57 167.45 34.89 166.65 34.35 165.74 33.96 164.82 33.57 163.86 33.38 162.84 33.38 161.82 33.38 160.85 33.57 159.94 33.96 159.03 34.35 158.23 34.88 157.55 35.57 156.87 36.25 156.33 37.05 155.93 37.97 155.53 38.89 155.32 39.86 155.32 40.88 155.32 41.9 155.52 42.88 155.93 43.79 156.33 44.71 156.87 45.51 157.55 46.19 158.23 46.87 159.03 47.41 159.94 47.8 160.85 48.19 161.82 48.38 162.84 48.38L162.84 48.38zM194.41 30.22C195.88 31.21 197.06 32.49 197.92 34.06 198.78 35.63 199.21 37.34 199.21 39.21L199.21 53.23 194.41 53.23 194.41 48.15 194.41 39.21C194.41 38.4 194.25 37.63 193.94 36.9 193.63 36.17 193.19 35.53 192.65 34.99 192.11 34.45 191.48 34.02 190.76 33.71 190.05 33.4 189.28 33.24 188.47 33.24 187.66 33.24 186.89 33.4 186.16 33.71 185.42 34.02 184.79 34.45 184.27 34.99 183.74 35.53 183.32 36.17 183 36.9 182.69 37.63 182.53 38.4 182.53 39.21L182.53 48.15 182.53 53.23 177.73 53.23 177.73 39.21 177.73 28.45 182.53 28.45 182.57 30.22C183.41 29.66 184.33 29.23 185.34 28.92 186.35 28.61 187.4 28.45 188.48 28.45 189.56 28.45 190.62 28.61 191.63 28.92 192.65 29.22 193.58 29.66 194.41 30.22L194.41 30.22z"></path> <polygon fill="#406BB4" points="143.1 28.59 147.9 28.59 147.9 53.23 143.1 53.23"></polygon> <polygon fill="#406BB4" points="133.46 53.23 133.46 21.27 138.25 21.27 138.25 53.23"></polygon> <polygon fill="#406BB4" points="123.82 28.59 128.61 28.59 128.61 53.23 123.82 53.23"></polygon> <polygon fill="#406BB4" points="119.89 28.63 116.96 33.38 107.73 48.43 119.89 48.43 119.89 53.23 104.8 53.23 99.21 53.23 102.14 48.48 111.37 33.43 99.21 33.43 99.21 28.59 114.3 28.59 119.89 28.59"></polygon> <polygon fill="#84CEBC" points="128.61 21.27 123.82 21.27 128.61 26.07"></polygon> <polygon fill="#84CEBC" points="147.9 21.27 143.1 21.27 147.9 26.07"></polygon></g></svg>