<?xml version="1.0" encoding="UTF-8" standalone="no"?>
<!-- Generator: Adobe Illustrator 25.0.0, SVG Export Plug-In . SVG Version: 6.00 Build 0)  -->

<svg
   version="1.1"
   id="Layer_1"
   x="0px"
   y="0px"
   viewBox="0 0 243.59 61.849998"
   xml:space="preserve"
   sodipodi:docname="rkvst.svg"
   width="243.59"
   height="61.849998"
   inkscape:version="1.1.1 (c3084ef, 2021-09-22)"
   xmlns:inkscape="http://www.inkscape.org/namespaces/inkscape"
   xmlns:sodipodi="http://sodipodi.sourceforge.net/DTD/sodipodi-0.dtd"
   xmlns="http://www.w3.org/2000/svg"
   xmlns:svg="http://www.w3.org/2000/svg"><defs
   id="defs23" /><sodipodi:namedview
   id="namedview21"
   pagecolor="#ffffff"
   bordercolor="#666666"
   borderopacity="1.0"
   inkscape:pageshadow="2"
   inkscape:pageopacity="0.0"
   inkscape:pagecheckerboard="0"
   showgrid="false"
   inkscape:zoom="1.9805556"
   inkscape:cx="121.93548"
   inkscape:cy="30.546985"
   inkscape:window-width="1296"
   inkscape:window-height="935"
   inkscape:window-x="181"
   inkscape:window-y="37"
   inkscape:window-maximized="0"
   inkscape:current-layer="Layer_1" />
<style
   type="text/css"
   id="style2">
	.st0{fill:#00AEEF;}
</style>
<g
   id="g18"
   transform="translate(-57.9,-149.32)">
	<path
   d="m 57.9,158.11 h 23.91 c 6.63,0 11.71,1.77 15.24,5.3 2.99,2.99 4.48,6.98 4.48,11.96 v 0.15 c 0,4.23 -1.03,7.69 -3.1,10.35 -2.07,2.67 -4.77,4.62 -8.11,5.87 l 12.78,18.68 H 89.66 L 78.45,193.68 H 78.3 69.41 v 16.74 H 57.9 Z m 23.17,25.41 c 2.84,0 5.02,-0.67 6.54,-2.02 1.52,-1.34 2.28,-3.14 2.28,-5.38 v -0.15 c 0,-2.49 -0.8,-4.36 -2.39,-5.61 -1.59,-1.24 -3.81,-1.87 -6.65,-1.87 H 69.41 v 15.02 h 11.66 z"
   id="path4" />
	<path
   d="m 111.93,158.11 h 11.51 v 22.87 l 21.22,-22.87 h 13.9 l -21.3,22.19 22.27,30.12 h -13.82 l -16.22,-22.27 -6.05,6.28 v 15.99 h -11.51 z"
   id="path6" />
	<path
   d="m 234.19,211.17 c -3.99,0 -7.9,-0.68 -11.73,-2.06 -3.84,-1.37 -7.32,-3.47 -10.46,-6.31 l 6.8,-8.15 c 2.39,1.94 4.84,3.49 7.36,4.63 2.51,1.15 5.27,1.72 8.26,1.72 2.39,0 4.25,-0.43 5.57,-1.31 1.32,-0.87 1.98,-2.08 1.98,-3.62 v -0.15 c 0,-0.75 -0.14,-1.41 -0.41,-1.98 -0.28,-0.57 -0.8,-1.11 -1.57,-1.61 -0.77,-0.5 -1.85,-1 -3.22,-1.49 -1.37,-0.5 -3.16,-1.02 -5.36,-1.57 -2.65,-0.65 -5.05,-1.37 -7.19,-2.17 -2.15,-0.8 -3.97,-1.78 -5.47,-2.95 -1.5,-1.17 -2.66,-2.63 -3.48,-4.37 -0.82,-1.74 -1.24,-3.91 -1.24,-6.5 v -0.15 c 0,-2.39 0.45,-4.55 1.34,-6.46 0.89,-1.92 2.14,-3.57 3.75,-4.97 1.61,-1.39 3.53,-2.47 5.76,-3.21 2.23,-0.75 4.7,-1.12 7.39,-1.12 3.84,0 7.36,0.57 10.57,1.72 3.21,1.15 6.16,2.79 8.85,4.93 l -5.98,8.67 c -2.34,-1.59 -4.63,-2.85 -6.87,-3.77 -2.24,-0.92 -4.48,-1.38 -6.73,-1.38 -2.24,0 -3.92,0.44 -5.04,1.31 -1.12,0.87 -1.68,1.96 -1.68,3.25 v 0.15 c 0,0.85 0.16,1.58 0.49,2.2 0.33,0.62 0.91,1.18 1.76,1.68 0.85,0.5 2.01,0.97 3.48,1.42 1.47,0.45 3.33,0.97 5.58,1.57 2.65,0.7 5.01,1.48 7.08,2.35 2.07,0.87 3.82,1.92 5.24,3.14 1.42,1.22 2.5,2.65 3.22,4.3 0.72,1.65 1.09,3.61 1.09,5.9 v 0.15 c 0,2.59 -0.47,4.89 -1.41,6.91 -0.94,2.02 -2.25,3.71 -3.94,5.08 -1.68,1.37 -3.69,2.42 -6.02,3.14 -2.34,0.72 -4.93,1.08 -7.77,1.08 z"
   id="path8" />
	<path
   d="m 274.07,168.72 h -15.92 v -10.61 h 43.34 v 10.61 h -15.92 v 41.7 h -11.51 v -41.7 z"
   id="path10" />
	<g
   id="g16">
		<polygon
   points="159.34,169.24 163.28,179.08 175.69,179.08 172.04,169.24 "
   id="polygon12" />
		<polygon
   class="st0"
   points="177.71,185.13 165.82,185.13 176.13,210.79 186.29,210.79 216.23,149.32 203.83,149.32 181.36,194.95 "
   id="polygon14" />
	</g>
</g>
</svg>
