<svg width="449" height="82" viewBox="0 0 449 82" fill="none" xmlns="http://www.w3.org/2000/svg">
<path d="M147.22 62.7507C144.23 61.6307 141.83 60.0207 140.02 57.9107C138.21 55.8007 137.19 53.2307 136.98 50.1907L147.62 48.9107C147.83 50.3507 148.38 51.6007 149.26 52.6707C150.14 53.7407 151.33 54.5907 152.82 55.2307C154.31 55.8707 156.02 56.1907 157.94 56.1907C159.49 56.1907 160.89 55.9807 162.14 55.5507C163.39 55.1207 164.39 54.5507 165.14 53.8307C165.89 53.1107 166.26 52.3007 166.26 51.3907C166.31 50.2707 165.67 49.3207 164.34 48.5507C163.01 47.7807 160.9 47.1807 158.02 46.7507L151.7 45.7107C147.22 44.9607 143.94 43.6707 141.86 41.8307C139.78 39.9907 138.77 37.3607 138.82 33.9507C138.82 31.2807 139.57 28.9407 141.06 26.9107C142.55 24.8807 144.62 23.3207 147.26 22.2307C149.9 21.1407 152.93 20.5907 156.34 20.5907C159.75 20.5907 162.54 21.1007 165.18 22.1107C167.82 23.1207 169.97 24.5507 171.62 26.3907C173.27 28.2307 174.26 30.3207 174.58 32.6707L164.26 34.2707C164.15 32.6207 163.33 31.2607 161.78 30.1907C160.23 29.1207 158.31 28.5907 156.02 28.5907C154.74 28.5907 153.59 28.8007 152.58 29.2307C151.57 29.6607 150.77 30.1907 150.18 30.8307C149.59 31.4707 149.27 32.1907 149.22 32.9907C149.22 33.9507 149.75 34.7507 150.82 35.3907C151.89 36.0307 153.65 36.5907 156.1 37.0707L162.34 38.0307C167.57 38.9907 171.34 40.4707 173.66 42.4707C175.98 44.4707 177.14 47.1207 177.14 50.4307C177.14 53.2007 176.31 55.6607 174.66 57.7907C173.01 59.9207 170.67 61.5607 167.66 62.7107C164.65 63.8607 161.19 64.4307 157.3 64.4307C153.41 64.4307 150.21 63.8707 147.22 62.7507Z" fill="black"/>
<path d="M199.7 62.1107C197.35 60.6707 195.38 58.5607 193.78 55.7907H193.7L191.94 62.9907H181.86V3.63074H193.86V29.1507H193.94C195.43 26.4307 197.39 24.3507 199.82 22.9107C202.25 21.4707 204.95 20.7507 207.94 20.7507C211.51 20.7507 214.69 21.6707 217.46 23.5107C220.23 25.3507 222.41 27.9007 223.98 31.1507C225.55 34.4007 226.34 38.1907 226.34 42.5107C226.34 46.8307 225.55 50.5507 223.98 53.8307C222.41 57.1107 220.23 59.6707 217.46 61.5107C214.69 63.3507 211.49 64.2707 207.86 64.2707C204.77 64.2707 202.05 63.5507 199.7 62.1107ZM209.3 52.5507C210.9 51.5107 212.14 50.1207 213.02 48.3907C213.9 46.6607 214.34 44.7007 214.34 42.5107C214.34 40.3207 213.9 38.3807 213.02 36.6707C212.14 34.9607 210.9 33.5907 209.3 32.5507C207.7 31.5107 205.91 30.9907 203.94 30.9907C201.97 30.9907 200.17 31.5107 198.54 32.5507C196.91 33.5907 195.65 34.9607 194.74 36.6707C193.83 38.3807 193.38 40.3207 193.38 42.5107C193.38 44.7007 193.83 46.6607 194.74 48.3907C195.65 50.1207 196.91 51.5107 198.54 52.5507C200.17 53.5907 201.97 54.1107 203.94 54.1107C205.91 54.1107 207.7 53.5907 209.3 52.5507Z" fill="black"/>
<path d="M240.94 61.8307C237.55 59.9907 234.9 57.4207 232.98 54.1107C231.06 50.8007 230.1 46.9407 230.1 42.5107C230.1 38.0807 231.06 34.2007 232.98 30.8707C234.9 27.5407 237.55 24.9607 240.94 23.1507C244.33 21.3407 248.31 20.4307 252.9 20.4307C257.49 20.4307 261.35 21.3407 264.82 23.1507C268.29 24.9607 270.94 27.5407 272.78 30.8707C274.62 34.2007 275.54 38.0807 275.54 42.5107C275.54 46.9407 274.62 50.8007 272.78 54.1107C270.94 57.4207 268.29 59.9907 264.82 61.8307C261.35 63.6707 257.38 64.5907 252.9 64.5907C248.42 64.5907 244.33 63.6707 240.94 61.8307ZM258.62 53.1107C260.24 52.1207 261.5 50.7207 262.38 48.9107C263.26 47.1007 263.7 44.9607 263.7 42.5107C263.7 40.0607 263.26 37.9407 262.38 36.1507C261.5 34.3607 260.25 32.9807 258.62 31.9907C256.99 31.0007 255.08 30.5107 252.9 30.5107C250.72 30.5107 248.79 31.0007 247.14 31.9907C245.49 32.9807 244.21 34.3607 243.3 36.1507C242.39 37.9407 241.94 40.0607 241.94 42.5107C241.94 44.9607 242.39 47.1007 243.3 48.9107C244.21 50.7207 245.49 52.1207 247.14 53.1107C248.79 54.1007 250.71 54.5907 252.9 54.5907C255.09 54.5907 256.99 54.1007 258.62 53.1107Z" fill="black"/>
<path d="M280.66 22.0307H290.34L292.26 28.9907H292.34C293.46 26.4807 295.25 24.4807 297.7 22.9907C300.15 21.5007 302.95 20.7507 306.1 20.7507C309.25 20.7507 311.89 21.4807 314.02 22.9507C316.15 24.4207 317.65 26.5407 318.5 29.3107H318.58C320.29 26.4807 322.41 24.3507 324.94 22.9107C327.47 21.4707 330.29 20.7507 333.38 20.7507C336.1 20.7507 338.43 21.3507 340.38 22.5507C342.33 23.7507 343.81 25.4607 344.82 27.6707C345.83 29.8807 346.34 32.5407 346.34 35.6307L346.42 62.9907H334.34V38.0307C334.34 35.7907 333.77 34.0607 332.62 32.8307C331.47 31.6007 329.81 30.9907 327.62 30.9907C326.02 30.9907 324.61 31.4007 323.38 32.2307C322.15 33.0607 321.22 34.1807 320.58 35.5907C319.94 37.0007 319.62 38.6707 319.62 40.5907L319.54 62.9907H307.54V38.0307C307.54 35.7907 306.95 34.0607 305.78 32.8307C304.61 31.6007 302.95 30.9907 300.82 30.9907C298.31 30.9907 296.33 31.8707 294.86 33.6307C293.39 35.3907 292.66 37.7107 292.66 40.5907V62.9907H280.66V22.0307Z" fill="black"/>
<path d="M353.97 14.3907C352.61 13.0807 351.93 11.3907 351.93 9.31074C351.93 7.92074 352.24 6.71074 352.85 5.67074C353.46 4.63074 354.3 3.82074 355.37 3.23074C356.44 2.64074 357.69 2.35074 359.13 2.35074C361.32 2.35074 363.06 2.98074 364.37 4.23074C365.68 5.48074 366.33 7.18074 366.33 9.31074C366.33 10.7507 366.02 11.9907 365.41 13.0307C364.8 14.0707 363.95 14.8807 362.89 15.4707C361.82 16.0607 360.57 16.3507 359.13 16.3507C357.05 16.3507 355.33 15.7007 353.97 14.3907ZM353.05 22.0307H365.13V62.9907H353.05V22.0307Z" fill="black"/>
<path d="M376.97 31.1507H369.21V22.0307H376.97V17.2307C376.97 14.2407 377.64 11.5807 378.97 9.23073C380.3 6.88073 382.16 5.10073 384.53 3.87073C386.9 2.64073 389.66 2.03073 392.81 2.03073C395.96 2.03073 398.88 2.74073 401.41 4.15073C403.94 5.56073 405.93 7.42073 407.37 9.71073L402.81 16.8307C402.01 15.3407 400.92 14.1207 399.53 13.1907C398.14 12.2607 396.65 11.7907 395.05 11.7907C393.24 11.7907 391.77 12.3907 390.65 13.5907C389.53 14.7907 388.97 16.3807 388.97 18.3507V22.0307H404.09V31.1507H388.97L389.05 62.9907H377.05L376.97 31.1507Z" fill="black"/>
<path d="M416.34 80.4307C413.72 79.7907 411.37 78.8807 409.26 77.7107C407.15 76.5407 405.46 75.1207 404.18 73.4707L409.22 64.9907C410.34 66.3207 411.65 67.4707 413.14 68.4307C414.63 69.3907 416.29 70.1107 418.1 70.5907C419.91 71.0707 421.75 71.3107 423.62 71.3107C426.29 71.3107 428.58 70.8707 430.5 69.9907C432.42 69.1107 433.9 67.8207 434.94 66.1107C435.98 64.4007 436.5 62.4007 436.5 60.1107V57.0707H436.42C435.09 59.4707 433.27 61.3607 430.98 62.7507C428.69 64.1407 426.21 64.8307 423.54 64.8307C420.5 64.8307 417.82 64.1607 415.5 62.8307C413.18 61.5007 411.39 59.5907 410.14 57.1107C408.89 54.6307 408.26 51.7607 408.26 48.5107V22.0307H420.34V46.5907C420.34 48.1907 420.63 49.6407 421.22 50.9507C421.81 52.2607 422.67 53.2607 423.82 53.9507C424.97 54.6407 426.29 54.9907 427.78 54.9907C429.27 54.9907 430.77 54.5907 432.1 53.7907C433.43 52.9907 434.48 51.9407 435.26 50.6307C436.03 49.3207 436.42 47.7607 436.42 45.9507V22.0307H448.5V60.4307C448.5 64.7507 447.51 68.4607 445.54 71.5507C443.57 74.6407 440.79 77.0607 437.22 78.7907C433.65 80.5207 429.43 81.3907 424.58 81.3907C421.7 81.3907 418.95 81.0707 416.34 80.4307Z" fill="black"/>
<path d="M3.95 0.000745412C-1.17 -0.0692546 -1.18 7.98075 3.95 7.91075H30.98C36.12 8.00075 36.13 -0.0892546 30.98 0.000745412H3.95ZM43.82 0.000745412C38.72 -0.0692546 38.69 7.98075 43.82 7.91075H108.05C110.23 7.91075 111.99 6.14075 111.99 3.97075C111.99 1.78075 110.23 0.0107454 108.05 0.0107454H43.82V0.000745412ZM3.95 13.6807C-1.16 13.6107 -1.19 21.6707 3.95 21.5907H48.28C50.46 21.5907 52.22 19.8207 52.22 17.6407C52.23 15.4607 50.46 13.6807 48.28 13.6807H3.95ZM3.95 27.3807C-1.15 27.3107 -1.19 35.3407 3.95 35.2707H68.53C70.71 35.2707 72.47 33.5007 72.47 31.3307C72.47 29.1507 70.7 27.3907 68.53 27.3907H3.95V27.3807ZM108.05 77.4207C113.17 77.4907 113.18 69.4407 108.05 69.5107H81.02C75.88 69.4207 75.87 77.5107 81.02 77.4207H108.05ZM68.17 77.4207C73.27 77.4907 73.3 69.4407 68.17 69.5107H3.94C1.77 69.5207 0 71.2807 0 73.4607C0 75.6507 1.76 77.4207 3.94 77.4207H68.17ZM108.05 63.7407C113.16 63.8107 113.19 55.7507 108.05 55.8307H63.72C61.54 55.8307 59.78 57.6007 59.78 59.7807C59.77 61.9607 61.54 63.7407 63.72 63.7407H108.05ZM108.05 50.0407C113.15 50.1107 113.19 42.0807 108.05 42.1507H43.47C41.29 42.1507 39.53 43.9207 39.53 46.0907C39.53 48.2707 41.3 50.0307 43.47 50.0307H108.05V50.0407Z" fill="url(#paint0_linear_1428_771)"/>
<defs>
<linearGradient id="paint0_linear_1428_771" x1="0" y1="38.7107" x2="114.572" y2="49.1864" gradientUnits="userSpaceOnUse">
<stop offset="0.06" stop-color="#4059D0"/>
<stop offset="0.555" stop-color="#CC58BB"/>
<stop offset="1" stop-color="#F4B57F"/>
</linearGradient>
</defs>
</svg>
