<?xml version="1.0" encoding="UTF-8" standalone="no"?>
<!DOCTYPE svg PUBLIC "-//W3C//DTD SVG 1.1//EN" "http://www.w3.org/Graphics/SVG/1.1/DTD/svg11.dtd">
<svg width="100%" height="100%" viewBox="0 0 290 86" version="1.1" xmlns="http://www.w3.org/2000/svg" xmlns:xlink="http://www.w3.org/1999/xlink" xml:space="preserve" xmlns:serif="http://www.serif.com/" style="fill-rule:evenodd;clip-rule:evenodd;stroke-linejoin:round;stroke-miterlimit:2;">
    <g transform="matrix(1,0,0,1,-4.15057,-8.87134)">
        <path d="M35.56,10.89C45.21,8.2 55.81,9.11 64.86,13.41C74.84,18.08 82.8,26.83 86.48,37.23C90.58,48.46 89.54,61.43 83.67,71.85C77.95,82.34 67.5,90.1 55.8,92.55C44.36,95.19 31.89,92.53 22.36,85.71C13.75,79.62 7.6,70.18 5.52,59.84C3.23,49.12 5.54,37.57 11.55,28.43C17.07,19.92 25.78,13.58 35.56,10.89M43.65,18.17C38.23,18.51 33,20.49 28.46,23.43C16.19,31.18 10.25,47.43 14.76,61.25C18.77,75.06 32.53,85.31 46.96,84.87C63.18,85.3 78.2,72.05 80.04,55.97C81.87,43.79 76.18,30.89 66,23.97C59.56,19.37 51.49,17.46 43.65,18.17Z" style="fill-rule:nonzero;stroke:white;stroke-width:1px;"/>
    </g>
    <g transform="matrix(1,0,0,1,-4.15057,-8.87134)">
        <path d="M40.42,28.68C49.08,26.15 58.94,29.41 64.66,36.32C72.01,44.68 72.04,58.21 64.72,66.6C59.01,73.55 49.1,76.85 40.41,74.3C32.1,72.16 25.44,65.15 23.46,56.83C27.13,56.81 30.8,56.84 34.47,56.79C36.91,60.89 41,64.33 45.98,64.35C52.89,64.83 59.3,58.85 59.42,51.95C59.85,44.74 53.24,38.12 46.01,38.63C41,38.64 36.91,42.11 34.44,46.2C30.78,46.15 27.12,46.18 23.46,46.16C25.44,37.83 32.1,30.81 40.42,28.68Z" style="fill-rule:nonzero;stroke:white;stroke-width:1px;"/>
    </g>
    <g transform="matrix(1,0,0,1,-4.15057,-8.87134)">
        <path d="M98.58,41.96C98.48,38.33 101.23,34.92 104.88,34.5C110.15,33.87 115.57,34.19 120.71,35.55L120.71,41.34C115.9,41.37 111.03,40.38 106.28,41.39C106.14,43.26 105.24,45.71 106.9,47.14C110.84,48.04 115.47,46.27 118.92,48.96C122.47,51.9 122.11,56.96 121.73,61.09C121.39,64.51 118.51,67.34 115.09,67.62C109.9,67.99 104.58,67.86 99.55,66.41C99.55,64.48 99.54,62.55 99.54,60.61C103.7,60.79 107.87,61.39 112.03,61.07C115.31,61.26 115.51,55.98 113.08,54.88C109.13,54.39 104.48,55.79 101.21,52.88C98.07,50.21 98.5,45.66 98.58,41.96Z" style="fill-rule:nonzero;stroke:white;stroke-width:1px;"/>
    </g>
    <g transform="matrix(1,0,0,1,-4.15057,-8.87134)">
        <path d="M131.73,34.8C137,33.49 142.61,34.23 147.78,35.68C147.78,37.63 147.79,39.58 147.79,41.54C143.17,41.28 138.31,39.9 133.83,41.7C131.81,45.83 132.27,50.58 132.43,55.02C132.55,57.36 133.48,60.31 136.15,60.74C140.02,61.13 143.92,60.83 147.79,60.64C147.79,62.58 147.79,64.52 147.78,66.46C142.61,67.65 137,68.44 131.83,66.94C125.63,64.47 124.99,56.82 124.83,51.06C124.91,45.21 125.29,37.22 131.73,34.8Z" style="fill-rule:nonzero;stroke:white;stroke-width:1px;"/>
    </g>
    <g transform="matrix(1,0,0,1,-4.15057,-8.87134)">
        <path d="M220.49,34.86C224.99,34.03 229.97,33.77 234.22,35.74C238.5,38.22 239.26,43.62 239.53,48.1C239.69,53.62 239.84,59.81 236.38,64.45C232.72,68.31 226.8,67.71 221.96,67.36C217.95,67.11 214.62,64.03 213.74,60.17C212.33,54.2 212.45,47.86 213.86,41.9C214.64,38.63 217.16,35.68 220.49,34.86M223.89,41.22C221.07,41.4 220.55,44.64 220.37,46.88C220.29,51.31 219.5,56.14 221.81,60.17C224.46,60.83 227.51,61.49 230.04,60.09C232.31,58.07 232.08,54.74 232.24,51.98C232.19,48.94 232.32,45.73 231.09,42.88C229.55,40.51 226.3,41.09 223.89,41.22Z" style="fill-rule:nonzero;stroke:white;stroke-width:1px;"/>
    </g>
    <g transform="matrix(1,0,0,1,-4.15057,-8.87134)">
        <path d="M243.07,40.82C243.35,37.3 246.53,34.61 249.95,34.39C255.04,33.98 260.26,34.16 265.17,35.63C265.16,37.54 265.16,39.44 265.16,41.35C260.29,41.16 255.37,40.31 250.55,41.4C250.4,43.09 250.3,44.78 250.26,46.48C254.19,48.7 259.32,45.95 263.03,48.79C266.83,51.67 266.55,56.93 266.12,61.16C265.66,64.7 262.61,67.53 259.04,67.66C253.96,67.93 248.73,67.9 243.83,66.34C243.84,64.44 243.84,62.54 243.84,60.64C248.69,60.56 253.79,62.09 258.47,60.39C259.11,58.87 258.71,57.15 258.8,55.54C254.76,53.64 249.62,56.2 245.98,53.18C242.24,50.32 242.62,44.99 243.07,40.82Z" style="fill-rule:nonzero;stroke:white;stroke-width:1px;"/>
    </g>
    <g transform="matrix(1,0,0,1,-4.15057,-8.87134)">
        <path d="M269.71,41.01C269.92,37.7 272.66,34.95 275.91,34.5C281.17,33.85 286.59,34.2 291.73,35.54C291.73,37.47 291.73,39.4 291.74,41.33C287.44,41.32 283.12,40.66 278.85,41.04C276.15,41.36 276.92,44.8 277.36,46.63C279.9,48.18 283.2,47 286.04,47.48C289.92,47.57 292.69,51.29 292.89,54.94C293.09,58.14 293.26,61.68 291.5,64.51C290.11,66.64 287.54,67.63 285.09,67.71C280.23,67.91 275.28,67.82 270.59,66.41C270.58,64.48 270.58,62.55 270.58,60.62C275.44,60.44 280.76,62.35 285.32,60.17C285.62,58.41 286.23,55.79 284.17,54.87C280.23,54.38 275.55,55.81 272.27,52.9C268.9,49.96 269.5,45.01 269.71,41.01Z" style="fill-rule:nonzero;stroke:white;stroke-width:1px;"/>
    </g>
    <g transform="matrix(1,0,0,1,-4.15057,-8.87134)">
        <path d="M150.19,67.41C153.8,56.47 157.39,45.52 160.92,34.55C163.77,34.51 166.62,34.53 169.48,34.5C173.01,45.46 176.44,56.44 179.9,67.42L172.21,67.42C171.48,65.22 170.74,63.03 170.05,60.82C166.73,60.81 163.41,60.8 160.09,60.82C159.41,63.03 158.67,65.22 157.95,67.41C155.36,67.43 152.78,67.42 150.19,67.41M161.92,54.4C164.09,54.42 166.27,54.42 168.45,54.41C167.37,50.95 166.37,47.46 165.34,43.97C164.2,47.45 163.02,50.91 161.92,54.4Z" style="fill-rule:nonzero;stroke:white;stroke-width:1px;"/>
    </g>
    <g transform="matrix(1,0,0,1,-4.15057,-8.87134)">
        <path d="M182.81,34.52L190.24,34.52C194.07,40.9 197.86,47.3 201.62,53.71C201.72,47.32 201.65,40.93 201.67,34.53C204.13,34.52 206.6,34.52 209.06,34.52L209.06,67.42C206.62,67.42 204.17,67.42 201.73,67.43C197.89,61.12 193.98,54.85 190.32,48.44C190.15,54.76 190.26,61.08 190.24,67.41C187.76,67.42 185.29,67.42 182.81,67.42L182.81,34.52Z" style="fill-rule:nonzero;stroke:white;stroke-width:1px;"/>
    </g>
    <g transform="matrix(1,0,0,1,-4.15057,-8.87134)">
        <path d="M43.54,46.63C47.26,44.14 52.85,47.51 52.31,51.97C52.09,56.37 46.28,58.85 42.94,55.98C39.74,53.76 40.12,48.44 43.54,46.63Z" style="fill:rgb(248,0,0);fill-rule:nonzero;"/>
    </g>
</svg>
