<?xml version="1.0" encoding="UTF-8" standalone="no"?>
<!DOCTYPE svg PUBLIC "-//W3C//DTD SVG 1.1//EN" "http://www.w3.org/Graphics/SVG/1.1/DTD/svg11.dtd">
<svg width="100%" height="100%" viewBox="0 0 208 56" version="1.1" xmlns="http://www.w3.org/2000/svg" xmlns:xlink="http://www.w3.org/1999/xlink" xml:space="preserve" xmlns:serif="http://www.serif.com/" style="fill-rule:evenodd;clip-rule:evenodd;stroke-linejoin:round;stroke-miterlimit:2;">
    <path d="M139.359,43.172C139.359,44.417 139.326,45.579 139.378,46.737C139.396,47.144 139.451,47.551 139.467,47.957C139.482,48.267 139.369,48.389 139.046,48.389C136.568,48.379 134.09,48.379 131.61,48.389C131.289,48.389 131.156,48.273 131.187,47.962L131.187,0.676C131.189,0 131.189,0 131.876,0L138.789,0C139.461,0 139.461,0 139.461,0.694L139.461,19.057C141.083,16.953 142.906,15.191 145.215,14.017C146.43,13.406 147.747,13.026 149.1,12.894C149.864,12.777 150.635,12.715 151.408,12.709C154.935,12.835 158.169,13.822 160.981,16.017C164.285,18.597 166.227,22.011 167.215,26.012C167.442,27.041 167.591,28.085 167.66,29.137C167.969,32.622 167.423,36.13 166.07,39.357C165.217,41.308 164.006,43.082 162.5,44.587C160.417,46.638 157.801,48.065 154.949,48.707C153.336,49.089 151.674,49.226 150.02,49.114C147.337,48.979 144.762,48.007 142.659,46.336C141.482,45.365 140.379,44.307 139.359,43.172ZM149.484,19.662C148.843,19.631 148.201,19.669 147.568,19.777C144.452,20.449 142.138,22.195 140.617,24.972C139.809,26.482 139.331,28.147 139.214,29.855C139.135,31.098 139.198,32.346 139.402,33.575C139.578,34.835 140.118,35.994 140.737,37.101C141.714,38.9 143.228,40.351 145.067,41.251C146.909,42.153 148.986,42.463 151.011,42.137C153.353,41.785 155.479,40.568 156.969,38.728C158.764,36.574 159.468,34.002 159.568,31.248C159.587,30.189 159.488,29.132 159.273,28.095C158.924,26.1 158.01,24.247 156.64,22.755C154.726,20.699 152.338,19.617 149.484,19.661L149.484,19.662ZM201.621,38.334C203.13,39.644 204.637,40.951 206.142,42.254C206.316,42.407 206.359,42.527 206.195,42.729C205.153,43.96 203.95,45.045 202.619,45.956C200.958,47.164 199.081,48.042 197.089,48.542C196.11,48.793 195.111,48.958 194.103,49.036C193.623,49.069 193.142,49.116 192.66,49.13C190.019,49.232 187.385,48.785 184.925,47.816C183.296,47.18 181.773,46.301 180.409,45.207C178.307,43.523 176.638,41.36 175.541,38.9C174.838,37.329 174.364,35.666 174.134,33.96C173.984,32.837 173.916,31.704 173.929,30.571C173.96,28.159 174.438,25.773 175.338,23.535C176.383,20.885 178.069,18.535 180.245,16.697C182.308,14.914 184.79,13.683 187.458,13.12C188.297,12.943 189.153,12.892 189.998,12.776C190.996,12.64 191.967,12.756 192.94,12.825C196.693,13.102 200.223,14.719 202.883,17.381C204.406,18.985 205.602,20.869 206.406,22.929C207.051,24.579 207.501,26.298 207.747,28.052C207.967,29.482 208.041,30.929 207.968,32.372C207.915,32.727 207.881,33.084 207.868,33.442C207.868,33.632 207.759,33.722 207.571,33.723L182.053,33.723C182.322,35.681 183.003,37.471 184.24,38.981C185.625,40.679 187.56,41.84 189.71,42.263C190.885,42.484 192.084,42.547 193.275,42.45C195.429,42.32 197.497,41.57 199.227,40.287C200.067,39.689 200.866,39.036 201.621,38.334ZM190.965,28.411C193.809,28.411 196.655,28.411 199.499,28.421C199.908,28.421 199.98,28.258 199.908,27.939C199.597,26.382 199.209,24.86 198.37,23.474C197.394,21.795 195.85,20.519 194.018,19.875C192.761,19.419 191.413,19.269 190.086,19.44C189.139,19.53 188.213,19.767 187.34,20.144C185.434,21.034 184.124,22.532 183.157,24.347C182.56,25.472 182.265,26.703 182.004,27.941C181.934,28.266 182.018,28.421 182.425,28.419C185.269,28.4 188.113,28.411 190.965,28.411ZM47.342,21.75C48.232,20.231 49.334,18.846 50.613,17.637C53.762,14.685 57.87,12.962 62.183,12.784C64.933,12.644 67.608,12.92 70.207,13.838C71.857,14.422 73.307,15.358 74.705,16.383C75.522,17.019 76.292,17.713 77.009,18.459C77.213,18.662 77.249,18.759 77.031,18.988C75.649,20.448 74.273,21.928 72.899,23.399C72.681,23.635 72.533,23.936 72.235,24.127C71.112,22.924 69.825,21.884 68.413,21.039C67.367,20.396 66.216,20.086 65.026,19.869C64.288,19.767 63.542,19.733 62.797,19.767C60.89,19.767 59.193,20.424 57.651,21.484C55.991,22.628 54.882,24.204 54.063,26.028C53.337,27.663 52.988,29.44 53.04,31.228C53.093,33.874 53.84,36.315 55.51,38.395C57.008,40.33 59.176,41.636 61.587,42.057C63.901,42.477 66.126,42.238 68.221,41.197C69.488,40.562 70.654,39.743 71.681,38.767C71.955,38.507 72.266,38.285 72.527,38.014C72.732,37.811 72.789,38.004 72.879,38.094C73.648,38.85 74.404,39.62 75.179,40.37C75.871,41.049 76.577,41.712 77.297,42.36C77.522,42.564 77.502,42.704 77.33,42.881C76.95,43.288 76.588,43.709 76.173,44.074C75.128,45.003 74.016,45.856 72.848,46.625C71.144,47.714 69.24,48.454 67.248,48.802C65.428,49.134 63.573,49.235 61.728,49.103C59.108,48.928 56.556,48.185 54.251,46.928C53.001,46.232 51.835,45.396 50.775,44.436C49.321,43.142 48.182,41.606 47.162,39.959C48,37.632 48.679,35.279 48.876,32.785C49.095,30.131 48.896,27.46 48.286,24.868C48.025,23.806 47.581,22.813 47.342,21.751L47.342,21.75Z" style="fill:rgb(66,66,66);fill-rule:nonzero;"/>
    <path d="M47.342,21.75C47.582,22.813 48.025,23.812 48.277,24.874C48.886,27.467 49.084,30.138 48.865,32.791C48.661,35.276 47.99,37.638 47.152,39.966C46.655,40.932 46.222,41.933 45.657,42.865C44.864,44.181 43.962,45.429 42.961,46.595C41.333,48.468 39.423,50.076 37.301,51.362C35.88,52.223 34.378,52.943 32.817,53.512C31.06,54.133 29.244,54.572 27.397,54.822C25.843,55.022 24.271,55.057 22.709,54.925C20.763,54.786 18.84,54.411 16.984,53.808C14.861,53.135 12.839,52.177 10.974,50.959C9.232,49.834 7.65,48.48 6.271,46.932C2.917,43.182 0.782,38.498 0.15,33.507C-0.039,31.793 -0.052,30.064 0.111,28.347C0.28,26.602 0.635,24.881 1.171,23.212C1.826,21.091 2.79,19.079 4.033,17.24C5.24,15.435 6.684,13.801 8.326,12.381C10.09,10.853 12.056,9.575 14.17,8.586C15.975,7.763 17.868,7.149 19.813,6.756C24.111,5.915 28.558,6.252 32.68,7.732C35.761,8.824 38.594,10.519 41.013,12.717C43.428,14.911 45.38,17.567 46.754,20.526C46.947,20.935 47.053,21.386 47.341,21.751L47.342,21.75ZM2.917,30.625C2.911,33.441 3.463,36.231 4.542,38.832C5.622,41.436 7.206,43.802 9.203,45.792C11.204,47.786 13.578,49.366 16.189,50.442C18.804,51.52 21.605,52.074 24.433,52.073C36.381,52.089 46.04,42.544 46.048,30.725C46.005,25.065 43.719,19.646 39.695,15.665C35.659,11.673 30.209,9.427 24.532,9.416C18.855,9.401 13.394,11.622 9.34,15.596C5.297,19.558 2.986,24.966 2.917,30.626L2.917,30.625Z" style="fill:rgb(140,196,64);fill-rule:nonzero;"/>
    <path d="M92.949,20.848C93.523,19.84 94.051,18.829 94.729,17.905C95.979,16.202 97.443,14.721 99.367,13.785C100.473,13.261 101.657,12.922 102.873,12.78C103.603,12.686 104.325,12.74 105.051,12.695C105.296,12.678 105.425,12.717 105.423,13.018C105.411,15.619 105.411,18.22 105.423,20.821C105.423,21.204 105.218,21.246 104.928,21.228C103.453,21.158 101.978,21.372 100.583,21.857C99.273,22.294 98.062,22.986 97.02,23.892C95.002,25.658 93.953,27.939 93.378,30.476C93.092,31.724 92.948,32.999 92.947,34.279C92.957,38.771 92.947,43.262 92.961,47.754C92.961,48.161 92.891,48.308 92.434,48.302C90.042,48.279 87.651,48.279 85.259,48.302C84.875,48.302 84.769,48.22 84.77,47.824C84.783,36.518 84.783,25.211 84.77,13.904C84.77,13.517 84.86,13.417 85.255,13.421C87.664,13.441 90.073,13.441 92.483,13.421C92.892,13.421 92.963,13.535 92.961,13.911C92.941,16.062 92.951,18.213 92.951,20.363L92.949,20.848ZM112.749,30.958C112.749,25.324 112.749,19.69 112.738,14.056C112.738,13.626 112.836,13.512 113.276,13.516C115.667,13.541 118.058,13.541 120.448,13.516C120.847,13.516 120.931,13.62 120.929,14.003C120.918,25.306 120.918,36.61 120.929,47.913C120.929,48.298 120.841,48.401 120.444,48.397C118.036,48.377 115.627,48.377 113.219,48.397C112.81,48.397 112.736,48.294 112.738,47.911C112.752,42.263 112.755,36.611 112.749,30.958ZM116.745,8.22L112.822,8.22C112.466,8.22 112.329,8.125 112.331,7.75C112.346,5.463 112.346,3.177 112.331,0.89C112.331,0.608 112.392,0.507 112.699,0.507C115.386,0.519 118.072,0.519 120.757,0.507C121.041,0.507 121.145,0.566 121.143,0.873C121.129,3.195 121.129,5.516 121.143,7.838C121.143,8.188 121.01,8.222 120.718,8.218C119.389,8.214 118.064,8.22 116.745,8.22Z" style="fill:rgb(66,66,66);fill-rule:nonzero;"/>
    <path d="M25.09,48.715C19.874,48.642 14.813,46.922 10.632,43.803C10.29,43.553 10.265,43.378 10.505,43.028C11.543,41.508 12.565,39.975 13.568,38.428C13.772,38.102 13.915,38.068 14.24,38.301C16.661,40.055 19.299,41.353 22.245,41.992C24.101,42.387 25.98,42.556 27.837,42.022C29.37,41.582 30.525,40.729 30.771,39.007C30.949,37.747 30.435,36.82 29.444,36.102C28.123,35.143 26.581,34.702 25.046,34.232C22.416,33.418 19.746,32.73 17.276,31.507C15.781,30.787 14.474,29.728 13.459,28.415C12.028,26.557 11.748,24.441 11.932,22.207C12.288,17.734 15.539,14.153 20.638,13.022C24.78,12.094 28.781,12.739 32.691,14.198C34.191,14.765 35.629,15.482 36.984,16.338C37.252,16.506 37.328,16.624 37.146,16.937C36.201,18.575 35.274,20.224 34.367,21.883C34.187,22.213 34.058,22.27 33.713,22.066C31.463,20.744 29.093,19.71 26.516,19.218C25.013,18.925 23.504,18.843 22.018,19.273C20.323,19.759 19.298,21.004 19.305,22.544C19.297,23.25 19.608,23.924 20.151,24.376C21.458,25.54 23.077,26.103 24.694,26.651C27.017,27.44 29.397,28.063 31.646,29.071C33.84,30.059 35.796,31.349 37.119,33.426C38.076,34.928 38.295,36.592 38.227,38.309C38.137,40.582 37.51,42.676 36.033,44.466C34.383,46.468 32.19,47.569 29.713,48.192C28.202,48.568 26.648,48.744 25.091,48.715L25.09,48.715Z" style="fill:rgb(140,196,64);fill-rule:nonzero;"/>
</svg>
