<?xml version="1.0" encoding="UTF-8" ?>
<!DOCTYPE svg PUBLIC "-//W3C//DTD SVG 1.1//EN" "http://www.w3.org/Graphics/SVG/1.1/DTD/svg11.dtd">
<svg width="1862pt" height="332pt" viewBox="0 0 1862 332" version="1.1" xmlns="http://www.w3.org/2000/svg">
<g id="#352d2e38">
<path fill="#352d2e" opacity="0.22" d=" M 39.83 26.77 C 49.74 26.07 59.70 25.93 69.62 26.50 L 70.29 26.53 C 60.14 26.67 49.99 26.74 39.83 26.77 Z" />
</g>
<g id="#6355566a">
<path fill="#635556" opacity="0.42" d=" M 69.62 26.50 C 107.60 25.70 145.63 25.61 183.61 26.55 L 184.28 26.58 C 146.29 27.13 108.28 27.41 70.29 26.53 L 69.62 26.50 Z" />
</g>
<g id="#453b3b4a">
<path fill="#453b3b" opacity="0.29" d=" M 183.61 26.55 C 212.23 26.14 241.05 24.71 269.59 27.10 C 241.15 26.91 212.71 27.31 184.28 26.58 L 183.61 26.55 Z" />
</g>
<g id="#453c3c4a">
<path fill="#453c3c" opacity="0.29" d=" M 289.85 27.06 C 290.09 25.00 293.76 25.09 294.88 26.53 L 294.86 26.93 C 293.18 27.01 291.51 27.04 289.85 27.06 Z" />
</g>
<g id="#8b787995">
<path fill="#8b7879" opacity="0.58" d=" M 294.88 26.53 C 296.55 24.94 299.81 24.99 301.32 26.77 L 301.05 26.81 C 299.50 26.84 296.40 26.90 294.86 26.93 L 294.88 26.53 Z" />
</g>
<g id="#c2a7a9d0">
<path fill="#c2a7a9" opacity="0.82" d=" M 301.32 26.77 C 309.25 26.22 317.45 25.15 325.32 26.78 L 325.74 26.93 C 317.50 26.84 309.27 26.78 301.05 26.81 L 301.32 26.77 Z" />
</g>
<g id="#7262637a">
<path fill="#726263" opacity="0.48" d=" M 325.32 26.78 C 325.74 24.90 329.35 24.84 329.50 26.88 C 328.24 26.96 326.99 26.98 325.74 26.93 L 325.32 26.78 Z" />
</g>
<g id="#be1e2efe">
<path fill="#be1e2e" opacity="1.00" d=" M 27.65 27.74 C 31.66 27.02 35.77 26.93 39.83 26.77 C 49.99 26.74 60.14 26.67 70.29 26.53 C 108.28 27.41 146.29 27.13 184.28 26.58 C 212.71 27.31 241.15 26.91 269.59 27.10 C 270.87 29.44 272.33 31.71 273.17 34.27 C 273.17 41.12 273.41 48.01 272.70 54.85 C 271.78 57.35 270.41 59.66 269.26 62.05 C 190.82 61.92 112.39 62.05 33.95 62.01 C 28.76 63.66 24.92 59.68 22.76 55.71 C 22.61 49.41 22.45 43.12 22.56 36.82 C 22.71 33.32 23.87 28.89 27.65 27.74 Z" />
<path fill="#be1e2e" opacity="1.00" d=" M 286.20 27.88 C 287.11 27.68 288.93 27.27 289.85 27.06 C 291.51 27.04 293.18 27.01 294.86 26.93 C 296.40 26.90 299.50 26.84 301.05 26.81 C 309.27 26.78 317.50 26.84 325.74 26.93 C 326.99 26.98 328.24 26.96 329.50 26.88 C 331.63 27.01 334.34 26.52 335.92 28.33 C 336.65 29.37 337.45 30.37 338.31 31.32 C 339.13 32.66 339.31 34.27 339.46 35.80 C 339.55 38.62 339.60 41.44 339.62 44.26 C 339.55 47.26 339.52 50.26 339.46 53.26 C 338.94 67.42 339.19 81.59 339.32 95.75 C 338.67 97.45 337.61 99.21 335.83 99.88 C 334.74 100.23 333.75 100.80 332.87 101.51 C 319.27 102.60 305.58 102.26 291.95 101.95 C 287.09 103.08 283.61 99.53 279.89 97.30 C 280.22 80.97 279.60 64.63 280.11 48.32 C 280.34 45.32 280.67 42.33 280.95 39.34 C 281.10 38.07 281.14 36.79 281.01 35.52 C 280.90 33.93 280.82 32.33 280.76 30.74 C 281.17 30.56 281.99 30.20 282.40 30.01 C 283.75 29.48 284.98 28.67 286.20 27.88 Z" />
<path fill="#be1e2e" opacity="1.00" d=" M 30.38 68.49 C 42.81 67.37 55.34 67.78 67.78 68.54 C 69.64 68.73 71.50 68.88 73.37 69.00 C 79.55 68.03 82.81 74.36 82.07 79.68 C 82.11 81.07 82.20 83.83 82.24 85.22 C 82.33 88.56 82.44 91.92 82.50 95.27 C 82.49 98.93 82.49 102.61 82.44 106.28 C 81.96 120.60 82.04 134.94 82.49 149.27 C 82.50 153.60 82.53 157.93 82.54 162.26 C 82.49 165.55 82.51 168.88 82.37 172.18 C 82.05 175.33 82.12 178.74 80.60 181.62 C 79.07 183.92 75.89 183.71 73.47 184.03 C 72.29 184.12 69.92 184.31 68.73 184.40 C 55.59 184.94 42.23 186.07 29.15 184.50 C 28.26 183.80 27.27 183.23 26.18 182.89 C 24.40 182.24 23.33 180.49 22.78 178.77 C 22.52 143.81 24.11 108.79 22.27 73.88 C 23.32 73.29 24.23 72.50 25.06 71.64 C 26.53 70.17 28.25 68.77 30.38 68.49 Z" />
<path fill="#be1e2e" opacity="1.00" d=" M 281.30 109.31 C 298.65 109.08 316.11 108.14 333.42 109.58 C 343.41 112.40 339.22 126.92 339.48 134.24 C 339.10 135.35 338.89 136.51 338.93 137.69 C 338.68 142.40 333.21 144.47 329.12 144.00 C 327.77 143.96 326.43 143.97 325.09 144.04 C 323.56 144.08 320.52 144.14 319.00 144.17 C 296.33 144.04 273.67 143.96 251.00 143.97 C 243.66 143.97 236.33 143.96 229.00 144.02 C 222.23 144.10 215.48 144.36 208.72 144.47 C 201.41 144.38 194.11 144.34 186.81 144.33 C 177.96 144.18 169.12 144.03 160.27 143.79 C 157.59 143.69 154.95 143.61 152.28 143.54 C 148.45 143.41 144.64 143.36 140.81 143.19 C 134.51 145.03 129.55 140.05 129.66 134.19 C 129.54 130.07 129.51 125.95 129.56 121.83 C 130.15 117.80 131.24 113.87 132.23 109.92 C 135.80 109.93 139.41 110.02 143.00 109.96 C 149.43 109.86 155.85 109.63 162.28 109.55 C 171.95 109.73 181.61 109.67 191.28 109.61 C 221.28 110.20 251.31 110.46 281.30 109.31 Z" />
<path fill="#be1e2e" opacity="1.00" d=" M 282.11 154.17 C 282.77 152.40 284.50 151.34 286.23 150.80 C 302.62 150.70 319.03 150.99 335.42 151.55 C 336.42 152.56 337.44 153.56 338.49 154.53 C 339.60 203.59 338.69 252.69 339.11 301.76 C 338.67 303.55 337.54 305.32 335.72 305.94 C 334.48 306.35 333.28 306.86 332.11 307.43 C 318.46 308.65 304.67 308.36 290.98 307.78 C 286.53 308.52 283.38 305.27 279.87 303.33 C 280.54 254.60 279.18 205.82 280.48 157.13 C 281.19 156.24 281.77 155.26 282.11 154.17 Z" />
<path fill="#be1e2e" opacity="1.00" d=" M 22.54 198.79 C 24.08 190.77 33.64 190.58 39.97 190.97 C 99.98 191.13 160.00 190.74 220.01 191.15 C 225.37 190.44 232.45 193.69 232.36 199.79 C 232.47 206.25 232.62 212.72 232.44 219.18 C 231.74 221.19 229.98 222.55 228.29 223.71 C 227.29 224.25 226.22 225.16 226.44 226.44 C 160.18 225.69 93.87 225.69 27.61 226.47 L 26.28 226.52 C 24.96 223.78 23.81 220.99 22.82 218.13 C 22.61 211.69 22.40 205.24 22.54 198.79 Z" />
<path fill="#be1e2e" opacity="1.00" d=" M 29.13 233.48 C 42.93 232.61 56.90 232.31 70.70 233.50 C 71.88 233.66 74.24 233.98 75.42 234.14 C 80.54 234.36 82.67 240.08 82.10 244.48 C 82.01 245.74 82.00 247.01 82.06 248.28 C 82.20 256.60 82.38 264.94 82.54 273.28 C 82.51 277.93 82.53 282.60 82.51 287.27 C 82.37 292.10 82.38 296.97 82.07 301.82 C 79.97 303.88 77.88 305.96 75.81 308.05 C 72.63 308.21 69.46 308.38 66.28 308.45 C 62.76 308.46 59.25 308.52 55.73 308.50 C 47.94 308.32 40.14 308.19 32.35 307.96 C 31.38 307.91 30.41 307.91 29.43 307.96 C 27.14 307.31 25.18 305.88 23.17 304.67 C 23.12 282.86 22.91 261.05 22.66 239.24 C 23.32 237.54 24.39 235.80 26.18 235.12 C 27.26 234.77 28.24 234.19 29.13 233.48 Z" />
<path fill="#be1e2e" opacity="1.00" d=" M 89.07 280.89 C 88.44 273.87 97.03 273.07 102.01 273.18 C 141.24 272.80 180.49 272.86 219.72 273.26 C 226.57 273.46 233.42 273.65 240.28 273.52 C 244.60 273.52 248.93 273.48 253.26 273.46 C 256.55 273.48 259.88 273.49 263.18 273.65 C 269.40 272.36 274.30 277.78 273.36 283.78 C 273.34 287.72 273.29 291.69 273.12 295.63 C 273.03 296.92 273.00 298.23 273.05 299.53 C 273.35 301.76 272.13 303.59 270.32 304.75 C 269.04 305.65 267.87 306.76 267.25 308.23 C 209.70 308.00 152.12 307.47 94.58 308.51 C 94.78 307.22 93.69 306.31 92.65 305.82 C 91.45 305.07 90.28 304.27 89.31 303.24 C 88.95 299.18 88.78 295.12 88.73 291.05 C 88.78 289.52 88.87 286.45 88.92 284.92 C 89.01 283.57 89.06 282.23 89.07 280.89 Z" />
</g>
<g id="#b35860da">
<path fill="#b35860" opacity="0.85" d=" M 282.40 30.01 C 281.29 27.96 284.89 26.07 286.20 27.88 C 284.98 28.67 283.75 29.48 282.40 30.01 Z" />
</g>
<g id="#5d3b3e6c">
<path fill="#5d3b3e" opacity="0.42" d=" M 335.92 28.33 C 337.62 26.92 339.97 29.95 338.31 31.32 C 337.45 30.37 336.65 29.37 335.92 28.33 Z" />
</g>
<g id="#b3575edb">
<path fill="#b3575e" opacity="0.86" d=" M 273.17 34.27 L 273.16 33.60 C 273.62 40.73 273.93 47.86 274.18 54.99 L 272.70 54.85 C 273.41 48.01 273.17 41.12 273.17 34.27 Z" />
</g>
<g id="#470a1060">
<path fill="#470a10" opacity="0.38" d=" M 280.84 39.72 C 279.03 39.19 278.95 35.63 281.01 35.52 C 281.14 36.79 281.10 38.07 280.95 39.34 L 280.84 39.72 Z" />
</g>
<g id="#5b2b2e71">
<path fill="#5b2b2e" opacity="0.44" d=" M 339.46 35.80 C 339.64 38.40 339.69 41.00 339.64 43.60 L 339.62 44.26 C 339.60 41.44 339.55 38.62 339.46 35.80 Z" />
</g>
<g id="#bf8489db">
<path fill="#bf8489" opacity="0.86" d=" M 22.78 56.37 C 22.52 49.86 22.15 43.33 22.56 36.82 C 22.45 43.12 22.61 49.41 22.76 55.71 L 22.78 56.37 Z" />
</g>
<g id="#8f1622c0">
<path fill="#8f1622" opacity="0.75" d=" M 280.84 39.72 L 280.95 39.34 C 280.67 42.33 280.34 45.32 280.11 48.32 C 280.15 45.44 280.13 42.52 280.84 39.72 Z" />
</g>
<g id="#9f4b51c5">
<path fill="#9f4b51" opacity="0.77" d=" M 339.62 44.26 L 339.64 43.60 C 339.57 46.59 339.57 49.60 339.48 52.59 L 339.46 53.26 C 339.52 50.26 339.55 47.26 339.62 44.26 Z" />
</g>
<g id="#cd626bfc">
<path fill="#cd626b" opacity="1.00" d=" M 339.46 53.26 L 339.48 52.59 C 340.20 67.17 340.33 81.79 339.31 96.36 L 339.32 95.75 C 339.19 81.59 338.94 67.42 339.46 53.26 Z" />
</g>
<g id="#6f111a95">
<path fill="#6f111a" opacity="0.58" d=" M 67.78 68.54 C 68.71 66.51 73.05 66.62 73.37 69.00 C 71.50 68.88 69.64 68.73 67.78 68.54 Z" />
</g>
<g id="#33282939">
<path fill="#332829" opacity="0.22" d=" M 22.18 73.36 C 21.42 71.67 24.23 69.67 25.06 71.64 C 24.23 72.50 23.32 73.29 22.27 73.88 L 22.18 73.36 Z" />
</g>
<g id="#cf636cfe">
<path fill="#cf636c" opacity="1.00" d=" M 22.18 73.36 L 22.27 73.88 C 24.11 108.79 22.52 143.81 22.78 178.77 L 22.79 179.43 C 21.21 144.10 22.15 108.71 22.18 73.36 Z" />
</g>
<g id="#312a2a35">
<path fill="#312a2a" opacity="0.21" d=" M 82.07 79.68 C 84.52 80.01 84.15 84.38 82.25 85.44 L 82.24 85.22 C 82.20 83.83 82.11 81.07 82.07 79.68 Z" />
</g>
<g id="#6c5d5e74">
<path fill="#6c5d5e" opacity="0.45" d=" M 82.24 85.22 L 82.25 85.44 C 82.39 88.49 82.51 91.56 82.50 94.62 L 82.50 95.27 C 82.44 91.92 82.33 88.56 82.24 85.22 Z" />
</g>
<g id="#aa9294b6">
<path fill="#aa9294" opacity="0.71" d=" M 82.50 95.27 L 82.50 94.62 C 82.53 98.27 82.60 101.94 82.47 105.60 L 82.44 106.28 C 82.49 102.61 82.49 98.93 82.50 95.27 Z" />
<path fill="#aa9294" opacity="0.71" d=" M 273.36 283.78 C 273.41 287.62 273.34 291.47 273.15 295.32 L 273.12 295.63 C 273.29 291.69 273.34 287.72 273.36 283.78 Z" />
</g>
<g id="#cd767ef3">
<path fill="#cd767e" opacity="0.95" d=" M 332.87 101.51 C 333.75 100.80 334.74 100.23 335.83 99.88 C 336.76 101.56 333.83 103.11 332.87 101.51 Z" />
</g>
<g id="#dfc0c2ef">
<path fill="#dfc0c2" opacity="0.94" d=" M 82.44 106.28 L 82.47 105.60 C 83.25 119.93 83.07 134.28 82.50 148.62 L 82.49 149.27 C 82.04 134.94 81.96 120.60 82.44 106.28 Z" />
</g>
<g id="#3c090e52">
<path fill="#3c090e" opacity="0.32" d=" M 143.01 108.82 C 149.20 109.03 155.41 109.27 161.61 109.52 L 162.28 109.55 C 155.85 109.63 149.43 109.86 143.00 109.96 L 143.01 108.82 Z" />
</g>
<g id="#7a121da4">
<path fill="#7a121d" opacity="0.64" d=" M 161.61 109.52 C 171.27 109.05 180.95 109.11 190.61 109.58 L 191.28 109.61 C 181.61 109.67 171.95 109.73 162.28 109.55 L 161.61 109.52 Z" />
</g>
<g id="#ae1a29e9">
<path fill="#ae1a29" opacity="0.91" d=" M 190.61 109.58 C 220.82 108.54 251.07 108.87 281.30 109.31 C 251.31 110.46 221.28 110.20 191.28 109.61 L 190.61 109.58 Z" />
</g>
<g id="#baa0a2c7">
<path fill="#baa0a2" opacity="0.78" d=" M 129.66 134.19 C 129.57 130.07 129.51 125.95 129.56 121.83 C 129.51 125.95 129.54 130.07 129.66 134.19 Z" />
</g>
<g id="#1a1a1a3e">
<path fill="#1a1a1a" opacity="0.24" d=" M 445.82 123.76 C 450.06 123.58 454.34 123.41 458.61 123.44 L 459.27 123.45 C 454.77 123.53 450.29 123.56 445.82 123.76 Z" />
</g>
<g id="#37373783">
<path fill="#373737" opacity="0.51" d=" M 458.61 123.44 C 463.26 123.44 467.94 123.42 472.60 123.59 L 473.27 123.62 C 468.58 123.54 463.93 123.48 459.27 123.45 L 458.61 123.44 Z" />
</g>
<g id="#515151bf">
<path fill="#515151" opacity="0.75" d=" M 472.60 123.59 C 487.92 122.91 503.33 122.36 518.65 123.51 L 519.24 123.57 C 503.91 124.00 488.58 124.13 473.27 123.62 L 472.60 123.59 Z" />
</g>
<g id="#2e2e2e6c">
<path fill="#2e2e2e" opacity="0.42" d=" M 518.65 123.51 C 522.12 123.51 525.67 123.47 529.16 123.66 C 525.81 123.60 522.55 123.56 519.24 123.57 L 518.65 123.51 Z" />
</g>
<g id="#22222251">
<path fill="#222222" opacity="0.32" d=" M 568.81 123.53 C 571.40 123.39 574.00 123.37 576.60 123.44 L 577.25 123.45 C 574.42 123.46 571.61 123.48 568.81 123.53 Z" />
<path fill="#222222" opacity="0.32" d=" M 1100.81 123.51 C 1103.40 123.38 1105.99 123.36 1108.60 123.44 L 1109.25 123.46 C 1106.41 123.45 1103.59 123.47 1100.81 123.51 Z" />
<path fill="#222222" opacity="0.32" d=" M 568.84 219.46 C 571.46 219.50 574.09 219.53 576.74 219.55 L 577.41 219.56 C 574.55 219.62 571.69 219.60 568.84 219.46 Z" />
<path fill="#222222" opacity="0.32" d=" M 646.73 219.58 C 649.53 219.56 652.35 219.52 655.19 219.48 C 652.59 219.64 649.99 219.65 647.40 219.59 L 646.73 219.58 Z" />
<path fill="#222222" opacity="0.32" d=" M 1100.84 219.46 C 1103.44 219.50 1106.08 219.53 1108.74 219.55 L 1109.41 219.56 C 1106.54 219.62 1103.69 219.60 1100.84 219.46 Z" />
<path fill="#222222" opacity="0.32" d=" M 1178.73 219.58 C 1181.52 219.56 1184.34 219.52 1187.19 219.48 C 1184.59 219.64 1181.98 219.65 1179.40 219.59 L 1178.73 219.58 Z" />
</g>
<g id="#464646a5">
<path fill="#464646" opacity="0.65" d=" M 576.60 123.44 C 579.55 123.46 582.60 123.47 585.61 123.59 L 586.27 123.62 C 583.21 123.54 580.26 123.50 577.25 123.45 L 576.60 123.44 Z" />
<path fill="#464646" opacity="0.65" d=" M 1108.60 123.44 C 1111.51 123.46 1114.60 123.48 1117.61 123.59 L 1118.27 123.62 C 1115.16 123.54 1112.26 123.51 1109.25 123.46 L 1108.60 123.44 Z" />
<path fill="#464646" opacity="0.65" d=" M 637.74 219.45 C 640.75 219.50 643.68 219.52 646.73 219.58 L 647.40 219.59 C 644.35 219.54 641.40 219.56 638.41 219.47 L 637.74 219.45 Z" />
<path fill="#464646" opacity="0.65" d=" M 1169.74 219.45 C 1172.76 219.50 1175.63 219.52 1178.73 219.58 L 1179.40 219.59 C 1176.31 219.54 1173.40 219.56 1170.41 219.47 L 1169.74 219.45 Z" />
</g>
<g id="#6a6a6af9">
<path fill="#6a6a6a" opacity="0.98" d=" M 585.61 123.59 C 602.85 122.84 620.15 122.53 637.40 123.43 L 636.73 123.45 C 619.91 124.03 603.08 124.25 586.27 123.62 L 585.61 123.59 Z" />
<path fill="#6a6a6a" opacity="0.98" d=" M 1117.61 123.59 C 1134.84 122.84 1152.15 122.53 1169.40 123.43 L 1168.73 123.45 C 1151.91 124.03 1135.08 124.25 1118.27 123.62 L 1117.61 123.59 Z" />
<path fill="#6a6a6a" opacity="0.98" d=" M 586.71 219.50 C 603.71 218.86 620.73 218.84 637.74 219.45 L 638.41 219.47 C 621.40 220.29 604.38 220.22 587.38 219.52 L 586.71 219.50 Z" />
<path fill="#6a6a6a" opacity="0.98" d=" M 1118.71 219.50 C 1135.71 218.86 1152.73 218.84 1169.74 219.45 L 1170.41 219.47 C 1153.40 220.29 1136.37 220.22 1119.38 219.52 L 1118.71 219.50 Z" />
</g>
<g id="#4c4c4cb3">
<path fill="#4c4c4c" opacity="0.70" d=" M 637.40 123.43 C 639.80 123.34 642.20 123.34 644.61 123.41 L 645.25 123.43 C 642.39 123.41 639.55 123.42 636.73 123.45 L 637.40 123.43 Z" />
<path fill="#4c4c4c" opacity="0.70" d=" M 1169.40 123.43 C 1171.79 123.34 1174.20 123.34 1176.61 123.41 L 1177.25 123.43 C 1174.37 123.41 1171.53 123.42 1168.73 123.45 L 1169.40 123.43 Z" />
<path fill="#4c4c4c" opacity="0.70" d=" M 720.28 219.47 C 724.08 219.48 727.89 219.48 731.72 219.50 L 732.38 219.51 C 728.11 219.52 723.86 219.51 719.62 219.46 L 720.28 219.47 Z" />
</g>
<g id="#28282860">
<path fill="#282828" opacity="0.38" d=" M 644.61 123.41 C 647.74 123.45 650.98 123.47 654.16 123.62 C 651.13 123.54 648.22 123.50 645.25 123.43 L 644.61 123.41 Z" />
<path fill="#282828" opacity="0.38" d=" M 1176.61 123.41 C 1179.70 123.45 1182.99 123.47 1186.16 123.62 C 1183.09 123.54 1180.23 123.50 1177.25 123.43 L 1176.61 123.41 Z" />
<path fill="#282828" opacity="0.38" d=" M 1697.51 203.80 C 1698.56 201.93 1702.91 201.54 1703.28 203.96 C 1701.90 203.93 1699.14 203.86 1697.76 203.83 L 1697.51 203.80 Z" />
<path fill="#282828" opacity="0.38" d=" M 1222.85 219.40 C 1225.62 219.45 1228.41 219.48 1231.25 219.50 L 1230.59 219.51 C 1228.00 219.58 1225.42 219.54 1222.85 219.40 Z" />
</g>
<g id="#31313174">
<path fill="#313131" opacity="0.45" d=" M 710.83 123.72 C 714.04 123.55 717.36 123.39 720.61 123.47 L 721.29 123.48 C 717.75 123.51 714.32 123.56 710.83 123.72 Z" />
</g>
<g id="#5f5f5fdf">
<path fill="#5f5f5f" opacity="0.87" d=" M 720.61 123.47 C 741.54 122.93 762.55 122.19 783.45 123.85 L 783.71 123.88 C 762.90 123.93 742.09 124.18 721.29 123.48 L 720.61 123.47 Z" />
</g>
<g id="#30303071">
<path fill="#303030" opacity="0.44" d=" M 783.45 123.85 C 784.19 121.93 788.18 121.65 788.40 123.97 C 786.83 123.99 785.26 123.94 783.71 123.88 L 783.45 123.85 Z" />
</g>
<g id="#606060e1">
<path fill="#606060" opacity="0.88" d=" M 817.49 123.66 C 822.34 123.57 827.28 123.33 832.17 123.59 C 827.46 123.55 822.82 123.63 818.16 123.66 L 817.49 123.66 Z" />
</g>
<g id="#35353579">
<path fill="#353535" opacity="0.47" d=" M 916.51 123.73 C 922.45 123.56 928.44 123.45 934.41 123.68 C 928.65 123.72 922.91 123.75 917.18 123.73 L 916.51 123.73 Z" />
</g>
<g id="#2d2d2d6b">
<path fill="#2d2d2d" opacity="0.42" d=" M 964.73 124.03 C 965.06 121.59 969.42 121.98 970.46 123.89 L 970.22 123.92 C 968.85 123.95 966.10 124.00 964.73 124.03 Z" />
</g>
<g id="#4a4a4aae">
<path fill="#4a4a4a" opacity="0.68" d=" M 970.46 123.89 C 982.13 122.62 993.90 122.93 1005.62 123.52 L 1006.29 123.54 C 994.26 123.79 982.24 123.84 970.22 123.92 L 970.46 123.89 Z" />
</g>
<g id="#3535357e">
<path fill="#353535" opacity="0.49" d=" M 1005.62 123.52 C 1012.26 123.36 1018.95 123.22 1025.62 123.40 L 1026.29 123.42 C 1019.60 123.46 1012.95 123.61 1006.29 123.54 L 1005.62 123.52 Z" />
<path fill="#353535" opacity="0.49" d=" M 1644.00 219.14 C 1649.54 219.16 1655.12 219.27 1660.72 219.38 L 1661.39 219.40 C 1655.56 219.71 1649.77 219.98 1644.00 220.23 L 1644.00 219.14 Z" />
</g>
<g id="#1e1e1e48">
<path fill="#1e1e1e" opacity="0.28" d=" M 1025.62 123.40 C 1031.45 123.40 1037.31 123.45 1043.18 123.59 C 1037.53 123.50 1031.90 123.48 1026.29 123.42 L 1025.62 123.40 Z" />
<path fill="#1e1e1e" opacity="0.28" d=" M 1628.79 219.30 C 1633.86 219.34 1638.87 219.14 1644.00 219.14 L 1644.00 220.23 C 1638.86 219.94 1633.84 219.83 1628.79 219.30 Z" />
</g>
<g id="#21212149">
<path fill="#212121" opacity="0.29" d=" M 1238.70 124.01 C 1239.03 121.57 1243.39 121.92 1244.46 123.82 L 1244.23 123.85 C 1242.84 123.89 1240.08 123.97 1238.70 124.01 Z" />
</g>
<g id="#39393987">
<path fill="#393939" opacity="0.53" d=" M 1244.46 123.82 C 1259.13 122.46 1273.90 122.86 1288.61 123.53 L 1289.28 123.55 C 1274.25 123.90 1259.24 123.90 1244.23 123.85 L 1244.46 123.82 Z" />
</g>
<g id="#20202059">
<path fill="#202020" opacity="0.35" d=" M 1288.61 123.53 C 1301.47 122.92 1314.35 122.94 1327.24 122.98 C 1326.91 127.71 1326.79 132.46 1326.39 137.19 C 1326.20 132.81 1326.08 128.44 1325.95 124.07 C 1313.71 124.02 1301.49 123.88 1289.28 123.55 L 1288.61 123.53 Z" />
</g>
<g id="#29292956">
<path fill="#292929" opacity="0.34" d=" M 1345.72 124.21 C 1350.30 123.83 1354.98 123.38 1359.63 123.41 L 1360.28 123.41 C 1355.66 123.59 1351.15 123.87 1346.60 124.16 L 1345.72 124.21 Z" />
</g>
<g id="#4a4a4ab0">
<path fill="#4a4a4a" opacity="0.69" d=" M 1359.63 123.41 C 1365.26 123.42 1370.93 123.47 1376.61 123.59 L 1377.26 123.60 C 1371.57 123.51 1365.92 123.42 1360.28 123.41 L 1359.63 123.41 Z" />
<path fill="#4a4a4a" opacity="0.69" d=" M 1660.72 219.38 C 1673.56 219.17 1686.42 219.21 1699.29 219.61 L 1698.61 219.62 C 1686.19 220.06 1673.77 220.03 1661.39 219.40 L 1660.72 219.38 Z" />
</g>
<g id="#666666f1">
<path fill="#666666" opacity="0.95" d=" M 1376.61 123.59 C 1396.25 122.61 1415.95 122.80 1435.62 123.47 L 1436.28 123.48 C 1416.60 124.08 1396.92 124.26 1377.26 123.60 L 1376.61 123.59 Z" />
</g>
<g id="#494949ad">
<path fill="#494949" opacity="0.68" d=" M 1435.62 123.47 C 1439.90 123.43 1444.27 123.42 1448.63 123.50 L 1449.27 123.51 C 1444.88 123.49 1440.59 123.49 1436.28 123.48 L 1435.62 123.47 Z" />
</g>
<g id="#2626265b">
<path fill="#262626" opacity="0.36" d=" M 1448.63 123.50 C 1451.68 123.52 1454.98 123.53 1458.14 123.69 C 1455.05 123.61 1452.23 123.56 1449.27 123.51 L 1448.63 123.50 Z" />
</g>
<g id="#676767ea">
<path fill="#676767" opacity="0.92" d=" M 1512.11 124.35 C 1516.76 123.84 1521.49 123.49 1526.21 123.22 C 1521.45 123.51 1516.81 123.93 1512.11 124.35 Z" />
</g>
<g id="#343434fc">
<path fill="#343434" opacity="1.00" d=" M 1526.21 123.22 C 1530.30 124.25 1531.62 129.03 1534.14 131.90 C 1552.00 159.81 1571.10 186.97 1588.13 215.40 C 1587.56 216.45 1587.23 217.61 1587.23 218.81 C 1585.57 219.11 1583.93 219.49 1582.26 219.52 C 1577.12 219.36 1572.10 219.07 1567.01 218.85 C 1563.98 213.31 1560.76 207.89 1557.43 202.53 C 1549.51 202.37 1541.62 202.38 1533.73 202.50 C 1529.88 202.50 1526.06 202.50 1522.28 202.50 C 1519.00 202.41 1516.01 202.37 1512.86 202.18 C 1510.76 202.01 1508.70 201.65 1506.64 201.32 C 1506.49 199.87 1506.35 198.41 1506.27 196.96 C 1505.97 193.70 1505.87 190.47 1505.87 187.22 C 1506.68 184.85 1508.43 182.97 1509.90 180.99 C 1512.84 181.29 1515.81 181.59 1518.83 181.89 C 1520.22 182.07 1521.64 182.10 1523.08 182.01 C 1524.54 181.99 1527.45 181.95 1528.91 181.93 C 1532.69 181.99 1536.77 182.03 1540.56 182.88 C 1541.56 183.44 1544.21 183.21 1543.22 181.52 C 1537.04 169.17 1528.05 158.48 1521.66 146.28 L 1521.22 145.21 C 1518.06 148.90 1515.01 152.70 1512.83 157.06 C 1502.67 174.53 1490.84 190.96 1480.14 208.09 C 1477.30 211.78 1475.43 216.36 1471.78 219.33 C 1467.07 219.39 1462.46 219.48 1457.81 219.41 C 1455.89 219.35 1453.96 219.14 1452.08 218.99 C 1453.71 214.31 1456.13 209.97 1458.69 205.73 C 1476.24 178.44 1494.62 151.67 1512.11 124.35 C 1516.81 123.93 1521.45 123.51 1526.21 123.22 Z" />
</g>
<g id="#26262660">
<path fill="#262626" opacity="0.38" d=" M 1627.83 123.83 C 1654.92 122.12 1682.09 123.33 1709.23 123.01 C 1708.90 127.74 1708.81 132.48 1708.38 137.20 C 1708.18 132.80 1708.07 128.40 1707.95 124.00 C 1681.24 124.05 1654.53 123.98 1627.83 123.83 Z" />
</g>
<g id="#616161e4">
<path fill="#616161" opacity="0.89" d=" M 1736.87 123.88 C 1740.90 123.68 1745.05 123.50 1749.18 123.56 C 1745.04 123.65 1740.93 123.76 1736.87 123.88 Z" />
</g>
<g id="#636363cc">
<path fill="#636363" opacity="0.80" d=" M 1815.05 122.90 C 1817.96 123.04 1821.37 123.22 1824.40 123.45 L 1823.68 123.52 C 1820.41 123.89 1817.42 124.27 1814.36 125.16 C 1814.53 124.60 1814.88 123.47 1815.05 122.90 Z" />
</g>
<g id="#32323276">
<path fill="#323232" opacity="0.46" d=" M 1824.40 123.45 C 1826.96 123.21 1829.55 123.33 1832.14 123.55 C 1829.27 123.49 1826.45 123.48 1823.68 123.52 L 1824.40 123.45 Z" />
</g>
<g id="#333333fe">
<path fill="#333333" opacity="1.00" d=" M 422.73 144.83 C 423.46 133.14 434.14 123.56 445.82 123.76 C 450.29 123.56 454.77 123.53 459.27 123.45 C 463.93 123.48 468.58 123.54 473.27 123.62 C 488.58 124.13 503.91 124.00 519.24 123.57 C 522.55 123.56 525.81 123.60 529.16 123.66 C 530.75 123.70 532.34 123.77 533.94 123.84 C 533.95 124.38 533.97 125.46 533.98 126.00 C 534.01 129.27 534.12 132.56 534.19 135.84 C 534.20 136.53 534.23 137.91 534.25 138.60 C 532.51 138.72 530.78 138.83 529.05 138.86 C 527.70 138.85 526.36 138.90 525.04 138.99 C 523.29 138.98 521.56 139.05 519.83 139.14 C 496.48 139.57 473.01 137.62 449.75 140.11 C 447.57 140.47 445.48 141.22 443.43 141.99 L 443.42 143.34 C 443.40 147.77 443.38 152.22 443.44 156.66 L 443.46 157.88 C 446.80 158.70 450.16 159.42 453.56 160.03 C 465.76 161.35 478.05 160.79 490.29 160.47 C 493.93 160.50 497.62 160.51 501.28 160.53 C 504.88 160.61 508.55 160.69 512.17 160.80 C 518.15 161.32 525.12 160.73 529.98 165.02 C 535.69 168.52 539.16 175.15 539.34 181.79 C 539.43 188.25 539.60 194.72 539.41 201.19 C 537.26 211.84 526.81 219.18 516.20 219.24 C 512.68 219.38 509.23 219.52 505.73 219.57 C 501.38 219.54 497.06 219.50 492.74 219.44 C 474.26 218.78 455.77 219.15 437.28 219.09 C 435.73 219.00 434.18 218.94 432.64 218.94 C 430.34 218.86 428.06 218.56 425.79 218.25 L 425.75 216.95 C 425.61 213.43 425.55 209.94 425.30 206.43 L 425.23 205.38 C 427.97 204.69 430.76 204.08 433.60 204.01 C 435.16 204.01 436.72 203.95 438.29 203.88 C 462.93 203.53 487.65 205.10 512.25 203.10 C 515.03 202.89 517.50 201.44 519.53 199.59 L 519.61 198.61 C 519.77 192.84 519.81 187.07 519.54 181.30 L 519.45 180.36 C 517.50 178.60 515.09 177.27 512.42 177.15 C 499.74 175.73 486.98 176.03 474.26 176.34 C 471.04 176.36 467.92 176.41 464.73 176.41 C 461.78 176.36 458.92 176.32 456.01 176.30 C 453.25 176.31 450.52 176.29 447.79 176.25 C 435.64 177.06 423.37 167.62 422.78 155.18 C 422.66 151.72 422.61 148.28 422.73 144.83 Z" />
<path fill="#333333" opacity="1.00" d=" M 562.84 123.70 C 564.33 123.66 567.32 123.57 568.81 123.53 C 571.61 123.48 574.42 123.46 577.25 123.45 C 580.26 123.50 583.21 123.54 586.27 123.62 C 603.08 124.25 619.91 124.03 636.73 123.45 C 639.55 123.42 642.39 123.41 645.25 123.43 C 648.22 123.50 651.13 123.54 654.16 123.62 C 655.92 123.69 659.44 123.82 661.21 123.89 C 661.22 124.62 661.24 126.10 661.26 126.84 C 661.24 129.93 661.34 133.05 661.36 136.15 C 661.35 136.87 661.35 138.30 661.35 139.02 C 659.65 139.03 657.97 139.03 656.29 139.03 C 654.91 139.07 652.16 139.14 650.78 139.17 C 647.37 139.26 644.09 139.41 640.73 139.44 C 621.72 139.06 602.72 138.67 583.72 139.05 C 583.28 139.08 582.42 139.13 581.99 139.16 C 581.84 146.39 581.79 153.62 582.03 160.85 C 582.45 160.88 583.29 160.94 583.71 160.96 C 601.04 161.32 618.37 160.91 635.70 160.55 C 639.35 160.59 643.08 160.70 646.76 160.80 C 648.14 160.84 650.91 160.92 652.29 160.96 C 653.91 160.96 655.53 160.97 657.17 160.98 C 657.17 161.69 657.18 163.12 657.19 163.83 C 657.14 167.15 657.20 170.49 657.20 173.81 C 657.21 174.39 657.21 175.54 657.21 176.11 C 655.85 176.20 654.49 176.28 653.14 176.36 C 650.27 176.48 647.50 176.63 644.68 176.75 C 632.84 177.06 621.01 177.11 609.18 177.12 C 600.68 177.09 592.20 176.78 583.72 177.03 C 583.30 177.06 582.44 177.12 582.01 177.15 C 581.88 186.01 582.02 194.87 582.21 203.72 C 603.46 204.23 624.71 203.91 645.97 203.82 C 647.49 203.87 650.55 203.98 652.08 204.03 C 653.41 204.11 654.76 204.13 656.11 204.02 C 657.81 203.93 659.52 203.84 661.24 203.78 C 661.25 204.54 661.27 206.08 661.28 206.84 C 661.25 209.93 661.35 213.05 661.36 216.15 C 661.36 216.93 661.35 218.51 661.34 219.29 C 659.80 219.34 656.73 219.43 655.19 219.48 C 652.35 219.52 649.53 219.56 646.73 219.58 C 643.68 219.52 640.75 219.50 637.74 219.45 C 620.73 218.84 603.71 218.86 586.71 219.50 C 583.34 219.49 580.07 219.53 576.74 219.55 C 574.09 219.53 571.46 219.50 568.84 219.46 C 567.29 219.41 564.21 219.31 562.66 219.26 C 562.62 217.74 562.55 214.71 562.51 213.19 C 562.45 210.36 562.42 207.54 562.42 204.73 C 562.41 201.72 562.51 198.74 562.56 195.74 C 563.16 179.41 563.07 163.06 562.42 146.74 C 562.38 144.24 562.37 141.76 562.38 139.27 C 562.41 136.46 562.47 133.65 562.56 130.84 C 562.63 129.05 562.77 125.48 562.84 123.70 Z" />
<path fill="#333333" opacity="1.00" d=" M 689.94 130.95 C 695.11 125.13 703.51 124.27 710.83 123.72 C 714.32 123.56 717.75 123.51 721.29 123.48 C 742.09 124.18 762.90 123.93 783.71 123.88 C 785.26 123.94 786.83 123.99 788.40 123.97 C 790.73 123.41 792.27 125.70 791.93 127.83 C 791.95 129.16 791.97 131.83 791.99 133.16 C 791.98 135.05 791.94 136.95 791.89 138.85 C 789.98 138.99 788.07 139.13 786.17 139.21 C 782.63 139.31 779.22 139.44 775.73 139.44 C 771.80 139.35 767.89 139.24 764.00 139.14 C 744.85 139.92 724.81 136.04 706.23 141.79 C 705.00 142.13 704.76 143.66 704.69 144.73 C 703.69 161.82 703.40 178.98 704.03 196.09 C 703.99 198.85 706.08 200.84 708.27 202.15 L 709.29 202.78 C 710.13 203.32 711.07 203.57 712.10 203.53 C 727.15 204.24 742.22 204.02 757.28 203.55 C 761.92 203.55 766.60 203.50 771.27 203.52 C 774.86 203.61 778.55 203.68 782.17 203.92 C 785.71 204.22 789.32 204.75 792.83 205.47 L 792.78 206.53 C 792.55 210.00 792.42 213.50 792.36 216.99 L 792.32 218.41 C 790.01 218.68 787.70 218.92 785.39 218.97 C 783.82 218.95 782.26 219.01 780.71 219.09 C 764.38 219.08 748.05 219.01 731.72 219.50 C 727.89 219.48 724.08 219.48 720.28 219.47 C 716.42 219.38 712.65 219.37 708.82 219.19 C 698.21 219.57 686.75 212.55 685.00 201.61 C 685.05 200.63 685.06 199.66 685.02 198.69 C 684.81 192.03 684.59 185.38 684.47 178.72 C 684.49 172.72 684.46 166.73 684.47 160.73 C 684.48 156.76 684.53 152.79 684.62 148.83 C 684.86 144.96 684.69 140.90 686.17 137.23 C 687.32 135.08 688.59 132.98 689.94 130.95 Z" />
<path fill="#333333" opacity="1.00" d=" M 815.47 123.69 C 816.14 123.68 817.49 123.67 818.16 123.66 C 822.82 123.63 827.46 123.55 832.17 123.59 C 835.08 122.91 834.73 126.61 835.04 128.50 C 835.01 129.77 835.05 131.03 835.16 132.30 C 835.30 135.11 835.43 137.93 835.54 140.75 C 835.49 144.25 835.54 147.77 835.48 151.28 C 834.95 166.97 834.63 182.70 835.53 198.39 C 835.40 200.01 836.43 201.53 838.06 201.86 L 839.35 202.36 C 840.55 202.87 841.83 203.20 843.17 203.24 C 864.49 204.21 885.97 204.98 907.26 203.16 C 909.27 202.79 911.25 202.23 913.25 201.74 C 916.26 182.22 914.90 162.37 914.51 142.71 C 914.55 139.24 914.74 135.78 914.90 132.32 C 915.01 130.75 915.07 129.18 914.96 127.62 C 914.91 126.65 914.81 124.70 914.76 123.73 C 915.37 123.73 916.58 123.73 917.18 123.73 C 922.91 123.75 928.65 123.72 934.41 123.68 C 933.87 151.24 933.51 178.83 934.48 206.39 C 933.18 206.19 932.26 207.29 931.86 208.38 C 929.72 213.69 925.14 217.52 919.73 219.14 C 894.08 219.10 868.44 218.79 842.80 219.40 C 833.76 220.06 824.03 216.85 818.58 209.37 C 814.96 204.81 815.05 198.71 814.67 193.17 C 814.57 189.02 814.50 184.87 814.47 180.72 C 814.45 175.72 814.49 170.73 814.54 165.73 C 814.83 155.21 814.79 144.70 814.90 134.18 C 814.95 132.82 815.06 130.08 815.11 128.72 C 815.17 127.04 815.32 125.36 815.47 123.69 Z" />
<path fill="#333333" opacity="1.00" d=" M 960.50 124.10 C 961.56 124.08 963.67 124.05 964.73 124.03 C 966.10 124.00 968.85 123.95 970.22 123.92 C 982.24 123.84 994.26 123.79 1006.29 123.54 C 1012.95 123.61 1019.60 123.46 1026.29 123.42 C 1031.90 123.48 1037.53 123.50 1043.18 123.59 C 1051.04 123.88 1059.62 124.81 1065.80 130.22 C 1068.81 133.56 1070.93 137.91 1070.97 142.47 C 1070.95 143.85 1071.11 145.22 1071.38 146.58 C 1071.91 149.48 1071.94 152.36 1071.47 155.22 C 1071.09 156.34 1070.89 157.51 1071.01 158.70 C 1071.23 169.74 1060.25 175.84 1050.70 177.50 L 1049.30 177.82 C 1050.62 180.41 1052.04 182.94 1053.59 185.40 C 1059.69 196.31 1066.36 207.21 1069.73 219.36 C 1069.11 219.36 1067.86 219.36 1067.24 219.36 C 1063.51 219.32 1059.94 219.35 1056.26 219.22 C 1054.90 219.12 1052.17 218.94 1050.81 218.85 C 1049.27 218.84 1048.77 217.02 1047.91 216.07 C 1040.58 203.49 1034.55 190.20 1027.37 177.55 C 1011.64 176.93 995.89 176.67 980.16 177.07 C 980.13 177.49 980.09 178.34 980.06 178.77 C 979.88 188.47 980.13 198.17 980.08 207.88 C 980.00 209.24 979.99 210.61 980.04 211.98 C 979.97 213.02 979.96 214.07 980.00 215.12 C 979.75 216.50 979.80 219.63 977.76 219.32 C 973.73 219.36 969.72 219.38 965.73 219.37 C 964.17 219.34 962.61 219.30 961.07 219.27 C 960.97 207.09 960.76 194.90 960.60 182.72 C 961.12 163.19 961.30 143.63 960.50 124.10 M 980.00 140.31 C 979.49 147.19 979.78 154.10 979.69 160.99 C 1001.24 163.16 1023.05 162.09 1044.67 161.20 L 1044.92 160.34 C 1047.09 161.31 1049.14 160.05 1050.52 158.40 C 1052.42 153.34 1051.13 147.84 1050.66 142.63 C 1049.01 141.27 1046.83 140.89 1044.76 141.00 C 1044.63 140.66 1044.38 139.97 1044.25 139.63 C 1022.87 138.62 1001.32 138.10 980.00 140.31 Z" />
<path fill="#333333" opacity="1.00" d=" M 1094.82 123.64 C 1096.32 123.61 1099.32 123.54 1100.81 123.51 C 1103.59 123.47 1106.41 123.45 1109.25 123.46 C 1112.26 123.51 1115.16 123.54 1118.27 123.62 C 1135.08 124.25 1151.91 124.03 1168.73 123.45 C 1171.53 123.42 1174.37 123.41 1177.25 123.43 C 1180.23 123.50 1183.09 123.54 1186.16 123.62 C 1187.92 123.69 1191.44 123.82 1193.21 123.89 C 1193.22 124.62 1193.24 126.10 1193.26 126.84 C 1193.19 129.93 1193.35 133.04 1193.36 136.14 C 1193.36 136.92 1193.35 138.46 1193.35 139.23 C 1191.58 139.16 1189.84 139.08 1188.10 138.98 C 1186.75 138.86 1185.40 138.88 1184.08 138.97 C 1182.56 139.01 1179.52 139.10 1178.00 139.15 C 1157.04 139.11 1136.08 138.62 1115.14 139.56 C 1114.75 146.18 1114.36 152.81 1114.46 159.45 L 1114.47 160.30 L 1115.52 160.35 C 1134.09 161.40 1152.70 161.03 1171.29 160.52 C 1174.32 160.63 1177.57 160.79 1180.68 160.97 C 1181.93 161.08 1183.21 161.10 1184.49 160.97 C 1186.07 160.87 1187.67 160.78 1189.28 160.72 C 1189.29 161.33 1189.29 162.56 1189.29 163.18 C 1189.25 167.59 1189.27 172.02 1189.32 176.44 C 1183.09 176.41 1176.91 176.46 1170.72 176.52 C 1166.33 176.52 1162.02 176.51 1157.69 176.62 C 1147.72 176.88 1137.77 177.14 1127.81 177.15 C 1123.41 177.09 1119.08 177.02 1114.74 176.94 L 1114.73 177.82 C 1114.43 186.44 1114.21 195.08 1114.18 203.72 C 1135.43 204.23 1156.69 203.91 1177.95 203.86 C 1179.49 203.90 1182.55 203.99 1184.08 204.04 C 1185.40 204.11 1186.75 204.13 1188.10 204.02 C 1189.80 203.92 1191.51 203.84 1193.24 203.77 C 1193.25 204.54 1193.27 206.08 1193.28 206.85 C 1193.20 209.93 1193.36 213.05 1193.36 216.15 C 1193.36 216.93 1193.35 218.51 1193.34 219.29 C 1191.80 219.34 1188.73 219.43 1187.19 219.48 C 1184.34 219.52 1181.52 219.56 1178.73 219.58 C 1175.63 219.52 1172.76 219.50 1169.74 219.45 C 1152.73 218.84 1135.71 218.86 1118.71 219.50 C 1115.30 219.49 1112.08 219.53 1108.74 219.55 C 1106.08 219.53 1103.44 219.50 1100.84 219.46 C 1099.31 219.41 1096.26 219.31 1094.73 219.26 C 1094.67 217.74 1094.55 214.70 1094.49 213.17 C 1094.40 210.53 1094.36 207.90 1094.36 205.27 C 1094.35 202.42 1094.38 199.57 1094.47 196.72 C 1095.16 180.06 1095.10 163.38 1094.43 146.72 C 1094.40 144.05 1094.40 141.39 1094.45 138.73 C 1094.41 135.76 1094.59 132.81 1094.63 129.85 C 1094.68 128.30 1094.78 125.19 1094.82 123.64 Z" />
<path fill="#333333" opacity="1.00" d=" M 1215.57 140.82 C 1217.60 130.18 1228.54 124.20 1238.70 124.01 C 1240.08 123.97 1242.84 123.89 1244.23 123.85 C 1259.24 123.90 1274.25 123.90 1289.28 123.55 C 1301.49 123.88 1313.71 124.02 1325.95 124.07 C 1326.08 128.44 1326.20 132.81 1326.39 137.19 C 1326.41 137.65 1326.44 138.57 1326.45 139.03 C 1324.71 139.03 1322.99 139.03 1321.29 139.03 C 1319.91 139.07 1317.16 139.13 1315.79 139.17 C 1311.99 139.26 1308.43 139.42 1304.72 139.46 C 1286.12 139.13 1267.53 138.43 1248.95 139.06 C 1244.97 138.97 1240.95 139.54 1237.46 141.49 C 1236.71 142.50 1236.14 143.64 1235.79 144.84 C 1235.68 148.29 1235.69 151.75 1235.85 155.21 C 1235.98 155.83 1236.25 157.07 1236.39 157.70 C 1239.26 158.87 1242.22 159.35 1245.35 159.86 C 1257.93 161.40 1270.63 160.84 1283.28 160.50 C 1286.88 160.51 1290.63 160.51 1294.28 160.52 C 1297.84 160.60 1301.57 160.66 1305.18 160.84 C 1311.52 161.59 1318.88 161.45 1323.97 166.03 C 1329.03 169.00 1331.15 174.92 1331.08 180.52 C 1331.16 181.71 1331.32 184.08 1331.39 185.27 C 1331.42 188.62 1331.91 192.04 1331.39 195.40 C 1331.10 196.75 1330.95 198.14 1331.04 199.53 C 1331.22 204.17 1329.93 209.10 1326.17 212.15 C 1320.82 217.88 1312.61 219.05 1305.18 219.30 C 1299.98 219.39 1294.87 219.49 1289.72 219.53 C 1283.02 219.44 1276.38 219.44 1269.72 219.42 C 1256.89 218.98 1244.06 219.16 1231.25 219.50 C 1228.41 219.48 1225.62 219.45 1222.85 219.40 C 1221.48 219.35 1220.12 219.30 1218.78 219.25 C 1218.77 218.47 1218.75 216.93 1218.73 216.16 C 1218.60 213.04 1218.68 209.96 1218.66 206.85 C 1218.66 206.12 1218.67 204.65 1218.68 203.92 C 1220.38 203.86 1222.11 203.79 1223.85 203.75 C 1227.96 203.65 1232.11 203.59 1236.28 203.55 C 1254.85 203.89 1273.43 204.40 1292.02 204.02 C 1297.53 203.78 1303.23 203.89 1308.61 202.36 L 1309.40 202.15 C 1311.46 201.90 1311.27 199.44 1311.25 197.90 C 1311.26 192.62 1311.48 187.35 1311.34 182.07 C 1311.44 180.52 1311.27 178.26 1309.27 178.14 C 1307.78 177.77 1306.31 177.38 1304.86 176.96 C 1304.55 176.88 1303.93 176.72 1303.62 176.63 C 1287.67 175.39 1271.67 176.13 1255.72 176.56 C 1252.89 176.47 1250.10 176.34 1247.34 176.20 C 1245.76 176.07 1244.19 176.01 1242.64 176.07 C 1230.06 177.69 1215.16 169.37 1215.65 155.19 C 1215.51 150.40 1215.40 145.61 1215.57 140.82 Z" />
<path fill="#333333" opacity="1.00" d=" M 1346.60 124.16 C 1351.15 123.87 1355.66 123.59 1360.28 123.41 C 1365.92 123.42 1371.57 123.51 1377.26 123.60 C 1396.92 124.26 1416.60 124.08 1436.28 123.48 C 1440.59 123.49 1444.88 123.49 1449.27 123.51 C 1452.23 123.56 1455.05 123.61 1458.14 123.69 C 1459.82 123.74 1461.51 123.81 1463.22 123.89 C 1463.23 124.62 1463.26 126.10 1463.27 126.84 C 1463.17 129.93 1463.35 133.04 1463.34 136.14 C 1463.33 136.97 1463.31 138.64 1463.30 139.47 C 1461.07 139.47 1458.85 139.57 1456.65 139.30 C 1455.31 139.04 1453.97 138.82 1452.64 138.93 C 1440.43 139.10 1428.25 138.89 1416.08 139.41 C 1414.25 160.31 1415.00 181.32 1415.55 202.26 C 1415.38 205.06 1415.22 207.87 1415.07 210.68 C 1414.93 211.94 1414.89 213.21 1415.03 214.48 C 1415.11 216.13 1415.18 217.78 1415.26 219.43 C 1413.59 219.49 1411.94 219.55 1410.29 219.53 C 1406.57 219.45 1402.88 219.37 1399.22 219.28 C 1398.36 219.25 1396.63 219.20 1395.77 219.18 C 1395.81 217.58 1395.88 215.99 1395.97 214.40 C 1396.08 212.83 1396.00 211.26 1395.91 209.69 C 1395.64 206.02 1395.60 202.38 1395.52 198.72 C 1396.01 179.34 1396.41 159.94 1395.42 140.57 L 1395.38 139.72 L 1394.41 139.68 C 1382.95 139.12 1371.50 139.21 1360.05 139.15 C 1358.55 139.09 1355.54 138.97 1354.04 138.91 C 1352.95 138.81 1351.88 138.82 1350.84 138.96 C 1349.84 139.06 1347.85 139.25 1346.85 139.34 C 1346.84 138.71 1346.81 137.46 1346.80 136.84 C 1346.71 132.61 1346.64 128.38 1346.60 124.16 Z" />
<path fill="#333333" opacity="1.00" d=" M 1602.02 142.69 C 1601.61 129.26 1616.46 123.23 1627.83 123.83 C 1654.53 123.98 1681.24 124.05 1707.95 124.00 C 1708.07 128.40 1708.18 132.80 1708.38 137.20 C 1708.40 137.71 1708.43 138.71 1708.44 139.22 C 1706.73 139.17 1705.05 139.11 1703.39 139.05 C 1701.80 138.94 1700.24 139.02 1698.70 139.15 C 1695.84 139.32 1693.03 139.45 1690.27 139.55 C 1669.97 139.15 1649.63 138.11 1629.38 139.81 C 1629.11 139.89 1628.57 140.05 1628.31 140.12 C 1626.30 140.74 1624.30 141.32 1622.31 141.89 C 1622.21 142.86 1622.14 143.82 1622.10 144.79 C 1620.84 162.52 1620.04 180.42 1621.76 198.14 C 1622.41 199.42 1623.29 200.58 1624.21 201.72 C 1625.22 203.18 1627.20 203.10 1628.81 203.19 C 1648.27 204.39 1667.78 204.05 1687.27 203.52 C 1690.65 203.59 1694.29 203.72 1697.76 203.83 C 1699.14 203.86 1701.90 203.93 1703.28 203.96 C 1704.95 203.96 1706.65 203.97 1708.37 203.97 C 1707.59 208.84 1711.47 216.03 1706.78 219.49 C 1704.23 219.55 1701.73 219.59 1699.29 219.61 C 1686.42 219.21 1673.56 219.17 1660.72 219.38 C 1655.12 219.27 1649.54 219.16 1644.00 219.14 C 1638.87 219.14 1633.86 219.34 1628.79 219.30 C 1617.14 220.48 1601.80 213.76 1601.99 200.31 C 1601.93 198.93 1601.80 196.16 1601.74 194.78 C 1601.50 190.75 1601.30 186.72 1601.14 182.70 C 1600.92 174.90 1600.86 167.09 1601.18 159.29 C 1601.33 155.60 1601.64 151.93 1601.78 148.24 C 1601.84 146.85 1601.96 144.08 1602.02 142.69 Z" />
</g>
<g id="#0e0e0e35">
<path fill="#0e0e0e" opacity="0.21" d=" M 934.41 123.68 L 934.43 123.14 C 935.38 151.24 935.26 179.39 934.56 207.50 L 934.53 207.09 L 934.48 206.39 C 933.51 178.83 933.87 151.24 934.41 123.68 Z" />
</g>
<g id="#1d1d1d8f">
<path fill="#1d1d1d" opacity="0.56" d=" M 960.48 123.53 L 960.50 124.10 C 961.30 143.63 961.12 163.19 960.60 182.72 L 960.58 183.39 C 959.69 163.45 959.64 143.47 960.48 123.53 Z" />
</g>
<g id="#1d1d1d90">
<path fill="#1d1d1d" opacity="0.56" d=" M 1732.50 123.51 L 1732.52 124.08 C 1733.27 143.29 1733.13 162.53 1732.57 181.74 L 1732.55 182.41 C 1731.69 162.79 1731.67 143.13 1732.50 123.51 Z" />
</g>
<g id="#343434fd">
<path fill="#343434" opacity="1.00" d=" M 1732.52 124.08 C 1733.95 124.00 1735.40 123.93 1736.87 123.88 C 1740.93 123.76 1745.04 123.65 1749.18 123.56 C 1749.79 123.55 1751.01 123.54 1751.63 123.53 C 1751.72 125.32 1751.81 127.11 1751.86 128.91 C 1751.81 130.25 1751.86 131.58 1751.98 132.92 C 1752.02 134.44 1752.08 137.48 1752.12 139.00 C 1752.17 146.01 1751.57 153.05 1752.16 160.06 C 1752.22 160.51 1752.33 161.41 1752.39 161.86 C 1762.11 162.12 1771.85 161.98 1781.61 161.84 C 1782.12 161.10 1782.66 160.35 1783.23 159.61 C 1792.87 147.54 1803.25 135.90 1814.36 125.16 C 1817.42 124.27 1820.41 123.89 1823.68 123.52 C 1826.45 123.48 1829.27 123.49 1832.14 123.55 C 1833.12 123.60 1835.06 123.70 1836.03 123.74 C 1834.26 130.29 1829.44 135.17 1825.08 140.07 C 1819.50 146.16 1813.77 152.11 1807.66 157.65 C 1804.27 160.86 1799.78 163.49 1798.14 168.10 C 1798.73 170.67 1800.63 172.64 1802.35 174.55 C 1812.72 185.30 1822.13 196.94 1831.45 208.61 C 1833.02 210.95 1835.34 213.12 1835.88 216.03 C 1836.74 218.17 1834.15 219.81 1832.28 219.76 C 1826.43 219.48 1820.65 219.04 1814.86 218.70 C 1805.34 206.03 1793.73 195.01 1785.18 181.62 C 1783.26 179.08 1780.77 176.09 1776.97 177.24 C 1768.70 176.62 1760.41 176.70 1752.17 176.88 C 1752.15 177.31 1752.10 178.19 1752.07 178.62 C 1751.87 188.37 1752.12 198.13 1752.08 207.88 C 1751.99 209.24 1751.97 210.61 1752.04 211.98 C 1751.96 213.02 1751.95 214.07 1752.00 215.12 C 1751.73 216.49 1751.79 219.64 1749.76 219.32 C 1745.71 219.36 1741.70 219.38 1737.73 219.37 C 1736.16 219.34 1734.60 219.30 1733.07 219.27 C 1733.00 206.76 1732.74 194.25 1732.57 181.74 C 1733.13 162.53 1733.27 143.29 1732.52 124.08 Z" />
</g>
<g id="#525252bf">
<path fill="#525252" opacity="0.75" d=" M 1345.72 124.21 L 1346.60 124.16 C 1346.64 128.38 1346.71 132.61 1346.80 136.84 L 1346.81 137.50 C 1346.42 133.07 1346.06 128.64 1345.72 124.21 Z" />
</g>
<g id="#6a6a6aa9">
<path fill="#6a6a6a" opacity="0.66" d=" M 533.98 126.00 L 535.15 125.98 C 534.92 128.62 534.44 133.89 534.21 136.52 L 534.19 135.84 C 534.12 132.56 534.01 129.27 533.98 126.00 Z" />
</g>
<g id="#525252c4">
<path fill="#525252" opacity="0.77" d=" M 661.26 126.84 C 661.30 129.93 661.47 133.05 661.36 136.15 C 661.34 133.05 661.24 129.93 661.26 126.84 Z" />
</g>
<g id="#7474748e">
<path fill="#747474" opacity="0.56" d=" M 791.93 127.83 C 794.17 127.96 794.22 133.01 791.99 133.16 C 791.97 131.83 791.95 129.16 791.93 127.83 Z" />
</g>
<g id="#3939395b">
<path fill="#393939" opacity="0.36" d=" M 914.86 132.59 C 913.01 131.80 912.70 127.90 914.96 127.62 C 915.07 129.18 915.01 130.75 914.90 132.32 L 914.86 132.59 Z" />
<path fill="#393939" opacity="0.36" d=" M 1395.89 209.46 L 1395.91 209.69 C 1396.00 211.26 1396.08 212.83 1395.97 214.40 C 1393.67 214.17 1394.02 210.24 1395.89 209.46 Z" />
</g>
<g id="#555555c9">
<path fill="#555555" opacity="0.79" d=" M 1193.26 126.84 C 1193.25 129.93 1193.49 133.04 1193.36 136.14 C 1193.35 133.04 1193.19 129.93 1193.26 126.84 Z" />
<path fill="#555555" opacity="0.79" d=" M 1463.27 126.84 C 1463.23 129.93 1463.48 133.04 1463.34 136.14 C 1463.35 133.04 1463.17 129.93 1463.27 126.84 Z" />
<path fill="#555555" opacity="0.79" d=" M 661.28 206.84 C 661.31 209.93 661.48 213.05 661.36 216.15 C 661.35 213.05 661.25 209.93 661.28 206.84 Z" />
<path fill="#555555" opacity="0.79" d=" M 1193.28 206.85 C 1193.27 209.93 1193.49 213.05 1193.36 216.15 C 1193.36 213.05 1193.20 209.93 1193.28 206.85 Z" />
</g>
<g id="#54545467">
<path fill="#545454" opacity="0.40" d=" M 814.83 134.47 C 812.92 133.40 812.72 129.09 815.11 128.72 C 815.06 130.08 814.95 132.82 814.90 134.18 L 814.83 134.47 Z" />
</g>
<g id="#3232323e">
<path fill="#323232" opacity="0.24" d=" M 835.04 128.50 C 837.13 128.54 837.14 132.20 835.27 132.69 L 835.16 132.30 C 835.05 131.03 835.01 129.77 835.04 128.50 Z" />
</g>
<g id="#52525265">
<path fill="#525252" opacity="0.40" d=" M 1751.86 128.91 C 1753.80 128.72 1753.87 132.14 1752.43 132.94 L 1751.98 132.92 C 1751.86 131.58 1751.81 130.25 1751.86 128.91 Z" />
</g>
<g id="#37373759">
<path fill="#373737" opacity="0.35" d=" M 1094.44 139.40 C 1094.38 136.20 1094.46 133.03 1094.63 129.85 C 1094.59 132.81 1094.41 135.76 1094.45 138.73 L 1094.44 139.40 Z" />
</g>
<g id="#2828285e">
<path fill="#282828" opacity="0.37" d=" M 562.37 138.61 C 562.32 136.01 562.38 133.42 562.56 130.84 C 562.47 133.65 562.41 136.46 562.38 139.27 L 562.37 138.61 Z" />
</g>
<g id="#5a5a5ac0">
<path fill="#5a5a5a" opacity="0.75" d=" M 686.17 137.23 C 687.17 135.00 688.46 132.90 689.94 130.95 C 688.59 132.98 687.32 135.08 686.17 137.23 Z" />
</g>
<g id="#6c6c6c85">
<path fill="#6c6c6c" opacity="0.52" d=" M 835.16 132.30 L 835.27 132.69 C 835.94 135.56 835.71 138.53 835.56 141.44 L 835.54 140.75 C 835.43 137.93 835.30 135.11 835.16 132.30 Z" />
</g>
<g id="#757575bb">
<path fill="#757575" opacity="0.73" d=" M 914.86 132.59 L 914.90 132.32 C 914.74 135.78 914.55 139.24 914.51 142.71 L 914.48 143.40 C 914.43 139.79 914.31 136.17 914.86 132.59 Z" />
</g>
<g id="#a2a2a2c7">
<path fill="#a2a2a2" opacity="0.78" d=" M 1751.98 132.92 L 1752.43 132.94 C 1754.03 134.57 1753.88 137.80 1752.14 139.27 L 1752.12 139.00 C 1752.08 137.48 1752.02 134.44 1751.98 132.92 Z" />
</g>
<g id="#7a20299f">
<path fill="#7a2029" opacity="0.62" d=" M 338.93 137.69 C 338.89 136.51 339.10 135.35 339.48 134.24 C 341.19 134.71 340.82 137.97 338.93 137.69 Z" />
</g>
<g id="#939393b4">
<path fill="#939393" opacity="0.71" d=" M 814.83 134.47 L 814.90 134.18 C 814.79 144.70 814.83 155.21 814.54 165.73 L 814.52 166.40 C 814.28 155.80 812.98 144.99 814.83 134.47 Z" />
</g>
<g id="#9e9e9efc">
<path fill="#9e9e9e" opacity="1.00" d=" M 449.75 140.11 C 473.01 137.62 496.48 139.57 519.83 139.14 L 519.61 139.16 C 508.83 140.14 498.00 140.18 487.20 140.29 C 477.89 140.18 468.60 140.09 459.30 140.01 C 458.11 140.03 455.74 140.06 454.55 140.07 L 453.71 140.08 C 452.38 140.07 451.06 140.09 449.75 140.11 Z" />
</g>
<g id="#737373b7">
<path fill="#737373" opacity="0.72" d=" M 519.83 139.14 C 521.56 139.05 523.29 138.98 525.04 138.99 L 525.02 139.47 C 523.68 141.05 520.76 140.83 519.61 139.16 L 519.83 139.14 Z" />
</g>
<g id="#3b3b3b5e">
<path fill="#3b3b3b" opacity="0.37" d=" M 525.04 138.99 C 526.36 138.90 527.70 138.85 529.05 138.86 C 529.22 140.79 525.83 140.91 525.02 139.47 L 525.04 138.99 Z" />
</g>
<g id="#4a4a4aaf">
<path fill="#4a4a4a" opacity="0.69" d=" M 562.37 138.61 L 562.38 139.27 C 562.37 141.76 562.38 144.24 562.42 146.74 L 562.41 147.40 C 562.31 144.47 562.30 141.53 562.37 138.61 Z" />
</g>
<g id="#646464ff">
<path fill="#646464" opacity="1.00" d=" M 581.99 139.16 C 582.42 139.13 583.28 139.08 583.72 139.05 L 583.69 139.80 C 583.38 146.59 583.38 153.40 583.68 160.21 L 583.71 160.96 C 583.29 160.94 582.45 160.88 582.03 160.85 C 581.79 153.62 581.84 146.39 581.99 139.16 Z" />
</g>
<g id="#9e9e9efa">
<path fill="#9e9e9e" opacity="0.98" d=" M 583.72 139.05 C 602.72 138.67 621.72 139.06 640.73 139.44 L 641.39 139.45 C 622.16 140.34 602.92 140.09 583.69 139.80 L 583.72 139.05 Z" />
<path fill="#9e9e9e" opacity="0.98" d=" M 1395.42 140.57 C 1396.41 159.94 1396.01 179.34 1395.52 198.72 L 1395.50 199.39 C 1394.71 179.79 1394.73 160.17 1395.42 140.57 Z" />
</g>
<g id="#717171b5">
<path fill="#717171" opacity="0.71" d=" M 640.73 139.44 C 644.09 139.41 647.37 139.26 650.78 139.17 L 650.56 139.19 C 647.43 139.32 644.46 139.47 641.39 139.45 L 640.73 139.44 Z" />
</g>
<g id="#3d3d3d61">
<path fill="#3d3d3d" opacity="0.38" d=" M 650.78 139.17 C 652.16 139.14 654.91 139.07 656.29 139.03 C 655.98 141.49 651.60 141.08 650.56 139.19 L 650.78 139.17 Z" />
</g>
<g id="#939393e9">
<path fill="#939393" opacity="0.91" d=" M 706.23 141.79 C 724.81 136.04 744.85 139.92 764.00 139.14 L 764.00 140.06 C 744.76 140.48 725.28 138.43 706.23 141.79 Z" />
</g>
<g id="#6f6f6fb2">
<path fill="#6f6f6f" opacity="0.70" d=" M 764.00 139.14 C 767.89 139.24 771.80 139.35 775.73 139.44 L 776.40 139.46 C 772.25 139.67 768.12 139.87 764.00 140.06 L 764.00 139.14 Z" />
</g>
<g id="#3b3b3b5f">
<path fill="#3b3b3b" opacity="0.37" d=" M 775.73 139.44 C 779.22 139.44 782.63 139.31 786.17 139.21 C 782.86 139.36 779.67 139.56 776.40 139.46 L 775.73 139.44 Z" />
</g>
<g id="#9c9c9cff">
<path fill="#9c9c9c" opacity="1.00" d=" M 980.00 140.31 C 1001.32 138.10 1022.87 138.62 1044.25 139.63 C 1042.85 139.41 1041.49 139.54 1040.16 140.03 C 1020.39 140.13 1000.62 139.60 980.88 140.23 L 980.00 140.31 Z" />
</g>
<g id="#6e6e6eaf">
<path fill="#6e6e6e" opacity="0.69" d=" M 1094.44 139.40 L 1094.45 138.73 C 1094.40 141.39 1094.40 144.05 1094.43 146.72 L 1094.42 147.40 C 1094.33 144.73 1094.34 142.06 1094.44 139.40 Z" />
</g>
<g id="#a0a0a0fd">
<path fill="#a0a0a0" opacity="1.00" d=" M 1115.14 139.56 C 1136.08 138.62 1157.04 139.11 1178.00 139.15 L 1177.72 139.17 C 1167.55 140.02 1157.35 140.17 1147.17 140.21 C 1136.48 140.06 1125.80 140.09 1115.14 139.56 Z" />
<path fill="#a0a0a0" opacity="1.00" d=" M 1416.08 139.41 C 1428.25 138.89 1440.43 139.10 1452.64 138.93 L 1452.19 139.24 C 1446.50 140.45 1440.55 140.05 1434.80 140.22 C 1428.53 140.03 1422.30 139.76 1416.08 139.41 Z" />
</g>
<g id="#696969a7">
<path fill="#696969" opacity="0.65" d=" M 1178.00 139.15 C 1179.52 139.10 1182.56 139.01 1184.08 138.97 L 1184.06 139.41 C 1182.42 141.03 1179.19 140.93 1177.72 139.17 L 1178.00 139.15 Z" />
</g>
<g id="#3131314f">
<path fill="#313131" opacity="0.31" d=" M 1184.08 138.97 C 1185.40 138.88 1186.75 138.86 1188.10 138.98 C 1188.21 140.92 1184.80 140.86 1184.06 139.41 L 1184.08 138.97 Z" />
</g>
<g id="#9b9b9bf9">
<path fill="#9b9b9b" opacity="0.98" d=" M 1237.46 141.49 C 1240.95 139.54 1244.97 138.97 1248.95 139.06 C 1267.53 138.43 1286.12 139.13 1304.72 139.46 L 1305.39 139.47 C 1285.82 140.19 1266.23 140.31 1246.66 139.91 C 1245.47 139.70 1244.29 139.86 1243.20 140.28 C 1241.30 140.80 1239.37 141.14 1237.46 141.49 Z" />
</g>
<g id="#797979c0">
<path fill="#797979" opacity="0.75" d=" M 1304.72 139.46 C 1308.43 139.42 1311.99 139.26 1315.79 139.17 L 1315.56 139.18 C 1312.04 139.36 1308.81 139.55 1305.39 139.47 L 1304.72 139.46 Z" />
</g>
<g id="#42424269">
<path fill="#424242" opacity="0.41" d=" M 1315.79 139.17 C 1317.16 139.13 1319.91 139.07 1321.29 139.03 C 1320.96 141.48 1316.59 141.08 1315.56 139.18 L 1315.79 139.17 Z" />
</g>
<g id="#3a3a3a5c">
<path fill="#3a3a3a" opacity="0.36" d=" M 1350.84 138.96 C 1351.88 138.82 1352.95 138.81 1354.04 138.91 L 1354.07 139.42 C 1353.50 140.82 1350.46 140.73 1350.84 138.96 Z" />
</g>
<g id="#727272b5">
<path fill="#727272" opacity="0.71" d=" M 1354.04 138.91 C 1355.54 138.97 1358.55 139.09 1360.05 139.15 L 1360.33 139.19 C 1358.83 140.85 1355.65 141.05 1354.07 139.42 L 1354.04 138.91 Z" />
</g>
<g id="#9e9e9efb">
<path fill="#9e9e9e" opacity="1.00" d=" M 1360.05 139.15 C 1371.50 139.21 1382.95 139.12 1394.41 139.68 C 1383.05 140.03 1371.64 140.35 1360.33 139.19 L 1360.05 139.15 Z" />
<path fill="#9e9e9e" opacity="1.00" d=" M 583.68 160.21 C 601.24 159.89 618.82 159.70 636.37 160.54 L 635.70 160.55 C 618.37 160.91 601.04 161.32 583.71 160.96 L 583.68 160.21 Z" />
<path fill="#9e9e9e" opacity="1.00" d=" M 1115.52 160.35 C 1133.86 159.87 1152.24 159.64 1170.59 160.49 L 1171.29 160.52 C 1152.70 161.03 1134.09 161.40 1115.52 160.35 Z" />
</g>
<g id="#666666a2">
<path fill="#666666" opacity="0.64" d=" M 1452.64 138.93 C 1453.97 138.82 1455.31 139.04 1456.65 139.30 C 1455.74 140.80 1452.83 141.09 1452.19 139.24 L 1452.64 138.93 Z" />
</g>
<g id="#9d9d9dfb">
<path fill="#9d9d9d" opacity="1.00" d=" M 1629.38 139.81 C 1649.63 138.11 1669.97 139.15 1690.27 139.55 L 1689.58 139.58 C 1670.52 140.16 1651.46 140.27 1632.41 139.98 C 1631.38 139.89 1630.37 139.83 1629.38 139.81 Z" />
</g>
<g id="#737373b8">
<path fill="#737373" opacity="0.72" d=" M 1690.27 139.55 C 1693.03 139.45 1695.84 139.32 1698.70 139.15 L 1698.42 139.19 C 1695.49 139.67 1692.52 139.68 1689.58 139.58 L 1690.27 139.55 Z" />
</g>
<g id="#40404067">
<path fill="#404040" opacity="0.40" d=" M 1698.70 139.15 C 1700.24 139.02 1701.80 138.94 1703.39 139.05 C 1703.12 141.30 1699.20 141.03 1698.42 139.19 L 1698.70 139.15 Z" />
</g>
<g id="#b0b0b0ec">
<path fill="#b0b0b0" opacity="0.93" d=" M 443.43 141.99 C 445.48 141.22 447.57 140.47 449.75 140.11 C 451.06 140.09 452.38 140.07 453.71 140.08 C 450.26 140.74 446.88 141.47 443.43 141.99 Z" />
</g>
<g id="#57575757">
<path fill="#575757" opacity="0.34" d=" M 454.55 140.07 C 455.74 140.06 458.11 140.03 459.30 140.01 L 459.67 140.14 C 458.89 142.21 455.31 142.10 454.55 140.07 Z" />
</g>
<g id="#19191919">
<path fill="#191919" opacity="0.10" d=" M 459.30 140.01 C 468.60 140.09 477.89 140.18 487.20 140.29 C 478.06 140.71 468.71 141.92 459.67 140.14 L 459.30 140.01 Z" />
</g>
<g id="#37373737">
<path fill="#373737" opacity="0.22" d=" M 1040.16 140.03 C 1041.49 139.54 1042.85 139.41 1044.25 139.63 C 1044.38 139.97 1044.63 140.66 1044.76 141.00 C 1043.13 141.25 1041.57 140.75 1040.16 140.03 Z" />
<path fill="#373737" opacity="0.22" d=" M 1039.93 160.90 C 1041.18 160.76 1043.68 160.48 1044.92 160.34 L 1044.67 161.20 C 1043.07 162.10 1041.49 162.00 1039.93 160.90 Z" />
</g>
<g id="#6a6a6af8">
<path fill="#6a6a6a" opacity="0.97" d=" M 1114.46 159.45 C 1114.36 152.81 1114.75 146.18 1115.14 139.56 C 1115.12 142.43 1115.15 145.30 1115.15 148.17 C 1115.01 151.93 1114.89 155.70 1114.46 159.45 Z" />
</g>
<g id="#1f1f1f1f">
<path fill="#1f1f1f" opacity="0.12" d=" M 1115.14 139.56 C 1125.80 140.09 1136.48 140.06 1147.17 140.21 C 1136.81 140.88 1126.45 141.13 1116.11 141.68 C 1115.87 143.30 1115.39 146.55 1115.15 148.17 C 1115.15 145.30 1115.12 142.43 1115.14 139.56 Z" />
<path fill="#1f1f1f" opacity="0.12" d=" M 1416.08 139.41 C 1422.30 139.76 1428.53 140.03 1434.80 140.22 L 1435.45 140.24 C 1429.41 141.08 1423.00 139.92 1417.22 142.02 C 1416.75 152.40 1416.85 162.79 1416.28 173.16 C 1416.13 161.91 1416.05 150.66 1416.08 139.41 Z" />
</g>
<g id="#46464646">
<path fill="#464646" opacity="0.27" d=" M 1243.20 140.28 C 1244.29 139.86 1245.47 139.70 1246.66 139.91 C 1246.79 141.76 1243.61 141.94 1243.20 140.28 Z" />
</g>
<g id="#6b6b6bfc">
<path fill="#6b6b6b" opacity="1.00" d=" M 1415.55 202.26 C 1415.00 181.32 1414.25 160.31 1416.08 139.41 C 1416.05 150.66 1416.13 161.91 1416.28 173.16 C 1416.15 182.62 1416.02 192.09 1415.59 201.55 L 1415.55 202.26 Z" />
<path fill="#6b6b6b" opacity="1.00" d=" M 1114.18 203.72 C 1114.21 195.08 1114.43 186.44 1114.73 177.82 C 1114.80 186.16 1115.08 194.50 1115.34 202.84 C 1123.61 202.87 1131.89 202.73 1140.20 202.64 C 1152.69 202.83 1165.21 202.78 1177.69 203.83 L 1177.95 203.86 C 1156.69 203.91 1135.43 204.23 1114.18 203.72 Z" />
</g>
<g id="#40404040">
<path fill="#404040" opacity="0.25" d=" M 1628.31 140.12 C 1628.57 140.05 1629.11 139.89 1629.38 139.81 C 1630.37 139.83 1631.38 139.89 1632.41 139.98 C 1632.30 141.98 1628.76 141.91 1628.31 140.12 Z" />
</g>
<g id="#cfcfcffd">
<path fill="#cfcfcf" opacity="1.00" d=" M 1752.12 139.00 L 1752.14 139.27 C 1752.66 146.24 1752.94 153.24 1752.98 160.24 L 1752.16 160.06 C 1751.57 153.05 1752.17 146.01 1752.12 139.00 Z" />
</g>
<g id="#a7a7a7cc">
<path fill="#a7a7a7" opacity="0.80" d=" M 835.54 140.75 L 835.56 141.44 C 835.52 144.48 835.64 147.55 835.50 150.60 L 835.48 151.28 C 835.54 147.77 835.49 144.25 835.54 140.75 Z" />
</g>
<g id="#d0d0d0ff">
<path fill="#d0d0d0" opacity="1.00" d=" M 980.00 140.31 L 980.88 140.23 C 980.84 147.15 980.72 154.06 980.63 160.98 L 979.69 160.99 C 979.78 154.10 979.49 147.19 980.00 140.31 Z" />
</g>
<g id="#1414142c">
<path fill="#141414" opacity="0.17" d=" M 1215.65 155.19 C 1215.49 150.40 1215.31 145.61 1215.57 140.82 C 1215.40 145.61 1215.51 150.40 1215.65 155.19 Z" />
</g>
<g id="#4343436a">
<path fill="#434343" opacity="0.42" d=" M 704.69 144.73 C 704.76 143.66 705.00 142.13 706.23 141.79 C 707.28 142.98 706.53 146.11 704.79 146.03 C 704.77 145.71 704.71 145.06 704.69 144.73 Z" />
</g>
<g id="#21212183">
<path fill="#212121" opacity="0.51" d=" M 1070.97 142.47 C 1073.11 142.30 1073.22 146.01 1071.38 146.58 C 1071.11 145.22 1070.95 143.85 1070.97 142.47 Z" />
</g>
<g id="#19191967">
<path fill="#191919" opacity="0.40" d=" M 1601.74 148.50 C 1599.86 147.38 1599.58 143.05 1602.02 142.69 C 1601.96 144.08 1601.84 146.85 1601.78 148.24 L 1601.74 148.50 Z" />
</g>
<g id="#20202024">
<path fill="#202020" opacity="0.14" d=" M 1622.10 144.79 C 1622.14 143.82 1622.21 142.86 1622.31 141.89 C 1622.54 148.99 1622.55 156.10 1622.21 163.20 C 1622.13 157.06 1621.96 150.93 1622.10 144.79 Z" />
</g>
<g id="#450a105d">
<path fill="#450a10" opacity="0.36" d=" M 140.81 143.19 C 144.64 143.36 148.45 143.41 152.28 143.54 L 151.61 143.53 C 148.01 143.44 144.41 143.33 140.81 143.19 Z" />
</g>
<g id="#871520b5">
<path fill="#871520" opacity="0.71" d=" M 152.28 143.54 C 154.95 143.61 157.59 143.69 160.27 143.79 C 157.38 143.78 154.49 143.70 151.61 143.53 L 152.28 143.54 Z" />
</g>
<g id="#9d9d9df7">
<path fill="#9d9d9d" opacity="0.97" d=" M 914.48 143.40 L 914.51 142.71 C 914.90 162.37 916.26 182.22 913.25 201.74 C 914.18 182.31 913.75 162.84 914.48 143.40 Z" />
</g>
<g id="#b1b1b1e8">
<path fill="#b1b1b1" opacity="0.91" d=" M 1050.66 142.63 C 1051.13 147.84 1052.42 153.34 1050.52 158.40 C 1050.53 157.89 1050.55 156.87 1050.56 156.36 C 1050.56 152.44 1050.63 148.53 1050.67 144.61 C 1050.67 144.12 1050.66 143.12 1050.66 142.63 Z" />
</g>
<g id="#2f282933">
<path fill="#2f2829" opacity="0.20" d=" M 186.81 144.33 C 194.11 144.34 201.41 144.38 208.72 144.47 L 209.39 144.48 C 201.86 144.67 194.33 144.69 186.81 144.33 Z" />
</g>
<g id="#685a5b70">
<path fill="#685a5b" opacity="0.44" d=" M 208.72 144.47 C 215.48 144.36 222.23 144.10 229.00 144.02 L 229.00 145.09 C 222.46 144.90 215.93 144.74 209.39 144.48 L 208.72 144.47 Z" />
</g>
<g id="#a99193b5">
<path fill="#a99193" opacity="0.71" d=" M 229.00 144.02 C 236.33 143.96 243.66 143.97 251.00 143.97 L 251.00 144.99 C 243.66 145.00 236.33 145.03 229.00 145.09 L 229.00 144.02 Z" />
</g>
<g id="#eac9cbfa">
<path fill="#eac9cb" opacity="0.98" d=" M 251.00 143.97 C 273.67 143.96 296.33 144.04 319.00 144.17 L 318.72 144.20 C 296.18 145.83 273.57 144.72 251.00 144.99 L 251.00 143.97 Z" />
</g>
<g id="#b9a0a2c6">
<path fill="#b9a0a2" opacity="0.78" d=" M 319.00 144.17 C 320.52 144.14 323.56 144.08 325.09 144.04 L 325.06 144.49 C 323.41 146.09 320.18 145.96 318.72 144.20 L 319.00 144.17 Z" />
</g>
<g id="#7b6a6a83">
<path fill="#7b6a6a" opacity="0.51" d=" M 325.09 144.04 C 326.43 143.97 327.77 143.96 329.12 144.00 C 329.26 145.95 325.83 145.96 325.06 144.49 L 325.09 144.04 Z" />
</g>
<g id="#39393944">
<path fill="#393939" opacity="0.27" d=" M 443.44 156.66 C 443.38 152.22 443.40 147.77 443.42 143.34 C 443.47 147.77 443.48 152.22 443.44 156.66 Z" />
<path fill="#393939" opacity="0.27" d=" M 1512.86 202.18 C 1516.01 202.37 1519.00 202.41 1522.28 202.50 L 1521.62 202.49 C 1518.54 202.42 1515.80 202.41 1512.86 202.18 Z" />
</g>
<g id="#6e6e6e87">
<path fill="#6e6e6e" opacity="0.53" d=" M 422.78 155.18 C 422.72 151.72 422.71 148.28 422.73 144.83 C 422.61 148.28 422.66 151.72 422.78 155.18 Z" />
</g>
<g id="#999999fb">
<path fill="#999999" opacity="1.00" d=" M 704.03 196.09 C 703.40 178.98 703.69 161.82 704.69 144.73 C 704.71 145.06 704.77 145.71 704.79 146.03 C 705.51 161.67 704.37 177.35 705.27 192.99 C 704.81 196.44 706.56 199.40 708.27 202.15 C 706.08 200.84 703.99 198.85 704.03 196.09 Z" />
</g>
<g id="#3e3e3e3e">
<path fill="#3e3e3e" opacity="0.24" d=" M 1050.67 144.61 C 1050.63 148.53 1050.56 152.44 1050.56 156.36 C 1050.57 152.44 1050.56 148.52 1050.67 144.61 Z" />
<path fill="#3e3e3e" opacity="0.24" d=" M 1301.44 177.04 C 1301.99 176.93 1303.08 176.73 1303.62 176.63 C 1303.93 176.72 1304.55 176.88 1304.86 176.96 C 1304.66 178.65 1301.54 178.82 1301.44 177.04 Z" />
</g>
<g id="#9a9a9aff">
<path fill="#9a9a9a" opacity="1.00" d=" M 1235.85 155.21 C 1235.69 151.75 1235.68 148.29 1235.79 144.84 C 1235.74 148.28 1235.88 151.75 1235.85 155.21 Z" />
</g>
<g id="#cececeff">
<path fill="#cecece" opacity="1.00" d=" M 1621.76 198.14 C 1620.04 180.42 1620.84 162.52 1622.10 144.79 C 1621.96 150.93 1622.13 157.06 1622.21 163.20 C 1622.10 174.84 1622.06 186.49 1621.76 198.14 Z" />
<path fill="#cecece" opacity="1.00" d=" M 1311.34 182.27 L 1311.34 182.07 C 1311.48 187.35 1311.26 192.62 1311.25 197.90 L 1311.25 197.73 C 1311.38 192.58 1311.28 187.42 1311.34 182.27 Z" />
</g>
<g id="#8b8b8be3">
<path fill="#8b8b8b" opacity="0.89" d=" M 1512.83 157.06 C 1515.01 152.70 1518.06 148.90 1521.22 145.21 L 1521.66 146.28 C 1518.98 150.08 1516.06 153.71 1512.83 157.06 Z" />
</g>
<g id="#6a6a6afa">
<path fill="#6a6a6a" opacity="0.98" d=" M 562.41 147.40 L 562.42 146.74 C 563.07 163.06 563.16 179.41 562.56 195.74 L 562.54 196.41 C 561.68 180.08 561.90 163.73 562.41 147.40 Z" />
</g>
<g id="#9d9d9df9">
<path fill="#9d9d9d" opacity="0.98" d=" M 1094.42 147.40 L 1094.43 146.72 C 1095.10 163.38 1095.16 180.06 1094.47 196.72 L 1094.44 197.40 C 1093.73 180.74 1093.84 164.06 1094.42 147.40 Z" />
</g>
<g id="#988384a3">
<path fill="#988384" opacity="0.64" d=" M 82.49 149.27 L 82.50 148.62 C 82.55 152.94 82.58 157.28 82.54 161.62 L 82.54 162.26 C 82.53 157.93 82.50 153.60 82.49 149.27 Z" />
</g>
<g id="#2020204c">
<path fill="#202020" opacity="0.30" d=" M 684.46 161.39 C 684.45 157.20 684.51 153.01 684.62 148.83 C 684.53 152.79 684.48 156.76 684.47 160.73 L 684.46 161.39 Z" />
</g>
<g id="#272727c7">
<path fill="#272727" opacity="0.78" d=" M 1601.74 148.50 L 1601.78 148.24 C 1601.64 151.93 1601.33 155.60 1601.18 159.29 C 1601.18 155.68 1601.30 152.08 1601.74 148.50 Z" />
</g>
<g id="#df9a9ffe">
<path fill="#df9a9f" opacity="1.00" d=" M 285.60 150.82 C 301.68 149.65 317.82 149.96 333.93 149.99 C 334.30 150.38 335.05 151.16 335.42 151.55 C 319.03 150.99 302.62 150.70 286.23 150.80 L 285.60 150.82 Z" />
</g>
<g id="#312c2c33">
<path fill="#312c2c" opacity="0.20" d=" M 333.93 149.99 C 336.02 151.94 338.08 153.93 340.09 155.97 C 339.69 155.61 338.89 154.89 338.49 154.53 C 337.44 153.56 336.42 152.56 335.42 151.55 C 335.05 151.16 334.30 150.38 333.93 149.99 Z" />
</g>
<g id="#cececefc">
<path fill="#cecece" opacity="1.00" d=" M 835.48 151.28 L 835.50 150.60 C 836.12 166.40 836.48 182.25 835.57 198.05 L 835.53 198.39 C 834.63 182.70 834.95 166.97 835.48 151.28 Z" />
</g>
<g id="#d07f86f3">
<path fill="#d07f86" opacity="0.95" d=" M 280.48 157.13 C 278.88 156.16 280.44 153.23 282.11 154.17 C 281.77 155.26 281.19 156.24 280.48 157.13 Z" />
<path fill="#d07f86" opacity="0.95" d=" M 26.18 182.89 C 27.27 183.23 28.26 183.80 29.15 184.50 C 28.20 186.10 25.25 184.58 26.18 182.89 Z" />
<path fill="#d07f86" opacity="0.95" d=" M 26.18 235.12 C 25.23 233.44 28.16 231.88 29.13 233.48 C 28.24 234.19 27.26 234.77 26.18 235.12 Z" />
</g>
<g id="#cf626bfe">
<path fill="#cf626b" opacity="1.00" d=" M 338.49 154.53 C 338.89 154.89 339.69 155.61 340.09 155.97 C 339.34 204.77 341.20 253.63 339.09 302.39 L 339.11 301.76 C 338.69 252.69 339.60 203.59 338.49 154.53 Z" />
</g>
<g id="#2424247f">
<path fill="#242424" opacity="0.50" d=" M 1071.01 158.70 C 1070.89 157.51 1071.09 156.34 1071.47 155.22 C 1073.15 155.68 1072.88 158.91 1071.01 158.70 Z" />
</g>
<g id="#8d8d8de3">
<path fill="#8d8d8d" opacity="0.89" d=" M 443.46 157.88 C 446.77 158.45 449.99 159.15 453.28 159.95 L 453.56 160.03 C 450.16 159.42 446.80 158.70 443.46 157.88 Z" />
</g>
<g id="#a0a0a0db">
<path fill="#a0a0a0" opacity="0.86" d=" M 1236.39 157.70 C 1239.74 158.33 1242.92 159.08 1246.30 159.94 L 1246.59 160.02 L 1245.35 159.86 C 1242.22 159.35 1239.26 158.87 1236.39 157.70 Z" />
</g>
<g id="#737373de">
<path fill="#737373" opacity="0.87" d=" M 1798.14 168.10 C 1799.78 163.49 1804.27 160.86 1807.66 157.65 C 1805.04 161.15 1801.47 164.08 1799.76 168.17 C 1800.24 170.43 1801.42 172.45 1802.35 174.55 C 1800.63 172.64 1798.73 170.67 1798.14 168.10 Z" />
</g>
<g id="#47474747">
<path fill="#474747" opacity="0.28" d=" M 453.28 159.95 C 454.12 158.16 457.97 157.87 458.29 160.08 C 456.71 160.19 455.13 160.18 453.56 160.03 L 453.28 159.95 Z" />
<path fill="#474747" opacity="0.28" d=" M 1628.83 202.67 C 1629.44 201.36 1632.43 201.59 1632.01 203.32 C 1630.92 203.45 1629.85 203.41 1628.81 203.19 L 1628.83 202.67 Z" />
</g>
<g id="#4c4c4c4c">
<path fill="#4c4c4c" opacity="0.30" d=" M 1246.30 159.94 C 1247.16 158.19 1250.96 157.96 1251.29 160.15 C 1249.71 160.26 1248.13 160.25 1246.59 160.02 L 1246.30 159.94 Z" />
</g>
<g id="#676767fa">
<path fill="#676767" opacity="0.98" d=" M 1752.98 160.24 C 1762.94 161.36 1773.35 161.92 1783.23 159.61 C 1782.66 160.35 1782.12 161.10 1781.61 161.84 C 1771.85 161.98 1762.11 162.12 1752.39 161.86 C 1752.33 161.41 1752.22 160.51 1752.16 160.06 L 1752.98 160.24 Z" />
</g>
<g id="#6b6b6bfa">
<path fill="#6b6b6b" opacity="0.98" d=" M 453.56 160.03 C 455.13 160.18 456.71 160.19 458.29 160.08 C 468.73 159.70 479.18 160.08 489.62 160.46 L 490.29 160.47 C 478.05 160.79 465.76 161.35 453.56 160.03 Z" />
</g>
<g id="#454545a3">
<path fill="#454545" opacity="0.64" d=" M 489.62 160.46 C 493.25 160.43 496.96 160.41 500.61 160.52 L 501.28 160.53 C 497.62 160.51 493.93 160.50 490.29 160.47 L 489.62 160.46 Z" />
</g>
<g id="#22222250">
<path fill="#222222" opacity="0.31" d=" M 500.61 160.52 C 504.46 160.57 508.31 160.67 512.17 160.80 C 508.55 160.69 504.88 160.61 501.28 160.53 L 500.61 160.52 Z" />
</g>
<g id="#777777bd">
<path fill="#777777" opacity="0.74" d=" M 636.37 160.54 C 639.70 160.49 643.16 160.39 646.51 160.78 L 646.76 160.80 C 643.08 160.70 639.35 160.59 635.70 160.55 L 636.37 160.54 Z" />
</g>
<g id="#40404066">
<path fill="#404040" opacity="0.40" d=" M 646.51 160.78 C 647.58 158.90 651.92 158.54 652.29 160.96 C 650.91 160.92 648.14 160.84 646.76 160.80 L 646.51 160.78 Z" />
</g>
<g id="#6c6c6cff">
<path fill="#6c6c6c" opacity="1.00" d=" M 979.69 160.99 L 980.63 160.98 C 1000.39 160.94 1020.16 161.06 1039.93 160.90 C 1041.49 162.00 1043.07 162.10 1044.67 161.20 C 1023.05 162.09 1001.24 163.16 979.69 160.99 Z" />
<path fill="#6c6c6c" opacity="1.00" d=" M 843.17 203.24 L 843.81 203.17 C 845.25 203.14 846.69 203.03 848.15 202.91 C 852.81 202.68 857.47 202.61 862.18 202.53 C 877.19 202.92 892.22 203.01 907.26 203.16 C 885.97 204.98 864.49 204.21 843.17 203.24 Z" />
</g>
<g id="#747474b9">
<path fill="#747474" opacity="0.73" d=" M 1170.59 160.49 C 1173.73 160.53 1177.12 160.20 1180.29 160.87 L 1180.68 160.97 C 1177.57 160.79 1174.32 160.63 1171.29 160.52 L 1170.59 160.49 Z" />
</g>
<g id="#3f3f3f65">
<path fill="#3f3f3f" opacity="0.40" d=" M 1180.29 160.87 C 1180.75 159.03 1184.34 158.91 1184.49 160.97 C 1183.21 161.10 1181.93 161.08 1180.68 160.97 L 1180.29 160.87 Z" />
</g>
<g id="#6a6a6afb">
<path fill="#6a6a6a" opacity="1.00" d=" M 1245.35 159.86 L 1246.59 160.02 C 1248.13 160.25 1249.71 160.26 1251.29 160.15 C 1261.72 159.74 1272.18 160.06 1282.62 160.48 L 1283.28 160.50 C 1270.63 160.84 1257.93 161.40 1245.35 159.86 Z" />
<path fill="#6a6a6a" opacity="1.00" d=" M 582.01 177.15 C 582.44 177.12 583.30 177.06 583.72 177.03 C 583.33 185.59 583.09 194.16 583.10 202.73 C 592.12 202.86 601.14 202.87 610.18 202.84 C 621.99 203.11 633.91 202.31 645.67 203.77 L 645.97 203.82 C 624.71 203.91 603.46 204.23 582.21 203.72 C 582.02 194.87 581.88 186.01 582.01 177.15 Z" />
</g>
<g id="#484848a9">
<path fill="#484848" opacity="0.66" d=" M 1282.62 160.48 C 1286.20 160.44 1289.97 160.40 1293.62 160.50 L 1294.28 160.52 C 1290.63 160.51 1286.88 160.51 1283.28 160.50 L 1282.62 160.48 Z" />
<path fill="#484848" opacity="0.66" d=" M 1415.55 202.26 L 1415.59 201.55 C 1415.71 204.46 1415.91 207.44 1415.18 210.29 L 1415.07 210.68 C 1415.22 207.87 1415.38 205.06 1415.55 202.26 Z" />
</g>
<g id="#2525255a">
<path fill="#252525" opacity="0.35" d=" M 1293.62 160.50 C 1297.44 160.59 1301.29 160.70 1305.18 160.84 C 1301.57 160.66 1297.84 160.60 1294.28 160.52 L 1293.62 160.50 Z" />
</g>
<g id="#3f3f3f96">
<path fill="#3f3f3f" opacity="0.59" d=" M 684.46 161.39 L 684.47 160.73 C 684.46 166.73 684.49 172.72 684.47 178.72 L 684.45 179.39 C 684.39 173.38 684.41 167.39 684.46 161.39 Z" />
</g>
<g id="#4b404150">
<path fill="#4b4041" opacity="0.31" d=" M 82.54 162.26 L 82.54 161.62 C 82.52 165.13 82.53 168.66 82.37 172.18 C 82.51 168.88 82.49 165.55 82.54 162.26 Z" />
</g>
<g id="#3737377b">
<path fill="#373737" opacity="0.48" d=" M 1189.29 163.18 L 1189.30 162.51 C 1189.27 167.15 1189.55 171.80 1189.32 176.44 C 1189.27 172.02 1189.25 167.59 1189.29 163.18 Z" />
</g>
<g id="#4f4f4fbc">
<path fill="#4f4f4f" opacity="0.74" d=" M 657.19 163.83 C 657.19 166.49 657.20 171.79 657.21 174.45 L 657.20 173.81 C 657.20 170.49 657.14 167.15 657.19 163.83 Z" />
</g>
<g id="#6666667d">
<path fill="#666666" opacity="0.49" d=" M 814.52 166.40 L 814.54 165.73 C 814.49 170.73 814.45 175.72 814.47 180.72 L 814.46 181.38 C 814.41 176.38 814.37 171.39 814.52 166.40 Z" />
</g>
<g id="#2727273f">
<path fill="#272727" opacity="0.25" d=" M 447.79 176.25 C 450.52 176.29 453.25 176.31 456.01 176.30 L 455.96 177.26 C 453.23 176.96 450.50 176.66 447.79 176.25 Z" />
</g>
<g id="#4f4f4f7f">
<path fill="#4f4f4f" opacity="0.50" d=" M 456.01 176.30 C 458.92 176.32 461.78 176.36 464.73 176.41 L 465.40 176.42 C 462.22 176.69 459.11 176.98 455.96 177.26 L 456.01 176.30 Z" />
</g>
<g id="#787878bf">
<path fill="#787878" opacity="0.75" d=" M 464.73 176.41 C 467.92 176.41 471.04 176.36 474.26 176.34 L 473.61 176.36 C 470.82 176.38 468.14 176.46 465.40 176.42 L 464.73 176.41 Z" />
</g>
<g id="#9a9a9af5">
<path fill="#9a9a9a" opacity="0.96" d=" M 474.26 176.34 C 486.98 176.03 499.74 175.73 512.42 177.15 C 511.99 177.13 511.13 177.11 510.70 177.09 C 509.82 177.08 508.07 177.05 507.19 177.03 C 505.33 176.93 503.49 176.91 501.68 176.95 C 492.31 177.09 482.95 176.88 473.61 176.36 L 474.26 176.34 Z" />
</g>
<g id="#1a1a1a83">
<path fill="#1a1a1a" opacity="0.51" d=" M 644.68 176.75 C 647.50 176.63 650.27 176.48 653.14 176.36 C 650.33 176.60 647.50 176.71 644.68 176.75 Z" />
</g>
<g id="#222222ac">
<path fill="#222222" opacity="0.67" d=" M 1157.69 176.62 C 1162.02 176.51 1166.33 176.52 1170.72 176.52 L 1171.39 176.52 C 1166.78 176.58 1162.24 176.65 1157.69 176.62 Z" />
</g>
<g id="#1414145c">
<path fill="#141414" opacity="0.36" d=" M 1170.72 176.52 C 1176.91 176.46 1183.09 176.41 1189.32 176.44 L 1189.84 176.44 C 1183.66 176.53 1177.53 176.59 1171.39 176.52 L 1170.72 176.52 Z" />
</g>
<g id="#3939395c">
<path fill="#393939" opacity="0.36" d=" M 1242.64 176.07 C 1244.19 176.01 1245.76 176.07 1247.34 176.20 L 1247.61 176.24 C 1246.79 178.09 1242.85 178.35 1242.64 176.07 Z" />
</g>
<g id="#717171b3">
<path fill="#717171" opacity="0.70" d=" M 1247.34 176.20 C 1250.10 176.34 1252.89 176.47 1255.72 176.56 L 1256.43 176.60 C 1253.48 176.69 1250.52 176.68 1247.61 176.24 L 1247.34 176.20 Z" />
</g>
<g id="#9c9c9cfc">
<path fill="#9c9c9c" opacity="1.00" d=" M 1255.72 176.56 C 1271.67 176.13 1287.67 175.39 1303.62 176.63 C 1303.08 176.73 1301.99 176.93 1301.44 177.04 C 1286.43 177.44 1271.41 177.10 1256.43 176.60 L 1255.72 176.56 Z" />
</g>
<g id="#32323232">
<path fill="#323232" opacity="0.20" d=" M 501.68 176.95 C 503.49 176.91 505.33 176.93 507.19 177.03 C 506.43 179.13 502.07 179.33 501.68 176.95 Z" />
</g>
<g id="#aaaaaaf1">
<path fill="#aaaaaa" opacity="0.95" d=" M 510.70 177.09 C 511.13 177.11 511.99 177.13 512.42 177.15 C 515.09 177.27 517.50 178.60 519.45 180.36 C 516.53 179.28 513.62 178.16 510.70 177.09 Z" />
</g>
<g id="#28282828">
<path fill="#282828" opacity="0.16" d=" M 583.72 177.03 C 592.20 176.78 600.68 177.09 609.18 177.12 C 600.74 177.73 592.30 177.95 583.88 178.51 C 583.91 186.01 583.62 193.53 584.13 201.02 C 592.75 202.20 601.49 202.20 610.18 202.84 C 601.14 202.87 592.12 202.86 583.10 202.73 C 583.09 194.16 583.33 185.59 583.72 177.03 Z" />
</g>
<g id="#6a6a6aff">
<path fill="#6a6a6a" opacity="1.00" d=" M 980.16 177.07 C 995.89 176.67 1011.64 176.93 1027.37 177.55 C 1011.86 178.14 996.33 177.73 980.85 178.72 L 980.06 178.77 C 980.09 178.34 980.13 177.49 980.16 177.07 Z" />
</g>
<g id="#787878f0">
<path fill="#787878" opacity="0.94" d=" M 1049.30 177.82 L 1050.70 177.50 C 1051.67 180.13 1052.66 182.75 1053.59 185.40 C 1052.04 182.94 1050.62 180.41 1049.30 177.82 Z" />
</g>
<g id="#2b2b2b2c">
<path fill="#2b2b2b" opacity="0.17" d=" M 1114.74 176.94 C 1119.08 177.02 1123.41 177.09 1127.81 177.15 L 1128.48 177.15 C 1124.26 177.49 1120.07 177.82 1115.89 178.16 C 1116.01 186.06 1116.02 193.97 1116.43 201.86 C 1124.33 202.03 1132.28 202.06 1140.20 202.64 C 1131.89 202.73 1123.61 202.87 1115.34 202.84 C 1115.08 194.50 1114.80 186.16 1114.73 177.82 L 1114.74 176.94 Z" />
</g>
<g id="#626262f9">
<path fill="#626262" opacity="0.98" d=" M 1752.17 176.88 C 1760.41 176.70 1768.70 176.62 1776.97 177.24 C 1780.77 176.09 1783.26 179.08 1785.18 181.62 C 1775.76 175.33 1763.41 178.54 1752.82 178.55 L 1752.07 178.62 C 1752.10 178.19 1752.15 177.31 1752.17 176.88 Z" />
</g>
<g id="#7e7e7ee1">
<path fill="#7e7e7e" opacity="0.88" d=" M 1309.27 178.14 C 1311.27 178.26 1311.44 180.52 1311.34 182.07 L 1311.34 182.27 L 1310.84 181.86 C 1309.74 181.15 1308.12 179.41 1309.27 178.14 Z" />
</g>
<g id="#636363e8">
<path fill="#636363" opacity="0.91" d=" M 684.45 179.39 L 684.47 178.72 C 684.59 185.38 684.81 192.03 685.02 198.69 L 684.66 198.21 C 683.71 192.00 684.35 185.65 684.45 179.39 Z" />
</g>
<g id="#ccccccf9">
<path fill="#cccccc" opacity="0.98" d=" M 980.06 178.77 L 980.85 178.72 C 980.90 188.30 981.56 198.00 980.16 207.52 L 980.08 207.88 C 980.13 198.17 979.88 188.47 980.06 178.77 Z" />
<path fill="#cccccc" opacity="0.98" d=" M 1752.07 178.62 L 1752.82 178.55 C 1752.88 188.19 1753.57 197.94 1752.16 207.52 L 1752.08 207.88 C 1752.12 198.13 1751.87 188.37 1752.07 178.62 Z" />
</g>
<g id="#1a1a1a88">
<path fill="#1a1a1a" opacity="0.53" d=" M 1331.08 180.52 C 1333.38 180.52 1333.46 184.71 1331.39 185.27 C 1331.32 184.08 1331.16 181.71 1331.08 180.52 Z" />
</g>
<g id="#3333333f">
<path fill="#333333" opacity="0.25" d=" M 814.46 181.38 L 814.47 180.72 C 814.50 184.87 814.57 189.02 814.67 193.17 C 814.51 189.24 814.44 185.31 814.46 181.38 Z" />
</g>
<g id="#c3c3c3ef">
<path fill="#c3c3c3" opacity="0.94" d=" M 1509.37 180.94 C 1512.41 181.05 1515.48 181.15 1518.49 181.81 L 1518.83 181.89 C 1515.81 181.59 1512.84 181.29 1509.90 180.99 L 1509.37 180.94 Z" />
</g>
<g id="#6d6d6d86">
<path fill="#6d6d6d" opacity="0.53" d=" M 1518.49 181.81 C 1519.32 180.20 1521.94 180.17 1523.05 181.55 L 1523.08 182.01 C 1521.64 182.10 1520.22 182.07 1518.83 181.89 L 1518.49 181.81 Z" />
</g>
<g id="#30303036">
<path fill="#303030" opacity="0.21" d=" M 1523.05 181.55 C 1524.34 180.10 1528.46 179.90 1528.91 181.93 C 1527.45 181.95 1524.54 181.99 1523.08 182.01 L 1523.05 181.55 Z" />
</g>
<g id="#656565f2">
<path fill="#656565" opacity="0.95" d=" M 519.54 181.30 C 519.81 187.07 519.77 192.84 519.61 198.61 C 519.42 192.84 519.09 187.07 519.54 181.30 Z" />
</g>
<g id="#5a5a5ac9">
<path fill="#5a5a5a" opacity="0.79" d=" M 539.34 181.79 C 539.53 188.25 539.86 194.73 539.41 201.19 C 539.60 194.72 539.43 188.25 539.34 181.79 Z" />
</g>
<g id="#3f3f3f3f">
<path fill="#3f3f3f" opacity="0.25" d=" M 1310.84 181.86 L 1311.34 182.27 C 1311.28 187.42 1311.38 192.58 1311.25 197.73 L 1310.83 198.18 C 1310.60 192.74 1310.15 187.28 1310.84 181.86 Z" />
</g>
<g id="#202020a7">
<path fill="#202020" opacity="0.65" d=" M 1540.56 182.88 C 1540.91 181.51 1541.80 181.05 1543.22 181.52 C 1544.21 183.21 1541.56 183.44 1540.56 182.88 Z" />
</g>
<g id="#14141451">
<path fill="#141414" opacity="0.32" d=" M 1732.55 182.41 L 1732.57 181.74 C 1732.74 194.25 1733.00 206.76 1733.07 219.27 C 1734.60 219.30 1736.16 219.34 1737.73 219.37 L 1738.39 219.38 C 1736.78 219.55 1733.55 219.90 1731.94 220.07 C 1731.90 207.51 1731.98 194.95 1732.55 182.41 Z" />
</g>
<g id="#14141450">
<path fill="#141414" opacity="0.31" d=" M 960.58 183.39 L 960.60 182.72 C 960.76 194.90 960.97 207.09 961.07 219.27 C 962.61 219.30 964.17 219.34 965.73 219.37 L 966.39 219.38 C 964.77 219.55 961.54 219.90 959.92 220.07 C 959.89 207.84 960.04 195.61 960.58 183.39 Z" />
</g>
<g id="#282828cb">
<path fill="#282828" opacity="0.80" d=" M 1601.14 182.70 C 1601.30 186.72 1601.50 190.75 1601.74 194.78 L 1601.72 194.55 C 1601.29 190.60 1601.20 186.66 1601.14 182.70 Z" />
</g>
<g id="#5f0e1680">
<path fill="#5f0e16" opacity="0.50" d=" M 68.73 184.40 C 69.92 184.31 72.29 184.12 73.47 184.03 C 73.49 186.34 69.31 186.47 68.73 184.40 Z" />
</g>
<g id="#7d7d7dc7">
<path fill="#7d7d7d" opacity="0.78" d=" M 1505.87 186.58 L 1505.87 187.22 C 1505.87 190.47 1505.97 193.70 1506.27 196.96 L 1504.83 197.02 C 1505.09 194.41 1505.61 189.19 1505.87 186.58 Z" />
</g>
<g id="#1b1b1b6c">
<path fill="#1b1b1b" opacity="0.42" d=" M 1601.72 194.55 L 1601.74 194.78 C 1601.80 196.16 1601.93 198.93 1601.99 200.31 C 1599.53 200.00 1599.82 195.65 1601.72 194.55 Z" />
</g>
<g id="#1919197d">
<path fill="#191919" opacity="0.49" d=" M 1331.04 199.53 C 1330.95 198.14 1331.10 196.75 1331.39 195.40 C 1333.19 195.96 1333.15 199.63 1331.04 199.53 Z" />
</g>
<g id="#484848aa">
<path fill="#484848" opacity="0.67" d=" M 562.54 196.41 L 562.56 195.74 C 562.51 198.74 562.41 201.72 562.42 204.73 L 562.41 205.40 C 562.40 202.39 562.45 199.40 562.54 196.41 Z" />
<path fill="#484848" opacity="0.67" d=" M 576.74 219.55 C 580.07 219.53 583.34 219.49 586.71 219.50 L 587.38 219.52 C 584.01 219.54 580.74 219.62 577.41 219.56 L 576.74 219.55 Z" />
<path fill="#484848" opacity="0.67" d=" M 1108.74 219.55 C 1112.08 219.53 1115.30 219.49 1118.71 219.50 L 1119.38 219.52 C 1115.97 219.54 1112.75 219.62 1109.41 219.56 L 1108.74 219.55 Z" />
</g>
<g id="#686868a6">
<path fill="#686868" opacity="0.65" d=" M 1094.44 197.40 L 1094.47 196.72 C 1094.38 199.57 1094.35 202.42 1094.36 205.27 L 1094.35 204.61 C 1094.31 202.20 1094.35 199.80 1094.44 197.40 Z" />
</g>
<g id="#a1a1a1f0">
<path fill="#a1a1a1" opacity="0.94" d=" M 684.66 198.21 L 685.02 198.69 C 685.06 199.66 685.05 200.63 685.00 201.61 C 683.23 201.65 682.91 198.52 684.66 198.21 Z" />
</g>
<g id="#6d6d6dcc">
<path fill="#6d6d6d" opacity="0.80" d=" M 835.53 198.39 L 835.57 198.05 C 837.18 198.18 838.70 200.32 838.06 201.86 C 836.43 201.53 835.40 200.01 835.53 198.39 Z" />
</g>
<g id="#7c7c7ce1">
<path fill="#7c7c7c" opacity="0.88" d=" M 1310.83 198.18 L 1311.25 197.73 L 1311.25 197.90 C 1311.27 199.44 1311.46 201.90 1309.40 202.15 C 1308.20 200.85 1309.73 199.00 1310.83 198.18 Z" />
</g>
<g id="#ca8b90e7">
<path fill="#ca8b90" opacity="0.91" d=" M 22.82 218.13 C 22.50 211.69 22.14 205.23 22.54 198.79 C 22.40 205.24 22.61 211.69 22.82 218.13 Z" />
</g>
<g id="#afafaff0">
<path fill="#afafaf" opacity="0.94" d=" M 508.78 203.04 C 512.29 201.76 515.94 200.71 519.53 199.59 C 517.50 201.44 515.03 202.89 512.25 203.10 C 511.29 203.12 509.38 203.18 508.43 203.21 L 508.78 203.04 Z" />
</g>
<g id="#6e6e6eb0">
<path fill="#6e6e6e" opacity="0.69" d=" M 1395.50 199.39 L 1395.52 198.72 C 1395.60 202.38 1395.64 206.02 1395.91 209.69 L 1395.89 209.46 C 1395.50 206.09 1395.47 202.76 1395.50 199.39 Z" />
</g>
<g id="#c5888ce2">
<path fill="#c5888c" opacity="0.89" d=" M 232.36 199.79 C 232.54 206.24 232.86 212.73 232.44 219.18 C 232.62 212.72 232.47 206.25 232.36 199.79 Z" />
</g>
<g id="#8d8d8dd8">
<path fill="#8d8d8d" opacity="0.85" d=" M 1624.21 201.72 C 1625.50 200.62 1627.88 201.33 1628.83 202.67 L 1628.81 203.19 C 1627.20 203.10 1625.22 203.18 1624.21 201.72 Z" />
</g>
<g id="#1b1b1b1b">
<path fill="#1b1b1b" opacity="0.11" d=" M 475.83 202.74 C 485.19 202.66 495.12 200.40 504.28 202.87 L 504.66 203.13 C 495.04 202.85 485.43 202.81 475.83 202.74 Z" />
</g>
<g id="#6c6c6c6c">
<path fill="#6c6c6c" opacity="0.42" d=" M 504.28 202.87 C 505.10 201.18 508.03 201.37 508.78 203.04 L 508.43 203.21 C 507.16 203.27 505.91 203.22 504.66 203.13 L 504.28 202.87 Z" />
</g>
<g id="#cfcfcfec">
<path fill="#cfcfcf" opacity="0.93" d=" M 709.29 202.78 C 710.42 201.67 711.60 201.64 712.82 202.69 L 712.79 203.32 L 712.10 203.53 C 711.07 203.57 710.13 203.32 709.29 202.78 Z" />
</g>
<g id="#77777777">
<path fill="#777777" opacity="0.47" d=" M 712.82 202.69 C 714.11 201.47 715.30 201.52 716.39 202.85 L 715.96 203.17 C 714.89 203.26 713.84 203.31 712.79 203.32 L 712.82 202.69 Z" />
</g>
<g id="#2b2b2b2b">
<path fill="#2b2b2b" opacity="0.17" d=" M 716.39 202.85 C 719.28 202.46 725.06 201.67 727.96 201.28 L 728.01 202.88 C 723.96 202.91 719.98 202.95 715.96 203.17 L 716.39 202.85 Z" />
</g>
<g id="#c0c0c0e5">
<path fill="#c0c0c0" opacity="0.90" d=" M 839.35 202.36 C 840.47 201.17 842.81 201.28 843.83 202.61 L 843.81 203.17 L 843.17 203.24 C 841.83 203.20 840.55 202.87 839.35 202.36 Z" />
</g>
<g id="#71717171">
<path fill="#717171" opacity="0.44" d=" M 843.83 202.61 C 844.87 201.12 847.50 201.32 848.40 202.88 L 848.15 202.91 C 846.69 203.03 845.25 203.14 843.81 203.17 L 843.83 202.61 Z" />
</g>
<g id="#2a2a2a2a">
<path fill="#2a2a2a" opacity="0.16" d=" M 848.40 202.88 C 852.94 202.55 857.57 202.49 862.18 202.53 C 857.47 202.61 852.81 202.68 848.15 202.91 L 848.40 202.88 Z" />
</g>
<g id="#34343434">
<path fill="#343434" opacity="0.20" d=" M 1299.48 203.06 C 1299.41 200.93 1303.06 200.99 1303.60 202.82 C 1302.22 203.07 1300.84 203.20 1299.48 203.06 Z" />
</g>
<g id="#6b6b6bf4">
<path fill="#6b6b6b" opacity="0.96" d=" M 1303.60 202.82 C 1305.24 202.60 1306.92 202.45 1308.61 202.36 C 1303.23 203.89 1297.53 203.78 1292.02 204.02 C 1273.43 204.40 1254.85 203.89 1236.28 203.55 L 1235.61 203.54 C 1256.88 202.70 1278.19 202.85 1299.48 203.06 C 1300.84 203.20 1302.22 203.07 1303.60 202.82 Z" />
</g>
<g id="#7474748f">
<path fill="#747474" opacity="0.56" d=" M 1522.28 202.50 C 1526.06 202.50 1529.88 202.50 1533.73 202.50 L 1534.39 202.51 C 1530.10 202.53 1525.84 202.53 1521.62 202.49 L 1522.28 202.50 Z" />
</g>
<g id="#a6a6a6ef">
<path fill="#a6a6a6" opacity="0.94" d=" M 1533.73 202.50 C 1541.62 202.38 1549.51 202.37 1557.43 202.53 C 1549.73 202.74 1542.05 202.69 1534.39 202.51 L 1533.73 202.50 Z" />
</g>
<g id="#3d3d3d92">
<path fill="#3d3d3d" opacity="0.57" d=" M 433.60 204.01 C 433.78 201.68 437.78 201.94 438.55 203.85 L 438.29 203.88 C 436.72 203.95 435.16 204.01 433.60 204.01 Z" />
</g>
<g id="#6c6c6cfd">
<path fill="#6c6c6c" opacity="1.00" d=" M 438.55 203.85 C 450.93 202.68 463.39 202.88 475.83 202.74 C 485.43 202.81 495.04 202.85 504.66 203.13 C 505.91 203.22 507.16 203.27 508.43 203.21 C 509.38 203.18 511.29 203.12 512.25 203.10 C 487.65 205.10 462.93 203.53 438.29 203.88 L 438.55 203.85 Z" />
</g>
<g id="#464646a7">
<path fill="#464646" opacity="0.65" d=" M 645.67 203.77 C 647.18 202.05 650.40 201.99 652.05 203.58 L 652.08 204.03 C 650.55 203.98 647.49 203.87 645.97 203.82 L 645.67 203.77 Z" />
<path fill="#464646" opacity="0.65" d=" M 1177.69 203.83 C 1179.18 202.10 1182.40 201.97 1184.06 203.59 L 1184.08 204.04 C 1182.55 203.99 1179.49 203.90 1177.95 203.86 L 1177.69 203.83 Z" />
<path fill="#464646" opacity="0.65" d=" M 1231.25 219.50 C 1244.06 219.16 1256.89 218.98 1269.72 219.42 L 1270.40 219.44 C 1257.13 220.14 1243.84 220.28 1230.59 219.51 L 1231.25 219.50 Z" />
</g>
<g id="#2121214f">
<path fill="#212121" opacity="0.31" d=" M 652.05 203.58 C 652.81 202.13 656.21 202.08 656.11 204.02 C 654.76 204.13 653.41 204.11 652.08 204.03 L 652.05 203.58 Z" />
<path fill="#212121" opacity="0.31" d=" M 1184.06 203.59 C 1184.80 202.14 1188.21 202.08 1188.10 204.02 C 1186.75 204.13 1185.40 204.11 1184.08 204.04 L 1184.06 203.59 Z" />
</g>
<g id="#6b6b6bfb">
<path fill="#6b6b6b" opacity="1.00" d=" M 712.10 203.53 L 712.79 203.32 C 713.84 203.31 714.89 203.26 715.96 203.17 C 719.98 202.95 723.96 202.91 728.01 202.88 C 737.54 202.88 747.08 203.19 756.61 203.53 L 757.28 203.55 C 742.22 204.02 727.15 204.24 712.10 203.53 Z" />
<path fill="#6b6b6b" opacity="1.00" d=" M 1628.81 203.19 C 1629.85 203.41 1630.92 203.45 1632.01 203.32 C 1650.19 202.62 1668.40 202.82 1686.59 203.49 L 1687.27 203.52 C 1667.78 204.05 1648.27 204.39 1628.81 203.19 Z" />
</g>
<g id="#484848ab">
<path fill="#484848" opacity="0.67" d=" M 756.61 203.53 C 761.25 203.46 765.94 203.37 770.61 203.50 L 771.27 203.52 C 766.60 203.50 761.92 203.55 757.28 203.55 L 756.61 203.53 Z" />
</g>
<g id="#25252558">
<path fill="#252525" opacity="0.35" d=" M 770.61 203.50 C 774.44 203.60 778.30 203.74 782.17 203.92 C 778.55 203.68 774.86 203.61 771.27 203.52 L 770.61 203.50 Z" />
</g>
<g id="#36363681">
<path fill="#363636" opacity="0.51" d=" M 1223.85 203.75 C 1227.72 203.61 1231.67 203.51 1235.61 203.54 L 1236.28 203.55 C 1232.11 203.59 1227.96 203.65 1223.85 203.75 Z" />
</g>
<g id="#4d4d4db6">
<path fill="#4d4d4d" opacity="0.71" d=" M 1686.59 203.49 C 1690.12 203.48 1693.91 203.36 1697.51 203.80 L 1697.76 203.83 C 1694.29 203.72 1690.65 203.59 1687.27 203.52 L 1686.59 203.49 Z" />
</g>
<g id="#23232354">
<path fill="#232323" opacity="0.33" d=" M 562.41 205.40 L 562.42 204.73 C 562.42 207.54 562.45 210.36 562.51 213.19 C 562.35 210.59 562.34 207.99 562.41 205.40 Z" />
</g>
<g id="#34343454">
<path fill="#343434" opacity="0.33" d=" M 1094.35 204.61 L 1094.36 205.27 C 1094.36 207.90 1094.40 210.53 1094.49 213.17 C 1094.35 210.32 1094.32 207.46 1094.35 204.61 Z" />
</g>
<g id="#767676ef">
<path fill="#767676" opacity="0.94" d=" M 931.86 208.38 C 932.26 207.29 933.18 206.19 934.48 206.39 L 934.53 207.09 C 934.02 208.60 933.13 209.03 931.86 208.38 Z" />
</g>
<g id="#c8c8c8f5">
<path fill="#c8c8c8" opacity="0.96" d=" M 425.30 206.43 C 425.55 209.94 425.61 213.43 425.75 216.95 L 425.77 217.60 C 425.48 213.87 425.32 210.17 425.30 206.43 Z" />
</g>
<g id="#c6c6c6f1">
<path fill="#c6c6c6" opacity="0.95" d=" M 792.36 216.99 C 792.42 213.50 792.55 210.00 792.78 206.53 C 792.63 210.20 792.62 213.91 792.34 217.58 L 792.36 216.99 Z" />
</g>
<g id="#8e8e8eae">
<path fill="#8e8e8e" opacity="0.68" d=" M 980.08 207.88 L 980.16 207.52 C 981.77 208.22 981.97 210.85 980.62 211.92 L 980.04 211.98 C 979.99 210.61 980.00 209.24 980.08 207.88 Z" />
<path fill="#8e8e8e" opacity="0.68" d=" M 1752.08 207.88 L 1752.16 207.52 C 1753.76 208.22 1753.96 210.85 1752.62 211.92 L 1752.04 211.98 C 1751.97 210.61 1751.99 209.24 1752.08 207.88 Z" />
</g>
<g id="#575757cd">
<path fill="#575757" opacity="0.80" d=" M 1218.73 216.16 C 1218.56 213.04 1218.58 209.96 1218.66 206.85 C 1218.68 209.96 1218.60 213.04 1218.73 216.16 Z" />
</g>
<g id="#2121214e">
<path fill="#212121" opacity="0.31" d=" M 1415.07 210.68 L 1415.18 210.29 C 1416.99 210.78 1417.07 214.36 1415.03 214.48 C 1414.89 213.21 1414.93 211.94 1415.07 210.68 Z" />
</g>
<g id="#43434352">
<path fill="#434343" opacity="0.32" d=" M 980.04 211.98 L 980.62 211.92 C 982.04 212.49 981.72 215.53 980.00 215.12 C 979.96 214.07 979.97 213.02 980.04 211.98 Z" />
<path fill="#434343" opacity="0.32" d=" M 1752.04 211.98 L 1752.62 211.92 C 1754.02 212.49 1753.71 215.53 1752.00 215.12 C 1751.95 214.07 1751.96 213.02 1752.04 211.98 Z" />
</g>
<g id="#464646a1">
<path fill="#464646" opacity="0.63" d=" M 1588.13 215.40 C 1590.26 215.53 1589.14 219.63 1587.23 218.81 C 1587.23 217.61 1587.56 216.45 1588.13 215.40 Z" />
</g>
<g id="#6e6e6ef2">
<path fill="#6e6e6e" opacity="0.95" d=" M 1567.01 218.85 C 1572.10 219.07 1577.12 219.36 1582.26 219.52 C 1577.12 219.41 1572.05 219.64 1567.01 218.85 Z" />
</g>
<g id="#6a6a6af3">
<path fill="#6a6a6a" opacity="0.95" d=" M 1814.86 218.70 C 1820.65 219.04 1826.43 219.48 1832.28 219.76 C 1826.42 219.55 1820.63 219.29 1814.86 218.70 Z" />
</g>
<g id="#38383884">
<path fill="#383838" opacity="0.52" d=" M 432.64 218.94 C 434.18 218.94 435.73 219.00 437.28 219.09 L 437.60 219.16 C 436.81 221.06 432.86 221.20 432.64 218.94 Z" />
</g>
<g id="#686868f4">
<path fill="#686868" opacity="0.96" d=" M 437.28 219.09 C 455.77 219.15 474.26 218.78 492.74 219.44 L 493.41 219.46 C 474.84 219.80 456.08 221.23 437.60 219.16 L 437.28 219.09 Z" />
</g>
<g id="#444444a1">
<path fill="#444444" opacity="0.63" d=" M 492.74 219.44 C 497.06 219.50 501.38 219.54 505.73 219.57 L 506.39 219.57 C 502.04 219.56 497.73 219.56 493.41 219.46 L 492.74 219.44 Z" />
</g>
<g id="#20202047">
<path fill="#202020" opacity="0.28" d=" M 505.73 219.57 C 509.23 219.52 512.68 219.38 516.20 219.24 C 512.90 219.40 509.68 219.62 506.39 219.57 L 505.73 219.57 Z" />
</g>
<g id="#26262657">
<path fill="#262626" opacity="0.34" d=" M 708.82 219.19 C 712.65 219.37 716.42 219.38 720.28 219.47 L 719.62 219.46 C 716.00 219.41 712.40 219.32 708.82 219.19 Z" />
</g>
<g id="#696969f6">
<path fill="#696969" opacity="0.96" d=" M 731.72 219.50 C 748.05 219.01 764.38 219.08 780.71 219.09 L 780.45 219.12 C 764.47 220.78 748.39 219.99 732.38 219.51 L 731.72 219.50 Z" />
</g>
<g id="#3b3b3b8c">
<path fill="#3b3b3b" opacity="0.55" d=" M 780.71 219.09 C 782.26 219.01 783.82 218.95 785.39 218.97 C 785.19 221.28 781.20 221.04 780.45 219.12 L 780.71 219.09 Z" />
</g>
<g id="#17171733">
<path fill="#171717" opacity="0.20" d=" M 842.80 219.40 C 868.44 218.79 894.08 219.10 919.73 219.14 L 920.39 219.13 C 894.56 220.59 868.64 220.35 842.80 219.40 Z" />
</g>
<g id="#40404097">
<path fill="#404040" opacity="0.59" d=" M 965.73 219.37 C 969.72 219.38 973.73 219.36 977.76 219.32 L 978.42 219.31 C 974.39 219.39 970.38 219.41 966.39 219.38 L 965.73 219.37 Z" />
<path fill="#404040" opacity="0.59" d=" M 1737.73 219.37 C 1741.70 219.38 1745.71 219.36 1749.76 219.32 L 1750.42 219.31 C 1746.37 219.38 1742.36 219.41 1738.39 219.38 L 1737.73 219.37 Z" />
</g>
<g id="#2828285b">
<path fill="#282828" opacity="0.36" d=" M 1050.81 218.85 C 1052.17 218.94 1054.90 219.12 1056.26 219.22 L 1056.50 219.24 C 1055.39 221.12 1051.00 221.33 1050.81 218.85 Z" />
</g>
<g id="#474747a8">
<path fill="#474747" opacity="0.66" d=" M 1056.26 219.22 C 1059.94 219.35 1063.51 219.32 1067.24 219.36 C 1063.61 219.50 1060.08 219.69 1056.50 219.24 L 1056.26 219.22 Z" />
</g>
<g id="#31313173">
<path fill="#313131" opacity="0.45" d=" M 1269.72 219.42 C 1276.38 219.44 1283.02 219.44 1289.72 219.53 L 1290.39 219.54 C 1283.70 219.64 1277.05 219.73 1270.40 219.44 L 1269.72 219.42 Z" />
<path fill="#313131" opacity="0.45" d=" M 1699.29 219.61 C 1701.73 219.59 1704.23 219.55 1706.78 219.49 L 1707.38 219.48 C 1704.45 219.61 1701.52 219.66 1698.61 219.62 L 1699.29 219.61 Z" />
</g>
<g id="#1919193d">
<path fill="#191919" opacity="0.24" d=" M 1289.72 219.53 C 1294.87 219.49 1299.98 219.39 1305.18 219.30 C 1300.20 219.45 1295.32 219.68 1290.39 219.54 L 1289.72 219.53 Z" />
</g>
<g id="#5d5d5dda">
<path fill="#5d5d5d" opacity="0.85" d=" M 1399.22 219.28 C 1402.88 219.37 1406.57 219.45 1410.29 219.53 C 1407.36 219.47 1401.49 219.33 1398.55 219.26 L 1399.22 219.28 Z" />
</g>
<g id="#6b6b6bf5">
<path fill="#6b6b6b" opacity="0.96" d=" M 1457.81 219.41 C 1462.46 219.48 1467.07 219.39 1471.78 219.33 L 1472.42 219.32 C 1467.49 219.41 1462.69 219.64 1457.81 219.41 Z" />
</g>
<g id="#bd6971e1">
<path fill="#bd6971" opacity="0.88" d=" M 226.44 226.44 C 226.22 225.16 227.29 224.25 228.29 223.71 C 229.04 224.98 228.66 225.90 227.16 226.48 L 226.44 226.44 Z" />
<path fill="#bd6971" opacity="0.88" d=" M 92.65 305.82 C 93.69 306.31 94.78 307.22 94.58 308.51 L 93.87 308.56 C 92.36 308.01 91.95 307.09 92.65 305.82 Z" />
</g>
<g id="#332c2c36">
<path fill="#332c2c" opacity="0.21" d=" M 27.61 226.47 C 93.87 225.69 160.18 225.69 226.44 226.44 L 227.16 226.48 L 227.59 226.51 C 180.74 227.61 133.86 226.71 87.00 227.00 C 67.21 226.81 47.38 227.57 27.61 226.47 Z" />
<path fill="#332c2c" opacity="0.21" d=" M 93.87 308.56 L 94.58 308.51 C 152.12 307.47 209.70 308.00 267.25 308.23 L 267.82 308.26 L 268.28 308.29 C 233.21 309.83 198.09 308.63 163.00 309.00 C 139.83 308.82 116.64 309.47 93.48 308.59 L 93.87 308.56 Z" />
</g>
<g id="#6a151d8d">
<path fill="#6a151d" opacity="0.55" d=" M 70.70 233.50 C 71.40 231.45 75.55 231.82 75.42 234.14 C 74.24 233.98 71.88 233.66 70.70 233.50 Z" />
</g>
<g id="#d0656efe">
<path fill="#d0656e" opacity="1.00" d=" M 22.66 238.61 L 22.66 239.24 C 22.91 261.05 23.12 282.86 23.17 304.67 C 21.26 282.72 21.54 260.59 22.66 238.61 Z" />
</g>
<g id="#6456576b">
<path fill="#645657" opacity="0.42" d=" M 82.10 244.48 C 84.18 244.60 84.05 248.25 82.16 248.66 L 82.06 248.28 C 82.00 247.01 82.01 245.74 82.10 244.48 Z" />
</g>
<g id="#b9a0a1c7">
<path fill="#b9a0a1" opacity="0.78" d=" M 82.06 248.28 L 82.16 248.66 C 83.35 256.59 82.73 264.63 82.55 272.61 L 82.54 273.28 C 82.38 264.94 82.20 256.60 82.06 248.28 Z" />
</g>
<g id="#806e6f89">
<path fill="#806e6f" opacity="0.54" d=" M 82.54 273.28 L 82.55 272.61 C 82.59 277.26 82.64 281.94 82.52 286.60 L 82.51 287.27 C 82.53 282.60 82.51 277.93 82.54 273.28 Z" />
</g>
<g id="#a11826d8">
<path fill="#a11826" opacity="0.85" d=" M 219.72 273.26 C 226.35 273.24 232.98 273.32 239.61 273.51 L 240.28 273.52 C 233.42 273.65 226.57 273.46 219.72 273.26 Z" />
</g>
<g id="#78121ca1">
<path fill="#78121c" opacity="0.63" d=" M 239.61 273.51 C 243.94 273.45 248.28 273.41 252.62 273.46 L 253.26 273.46 C 248.93 273.48 244.60 273.52 240.28 273.52 L 239.61 273.51 Z" />
</g>
<g id="#40090f57">
<path fill="#40090f" opacity="0.34" d=" M 252.62 273.46 C 256.12 273.46 259.67 273.48 263.18 273.65 C 259.88 273.49 256.55 273.48 253.26 273.46 L 252.62 273.46 Z" />
</g>
<g id="#3b2a2b44">
<path fill="#3b2a2b" opacity="0.27" d=" M 88.47 284.94 C 87.00 284.13 87.10 280.70 89.07 280.89 C 89.06 282.23 89.01 283.57 88.92 284.92 L 88.47 284.94 Z" />
</g>
<g id="#855b5e98">
<path fill="#855b5e" opacity="0.60" d=" M 88.47 284.94 L 88.92 284.92 C 88.87 286.45 88.78 289.52 88.73 291.05 L 88.70 291.34 C 86.97 289.82 86.86 286.59 88.47 284.94 Z" />
</g>
<g id="#4a41424e">
<path fill="#4a4142" opacity="0.31" d=" M 82.51 287.27 L 82.52 286.60 C 82.44 292.16 82.24 297.71 81.93 303.27 L 81.99 302.64 L 82.07 301.82 C 82.38 296.97 82.37 292.10 82.51 287.27 Z" />
</g>
<g id="#d68f95f5">
<path fill="#d68f95" opacity="0.96" d=" M 88.70 291.34 L 88.73 291.05 C 88.78 295.12 88.95 299.18 89.31 303.24 C 88.74 299.30 88.14 295.31 88.70 291.34 Z" />
</g>
<g id="#55494a5b">
<path fill="#55494a" opacity="0.36" d=" M 273.12 295.63 L 273.15 295.32 C 275.04 295.79 275.22 299.49 273.05 299.53 C 273.00 298.23 273.03 296.92 273.12 295.63 Z" />
</g>
<g id="#b65d65dc">
<path fill="#b65d65" opacity="0.86" d=" M 75.81 308.05 C 77.88 305.96 79.97 303.88 82.07 301.82 L 81.99 302.64 C 81.14 305.06 79.07 307.13 76.65 307.97 L 75.81 308.05 Z" />
</g>
<g id="#b25a62d8">
<path fill="#b25a62" opacity="0.85" d=" M 267.25 308.23 C 267.87 306.76 269.04 305.65 270.32 304.75 C 271.66 306.27 269.50 308.44 267.82 308.26 L 267.25 308.23 Z" />
</g>
<g id="#d17c83f5">
<path fill="#d17c83" opacity="0.96" d=" M 332.11 307.43 C 333.28 306.86 334.48 306.35 335.72 305.94 C 336.62 307.97 333.05 309.30 332.11 307.43 Z" />
</g>
<g id="#60545566">
<path fill="#605455" opacity="0.40" d=" M 29.43 307.96 C 30.41 307.91 31.38 307.91 32.35 307.96 L 32.84 308.32 C 32.50 310.06 29.37 309.72 29.43 307.96 Z" />
</g>
<g id="#a28b8dad">
<path fill="#a28b8d" opacity="0.68" d=" M 32.35 307.96 C 40.14 308.19 47.94 308.32 55.73 308.50 L 56.40 308.52 C 48.61 308.51 40.50 309.98 32.84 308.32 L 32.35 307.96 Z" />
</g>
<g id="#70616178">
<path fill="#706161" opacity="0.47" d=" M 55.73 308.50 C 59.25 308.52 62.76 308.46 66.28 308.45 L 65.62 308.47 C 62.54 308.49 59.48 308.60 56.40 308.52 L 55.73 308.50 Z" />
</g>
<g id="#463e3e4b">
<path fill="#463e3e" opacity="0.29" d=" M 66.28 308.45 C 69.46 308.38 72.63 308.21 75.81 308.05 L 76.65 307.97 L 77.28 307.91 C 74.37 308.05 68.54 308.33 65.62 308.47 L 66.28 308.45 Z" />
</g>
</svg>
