<?xml version="1.0" encoding="UTF-8" standalone="no"?>
<!DOCTYPE svg PUBLIC "-//W3C//DTD SVG 1.1//EN" "http://www.w3.org/Graphics/SVG/1.1/DTD/svg11.dtd">
<svg width="100%" height="100%" viewBox="0 0 400 84" version="1.1" xmlns="http://www.w3.org/2000/svg" xmlns:xlink="http://www.w3.org/1999/xlink" xml:space="preserve" xmlns:serif="http://www.serif.com/" style="fill-rule:evenodd;clip-rule:evenodd;stroke-linejoin:round;stroke-miterlimit:2;">
    <g transform="matrix(2.20994,0,0,2.20994,0,0)">
        <path d="M18.803,17.184L32.626,6.644L31.48,21.689C31.521,24.198 30.773,26.656 29.342,28.716L18.803,20.697C18.26,20.276 17.942,19.627 17.942,18.94C17.942,18.253 18.26,17.604 18.803,17.184Z" style="fill:rgb(62,207,142);fill-rule:nonzero;"/>
        <path d="M9.027,20.697C8.484,20.276 8.166,19.627 8.166,18.94C8.166,18.253 8.484,17.604 9.027,17.184L28.884,1.986C24.903,0.732 20.761,0.063 16.588,0C12.292,0.091 8.028,0.759 3.91,1.986C1.899,2.609 0.591,4.546 0.764,6.644L1.909,21.689C1.925,31.083 11.456,35.895 15.213,37.651C16.143,38.033 17.186,38.033 18.115,37.651C20.748,36.571 23.176,35.047 25.294,33.145L9.027,20.697ZM48.206,24.592C49.81,26.094 51.891,26.986 54.086,27.112C56.454,27.112 57.37,26.119 57.37,24.744C57.37,23.217 55.995,22.759 53.857,21.842L50.726,20.468C48.206,19.475 45.838,17.336 45.838,13.823C45.838,9.928 49.351,6.644 54.392,6.644C57.285,6.692 60.06,7.807 62.182,9.776L59.432,13.289C58.02,12.084 56.246,11.385 54.392,11.303C52.635,11.303 51.26,12.067 51.26,13.441C51.26,14.969 52.788,15.427 55.003,16.343L58.134,17.489C61.036,18.635 62.792,20.62 62.792,24.133C62.792,28.028 59.509,31.541 53.857,31.541C50.542,31.542 47.349,30.287 44.922,28.028L48.206,24.592ZM66.367,5.499L71.789,5.499L71.789,11.914L71.56,15.198C72.935,14.052 74.691,12.678 77.211,12.678C81.106,12.678 82.863,15.427 82.863,20.086L82.863,31.389L77.441,31.389L77.441,20.697C77.441,17.947 76.677,17.184 75.073,17.184C73.698,17.184 72.935,17.795 71.789,18.94L71.789,31.389L66.367,31.389L66.367,5.499ZM85.857,7.484C85.857,5.728 87.231,4.735 88.988,4.735C90.744,4.735 92.119,5.881 92.119,7.484C92.004,9.129 90.636,10.404 88.988,10.404C87.339,10.404 85.972,9.129 85.857,7.484ZM86.238,13.136L91.646,13.136L91.646,31.465L86.223,31.465L86.238,13.136ZM118.467,31.236C117.14,31.684 115.743,31.891 114.343,31.847C109.837,31.847 108.081,28.945 108.081,24.821L108.081,17.413L102.429,17.413L102.429,31.465L96.992,31.465L96.992,17.413L94.471,17.413L94.471,13.289L96.992,13.059L96.992,12.067C96.992,8.172 98.748,5.041 103.789,5.041C105.058,5.074 106.317,5.28 107.531,5.651L106.538,9.546C105.902,9.31 105.231,9.181 104.552,9.165C103.178,9.165 102.414,9.928 102.414,11.685L102.414,12.83L108.447,12.83L109.058,7.943L113.564,7.943L113.564,12.83L118.07,12.83L118.07,17.107L113.564,17.107L113.564,24.515C113.564,26.654 114.557,27.417 115.932,27.417C116.531,27.363 117.121,27.235 117.688,27.035L118.467,31.236Z" style="fill:rgb(39,46,65);fill-rule:nonzero;"/>
        <path d="M121.98,7.255L127.403,7.255L127.403,26.73L136.949,26.73L136.949,31.389L121.904,31.389L121.98,7.255Z" style="fill:rgb(62,207,142);fill-rule:nonzero;"/>
        <path d="M147.336,12.525C152.605,12.525 155.125,16.42 155.125,21.308C155.125,22.3 154.896,23.064 154.896,23.675L143.975,23.675C144.357,26.424 146.343,27.57 148.634,27.57C150.012,27.547 151.358,27.151 152.529,26.424L154.285,29.708C152.409,31.048 150.174,31.792 147.87,31.847C142.601,31.847 138.476,28.334 138.476,22.3C138.476,16.267 142.814,12.525 147.336,12.525ZM150.39,20.315C150.39,18.176 149.398,16.802 147.259,16.802C145.503,16.802 144.128,17.947 143.746,20.315L150.39,20.315ZM181,31.236C179.673,31.684 178.276,31.891 176.876,31.847C172.37,31.847 170.614,28.945 170.614,24.821L170.614,17.413L165.038,17.413L165.038,31.465L159.616,31.465L159.616,17.413L157.096,17.413L157.096,13.289L159.616,13.059L159.616,12.067C159.616,8.172 161.373,5.041 166.413,5.041C167.682,5.074 168.941,5.28 170.155,5.651L169.162,9.546C168.526,9.31 167.855,9.181 167.177,9.165C165.802,9.165 165.038,9.928 165.038,11.685L165.038,12.83L171.072,12.83L171.683,7.943L176.189,7.943L176.189,12.83L180.695,12.83L180.695,17.107L176.189,17.107L176.189,24.515C176.189,26.654 177.181,27.417 178.556,27.417C179.155,27.363 179.745,27.235 180.313,27.035L181,31.236Z" style="fill:rgb(62,207,142);fill-rule:nonzero;"/>
    </g>
</svg>
