<?xml version="1.0" encoding="UTF-8" standalone="no"?>
<!DOCTYPE svg PUBLIC "-//W3C//DTD SVG 1.1//EN" "http://www.w3.org/Graphics/SVG/1.1/DTD/svg11.dtd">
<svg width="100%" height="100%" viewBox="0 0 158 34" version="1.1" xmlns="http://www.w3.org/2000/svg" xmlns:xlink="http://www.w3.org/1999/xlink" xml:space="preserve" xmlns:serif="http://www.serif.com/" style="fill-rule:evenodd;clip-rule:evenodd;stroke-linejoin:round;stroke-miterlimit:2;">
    <g>
        <clipPath id="_clip1">
            <rect x="0" y="0" width="157.357" height="33.895"/>
        </clipPath>
        <g clip-path="url(#_clip1)">
            <path d="M49.003,20.092C48.121,19.9 47.277,19.67 46.472,19.325C45.667,19.018 44.977,18.596 44.402,18.059C43.788,17.561 43.328,16.947 42.983,16.219C42.638,15.49 42.446,14.685 42.446,13.727C42.446,12.615 42.715,11.656 43.251,10.851C43.788,10.046 44.478,9.394 45.322,8.896C46.165,8.397 47.086,8.014 48.121,7.745C49.156,7.477 50.191,7.362 51.188,7.362C52.3,7.362 53.374,7.515 54.409,7.86C55.444,8.167 56.326,8.627 57.131,9.241C57.937,9.854 58.55,10.544 59.01,11.388C59.47,12.231 59.739,13.19 59.815,14.225L55.636,14.225C55.559,13.573 55.368,13.037 55.061,12.615C54.754,12.193 54.409,11.81 53.987,11.541C53.566,11.273 53.105,11.081 52.569,10.966C52.032,10.851 51.533,10.813 51.035,10.813C50.537,10.813 50.038,10.851 49.54,10.966C49.041,11.081 48.581,11.234 48.159,11.426C47.738,11.656 47.431,11.925 47.162,12.27C46.894,12.615 46.779,13.037 46.779,13.535C46.779,14.302 47.047,14.915 47.623,15.337C48.198,15.797 48.926,16.066 49.808,16.257L52.684,16.756C53.566,16.909 54.447,17.139 55.368,17.408C56.25,17.676 57.055,18.098 57.783,18.558C58.512,19.056 59.087,19.67 59.509,20.475C59.969,21.242 60.16,22.2 60.16,23.351C60.16,24.463 59.892,25.46 59.394,26.303C58.895,27.147 58.205,27.837 57.362,28.412C56.518,28.987 55.559,29.409 54.524,29.677C53.451,29.946 52.377,30.099 51.265,30.099C49.923,30.099 48.696,29.907 47.584,29.562C46.472,29.217 45.514,28.719 44.708,28.067C43.903,27.415 43.251,26.61 42.753,25.69C42.255,24.769 41.986,23.696 41.871,22.507L46.05,22.507C46.165,23.312 46.396,24.002 46.702,24.501C47.009,25.038 47.431,25.46 47.891,25.805C48.351,26.111 48.888,26.341 49.501,26.495C50.115,26.61 50.728,26.686 51.38,26.686C51.878,26.686 52.377,26.648 52.875,26.533C53.374,26.418 53.872,26.265 54.294,26.035C54.716,25.805 55.099,25.498 55.368,25.114C55.636,24.731 55.789,24.233 55.789,23.657C55.789,23.197 55.674,22.814 55.483,22.469C55.291,22.124 54.984,21.855 54.639,21.625C54.294,21.395 53.834,21.203 53.335,21.05C52.837,20.897 52.3,20.782 51.725,20.667L49.003,20.092ZM65.718,15.567C66.179,14.724 66.83,14.11 67.674,13.688C68.517,13.267 69.438,13.037 70.435,13.037C72.39,13.037 73.809,13.612 74.729,14.724C75.611,15.836 76.071,17.408 76.071,19.44L76.071,29.716L71.891,29.716L71.891,20.36C71.891,19.823 71.853,19.325 71.777,18.865C71.7,18.405 71.585,17.983 71.355,17.599C71.163,17.254 70.856,16.947 70.511,16.756C70.128,16.526 69.668,16.449 69.092,16.449C68.402,16.449 67.827,16.564 67.405,16.833C66.984,17.101 66.639,17.446 66.37,17.868C66.102,18.29 65.948,18.826 65.872,19.402C65.795,19.977 65.718,20.59 65.718,21.242L65.718,29.716L61.539,29.716L61.539,7.784L65.718,7.784L65.718,15.567ZM81.941,7.784L81.941,11.656L77.762,11.656L77.762,7.784L81.941,7.784ZM81.941,13.42L81.941,29.716L77.762,29.716L77.762,13.42L81.941,13.42ZM85.504,12.5C85.504,11.465 85.619,10.659 85.849,10.008C86.079,9.394 86.462,8.896 86.961,8.589C87.459,8.244 88.073,8.052 88.84,7.937C89.568,7.822 90.488,7.784 91.485,7.784L92.904,7.784L92.904,10.889L92.099,10.889C91.562,10.889 91.14,10.928 90.833,10.966C90.527,11.005 90.258,11.081 90.105,11.235C89.913,11.35 89.798,11.541 89.76,11.771C89.683,12.001 89.683,12.308 89.683,12.692L89.683,13.458L92.942,13.458L92.942,16.334L89.683,16.334L89.683,29.754L85.504,29.754L85.504,16.334L83.203,16.334L83.203,13.42L85.504,13.42L85.504,12.5ZM96.203,9.011L100.421,9.011L100.421,13.42L103.795,13.42L103.795,16.296L100.421,16.296L100.421,24.693C100.421,25.536 100.574,26.073 100.881,26.303C101.187,26.572 101.724,26.687 102.453,26.687L103.718,26.687L103.718,29.677L100.651,29.677C99.73,29.677 98.964,29.601 98.388,29.447C97.813,29.294 97.353,29.025 97.008,28.68C96.701,28.335 96.471,27.875 96.356,27.3C96.241,26.763 96.203,26.073 96.203,25.268L96.203,16.296L93.902,16.296L93.902,13.42L96.203,13.42L96.203,9.011ZM109.7,26.188L120.397,26.188L120.397,29.716L105.367,29.716L105.367,7.784L109.7,7.784L109.7,26.188ZM128.795,30.099C127.453,30.099 126.303,29.869 125.268,29.409C124.232,28.949 123.389,28.335 122.699,27.53C122.009,26.725 121.472,25.843 121.127,24.808C120.782,23.772 120.59,22.661 120.59,21.51C120.59,20.283 120.782,19.171 121.165,18.136C121.548,17.101 122.085,16.219 122.814,15.452C123.504,14.685 124.386,14.11 125.344,13.688C126.341,13.267 127.453,13.037 128.68,13.037C129.945,13.037 131.096,13.267 132.093,13.727C133.089,14.187 133.933,14.839 134.623,15.682C135.313,16.526 135.812,17.561 136.157,18.75C136.502,19.938 136.617,21.242 136.579,22.699L124.769,22.699C124.808,23.926 125.191,24.923 125.919,25.69C126.648,26.457 127.607,26.84 128.757,26.84C129.447,26.84 130.06,26.687 130.636,26.418C131.172,26.15 131.671,25.651 132.093,24.961L136.387,24.961C136.157,25.575 135.85,26.188 135.467,26.763C135.083,27.377 134.585,27.914 133.971,28.412C133.358,28.91 132.629,29.294 131.786,29.601C130.904,29.946 129.907,30.099 128.795,30.099ZM128.565,16.104C128.143,16.104 127.722,16.181 127.3,16.334C126.878,16.487 126.495,16.718 126.15,17.024C125.804,17.331 125.498,17.714 125.268,18.175C125.038,18.635 124.884,19.171 124.808,19.823L132.361,19.823C132.323,19.133 132.208,18.558 132.016,18.098C131.786,17.638 131.517,17.254 131.172,16.948C130.827,16.641 130.444,16.449 129.984,16.296C129.485,16.181 129.025,16.104 128.565,16.104ZM139.031,12.5C139.031,11.465 139.146,10.659 139.376,10.008C139.606,9.394 139.99,8.896 140.488,8.589C140.986,8.244 141.6,8.052 142.367,7.937C143.095,7.822 144.016,7.784 145.012,7.784L146.431,7.784L146.431,10.889L145.626,10.889C145.089,10.889 144.667,10.928 144.361,10.966C144.054,11.005 143.785,11.081 143.632,11.235C143.44,11.35 143.325,11.541 143.287,11.771C143.21,12.001 143.21,12.308 143.21,12.692L143.21,13.458L146.469,13.458L146.469,16.334L143.21,16.334L143.21,29.754L139.031,29.754L139.031,16.334L136.73,16.334L136.73,13.42L139.031,13.42L139.031,12.5ZM149.765,9.011L153.983,9.011L153.983,13.42L157.357,13.42L157.357,16.296L153.983,16.296L153.983,24.693C153.983,25.536 154.136,26.073 154.443,26.303C154.75,26.572 155.287,26.687 156.015,26.687L157.281,26.687L157.281,29.677L154.213,29.677C153.293,29.677 152.526,29.601 151.951,29.447C151.376,29.294 150.916,29.025 150.571,28.68C150.264,28.335 150.034,27.875 149.919,27.3C149.804,26.763 149.765,26.073 149.765,25.268L149.765,16.296L147.465,16.296L147.465,13.42L149.765,13.42L149.765,9.011Z" style="fill:#08152e;fill-rule:nonzero;"/>
            <path d="M24.614,12.27L29.637,3.566L25.419,2.377L19.859,12.04L27.298,24.923C27.835,24.424 28.295,23.926 28.602,23.504C29.177,22.737 29.522,21.855 29.598,20.935L24.614,12.27Z" style="fill:#fe381c;fill-rule:nonzero;"/>
            <path d="M20.205,30.367C21.432,29.524 22.697,28.604 23.924,27.683L14.837,12.039L21.125,1.189L16.793,0L9.699,12.27L20.205,30.367ZM29.602,12.269L29.64,12.308L29.64,12.231L29.602,12.269Z" style="fill:#fe381c;fill-rule:nonzero;"/>
            <path d="M4.716,12.27L11.618,0.345L0,3.566L0,20.552C0,21.625 0.345,22.622 1.035,23.504C3.911,27.185 14.839,33.895 14.839,33.895C14.839,33.895 15.529,33.473 16.602,32.783L4.716,12.27Z" style="fill:#fe381c;fill-rule:nonzero;"/>
        </g>
    </g>
</svg>
