<?xml version="1.0" encoding="UTF-8" standalone="no"?>
<!DOCTYPE svg PUBLIC "-//W3C//DTD SVG 1.1//EN" "http://www.w3.org/Graphics/SVG/1.1/DTD/svg11.dtd">
<svg width="100%" height="100%" viewBox="0 0 378 140" version="1.1" xmlns="http://www.w3.org/2000/svg" xmlns:xlink="http://www.w3.org/1999/xlink" xml:space="preserve" xmlns:serif="http://www.serif.com/" style="fill-rule:evenodd;clip-rule:evenodd;stroke-linejoin:round;stroke-miterlimit:2;">
    <g transform="matrix(1,0,0,1,-47.4112,-56.45)">
        <path d="M56.99,78.99C68.44,71.7 79.27,63.47 90.89,56.45C108.91,66.76 126.88,77.16 144.89,87.5C141.31,90.2 137.59,92.7 133.8,95.11C126.33,99.83 119.11,104.94 111.59,109.6C108.48,111.7 104.96,113.64 103.02,116.98C101.41,120.4 101.67,124.31 101.57,127.99C101.81,146.19 101.53,164.38 101.73,182.58C101.75,187.01 101.74,191.44 101.7,195.88C83.62,185.44 65.44,175.2 47.46,164.6C47.4,140.06 47.39,115.52 47.46,90.99C46.98,84.96 52.68,81.81 56.99,78.99Z" style="fill:rgb(69,60,105);fill-rule:nonzero;"/>
    </g>
    <g transform="matrix(1,0,0,1,-47.4112,-56.45)">
        <path d="M116.29,120.31C122.04,115.65 128.57,112.08 134.74,108.01C138.1,109.89 141.4,111.87 144.6,114C139.12,118.49 132.9,121.98 127.38,126.4C124.66,128.39 123.35,131.68 123.44,134.99C123.26,150.02 123.64,165.05 123.26,180.08C119.71,178.3 116.25,176.37 112.69,174.61C112.43,160.74 112.71,146.86 112.47,132.99C112.51,128.57 112.4,123.29 116.29,120.31Z" style="fill:rgb(69,60,105);fill-rule:nonzero;"/>
    </g>
    <g transform="matrix(1,0,0,1,-47.4112,-56.45)">
        <path d="M111.59,109.6C119.11,104.94 126.33,99.83 133.8,95.11C137.44,96.7 140.98,98.5 144.42,100.49C141.68,103.58 138.29,105.95 134.74,108.01C128.57,112.08 122.04,115.65 116.29,120.31C112.4,123.29 112.51,128.57 112.47,132.99C112.71,146.86 112.43,160.74 112.69,174.61C112.76,179.3 112.54,183.98 112.23,188.66C108.93,186.31 105.43,184.24 101.73,182.58C101.53,164.38 101.81,146.19 101.57,127.99C101.67,124.31 101.41,120.4 103.02,116.98C104.96,113.64 108.48,111.7 111.59,109.6Z" style="fill:rgb(231,196,91);fill-rule:nonzero;"/>
    </g>
    <g transform="matrix(1,0,0,1,-47.4112,-56.45)">
        <path d="M188.47,116.45C191.68,115.23 195.79,117 196.5,120.52C197.79,124.73 193.54,129.42 189.19,127.98C183.7,127.03 183.19,118.08 188.47,116.45Z" style="fill:rgb(48,31,113);fill-rule:nonzero;"/>
    </g>
    <g transform="matrix(1,0,0,1,-47.4112,-56.45)">
        <path d="M286.15,124.14C289.6,123.48 293.06,122.84 296.53,122.26C296.58,125.91 296.62,129.55 296.71,133.2C299.01,133.35 301.32,133.47 303.63,133.6C304.75,136.25 305.87,138.9 306.95,141.57C303.53,141.65 300.12,141.69 296.7,141.76C296.61,147.19 296.39,152.63 296.64,158.06C296.78,160.21 297.1,162.93 299.32,163.96C301.74,164.76 304.33,164.41 306.83,164.46C307.77,166.99 308.69,169.52 309.58,172.08C304.27,174.17 298.02,174.91 292.79,172.21C288.92,170.28 286.35,166.25 286.05,161.96C285.54,155.41 286.04,148.84 285.81,142.28C284.07,141.85 282.33,141.43 280.59,140.99C280.61,138.68 280.61,136.38 280.61,134.07C282.3,133.65 284,133.25 285.7,132.84C285.83,129.94 285.96,127.04 286.15,124.14Z" style="fill:rgb(48,31,113);fill-rule:nonzero;"/>
    </g>
    <g transform="matrix(1,0,0,1,-47.4112,-56.45)">
        <path d="M154,135C161.35,130.28 170.84,132.33 178.12,136.14C177.09,138.62 176.03,141.09 174.96,143.55C171.15,142.36 167.27,140.71 163.2,141.2C161.21,141.26 160.53,143.41 159.46,144.72C165.17,147.93 172.17,149.26 176.67,154.34C181.28,159.35 179.57,168.48 173.31,171.3C165.61,174.88 156.12,173.85 149.04,169.27C150.14,166.95 151.23,164.62 152.3,162.28C157.79,164.1 163.97,166 169.36,162.8C168.61,161.27 168.27,159.28 166.59,158.45C161.88,155.71 156.11,154.79 152.08,150.9C147.47,146.62 148.66,138.17 154,135Z" style="fill:rgb(48,31,113);fill-rule:nonzero;"/>
    </g>
    <g transform="matrix(1,0,0,1,-47.4112,-56.45)">
        <path d="M214.46,133.51C220.56,131.01 227.28,132.56 232.82,135.71C235.27,134.09 238.08,133.22 240.99,132.9C241.64,146.26 241.11,159.65 241.31,173.02C241.56,178.34 239.7,184.07 235,187.02C225.86,193.03 213.89,191.23 204.46,186.86C205.33,184.23 206.28,181.64 207.25,179.05C213.41,180.89 220.46,184.16 226.63,180.61C230.13,178.92 230.55,174.8 231.02,171.41C225.1,173.43 218.36,174.47 212.57,171.45C197.9,164.43 198.91,138.9 214.46,133.51M217.82,142.82C212.45,146.8 212.05,155.18 215.45,160.55C218.71,165.63 226.98,165.23 230.33,160.55C231.02,155.14 230.44,149.67 230.53,144.24C226.75,142.07 221.85,140.07 217.82,142.82Z" style="fill:rgb(48,31,113);fill-rule:nonzero;"/>
    </g>
    <g transform="matrix(1,0,0,1,-47.4112,-56.45)">
        <path d="M253.59,134.53C260.92,130.41 269.93,132.52 277.01,136.16C275.99,138.63 274.94,141.09 273.89,143.55C269.67,142.27 265.13,140.14 260.69,141.61C259.81,142.58 259.11,143.69 258.37,144.77C264.29,148.07 271.64,149.41 276.05,154.96C280.14,160.03 278.07,168.44 272.26,171.27C264.58,175.02 255.39,173.51 248.02,169.74C249.01,167.23 250.07,164.74 251.16,162.26C256.66,164.2 262.88,165.96 268.29,162.72C267.53,161.24 267.15,159.36 265.57,158.52C260.66,155.66 254.53,154.79 250.54,150.46C246.15,145.8 248.02,137.4 253.59,134.53Z" style="fill:rgb(48,31,113);fill-rule:nonzero;"/>
    </g>
    <g transform="matrix(1,0,0,1,-47.4112,-56.45)">
        <path d="M328.44,132.7C336.67,131.14 346.51,133.28 351.19,140.8C356.61,149.73 355.37,163.21 346.6,169.61C339.14,174.64 328.63,174.7 320.95,170.13C312.28,164.59 310.53,152.36 314.39,143.39C316.78,137.65 322.42,133.75 328.44,132.7M329.45,142.42C320.92,146.46 321.67,161.66 331.19,163.95C338.62,166.05 344.65,157.85 343.22,151C342.97,144.44 335.55,139.13 329.45,142.42Z" style="fill:rgb(48,31,113);fill-rule:nonzero;"/>
    </g>
    <g transform="matrix(1,0,0,1,-47.4112,-56.45)">
        <path d="M389.31,143.33C393.69,131.84 410.48,128.56 419.37,136.63C424.61,141.6 425.4,149.28 425.33,156.11C416.46,156.37 407.58,155.94 398.72,156.34C400.1,159.06 401.46,162.29 404.64,163.31C410.45,165.65 416.65,163.26 422.08,161C423.12,163.61 424.14,166.23 425.12,168.87C416.64,174.65 404.88,174.98 395.97,170.03C387.1,164.69 385.79,152.27 389.31,143.33M398.73,148.66C404.24,148.98 409.77,148.98 415.28,148.67C413.83,145.16 411.41,141.12 407.01,141.49C402.64,141.22 400.26,145.22 398.73,148.66Z" style="fill:rgb(48,31,113);fill-rule:nonzero;"/>
    </g>
    <g transform="matrix(1,0,0,1,-47.4112,-56.45)">
        <path d="M185.38,133.3C188.94,133.27 192.49,133.27 196.05,133.27C196.38,146.3 196.22,159.33 196.14,172.36C192.55,172.43 188.96,172.4 185.37,172.2C185.45,159.24 185.43,146.27 185.38,133.3Z" style="fill:rgb(48,31,113);fill-rule:nonzero;"/>
    </g>
    <g transform="matrix(1,0,0,1,-47.4112,-56.45)">
        <path d="M360.44,133.08C362.31,133.31 364.34,133.04 366.1,133.84C367.55,135.46 368.61,137.37 369.8,139.18C373.78,136.47 378.05,134.1 382.78,132.96C383.55,135.79 384.28,138.63 384.96,141.48C380.43,143.09 375.69,144.7 372.11,148.04C371.04,148.99 371.42,150.65 371.22,151.93C371.15,158.74 371.37,165.55 371.21,172.37C367.59,172.43 363.98,172.4 360.38,172.2C360.52,159.16 360.38,146.12 360.44,133.08Z" style="fill:rgb(48,31,113);fill-rule:nonzero;"/>
    </g>
</svg>
