<?xml version="1.0" encoding="UTF-8" standalone="no"?>
<!DOCTYPE svg PUBLIC "-//W3C//DTD SVG 1.1//EN" "http://www.w3.org/Graphics/SVG/1.1/DTD/svg11.dtd">
<svg width="100%" height="100%" viewBox="0 0 396 204" version="1.1" xmlns="http://www.w3.org/2000/svg" xmlns:xlink="http://www.w3.org/1999/xlink" xml:space="preserve" xmlns:serif="http://www.serif.com/" style="fill-rule:evenodd;clip-rule:evenodd;stroke-linejoin:round;stroke-miterlimit:2;">
    <g id="logo" transform="matrix(1,0,0,1,-56.4667,-15.9997)">
        <g id="snyk-wordmark" transform="matrix(1,0,0,1,210,59)">
            <path d="M202.463,69.428L200.926,69.428L200.926,95.937L181.846,95.937L181.846,29.935L200.926,0.18L200.926,61.764C204.724,57.12 217.519,39.493 217.519,39.493L241.075,39.493L218.74,63.071L241.843,95.982L217.745,95.982L202.463,69.428ZM149.293,65.1L157.115,39.673L176.014,39.673L153.859,95.757C147.258,112.618 137.809,124.024 123.702,124.024C118.277,124.024 113.71,122.626 111.314,121.274L118.91,109.552C120.04,109.687 121.216,109.732 122.391,109.732C128.902,109.732 133.785,103.421 136.95,95.937L113.71,39.673L135.096,39.673L143.46,64.785C145.088,69.563 146.264,78.67 146.264,78.67C146.264,78.67 147.756,69.879 149.293,65.1ZM91.646,63.793C91.646,56.444 88.391,52.973 82.197,52.973C79.168,52.973 76.003,53.829 73.833,55.137L73.833,95.937L54.753,95.937L54.753,40.214L73.426,38.681L72.974,47.788L73.606,47.788C77.63,42.378 84.458,38.276 92.596,38.276C102.362,38.276 110.817,44.317 110.817,58.608L110.817,95.937L91.646,95.937L91.646,63.793ZM0.136,93.052L1.854,80.068C7.822,82.998 14.559,84.396 20.21,84.396C24.325,84.396 27.037,82.998 27.037,80.519C27.037,73.395 1.311,75.109 1.311,56.489C1.311,44.587 12.253,38.321 25.952,38.321C32.779,38.321 39.833,40.169 44.399,41.792L42.545,54.551C37.753,52.702 31.242,50.989 25.817,50.989C22.471,50.989 19.758,52.161 19.758,54.325C19.758,61.358 46.027,59.961 46.027,78.129C46.027,90.211 35.266,97.154 20.527,97.154C12.388,97.154 5.787,95.757 0.136,93.052Z" style="fill:#091c30;fill-rule:nonzero;"/>
        </g>
        <g transform="matrix(1,0,0,1,56.4667,15.73)">
            <g id="snyk-dog">
                <g id="dog">
                    <path id="shield-outline-ears" d="M112.133,54.062L17.224,54.062C17.224,48.13 25.803,30.199 42.96,0.27C42.96,0.27 45.336,16.055 50.087,47.624L79.082,47.625L86.199,0.27C103.488,30.596 112.133,48.527 112.133,54.062Z" style="fill:#fff;fill-rule:nonzero;"/>
                    <path id="shield-outline" d="M64.533,204.13L0,158.975L0,53.586C0,53.586 23.86,44.793 64.616,44.793C105.372,44.793 129.058,53.586 129.058,53.586L129.058,158.975L64.533,204.13Z" style="fill:#fff;fill-rule:nonzero;"/>
                    <path id="shield-left" d="M64.533,197.783L4.123,155.689L4.123,57.816C4.123,57.816 26.714,49.65 64.533,49.65L64.533,197.783Z" style="fill:#dbdbdb;fill-rule:nonzero;"/>
                    <path id="shield-right" d="M64.616,49.65C64.588,49.65 64.561,49.651 64.533,49.65L64.533,197.659L64.534,197.659L124.414,155.687L124.414,57.816C124.414,57.816 102.435,49.65 64.616,49.65Z" style="fill:#c6c6c6;fill-rule:nonzero;"/>
                    <path id="neck-right" d="M97.221,174.754L92.127,130.547L64.13,130.547L64.13,197.886L64.533,198.266C75.425,190.826 86.321,182.988 97.221,174.754Z" style="fill:#3b3b63;fill-rule:nonzero;"/>
                    <path id="neck-left" d="M31.863,175.103L64.533,198.266L64.55,129.201L36.256,129.201L31.863,175.103Z" style="fill:#53537a;fill-rule:nonzero;"/>
                    <path id="chin" d="M78.513,162.018C78.513,169.613 71.297,173.378 64.676,173.378C58.056,173.378 50.694,169.613 50.694,162.018" style="fill:#bc9375;fill-rule:nonzero;"/>
                    <path id="teeth" d="M64.603,165.946C59.288,165.946 56.704,162.113 56.704,154.233L59.238,154.233C59.238,163.458 62.861,163.458 64.603,163.458C66.345,163.458 69.968,163.458 69.968,154.233L72.502,154.233C72.502,162.113 69.917,165.946 64.603,165.946Z" style="fill:#fff;fill-rule:nonzero;"/>
                    <path id="face-right" d="M64.533,156.156C66.169,160.383 69.329,162.496 74.016,162.496C78.604,162.496 83.392,160.122 85.572,154.256C88.618,146.051 88.587,134.631 88.587,134.631C88.587,134.631 102.121,117.982 102.121,112.352L64.533,112.352L64.533,156.156Z" style="fill:#c49a7e;fill-rule:nonzero;"/>
                    <path id="face-left" d="M26.401,112.352C26.401,118.872 39.817,134.631 39.817,134.631C39.817,134.631 39.784,146.048 42.833,154.256C45.008,160.118 49.801,162.496 54.391,162.496C59.077,162.496 62.458,160.383 64.533,156.156L64.533,112.352L26.401,112.352Z" style="fill:#d8b7a0;fill-rule:nonzero;"/>
                    <path id="brow-right" d="M100.505,74.865C90.072,64.354 87.463,42.435 87.463,42.435C85.515,49.341 81.282,69.705 81.282,69.705C81.282,69.705 73.058,67.092 64.201,67.078C63.91,67.078 63.91,94.516 64.201,149.39L72.633,143.401L74.201,114.335L83.18,124.402L94.746,127.723C94.746,127.723 99.074,124.691 99.074,124.702C100.912,122.173 101.521,120.019 101.965,118.901C103.572,114.834 99.965,83.732 99.965,83.732C98.684,81.098 100.505,74.865 100.505,74.865Z" style="fill:#3b3b63;fill-rule:nonzero;"/>
                    <path id="brow-left" d="M48.005,69.704C48.005,69.704 43.77,49.341 41.824,42.433C41.824,42.433 39.216,64.352 28.782,74.864C28.782,74.864 30.603,81.097 29.322,83.73C29.322,83.73 25.715,114.834 27.321,118.895C27.765,120.013 28.379,122.167 30.214,124.696C30.214,124.684 34.545,127.717 34.545,127.717L46.109,124.395L55.086,114.33L56.658,143.396L64.542,149.227L64.542,66.924C55.651,66.939 48.005,69.704 48.005,69.704Z" style="fill:#53537a;fill-rule:nonzero;"/>
                    <path id="face-outline" d="M93.204,22.122C94.935,25.292 109.816,54.598 109.816,64.747L103.216,82.412C104.332,92.379 106.553,114.037 104.876,118.268C103.842,120.885 99.896,126.269 96.522,130.629L101.135,172.007L94.899,176.42L91.431,146.186C90.955,149.254 90.238,152.531 89.145,155.472C87.701,159.366 85.148,162.317 81.882,164.064C81.691,173.399 72.93,178.435 64.676,178.435C56.354,178.435 47.52,173.403 47.326,164.072C44.054,162.321 41.497,159.37 40.051,155.472C39.002,152.644 38.295,149.513 37.816,146.547L34.499,176.976L28.229,172.491L32.757,130.756C29.356,126.376 25.335,120.912 24.29,118.266C22.614,114.033 24.748,92.379 25.866,82.41L18.874,64.126L18.874,63.531C18.874,53.382 34.144,25.292 35.877,22.122L40.823,13.222C43.834,33.842 45.338,44.161 45.336,44.179L47.771,60.888L50.975,66.064C54.053,65.043 59.279,63.625 64.571,63.625C69.868,63.625 75.13,65.048 78.221,66.067L81.423,60.889L88.361,13.222L93.204,22.122ZM64.676,171.8C68.33,171.8 73.532,170.177 74.831,165.875C74.692,165.879 74.557,165.89 74.418,165.89C73.707,165.89 73.043,165.824 72.398,165.738C70.513,168.313 67.578,169.094 64.604,169.094C61.635,169.094 58.705,168.305 56.824,165.734C56.175,165.825 55.503,165.89 54.786,165.89C54.65,165.89 54.518,165.879 54.383,165.875C55.695,170.177 60.968,171.8 64.676,171.8ZM60.398,164.728C61.531,165.562 62.931,166.026 64.606,166.026C66.272,166.026 67.666,165.559 68.797,164.728C67.895,164.334 67.079,163.865 66.359,163.352C65.707,163.542 65.084,163.537 64.603,163.537C64.12,163.537 63.49,163.537 62.833,163.348C62.115,163.865 61.3,164.334 60.398,164.728ZM86.356,132.629C90.845,127.153 97.602,118.334 98.581,115.866C99.319,113.325 98.06,96.479 96.458,82.36L96.369,81.577L97.694,78.069C93.327,73.497 90.281,67.232 88.2,61.315L87.929,63.174L81.035,74.303L78.343,73.176C78.277,73.148 71.247,70.257 64.575,70.257C57.86,70.257 50.944,73.145 50.877,73.173L48.18,74.31L41.278,63.176L41.073,61.75C38.97,67.609 35.92,73.764 31.574,78.237L32.839,81.579L32.751,82.363C31.148,96.479 29.889,113.325 30.651,115.93C31.606,118.338 38.364,127.157 42.85,132.629L43.598,133.543L43.594,134.714C43.594,134.824 43.607,145.656 46.406,153.194C48.438,158.662 52.946,159.246 54.792,159.246C59.433,159.246 61.397,155.064 61.478,154.885C62.565,152.784 63.109,149.331 63.109,144.527L65.915,144.527C65.915,148.386 66.5,151.847 67.67,154.908C67.741,155.059 69.754,159.257 74.418,159.257C76.26,159.257 80.769,158.666 82.8,153.198C85.608,145.634 85.611,134.824 85.611,134.718L85.608,133.547L86.356,132.629Z" style="fill:#333152;fill-rule:nonzero;"/>
                    <path id="eye-shadow-right" d="M89.813,103.187L72.079,103.187L72.079,103.327C72.079,107.961 76.159,111.714 80.945,111.714C85.733,111.714 89.813,107.96 89.813,103.327L89.813,103.187Z" style="fill:#333152;fill-rule:nonzero;"/>
                    <path id="eye-right" d="M75.456,103.187L75.456,103.327C75.456,106.083 77.716,108.317 80.525,108.317C83.333,108.317 85.592,106.083 85.592,103.327L85.592,103.187L75.456,103.187Z" style="fill:#fff;fill-rule:nonzero;"/>
                    <path id="eye-pupil-right" d="M79.713,103.187C79.69,103.187 79.67,103.198 79.65,103.202C79.944,103.263 80.107,103.919 80.044,104.355C79.949,105.022 79.37,105.485 78.707,105.496C78.9,106.368 79.624,107.069 80.586,107.202C81.814,107.373 82.95,106.546 83.124,105.34C83.249,104.453 82.815,103.187 82.088,103.187L79.713,103.187Z" style="fill:#333152;fill-rule:nonzero;"/>
                    <path id="eye-shadow-left" d="M57.196,103.187L39.46,103.187L39.46,103.327C39.46,107.961 43.542,111.714 48.327,111.714C53.115,111.714 57.196,107.96 57.196,103.327L57.196,103.187Z" style="fill:#333152;fill-rule:nonzero;"/>
                    <path id="eye-left" d="M42.839,103.187L42.839,103.327C42.839,106.083 45.1,108.317 47.905,108.317C50.714,108.317 52.973,106.083 52.973,103.327L52.973,103.187L42.839,103.187Z" style="fill:#fff;fill-rule:nonzero;"/>
                    <path id="eye-pupil-left" d="M49.471,103.187L47.093,103.187C47.073,103.187 47.05,103.198 47.031,103.202C47.325,103.263 47.487,103.919 47.426,104.355C47.33,105.022 46.754,105.485 46.087,105.496C46.283,106.368 47.007,107.069 47.967,107.202C49.194,107.373 50.332,106.546 50.504,105.34C50.631,104.453 50.197,103.187 49.471,103.187Z" style="fill:#333152;fill-rule:nonzero;"/>
                    <path id="brow-right1" serif:id="brow-right" d="M84.572,99.232C85.139,98.621 89.956,93.256 83.514,93.256C77.693,93.256 73.504,97.867 72.394,99.232L84.572,99.232Z" style="fill:#c49a7e;fill-rule:nonzero;"/>
                    <path id="brow-left1" serif:id="brow-left" d="M56.785,99.232C55.675,97.867 51.487,93.256 45.664,93.256C39.225,93.256 44.042,98.621 44.606,99.232L56.785,99.232Z" style="fill:#d8b7a0;fill-rule:nonzero;"/>
                    <path id="ear-left" d="M25.815,62.991C26.197,57.726 31.776,45.113 37.098,34.484L38.516,44.203C37.975,47.837 35.503,62.088 28.871,71.071L25.815,62.991Z" style="fill:#d8b7a0;fill-rule:nonzero;"/>
                    <path id="ear-right" d="M90.803,43.446L92.11,34.485C97.431,45.113 103.013,57.727 103.395,62.991L100.411,70.88C93.246,60.991 90.998,44.915 90.803,43.446Z" style="fill:#c49a7e;fill-rule:nonzero;"/>
                    <path id="nose" d="M59.635,150.429C57.136,148.568 54.572,146.219 54.572,144.418C54.572,143.234 56.704,139.586 56.704,139.586L72.555,139.586C72.555,139.586 74.634,142.82 74.634,144.418C74.634,146.095 72.047,148.379 69.465,150.241C68.586,148.755 67.468,148.497 66.951,149.668C66.684,150.275 66.632,151.148 66.762,152.062C65.356,152.954 64.328,153.529 64.328,153.529C64.328,153.529 63.535,153.074 62.4,152.341C62.583,151.328 62.548,150.336 62.254,149.668C61.732,148.481 60.592,148.762 59.706,150.301C59.682,150.343 59.658,150.386 59.635,150.429Z" style="fill:#333152;fill-rule:nonzero;"/>
                </g>
            </g>
        </g>
    </g>
</svg>
