<?xml version="1.0" encoding="UTF-8" standalone="no"?>
<!DOCTYPE svg PUBLIC "-//W3C//DTD SVG 1.1//EN" "http://www.w3.org/Graphics/SVG/1.1/DTD/svg11.dtd">
<svg width="100%" height="100%" viewBox="0 0 256 45" version="1.1" xmlns="http://www.w3.org/2000/svg" xmlns:xlink="http://www.w3.org/1999/xlink" xml:space="preserve" xmlns:serif="http://www.serif.com/" style="fill-rule:evenodd;clip-rule:evenodd;stroke-linejoin:round;stroke-miterlimit:2;">
    <g transform="matrix(1,0,0,1,-9.7188,-5.324)">
        <path d="M57.803,32.024C60.146,34.238 63.223,35.514 66.444,35.607C69.764,35.607 71.451,34.395 71.451,32.498C71.451,30.285 68.763,29.495 65.654,28.81C61.281,27.861 56.064,26.702 56.064,21.011C56.064,16.849 59.647,13.266 66.076,13.266C69.708,13.181 73.244,14.46 75.982,16.849L73.663,20.748C71.68,18.736 68.952,17.63 66.128,17.692C63.23,17.692 61.386,18.746 61.386,20.537C61.386,22.487 63.915,23.172 66.919,23.857C71.345,24.805 76.772,26.07 76.772,32.077C76.772,36.556 73.031,39.981 66.181,39.981C62.172,40.128 58.259,38.71 55.274,36.029L57.803,32.024Z" style="fill:#1b1c30;fill-rule:nonzero;"/>
        <path d="M79.561,26.597C79.561,19.325 84.566,13.266 92.628,13.266C100.795,13.266 105.748,19.326 105.748,26.597C105.748,33.921 100.795,39.981 92.628,39.981C84.566,39.981 79.561,33.921 79.561,26.597M100.005,26.597C100.005,22.118 97.37,18.166 92.628,18.166C87.938,18.166 85.304,22.118 85.304,26.597C85.304,31.128 87.939,35.08 92.628,35.08C97.37,35.08 100.005,31.128 100.005,26.597" style="fill:#1b1c30;fill-rule:nonzero;"/>
        <path d="M127.296,23.435C127.296,19.483 125.294,18.166 122.185,18.166C119.596,18.236 117.181,19.502 115.651,21.591L115.651,39.348L110.118,39.348L110.118,13.898L115.651,13.898L115.651,17.375C117.912,14.792 121.175,13.295 124.608,13.265C130.088,13.265 132.828,16.216 132.828,21.433L132.828,39.348L127.296,39.348L127.296,23.435Z" style="fill:#1b1c30;fill-rule:nonzero;"/>
        <path d="M154.728,36.608C152.604,38.865 149.604,40.095 146.508,39.981C142.345,39.981 137.655,37.188 137.655,31.55C137.655,25.701 142.345,23.277 146.508,23.277C149.933,23.277 152.884,24.384 154.728,26.544L154.728,22.75C154.728,19.799 152.304,18.008 148.773,18.008C145.929,18.006 143.205,19.168 141.239,21.222L138.973,17.375C141.861,14.657 145.704,13.18 149.669,13.265C155.308,13.265 160.26,15.636 160.26,22.486L160.26,39.348L154.728,39.348L154.728,36.608ZM154.728,29.706C153.23,27.932 150.986,26.956 148.668,27.071C145.559,27.071 143.241,28.862 143.241,31.655C143.241,34.395 145.559,36.187 148.668,36.187C150.986,36.301 153.23,35.326 154.728,33.552L154.728,29.706Z" style="fill:#1b1c30;fill-rule:nonzero;"/>
        <path d="M168.533,33.447L168.533,18.746L164.318,18.746L164.318,13.898L168.533,13.898L168.533,6.943L174.066,6.943L174.066,13.898L179.23,13.898L179.23,18.746L174.066,18.746L174.066,32.077C174.066,33.815 174.909,35.08 176.49,35.08C177.399,35.108 178.285,34.787 178.966,34.184L180.284,38.347C179.282,39.296 177.649,39.981 175.067,39.981C170.799,39.981 168.533,37.662 168.533,33.447" style="fill:#1b1c30;fill-rule:nonzero;"/>
        <path d="M187.219,44.775C188.791,44.963 190.3,44.045 190.855,42.563L192.12,39.664L181.687,13.898L187.588,13.898L195.018,32.972L202.448,13.898L208.402,13.898L196.125,43.932C194.386,48.253 191.33,49.623 187.378,49.676C186.332,49.657 185.29,49.534 184.269,49.307L185.112,44.354C185.782,44.625 186.497,44.768 187.219,44.775" style="fill:#1b1c30;fill-rule:nonzero;"/>
        <path d="M211.069,49.044L211.069,13.898L216.602,13.898L216.602,17.376C218.517,14.79 221.551,13.263 224.769,13.266C231.355,13.266 236.045,18.218 236.045,26.597C236.045,34.975 231.355,39.981 224.769,39.981C221.536,39.997 218.488,38.444 216.602,35.818L216.602,49.044L211.069,49.044ZM223.135,18.166C220.542,18.217 218.119,19.487 216.601,21.591L216.601,31.655C218.135,33.741 220.548,35.006 223.135,35.08C227.508,35.08 230.301,31.55 230.301,26.597C230.301,21.697 227.508,18.166 223.135,18.166" style="fill:#1b1c30;fill-rule:nonzero;"/>
        <path d="M252.74,13.266C260.38,13.266 265.281,19.114 265.281,27.124L265.281,28.441L245.627,28.441C245.996,32.558 249.614,35.683 253.742,35.449C256.41,35.445 258.984,34.449 260.96,32.657L263.489,36.292C260.645,38.795 256.948,40.115 253.162,39.981C245.521,39.981 239.831,34.659 239.831,26.597C239.831,19.22 245.205,13.266 252.74,13.266M245.574,24.542L259.906,24.542C259.877,20.828 256.813,17.788 253.099,17.788C252.98,17.788 252.86,17.791 252.74,17.797C247.998,17.797 245.838,21.433 245.574,24.542" style="fill:#1b1c30;fill-rule:nonzero;"/>
        <path d="M28.164,5.324L9.719,15.974L9.719,37.273L28.164,47.923L46.61,37.273L46.61,15.974L28.164,5.324ZM41.319,34.218L28.164,41.813L15.01,34.218L15.01,19.028L28.164,11.433L41.319,19.028L41.319,34.218Z" style="fill:url(#_Linear1);fill-rule:nonzero;"/>
    </g>
    <defs>
        <linearGradient id="_Linear1" x1="0" y1="0" x2="1" y2="0" gradientUnits="userSpaceOnUse" gradientTransform="matrix(36.8913,21.2991,-21.2991,36.8913,9.7188,15.9736)"><stop offset="0" style="stop-color:#8002ef;stop-opacity:1"/><stop offset="1" style="stop-color:#4ba9ea;stop-opacity:1"/></linearGradient>
    </defs>
</svg>
