<?xml version="1.0" encoding="UTF-8" standalone="no"?>
<!DOCTYPE svg PUBLIC "-//W3C//DTD SVG 1.1//EN" "http://www.w3.org/Graphics/SVG/1.1/DTD/svg11.dtd">
<svg width="100%" height="100%" viewBox="0 0 1931 759" version="1.1" xmlns="http://www.w3.org/2000/svg" xmlns:xlink="http://www.w3.org/1999/xlink" xml:space="preserve" xmlns:serif="http://www.serif.com/" style="fill-rule:evenodd;clip-rule:evenodd;stroke-linejoin:round;stroke-miterlimit:2;">
    <g transform="matrix(1,0,0,1,-2.81617,-2.73494)">
        <path d="M405.54,82.75C418.54,80.65 432.21,82.99 443.75,89.34C456.91,96.44 467.16,108.69 471.87,122.88C476.87,137.54 475.83,154.12 469.05,168.04C463.36,179.96 453.58,189.86 441.73,195.71C428.63,202.29 413.07,203.79 398.95,199.81C383.45,195.58 369.87,184.81 362.28,170.64C354.62,156.7 352.91,139.66 357.62,124.48C363.94,102.93 383.34,86.05 405.54,82.75Z" style="fill:#fff;fill-rule:nonzero;"/>
    </g>
    <g transform="matrix(1,0,0,1,-2.81617,-2.73494)">
        <path d="M458.96,206.45C464.74,202.49 469.96,197.75 474.54,192.44C491.16,210.93 507.87,229.36 524.43,247.91C529.73,243.33 534.89,238.59 540.08,233.88C551.07,261.72 561.95,289.61 572.94,317.45C546.46,303.52 519.83,289.88 493.32,276C498.53,271.34 503.75,266.71 508.89,261.97C492.26,243.45 475.54,225.01 458.96,206.45Z" style="fill:#fff;fill-rule:nonzero;"/>
    </g>
    <g transform="matrix(1,0,0,1,-2.81617,-2.73494)">
        <path d="M359.51,196.88C364.54,201.81 370.1,206.2 376.23,209.7C343.29,246.32 310.34,282.92 277.36,319.5C282.51,324.21 287.82,328.76 292.87,333.59C266.38,347.34 239.92,361.12 213.42,374.84C224.31,347.03 235.28,319.26 246.14,291.44C251.38,296.05 256.52,300.77 261.71,305.44C292.97,270.94 324.01,236.23 355.22,201.68C356.65,200.09 358.07,198.48 359.51,196.88Z" style="fill:#fff;fill-rule:nonzero;"/>
    </g>
    <g transform="matrix(1,0,0,1,-2.81617,-2.73494)">
        <path d="M404.5,219.32C411.46,220.21 418.53,220.21 425.5,219.32C425.49,301.19 425.51,383.07 425.5,464.94C432.49,464.97 439.49,464.93 446.49,464.96C436.01,492.96 425.5,520.95 415,548.95C404.5,520.95 393.99,492.96 383.51,464.96C390.51,464.93 397.5,464.97 404.5,464.94C404.49,383.06 404.51,301.19 404.5,219.32Z" style="fill:#fff;fill-rule:nonzero;"/>
    </g>
    <g transform="matrix(1,0,0,1,-2.81617,-2.73494)">
        <path d="M612.58,322.74C626.05,320.56 640.23,323.19 652.02,330.05C665.53,337.77 675.72,350.98 679.82,365.98C683.78,380.06 682.3,395.58 675.75,408.66C670.01,420.33 660.34,430 648.67,435.74C635.92,442.13 620.85,443.71 607.06,440.11C593.72,436.72 581.65,428.56 573.57,417.42C564.87,405.6 560.76,390.51 562.31,375.92C563.83,360.42 571.69,345.65 583.74,335.79C591.95,328.95 602.03,324.41 612.58,322.74Z" style="fill:#fff;fill-rule:nonzero;"/>
    </g>
    <g transform="matrix(1,0,0,1,-2.81617,-2.73494)">
        <path d="M494.36,494.74C516.21,472.92 538.03,451.07 559.88,429.24C564.2,434.79 569.2,439.8 574.76,444.12C552.93,465.97 531.08,487.79 509.26,509.64C514.18,514.6 519.16,519.5 524.06,524.49C496.83,536.83 469.62,549.21 442.41,561.59C454.79,534.38 467.17,507.17 479.52,479.94C484.5,484.84 489.4,489.82 494.36,494.74Z" style="fill:#fff;fill-rule:nonzero;"/>
    </g>
    <g transform="matrix(1,0,0,1,-2.81617,-2.73494)">
        <path d="M369.53,3.77C394.63,-0.5 421.37,8.66 438.75,27.21C536.43,124.9 634.12,222.59 731.81,320.27C736.45,324.96 741.33,329.46 745.3,334.77C757.24,350.35 762.92,370.57 760.8,390.09C759.04,407.54 751.13,424.28 738.79,436.74C639.47,536.08 540.13,635.4 440.8,734.74C436.63,738.99 432.35,743.17 427.47,746.61C412.14,757.67 392.68,762.84 373.89,760.8C356.44,759.03 339.7,751.12 327.24,738.77C230.9,642.45 134.57,546.11 38.24,449.77C29.15,440.47 18.97,431.86 12.77,420.2C-1.67,395.12 -0.29,362.04 16.2,338.25C21.15,330.68 27.93,324.63 34.23,318.23C131.9,220.57 229.55,122.9 327.23,25.24C338.65,13.92 353.65,6.32 369.53,3.77M301.86,104.88C292.29,116.94 287.68,132.78 289.31,148.08C290.85,163.85 298.97,178.85 311.37,188.73C323.52,198.6 339.65,203.36 355.22,201.68C324.01,236.23 292.97,270.94 261.71,305.44C256.52,300.77 251.38,296.05 246.14,291.44C235.28,319.26 224.31,347.03 213.42,374.84C239.92,361.12 266.38,347.34 292.87,333.59C287.82,328.76 282.51,324.21 277.36,319.5C310.34,282.92 343.29,246.32 376.23,209.7C370.1,206.2 364.54,201.81 359.51,196.88C343.54,180.74 335.09,157.5 337.33,134.87C339.04,115.33 348.51,96.64 363.21,83.66C340.91,78.05 315.87,86.63 301.86,104.88M405.54,82.75C383.34,86.05 363.94,102.93 357.62,124.48C352.91,139.66 354.62,156.7 362.28,170.64C369.87,184.81 383.45,195.58 398.95,199.81C413.07,203.79 428.63,202.29 441.73,195.71C453.58,189.86 463.36,179.96 469.05,168.04C475.83,154.12 476.87,137.54 471.87,122.88C467.16,108.69 456.91,96.44 443.75,89.34C432.21,82.99 418.54,80.65 405.54,82.75M239.53,247.92C234.27,243.31 229.12,238.57 223.91,233.91C212.92,261.74 202.05,289.61 191.07,317.44C217.55,303.53 244.16,289.86 270.67,276.02C265.49,271.33 260.24,266.72 255.11,261.97C271.74,243.45 288.46,225.02 305.04,206.46C299.28,202.48 294.03,197.77 289.49,192.45C272.79,210.9 256.16,229.41 239.53,247.92M458.96,206.45C475.54,225.01 492.26,243.45 508.89,261.97C503.75,266.71 498.53,271.34 493.32,276C519.83,289.88 546.46,303.52 572.94,317.45C561.95,289.61 551.07,261.72 540.08,233.88C534.89,238.59 529.73,243.33 524.43,247.91C507.87,229.36 491.16,210.93 474.54,192.44C469.96,197.75 464.74,202.49 458.96,206.45M404.5,219.32C404.51,301.19 404.49,383.06 404.5,464.94C397.5,464.97 390.51,464.93 383.51,464.96C393.99,492.96 404.5,520.95 415,548.95C425.5,520.95 436.01,492.96 446.49,464.96C439.49,464.93 432.49,464.97 425.5,464.94C425.51,383.07 425.49,301.19 425.5,219.32C418.53,220.21 411.46,220.21 404.5,219.32M338.47,267.24C338.54,333.14 338.49,399.04 338.49,464.94C331.5,464.96 324.51,464.93 317.52,464.96C327.95,492.83 338.38,520.7 348.87,548.55C351.26,543.82 352.7,538.67 354.7,533.77C363.29,510.83 371.91,487.9 380.49,464.96C373.49,464.92 366.49,464.98 359.49,464.93C359.51,391.25 359.5,317.56 359.5,243.88C352.43,251.61 345.42,259.4 338.47,267.24M132.46,322.76C110.29,326.09 90.93,342.96 84.62,364.48C79.9,379.69 81.63,396.75 89.32,410.71C96.77,424.56 109.94,435.17 125.05,439.56C139.4,443.84 155.34,442.44 168.72,435.72C180.58,429.87 190.35,419.96 196.05,408.04C202.83,394.12 203.87,377.54 198.87,362.89C194.15,348.67 183.88,336.4 170.68,329.3C159.13,322.97 145.46,320.64 132.46,322.76M612.58,322.74C602.03,324.41 591.95,328.95 583.74,335.79C571.69,345.65 563.83,360.42 562.31,375.92C560.76,390.51 564.87,405.6 573.57,417.42C581.65,428.56 593.72,436.72 607.06,440.11C620.85,443.71 635.92,442.13 648.67,435.74C660.34,430 670.01,420.33 675.75,408.66C682.3,395.58 683.78,380.06 679.82,365.98C675.72,350.98 665.53,337.77 652.02,330.05C640.23,323.19 626.05,320.56 612.58,322.74M189.25,444.13C211.07,465.97 232.93,487.79 254.74,509.64C249.83,514.6 244.84,519.5 239.95,524.49C267.17,536.82 294.37,549.21 321.58,561.58C309.21,534.37 296.83,507.17 284.48,479.95C279.5,484.84 274.6,489.82 269.65,494.74C247.79,472.93 225.98,451.06 204.12,429.24C199.8,434.8 194.79,439.79 189.25,444.13M494.36,494.74C489.4,489.82 484.5,484.84 479.52,479.94C467.17,507.17 454.79,534.38 442.41,561.59C469.62,549.21 496.83,536.83 524.06,524.49C519.16,519.5 514.18,514.6 509.26,509.64C531.08,487.79 552.93,465.97 574.76,444.12C569.2,439.8 564.2,434.79 559.88,429.24C538.03,451.07 516.21,472.92 494.36,494.74M372.48,562.76C350.55,566.05 331.35,582.57 324.84,603.77C320.01,618.68 321.4,635.46 328.61,649.37C335.4,662.78 347.47,673.37 361.61,678.43C374.89,683.27 389.87,683.18 403.08,678.17C416.71,673.11 428.33,662.9 435.06,650.01C442.18,636.64 443.92,620.52 439.81,605.94C436.07,592.34 427.35,580.18 415.64,572.31C403.15,563.81 387.39,560.3 372.48,562.76Z" style="fill:#1c397b;fill-rule:nonzero;"/>
    </g>
    <g transform="matrix(1,0,0,1,-2.81617,-2.73494)">
        <path d="M301.86,104.88C315.87,86.63 340.91,78.05 363.21,83.66C348.51,96.64 339.04,115.33 337.33,134.87C335.09,157.5 343.54,180.74 359.51,196.88C358.07,198.48 356.65,200.09 355.22,201.68C339.65,203.36 323.52,198.6 311.37,188.73C298.97,178.85 290.85,163.85 289.31,148.08C287.68,132.78 292.29,116.94 301.86,104.88Z" style="fill:#f2aa3c;fill-rule:nonzero;"/>
    </g>
    <g transform="matrix(1,0,0,1,-2.81617,-2.73494)">
        <path d="M239.53,247.92C256.16,229.41 272.79,210.9 289.49,192.45C294.03,197.77 299.28,202.48 305.04,206.46C288.46,225.02 271.74,243.45 255.11,261.97C260.24,266.72 265.49,271.33 270.67,276.02C244.16,289.86 217.55,303.53 191.07,317.44C202.05,289.61 212.92,261.74 223.91,233.91C229.12,238.57 234.27,243.31 239.53,247.92Z" style="fill:#f2aa3c;fill-rule:nonzero;"/>
    </g>
    <g transform="matrix(1,0,0,1,-2.81617,-2.73494)">
        <path d="M338.47,267.24C345.42,259.4 352.43,251.61 359.5,243.88C359.5,317.56 359.51,391.25 359.49,464.93C366.49,464.98 373.49,464.92 380.49,464.96C371.91,487.9 363.29,510.83 354.7,533.77C352.7,538.67 351.26,543.82 348.87,548.55C338.38,520.7 327.95,492.83 317.52,464.96C324.51,464.93 331.5,464.96 338.49,464.94C338.49,399.04 338.54,333.14 338.47,267.24Z" style="fill:#f2aa3c;fill-rule:nonzero;"/>
    </g>
    <g transform="matrix(1,0,0,1,-2.81617,-2.73494)">
        <path d="M132.46,322.76C145.46,320.64 159.13,322.97 170.68,329.3C183.88,336.4 194.15,348.67 198.87,362.89C203.87,377.54 202.83,394.12 196.05,408.04C190.35,419.96 180.58,429.87 168.72,435.72C155.34,442.44 139.4,443.84 125.05,439.56C109.94,435.17 96.77,424.56 89.32,410.71C81.63,396.75 79.9,379.69 84.62,364.48C90.93,342.96 110.29,326.09 132.46,322.76Z" style="fill:#f2aa3c;fill-rule:nonzero;"/>
    </g>
    <g transform="matrix(1,0,0,1,-2.81617,-2.73494)">
        <path d="M189.25,444.13C194.79,439.79 199.8,434.8 204.12,429.24C225.98,451.06 247.79,472.93 269.65,494.74C274.6,489.82 279.5,484.84 284.48,479.95C296.83,507.17 309.21,534.37 321.58,561.58C294.37,549.21 267.17,536.82 239.95,524.49C244.84,519.5 249.83,514.6 254.74,509.64C232.93,487.79 211.07,465.97 189.25,444.13Z" style="fill:#f2aa3c;fill-rule:nonzero;"/>
    </g>
    <g transform="matrix(1,0,0,1,-2.81617,-2.73494)">
        <path d="M372.48,562.76C387.39,560.3 403.15,563.81 415.64,572.31C427.35,580.18 436.07,592.34 439.81,605.94C443.92,620.52 442.18,636.64 435.06,650.01C428.33,662.9 416.71,673.11 403.08,678.17C389.87,683.18 374.89,683.27 361.61,678.43C347.47,673.37 335.4,662.78 328.61,649.37C321.4,635.46 320.01,618.68 324.84,603.77C331.35,582.57 350.55,566.05 372.48,562.76Z" style="fill:#f2aa3c;fill-rule:nonzero;"/>
    </g>
    <g transform="matrix(1,0,0,1,-18.4639,163.976)">
        <text x="860.752px" y="317.803px" style="font-family:'HelveticaNeue', 'Helvetica Neue';font-size:384px;fill:#333;">Spack</text>
    </g>
</svg>
