<?xml version="1.0" encoding="UTF-8" standalone="no"?>
<!DOCTYPE svg PUBLIC "-//W3C//DTD SVG 1.1//EN" "http://www.w3.org/Graphics/SVG/1.1/DTD/svg11.dtd">
<svg width="100%" height="100%" viewBox="0 0 479 233" version="1.1" xmlns="http://www.w3.org/2000/svg" xmlns:xlink="http://www.w3.org/1999/xlink" xml:space="preserve" xmlns:serif="http://www.serif.com/" style="fill-rule:evenodd;clip-rule:evenodd;stroke-linejoin:round;stroke-miterlimit:2;">
    <g id="_-787c82ff" serif:id="#787c82ff" transform="matrix(1,0,0,1,-81.2242,-180.018)">
        <path d="M292.16,188.03C296.41,184.88 300.66,181.26 306.08,180.44C310.33,179.59 314.94,179.95 318.73,182.19C335.08,191.56 351.42,200.94 367.78,210.3C370.59,211.87 373.36,214.53 373.24,218.01C373.1,220.93 370.87,223.02 369.02,225.03C352.8,215.57 336.57,206.11 320.34,196.67C317.87,195.19 315.14,193.98 313.2,191.79C308.2,185.51 299.14,186.37 292.16,188.03Z" style="fill:rgb(120,124,130);fill-rule:nonzero;"/>
        <path d="M292.7,212.08C296.95,208.79 301.49,205.43 306.99,204.79C311.64,203.92 316.48,205.03 320.41,207.61C333.61,215.23 346.94,222.64 360.17,230.22C356.11,232.54 352.04,234.86 347.99,237.2C338.88,231.94 329.81,226.63 320.71,221.37C318.28,219.94 315.69,218.7 313.57,216.8C308.35,210.87 299.86,211.18 292.7,212.08Z" style="fill:rgb(120,124,130);fill-rule:nonzero;"/>
        <path d="M302.36,230.5C307.59,228.54 313.78,228.29 318.72,231.18C325.56,235.01 332.47,238.71 339.32,242.52C335.91,244.97 332.36,247.22 328.79,249.45C323.68,246.44 317.61,244.83 313.21,240.79C311.54,238.99 309.66,237.23 307.2,236.67C300.83,234.98 293.89,235.93 287.99,238.79C292.53,235.63 297.3,232.73 302.36,230.5Z" style="fill:rgb(120,124,130);fill-rule:nonzero;"/>
    </g>
    <g id="_-494d57ff" serif:id="#494d57ff" transform="matrix(1,0,0,1,-81.2242,-180.018)">
        <path d="M292.16,188.03C299.14,186.37 308.2,185.51 313.2,191.79C309.82,192.16 306.34,192.57 303.33,194.28C285.7,205.26 267.89,215.96 250.16,226.78C247.98,224.26 245.16,221.66 245.11,218.08C245.03,215.46 247.15,213.53 249.25,212.33C263.53,204.2 278,196.37 292.16,188.03Z" style="fill:rgb(73,77,87);fill-rule:nonzero;"/>
        <path d="M260.79,230.21C271.42,224.16 282.29,218.5 292.7,212.08C299.86,211.18 308.35,210.87 313.57,216.8C309.98,216.9 306.23,217.14 303.04,218.98C292.62,225.37 281.85,231.16 271.21,237.19C267.74,234.86 264.26,232.54 260.79,230.21Z" style="fill:rgb(73,77,87);fill-rule:nonzero;"/>
        <path d="M287.99,238.79C293.89,235.93 300.83,234.98 307.2,236.67C309.66,237.23 311.54,238.99 313.21,240.79C305.12,240.62 299.17,246.47 292.16,249.45C288.1,247.12 284.04,244.78 279.97,242.47C282.68,241.33 285.36,240.11 287.99,238.79Z" style="fill:rgb(73,77,87);fill-rule:nonzero;"/>
    </g>
    <g id="_-6981b3ff" serif:id="#6981b3ff" transform="matrix(1,0,0,1,-81.2242,-180.018)">
        <path d="M381.48,217.94C383.9,220.88 386.64,224 386.96,227.99C387.16,231.06 386.09,234.66 383.25,236.26C362.61,248.58 341.96,260.88 321.33,273.22C314.91,277.1 306.94,276.68 299.89,275.11C295.87,273.41 292.11,271.14 288.59,268.59C293.94,269.58 299.48,271.36 304.94,270.02C308.1,269.32 310.65,267.24 313.2,265.37C331.91,253.9 351.07,243.13 369.96,231.93C373.37,229.76 377.49,228.24 379.82,224.74C381.24,222.77 381.21,220.25 381.48,217.94Z" style="fill:rgb(105,129,179);fill-rule:nonzero;"/>
        <path d="M381.49,242.46C383.76,245.26 386.37,248.13 386.87,251.85C387.37,255.24 386.16,259.26 382.97,260.95C364.07,272.35 345.18,283.79 326.28,295.21C322.46,297.51 318.68,300.25 314.13,300.84C304.76,302.62 295.16,299.01 288.09,292.91C293.41,294.52 299.11,295.98 304.66,294.66C307.86,293.99 310.45,291.9 312.97,289.94C331.69,278.61 350.74,267.78 369.6,256.64C373.05,254.45 377.14,252.89 379.65,249.5C381.22,247.5 381.2,244.86 381.49,242.46Z" style="fill:rgb(105,129,179);fill-rule:nonzero;"/>
        <path d="M381.48,266.94C383.89,269.87 386.61,272.97 386.95,276.93C387.17,280.02 386.11,283.65 383.26,285.25C362.61,297.58 341.95,309.89 321.32,322.22C314.92,326.09 306.99,325.66 299.96,324.13C295.95,322.46 292.19,320.2 288.7,317.63C294.03,318.6 299.54,320.35 304.97,319.01C308.12,318.31 310.67,316.23 313.21,314.37C334.01,301.63 355.33,289.71 376.27,277.18C379.92,275.13 381.59,270.99 381.48,266.94Z" style="fill:rgb(105,129,179);fill-rule:nonzero;"/>
        <path d="M255,342L272.26,342C272.32,354.48 272.16,366.97 272.35,379.45C273.43,378.88 274.56,378.3 275.14,377.15C278.04,372.8 280.7,368.29 283.64,363.96C290.62,364.04 297.6,363.98 304.59,364C299.63,370.99 294.57,377.91 289.61,384.9C294.65,393.56 299.59,402.29 304.55,410.99C297.86,410.98 291.16,411.05 284.46,410.95C280.48,403.99 277.67,396.28 272.81,389.87C271.62,396.83 272.56,403.96 272.26,411L255,411L255,342Z" style="fill:rgb(105,129,179);fill-rule:nonzero;"/>
        <path d="M98.02,345.5C107.5,344.85 117.26,345.06 126.28,348.36C126.26,352.81 126.27,357.26 126.26,361.71C118.19,361.12 110.07,360.71 101.99,361C96.98,360.46 96.98,370.18 101.93,369.91C107.73,370.43 113.92,369.01 119.4,371.54C125,374.05 127.92,380.23 128.39,386.09C128.62,392.53 129,399.62 125.16,405.19C122.29,409.53 116.94,411.29 111.95,411.43C102.33,411.55 92.43,411.98 83.27,408.52C83.26,404.05 83.31,399.59 83.19,395.12C91.49,395.58 99.81,396.26 108.12,395.88C112.53,396.01 112.93,387.85 108.68,387.42C102.13,386.76 94.95,388.47 89,384.87C83.81,381.89 81.53,375.77 81.32,370.05C81.25,364.54 80.67,358.57 83.49,353.58C86.37,348.43 92.36,345.89 98.02,345.5Z" style="fill:rgb(105,129,179);fill-rule:nonzero;"/>
        <path d="M138.28,350.74C143.18,350.73 148.09,350.73 153,350.74L153,364L160.74,364C160.73,368 160.73,372 160.74,376L153,376C153.02,381.35 152.98,386.69 152.99,392.04C153.06,394.47 153.09,397.26 154.85,399.16C156.52,400.49 158.57,401.23 160.47,402.17C160.46,405.45 160.46,408.72 160.46,412C155,411.81 149.48,412.44 144.07,411.61C138.87,410.48 136.51,404.88 136.1,400.08C135.32,392.08 135.92,384.03 135.74,376.01C133.58,376 131.42,375.99 129.26,375.99C129.27,373.1 129.27,370.21 129.28,367.32C131.43,366.17 133.61,365.05 135.79,363.95C136.67,359.55 137.45,355.14 138.28,350.74Z" style="fill:rgb(105,129,179);fill-rule:nonzero;"/>
        <path d="M166.28,366.44C173.42,363.17 181.43,362.77 189.16,363.06C193.63,363.33 198.49,363.96 201.99,367.05C205.54,370.31 206.26,375.46 206.28,380.04C206.26,390.36 206.26,400.68 206.27,411C201.65,411 197.03,411.01 192.41,410.99C191.35,409.46 190.29,407.93 189.23,406.4C184.54,413.94 172.77,412.6 167.53,406.39C164.07,402.44 164.59,396.86 164.83,392C165.18,387.69 168.01,383.66 172.09,382.12C177.53,379.93 183.52,380.97 189.22,380.72C188.9,378.63 188.83,375.38 185.87,375.55C179.33,375.3 172.79,376.16 166.25,376.51C166.27,373.15 166.26,369.79 166.28,366.44M182.49,391.51C181.34,393.56 181.32,396.4 182.71,398.34C184.73,399.1 187.67,399.06 188.85,396.93C189.12,394.74 188.99,392.52 189,390.33C186.82,390.64 184.56,390.68 182.49,391.51Z" style="fill:rgb(105,129,179);fill-rule:nonzero;"/>
        <path d="M214.14,370.01C216.02,366.33 219.83,363.77 223.95,363.43C232.37,362.85 240.99,363.46 248.98,366.31C249.01,369.7 249,373.1 248.99,376.5C243.39,376.18 237.76,375.66 232.15,376.16C230.07,376.29 228.77,378.17 228.53,380.1C227.74,384.69 227.82,389.43 228.27,394.06C228.49,396.14 229.47,398.83 231.93,398.98C237.85,399.75 243.84,399 249.76,398.51C249.72,401.94 249.74,405.37 249.71,408.81C244.66,411.79 238.7,412.22 232.98,412.02C227.63,411.91 221.41,412.8 217.12,408.86C211.76,403.83 211.13,395.92 210.74,389.02C210.76,382.6 211.07,375.81 214.14,370.01Z" style="fill:rgb(105,129,179);fill-rule:nonzero;"/>
    </g>
    <g id="_-27cbc0ff" serif:id="#27cbc0ff" transform="matrix(1,0,0,1,-81.2242,-180.018)">
        <path d="M233.06,225.05C234.45,222.09 237.1,220.07 239.46,217.93C238.33,221.43 238.74,225.89 242.31,227.8C261.71,239.39 281.24,250.77 300.67,262.32C304.41,264.64 308.91,265.05 313.2,265.37C310.65,267.24 308.1,269.32 304.94,270.02C299.48,271.36 293.94,269.58 288.59,268.59C271.85,259.34 255.34,249.64 238.65,240.29C233.34,237.65 230.3,230.51 233.06,225.05Z" style="fill:rgb(39,203,192);fill-rule:nonzero;"/>
        <path d="M233.19,249.29C234.6,246.44 237.21,244.5 239.53,242.43C238.51,245.78 238.53,250.08 241.95,252.04C261.34,263.73 280.95,275.06 300.4,286.66C304.12,289.08 308.66,289.48 312.97,289.94C310.45,291.9 307.86,293.99 304.66,294.66C299.11,295.98 293.41,294.52 288.09,292.91C271.51,283.5 254.98,274.01 238.38,264.64C233.13,261.91 230.28,254.66 233.19,249.29Z" style="fill:rgb(39,203,192);fill-rule:nonzero;"/>
        <path d="M233.02,274.13C234.4,271.14 237.08,269.08 239.46,266.93C238.34,270.41 238.73,274.86 242.27,276.78C261.68,288.37 281.22,299.75 300.65,311.31C304.4,313.64 308.91,314.05 313.21,314.37C310.67,316.23 308.12,318.31 304.97,319.01C299.54,320.35 294.03,318.6 288.7,317.63C271.92,308.41 255.41,298.66 238.69,289.31C233.38,286.7 230.32,279.6 233.02,274.13Z" style="fill:rgb(39,203,192);fill-rule:nonzero;"/>
        <path d="M327.45,346.03C334.2,345.97 340.95,346.01 347.7,346C354.25,367.67 360.81,389.33 367.34,411L349.71,411C348.45,407.24 347.2,403.48 345.94,399.73C340.15,399.73 334.37,399.74 328.58,399.72C327.28,403.47 326.04,407.23 324.8,410.99C318.95,411 313.09,411.01 307.23,410.99C313.93,389.32 320.73,367.69 327.45,346.03M337.8,367.57C336.05,373.39 334.22,379.2 332.39,385L342.51,385C340.89,379.2 339.36,373.38 337.8,367.57Z" style="fill:rgb(39,203,192);fill-rule:nonzero;"/>
        <path d="M437.28,366.44C444.44,363.15 452.47,362.77 460.23,363.07C464.88,363.35 470.02,364.04 473.46,367.51C476.6,370.8 477.24,375.6 477.28,379.95C477.26,390.3 477.26,400.65 477.27,411C472.64,411 468.02,411.01 463.4,410.98C462.34,409.45 461.28,407.91 460.24,406.38C455.6,413.91 443.9,412.61 438.63,406.5C435.06,402.55 435.59,396.92 435.83,392.02C436.17,387.71 439,383.68 443.07,382.12C448.51,379.93 454.51,380.97 460.21,380.72C459.91,378.63 459.83,375.39 456.89,375.55C450.34,375.3 443.79,376.16 437.25,376.51C437.27,373.15 437.26,369.79 437.28,366.44M453.45,391.55C452.35,393.61 452.32,396.4 453.7,398.33C455.71,399.1 458.66,399.06 459.84,396.94C460.13,394.75 459.98,392.53 460,390.34C457.8,390.65 455.5,390.65 453.45,391.55Z" style="fill:rgb(39,203,192);fill-rule:nonzero;"/>
        <path d="M526.11,364.94C532.72,362.27 540.12,362.88 547.07,363.52C551.72,363.86 556.6,366.45 557.93,371.22C559.37,376.4 559.97,382.1 558.23,387.29C557.1,390.9 553.47,393.02 549.91,393.58C544.89,394.35 539.8,393.86 534.75,394.02C535.19,396.02 535.37,398.97 538.03,399.21C544.75,399.6 551.59,399.35 558.28,398.35C558.25,402.1 558.25,405.84 558.29,409.59C549.79,412.54 540.62,412 531.77,411.93C526.37,411.99 521.35,408.39 519.78,403.21C517.25,395.04 517.39,386.24 518.37,377.82C519.02,372.76 521,367.03 526.11,364.94M536.32,375.47C534.47,377.51 535.17,380.53 534.93,383.04C537.25,382.59 541.36,384.25 541.92,380.93C542.09,378.99 542.37,376.69 540.9,375.16C539.37,374.89 537.76,374.86 536.32,375.47Z" style="fill:rgb(39,203,192);fill-rule:nonzero;"/>
        <path d="M361.99,364.01C368.04,363.99 374.1,364 380.16,364C382.12,373.46 383.98,382.95 385.93,392.41C387.76,382.95 389.45,373.47 391.27,364.01C396.79,363.99 402.31,364 407.84,364.01C407.31,367.68 406.14,371.28 406.08,375C407.59,380.89 409.75,386.62 411.61,392.42C413.29,382.94 415.02,373.47 416.73,364C422.82,364 428.91,363.99 435,364C430.71,379.67 426.4,395.33 422.11,411L402.32,411C400.88,406.94 399.43,402.88 398.06,398.8C396.93,402.85 395.78,406.9 394.72,410.97C388.1,411.03 381.48,410.99 374.87,411C370.6,395.33 366.26,379.68 361.99,364.01Z" style="fill:rgb(39,203,192);fill-rule:nonzero;"/>
        <path d="M483,364L498.27,364C498.87,365.96 499.49,367.91 500.09,369.87C502.92,364.82 508.91,362.66 514.45,363.78C514.47,369.35 514.44,374.92 514.48,380.49C510.7,380.61 506.81,379.97 503.13,380.99C501.25,381.36 500.25,383.25 500.29,385.03C500.2,393.68 500.3,402.34 500.27,411L483,411L483,364Z" style="fill:rgb(39,203,192);fill-rule:nonzero;"/>
    </g>
</svg>
