<?xml version="1.0" encoding="UTF-8" standalone="no"?>
<!DOCTYPE svg PUBLIC "-//W3C//DTD SVG 1.1//EN" "http://www.w3.org/Graphics/SVG/1.1/DTD/svg11.dtd">
<svg width="100%" height="100%" viewBox="0 0 650 239" version="1.1" xmlns="http://www.w3.org/2000/svg" xmlns:xlink="http://www.w3.org/1999/xlink" xml:space="preserve" xmlns:serif="http://www.serif.com/" style="fill-rule:evenodd;clip-rule:evenodd;stroke-linejoin:round;stroke-miterlimit:2;">
    <g transform="matrix(3.00365,0,0,3.00365,62.4197,-811.868)">
        <path d="M155.96,278.91C158.6,275.76 162.84,274.84 166.78,275.16C167.14,277.64 167.22,280.14 167.05,282.65C165.19,283.54 163.09,284.13 161.63,285.66C160.89,287.86 161.22,290.25 161.1,292.55C163.26,292.67 165.41,292.91 167.56,293.17C167.58,295.58 167.54,298 167.45,300.42C165.36,300.67 163.27,300.83 161.18,301.04C161.13,310.08 161.19,319.12 161.17,328.17C158.34,329.12 155.34,328.88 152.43,328.59C151.93,319.45 152.44,310.29 152.15,301.15C150.54,300.89 148.94,300.64 147.33,300.39C147.18,298.01 147.12,295.64 147.17,293.26C148.76,292.98 150.36,292.74 151.96,292.52C152.23,287.79 152.41,282.51 155.96,278.91Z" style="fill:#292e67;fill-rule:nonzero;"/>
    </g>
    <g transform="matrix(3.00365,0,0,3.00365,62.4197,-811.868)">
        <path d="M180.83,282.13C182.84,279.8 186.42,279.76 189.28,279.37C189.47,282.51 189.46,285.66 189.42,288.81C191.47,289.07 193.52,289.28 195.57,289.56C195.6,291.91 195.63,294.25 195.62,296.6C193.54,296.84 191.47,297.15 189.39,297.33C189.48,303.56 189.44,309.79 189.42,316.02C189.49,317.33 189.38,318.73 190.01,319.93C191.34,320.88 192.91,321.42 194.37,322.13C194.29,324.37 194.2,326.62 194,328.86C188.3,329.32 181.5,326.31 180.79,320.02C180.35,312.47 180.73,304.89 180.65,297.32C178.85,297.1 177.06,296.9 175.27,296.65C175.25,294.28 175.27,291.91 175.32,289.54C177.07,289.28 178.83,289.05 180.59,288.8C180.61,286.57 180.52,284.33 180.83,282.13Z" style="fill:#292e67;fill-rule:nonzero;"/>
    </g>
    <g transform="matrix(3.00365,0,0,3.00365,62.4197,-811.868)">
        <path d="M76.33,292.32C80.09,288.58 85.92,287.82 90.94,288.78C95.06,289.56 98.12,292.67 100.49,295.93C98.77,297.49 96.99,298.99 95.15,300.41C92.59,298.36 89.85,295.47 86.22,296.27C83.59,296.32 80.43,299.76 83.01,301.98C87.67,305.01 93.92,304.94 98.1,308.9C103.55,313.45 102.66,323.05 96.67,326.75C88.73,331.96 75.04,330.13 71.69,320.28C73.44,318.97 75.18,317.67 76.93,316.38C79.33,318.46 81.66,321.1 85,321.53C87.34,321.77 89.96,321.32 91.71,319.62C93.35,318.13 92.82,315.08 90.78,314.21C86.21,312.05 80.69,311.77 76.87,308.14C72.33,304.28 72.02,296.47 76.33,292.32Z" style="fill:#292e67;fill-rule:nonzero;"/>
    </g>
    <g transform="matrix(3.00365,0,0,3.00365,62.4197,-811.868)">
        <path d="M105.04,289.42C107.91,289.22 110.8,289.22 113.68,289.33C117.27,297.86 119.73,306.85 123.64,315.25C127.1,306.68 129.9,297.87 133.41,289.32C136.34,289.19 139.28,289.19 142.21,289.33C141.17,294.18 139,298.66 137.28,303.29C132.29,316.02 127.48,328.82 122.38,341.51C119.47,341.67 116.56,341.71 113.64,341.64C114.38,336.07 117.62,331.29 119.01,325.91C119.01,324.28 118.21,322.8 117.66,321.31C114.77,314.51 112.02,307.66 109.2,300.84C107.64,297.1 105.86,293.41 105.04,289.42Z" style="fill:#292e67;fill-rule:nonzero;"/>
    </g>
    <g transform="matrix(1,0,0,1,-19.526,-27.2584)">
        <path d="M34.07,38.95C33.77,31.92 41.01,26.32 47.75,27.39C52.86,27.82 56.07,32.18 59.53,35.41C64.14,39.71 68.36,44.41 73.11,48.57C79.32,45.51 86.18,44.1 92.89,42.53C110.64,38.97 128.85,35.79 146.98,37.95C158.79,39.29 170.55,41.19 182.09,44.09C186.43,45.27 190.86,46.34 194.87,48.47C201.72,42.81 207.65,36.14 214.23,30.19C217.59,27.22 222.64,26.49 226.76,28.18C231.11,29.85 234.35,34.23 234.35,38.93C233.49,54.92 231.16,70.86 231.39,86.9C236.26,87.79 242.41,85.66 246.12,89.85C248.62,92.29 247.92,96.01 247.64,99.12C247.13,102.62 247.43,106.87 244.4,109.35C242.15,111.49 238.91,111.29 236.05,111.12C234.79,120.67 233.86,130.42 230.55,139.54C229.3,143.18 227.15,146.42 225.57,149.91C226.52,161.72 227.8,173.72 225.6,185.47C222.01,207.57 208.46,228.25 188.86,239.29C188.62,241.46 188.34,244 186.19,245.17C178.73,249.83 170.6,253.29 162.42,256.45C160.4,259.28 158.44,262.74 154.76,263.57C151.04,264.1 147.29,264.52 143.69,265.64C139.31,267.07 136.45,262.09 132.07,262.75C130.4,263.88 128.9,265.51 126.8,265.78C124.21,266.2 121.81,264.87 119.3,264.53C115.95,263.72 111.98,264.31 109.31,261.69C107.11,260.13 106.4,257.3 104.52,255.52C97.31,252.61 90.09,249.6 83.42,245.57C81.44,244.52 81.06,242.2 80.59,240.23C66.71,233.16 55.9,220.83 48.96,207.04C43.5,195.85 40.95,183.38 40.82,170.97C40.78,163.74 42.04,156.54 41.78,149.32C34.54,137.88 33.22,124.17 31.46,111.08C26.85,112.16 21.17,109.79 20.63,104.63C20.39,99.7 17.73,93.72 21.65,89.6C25.69,85.66 31.87,87.82 36.89,86.84C37.21,70.82 34.68,54.93 34.07,38.95M39.77,38.09C39.28,42.15 40.06,46.23 40.34,50.28C41.2,62.65 42.68,74.99 42.64,87.4C62.09,87.17 81.58,84.39 101.02,86.39C108.08,87.22 115.5,89.18 120.75,94.25C123.54,96.84 125.01,100.58 128.04,102.94C131.85,105.52 137.57,105.17 140.85,101.87C143.22,99.21 144.73,95.84 147.51,93.53C152.92,88.94 160.06,87.09 166.98,86.35C186.57,84.37 206.2,87.32 225.8,87.36C225.67,72.2 227.64,57.13 228.63,42.02C228.67,40.24 228.82,38.37 228.16,36.67C225.95,33.12 220.34,32.28 217.42,35.42C212,40.33 206.93,45.62 201.56,50.59C193.53,57.96 182.93,63.11 171.83,62.64C174.24,61.09 177.14,60.8 179.76,59.78C183.7,58.32 187.13,55.8 190.26,53.05C176.55,48.16 162.03,46.05 147.64,44.22C131.46,42.12 115.18,44.56 99.27,47.48C92,48.9 84.74,50.52 77.79,53.14C82.8,58.27 89.71,60.36 96.29,62.61C85.41,63.16 74.87,58.29 66.96,51.06C61.49,45.84 56.39,40.21 50.72,35.2C47.39,31.9 40.94,33.52 39.77,38.09M52,92.48C43.05,93.08 33.97,92.37 25.12,94.04C25.23,98.2 25.42,102.43 26.89,106.37C29.93,105.97 32.95,105.46 35.99,105.06C37.69,114.47 38.29,124.08 40.64,133.37C43.89,145.88 52.34,157.21 64.06,162.92C75.65,168.57 89.52,168.8 101.6,164.55C112.77,160.6 122.75,152.18 126.91,140.89C129.23,134.94 129.03,128.46 129.16,122.19C132.32,122.13 135.49,122.14 138.65,122.24C138.57,128.59 138.3,135.17 140.77,141.16C145.21,152.98 155.99,161.54 167.85,165.18C179.78,168.81 193.26,168.31 204.41,162.45C216.36,156.38 224.56,144.36 227.4,131.42C229.25,122.74 230.2,113.9 231.45,105.12C234.62,105.51 237.79,105.96 240.98,106.21C241.95,102.15 242.65,97.98 242.31,93.79C232.74,92.58 223.07,92.98 213.47,92.36C202.67,91.5 191.83,91.15 181,90.9C170.06,91.18 158.11,91.19 148.79,97.77C143.46,101.38 141.72,110.27 134,109.89C126.26,110.53 124.2,101.76 119.02,97.98C110.17,91.38 98.55,91.31 88,90.91C75.99,91.03 63.98,91.6 52,92.48M132.53,149.59C128.79,152.89 125.1,156.62 122.69,161.02C124.41,165.53 128.5,168.87 131.69,172.46C134.61,175.27 137.38,171.19 139.21,169.16C141.06,166.55 144.39,164.49 144.77,161.14C143.45,157.82 140.4,155.56 138.28,152.76C136.79,151.22 135.04,148.48 132.53,149.59M47.44,153.67C46.19,166.41 45.53,179.54 49.02,192.01C52.96,207.46 62.41,221.31 75,231.01C79.95,234.59 85.63,238.18 92.03,237.54C97.72,237.36 103.95,233.94 105.11,227.96C106.29,221.69 102.82,215.94 100.76,210.27C97.81,202.27 94.1,194.55 91.69,186.36C90.3,181.65 89.28,176.85 87.99,172.11C79.18,172.19 70.11,171.11 62.36,166.62C56.38,163.58 51.96,158.46 47.44,153.67M201.44,168.45C194.55,171.69 186.86,171.94 179.39,172.24C176.81,186.67 170.87,200.1 165.59,213.67C163.94,217.83 161.93,222.14 162.43,226.74C162.74,230.46 165.13,233.85 168.43,235.57C174.11,238.56 181.3,238.15 186.76,234.83C197.79,228.57 206.49,218.65 212.6,207.64C221.53,191.22 222.72,171.85 220.11,153.65C214.88,159.69 209,165.46 201.44,168.45M107.39,195.65C107.49,197.07 106.97,198.71 108.09,199.85C113.24,206.99 125.61,206.54 129.88,198.71C131.11,196.95 129.24,194.45 127.2,195.19C124.46,196.73 122.36,199.84 118.93,199.83C115.24,200.09 112.7,196.92 109.97,194.96C109.32,195.14 108.04,195.48 107.39,195.65M136.86,197.05C138.53,201 142.08,203.99 146.34,204.7C152.19,205.91 160.24,202.65 160.56,195.93C156.29,193.35 153.92,199.69 149.8,199.78C145.69,200.53 143.12,196.72 139.94,194.93C138.73,195.32 137.86,196.32 136.86,197.05M123.09,213.13C121.37,216.16 124.37,218.78 126.62,220.37C132.37,224.35 141.05,222.76 144.93,216.94C146.36,215.41 145.12,212.71 143.09,212.59C139.79,214.28 137.16,218.15 133.01,217.41C129.14,217.3 126.99,211.48 123.09,213.13M107.08,216.94C108.93,222.53 110.07,229.21 106.33,234.31C102.3,240.44 94.56,242.1 87.7,242.22C93.25,245.47 99.16,248.04 105.12,250.43C107.02,248.33 108.56,244.73 111.94,245.15C116.48,245.42 121.02,246.26 125.34,247.66C129.5,249.47 130.88,254.19 132.16,258.14C133.34,258.05 134.52,258.05 135.71,258.14C136.65,254.05 138.11,249.15 142.48,247.57C147.13,246.21 151.97,245.12 156.84,245.19C159.9,245.49 160.82,248.95 162.26,251.15C168.86,248.67 175.34,245.79 181.39,242.13C174.37,242.23 166.45,241.1 161.95,235.06C157.64,230.15 158.79,223.25 160.21,217.46C154.06,223.28 146.71,228.41 138.02,229.18C126.34,230.94 114.82,225.49 107.08,216.94M110.88,248.86C108.6,252.52 110.85,258.81 115.59,258.73C119.44,259.17 123.21,260.06 126.98,260.95C128.09,257.73 127.49,253.5 124.32,251.7C119.95,250.3 115.31,250.02 110.88,248.86M143.47,251.53C140.2,253.33 139.08,257.91 140.96,261.11C145.27,259.55 149.85,259.11 154.32,258.26C157.47,256.49 158.12,252.28 157.07,249.05C152.53,249.83 147.89,250.18 143.47,251.53Z" style="fill:#fff;fill-rule:nonzero;"/>
    </g>
    <g transform="matrix(1,0,0,1,-19.526,-27.2584)">
        <path d="M45.1,103.11C63.2,101.46 81.41,98.72 99.61,100.48C105.62,101.19 112.46,102.56 116.18,107.83C120.1,113.74 120.05,121.19 120.14,128.02C120.27,134.49 118.06,140.93 113.81,145.82C102.24,159.3 80.63,162.67 65.44,153.51C56.31,147.91 50.26,138.06 48.46,127.59C47.04,119.48 45.64,111.34 45.1,103.11M74.96,118.97C71.68,125.16 72.63,132.4 75.04,138.69L75.55,138.56C78.48,144.45 84.51,148.55 90.97,149.5C99.33,150.9 108.26,146.91 112.65,139.64C117.88,131.32 116.51,119.46 109.22,112.77C105.02,108.53 99,106.88 93.18,106.64C85.6,107.54 78.1,111.76 74.96,118.97Z" style="fill:#fff;fill-rule:nonzero;"/>
    </g>
    <g transform="matrix(1,0,0,1,-19.526,-27.2584)">
        <path d="M155.8,103.85C163.51,99.79 172.54,100.14 181,99.85C194.92,100.24 208.81,101.64 222.66,103.12C221.45,112.83 220.44,122.62 218.04,132.13C215.61,140.51 210.35,148.22 202.95,152.96C186.89,163.42 162.75,159.11 151.81,143.21C146.64,135.91 147.06,126.49 147.92,118.01C148.58,112.57 150.65,106.57 155.8,103.85M154.99,116.99C150.8,123.51 150.89,132 154.33,138.81C157.04,142.98 160.76,146.62 165.51,148.34C174.85,152.05 186.48,148.32 191.62,139.61C196.98,131.1 195.35,118.9 187.67,112.32C183.3,108.14 177.13,106.73 171.25,106.67C164.79,107.89 158.33,111.09 154.99,116.99Z" style="fill:#fff;fill-rule:nonzero;"/>
    </g>
    <g transform="matrix(1,0,0,1,-19.526,-27.2584)">
        <path d="M99.42,130.37C103.21,128.79 107.92,131.8 107.65,135.99C107.59,140.61 101.26,143.65 97.92,140.14C94.56,137.61 95.58,131.84 99.42,130.37Z" style="fill:#fff;fill-rule:nonzero;"/>
    </g>
    <g transform="matrix(1,0,0,1,-19.526,-27.2584)">
        <path d="M178.41,130.35C181.97,128.96 186.24,131.36 186.6,135.22C187.22,140.11 180.48,143.91 176.91,140.16C173.49,137.62 174.48,131.8 178.41,130.35Z" style="fill:#fff;fill-rule:nonzero;"/>
    </g>
    <g transform="matrix(1,0,0,1,-19.526,-27.2584)">
        <path d="M39.77,38.09C40.94,33.52 47.39,31.9 50.72,35.2C56.39,40.21 61.49,45.84 66.96,51.06C74.87,58.29 85.41,63.16 96.29,62.61C89.71,60.36 82.8,58.27 77.79,53.14C84.74,50.52 92,48.9 99.27,47.48C115.18,44.56 131.46,42.12 147.64,44.22C162.03,46.05 176.55,48.16 190.26,53.05C187.13,55.8 183.7,58.32 179.76,59.78C177.14,60.8 174.24,61.09 171.83,62.64C182.93,63.11 193.53,57.96 201.56,50.59C206.93,45.62 212,40.33 217.42,35.42C220.34,32.28 225.95,33.12 228.16,36.67C228.82,38.37 228.67,40.24 228.63,42.02C227.64,57.13 225.67,72.2 225.8,87.36C206.2,87.32 186.57,84.37 166.98,86.35C160.06,87.09 152.92,88.94 147.51,93.53C144.73,95.84 143.22,99.21 140.85,101.87C137.57,105.17 131.85,105.52 128.04,102.94C125.01,100.58 123.54,96.84 120.75,94.25C115.5,89.18 108.08,87.22 101.02,86.39C81.58,84.39 62.09,87.17 42.64,87.4C42.68,74.99 41.2,62.65 40.34,50.28C40.06,46.23 39.28,42.15 39.77,38.09Z" style="fill:#d939ab;fill-rule:nonzero;"/>
    </g>
    <g transform="matrix(1,0,0,1,-19.526,-27.2584)">
        <path d="M132.53,149.59C135.04,148.48 136.79,151.22 138.28,152.76C140.4,155.56 143.45,157.82 144.77,161.14C144.39,164.49 141.06,166.55 139.21,169.16C137.38,171.19 134.61,175.27 131.69,172.46C128.5,168.87 124.41,165.53 122.69,161.02C125.1,156.62 128.79,152.89 132.53,149.59Z" style="fill:#d939ab;fill-rule:nonzero;"/>
    </g>
    <g transform="matrix(1,0,0,1,-19.526,-27.2584)">
        <path d="M107.08,216.94C114.82,225.49 126.34,230.94 138.02,229.18C146.71,228.41 154.06,223.28 160.21,217.46C158.79,223.25 157.64,230.15 161.95,235.06C166.45,241.1 174.37,242.23 181.39,242.13C175.34,245.79 168.86,248.67 162.26,251.15C160.82,248.95 159.9,245.49 156.84,245.19C151.97,245.12 147.13,246.21 142.48,247.57C138.11,249.15 136.65,254.05 135.71,258.14C134.52,258.05 133.34,258.05 132.16,258.14C130.88,254.19 129.5,249.47 125.34,247.66C121.02,246.26 116.48,245.42 111.94,245.15C108.56,244.73 107.02,248.33 105.12,250.43C99.16,248.04 93.25,245.47 87.7,242.22C94.56,242.1 102.3,240.44 106.33,234.31C110.07,229.21 108.93,222.53 107.08,216.94Z" style="fill:#d939ab;fill-rule:nonzero;"/>
    </g>
    <g transform="matrix(1,0,0,1,-19.526,-27.2584)">
        <path d="M52,92.48C63.98,91.6 75.99,91.03 88,90.91C98.55,91.31 110.17,91.38 119.02,97.98C124.2,101.76 126.26,110.53 134,109.89C141.72,110.27 143.46,101.38 148.79,97.77C158.11,91.19 170.06,91.18 181,90.9C191.83,91.15 202.67,91.5 213.47,92.36C223.07,92.98 232.74,92.58 242.31,93.79C242.65,97.98 241.95,102.15 240.98,106.21C237.79,105.96 234.62,105.51 231.45,105.12C230.2,113.9 229.25,122.74 227.4,131.42C224.56,144.36 216.36,156.38 204.41,162.45C193.26,168.31 179.78,168.81 167.85,165.18C155.99,161.54 145.21,152.98 140.77,141.16C138.3,135.17 138.57,128.59 138.65,122.24C135.49,122.14 132.32,122.13 129.16,122.19C129.03,128.46 129.23,134.94 126.91,140.89C122.75,152.18 112.77,160.6 101.6,164.55C89.52,168.8 75.65,168.57 64.06,162.92C52.34,157.21 43.89,145.88 40.64,133.37C38.29,124.08 37.69,114.47 35.99,105.06C32.95,105.46 29.93,105.97 26.89,106.37C25.42,102.43 25.23,98.2 25.12,94.04C33.97,92.37 43.05,93.08 52,92.48M45.1,103.11C45.64,111.34 47.04,119.48 48.46,127.59C50.26,138.06 56.31,147.91 65.44,153.51C80.63,162.67 102.24,159.3 113.81,145.82C118.06,140.93 120.27,134.49 120.14,128.02C120.05,121.19 120.1,113.74 116.18,107.83C112.46,102.56 105.62,101.19 99.61,100.48C81.41,98.72 63.2,101.46 45.1,103.11M155.8,103.85C150.65,106.57 148.58,112.57 147.92,118.01C147.06,126.49 146.64,135.91 151.81,143.21C162.75,159.11 186.89,163.42 202.95,152.96C210.35,148.22 215.61,140.51 218.04,132.13C220.44,122.62 221.45,112.83 222.66,103.12C208.81,101.64 194.92,100.24 181,99.85C172.54,100.14 163.51,99.79 155.8,103.85Z" style="fill:#ffb068;fill-rule:nonzero;"/>
    </g>
    <g transform="matrix(1,0,0,1,-19.526,-27.2584)">
        <path d="M107.39,195.65C108.04,195.48 109.32,195.14 109.97,194.96C112.7,196.92 115.24,200.09 118.93,199.83C122.36,199.84 124.46,196.73 127.2,195.19C129.24,194.45 131.11,196.95 129.88,198.71C125.61,206.54 113.24,206.99 108.09,199.85C106.97,198.71 107.49,197.07 107.39,195.65Z" style="fill:#ffb068;fill-rule:nonzero;"/>
    </g>
    <g transform="matrix(1,0,0,1,-19.526,-27.2584)">
        <path d="M136.86,197.05C137.86,196.32 138.73,195.32 139.94,194.93C143.12,196.72 145.69,200.53 149.8,199.78C153.92,199.69 156.29,193.35 160.56,195.93C160.24,202.65 152.19,205.91 146.34,204.7C142.08,203.99 138.53,201 136.86,197.05Z" style="fill:#ffb068;fill-rule:nonzero;"/>
    </g>
    <g transform="matrix(1,0,0,1,-19.526,-27.2584)">
        <path d="M123.09,213.13C126.99,211.48 129.14,217.3 133.01,217.41C137.16,218.15 139.79,214.28 143.09,212.59C145.12,212.71 146.36,215.41 144.93,216.94C141.05,222.76 132.37,224.35 126.62,220.37C124.37,218.78 121.37,216.16 123.09,213.13Z" style="fill:#ffb068;fill-rule:nonzero;"/>
    </g>
    <g transform="matrix(1,0,0,1,-19.526,-27.2584)">
        <path d="M110.88,248.86C115.31,250.02 119.95,250.3 124.32,251.7C127.49,253.5 128.09,257.73 126.98,260.95C123.21,260.06 119.44,259.17 115.59,258.73C110.85,258.81 108.6,252.52 110.88,248.86Z" style="fill:#ffb068;fill-rule:nonzero;"/>
    </g>
    <g transform="matrix(1,0,0,1,-19.526,-27.2584)">
        <path d="M143.47,251.53C147.89,250.18 152.53,249.83 157.07,249.05C158.12,252.28 157.47,256.49 154.32,258.26C149.85,259.11 145.27,259.55 140.96,261.11C139.08,257.91 140.2,253.33 143.47,251.53Z" style="fill:#ffb068;fill-rule:nonzero;"/>
    </g>
    <g transform="matrix(1,0,0,1,-19.526,-27.2584)">
        <path d="M74.96,118.97C78.1,111.76 85.6,107.54 93.18,106.64C94.82,109.6 96.61,112.67 96.8,116.14C97.56,123.85 93.21,131.74 86.31,135.22C82.91,136.86 79.19,137.64 75.55,138.56L75.04,138.69C72.63,132.4 71.68,125.16 74.96,118.97Z" style="fill:#343c8c;fill-rule:nonzero;"/>
    </g>
    <g transform="matrix(1,0,0,1,-19.526,-27.2584)">
        <path d="M154.99,116.99C158.33,111.09 164.79,107.89 171.25,106.67C179.25,114.05 176.1,127.93 167.74,133.75C163.76,136.52 158.88,137.41 154.33,138.81C150.89,132 150.8,123.51 154.99,116.99Z" style="fill:#343c8c;fill-rule:nonzero;"/>
    </g>
    <g transform="matrix(1,0,0,1,-19.526,-27.2584)">
        <path d="M93.18,106.64C99,106.88 105.02,108.53 109.22,112.77C116.51,119.46 117.88,131.32 112.65,139.64C108.26,146.91 99.33,150.9 90.97,149.5C84.51,148.55 78.48,144.45 75.55,138.56C79.19,137.64 82.91,136.86 86.31,135.22C93.21,131.74 97.56,123.85 96.8,116.14C96.61,112.67 94.82,109.6 93.18,106.64M99.42,130.37C95.58,131.84 94.56,137.61 97.92,140.14C101.26,143.65 107.59,140.61 107.65,135.99C107.92,131.8 103.21,128.79 99.42,130.37Z" style="fill:#292e67;fill-rule:nonzero;"/>
    </g>
    <g transform="matrix(1,0,0,1,-19.526,-27.2584)">
        <path d="M171.25,106.67C177.13,106.73 183.3,108.14 187.67,112.32C195.35,118.9 196.98,131.1 191.62,139.61C186.48,148.32 174.85,152.05 165.51,148.34C160.76,146.62 157.04,142.98 154.33,138.81C158.88,137.41 163.76,136.52 167.74,133.75C176.1,127.93 179.25,114.05 171.25,106.67M178.41,130.35C174.48,131.8 173.49,137.62 176.91,140.16C180.48,143.91 187.22,140.11 186.6,135.22C186.24,131.36 181.97,128.96 178.41,130.35Z" style="fill:#292e67;fill-rule:nonzero;"/>
    </g>
    <g transform="matrix(1,0,0,1,-19.526,-27.2584)">
        <path d="M47.44,153.67C51.96,158.46 56.38,163.58 62.36,166.62C70.11,171.11 79.18,172.19 87.99,172.11C89.28,176.85 90.3,181.65 91.69,186.36C94.1,194.55 97.81,202.27 100.76,210.27C102.82,215.94 106.29,221.69 105.11,227.96C103.95,233.94 97.72,237.36 92.03,237.54C85.63,238.18 79.95,234.59 75,231.01C62.41,221.31 52.96,207.46 49.02,192.01C45.53,179.54 46.19,166.41 47.44,153.67Z" style="fill:#ff6f87;fill-rule:nonzero;"/>
    </g>
    <g transform="matrix(1,0,0,1,-19.526,-27.2584)">
        <path d="M201.44,168.45C209,165.46 214.88,159.69 220.11,153.65C222.72,171.85 221.53,191.22 212.6,207.64C206.49,218.65 197.79,228.57 186.76,234.83C181.3,238.15 174.11,238.56 168.43,235.57C165.13,233.85 162.74,230.46 162.43,226.74C161.93,222.14 163.94,217.83 165.59,213.67C170.87,200.1 176.81,186.67 179.39,172.24C186.86,171.94 194.55,171.69 201.44,168.45Z" style="fill:#ff6f87;fill-rule:nonzero;"/>
    </g>
</svg>
