<?xml version="1.0" encoding="UTF-8" standalone="no"?>
<!DOCTYPE svg PUBLIC "-//W3C//DTD SVG 1.1//EN" "http://www.w3.org/Graphics/SVG/1.1/DTD/svg11.dtd">
<svg width="100%" height="100%" viewBox="0 0 973 350" version="1.1" xmlns="http://www.w3.org/2000/svg" xmlns:xlink="http://www.w3.org/1999/xlink" xml:space="preserve" xmlns:serif="http://www.serif.com/" style="fill-rule:evenodd;clip-rule:evenodd;stroke-linejoin:round;stroke-miterlimit:2;">
    <g id="_-00abc7ff" serif:id="#00abc7ff" transform="matrix(1,0,0,1,-93.3452,-124.429)">
        <path d="M100.37,125.28C105.79,122.91 112.5,125.71 115.06,130.94C157.88,205.11 200.73,279.26 243.55,353.43C247.96,361.03 251.95,369.58 259.89,374.15C265.01,377.54 271.46,378 277.27,376.3C283.31,374.46 290.11,378.9 291.16,385.05C292.34,390.36 289.05,396.06 283.98,397.87C273.68,401.58 261.95,400.65 252.16,395.86C242.7,391.23 234.7,383.71 229.46,374.57C184.67,297.02 139.92,219.46 95.12,141.91C91.29,136.21 93.94,127.71 100.37,125.28Z" style="fill:rgb(0,171,199);fill-rule:nonzero;"/>
        <path d="M192.76,199.68C194.43,193.59 201.78,189.86 207.65,192.29C211.46,193.6 213.61,197.23 215.46,200.56C225.4,217.99 235.53,235.33 245.45,252.78C252.65,248.98 259.49,244.53 266.69,240.74C271.89,237.93 278.9,240.24 281.6,245.44C284.55,250.53 282.7,257.65 277.55,260.55C267.5,266.53 257.33,272.34 247.19,278.17C241.53,281.62 233.61,279.06 230.95,273.03C218.76,251.9 206.56,230.77 194.34,209.66C192.57,206.7 191.55,203.05 192.76,199.68Z" style="fill:rgb(0,171,199);fill-rule:nonzero;"/>
        <path d="M302.66,238.62C305.53,233.57 312.5,231.7 317.61,234.35C320.25,235.65 321.9,238.21 323.35,240.67C336.26,263.1 349.23,285.49 362.15,307.92C372.21,325.77 376.4,346.61 375.23,367C373.07,403.99 354.14,439.2 325.77,462.77C324.14,464.03 322.2,464.78 320.27,465.45C297.85,473.22 273.43,475.3 250.06,471.16C224.38,466.65 199.69,454.39 182.15,434.87C175.96,428.13 170.99,420.4 166.53,412.44C152.05,387.28 137.49,362.16 123.02,336.99C119.54,331.73 121.72,324.16 127.16,321.18C137.26,315.25 147.46,309.48 157.59,303.59C160.89,301.54 165.07,300.54 168.76,302.17C173.71,304 176.83,309.6 175.72,314.77C175.16,318.49 172.38,321.39 169.21,323.17C162.27,327.24 155.26,331.18 148.33,335.27C161.85,358.86 175.52,382.38 189.13,405.93C198.46,422.28 213.7,434.82 230.97,442.05C254.5,452.06 281.42,453 305.93,446.1C308.87,445.2 312.1,444.59 314.43,442.43C328.15,430.21 338.93,414.7 345.58,397.57C353.57,377.05 355.39,353.7 348.29,332.65C345.6,324.06 340.7,316.45 336.27,308.69C325.18,289.46 314.09,270.23 302.98,251C300.69,247.32 300.27,242.36 302.66,238.62Z" style="fill:rgb(0,171,199);fill-rule:nonzero;"/>
        <path d="M179.28,334.21C184.5,332.4 190.41,335.27 192.85,340.08C200.21,353.07 207.53,366.09 214.9,379.07C219.28,387 224.72,394.48 231.75,400.27C241.03,408.15 252.84,412.91 264.95,413.99C275.23,415.08 285.56,413.37 295.46,410.65C300.77,408.99 306.92,411.73 309.06,416.9C311.97,422.76 308.45,430.49 302.22,432.34C284.02,438 264.02,439.05 245.7,433.33C225.21,427.11 207.48,412.54 197.15,393.83C188.95,379.35 180.58,364.96 172.56,350.38C169.15,344.38 172.63,336.02 179.28,334.21Z" style="fill:rgb(0,171,199);fill-rule:nonzero;"/>
    </g>
    <g id="_-55565bff" serif:id="#55565bff" transform="matrix(1,0,0,1,-93.3452,-124.429)">
        <path d="M832.59,276.55C843.77,276.51 854.96,276.45 866.14,276.59C866.14,330.29 866.3,384 866.06,437.7C854.93,437.71 843.81,437.61 832.69,437.75C832.52,434.24 832.52,430.73 832.69,427.22C822.01,436.23 807.89,440.87 793.95,439.82C778.24,439.93 763.13,431.61 753.96,419.01C743.17,404.81 740.47,386.04 742.34,368.69C743.77,354.4 749.86,340.36 760.51,330.55C769.72,321.87 782.32,317.07 794.95,317.15C808.3,316.42 821.67,320.46 832.6,328.09C832.55,310.91 832.54,293.73 832.59,276.55M796.43,346.64C792.68,347.73 789.18,349.66 786.26,352.23C775.93,361.27 773.16,376.51 776.71,389.35C779.26,397.95 785.34,405.76 793.74,409.24C802.3,412.92 812.71,411.75 820.23,406.23C837.56,393.43 837.46,363.63 820.3,350.72C813.56,345.7 804.44,344.43 796.43,346.64Z" style="fill:rgb(85,86,91);fill-rule:nonzero;"/>
        <path d="M886.5,276.54C898.28,276.54 910.07,276.42 921.86,276.61C921.73,286.48 921.79,296.35 921.82,306.22C910.05,306.36 898.28,306.28 886.51,306.27C886.44,296.36 886.45,286.45 886.5,276.54Z" style="fill:rgb(85,86,91);fill-rule:nonzero;"/>
        <path d="M963.44,326.46C972.79,319.63 984.53,316.67 996.02,317.17C1008.81,317.06 1021.35,321.17 1032.07,328.04C1032.11,325.12 1032.1,322.21 1032.13,319.3C1043.31,319.34 1054.48,319.32 1065.66,319.31C1065.59,350.84 1065.72,382.38 1065.6,413.92C1065.29,429.86 1061.6,447.17 1049.51,458.48C1037.36,469.83 1020.01,472.84 1003.97,473.37C984.41,474.28 964.54,470.34 947.22,461.07C951.23,452.02 954.78,442.77 958.83,433.73C973.31,442.07 990.4,445.94 1007.04,444.02C1014.55,443.09 1022.4,440.37 1027.26,434.25C1031.47,429.02 1032.58,422.1 1032.56,415.57C1024.09,421.57 1014.4,426.1 1004.02,427.36C993.86,428.52 983.22,428.32 973.65,424.33C957.86,418.24 946.25,403.5 942.63,387.13C941.15,381.18 941.22,375.01 941.31,368.93C941.55,352.37 949.91,336.07 963.44,326.46M997.37,345.57C991.79,346.74 986.49,349.39 982.38,353.36C971.72,363.87 972.26,383.57 983.79,393.25C995.15,403.2 1014.09,402.41 1024.74,391.76C1032.67,384.43 1034.43,372.11 1030.74,362.26C1025.77,349.46 1010.43,342.67 997.37,345.57Z" style="fill:rgb(85,86,91);fill-rule:nonzero;"/>
        <path d="M427.57,330.55C435.94,321.93 448.1,317.51 460.01,317.58C476.19,317.19 492.47,321.94 505.74,331.24C501.52,338.99 497.25,346.72 492.92,354.41C482.47,348.71 471.21,343 458.97,343.48C454.8,343.64 449.42,345.26 448.67,350.05C447.42,354.92 452.11,358.31 456.01,359.95C470.17,365.91 485.83,369.08 498.14,378.8C504.93,384.4 508.65,393.25 508.44,402.01C509,413.33 503.58,424.7 494.39,431.33C485.29,437.67 474.02,440.6 462.98,439.86C444.71,439.98 426.53,433.51 412.35,422C417.12,414.61 421.84,407.2 426.78,399.93C436.84,407.23 448.45,413.11 461.04,413.93C465.62,414.18 470.6,414.13 474.67,411.73C478.44,409.53 479.43,403.74 476.43,400.52C472.75,396.51 467.16,395.42 462.22,393.74C449.79,390 436.43,386.53 427.04,376.97C414.57,364.76 415.78,342.8 427.57,330.55Z" style="fill:rgb(85,86,91);fill-rule:nonzero;"/>
        <path d="M648.95,330.94C657.35,321.96 669.84,317.47 682.01,317.57C698.09,317.22 714.21,322 727.42,331.19C723.35,339 718.93,346.63 714.72,354.37C705.96,349.76 696.96,345.03 687.01,343.75C682.67,343.25 678.01,343.11 674.02,345.13C670.13,347.03 668.89,352.89 671.96,356.04C674.68,359.01 678.6,360.35 682.26,361.77C693.43,366.03 705.23,369.02 715.34,375.65C722.13,379.46 727.25,386.07 729.2,393.62C731.6,404.03 729.89,415.65 723.29,424.24C717.67,431.87 708.78,436.37 699.75,438.6C692.65,440.48 685.24,439.89 678,439.59C662,438.38 646.51,432.03 634.03,421.98C638.83,414.67 643.58,407.33 648.36,400.01C658.39,406.85 669.55,412.96 681.9,413.84C686.82,414.06 692.24,414.36 696.58,411.62C700.59,409.13 701.05,402.63 697.33,399.68C692.77,395.75 686.6,394.79 681.08,392.87C669.4,389.46 657.07,385.65 648.42,376.59C636.43,364.46 637.6,343.09 648.95,330.94Z" style="fill:rgb(85,86,91);fill-rule:nonzero;"/>
        <path d="M512.27,319.25C524.1,319.39 535.94,319.29 547.77,319.3C556.98,345.99 565.5,372.93 574.83,399.58C583.58,372.91 592.04,346.14 600.58,319.4C612.18,319.19 623.79,319.4 635.4,319.29C620.86,358.95 605.76,398.42 590.99,438C587.54,447.23 583.7,456.64 576.99,464.02C570.13,471.29 559.73,474.38 549.92,473.67C539.92,473.33 529.74,470.85 521.33,465.28C525.29,457.39 528.73,449.25 532.68,441.35C538.59,444.58 546,447.57 552.59,444.65C555.15,443.13 558.6,440.69 558.38,437.42C543.06,398.01 527.64,358.64 512.27,319.25Z" style="fill:rgb(85,86,91);fill-rule:nonzero;"/>
        <path d="M887.34,319.31C898.52,319.31 909.7,319.33 920.88,319.3C920.89,358.77 920.88,398.23 920.88,437.7C909.7,437.67 898.52,437.68 887.34,437.69C887.37,398.23 887.37,358.77 887.34,319.31Z" style="fill:rgb(85,86,91);fill-rule:nonzero;"/>
    </g>
</svg>
