<?xml version="1.0" encoding="UTF-8" ?>
<!DOCTYPE svg PUBLIC "-//W3C//DTD SVG 1.1//EN" "http://www.w3.org/Graphics/SVG/1.1/DTD/svg11.dtd">
<svg width="1294pt" height="290pt" viewBox="0 0 1294 290" version="1.1" xmlns="http://www.w3.org/2000/svg">
<g id="#af0e56ff">
<path fill="#af0e56" opacity="1.00" d=" M 53.15 38.25 C 60.06 24.10 75.05 13.81 91.00 14.05 C 100.03 14.35 109.07 14.24 118.10 14.25 C 118.21 18.62 117.41 23.43 119.83 27.35 C 113.49 30.65 107.74 34.93 101.64 38.62 C 88.42 47.45 74.82 55.70 61.63 64.58 C 57.98 66.96 53.73 68.79 51.35 72.64 L 51.24 72.78 C 46.92 61.65 47.60 48.82 53.15 38.25 Z" />
</g>
<g id="#960b52ff">
<path fill="#960b52" opacity="1.00" d=" M 189.96 14.25 C 199.19 13.47 208.86 14.34 217.00 19.11 C 233.85 28.44 243.99 49.58 238.42 68.40 C 236.47 76.40 230.87 82.63 226.58 89.42 C 221.38 97.41 216.17 105.40 210.93 113.36 C 203.18 108.83 195.99 103.43 188.40 98.63 C 191.30 93.93 189.68 88.19 189.94 82.99 C 189.99 60.08 190.08 37.17 189.96 14.25 Z" />
</g>
<g id="#a00c54ff">
<path fill="#a00c54" opacity="1.00" d=" M 118.10 14.25 C 142.05 14.23 166.00 14.26 189.96 14.25 C 190.08 37.17 189.99 60.08 189.94 82.99 C 189.68 88.19 191.30 93.93 188.40 98.63 C 181.43 97.49 174.31 97.75 167.32 98.56 C 161.55 89.67 155.64 80.88 149.92 71.97 C 145.08 64.15 139.83 56.60 134.91 48.83 C 129.95 41.62 126.11 33.55 119.83 27.35 C 117.41 23.43 118.21 18.62 118.10 14.25 Z" />
</g>
<g id="#ba0e58ff">
<path fill="#ba0e58" opacity="1.00" d=" M 101.64 38.62 C 107.74 34.93 113.49 30.65 119.83 27.35 C 126.11 33.55 129.95 41.62 134.91 48.83 C 129.41 51.90 124.25 55.51 119.00 58.98 C 107.97 65.90 97.10 73.08 86.14 80.10 C 78.96 84.44 72.24 89.52 64.90 93.59 C 63.68 93.10 63.28 91.55 62.47 90.59 C 58.89 84.52 54.06 79.21 51.35 72.64 C 53.73 68.79 57.98 66.96 61.63 64.58 C 74.82 55.70 88.42 47.45 101.64 38.62 Z" />
</g>
<g id="#c40f5aff">
<path fill="#c40f5a" opacity="1.00" d=" M 119.00 58.98 C 124.25 55.51 129.41 51.90 134.91 48.83 C 139.83 56.60 145.08 64.15 149.92 71.97 C 134.31 81.58 119.09 91.79 103.62 101.61 C 95.84 106.99 87.17 111.18 80.23 117.71 C 75.00 109.73 69.80 101.74 64.58 93.76 L 64.90 93.59 C 72.24 89.52 78.96 84.44 86.14 80.10 C 97.10 73.08 107.97 65.90 119.00 58.98 Z" />
</g>
<g id="#d1105cff">
<path fill="#d1105c" opacity="1.00" d=" M 103.62 101.61 C 119.09 91.79 134.31 81.58 149.92 71.97 C 155.64 80.88 161.55 89.67 167.32 98.56 C 170.57 103.54 173.89 108.48 177.07 113.51 C 168.69 117.71 161.23 123.43 153.20 128.22 C 141.77 135.86 130.11 143.12 118.56 150.58 C 114.62 153.22 110.07 155.34 107.49 159.53 C 103.06 152.81 98.67 146.06 94.31 139.29 C 89.64 132.08 84.92 124.90 80.23 117.71 C 87.17 111.18 95.84 106.99 103.62 101.61 Z" />
</g>
<g id="#14003cff">
<path fill="#14003c" opacity="1.00" d=" M 638.67 90.66 C 642.24 85.59 650.03 84.53 655.05 88.00 C 657.45 89.55 659.11 91.96 660.45 94.43 C 668.80 110.16 677.17 125.86 685.51 141.59 C 693.32 127.00 701.00 112.34 708.75 97.72 C 710.57 94.37 712.12 90.63 715.29 88.30 C 719.96 84.71 727.42 85.32 731.28 89.85 C 733.53 92.31 734.24 95.77 734.26 99.02 C 734.25 123.66 734.25 148.30 734.26 172.95 C 734.33 176.23 733.41 179.67 730.94 181.97 C 725.04 187.52 713.16 184.64 712.17 176.01 C 711.76 161.84 712.13 147.64 711.99 133.46 C 706.60 143.26 701.33 153.12 695.96 162.94 C 693.94 166.60 690.52 170.04 686.05 170.01 C 681.50 170.55 677.25 167.73 675.12 163.84 C 669.57 154.08 664.24 144.18 658.75 134.39 C 658.75 147.28 658.76 160.17 658.75 173.07 C 658.77 176.41 657.71 179.94 655.10 182.18 C 650.66 185.80 643.51 185.69 639.33 181.69 C 636.80 179.18 636.18 175.46 636.24 172.04 C 636.25 148.00 636.26 123.96 636.23 99.92 C 636.19 96.70 636.64 93.28 638.67 90.66 Z" />
<path fill="#14003c" opacity="1.00" d=" M 801.51 86.64 C 805.33 85.52 809.69 85.76 813.19 87.76 C 816.72 89.84 818.68 94.02 818.52 98.05 C 818.52 113.34 818.44 128.62 818.55 143.91 C 818.64 150.79 820.28 158.61 826.39 162.69 C 833.88 167.43 845.46 166.43 850.77 158.85 C 854.20 153.98 854.67 147.79 854.75 142.02 C 854.75 127.35 854.75 112.68 854.74 98.02 C 854.54 93.60 856.97 89.07 861.07 87.23 C 866.04 85.12 872.55 85.49 876.47 89.53 C 878.74 91.68 879.76 94.86 879.76 97.94 C 879.75 113.63 879.75 129.33 879.75 145.02 C 879.62 155.71 876.46 166.96 868.57 174.55 C 860.98 181.89 850.19 184.71 839.89 185.10 C 830.19 185.45 820.04 184.38 811.44 179.58 C 804.18 175.63 798.72 168.72 796.23 160.88 C 792.82 150.95 793.59 140.31 793.50 130.00 C 793.56 119.24 793.37 108.47 793.59 97.71 C 793.56 92.82 796.73 88.03 801.51 86.64 Z" />
<path fill="#14003c" opacity="1.00" d=" M 1086.46 86.65 C 1093.42 84.23 1103.10 87.78 1103.87 95.88 C 1104.19 120.57 1103.88 145.27 1104.02 169.97 C 1103.98 172.65 1104.21 175.49 1103.01 177.97 C 1099.05 186.97 1083.96 187.21 1079.75 178.32 C 1078.61 176.07 1078.51 173.49 1078.48 171.03 C 1078.53 146.68 1078.46 122.33 1078.52 97.98 C 1078.38 93.01 1081.61 88.07 1086.46 86.65 Z" />
<path fill="#14003c" opacity="1.00" d=" M 1164.34 96.35 C 1164.73 86.30 1179.13 82.34 1185.20 89.86 C 1199.19 107.08 1212.98 124.47 1226.99 141.68 C 1227.04 127.10 1226.93 112.52 1227.04 97.94 C 1226.78 91.89 1231.61 86.12 1237.81 86.01 C 1244.67 85.08 1251.22 90.97 1250.95 97.91 C 1251.07 122.27 1250.95 146.63 1251.01 171.00 C 1251.03 174.71 1250.36 178.81 1247.48 181.44 C 1242.33 186.64 1232.49 185.73 1228.57 179.46 C 1215.05 162.60 1201.59 145.71 1188.00 128.91 C 1187.95 143.65 1188.08 158.39 1187.95 173.13 C 1187.98 178.83 1183.61 184.44 1177.70 184.71 C 1170.81 185.90 1163.93 180.12 1164.25 173.08 C 1164.30 147.50 1164.13 121.92 1164.34 96.35 Z" />
<path fill="#14003c" opacity="1.00" d=" M 372.80 90.84 C 374.97 87.51 379.30 86.68 383.01 86.73 C 405.00 86.78 426.99 86.72 448.98 86.76 C 453.10 86.70 457.95 88.45 459.25 92.76 C 460.18 96.41 460.18 100.71 457.90 103.88 C 455.54 106.81 451.53 107.40 448.00 107.50 C 441.50 107.53 435.00 107.48 428.51 107.51 C 428.50 127.36 428.50 147.22 428.51 167.08 C 428.45 170.59 428.89 174.28 427.47 177.60 C 423.56 187.01 407.57 187.05 403.67 177.62 C 402.32 174.60 402.81 171.23 402.74 168.02 C 402.76 147.85 402.74 127.67 402.75 107.50 C 395.86 107.46 388.98 107.59 382.10 107.45 C 378.41 107.32 374.20 106.12 372.41 102.58 C 370.78 98.91 370.75 94.36 372.80 90.84 Z" />
<path fill="#14003c" opacity="1.00" d=" M 515.22 88.20 C 518.50 86.34 522.38 86.77 525.99 86.74 C 540.66 86.76 555.33 86.75 570.00 86.74 C 573.70 86.71 577.89 87.61 580.13 90.85 C 582.28 94.19 582.16 98.78 580.25 102.20 C 578.08 105.63 573.74 106.46 569.98 106.50 C 558.32 106.51 546.66 106.49 535.00 106.50 C 535.00 112.59 534.99 118.67 535.01 124.75 C 546.02 124.75 557.03 124.74 568.04 124.74 C 571.68 124.74 575.88 125.91 577.79 129.30 C 579.59 133.10 579.44 138.18 576.44 141.35 C 573.95 143.69 570.36 144.30 567.06 144.27 C 556.38 144.23 545.69 144.26 535.01 144.25 C 534.99 150.91 535.00 157.58 535.01 164.24 C 547.03 164.25 559.05 164.25 571.08 164.24 C 574.82 164.20 579.11 165.66 580.73 169.33 C 582.31 173.09 582.10 178.03 579.12 181.06 C 576.14 183.78 571.82 183.91 568.01 184.01 C 553.35 184.00 538.69 183.99 524.03 184.01 C 520.88 183.96 517.51 183.93 514.78 182.17 C 511.76 180.26 510.20 176.64 510.24 173.15 C 510.24 148.09 510.26 123.02 510.24 97.95 C 510.09 94.16 511.69 90.00 515.22 88.20 Z" />
<path fill="#14003c" opacity="1.00" d=" M 939.27 96.91 C 939.08 91.55 943.69 86.87 949.03 86.81 C 961.36 86.65 973.70 86.82 986.04 86.73 C 994.37 86.75 1003.12 88.02 1010.13 92.84 C 1015.54 96.48 1019.08 102.49 1020.25 108.86 C 1021.83 117.11 1021.01 126.22 1016.28 133.36 C 1012.28 139.57 1005.62 143.66 998.52 145.35 C 1006.72 146.58 1011.57 153.80 1015.77 160.17 C 1018.71 164.86 1023.29 169.09 1023.49 174.96 C 1023.25 182.03 1015.29 186.25 1008.90 184.99 C 1005.23 184.45 1001.94 182.22 999.93 179.13 C 994.25 170.79 988.51 162.49 982.85 154.13 C 980.90 151.37 978.57 148.29 974.99 147.79 C 971.44 147.26 967.83 147.56 964.27 147.50 C 964.20 155.98 964.30 164.46 964.23 172.94 C 964.21 176.38 962.89 179.97 960.14 182.15 C 956.44 185.06 951.25 185.38 946.88 184.03 C 942.20 182.67 939.08 177.84 939.24 173.05 C 939.28 147.67 939.21 122.29 939.27 96.91 M 964.00 106.00 C 964.00 113.50 964.00 121.00 964.00 128.49 C 972.76 128.20 981.73 129.34 990.33 127.26 C 999.63 124.96 999.27 108.98 989.85 107.09 C 981.40 105.09 972.60 106.35 964.00 106.00 Z" />
</g>
<g id="#8a0a50ff">
<path fill="#8a0a50" opacity="1.00" d=" M 167.32 98.56 C 174.31 97.75 181.43 97.49 188.40 98.63 C 195.99 103.43 203.18 108.83 210.93 113.36 C 205.29 122.03 199.67 130.70 193.94 139.31 C 188.29 130.73 182.61 122.16 177.07 113.51 C 173.89 108.48 170.57 103.54 167.32 98.56 Z" />
</g>
<g id="#e0125fff">
<path fill="#e0125f" opacity="1.00" d=" M 153.20 128.22 C 161.23 123.43 168.69 117.71 177.07 113.51 C 182.61 122.16 188.29 130.73 193.94 139.31 C 196.02 142.48 198.13 145.64 200.15 148.84 C 191.22 153.84 182.98 159.94 174.23 165.24 C 159.36 174.59 144.95 184.67 129.83 193.61 C 122.32 182.30 115.04 170.82 107.49 159.53 C 110.07 155.34 114.62 153.22 118.56 150.58 C 130.11 143.12 141.77 135.86 153.20 128.22 Z" />
</g>
<g id="#620749ff">
<path fill="#620749" opacity="1.00" d=" M 94.31 139.29 C 98.67 146.06 103.06 152.81 107.49 159.53 C 115.04 170.82 122.32 182.30 129.83 193.61 C 133.26 198.81 136.68 204.01 140.00 209.29 C 130.52 203.90 121.77 197.36 112.61 191.46 C 100.72 182.98 88.43 175.08 76.33 166.90 C 82.33 157.70 88.44 148.58 94.31 139.29 Z" />
</g>
<g id="#ec1261ff">
<path fill="#ec1261" opacity="1.00" d=" M 174.23 165.24 C 182.98 159.94 191.22 153.84 200.15 148.84 C 206.83 158.98 213.44 169.15 220.09 179.29 C 202.04 191.25 183.68 202.76 165.57 214.64 C 160.40 217.96 154.96 220.92 150.37 225.06 C 148.43 222.10 146.50 219.12 144.55 216.17 C 143.04 213.87 141.54 211.56 140.00 209.29 C 136.68 204.01 133.26 198.81 129.83 193.61 C 144.95 184.67 159.36 174.59 174.23 165.24 Z" />
</g>
<g id="#550547ff">
<path fill="#550547" opacity="1.00" d=" M 53.76 201.50 C 61.23 189.93 68.85 178.46 76.33 166.90 C 88.43 175.08 100.72 182.98 112.61 191.46 C 121.77 197.36 130.52 203.90 140.00 209.29 C 141.54 211.56 143.04 213.87 144.55 216.17 C 137.20 225.19 131.55 235.45 124.96 245.03 C 124.08 245.96 123.17 246.86 122.25 247.76 C 108.42 238.22 94.39 228.96 80.42 219.61 C 71.70 213.34 62.69 207.47 53.76 201.50 Z" />
</g>
<g id="#f81363ff">
<path fill="#f81363" opacity="1.00" d=" M 165.57 214.64 C 183.68 202.76 202.04 191.25 220.09 179.29 C 226.50 189.08 232.83 198.92 239.38 208.60 C 246.58 219.30 248.87 233.38 244.49 245.62 C 238.70 262.51 220.95 273.96 203.22 272.95 C 190.15 272.44 177.39 265.83 169.96 254.97 C 163.39 245.03 156.93 235.01 150.37 225.06 C 154.96 220.92 160.40 217.96 165.57 214.64 Z" />
</g>
<g id="#430444ff">
<path fill="#430444" opacity="1.00" d=" M 42.14 225.81 C 43.34 216.67 48.43 208.78 53.76 201.50 C 62.69 207.47 71.70 213.34 80.42 219.61 C 94.39 228.96 108.42 238.22 122.25 247.76 C 123.17 246.86 124.08 245.96 124.96 245.03 C 124.64 254.34 124.87 263.67 124.89 273.00 C 110.92 272.99 96.94 273.00 82.97 273.00 C 73.19 273.07 63.52 269.38 56.01 263.16 C 45.21 254.32 39.66 239.58 42.14 225.81 Z" />
</g>
<g id="#330241ff">
<path fill="#330241" opacity="1.00" d=" M 124.96 245.03 C 131.55 235.45 137.20 225.19 144.55 216.17 C 146.50 219.12 148.43 222.10 150.37 225.06 C 156.93 235.01 163.39 245.03 169.96 254.97 C 177.39 265.83 190.15 272.44 203.22 272.95 C 177.11 273.04 151.00 272.98 124.89 273.00 C 124.87 263.67 124.64 254.34 124.96 245.03 Z" />
</g>
</svg>
