<?xml version="1.0" encoding="UTF-8" standalone="no"?>
<!DOCTYPE svg PUBLIC "-//W3C//DTD SVG 1.1//EN" "http://www.w3.org/Graphics/SVG/1.1/DTD/svg11.dtd">
<svg width="100%" height="100%" viewBox="0 0 400 153" version="1.1" xmlns="http://www.w3.org/2000/svg" xmlns:xlink="http://www.w3.org/1999/xlink" xml:space="preserve" xmlns:serif="http://www.serif.com/" style="fill-rule:evenodd;clip-rule:evenodd;stroke-linejoin:round;stroke-miterlimit:2;">
    <g transform="matrix(1.44413,0,0,1.44413,-31.1024,-27.8564)">
        <path d="M67.46,19.75C80.74,17.94 94.67,21.52 105.43,29.51C116.31,37.4 123.93,49.64 126.16,62.89C128.62,76.52 125.39,91.11 117.32,102.38C108.98,114.36 95.4,122.55 80.89,124.26C66.57,126.2 51.57,121.78 40.51,112.5C27.3,101.66 20.03,84.04 21.8,67.03C22.96,54.06 29.2,41.62 38.88,32.9C46.79,25.78 56.88,21.05 67.46,19.75M67.54,29.81C56.53,31.54 46.31,37.82 39.8,46.87C32.99,55.98 30.14,67.95 32.15,79.14C33.98,90.11 40.35,100.23 49.41,106.67C58.08,113.01 69.25,115.84 79.88,114.34C91.39,112.87 102.15,106.37 108.87,96.92C115.47,87.9 118.33,76.18 116.42,65.15C114.64,53.98 108.14,43.67 98.9,37.17C89.95,30.73 78.42,28.01 67.54,29.81Z" style="fill:rgb(113,113,116);fill-rule:nonzero;"/>
    </g>
    <g transform="matrix(1.44413,0,0,1.44413,-31.1024,-27.8564)">
        <path d="M144.29,55.83C142.1,55.02 142.73,51.32 145.07,51.33C154.98,51.19 164.91,51.18 174.82,51.33C177.3,51.58 177.46,55.47 175.04,55.91C170.78,56.17 166.51,55.91 162.24,56.01C162.24,67.67 162.27,79.34 162.24,91C163.08,94.15 157.68,94.91 157.33,91.82C157.12,79.89 157.32,67.94 157.25,56C152.93,55.88 148.59,56.25 144.29,55.83Z" style="fill:rgb(113,113,116);fill-rule:nonzero;"/>
    </g>
    <g transform="matrix(1.44413,0,0,1.44413,-31.1024,-27.8564)">
        <path d="M183.27,53.93C182.95,52.3 184.46,51.1 185.99,51.26C194.01,51.21 202.04,51.28 210.07,51.23C211.23,51.32 212.87,51.09 213.55,52.33C214.93,53.93 213.11,56.3 211.18,55.96C203.45,56.07 195.73,55.96 188,56L188,70C195.34,69.97 202.69,70.07 210.03,69.94C211.27,71.21 211.94,73.36 209.96,74.36C202.66,74.7 195.34,74.42 188.03,74.48C187.97,79.32 188.01,84.16 188,89C196.38,88.97 204.76,89.06 213.14,88.95C214.26,90.25 214.91,92.43 212.93,93.37C203.96,93.67 194.96,93.43 185.98,93.49C184.44,93.75 182.97,92.48 183.26,90.9C183.24,78.58 183.23,66.25 183.27,53.93Z" style="fill:rgb(113,113,116);fill-rule:nonzero;"/>
    </g>
    <g transform="matrix(1.44413,0,0,1.44413,-31.1024,-27.8564)">
        <path d="M221.29,54.01C221.16,50.89 224.88,51.14 227.01,51.22C234.39,51.68 242.46,49.87 249.19,53.74C255.88,57.43 256.77,68.02 250.99,72.9C249.01,74.78 246.34,75.58 243.81,76.41C247.55,81.61 252.28,86.2 255.1,91.99C253.99,93.69 251.73,94.46 250.24,92.71C245.88,87.78 242.23,82.24 238,77.19C234.08,77.29 230.16,77.24 226.25,77.25C226.16,82.16 226.42,87.09 226.16,91.99C225.77,94.47 221.61,94.38 221.33,91.84C221.16,79.23 221.25,66.61 221.29,54.01M226.25,56.01L226.25,72.75C231.82,72.49 237.5,73.35 242.99,72.2C247.48,71.36 250.89,66.52 249.46,62.02C248.62,58.26 244.64,56.33 241.1,56.09C236.15,55.85 231.19,56.07 226.25,56.01Z" style="fill:rgb(113,113,116);fill-rule:nonzero;"/>
    </g>
    <g transform="matrix(1.44413,0,0,1.44413,-31.1024,-27.8564)">
        <path d="M262.84,52.99C263.16,50.97 265.5,51.23 267.01,51.12C276.12,62.05 284.63,73.48 293.5,84.62C293.57,74.05 293.36,63.47 293.59,52.9C294.03,50.28 298.04,50.42 298.41,53.02C298.64,65.02 298.41,77.04 298.52,89.05C298.35,90.59 298.88,92.99 296.97,93.65C295.02,94.33 293.7,92.68 292.62,91.35C284.23,80.71 275.98,69.96 267.53,59.37C267.38,70.3 267.67,81.25 267.4,92.18C266.82,94.9 262.07,93.89 262.76,91.03C262.79,78.35 262.63,65.66 262.84,52.99Z" style="fill:rgb(113,113,116);fill-rule:nonzero;"/>
    </g>
    <g transform="matrix(1.44413,0,0,1.44413,-31.1024,-27.8564)">
        <path d="M44.02,46.53C64.11,46.53 84.19,46.49 104.28,46.49C104.28,48.57 104.27,50.66 104.27,52.74C84.19,52.74 64.11,52.68 44.03,52.7C44.03,50.64 44.03,48.59 44.02,46.53Z" style="fill:rgb(21,140,196);fill-rule:nonzero;"/>
    </g>
    <g transform="matrix(1.44413,0,0,1.44413,-31.1024,-27.8564)">
        <path d="M44.02,55.54C64.11,55.52 84.19,55.49 104.28,55.49C104.28,57.58 104.27,59.66 104.27,61.74C84.19,61.73 64.11,61.69 44.03,61.7C44.03,59.64 44.02,57.59 44.02,55.54Z" style="fill:rgb(21,140,196);fill-rule:nonzero;"/>
    </g>
    <g transform="matrix(1.44413,0,0,1.44413,-31.1024,-27.8564)">
        <path d="M44.02,73.02C64.1,73.01 84.19,72.99 104.28,73C104.28,75.09 104.27,77.18 104.27,79.27C84.19,79.28 64.11,79.25 44.03,79.25C44.03,77.17 44.02,75.09 44.02,73.02Z" style="fill:rgb(21,140,196);fill-rule:nonzero;"/>
    </g>
    <g transform="matrix(1.44413,0,0,1.44413,-31.1024,-27.8564)">
        <path d="M44.03,81.75C64.11,81.75 84.19,81.72 104.27,81.73C104.27,83.82 104.28,85.91 104.28,88C84.19,88 64.1,88 44.01,87.98C44.02,85.9 44.03,83.83 44.03,81.75Z" style="fill:rgb(21,140,196);fill-rule:nonzero;"/>
    </g>
    <g transform="matrix(1.44413,0,0,1.44413,-31.1024,-27.8564)">
        <path d="M44.01,90.53C64.1,90.53 84.2,90.49 104.29,90.49C104.3,92.6 104.28,94.72 104.16,96.83C84.12,96.62 64.07,96.74 44.03,96.7C44.03,94.64 44.02,92.59 44.01,90.53Z" style="fill:rgb(21,140,196);fill-rule:nonzero;"/>
    </g>
    <g transform="matrix(1.44413,0,0,1.44413,-31.1024,-27.8564)">
        <path d="M44.02,64.23C64.12,64.24 84.21,64.19 104.31,64.18C104.31,66.31 104.32,68.44 104.32,70.57C84.21,70.58 64.1,70.55 43.99,70.52C44,68.42 44.01,66.33 44.02,64.23Z" style="fill:rgb(222,121,43);fill-rule:nonzero;"/>
    </g>
</svg>
