<svg id="Layer_1" data-name="Layer 1" xmlns="http://www.w3.org/2000/svg" viewBox="0 0 240.55 45"><defs><style>.cls-1{fill:#80bc00;}.cls-2{fill:#003a5d;}.cls-3{fill:#f18a00;}</style></defs><title>timesys-logo</title><path class="cls-1" d="M39.45,16.19h.62V12.81c0-.9,0-1.61.07-2.13a3.15,3.15,0,0,1,.4-1.32,2.62,2.62,0,0,1,1-.95,2.81,2.81,0,0,1,3.32.45,2.39,2.39,0,0,1,.73,1.31,12,12,0,0,1,.16,2.19v3.83h2.06a2.64,2.64,0,0,1,1.83.57,1.86,1.86,0,0,1,.63,1.45,1.62,1.62,0,0,1-.9,1.59,5.73,5.73,0,0,1-2.57.46h-1V30.62a15.55,15.55,0,0,0,.09,2,2,2,0,0,0,.49,1.15,1.69,1.69,0,0,0,1.31.44,6.81,6.81,0,0,0,1.35-.17,6.72,6.72,0,0,1,1.32-.18,1.74,1.74,0,0,1,1.23.55A1.87,1.87,0,0,1,52,35.81a2.26,2.26,0,0,1-1.48,2.09,9.93,9.93,0,0,1-4.28.73,7.39,7.39,0,0,1-4-.89,4.13,4.13,0,0,1-1.78-2.46,16.85,16.85,0,0,1-.42-4.19V20.26h-.75a2.63,2.63,0,0,1-1.85-.58,1.88,1.88,0,0,1-.64-1.47,1.81,1.81,0,0,1,.67-1.45A2.91,2.91,0,0,1,39.45,16.19Z" transform="translate(-1.31 -2)"/><path class="cls-1" d="M68.19,18.91V35.2a3.62,3.62,0,0,1-.81,2.56,2.64,2.64,0,0,1-2,.87,2.56,2.56,0,0,1-2-.89,3.78,3.78,0,0,1-.77-2.54V19.08a3.67,3.67,0,0,1,.77-2.52,2.62,2.62,0,0,1,2-.84,2.68,2.68,0,0,1,2,.84A3.27,3.27,0,0,1,68.19,18.91Z" transform="translate(-1.31 -2)"/><path class="cls-1" d="M101.23,27.59v7.49a3.83,3.83,0,0,1-.8,2.66,2.75,2.75,0,0,1-2.13.89,2.66,2.66,0,0,1-2.07-.89,3.88,3.88,0,0,1-.79-2.66v-9a27.57,27.57,0,0,0-.15-3.29,3.7,3.7,0,0,0-.78-1.94,2.54,2.54,0,0,0-2-.75c-1.85,0-3.07.63-3.65,1.9a13.29,13.29,0,0,0-.89,5.45v7.61a3.89,3.89,0,0,1-.79,2.65,2.66,2.66,0,0,1-2.09.9,2.69,2.69,0,0,1-2.09-.9,3.79,3.79,0,0,1-.82-2.65V19a3.51,3.51,0,0,1,.73-2.41,2.43,2.43,0,0,1,1.93-.83,2.65,2.65,0,0,1,1.93.77,2.91,2.91,0,0,1,.77,2.15v.54a9.79,9.79,0,0,1,3.14-2.59,8.33,8.33,0,0,1,3.72-.83A7.39,7.39,0,0,1,98,16.6a6.63,6.63,0,0,1,2.52,2.57,9.8,9.8,0,0,1,3.06-2.58,7.81,7.81,0,0,1,3.62-.84,8.17,8.17,0,0,1,4,.91,5.79,5.79,0,0,1,2.5,2.61,11.75,11.75,0,0,1,.73,4.81v11a3.83,3.83,0,0,1-.81,2.66,2.75,2.75,0,0,1-2.13.89,2.69,2.69,0,0,1-2.1-.9,3.79,3.79,0,0,1-.82-2.65V25.61a20.51,20.51,0,0,0-.16-2.91,3.36,3.36,0,0,0-.83-1.84,2.71,2.71,0,0,0-2.07-.74,3.81,3.81,0,0,0-2.12.66,4.49,4.49,0,0,0-1.56,1.78A14.15,14.15,0,0,0,101.23,27.59Z" transform="translate(-1.31 -2)"/><path class="cls-1" d="M144.13,28.56h-11a7.49,7.49,0,0,0,.78,3.39,5.39,5.39,0,0,0,2,2.21,5.33,5.33,0,0,0,2.76.74,6.74,6.74,0,0,0,1.85-.24,6.52,6.52,0,0,0,1.62-.74,12.35,12.35,0,0,0,1.44-1.09c.44-.38,1-.9,1.72-1.56a1.83,1.83,0,0,1,1.23-.38,2,2,0,0,1,1.41.48,1.69,1.69,0,0,1,.54,1.34,3.64,3.64,0,0,1-.6,1.78,7,7,0,0,1-1.81,2A10.26,10.26,0,0,1,143,38a13.23,13.23,0,0,1-4.21.62c-3.62,0-6.44-1-8.44-3.1a11.47,11.47,0,0,1-3-8.4,14.18,14.18,0,0,1,.74-4.63,10.32,10.32,0,0,1,2.17-3.66,9.34,9.34,0,0,1,3.51-2.34,12.72,12.72,0,0,1,4.63-.82,11,11,0,0,1,5.67,1.4,9.19,9.19,0,0,1,3.54,3.6,9.51,9.51,0,0,1,1.18,4.5c0,1.41-.41,2.33-1.22,2.75A7.6,7.6,0,0,1,144.13,28.56Zm-11-3.18h10.22a6.77,6.77,0,0,0-1.56-4.33,4.66,4.66,0,0,0-3.56-1.44,4.52,4.52,0,0,0-3.46,1.46A7.25,7.25,0,0,0,133.1,25.38Z" transform="translate(-1.31 -2)"/><path class="cls-2" d="M180.17,31.25a6.57,6.57,0,0,1-4.51,6.52,15.06,15.06,0,0,1-5.4.86A13.24,13.24,0,0,1,165,37.7a7.49,7.49,0,0,1-3.2-2.32,4.64,4.64,0,0,1-1-2.8,2.17,2.17,0,0,1,.66-1.59,2.28,2.28,0,0,1,1.68-.66,2,2,0,0,1,1.37.43,4.83,4.83,0,0,1,.91,1.22,6.24,6.24,0,0,0,2.08,2.25,6.35,6.35,0,0,0,3.3.74,4.83,4.83,0,0,0,2.79-.75,2.14,2.14,0,0,0,1.08-1.73,2.31,2.31,0,0,0-1.13-2.16,13.66,13.66,0,0,0-3.71-1.3,31.53,31.53,0,0,1-4.75-1.52,7.81,7.81,0,0,1-2.93-2.09,4.77,4.77,0,0,1-1.1-3.2,5.66,5.66,0,0,1,1-3.2,7.07,7.07,0,0,1,3-2.41,11.48,11.48,0,0,1,4.77-.89,15.81,15.81,0,0,1,3.94.45,9.72,9.72,0,0,1,2.92,1.22,6,6,0,0,1,1.78,1.69,3.3,3.3,0,0,1,.61,1.82,2.1,2.1,0,0,1-.65,1.59,2.6,2.6,0,0,1-1.85.62,2.28,2.28,0,0,1-1.48-.5,9.81,9.81,0,0,1-1.39-1.48,5,5,0,0,0-1.51-1.33,4.79,4.79,0,0,0-2.36-.49,4.6,4.6,0,0,0-2.55.65,1.9,1.9,0,0,0-1,1.62A1.75,1.75,0,0,0,167,23a6.27,6.27,0,0,0,2,.94c.84.25,2,.55,3.48.91a18.53,18.53,0,0,1,4.29,1.53,7.21,7.21,0,0,1,2.52,2.09A4.63,4.63,0,0,1,180.17,31.25Z" transform="translate(-1.31 -2)"/><path class="cls-2" d="M198.59,39.34l.52-1.26-6.94-17.47a6.4,6.4,0,0,1-.64-2.19,2.53,2.53,0,0,1,.37-1.34,2.85,2.85,0,0,1,1-1,2.64,2.64,0,0,1,1.35-.37,2.19,2.19,0,0,1,1.84.77,7.16,7.16,0,0,1,1.09,2.22L202,32.59l4.52-12.91a22.67,22.67,0,0,1,1-2.45,2.77,2.77,0,0,1,.92-1.2,2.5,2.5,0,0,1,1.37-.31,2.41,2.41,0,0,1,1.23.34,2.28,2.28,0,0,1,.9.92,2.39,2.39,0,0,1,.32,1.22q-.07.39-.27,1.11a14.31,14.31,0,0,1-.45,1.46L204.14,40a23.32,23.32,0,0,1-1.86,4,6.12,6.12,0,0,1-2.4,2.23,9,9,0,0,1-4,.77,9.71,9.71,0,0,1-3.71-.54,2,2,0,0,1-1.24-2,1.87,1.87,0,0,1,.59-1.49,2.53,2.53,0,0,1,1.74-.53,3,3,0,0,1,.89.13,4.38,4.38,0,0,0,.93.12,3.37,3.37,0,0,0,1.52-.29,2.58,2.58,0,0,0,1-1A15.25,15.25,0,0,0,198.59,39.34Z" transform="translate(-1.31 -2)"/><path class="cls-2" d="M241.86,31.25a6.55,6.55,0,0,1-4.5,6.52,15.16,15.16,0,0,1-5.41.86,13.24,13.24,0,0,1-5.22-.93,7.62,7.62,0,0,1-3.2-2.32,4.7,4.7,0,0,1-1-2.8,2.17,2.17,0,0,1,.66-1.59,2.31,2.31,0,0,1,1.68-.66,2,2,0,0,1,1.37.43,4.61,4.61,0,0,1,.91,1.22,6.24,6.24,0,0,0,2.08,2.25,6.35,6.35,0,0,0,3.3.74,4.83,4.83,0,0,0,2.79-.75,2.14,2.14,0,0,0,1.08-1.73,2.33,2.33,0,0,0-1.12-2.16,13.76,13.76,0,0,0-3.72-1.3,31.53,31.53,0,0,1-4.75-1.52,7.89,7.89,0,0,1-2.93-2.09,4.77,4.77,0,0,1-1.1-3.2,5.66,5.66,0,0,1,1-3.2,7.07,7.07,0,0,1,3-2.41,11.48,11.48,0,0,1,4.77-.89,15.75,15.75,0,0,1,3.94.45,9.72,9.72,0,0,1,2.92,1.22,5.92,5.92,0,0,1,1.78,1.69,3.3,3.3,0,0,1,.61,1.82,2.1,2.1,0,0,1-.65,1.59,2.58,2.58,0,0,1-1.85.62,2.28,2.28,0,0,1-1.48-.5,10.35,10.35,0,0,1-1.39-1.48,4.9,4.9,0,0,0-1.51-1.33,4.79,4.79,0,0,0-2.36-.49A4.6,4.6,0,0,0,229,20a1.9,1.9,0,0,0-1,1.62A1.75,1.75,0,0,0,228.7,23a6.27,6.27,0,0,0,2,.94c.84.25,2,.55,3.48.91a18.36,18.36,0,0,1,4.29,1.53A7.12,7.12,0,0,1,241,28.5,4.63,4.63,0,0,1,241.86,31.25Z" transform="translate(-1.31 -2)"/><path class="cls-3" d="M9.52,17.56a2.64,2.64,0,0,1-2.64,2.63H4a2.64,2.64,0,0,1-2.64-2.63V14.63A2.64,2.64,0,0,1,4,12H6.88a2.64,2.64,0,0,1,2.64,2.64ZM8.05,15.15a1.69,1.69,0,0,0-1.69-1.69H4.47a1.69,1.69,0,0,0-1.7,1.69V17a1.7,1.7,0,0,0,1.7,1.7H6.36A1.7,1.7,0,0,0,8.05,17Z" transform="translate(-1.31 -2)"/><path class="cls-3" d="M18.86,17.56a2.64,2.64,0,0,1-2.64,2.63H13.29a2.64,2.64,0,0,1-2.64-2.63V14.63A2.64,2.64,0,0,1,13.29,12h2.93a2.64,2.64,0,0,1,2.64,2.64Zm-1.47-2.41a1.69,1.69,0,0,0-1.69-1.69H13.81a1.69,1.69,0,0,0-1.69,1.69V17a1.7,1.7,0,0,0,1.69,1.7H15.7A1.7,1.7,0,0,0,17.39,17Z" transform="translate(-1.31 -2)"/><path class="cls-1" d="M9.52,26.78a2.64,2.64,0,0,1-2.64,2.64H4a2.64,2.64,0,0,1-2.64-2.64V23.85A2.64,2.64,0,0,1,4,21.21H6.88a2.64,2.64,0,0,1,2.64,2.64Zm-1.47-2.4a1.7,1.7,0,0,0-1.69-1.7H4.47a1.7,1.7,0,0,0-1.7,1.7v1.88A1.69,1.69,0,0,0,4.47,28H6.36a1.69,1.69,0,0,0,1.69-1.69Z" transform="translate(-1.31 -2)"/><path class="cls-1" d="M18.86,26.78a2.64,2.64,0,0,1-2.64,2.64H13.29a2.64,2.64,0,0,1-2.64-2.64V23.85a2.64,2.64,0,0,1,2.64-2.64h2.93a2.64,2.64,0,0,1,2.64,2.64Zm-1.47-2.4a1.7,1.7,0,0,0-1.69-1.7H13.81a1.7,1.7,0,0,0-1.69,1.7v1.88A1.69,1.69,0,0,0,13.81,28H15.7a1.69,1.69,0,0,0,1.69-1.69Z" transform="translate(-1.31 -2)"/><path class="cls-3" d="M9.55,36.06A2.64,2.64,0,0,1,6.91,38.7H4a2.64,2.64,0,0,1-2.64-2.64V33.13A2.64,2.64,0,0,1,4,30.49H6.91a2.64,2.64,0,0,1,2.64,2.64ZM8.08,33.65A1.69,1.69,0,0,0,6.39,32H4.5a1.7,1.7,0,0,0-1.69,1.7v1.88a1.7,1.7,0,0,0,1.69,1.7H6.39a1.69,1.69,0,0,0,1.69-1.7Z" transform="translate(-1.31 -2)"/><path class="cls-1" d="M18.89,36.06a2.64,2.64,0,0,1-2.64,2.64H13.32a2.64,2.64,0,0,1-2.64-2.64V33.13a2.64,2.64,0,0,1,2.64-2.64h2.93a2.64,2.64,0,0,1,2.64,2.64Zm-1.46-2.41a1.7,1.7,0,0,0-1.7-1.7H13.84a1.7,1.7,0,0,0-1.69,1.7v1.88a1.7,1.7,0,0,0,1.69,1.7h1.89a1.7,1.7,0,0,0,1.7-1.7Z" transform="translate(-1.31 -2)"/><path class="cls-1" d="M28.19,26.78a2.64,2.64,0,0,1-2.64,2.64H22.62A2.64,2.64,0,0,1,20,26.78V23.85a2.64,2.64,0,0,1,2.64-2.64h2.93a2.64,2.64,0,0,1,2.64,2.64Zm-1.47-2.4a1.7,1.7,0,0,0-1.7-1.7H23.14a1.69,1.69,0,0,0-1.69,1.7v1.88A1.68,1.68,0,0,0,23.14,28H25a1.69,1.69,0,0,0,1.7-1.69Z" transform="translate(-1.31 -2)"/><path class="cls-3" d="M68.85,7.32a2.42,2.42,0,0,1-2.29,2.53H64a2.42,2.42,0,0,1-2.29-2.53V4.52A2.42,2.42,0,0,1,64,2h2.55a2.42,2.42,0,0,1,2.29,2.52ZM67.57,5A1.55,1.55,0,0,0,66.1,3.4H64.47A1.55,1.55,0,0,0,63,5v1.8a1.55,1.55,0,0,0,1.47,1.63H66.1a1.55,1.55,0,0,0,1.47-1.63Z" transform="translate(-1.31 -2)"/><path class="cls-3" d="M28.22,36.06a2.64,2.64,0,0,1-2.64,2.64H22.65A2.64,2.64,0,0,1,20,36.06V33.13a2.64,2.64,0,0,1,2.64-2.64h2.93a2.64,2.64,0,0,1,2.64,2.64Zm-1.47-2.41A1.7,1.7,0,0,0,25.06,32H23.17a1.7,1.7,0,0,0-1.69,1.7v1.88a1.7,1.7,0,0,0,1.69,1.7h1.89a1.7,1.7,0,0,0,1.69-1.7Z" transform="translate(-1.31 -2)"/></svg>