<?xml version="1.0" encoding="utf-8"?>
<!-- Generator: Adobe Illustrator 16.0.0, SVG Export Plug-In . SVG Version: 6.00 Build 0)  -->
<!DOCTYPE svg PUBLIC "-//W3C//DTD SVG 1.1//EN" "http://www.w3.org/Graphics/SVG/1.1/DTD/svg11.dtd">
<svg version="1.1" id="Layer_1" xmlns="http://www.w3.org/2000/svg" xmlns:xlink="http://www.w3.org/1999/xlink" x="0px" y="0px"
	 width="1000px" height="291.452px" viewBox="0 0 1000 291.452" enable-background="new 0 0 1000 291.452" xml:space="preserve">
<g>
	<path fill="#010101" d="M890.81,38.695H739.865v139.372H890.81V38.695z M742.595,0h145.462c41.748,0,53.604,12.256,53.604,51.556
		V165.36c0,39.796-12.378,51.028-53.604,51.028H742.595c-41.743,0-53.605-10.716-53.605-51.028V51.556
		C688.99,12.256,700.852,0,742.595,0"/>
	<polygon fill="#010101" points="602.082,0.085 517.852,154.56 433.628,0.085 376.729,0.085 496.796,216.31 539.197,216.31 
		659.251,0.085 	"/>
	<polygon fill="#010101" points="151.086,216.31 100.314,216.31 100.314,38.642 0,38.642 0,0.088 251.832,0.088 251.832,38.642 
		151.086,38.642 	"/>
	<rect x="289.744" y="38.63" fill="#010101" width="50.56" height="177.679"/>
	<rect x="289.744" y="0.088" fill="#0AA8E0" width="50.56" height="38.554"/>
	<path fill="#0AA8E0" d="M608.2,254.119c-27.963,12.208-58.435,18.928-90.291,18.928c-31.896,0-62.362-6.731-90.328-18.951
		l-9.838,16.902c30.965,13.184,64.768,20.454,100.166,20.454c35.387,0,69.195-7.271,100.188-20.454L608.2,254.119z"/>
	<path fill="#010101" d="M981.242,19.251c2.612,0,4.093-1.348,4.093-3.267c0-2.14-1.48-3.26-4.093-3.26h-4.892v6.527H981.242z
		 M972.48,9.342h9.098c4.433,0,7.735,2.14,7.735,6.306c0,3.266-1.936,5.295-4.66,6.079l5.342,7.545h-4.66l-4.778-6.87h-4.206v6.87
		h-3.87V9.342z M997.73,19.705v-0.116c0-9.566-7.509-17.446-17.515-17.446c-9.893,0-17.515,7.991-17.515,17.563v0.111
		c0,9.571,7.509,17.452,17.515,17.452C990.108,37.268,997.73,29.271,997.73,19.705 M960.43,19.816v-0.111
		c0-10.701,8.758-19.702,19.785-19.702c11.141,0,19.785,8.891,19.785,19.586v0.116c0,10.693-8.758,19.699-19.785,19.699
		C969.069,39.404,960.43,30.508,960.43,19.816"/>
</g>
</svg>
