<?xml version="1.0" encoding="UTF-8" ?>
<!DOCTYPE svg PUBLIC "-//W3C//DTD SVG 1.1//EN" "http://www.w3.org/Graphics/SVG/1.1/DTD/svg11.dtd">
<svg width="200pt" height="91pt" viewBox="0 0 200 91" version="1.1" xmlns="http://www.w3.org/2000/svg">
<g id="#324f82fe">
<path fill="#324f82" opacity="1.00" d=" M 136.73 0.00 L 200.00 0.00 L 200.00 -0.05 C 183.30 28.90 166.71 57.90 150.03 86.86 C 149.33 88.17 148.84 89.58 148.40 91.00 L 147.02 91.00 C 148.11 84.74 147.20 78.38 147.64 72.09 C 148.19 69.82 149.73 67.95 150.82 65.91 C 161.56 47.18 172.37 28.48 183.06 9.72 C 169.45 9.67 155.84 9.73 142.24 9.69 C 140.37 6.47 138.67 3.17 136.73 0.00 Z" />
<path fill="#324f82" opacity="1.00" d=" M 0.00 20.30 C 7.03 19.24 14.17 20.00 21.25 19.79 C 21.25 21.28 21.26 22.77 21.26 24.26 C 18.49 24.27 15.72 24.27 12.95 24.26 C 12.74 31.75 12.89 39.24 12.87 46.73 C 11.33 46.74 9.80 46.74 8.26 46.75 C 8.40 40.82 7.98 34.90 8.12 28.98 C 8.00 27.47 8.47 25.76 7.64 24.39 C 5.24 23.48 2.53 24.18 0.00 23.94 L 0.00 20.30 Z" />
<path fill="#324f82" opacity="1.00" d=" M 75.31 23.27 C 76.81 23.27 78.32 23.27 79.83 23.28 C 79.82 24.99 79.81 26.71 79.80 28.43 C 81.46 28.44 83.12 28.45 84.79 28.46 C 84.79 29.78 84.79 31.10 84.78 32.43 C 83.12 32.44 81.46 32.45 79.81 32.48 C 79.99 35.64 79.36 38.93 80.19 42.00 C 80.86 44.06 83.32 43.09 84.91 43.18 C 84.53 44.40 85.41 46.45 83.98 47.07 C 81.08 47.66 76.94 47.56 75.67 44.31 C 75.01 40.40 75.44 36.39 75.34 32.44 C 74.06 32.43 72.79 32.43 71.51 32.42 C 71.52 31.43 71.52 29.46 71.52 28.47 C 72.80 28.46 74.07 28.46 75.34 28.45 C 75.33 26.72 75.32 25.00 75.31 23.27 Z" />
<path fill="#324f82" opacity="1.00" d=" M 25.40 30.81 C 26.89 28.43 29.69 27.59 32.33 28.46 C 32.30 29.47 32.25 31.51 32.22 32.53 C 29.70 32.21 26.27 32.44 25.42 35.36 C 24.94 39.10 25.30 42.89 25.23 46.65 C 23.66 46.70 22.08 46.74 20.51 46.78 C 20.50 40.66 20.50 34.53 20.51 28.41 C 22.52 28.67 26.00 27.50 25.40 30.81 Z" />
<path fill="#324f82" opacity="1.00" d=" M 35.24 28.46 C 36.74 28.46 38.23 28.46 39.73 28.47 C 39.98 33.05 38.94 37.85 40.69 42.23 C 41.28 42.52 42.44 43.12 43.02 43.42 C 44.76 42.77 46.80 42.09 47.08 39.95 C 47.57 36.14 47.17 32.29 47.28 28.46 C 48.78 28.46 50.28 28.46 51.79 28.47 C 51.78 34.55 51.75 40.63 51.80 46.71 C 50.38 46.74 48.95 46.77 47.53 46.80 C 47.50 46.14 47.43 44.83 47.39 44.18 C 44.80 48.86 37.01 48.14 35.54 42.95 C 34.92 38.15 35.40 33.29 35.24 28.46 Z" />
<path fill="#324f82" opacity="1.00" d=" M 59.40 28.71 C 62.88 27.61 67.29 27.80 69.80 30.80 C 68.82 31.70 67.84 32.59 66.86 33.48 C 64.98 31.48 60.62 30.61 60.17 34.34 C 63.47 36.27 68.84 35.56 70.19 39.96 C 71.61 47.91 59.10 49.73 55.29 44.23 C 56.27 43.36 57.24 42.48 58.21 41.60 C 60.10 44.16 65.85 45.00 65.78 40.70 C 62.97 39.10 59.21 39.50 56.88 37.09 C 54.41 34.38 56.21 29.91 59.40 28.71 Z" />
</g>
<g id="#40b29dfe">
<path fill="#40b29d" opacity="1.00" d=" M 103.07 19.47 C 124.19 19.37 145.32 19.46 166.44 19.43 C 164.48 22.76 162.63 26.16 160.46 29.36 C 146.97 29.20 133.48 29.18 120.00 29.36 C 127.76 42.52 135.19 55.87 142.92 69.05 C 143.43 70.04 144.13 70.99 144.32 72.11 C 144.86 78.39 143.68 84.79 144.97 91.00 L 144.52 91.00 C 142.24 87.77 140.35 84.30 138.40 80.87 C 126.58 60.43 114.93 39.89 103.07 19.47 Z" />
<path fill="#40b29d" opacity="1.00" d=" M 2.81 66.83 C 6.51 61.42 14.56 61.66 19.53 65.16 C 18.42 66.43 17.29 67.70 16.14 68.96 C 14.30 67.76 12.20 66.74 9.92 67.24 C 7.49 67.19 5.45 70.66 7.59 72.39 C 10.50 74.55 14.39 74.73 17.38 76.78 C 19.94 79.03 19.28 82.91 18.92 85.91 C 17.79 89.47 13.85 90.20 10.71 91.00 L 8.09 91.00 C 8.10 90.93 8.11 90.78 8.11 90.71 C 5.33 90.74 3.00 89.26 0.78 87.77 C 1.86 86.46 2.98 85.19 4.10 83.92 C 5.91 85.14 7.71 86.86 10.08 86.59 C 12.53 86.67 15.20 84.52 14.45 81.88 C 12.05 78.29 6.87 78.93 3.88 76.05 C 1.27 73.80 1.04 69.65 2.81 66.83 Z" />
<path fill="#40b29d" opacity="1.00" d=" M 28.38 72.52 C 34.42 69.26 43.31 73.80 42.79 81.03 C 43.48 88.45 34.42 93.07 28.26 89.73 C 21.36 86.74 21.41 75.39 28.38 72.52 M 30.38 76.37 C 27.05 78.12 26.66 83.12 29.57 85.44 C 32.28 87.77 37.08 86.46 38.01 82.94 C 39.87 78.66 34.37 73.62 30.38 76.37 Z" />
<path fill="#40b29d" opacity="1.00" d=" M 47.01 72.18 C 48.54 72.14 50.08 72.11 51.61 72.09 C 51.79 76.08 51.34 80.12 51.85 84.09 C 52.48 87.74 58.08 87.18 58.75 83.87 C 59.79 79.88 58.64 75.68 59.48 71.65 C 60.88 71.83 62.27 72.01 63.67 72.19 C 63.55 78.26 63.69 84.33 63.58 90.40 C 62.53 90.39 60.43 90.37 59.38 90.36 C 59.38 89.74 59.38 88.51 59.38 87.90 C 56.52 91.73 49.72 91.90 47.63 87.21 C 46.75 82.28 46.84 77.18 47.01 72.18 Z" />
<path fill="#40b29d" opacity="1.00" d=" M 75.44 72.60 C 76.72 71.21 78.73 71.70 80.39 71.53 C 80.40 73.14 80.42 74.76 80.43 76.37 C 77.83 75.08 74.09 76.42 73.49 79.38 C 73.17 83.03 73.43 86.69 73.36 90.35 C 71.80 90.35 70.23 90.35 68.67 90.34 C 68.67 84.28 68.69 78.23 68.66 72.17 C 70.14 72.15 71.62 72.14 73.10 72.14 C 72.75 75.12 74.57 73.32 75.44 72.60 Z" />
<path fill="#40b29d" opacity="1.00" d=" M 86.11 73.08 C 89.87 70.65 95.36 70.98 98.44 74.38 C 97.36 75.42 96.29 76.47 95.21 77.51 C 92.58 74.13 87.06 75.96 86.50 80.04 C 85.56 83.92 89.32 87.37 93.10 86.57 C 93.89 86.04 94.68 85.51 95.48 85.00 C 96.15 86.23 98.40 87.22 97.72 88.81 C 93.36 92.01 86.40 91.20 83.38 86.54 C 80.41 82.29 81.67 75.81 86.11 73.08 Z" />
<path fill="#40b29d" opacity="1.00" d=" M 100.28 83.10 C 98.68 76.75 104.59 70.55 110.96 71.56 C 116.46 71.86 119.05 77.85 118.56 82.70 C 113.84 82.73 109.11 82.63 104.39 82.74 C 105.30 87.78 111.72 88.03 114.67 84.69 C 115.72 85.51 116.76 86.33 117.81 87.15 C 113.07 93.37 101.35 91.16 100.28 83.10 M 104.34 79.27 C 107.54 79.37 110.75 79.37 113.95 79.34 C 113.89 73.53 105.02 73.94 104.34 79.27 Z" />
</g>
</svg>
