<?xml version="1.0" encoding="UTF-8" standalone="no"?>
<!DOCTYPE svg PUBLIC "-//W3C//DTD SVG 1.1//EN" "http://www.w3.org/Graphics/SVG/1.1/DTD/svg11.dtd">
<svg width="100%" height="100%" viewBox="0 0 400 194" version="1.1" xmlns="http://www.w3.org/2000/svg" xmlns:xlink="http://www.w3.org/1999/xlink" xml:space="preserve" xmlns:serif="http://www.serif.com/" style="fill-rule:evenodd;clip-rule:evenodd;stroke-linejoin:round;stroke-miterlimit:2;">
    <g id="Layer_x0020_1" transform="matrix(3.50388,0,0,3.50388,0,0)">
        <path d="M13.75,52.759L13.166,50.843L10.231,50.843L9.646,52.759L7.805,52.759L10.648,44.676L12.736,44.676L15.588,52.759L13.75,52.759ZM12.757,49.411C12.218,47.674 11.913,46.692 11.846,46.463C11.78,46.233 11.73,46.054 11.7,45.924C11.579,46.392 11.233,47.557 10.661,49.411L12.757,49.411ZM18.89,55.126C18.506,55.126 18.168,55.085 17.884,55.005L17.884,53.582C18.176,53.657 18.448,53.694 18.686,53.694C19.061,53.694 19.329,53.577 19.491,53.344C19.654,53.11 19.734,52.747 19.734,52.25L19.734,44.705L21.441,44.705L21.441,52.241C21.441,53.181 21.228,53.899 20.798,54.387C20.368,54.88 19.734,55.126 18.894,55.126L18.89,55.126ZM25.145,52.759L23.466,52.759L23.466,44.709L28.08,44.709L28.08,46.108L25.145,46.108L25.145,48.183L27.875,48.183L27.875,49.582L25.145,49.582L25.145,52.763L25.145,52.759ZM31.362,48.283L31.913,48.283C32.452,48.283 32.852,48.191 33.107,48.012C33.366,47.832 33.491,47.548 33.491,47.164C33.491,46.784 33.358,46.509 33.099,46.35C32.836,46.187 32.431,46.108 31.88,46.108L31.362,46.108L31.362,48.283ZM31.362,49.669L31.362,52.759L29.654,52.759L29.654,44.709L32.001,44.709C33.095,44.709 33.9,44.91 34.426,45.306C34.953,45.703 35.216,46.308 35.216,47.118C35.216,47.59 35.086,48.012 34.823,48.383C34.564,48.751 34.197,49.043 33.717,49.252C34.928,51.06 35.717,52.233 36.084,52.759L34.188,52.759L32.268,49.669L31.362,49.669ZM44.405,48.726C44.405,50.062 44.076,51.085 43.416,51.799C42.756,52.513 41.808,52.872 40.573,52.872C39.341,52.872 38.393,52.513 37.729,51.799C37.069,51.085 36.74,50.053 36.74,48.713C36.74,47.373 37.069,46.35 37.733,45.644C38.393,44.939 39.345,44.584 40.581,44.584C41.817,44.584 42.765,44.939 43.42,45.653C44.076,46.367 44.401,47.39 44.401,48.726L44.405,48.726ZM38.531,48.726C38.531,49.628 38.702,50.304 39.04,50.759C39.383,51.214 39.892,51.44 40.573,51.44C41.934,51.44 42.614,50.534 42.614,48.726C42.614,46.914 41.938,46.008 40.581,46.008C39.9,46.008 39.391,46.237 39.044,46.692C38.702,47.147 38.527,47.828 38.527,48.726L38.531,48.726ZM49.128,48.237L52.322,48.237L52.322,52.417C51.804,52.584 51.316,52.705 50.86,52.772C50.405,52.838 49.938,52.872 49.458,52.872C48.243,52.872 47.316,52.513 46.677,51.799C46.034,51.085 45.716,50.062 45.716,48.726C45.716,47.427 46.088,46.413 46.831,45.686C47.574,44.96 48.606,44.596 49.921,44.596C50.748,44.596 51.545,44.763 52.313,45.093L51.746,46.459C51.161,46.166 50.547,46.02 49.913,46.02C49.174,46.02 48.585,46.267 48.142,46.763C47.696,47.256 47.474,47.924 47.474,48.759C47.474,49.632 47.654,50.3 48.013,50.759C48.372,51.218 48.89,51.452 49.574,51.452C49.929,51.452 50.293,51.415 50.66,51.339L50.66,49.657L49.136,49.657L49.136,48.237L49.128,48.237ZM60.789,46.016C60.146,46.016 59.649,46.258 59.299,46.738C58.948,47.223 58.773,47.895 58.773,48.755C58.773,50.55 59.445,51.448 60.793,51.448C61.357,51.448 62.042,51.306 62.844,51.022L62.844,52.454C62.184,52.73 61.445,52.868 60.631,52.868C59.462,52.868 58.564,52.513 57.946,51.803C57.324,51.093 57.015,50.07 57.015,48.742C57.015,47.907 57.165,47.173 57.47,46.542C57.775,45.912 58.213,45.431 58.781,45.093C59.353,44.755 60.021,44.588 60.789,44.588C61.57,44.588 62.355,44.776 63.144,45.156L62.593,46.542C62.292,46.4 61.992,46.275 61.687,46.166C61.382,46.058 61.086,46.008 60.789,46.008L60.789,46.016ZM71.637,48.726C71.637,50.062 71.307,51.085 70.647,51.799C69.987,52.513 69.04,52.872 67.804,52.872C66.572,52.872 65.624,52.513 64.96,51.799C64.301,51.085 63.971,50.053 63.971,48.713C63.971,47.373 64.301,46.35 64.965,45.644C65.624,44.939 66.576,44.584 67.812,44.584C69.048,44.584 69.996,44.939 70.651,45.653C71.307,46.367 71.633,47.39 71.633,48.726L71.637,48.726ZM65.762,48.726C65.762,49.628 65.933,50.304 66.271,50.759C66.614,51.214 67.123,51.44 67.804,51.44C69.165,51.44 69.846,50.534 69.846,48.726C69.846,46.914 69.169,46.008 67.812,46.008C67.132,46.008 66.622,46.237 66.276,46.692C65.933,47.147 65.758,47.828 65.758,48.726L65.762,48.726ZM76.714,52.759L74.772,46.442L74.722,46.442C74.793,47.728 74.827,48.584 74.827,49.014L74.827,52.759L73.303,52.759L73.303,44.709L75.628,44.709L77.532,50.868L77.566,50.868L79.587,44.709L81.908,44.709L81.908,52.759L80.317,52.759L80.317,48.947C80.317,48.768 80.321,48.559 80.326,48.325C80.33,48.091 80.355,47.465 80.401,46.454L80.351,46.454L78.275,52.759L76.71,52.759L76.714,52.759ZM85.645,48.496L86.209,48.496C86.735,48.496 87.127,48.392 87.386,48.183C87.649,47.974 87.778,47.674 87.778,47.277C87.778,46.876 87.67,46.58 87.453,46.392C87.236,46.204 86.893,46.108 86.426,46.108L85.649,46.108L85.649,48.5L85.645,48.496ZM89.499,47.218C89.499,48.083 89.227,48.747 88.689,49.206C88.146,49.665 87.378,49.895 86.38,49.895L85.649,49.895L85.649,52.759L83.941,52.759L83.941,44.709L86.513,44.709C87.49,44.709 88.234,44.918 88.743,45.34C89.252,45.761 89.503,46.388 89.503,47.223L89.499,47.218ZM95.386,52.759L94.801,50.843L91.866,50.843L91.282,52.759L89.44,52.759L92.284,44.676L94.371,44.676L97.223,52.759L95.386,52.759ZM94.392,49.411C93.854,47.674 93.549,46.692 93.482,46.463C93.415,46.233 93.365,46.054 93.336,45.924C93.215,46.392 92.868,47.557 92.296,49.411L94.392,49.411ZM105.377,52.759L103.21,52.759L99.707,46.667L99.657,46.667C99.728,47.745 99.762,48.513 99.762,48.968L99.762,52.755L98.238,52.755L98.238,44.705L100.392,44.705L103.887,50.734L103.929,50.734C103.87,49.686 103.845,48.947 103.845,48.513L103.845,44.701L105.382,44.701L105.382,52.751L105.377,52.759ZM109.908,48.024L111.586,44.709L113.423,44.709L110.751,49.628L110.751,52.759L109.056,52.759L109.056,49.682L106.384,44.709L108.233,44.709L109.903,48.024L109.908,48.024Z" style="fill:rgb(51,51,51);fill-rule:nonzero;"/>
        <g id="_2270994308720">
            <g>
                <path d="M73.499,17.653C71.687,17.653 70.171,18.3 68.843,19.628C67.503,20.968 66.864,22.497 66.831,24.434C66.798,26.354 67.399,27.966 68.664,29.352C69.946,30.755 71.395,31.44 73.228,31.503L73.244,31.503C75.215,31.594 76.764,30.968 78.117,29.524C79.528,28.05 80.192,26.375 80.159,24.396C80.096,22.551 79.432,20.977 78.125,19.603C76.873,18.292 75.403,17.653 73.628,17.653L73.499,17.653ZM73.574,37.089C73.411,37.089 73.253,37.085 73.09,37.081C69.77,36.997 66.91,35.724 64.61,33.298C62.33,30.893 61.178,27.979 61.178,24.634C61.178,21.165 62.43,18.154 64.898,15.682C67.374,13.165 70.376,11.95 73.825,12.075C77.182,12.2 80.037,13.503 82.313,15.941C84.609,18.363 85.774,21.277 85.774,24.597C85.774,28.016 84.509,31.018 82.017,33.511C79.641,35.887 76.802,37.089 73.574,37.089Z" style="fill:rgb(102,82,255);"/>
            </g>
            <g>
                <path d="M101.883,17.653C100.071,17.653 98.551,18.3 97.227,19.628C95.887,20.968 95.248,22.497 95.215,24.434C95.185,26.354 95.783,27.966 97.048,29.352C98.329,30.755 99.778,31.44 101.611,31.503L101.628,31.503C103.599,31.599 105.148,30.968 106.5,29.524C107.912,28.05 108.576,26.375 108.542,24.396C108.48,22.551 107.816,20.977 106.509,19.603C105.26,18.292 103.787,17.653 102.012,17.653L101.883,17.653ZM101.958,37.089C101.799,37.089 101.636,37.085 101.473,37.081C98.154,36.997 95.294,35.724 92.993,33.298C90.714,30.893 89.561,27.979 89.561,24.634C89.561,21.165 90.814,18.154 93.281,15.682C95.757,13.165 98.764,11.946 102.208,12.075C105.565,12.2 108.421,13.503 110.697,15.941C112.993,18.363 114.162,21.277 114.162,24.597C114.162,28.016 112.897,31.018 110.404,33.511C108.029,35.887 105.189,37.089 101.962,37.089L101.958,37.089Z" style="fill:rgb(102,82,255);"/>
            </g>
            <g>
                <path d="M49.591,29.636C48.238,31.081 46.689,31.711 44.719,31.615L44.698,31.615C42.865,31.553 41.416,30.868 40.134,29.465C38.844,28.05 38.234,26.442 38.264,24.547C38.297,22.609 38.936,21.081 40.276,19.741C41.604,18.413 43.119,17.766 44.911,17.766L45.061,17.766C46.89,17.766 48.33,18.388 49.6,19.716C50.911,21.094 51.566,22.659 51.595,24.53C51.658,26.492 51.007,28.158 49.591,29.636ZM56.789,7.854C55.24,6.785 53.629,5.921 51.959,5.261L51.67,5.261L51.67,14.229C49.812,12.956 47.679,12.271 45.299,12.184C41.854,12.058 38.848,13.273 36.372,15.791C33.905,18.259 32.652,21.273 32.652,24.743C32.652,28.087 33.809,31.006 36.088,33.407C38.389,35.832 41.249,37.106 44.568,37.189C44.727,37.194 44.886,37.198 45.044,37.198C48.247,37.198 51.107,35.999 53.562,33.628C56.092,31.139 57.332,28.133 57.253,24.689L57.253,8.196C57.107,8.083 56.952,7.971 56.794,7.85L56.789,7.854Z" style="fill:rgb(102,82,255);"/>
            </g>
            <g>
                <path d="M27.784,13.52C26.665,12.764 25.504,12.129 24.314,11.607C22.301,18.613 18.627,24.355 15.767,27.92C12.936,24.434 9.237,18.747 7.162,11.774C5.951,12.33 4.773,13.006 3.638,13.812C3.037,14.263 2.523,14.689 2.156,15.006C6.331,27.482 14.631,35.16 14.732,35.248L15.466,35.887L15.842,36.171L16.636,35.448C16.736,35.356 25.241,27.49 29.362,14.739C28.982,14.426 28.431,13.991 27.779,13.524L27.784,13.52Z" style="fill:rgb(102,82,255);"/>
            </g>
        </g>
        <path d="M15.967,0L15.358,0C10.953,0.033 6.669,1.219 2.974,3.432C1.734,4.125 0.786,4.789 0.164,5.407L0.001,5.57L0.039,5.791C0.051,5.875 0.252,7.265 0.511,8.422L0.757,9.424L0.774,9.478C0.861,9.754 1.016,10.242 1.108,10.363L1.124,10.363L1.604,9.912C1.613,9.904 2.49,9.106 3.709,8.209C6.114,6.547 8.694,5.436 11.416,4.881C12.656,4.668 13.917,4.543 15.191,4.518L15.663,4.509L15.663,4.513L16.009,4.509C16.548,4.505 17.091,4.522 17.642,4.551C21.203,4.868 24.548,6.096 27.608,8.209C28.832,9.106 29.704,9.904 29.713,9.912L30.197,10.363L30.214,10.363C30.31,10.234 30.481,9.687 30.564,9.424L30.581,9.348L30.811,8.422C31.07,7.265 31.27,5.875 31.287,5.791L31.324,5.57L31.161,5.407C30.539,4.789 29.591,4.121 28.351,3.432C24.652,1.219 20.372,0.033 15.967,0Z" style="fill:url(#_Linear1);"/>
    </g>
    <defs>
        <linearGradient id="_Linear1" x1="0" y1="0" x2="1" y2="0" gradientUnits="userSpaceOnUse" gradientTransform="matrix(21.7951,0,0,21.7951,0.00111804,5.18155)"><stop offset="0" style="stop-color:rgb(240,237,95);stop-opacity:1"/><stop offset="1" style="stop-color:rgb(255,161,51);stop-opacity:1"/></linearGradient>
    </defs>
</svg>
