<?xml version="1.0" encoding="UTF-8" standalone="no"?>
<!DOCTYPE svg PUBLIC "-//W3C//DTD SVG 1.1//EN" "http://www.w3.org/Graphics/SVG/1.1/DTD/svg11.dtd">
<svg width="100%" height="100%" viewBox="0 0 400 60" version="1.1" xmlns="http://www.w3.org/2000/svg" xmlns:xlink="http://www.w3.org/1999/xlink" xml:space="preserve" xmlns:serif="http://www.serif.com/" style="fill-rule:evenodd;clip-rule:evenodd;stroke-linejoin:round;stroke-miterlimit:2;">
    <g transform="matrix(2.22222,0,0,2.22222,-258.302,-20.3111)">
        <path d="M240.09,9.14C240.09,9.14 240.09,9.14 240.089,9.14C232.672,9.14 226.568,15.244 226.568,22.661C226.568,30.078 232.672,36.182 240.089,36.182C247.507,36.182 253.61,30.078 253.61,22.661C253.61,19.083 252.19,15.647 249.663,13.113C247.13,10.567 243.681,9.136 240.09,9.14ZM240.09,30.915C234.567,30.915 232.057,26.065 232.057,22.626C232.057,19.187 234.567,14.337 240.09,14.337C245.934,14.337 248.123,19.483 248.123,22.726C248.118,26.14 245.623,30.915 240.09,30.915ZM256.69,35.68L256.69,14.8L252.59,14.8L252.59,9.6L262.184,9.6L262.184,35.679L256.69,35.68Z" style="fill:rgb(0,178,229);fill-rule:nonzero;"/>
    </g>
    <g transform="matrix(2.22222,0,0,2.22222,-14.9778,-21.3178)">
        <path d="M32.506,36.132L47.462,36.132L47.462,30.911L38,30.911L38,25.589L47.464,25.589L47.464,20.367L38,20.367L38,15.251L47.464,15.251L47.464,10.051L32.506,10.051L32.506,36.132ZM18.98,26.362C17.594,22.777 12.659,10.05 12.659,10.05L6.74,10.05L17.24,36.132L20.689,36.132L31.145,10.05L25.3,10.05C25.3,10.05 20.366,22.777 18.98,26.362ZM77.923,10.05L68.523,35.05L62.714,26.881C65.285,26.238 68.814,24.16 68.814,18.753C68.863,16.368 67.959,14.06 66.304,12.342C64.632,10.755 62.448,10.053 59.21,10.053L50.76,10.053L50.76,36.132L56.253,36.132L56.253,26.96L62.78,36.113L73.881,36.113L75.889,30.713L84.459,30.713L86.467,36.113L92.326,36.113L82.451,10.05L77.923,10.05ZM57.669,22.476L56.249,22.476L56.249,15.251L58.97,15.251C62.178,15.251 63.318,17.058 63.318,18.765C63.318,19.67 63.318,22.476 57.669,22.476ZM77.716,25.676C78.616,23.136 79.779,19.862 80.201,18.612L82.681,25.676L77.716,25.676Z" style="fill-rule:nonzero;stroke:white;stroke-width:0.45px;"/>
    </g>
    <g transform="matrix(2.22222,0,0,2.22222,-378.716,-21.3178)">
        <path d="M350.422,15.251L350.422,10.051L335.46,10.051L335.46,36.132L350.421,36.132L350.421,30.911L340.952,30.911L340.952,25.589L350.421,25.589L350.421,20.367L340.952,20.367L340.952,15.251L350.422,15.251Z" style="fill-rule:nonzero;stroke:white;stroke-width:0.45px;"/>
    </g>
    <g transform="matrix(2.22222,0,0,2.22222,-199.082,-20.3333)">
        <path d="M186.671,14.346C189.007,14.392 191.201,15.488 192.641,17.328L192.992,17.735L199.383,17.735L198.494,16.189C197.544,14.396 196.189,12.849 194.538,11.67C192.213,10.042 189.443,9.166 186.605,9.16C179.208,9.161 173.122,15.248 173.122,22.645C173.122,30.043 179.21,36.13 186.607,36.13C191.478,36.13 195.985,33.491 198.368,29.243L199.206,27.767L192.724,27.767L192.424,28.118C190.991,29.856 188.867,30.882 186.615,30.925C182.182,30.739 178.654,27.007 178.715,22.571C178.65,18.136 182.236,14.429 186.671,14.346Z" style="fill-rule:nonzero;stroke:white;stroke-width:0.45px;"/>
    </g>
    <g transform="matrix(2.22222,0,0,2.22222,-341.469,-21.3178)">
        <path d="M303.226,10.05L301.8,10.05L301.8,15.25L303.2,15.25C309.38,15.25 311.032,20.215 311.032,23.137C311.032,30.166 305.509,30.909 303.132,30.909L301.8,30.909L301.8,36.13L303.1,36.13C307.388,36.13 310.6,34.93 313.2,32.359C315.208,30.406 316.519,26.716 316.519,23.159C316.482,20.206 315.558,17.331 313.868,14.91C311.525,11.677 307.925,10.05 303.226,10.05Z" style="fill-rule:nonzero;stroke:white;stroke-width:0.45px;"/>
    </g>
</svg>
