<?xml version="1.0" encoding="utf-8"?>
<!-- Generator: Adobe Illustrator 22.0.1, SVG Export Plug-In . SVG Version: 6.00 Build 0)  -->
<svg version="1.1" id="Layer_1" xmlns="http://www.w3.org/2000/svg" xmlns:xlink="http://www.w3.org/1999/xlink" x="0px" y="0px"
	 viewBox="0 0 126.9 26.5" style="enable-background:new 0 0 126.9 26.5;" xml:space="preserve">
<style type="text/css">
	.st0{fill:#49378F;}
	.st1{fill:#8DBA38;}
	.st2{fill:#7C248F;}
	.st3{fill:#9A2970;}
	.st4{fill:#B51A65;}
	.st5{fill:#552B9A;}
</style>
<g>
	<path class="st0" d="M117.7,3.6h-2.8c-0.3,0-0.6,0.3-0.6,0.6v10.7v10.7c0,0.3,0.3,0.6,0.6,0.6h2.8c0.3,0,0.6-0.3,0.6-0.6V14.9V4.2
		C118.3,3.9,118.1,3.6,117.7,3.6z"/>
	<path class="st1" d="M14.1,2.2l-2-2c-0.2-0.2-0.6-0.2-0.9,0l-2,2c-0.2,0.2-0.2,0.6,0,0.9l2,2c0.2,0.2,0.6,0.2,0.9,0l2-2
		C14.3,2.8,14.3,2.5,14.1,2.2z"/>
	<path class="st2" d="M77.7,22.6h-14c-1.2,0-2.1-0.9-2.1-2.1v-1.8c0-1.2,0.9-2.1,2.1-2.1h11.9c0.3,0,0.6-0.3,0.6-0.6v-2.4
		c0-0.3-0.3-0.6-0.6-0.6H63.7c-1.2,0-2.1-0.9-2.1-2.1V9.3c0-1.2,0.9-2.1,2.1-2.1h13.6c0.3,0,0.6-0.3,0.6-0.6V4.2
		c0-0.3-0.3-0.6-0.6-0.6h-19c-0.3,0-0.6,0.3-0.6,0.6v10.7v10.7c0,0.3,0.3,0.6,0.6,0.6h19.5c0.3,0,0.6-0.3,0.6-0.6v-2.4
		C78.3,22.9,78.1,22.6,77.7,22.6z"/>
	<path class="st3" d="M49.2,6c-1.5-1.5-3.6-2.4-5.7-2.4H27.9c-0.3,0-0.6,0.3-0.6,0.6v2.4c0,0.3,0.3,0.6,0.6,0.6h0.9
		c1.2,0,2.1,0.9,2.1,2.1v16.3c0,0.3,0.3,0.6,0.6,0.6h2.8c0.3,0,0.6-0.3,0.6-0.6v-3.5c0-1.3,1-2.3,2.3-2.3h6.3c2.2,0,4.2-0.8,5.7-2.4
		c1.5-1.5,2.4-3.6,2.4-5.7S50.7,7.5,49.2,6z M43.2,16.2H37c-1.2,0-2.1-0.9-2.1-2.1V9.3c0-1.2,0.9-2.1,2.1-2.1h6.2
		c2.5,0,4.5,2,4.5,4.5S45.6,16.2,43.2,16.2z"/>
	<path class="st4" d="M23,23.6l-8.3-8.3c-0.2-0.2-0.2-0.6,0-0.8L23,6.2c0.2-0.2,0.2-0.6,0-0.8l-1.9-1.9c-0.2-0.2-0.6-0.2-0.8,0
		l-7.6,7.6c-0.6,0.6-1.6,0.6-2.2,0L2.9,3.5C2.6,3.3,2.3,3.3,2,3.5L0.2,5.4c-0.2,0.2-0.2,0.6,0,0.8l8.3,8.3c0.2,0.2,0.2,0.6,0,0.8
		l-8.3,8.3c-0.2,0.2-0.2,0.6,0,0.8L2,26.4c0.2,0.2,0.6,0.2,0.8,0l7.6-7.6c0.6-0.6,1.6-0.6,2.2,0l0,0l7.6,7.6c0.2,0.2,0.6,0.2,0.8,0
		l1.9-1.9C23.2,24.3,23.2,23.9,23,23.6z"/>
	<path class="st5" d="M108.4,25.8c0-0.1,0-0.2-0.1-0.3c0,0,0,0,0,0l-5.1-6l-0.3-0.3c-0.1-0.1-0.1-0.2-0.1-0.3c0-0.2,0.1-0.4,0.3-0.5
		l0,0c0.7-0.3,1.3-0.8,1.8-1.3c1.5-1.5,2.4-3.5,2.4-5.5c0-2.1-0.8-4.1-2.3-5.5c-1.5-1.5-3.5-2.3-5.5-2.3H83.6
		c-0.3,0-0.6,0.3-0.6,0.6v2.4c0,0.3,0.3,0.6,0.6,0.6h0.9c1.2,0,2.1,0.9,2.1,2.1v16.3c0,0.3,0.3,0.6,0.6,0.6H90
		c0.3,0,0.6-0.3,0.6-0.6v-4.2c0-1.2,0.9-2.1,2.1-2.1h4.7c0.5,0,0.9,0.2,1.2,0.6l4,4.7l0.9,1.1c0.3,0.3,0.7,0.5,1.1,0.5h3.3
		C108.2,26.2,108.4,26,108.4,25.8z M99.1,15.7h-6.4c-1.2,0-2.1-0.9-2.1-2.1V9.3c0-1.2,0.9-2.1,2.1-2.1h6.4c2.3,0,4.2,1.9,4.2,4.2
		S101.4,15.7,99.1,15.7z"/>
	<g>
		<path class="st0" d="M124.6,21.6c0.4,0,0.8,0.1,1.1,0.3c0.4,0.2,0.7,0.5,0.9,0.9c0.2,0.4,0.3,0.8,0.3,1.2c0,0.4-0.1,0.8-0.3,1.1
			c-0.2,0.4-0.5,0.6-0.9,0.9c-0.4,0.2-0.7,0.3-1.1,0.3c-0.4,0-0.8-0.1-1.1-0.3c-0.4-0.2-0.6-0.5-0.9-0.9c-0.2-0.4-0.3-0.7-0.3-1.1
			c0-0.4,0.1-0.8,0.3-1.2c0.2-0.4,0.5-0.7,0.9-0.9C123.9,21.7,124.2,21.6,124.6,21.6z M124.6,22c-0.3,0-0.6,0.1-0.9,0.2
			c-0.3,0.2-0.5,0.4-0.7,0.7c-0.2,0.3-0.3,0.6-0.3,1c0,0.3,0.1,0.6,0.3,1c0.2,0.3,0.4,0.5,0.7,0.7c0.3,0.2,0.6,0.3,1,0.3
			c0.3,0,0.6-0.1,1-0.3c0.3-0.2,0.5-0.4,0.7-0.7c0.2-0.3,0.3-0.6,0.3-1c0-0.3-0.1-0.7-0.3-1c-0.2-0.3-0.4-0.5-0.7-0.7
			S124.9,22,124.6,22z M123.6,25.2v-2.5h0.9c0.3,0,0.5,0,0.6,0.1c0.1,0,0.2,0.1,0.3,0.2c0.1,0.1,0.1,0.2,0.1,0.4
			c0,0.2-0.1,0.3-0.2,0.5c-0.1,0.1-0.3,0.2-0.5,0.2c0.1,0,0.2,0.1,0.2,0.1c0.1,0.1,0.2,0.3,0.4,0.5l0.3,0.5h-0.5l-0.2-0.4
			c-0.2-0.3-0.3-0.5-0.4-0.6c-0.1-0.1-0.2-0.1-0.3-0.1H124v1.1H123.6z M124,23.8h0.5c0.2,0,0.4,0,0.5-0.1c0.1-0.1,0.1-0.2,0.1-0.3
			c0-0.1,0-0.1-0.1-0.2c0-0.1-0.1-0.1-0.2-0.1c-0.1,0-0.2,0-0.4,0H124V23.8z"/>
	</g>
</g>
</svg>
