<?xml version="1.0" encoding="UTF-8" standalone="no"?>
<!DOCTYPE svg PUBLIC "-//W3C//DTD SVG 1.1//EN" "http://www.w3.org/Graphics/SVG/1.1/DTD/svg11.dtd">
<svg width="100%" height="100%" viewBox="0 0 124 36" version="1.1" xmlns="http://www.w3.org/2000/svg" xmlns:xlink="http://www.w3.org/1999/xlink" xml:space="preserve" xmlns:serif="http://www.serif.com/" style="fill-rule:evenodd;clip-rule:evenodd;stroke-linejoin:round;stroke-miterlimit:2;">
    <g transform="matrix(1,0,0,1,-1.31568,-0.905915)">
        <path d="M21.2,1.08C25.46,-0.08 29.41,4.79 27.74,8.78C26.59,12.74 20.85,14 18.22,10.76C15.25,7.7 16.94,1.85 21.2,1.08Z" style="fill:rgb(255,120,0);fill-rule:nonzero;"/>
    </g>
    <g transform="matrix(1,0,0,1,-1.31568,-0.905915)">
        <path d="M1.38,12.09C1.18,9.95 3.73,8.26 5.62,9.31C11,12.16 16.12,15.49 21.45,18.44C19.57,19.65 17.72,20.92 15.7,21.89C12.75,20.84 10.22,18.89 7.51,17.35C7.51,20.88 7.52,24.4 7.57,27.93C17.86,21.71 28.23,15.63 38.63,9.6C40.46,8.14 43.46,9.58 43.33,11.95C43.51,17.98 43.25,24.01 43.34,30.04C43.21,32.09 43.74,34.59 41.97,36.09C39.97,37.07 38.2,35.58 36.52,34.67C32.16,32.01 27.79,29.37 23.37,26.81C25.36,25.62 27.35,24.44 29.34,23.24C32,24.76 34.62,26.36 37.26,27.93C37.25,24.44 37.28,20.96 37.27,17.47C27.49,23.36 17.55,28.98 7.79,34.9C6.35,35.72 4.79,36.79 3.05,36.13C1.01,34.72 1.41,32.13 1.36,29.99C1.44,24.03 1.21,18.06 1.38,12.09Z" style="fill:rgb(255,120,0);fill-rule:nonzero;"/>
    </g>
    <g transform="matrix(1,0,0,1,0.275844,6.14341)">
        <g transform="matrix(23,0,0,23,51.9701,20.4468)">
            <path d="M0.508,-0.525L0.334,-0.27L0.53,0.003L0.409,0.003L0.275,-0.183L0.141,0.003L0.02,0.003L0.216,-0.27L0.044,-0.525L0.163,-0.525L0.275,-0.347L0.391,-0.525L0.508,-0.525Z" style="fill-rule:nonzero;"/>
        </g>
        <g transform="matrix(23,0,0,23,64.6044,20.4468)">
            <path d="M0.406,-0.525L0.511,-0.525L0.313,0.001L0.264,0.115C0.256,0.138 0.247,0.158 0.237,0.175C0.221,0.203 0.194,0.218 0.157,0.222C0.153,0.222 0.148,0.222 0.144,0.222C0.128,0.222 0.104,0.221 0.073,0.217L0.073,0.14C0.084,0.141 0.093,0.141 0.1,0.141C0.12,0.141 0.134,0.139 0.145,0.134C0.159,0.128 0.17,0.116 0.178,0.097L0.214,0.016L0.01,-0.525L0.115,-0.525L0.26,-0.119L0.406,-0.525Z" style="fill-rule:nonzero;"/>
        </g>
        <g transform="matrix(23,0,0,23,76.7333,20.4468)">
            <path d="M0.302,-0.061C0.353,-0.061 0.391,-0.078 0.417,-0.112C0.441,-0.144 0.454,-0.188 0.456,-0.245L0.456,-0.272C0.454,-0.329 0.441,-0.374 0.417,-0.405C0.391,-0.44 0.353,-0.457 0.302,-0.457C0.249,-0.457 0.209,-0.438 0.183,-0.401C0.159,-0.368 0.147,-0.32 0.147,-0.259C0.147,-0.197 0.159,-0.15 0.183,-0.116C0.209,-0.079 0.249,-0.061 0.302,-0.061ZM0.456,-0.525L0.554,-0.525L0.554,-0.057C0.554,0.034 0.527,0.106 0.473,0.159C0.43,0.201 0.373,0.222 0.304,0.222C0.239,0.222 0.186,0.21 0.145,0.185C0.1,0.158 0.074,0.118 0.066,0.065L0.16,0.065C0.171,0.092 0.188,0.111 0.212,0.122C0.234,0.132 0.265,0.138 0.304,0.138C0.349,0.138 0.384,0.124 0.41,0.096C0.438,0.065 0.454,0.019 0.456,-0.042L0.456,-0.055C0.422,-0.005 0.367,0.021 0.292,0.021C0.216,0.021 0.156,-0.007 0.112,-0.062C0.07,-0.113 0.049,-0.179 0.049,-0.259C0.049,-0.339 0.07,-0.404 0.112,-0.456C0.156,-0.511 0.216,-0.538 0.292,-0.538C0.367,-0.538 0.422,-0.513 0.456,-0.462L0.456,-0.525Z" style="fill-rule:nonzero;"/>
        </g>
        <g transform="matrix(23,0,0,23,91.1645,20.4468)">
            <path d="M0.456,-0.309C0.453,-0.351 0.438,-0.386 0.413,-0.414C0.387,-0.443 0.353,-0.458 0.311,-0.458C0.264,-0.458 0.226,-0.444 0.198,-0.416C0.172,-0.39 0.156,-0.354 0.149,-0.309L0.456,-0.309ZM0.311,-0.538C0.378,-0.538 0.434,-0.516 0.478,-0.472C0.52,-0.429 0.545,-0.374 0.553,-0.307C0.555,-0.291 0.556,-0.275 0.556,-0.259C0.556,-0.25 0.556,-0.24 0.555,-0.23L0.146,-0.23C0.15,-0.18 0.166,-0.139 0.193,-0.108C0.221,-0.076 0.257,-0.061 0.3,-0.061C0.335,-0.061 0.364,-0.068 0.388,-0.083C0.413,-0.1 0.434,-0.127 0.451,-0.166L0.545,-0.166C0.537,-0.136 0.525,-0.108 0.507,-0.083C0.462,-0.014 0.393,0.021 0.3,0.021C0.224,0.021 0.162,-0.007 0.115,-0.062C0.07,-0.114 0.047,-0.18 0.047,-0.259C0.047,-0.337 0.072,-0.403 0.12,-0.456C0.171,-0.511 0.234,-0.538 0.311,-0.538Z" style="fill-rule:nonzero;"/>
        </g>
        <g transform="matrix(23,0,0,23,104.955,20.4468)">
            <path d="M0.449,0.003L0.449,-0.322C0.449,-0.363 0.44,-0.396 0.422,-0.419C0.403,-0.444 0.374,-0.457 0.336,-0.457C0.275,-0.457 0.23,-0.433 0.202,-0.386C0.182,-0.351 0.171,-0.305 0.171,-0.249L0.171,0.003L0.073,0.003L0.073,-0.525L0.171,-0.525L0.171,-0.461C0.184,-0.478 0.206,-0.494 0.235,-0.509C0.272,-0.528 0.313,-0.538 0.357,-0.538C0.416,-0.538 0.462,-0.519 0.496,-0.481C0.53,-0.443 0.547,-0.39 0.547,-0.322L0.547,0.003L0.449,0.003Z" style="fill-rule:nonzero;"/>
        </g>
        <g transform="matrix(23,0,0,23,119.117,20.4468)">
            <path d="M0.172,-0.703L0.172,-0.605L0.071,-0.605L0.071,-0.703L0.172,-0.703ZM0.172,-0.525L0.172,0.003L0.071,0.003L0.071,-0.525L0.172,-0.525Z" style="fill-rule:nonzero;"/>
        </g>
    </g>
</svg>
