<?xml version="1.0" encoding="UTF-8" standalone="no"?>
<!DOCTYPE svg PUBLIC "-//W3C//DTD SVG 1.1//EN" "http://www.w3.org/Graphics/SVG/1.1/DTD/svg11.dtd">
<svg width="100%" height="100%" viewBox="0 0 1726 565" version="1.1" xmlns="http://www.w3.org/2000/svg" xmlns:xlink="http://www.w3.org/1999/xlink" xml:space="preserve" xmlns:serif="http://www.serif.com/" style="fill-rule:evenodd;clip-rule:evenodd;stroke-linejoin:round;stroke-miterlimit:2;">
    <g id="group-R5" transform="matrix(1,0,0,1,-3.28123e-05,-1.0771e-05)">
        <g id="path5" transform="matrix(0.133333,0,0,-0.133333,0,564.173)">
            <g id="g5">
                <clipPath id="_clip1">
                    <path id="path51" serif:id="path5" d="M4229.84,1986.6C4229.84,889.441 3340.4,-0.012 2243.22,-0.012C1146.05,-0.012 256.613,889.441 256.613,1986.6C256.613,3083.78 1146.05,3973.22 2243.22,3973.22C3340.4,3973.22 4229.84,3083.78 4229.84,1986.6Z"/>
                </clipPath>
                <g clip-path="url(#_clip1)">
                    <path d="M2182,0L2182,1L2156,1L2156,2L2134,2L2134,3L2118,3L2118,4L2102,4L2102,5L2087,5L2087,6L2076,6L2076,7L2065,7L2065,8L2054,8L2054,9L2042,9L2042,10L2033,10L2033,11L2024,11L2024,12L2016,12L2016,13L2007,13L2007,14L1998,14L1998,15L1989,15L1989,16L1982,16L1982,17L1975,17L1975,18L1968,18L1968,19L1961,19L1961,20L1954,20L1954,21L1946,21L1946,22L1939,22L1939,23L1933,23L1933,24L1927,24L1927,25L1921,25L1921,26L1915,26L1915,27L1909,27L1909,28L1903,28L1903,29L1897,29L1897,30L1891,30L1891,31L1886,31L1886,32L1881,32L1881,33L1876,33L1876,34L1870,34L1870,35L1865,35L1865,36L1860,36L1860,37L1855,37L1855,38L1849,38L1849,39L1844,39L1844,40L1839,40L1839,41L1835,41L1835,42L1830,42L1830,43L1826,43L1826,44L1821,44L1821,45L1816,45L1816,46L1812,46L1812,47L1807,47L1807,48L1803,48L1803,49L1798,49L1798,50L1793,50L1793,51L1789,51L1789,52L1785,52L1785,53L1781,53L1781,54L1777,54L1777,55L1773,55L1773,56L1769,56L1769,57L1765,57L1765,58L1761,58L1761,59L1757,59L1757,60L1753,60L1753,61L1748,61L1748,62L1745,62L1745,63L1741,63L1741,64L1737,64L1737,65L1733,65L1733,66L1730,66L1730,67L1726,67L1726,68L1722,68L1722,69L1719,69L1719,70L1715,70L1715,71L1711,71L1711,72L1708,72L1708,73L1704,73L1704,74L1700,74L1700,75L1697,75L1697,76L1693,76L1693,77L1690,77L1690,78L1687,78L1687,79L1683,79L1683,80L1680,80L1680,81L1677,81L1677,82L1673,82L1673,83L1670,83L1670,84L1666,84L1666,85L1663,85L1663,86L1660,86L1660,87L1656,87L1656,88L1653,88L1653,89L1650,89L1650,90L1647,90L1647,91L1644,91L1644,92L1641,92L1641,93L1638,93L1638,94L1634,94L1634,95L1631,95L1631,96L1628,96L1628,97L1625,97L1625,98L1622,98L1622,99L1619,99L1619,100L1616,100L1616,101L1613,101L1613,102L1610,102L1610,103L1607,103L1607,104L1604,104L1604,105L1601,105L1601,106L1598,106L1598,107L1595,107L1595,108L1592,108L1592,109L1590,109L1590,110L1587,110L1587,111L1584,111L1584,112L1581,112L1581,113L1578,113L1578,114L1575,114L1575,115L1573,115L1573,116L1570,116L1570,117L1567,117L1567,118L1564,118L1564,119L1561,119L1561,120L1558,120L1558,121L1556,121L1556,122L1553,122L1553,123L1551,123L1551,124L1548,124L1548,125L1545,125L1545,126L1543,126L1543,127L1540,127L1540,128L1537,128L1537,129L1535,129L1535,130L1532,130L1532,131L1530,131L1530,132L1527,132L1527,133L1524,133L1524,134L1522,134L1522,135L1519,135L1519,136L1516,136L1516,137L1514,137L1514,138L1511,138L1511,139L1509,139L1509,140L1506,140L1506,141L1504,141L1504,142L1502,142L1502,143L1499,143L1499,144L1497,144L1497,145L1494,145L1494,146L1492,146L1492,147L1489,147L1489,148L1487,148L1487,149L1484,149L1484,150L1482,150L1482,151L1480,151L1480,152L1477,152L1477,153L1475,153L1475,154L1472,154L1472,155L1470,155L1470,156L1467,156L1467,157L1465,157L1465,158L1463,158L1463,159L1461,159L1461,160L1458,160L1458,161L1456,161L1456,162L1454,162L1454,163L1451,163L1451,164L1449,164L1449,165L1447,165L1447,166L1445,166L1445,167L1442,167L1442,168L1440,168L1440,169L1438,169L1438,170L1435,170L1435,171L1433,171L1433,172L1431,172L1431,173L1429,173L1429,174L1426,174L1426,175L1424,175L1424,176L1422,176L1422,177L1420,177L1420,178L1418,178L1418,179L1415,179L1415,180L1413,180L1413,181L1411,181L1411,182L1409,182L1409,183L1407,183L1407,184L1405,184L1405,185L1403,185L1403,186L1400,186L1400,187L1398,187L1398,188L1396,188L1396,189L1394,189L1394,190L1392,190L1392,191L1390,191L1390,192L1388,192L1388,193L1386,193L1386,194L1383,194L1383,195L1381,195L1381,196L1379,196L1379,197L1377,197L1377,198L1375,198L1375,199L1373,199L1373,200L1371,200L1371,201L1369,201L1369,202L1367,202L1367,203L1365,203L1365,204L1363,204L1363,205L1361,205L1361,206L1359,206L1359,207L1357,207L1357,208L1355,208L1355,209L1353,209L1353,210L1351,210L1351,211L1349,211L1349,212L1347,212L1347,213L1345,213L1345,214L1343,214L1343,215L1341,215L1341,216L1339,216L1339,217L1337,217L1337,218L1335,218L1335,219L1333,219L1333,220L1331,220L1331,221L1329,221L1329,222L1328,222L1328,223L1326,223L1326,224L1324,224L1324,225L1322,225L1322,226L1320,226L1320,227L1318,227L1318,228L1316,228L1316,229L1314,229L1314,230L1312,230L1312,231L1311,231L1311,232L1309,232L1309,233L1307,233L1307,234L1305,234L1305,235L1303,235L1303,236L1301,236L1301,237L1299,237L1299,238L1297,238L1297,239L1295,239L1295,240L1294,240L1294,241L1292,241L1292,242L1290,242L1290,243L1288,243L1288,244L1286,244L1286,245L1285,245L1285,246L1283,246L1283,247L1281,247L1281,248L1279,248L1279,249L1277,249L1277,250L1276,250L1276,251L1274,251L1274,252L1272,252L1272,253L1270,253L1270,254L1269,254L1269,255L1267,255L1267,256L1265,256L1265,257L1263,257L1263,258L1261,258L1261,259L1260,259L1260,260L1258,260L1258,261L1256,261L1256,262L1254,262L1254,263L1253,263L1253,264L1251,264L1251,265L1249,265L1249,266L1247,266L1247,267L1246,267L1246,268L1244,268L1244,269L1242,269L1242,270L1241,270L1241,271L1239,271L1239,272L1237,272L1237,273L1236,273L1236,274L1234,274L1234,275L1232,275L1232,276L1231,276L1231,277L1229,277L1229,278L1227,278L1227,279L1225,279L1225,280L1224,280L1224,281L1222,281L1222,282L1220,282L1220,283L1219,283L1219,284L1217,284L1217,285L1215,285L1215,286L1214,286L1214,287L1212,287L1212,288L1210,288L1210,289L1209,289L1209,290L1207,290L1207,291L1206,291L1206,292L1204,292L1204,293L1202,293L1202,294L1201,294L1201,295L1199,295L1199,296L1198,296L1198,297L1196,297L1196,298L1194,298L1194,299L1193,299L1193,300L1191,300L1191,301L1190,301L1190,302L1188,302L1188,303L1186,303L1186,304L1185,304L1185,305L1183,305L1183,306L1182,306L1182,307L1180,307L1180,308L1178,308L1178,309L1177,309L1177,310L1175,310L1175,311L1174,311L1174,312L1172,312L1172,313L1170,313L1170,314L1169,314L1169,315L1167,315L1167,316L1166,316L1166,317L1164,317L1164,318L1163,318L1163,319L1161,319L1161,320L1160,320L1160,321L1158,321L1158,322L1157,322L1157,323L1155,323L1155,324L1154,324L1154,325L1152,325L1152,326L1151,326L1151,327L1149,327L1149,328L1148,328L1148,329L1146,329L1146,330L1145,330L1145,331L1143,331L1143,332L1142,332L1142,333L1140,333L1140,334L1138,334L1138,335L1137,335L1137,336L1135,336L1135,337L1134,337L1134,338L1132,338L1132,339L1131,339L1131,340L1130,340L1130,341L1128,341L1128,342L1127,342L1127,343L1125,343L1125,344L1124,344L1124,345L1122,345L1122,346L1121,346L1121,347L1119,347L1119,348L1118,348L1118,349L1117,349L1117,350L1115,350L1115,351L1114,351L1114,352L1112,352L1112,353L1111,353L1111,354L1109,354L1109,355L1108,355L1108,356L1106,356L1106,357L1105,357L1105,358L1104,358L1104,359L1102,359L1102,360L1101,360L1101,361L1099,361L1099,362L1098,362L1098,363L1096,363L1096,364L1095,364L1095,365L1093,365L1093,366L1092,366L1092,367L1091,367L1091,368L1089,368L1089,369L1088,369L1088,370L1087,370L1087,371L1085,371L1085,372L1084,372L1084,373L1082,373L1082,374L1081,374L1081,375L1080,375L1080,376L1078,376L1078,377L1077,377L1077,378L1076,378L1076,379L1074,379L1074,380L1073,380L1073,381L1071,381L1071,382L1070,382L1070,383L1069,383L1069,384L1067,384L1067,385L1066,385L1066,386L1065,386L1065,387L1063,387L1063,388L1062,388L1062,389L1061,389L1061,390L1059,390L1059,391L1058,391L1058,392L1056,392L1056,393L1055,393L1055,394L1054,394L1054,395L1052,395L1052,396L1051,396L1051,397L1050,397L1050,398L1048,398L1048,399L1047,399L1047,400L1046,400L1046,401L1045,401L1045,402L1043,402L1043,403L1042,403L1042,404L1041,404L1041,405L1039,405L1039,406L1038,406L1038,407L1037,407L1037,408L1035,408L1035,409L1034,409L1034,410L1033,410L1033,411L1031,411L1031,412L1030,412L1030,413L1029,413L1029,414L1028,414L1028,415L1026,415L1026,416L1025,416L1025,417L1024,417L1024,418L1022,418L1022,419L1021,419L1021,420L1020,420L1020,421L1018,421L1018,422L1017,422L1017,423L1016,423L1016,424L1015,424L1015,425L1013,425L1013,426L1012,426L1012,427L1011,427L1011,428L1010,428L1010,429L1008,429L1008,430L1007,430L1007,431L1006,431L1006,432L1005,432L1005,433L1003,433L1003,434L1002,434L1002,435L1001,435L1001,436L1000,436L1000,437L998,437L998,438L997,438L997,439L996,439L996,440L995,440L995,441L994,441L994,442L992,442L992,443L991,443L991,444L990,444L990,445L989,445L989,446L987,446L987,447L986,447L986,448L985,448L985,449L984,449L984,450L982,450L982,451L981,451L981,452L980,452L980,453L979,453L979,454L977,454L977,455L976,455L976,456L975,456L975,457L974,457L974,458L973,458L973,459L972,459L972,460L970,460L970,461L969,461L969,462L968,462L968,463L967,463L967,464L966,464L966,465L964,465L964,466L963,466L963,467L962,467L962,468L961,468L961,469L960,469L960,470L959,470L959,471L957,471L957,472L956,472L956,473L955,473L955,474L954,474L954,475L953,475L953,476L951,476L951,477L950,477L950,478L949,478L949,479L948,479L948,480L947,480L947,481L946,481L946,482L944,482L944,483L943,483L943,484L942,484L942,485L941,485L941,486L940,486L940,487L939,487L939,488L937,488L937,489L936,489L936,490L935,490L935,491L934,491L934,492L933,492L933,493L932,493L932,494L931,494L931,495L930,495L930,496L928,496L928,497L927,497L927,498L926,498L926,499L925,499L925,500L924,500L924,501L923,501L923,502L922,502L922,503L921,503L921,504L919,504L919,505L918,505L918,506L917,506L917,507L916,507L916,508L915,508L915,509L914,509L914,510L913,510L913,511L912,511L912,512L910,512L910,513L909,513L909,514L908,514L908,515L907,515L907,516L906,516L906,517L905,517L905,518L904,518L904,519L903,519L903,520L902,520L902,521L901,521L901,522L900,522L900,523L898,523L898,524L897,524L897,525L896,525L896,526L895,526L895,527L894,527L894,528L893,528L893,529L892,529L892,530L891,530L891,531L890,531L890,532L889,532L889,533L888,533L888,534L887,534L887,535L886,535L886,536L885,536L885,537L883,537L883,538L882,538L882,539L881,539L881,540L880,540L880,541L879,541L879,542L878,542L878,543L877,543L877,544L876,544L876,545L875,545L875,546L874,546L874,547L873,547L873,548L872,548L872,549L871,549L871,550L870,550L870,551L869,551L869,552L868,552L868,553L867,553L867,554L865,554L865,555L864,555L864,556L863,556L863,557L862,557L862,558L861,558L861,559L860,559L860,560L859,560L859,561L858,561L858,562L857,562L857,563L856,563L856,564L855,564L855,565L854,565L854,566L853,566L853,567L852,567L852,568L851,568L851,569L850,569L850,570L849,570L849,571L848,571L848,572L847,572L847,573L846,573L846,574L845,574L845,575L844,575L844,576L843,576L843,577L842,577L842,578L841,578L841,579L840,579L840,580L839,580L839,581L838,581L838,582L837,582L837,583L836,583L836,584L835,584L835,585L834,585L834,586L833,586L833,587L832,587L832,588L831,588L831,589L830,589L830,590L829,590L829,591L828,591L828,592L827,592L827,593L826,593L826,594L825,594L825,595L824,595L824,596L823,596L823,597L822,597L822,598L821,598L821,599L820,599L820,600L819,600L819,601L818,601L818,602L817,602L817,603L816,603L816,604L815,604L815,605L814,605L814,606L813,606L813,607L812,607L812,608L811,608L811,610L810,610L810,611L809,611L809,612L808,612L808,613L807,613L807,614L806,614L806,615L805,615L805,616L804,616L804,617L803,617L803,618L802,618L802,619L801,619L801,620L800,620L800,621L799,621L799,622L798,622L798,623L797,623L797,624L796,624L796,625L795,625L795,626L794,626L794,627L793,627L793,629L792,629L792,630L791,630L791,631L790,631L790,632L789,632L789,633L788,633L788,634L787,634L787,635L786,635L786,636L785,636L785,637L784,637L784,638L783,638L783,639L782,639L782,640L781,640L781,641L780,641L780,643L779,643L779,644L778,644L778,645L777,645L777,646L776,646L776,647L775,647L775,648L774,648L774,649L773,649L773,650L772,650L772,651L771,651L771,652L770,652L770,653L769,653L769,655L768,655L768,656L767,656L767,657L766,657L766,658L765,658L765,659L764,659L764,660L763,660L763,661L762,661L762,662L761,662L761,664L760,664L760,665L759,665L759,666L758,666L758,667L757,667L757,668L756,668L756,669L755,669L755,670L754,670L754,671L753,671L753,673L752,673L752,674L751,674L751,675L750,675L750,676L749,676L749,677L748,677L748,678L747,678L747,679L746,679L746,680L745,680L745,682L744,682L744,683L743,683L743,684L742,684L742,685L741,685L741,686L740,686L740,687L739,687L739,688L738,688L738,690L737,690L737,691L736,691L736,692L735,692L735,693L734,693L734,694L733,694L733,696L732,696L732,697L731,697L731,698L730,698L730,699L729,699L729,700L728,700L728,701L727,701L727,703L726,703L726,704L725,704L725,705L724,705L724,706L723,706L723,707L722,707L722,709L721,709L721,710L720,710L720,711L719,711L719,712L718,712L718,713L717,713L717,714L716,714L716,716L715,716L715,717L714,717L714,718L713,718L713,719L712,719L712,720L711,720L711,722L710,722L710,723L709,723L709,724L708,724L708,725L707,725L707,726L706,726L706,728L705,728L705,729L704,729L704,730L703,730L703,731L702,731L702,733L701,733L701,734L700,734L700,735L699,735L699,736L698,736L698,738L697,738L697,739L696,739L696,740L695,740L695,741L694,741L694,743L693,743L693,744L692,744L692,745L691,745L691,746L690,746L690,748L689,748L689,749L688,749L688,750L687,750L687,751L686,751L686,753L685,753L685,754L684,754L684,755L683,755L683,756L682,756L682,758L681,758L681,759L680,759L680,760L679,760L679,761L678,761L678,763L677,763L677,764L676,764L676,765L675,765L675,767L674,767L674,768L673,768L673,769L672,769L672,770L671,770L671,772L670,772L670,773L669,773L669,774L668,774L668,776L667,776L667,777L666,777L666,778L665,778L665,780L664,780L664,781L663,781L663,782L662,782L662,784L661,784L661,785L660,785L660,786L659,786L659,787L658,787L658,789L657,789L657,790L656,790L656,791L655,791L655,793L654,793L654,794L653,794L653,795L652,795L652,797L651,797L651,798L650,798L650,799L649,799L649,801L648,801L648,802L647,802L647,803L646,803L646,805L645,805L645,806L644,806L644,807L643,807L643,809L642,809L642,810L641,810L641,812L640,812L640,813L639,813L639,814L638,814L638,816L637,816L637,817L636,817L636,818L635,818L635,820L634,820L634,821L633,821L633,823L632,823L632,824L631,824L631,825L630,825L630,827L629,827L629,828L628,828L628,829L627,829L627,831L626,831L626,832L625,832L625,834L624,834L624,835L623,835L623,836L622,836L622,838L621,838L621,839L620,839L620,841L619,841L619,842L618,842L618,843L617,843L617,845L616,845L616,846L615,846L615,848L614,848L614,849L613,849L613,851L612,851L612,852L611,852L611,854L610,854L610,855L609,855L609,856L608,856L608,858L607,858L607,859L606,859L606,861L605,861L605,862L604,862L604,864L603,864L603,865L602,865L602,867L601,867L601,868L600,868L600,869L599,869L599,871L598,871L598,872L597,872L597,874L596,874L596,875L595,875L595,877L594,877L594,878L593,878L593,880L592,880L592,881L591,881L591,883L590,883L590,884L589,884L589,886L588,886L588,887L587,887L587,889L586,889L586,890L585,890L585,892L584,892L584,893L583,893L583,895L582,895L582,896L581,896L581,898L580,898L580,900L579,900L579,901L578,901L578,903L577,903L577,904L576,904L576,906L575,906L575,907L574,907L574,909L573,909L573,910L572,910L572,912L571,912L571,913L570,913L570,915L569,915L569,916L568,916L568,918L567,918L567,919L566,919L566,921L565,921L565,923L564,923L564,924L563,924L563,926L562,926L562,928L561,928L561,929L560,929L560,931L559,931L559,932L558,932L558,934L557,934L557,936L556,936L556,937L555,937L555,939L554,939L554,940L553,940L553,942L552,942L552,944L551,944L551,945L550,945L550,947L549,947L549,948L548,948L548,950L547,950L547,952L546,952L546,953L545,953L545,955L544,955L544,956L543,956L543,958L542,958L542,960L541,960L541,961L540,961L540,963L539,963L539,965L538,965L538,967L537,967L537,968L536,968L536,970L535,970L535,972L534,972L534,973L533,973L533,975L532,975L532,977L531,977L531,978L530,978L530,980L529,980L529,982L528,982L528,983L527,983L527,985L526,985L526,987L525,987L525,988L524,988L524,990L523,990L523,992L522,992L522,994L521,994L521,995L520,995L520,997L519,997L519,999L518,999L518,1001L517,1001L517,1002L516,1002L516,1004L515,1004L515,1006L514,1006L514,1008L513,1008L513,1009L512,1009L512,1011L511,1011L511,1013L510,1013L510,1015L509,1015L509,1017L508,1017L508,1018L507,1018L507,1020L506,1020L506,1022L505,1022L505,1024L504,1024L504,1026L503,1026L503,1027L502,1027L502,1029L501,1029L501,1031L500,1031L500,1033L499,1033L499,1034L498,1034L498,1036L497,1036L497,1038L496,1038L496,1040L495,1040L495,1042L494,1042L494,1044L493,1044L493,1046L492,1046L492,1047L491,1047L491,1049L490,1049L490,1051L489,1051L489,1053L488,1053L488,1055L487,1055L487,1057L486,1057L486,1059L485,1059L485,1061L484,1061L484,1063L483,1063L483,1065L482,1065L482,1066L481,1066L481,1068L480,1068L480,1070L479,1070L479,1072L478,1072L478,1074L477,1074L477,1076L476,1076L476,1078L475,1078L475,1080L474,1080L474,1082L473,1082L473,1084L472,1084L472,1086L471,1086L471,1088L470,1088L470,1090L469,1090L469,1092L468,1092L468,1094L467,1094L467,1096L466,1096L466,1098L465,1098L465,1100L464,1100L464,1102L463,1102L463,1104L462,1104L462,1106L461,1106L461,1108L460,1108L460,1110L459,1110L459,1112L458,1112L458,1114L457,1114L457,1116L456,1116L456,1118L455,1118L455,1120L454,1120L454,1122L453,1122L453,1124L452,1124L452,1126L451,1126L451,1128L450,1128L450,1130L449,1130L449,1132L448,1132L448,1135L447,1135L447,1137L446,1137L446,1139L445,1139L445,1141L444,1141L444,1143L443,1143L443,1145L442,1145L442,1147L441,1147L441,1149L440,1149L440,1152L439,1152L439,1154L438,1154L438,1156L437,1156L437,1158L436,1158L436,1160L435,1160L435,1162L434,1162L434,1164L433,1164L433,1167L432,1167L432,1169L431,1169L431,1171L430,1171L430,1173L429,1173L429,1176L428,1176L428,1178L427,1178L427,1180L426,1180L426,1183L425,1183L425,1185L424,1185L424,1187L423,1187L423,1189L422,1189L422,1192L421,1192L421,1194L420,1194L420,1196L419,1196L419,1199L418,1199L418,1201L417,1201L417,1203L416,1203L416,1205L415,1205L415,1208L414,1208L414,1210L413,1210L413,1212L412,1212L412,1215L411,1215L411,1217L410,1217L410,1220L409,1220L409,1222L408,1222L408,1224L407,1224L407,1227L406,1227L406,1229L405,1229L405,1232L404,1232L404,1234L403,1234L403,1237L402,1237L402,1239L401,1239L401,1242L400,1242L400,1244L399,1244L399,1246L398,1246L398,1249L397,1249L397,1251L396,1251L396,1254L395,1254L395,1256L394,1256L394,1259L393,1259L393,1261L392,1261L392,1264L391,1264L391,1267L390,1267L390,1269L389,1269L389,1272L388,1272L388,1275L387,1275L387,1277L386,1277L386,1280L385,1280L385,1282L384,1282L384,1285L383,1285L383,1288L382,1288L382,1290L381,1290L381,1293L380,1293L380,1296L379,1296L379,1298L378,1298L378,1301L377,1301L377,1304L376,1304L376,1306L375,1306L375,1309L374,1309L374,1312L373,1312L373,1315L372,1315L372,1318L371,1318L371,1321L370,1321L370,1323L369,1323L369,1326L368,1326L368,1329L367,1329L367,1332L366,1332L366,1335L365,1335L365,1338L364,1338L364,1340L363,1340L363,1343L362,1343L362,1346L361,1346L361,1349L360,1349L360,1352L359,1352L359,1355L358,1355L358,1358L357,1358L357,1361L356,1361L356,1364L355,1364L355,1367L354,1367L354,1370L353,1370L353,1374L352,1374L352,1377L351,1377L351,1380L350,1380L350,1383L349,1383L349,1386L348,1386L348,1389L347,1389L347,1392L346,1392L346,1395L345,1395L345,1398L344,1398L344,1402L343,1402L343,1405L342,1405L342,1409L341,1409L341,1412L340,1412L340,1415L339,1415L339,1419L338,1419L338,1422L337,1422L337,1425L336,1425L336,1429L335,1429L335,1432L334,1432L334,1435L333,1435L333,1439L332,1439L332,1442L331,1442L331,1446L330,1446L330,1450L329,1450L329,1453L328,1453L328,1457L327,1457L327,1461L326,1461L326,1464L325,1464L325,1468L324,1468L324,1472L323,1472L323,1475L322,1475L322,1479L321,1479L321,1483L320,1483L320,1487L319,1487L319,1490L318,1490L318,1494L317,1494L317,1498L316,1498L316,1503L315,1503L315,1507L314,1507L314,1511L313,1511L313,1515L312,1515L312,1519L311,1519L311,1523L310,1523L310,1527L309,1527L309,1531L308,1531L308,1535L307,1535L307,1540L306,1540L306,1544L305,1544L305,1549L304,1549L304,1553L303,1553L303,1558L302,1558L302,1563L301,1563L301,1567L300,1567L300,1572L299,1572L299,1576L298,1576L298,1581L297,1581L297,1586L296,1586L296,1591L295,1591L295,1596L294,1596L294,1601L293,1601L293,1606L292,1606L292,1612L291,1612L291,1617L290,1617L290,1622L289,1622L289,1627L288,1627L288,1633L287,1633L287,1638L286,1638L286,1644L285,1644L285,1650L284,1650L284,1656L283,1656L283,1662L282,1662L282,1669L281,1669L281,1675L280,1675L280,1681L279,1681L279,1687L278,1687L278,1694L277,1694L277,1701L276,1701L276,1709L275,1709L275,1716L274,1716L274,1723L273,1723L273,1730L272,1730L272,1738L271,1738L271,1747L270,1747L270,1756L269,1756L269,1764L268,1764L268,1773L267,1773L267,1782L266,1782L266,1793L265,1793L265,1804L264,1804L264,1815L263,1815L263,1827L262,1827L262,1840L261,1840L261,1855L260,1855L260,1871L259,1871L259,1889L258,1889L258,1915L257,1915L257,1951L256,1951L256,2023L257,2023L257,2058L258,2058L258,2084L259,2084L259,2102L260,2102L260,2118L261,2118L261,2134L262,2134L262,2147L263,2147L263,2158L264,2158L264,2169L265,2169L265,2180L266,2180L266,2191L267,2191L267,2200L268,2200L268,2209L269,2209L269,2218L270,2218L270,2226L271,2226L271,2235L272,2235L272,2243L273,2243L273,2250L274,2250L274,2257L275,2257L275,2265L276,2265L276,2272L277,2272L277,2279L278,2279L278,2286L279,2286L279,2293L280,2293L280,2299L281,2299L281,2305L282,2305L282,2311L283,2311L283,2317L284,2317L284,2323L285,2323L285,2329L286,2329L286,2335L287,2335L287,2341L288,2341L288,2346L289,2346L289,2351L290,2351L290,2356L291,2356L291,2362L292,2362L292,2367L293,2367L293,2372L294,2372L294,2377L295,2377L295,2382L296,2382L296,2388L297,2388L297,2392L298,2392L298,2397L299,2397L299,2401L300,2401L300,2406L301,2406L301,2411L302,2411L302,2415L303,2415L303,2420L304,2420L304,2424L305,2424L305,2429L306,2429L306,2434L307,2434L307,2438L308,2438L308,2442L309,2442L309,2446L310,2446L310,2450L311,2450L311,2454L312,2454L312,2458L313,2458L313,2462L314,2462L314,2467L315,2467L315,2471L316,2471L316,2475L317,2475L317,2479L318,2479L318,2483L319,2483L319,2487L320,2487L320,2490L321,2490L321,2494L322,2494L322,2498L323,2498L323,2501L324,2501L324,2505L325,2505L325,2509L326,2509L326,2513L327,2513L327,2516L328,2516L328,2520L329,2520L329,2524L330,2524L330,2527L331,2527L331,2531L332,2531L332,2534L333,2534L333,2538L334,2538L334,2541L335,2541L335,2544L336,2544L336,2548L337,2548L337,2551L338,2551L338,2555L339,2555L339,2558L340,2558L340,2561L341,2561L341,2565L342,2565L342,2568L343,2568L343,2571L344,2571L344,2575L345,2575L345,2578L346,2578L346,2581L347,2581L347,2584L348,2584L348,2587L349,2587L349,2590L350,2590L350,2593L351,2593L351,2597L352,2597L352,2600L353,2600L353,2603L354,2603L354,2606L355,2606L355,2609L356,2609L356,2612L357,2612L357,2615L358,2615L358,2618L359,2618L359,2621L360,2621L360,2624L361,2624L361,2627L362,2627L362,2630L363,2630L363,2633L364,2633L364,2636L365,2636L365,2638L366,2638L366,2641L367,2641L367,2644L368,2644L368,2647L369,2647L369,2650L370,2650L370,2653L371,2653L371,2656L372,2656L372,2658L373,2658L373,2661L374,2661L374,2664L375,2664L375,2667L376,2667L376,2670L377,2670L377,2672L378,2672L378,2675L379,2675L379,2678L380,2678L380,2680L381,2680L381,2683L382,2683L382,2686L383,2686L383,2688L384,2688L384,2691L385,2691L385,2693L386,2693L386,2696L387,2696L387,2699L388,2699L388,2701L389,2701L389,2704L390,2704L390,2707L391,2707L391,2709L392,2709L392,2712L393,2712L393,2714L394,2714L394,2717L395,2717L395,2719L396,2719L396,2722L397,2722L397,2724L398,2724L398,2727L399,2727L399,2729L400,2729L400,2732L401,2732L401,2734L402,2734L402,2737L403,2737L403,2739L404,2739L404,2741L405,2741L405,2744L406,2744L406,2746L407,2746L407,2749L408,2749L408,2751L409,2751L409,2754L410,2754L410,2756L411,2756L411,2759L412,2759L412,2761L413,2761L413,2763L414,2763L414,2766L415,2766L415,2768L416,2768L416,2770L417,2770L417,2772L418,2772L418,2775L419,2775L419,2777L420,2777L420,2779L421,2779L421,2782L422,2782L422,2784L423,2784L423,2786L424,2786L424,2788L425,2788L425,2791L426,2791L426,2793L427,2793L427,2795L428,2795L428,2798L429,2798L429,2800L430,2800L430,2802L431,2802L431,2804L432,2804L432,2807L433,2807L433,2809L434,2809L434,2811L435,2811L435,2813L436,2813L436,2815L437,2815L437,2817L438,2817L438,2819L439,2819L439,2822L440,2822L440,2824L441,2824L441,2826L442,2826L442,2828L443,2828L443,2830L444,2830L444,2832L445,2832L445,2834L446,2834L446,2837L447,2837L447,2839L448,2839L448,2841L449,2841L449,2843L450,2843L450,2845L451,2845L451,2847L452,2847L452,2849L453,2849L453,2851L454,2851L454,2853L455,2853L455,2855L456,2855L456,2857L457,2857L457,2859L458,2859L458,2861L459,2861L459,2863L460,2863L460,2865L461,2865L461,2867L462,2867L462,2869L463,2869L463,2871L464,2871L464,2874L465,2874L465,2876L466,2876L466,2878L467,2878L467,2880L468,2880L468,2882L469,2882L469,2884L470,2884L470,2886L471,2886L471,2888L472,2888L472,2890L473,2890L473,2892L474,2892L474,2894L475,2894L475,2895L476,2895L476,2897L477,2897L477,2899L478,2899L478,2901L479,2901L479,2903L480,2903L480,2905L481,2905L481,2907L482,2907L482,2909L483,2909L483,2911L484,2911L484,2912L485,2912L485,2914L486,2914L486,2916L487,2916L487,2918L488,2918L488,2920L489,2920L489,2922L490,2922L490,2924L491,2924L491,2926L492,2926L492,2928L493,2928L493,2930L494,2930L494,2931L495,2931L495,2933L496,2933L496,2935L497,2935L497,2937L498,2937L498,2939L499,2939L499,2941L500,2941L500,2942L501,2942L501,2944L502,2944L502,2946L503,2946L503,2948L504,2948L504,2949L505,2949L505,2951L506,2951L506,2953L507,2953L507,2955L508,2955L508,2957L509,2957L509,2958L510,2958L510,2960L511,2960L511,2962L512,2962L512,2964L513,2964L513,2966L514,2966L514,2967L515,2967L515,2969L516,2969L516,2971L517,2971L517,2973L518,2973L518,2974L519,2974L519,2976L520,2976L520,2978L521,2978L521,2980L522,2980L522,2981L523,2981L523,2983L524,2983L524,2985L525,2985L525,2986L526,2986L526,2988L527,2988L527,2990L528,2990L528,2991L529,2991L529,2993L530,2993L530,2995L531,2995L531,2997L532,2997L532,2998L533,2998L533,3000L534,3000L534,3002L535,3002L535,3003L536,3003L536,3005L537,3005L537,3007L538,3007L538,3008L539,3008L539,3010L540,3010L540,3012L541,3012L541,3013L542,3013L542,3015L543,3015L543,3017L544,3017L544,3018L545,3018L545,3020L546,3020L546,3022L547,3022L547,3023L548,3023L548,3025L549,3025L549,3026L550,3026L550,3028L551,3028L551,3030L552,3030L552,3031L553,3031L553,3033L554,3033L554,3034L555,3034L555,3036L556,3036L556,3038L557,3038L557,3039L558,3039L558,3041L559,3041L559,3043L560,3043L560,3044L561,3044L561,3046L562,3046L562,3047L563,3047L563,3049L564,3049L564,3051L565,3051L565,3052L566,3052L566,3054L567,3054L567,3055L568,3055L568,3057L569,3057L569,3058L570,3058L570,3060L571,3060L571,3062L572,3062L572,3063L573,3063L573,3065L574,3065L574,3066L575,3066L575,3068L576,3068L576,3069L577,3069L577,3071L578,3071L578,3072L579,3072L579,3074L580,3074L580,3075L581,3075L581,3077L582,3077L582,3078L583,3078L583,3080L584,3080L584,3081L585,3081L585,3083L586,3083L586,3084L587,3084L587,3086L588,3086L588,3087L589,3087L589,3089L590,3089L590,3090L591,3090L591,3092L592,3092L592,3093L593,3093L593,3095L594,3095L594,3096L595,3096L595,3098L596,3098L596,3099L597,3099L597,3101L598,3101L598,3102L599,3102L599,3104L600,3104L600,3105L601,3105L601,3107L602,3107L602,3108L603,3108L603,3110L604,3110L604,3111L605,3111L605,3112L606,3112L606,3114L607,3114L607,3115L608,3115L608,3117L609,3117L609,3118L610,3118L610,3120L611,3120L611,3121L612,3121L612,3123L613,3123L613,3124L614,3124L614,3125L615,3125L615,3127L616,3127L616,3128L617,3128L617,3130L618,3130L618,3131L619,3131L619,3133L620,3133L620,3134L621,3134L621,3135L622,3135L622,3137L623,3137L623,3138L624,3138L624,3140L625,3140L625,3141L626,3141L626,3142L627,3142L627,3144L628,3144L628,3145L629,3145L629,3147L630,3147L630,3148L631,3148L631,3149L632,3149L632,3151L633,3151L633,3152L634,3152L634,3153L635,3153L635,3155L636,3155L636,3156L637,3156L637,3158L638,3158L638,3159L639,3159L639,3160L640,3160L640,3162L641,3162L641,3163L642,3163L642,3164L643,3164L643,3166L644,3166L644,3167L645,3167L645,3168L646,3168L646,3170L647,3170L647,3171L648,3171L648,3173L649,3173L649,3174L650,3174L650,3175L651,3175L651,3177L652,3177L652,3178L653,3178L653,3179L654,3179L654,3181L655,3181L655,3182L656,3182L656,3183L657,3183L657,3184L658,3184L658,3186L659,3186L659,3187L660,3187L660,3188L661,3188L661,3190L662,3190L662,3191L663,3191L663,3192L664,3192L664,3194L665,3194L665,3195L666,3195L666,3196L667,3196L667,3198L668,3198L668,3199L669,3199L669,3200L670,3200L670,3201L671,3201L671,3203L672,3203L672,3204L673,3204L673,3205L674,3205L674,3207L675,3207L675,3208L676,3208L676,3209L677,3209L677,3211L678,3211L678,3212L679,3212L679,3213L680,3213L680,3214L681,3214L681,3216L682,3216L682,3217L683,3217L683,3218L684,3218L684,3219L685,3219L685,3221L686,3221L686,3222L687,3222L687,3223L688,3223L688,3224L689,3224L689,3226L690,3226L690,3227L691,3227L691,3228L692,3228L692,3229L693,3229L693,3231L694,3231L694,3232L695,3232L695,3233L696,3233L696,3234L697,3234L697,3236L698,3236L698,3237L699,3237L699,3238L700,3238L700,3239L701,3239L701,3241L702,3241L702,3242L703,3242L703,3243L704,3243L704,3244L705,3244L705,3245L706,3245L706,3247L707,3247L707,3248L708,3248L708,3249L709,3249L709,3250L710,3250L710,3252L711,3252L711,3253L712,3253L712,3254L713,3254L713,3255L714,3255L714,3256L715,3256L715,3258L716,3258L716,3259L717,3259L717,3260L718,3260L718,3261L719,3261L719,3262L720,3262L720,3263L721,3263L721,3265L722,3265L722,3266L723,3266L723,3267L724,3267L724,3268L725,3268L725,3269L726,3269L726,3271L727,3271L727,3272L728,3272L728,3273L729,3273L729,3274L730,3274L730,3275L731,3275L731,3276L732,3276L732,3278L733,3278L733,3279L734,3279L734,3280L735,3280L735,3281L736,3281L736,3282L737,3282L737,3284L738,3284L738,3285L739,3285L739,3286L740,3286L740,3287L741,3287L741,3288L742,3288L742,3289L743,3289L743,3291L744,3291L744,3292L745,3292L745,3293L746,3293L746,3294L747,3294L747,3295L748,3295L748,3296L749,3296L749,3297L750,3297L750,3298L751,3298L751,3300L752,3300L752,3301L753,3301L753,3302L754,3302L754,3303L755,3303L755,3304L756,3304L756,3305L757,3305L757,3306L758,3306L758,3307L759,3307L759,3309L760,3309L760,3310L761,3310L761,3311L762,3311L762,3312L763,3312L763,3313L764,3313L764,3314L765,3314L765,3315L766,3315L766,3316L767,3316L767,3318L768,3318L768,3319L769,3319L769,3320L770,3320L770,3321L771,3321L771,3322L772,3322L772,3323L773,3323L773,3324L774,3324L774,3325L775,3325L775,3326L776,3326L776,3327L777,3327L777,3329L778,3329L778,3330L779,3330L779,3331L780,3331L780,3332L781,3332L781,3333L782,3333L782,3334L783,3334L783,3335L784,3335L784,3336L785,3336L785,3337L786,3337L786,3338L787,3338L787,3339L788,3339L788,3340L789,3340L789,3341L790,3341L790,3343L791,3343L791,3344L792,3344L792,3345L793,3345L793,3346L794,3346L794,3347L795,3347L795,3348L796,3348L796,3349L797,3349L797,3350L798,3350L798,3351L799,3351L799,3352L800,3352L800,3353L801,3353L801,3354L802,3354L802,3355L803,3355L803,3356L804,3356L804,3358L805,3358L805,3359L806,3359L806,3360L807,3360L807,3361L808,3361L808,3362L809,3362L809,3363L810,3363L810,3364L811,3364L811,3365L812,3365L812,3366L813,3366L813,3367L814,3367L814,3368L815,3368L815,3369L816,3369L816,3370L817,3370L817,3371L818,3371L818,3372L819,3372L819,3373L820,3373L820,3374L821,3374L821,3375L822,3375L822,3376L823,3376L823,3377L824,3377L824,3378L825,3378L825,3379L826,3379L826,3380L827,3380L827,3381L828,3381L828,3382L829,3382L829,3383L830,3383L830,3384L831,3384L831,3385L832,3385L832,3386L833,3386L833,3387L834,3387L834,3388L835,3388L835,3389L836,3389L836,3390L837,3390L837,3391L838,3391L838,3392L839,3392L839,3393L840,3393L840,3394L841,3394L841,3395L842,3395L842,3396L843,3396L843,3397L844,3397L844,3398L845,3398L845,3399L846,3399L846,3400L847,3400L847,3401L848,3401L848,3402L849,3402L849,3403L850,3403L850,3404L851,3404L851,3405L852,3405L852,3406L853,3406L853,3407L854,3407L854,3408L855,3408L855,3409L856,3409L856,3410L857,3410L857,3411L858,3411L858,3412L859,3412L859,3413L860,3413L860,3414L861,3414L861,3415L862,3415L862,3416L863,3416L863,3417L864,3417L864,3418L865,3418L865,3419L866,3419L866,3420L867,3420L867,3421L868,3421L868,3422L869,3422L869,3423L870,3423L870,3424L871,3424L871,3425L872,3425L872,3426L874,3426L874,3427L875,3427L875,3428L876,3428L876,3429L877,3429L877,3430L878,3430L878,3431L879,3431L879,3432L880,3432L880,3433L881,3433L881,3434L882,3434L882,3435L883,3435L883,3436L884,3436L884,3437L885,3437L885,3438L886,3438L886,3439L887,3439L887,3440L889,3440L889,3441L890,3441L890,3442L891,3442L891,3443L892,3443L892,3444L893,3444L893,3445L894,3445L894,3446L895,3446L895,3447L896,3447L896,3448L897,3448L897,3449L898,3449L898,3450L899,3450L899,3451L900,3451L900,3452L901,3452L901,3453L903,3453L903,3454L904,3454L904,3455L905,3455L905,3456L906,3456L906,3457L907,3457L907,3458L908,3458L908,3459L909,3459L909,3460L910,3460L910,3461L911,3461L911,3462L912,3462L912,3463L914,3463L914,3464L915,3464L915,3465L916,3465L916,3466L917,3466L917,3467L918,3467L918,3468L919,3468L919,3469L920,3469L920,3470L921,3470L921,3471L923,3471L923,3472L924,3472L924,3473L925,3473L925,3474L926,3474L926,3475L927,3475L927,3476L928,3476L928,3477L929,3477L929,3478L930,3478L930,3479L932,3479L932,3480L933,3480L933,3481L934,3481L934,3482L935,3482L935,3483L936,3483L936,3484L937,3484L937,3485L938,3485L938,3486L940,3486L940,3487L941,3487L941,3488L942,3488L942,3489L943,3489L943,3490L944,3490L944,3491L945,3491L945,3492L946,3492L946,3493L948,3493L948,3494L949,3494L949,3495L950,3495L950,3496L951,3496L951,3497L952,3497L952,3498L954,3498L954,3499L955,3499L955,3500L956,3500L956,3501L957,3501L957,3502L958,3502L958,3503L959,3503L959,3504L961,3504L961,3505L962,3505L962,3506L963,3506L963,3507L964,3507L964,3508L965,3508L965,3509L967,3509L967,3510L968,3510L968,3511L969,3511L969,3512L970,3512L970,3513L971,3513L971,3514L972,3514L972,3515L974,3515L974,3516L975,3516L975,3517L976,3517L976,3518L977,3518L977,3519L978,3519L978,3520L980,3520L980,3521L981,3521L981,3522L982,3522L982,3523L983,3523L983,3524L985,3524L985,3525L986,3525L986,3526L987,3526L987,3527L988,3527L988,3528L990,3528L990,3529L991,3529L991,3530L992,3530L992,3531L993,3531L993,3532L994,3532L994,3533L996,3533L996,3534L997,3534L997,3535L998,3535L998,3536L999,3536L999,3537L1001,3537L1001,3538L1002,3538L1002,3539L1003,3539L1003,3540L1004,3540L1004,3541L1006,3541L1006,3542L1007,3542L1007,3543L1008,3543L1008,3544L1009,3544L1009,3545L1011,3545L1011,3546L1012,3546L1012,3547L1013,3547L1013,3548L1014,3548L1014,3549L1016,3549L1016,3550L1017,3550L1017,3551L1018,3551L1018,3552L1019,3552L1019,3553L1021,3553L1021,3554L1022,3554L1022,3555L1023,3555L1023,3556L1025,3556L1025,3557L1026,3557L1026,3558L1027,3558L1027,3559L1029,3559L1029,3560L1030,3560L1030,3561L1031,3561L1031,3562L1033,3562L1033,3563L1034,3563L1034,3564L1035,3564L1035,3565L1036,3565L1036,3566L1038,3566L1038,3567L1039,3567L1039,3568L1040,3568L1040,3569L1042,3569L1042,3570L1043,3570L1043,3571L1044,3571L1044,3572L1046,3572L1046,3573L1047,3573L1047,3574L1048,3574L1048,3575L1049,3575L1049,3576L1051,3576L1051,3577L1052,3577L1052,3578L1053,3578L1053,3579L1055,3579L1055,3580L1056,3580L1056,3581L1057,3581L1057,3582L1059,3582L1059,3583L1060,3583L1060,3584L1062,3584L1062,3585L1063,3585L1063,3586L1064,3586L1064,3587L1066,3587L1066,3588L1067,3588L1067,3589L1068,3589L1068,3590L1070,3590L1070,3591L1071,3591L1071,3592L1073,3592L1073,3593L1074,3593L1074,3594L1075,3594L1075,3595L1077,3595L1077,3596L1078,3596L1078,3597L1079,3597L1079,3598L1081,3598L1081,3599L1082,3599L1082,3600L1084,3600L1084,3601L1085,3601L1085,3602L1086,3602L1086,3603L1088,3603L1088,3604L1089,3604L1089,3605L1090,3605L1090,3606L1092,3606L1092,3607L1093,3607L1093,3608L1095,3608L1095,3609L1096,3609L1096,3610L1097,3610L1097,3611L1099,3611L1099,3612L1100,3612L1100,3613L1102,3613L1102,3614L1103,3614L1103,3615L1105,3615L1105,3616L1106,3616L1106,3617L1108,3617L1108,3618L1109,3618L1109,3619L1110,3619L1110,3620L1112,3620L1112,3621L1113,3621L1113,3622L1115,3622L1115,3623L1116,3623L1116,3624L1118,3624L1118,3625L1119,3625L1119,3626L1121,3626L1121,3627L1122,3627L1122,3628L1123,3628L1123,3629L1125,3629L1125,3630L1126,3630L1126,3631L1128,3631L1128,3632L1129,3632L1129,3633L1131,3633L1131,3634L1132,3634L1132,3635L1134,3635L1134,3636L1135,3636L1135,3637L1137,3637L1137,3638L1138,3638L1138,3639L1140,3639L1140,3640L1141,3640L1141,3641L1143,3641L1143,3642L1144,3642L1144,3643L1146,3643L1146,3644L1147,3644L1147,3645L1149,3645L1149,3646L1150,3646L1150,3647L1152,3647L1152,3648L1153,3648L1153,3649L1155,3649L1155,3650L1156,3650L1156,3651L1158,3651L1158,3652L1159,3652L1159,3653L1161,3653L1161,3654L1162,3654L1162,3655L1164,3655L1164,3656L1166,3656L1166,3657L1167,3657L1167,3658L1169,3658L1169,3659L1170,3659L1170,3660L1172,3660L1172,3661L1173,3661L1173,3662L1175,3662L1175,3663L1176,3663L1176,3664L1178,3664L1178,3665L1180,3665L1180,3666L1181,3666L1181,3667L1183,3667L1183,3668L1184,3668L1184,3669L1186,3669L1186,3670L1188,3670L1188,3671L1189,3671L1189,3672L1191,3672L1191,3673L1192,3673L1192,3674L1194,3674L1194,3675L1196,3675L1196,3676L1197,3676L1197,3677L1199,3677L1199,3678L1200,3678L1200,3679L1202,3679L1202,3680L1204,3680L1204,3681L1205,3681L1205,3682L1207,3682L1207,3683L1208,3683L1208,3684L1210,3684L1210,3685L1212,3685L1212,3686L1213,3686L1213,3687L1215,3687L1215,3688L1217,3688L1217,3689L1218,3689L1218,3690L1220,3690L1220,3691L1222,3691L1222,3692L1223,3692L1223,3693L1225,3693L1225,3694L1227,3694L1227,3695L1228,3695L1228,3696L1230,3696L1230,3697L1232,3697L1232,3698L1234,3698L1234,3699L1235,3699L1235,3700L1237,3700L1237,3701L1239,3701L1239,3702L1240,3702L1240,3703L1242,3703L1242,3704L1244,3704L1244,3705L1245,3705L1245,3706L1247,3706L1247,3707L1249,3707L1249,3708L1250,3708L1250,3709L1252,3709L1252,3710L1254,3710L1254,3711L1256,3711L1256,3712L1257,3712L1257,3713L1259,3713L1259,3714L1261,3714L1261,3715L1263,3715L1263,3716L1265,3716L1265,3717L1266,3717L1266,3718L1268,3718L1268,3719L1270,3719L1270,3720L1272,3720L1272,3721L1274,3721L1274,3722L1275,3722L1275,3723L1277,3723L1277,3724L1279,3724L1279,3725L1281,3725L1281,3726L1282,3726L1282,3727L1284,3727L1284,3728L1286,3728L1286,3729L1288,3729L1288,3730L1290,3730L1290,3731L1291,3731L1291,3732L1293,3732L1293,3733L1295,3733L1295,3734L1297,3734L1297,3735L1299,3735L1299,3736L1301,3736L1301,3737L1303,3737L1303,3738L1304,3738L1304,3739L1306,3739L1306,3740L1308,3740L1308,3741L1310,3741L1310,3742L1312,3742L1312,3743L1314,3743L1314,3744L1316,3744L1316,3745L1318,3745L1318,3746L1320,3746L1320,3747L1321,3747L1321,3748L1323,3748L1323,3749L1325,3749L1325,3750L1327,3750L1327,3751L1329,3751L1329,3752L1331,3752L1331,3753L1333,3753L1333,3754L1335,3754L1335,3755L1337,3755L1337,3756L1339,3756L1339,3757L1341,3757L1341,3758L1343,3758L1343,3759L1345,3759L1345,3760L1347,3760L1347,3761L1349,3761L1349,3762L1351,3762L1351,3763L1353,3763L1353,3764L1355,3764L1355,3765L1357,3765L1357,3766L1359,3766L1359,3767L1361,3767L1361,3768L1363,3768L1363,3769L1365,3769L1365,3770L1367,3770L1367,3771L1369,3771L1369,3772L1371,3772L1371,3773L1373,3773L1373,3774L1375,3774L1375,3775L1377,3775L1377,3776L1379,3776L1379,3777L1381,3777L1381,3778L1383,3778L1383,3779L1385,3779L1385,3780L1387,3780L1387,3781L1389,3781L1389,3782L1391,3782L1391,3783L1394,3783L1394,3784L1396,3784L1396,3785L1398,3785L1398,3786L1400,3786L1400,3787L1402,3787L1402,3788L1404,3788L1404,3789L1406,3789L1406,3790L1409,3790L1409,3791L1411,3791L1411,3792L1413,3792L1413,3793L1415,3793L1415,3794L1417,3794L1417,3795L1419,3795L1419,3796L1421,3796L1421,3797L1424,3797L1424,3798L1426,3798L1426,3799L1428,3799L1428,3800L1430,3800L1430,3801L1433,3801L1433,3802L1435,3802L1435,3803L1437,3803L1437,3804L1439,3804L1439,3805L1442,3805L1442,3806L1444,3806L1444,3807L1446,3807L1446,3808L1449,3808L1449,3809L1451,3809L1451,3810L1453,3810L1453,3811L1455,3811L1455,3812L1458,3812L1458,3813L1460,3813L1460,3814L1462,3814L1462,3815L1465,3815L1465,3816L1467,3816L1467,3817L1469,3817L1469,3818L1472,3818L1472,3819L1474,3819L1474,3820L1477,3820L1477,3821L1479,3821L1479,3822L1481,3822L1481,3823L1484,3823L1484,3824L1486,3824L1486,3825L1489,3825L1489,3826L1491,3826L1491,3827L1494,3827L1494,3828L1496,3828L1496,3829L1499,3829L1499,3830L1501,3830L1501,3831L1503,3831L1503,3832L1506,3832L1506,3833L1508,3833L1508,3834L1511,3834L1511,3835L1513,3835L1513,3836L1516,3836L1516,3837L1518,3837L1518,3838L1521,3838L1521,3839L1524,3839L1524,3840L1526,3840L1526,3841L1529,3841L1529,3842L1532,3842L1532,3843L1534,3843L1534,3844L1537,3844L1537,3845L1539,3845L1539,3846L1542,3846L1542,3847L1545,3847L1545,3848L1547,3848L1547,3849L1550,3849L1550,3850L1553,3850L1553,3851L1555,3851L1555,3852L1558,3852L1558,3853L1561,3853L1561,3854L1563,3854L1563,3855L1566,3855L1566,3856L1569,3856L1569,3857L1572,3857L1572,3858L1575,3858L1575,3859L1578,3859L1578,3860L1580,3860L1580,3861L1583,3861L1583,3862L1586,3862L1586,3863L1589,3863L1589,3864L1592,3864L1592,3865L1595,3865L1595,3866L1597,3866L1597,3867L1600,3867L1600,3868L1603,3868L1603,3869L1606,3869L1606,3870L1609,3870L1609,3871L1612,3871L1612,3872L1615,3872L1615,3873L1618,3873L1618,3874L1621,3874L1621,3875L1625,3875L1625,3876L1628,3876L1628,3877L1631,3877L1631,3878L1634,3878L1634,3879L1637,3879L1637,3880L1640,3880L1640,3881L1643,3881L1643,3882L1646,3882L1646,3883L1649,3883L1649,3884L1652,3884L1652,3885L1656,3885L1656,3886L1659,3886L1659,3887L1662,3887L1662,3888L1666,3888L1666,3889L1669,3889L1669,3890L1672,3890L1672,3891L1676,3891L1676,3892L1679,3892L1679,3893L1683,3893L1683,3894L1686,3894L1686,3895L1689,3895L1689,3896L1693,3896L1693,3897L1696,3897L1696,3898L1699,3898L1699,3899L1703,3899L1703,3900L1707,3900L1707,3901L1710,3901L1710,3902L1714,3902L1714,3903L1718,3903L1718,3904L1722,3904L1722,3905L1725,3905L1725,3906L1729,3906L1729,3907L1733,3907L1733,3908L1736,3908L1736,3909L1740,3909L1740,3910L1744,3910L1744,3911L1748,3911L1748,3912L1752,3912L1752,3913L1756,3913L1756,3914L1760,3914L1760,3915L1764,3915L1764,3916L1768,3916L1768,3917L1772,3917L1772,3918L1776,3918L1776,3919L1780,3919L1780,3920L1784,3920L1784,3921L1789,3921L1789,3922L1793,3922L1793,3923L1797,3923L1797,3924L1802,3924L1802,3925L1806,3925L1806,3926L1811,3926L1811,3927L1815,3927L1815,3928L1820,3928L1820,3929L1825,3929L1825,3930L1829,3930L1829,3931L1834,3931L1834,3932L1838,3932L1838,3933L1843,3933L1843,3934L1848,3934L1848,3935L1854,3935L1854,3936L1859,3936L1859,3937L1864,3937L1864,3938L1869,3938L1869,3939L1874,3939L1874,3940L1880,3940L1880,3941L1885,3941L1885,3942L1890,3942L1890,3943L1896,3943L1896,3944L1902,3944L1902,3945L1908,3945L1908,3946L1914,3946L1914,3947L1920,3947L1920,3948L1926,3948L1926,3949L1932,3949L1932,3950L1938,3950L1938,3951L1945,3951L1945,3952L1952,3952L1952,3953L1959,3953L1959,3954L1966,3954L1966,3955L1974,3955L1974,3956L1981,3956L1981,3957L1988,3957L1988,3958L1996,3958L1996,3959L2005,3959L2005,3960L2014,3960L2014,3961L2022,3961L2022,3962L2031,3962L2031,3963L2040,3963L2040,3964L2051,3964L2051,3965L2063,3965L2063,3966L2074,3966L2074,3967L2085,3967L2085,3968L2099,3968L2099,3969L2115,3969L2115,3970L2130,3970L2130,3971L2150,3971L2150,3972L2176,3972L2176,3973L2217,3973L2217,3974L2270,3974L2270,3973L2310,3973L2310,3972L2336,3972L2336,3971L2356,3971L2356,3970L2372,3970L2372,3969L2388,3969L2388,3968L2401,3968L2401,3967L2413,3967L2413,3966L2424,3966L2424,3965L2435,3965L2435,3964L2446,3964L2446,3963L2455,3963L2455,3962L2464,3962L2464,3961L2473,3961L2473,3960L2482,3960L2482,3959L2490,3959L2490,3958L2499,3958L2499,3957L2506,3957L2506,3956L2513,3956L2513,3955L2520,3955L2520,3954L2527,3954L2527,3953L2534,3953L2534,3952L2541,3952L2541,3951L2548,3951L2548,3950L2554,3950L2554,3949L2560,3949L2560,3948L2566,3948L2566,3947L2572,3947L2572,3946L2578,3946L2578,3945L2584,3945L2584,3944L2591,3944L2591,3943L2596,3943L2596,3942L2602,3942L2602,3941L2607,3941L2607,3940L2612,3940L2612,3939L2617,3939L2617,3938L2622,3938L2622,3937L2628,3937L2628,3936L2633,3936L2633,3935L2638,3935L2638,3934L2643,3934L2643,3933L2648,3933L2648,3932L2653,3932L2653,3931L2657,3931L2657,3930L2662,3930L2662,3929L2666,3929L2666,3928L2671,3928L2671,3927L2676,3927L2676,3926L2680,3926L2680,3925L2685,3925L2685,3924L2689,3924L2689,3923L2694,3923L2694,3922L2698,3922L2698,3921L2702,3921L2702,3920L2706,3920L2706,3919L2710,3919L2710,3918L2714,3918L2714,3917L2718,3917L2718,3916L2722,3916L2722,3915L2727,3915L2727,3914L2731,3914L2731,3913L2735,3913L2735,3912L2739,3912L2739,3911L2743,3911L2743,3910L2746,3910L2746,3909L2750,3909L2750,3908L2754,3908L2754,3907L2757,3907L2757,3906L2761,3906L2761,3905L2765,3905L2765,3904L2769,3904L2769,3903L2772,3903L2772,3902L2776,3902L2776,3901L2780,3901L2780,3900L2783,3900L2783,3899L2787,3899L2787,3898L2790,3898L2790,3897L2794,3897L2794,3896L2797,3896L2797,3895L2801,3895L2801,3894L2804,3894L2804,3893L2807,3893L2807,3892L2811,3892L2811,3891L2814,3891L2814,3890L2817,3890L2817,3889L2821,3889L2821,3888L2824,3888L2824,3887L2827,3887L2827,3886L2831,3886L2831,3885L2834,3885L2834,3884L2837,3884L2837,3883L2840,3883L2840,3882L2843,3882L2843,3881L2847,3881L2847,3880L2850,3880L2850,3879L2853,3879L2853,3878L2856,3878L2856,3877L2859,3877L2859,3876L2862,3876L2862,3875L2865,3875L2865,3874L2868,3874L2868,3873L2871,3873L2871,3872L2874,3872L2874,3871L2877,3871L2877,3870L2880,3870L2880,3869L2883,3869L2883,3868L2886,3868L2886,3867L2889,3867L2889,3866L2892,3866L2892,3865L2895,3865L2895,3864L2897,3864L2897,3863L2900,3863L2900,3862L2903,3862L2903,3861L2906,3861L2906,3860L2909,3860L2909,3859L2912,3859L2912,3858L2914,3858L2914,3857L2917,3857L2917,3856L2920,3856L2920,3855L2923,3855L2923,3854L2926,3854L2926,3853L2929,3853L2929,3852L2931,3852L2931,3851L2934,3851L2934,3850L2936,3850L2936,3849L2939,3849L2939,3848L2942,3848L2942,3847L2944,3847L2944,3846L2947,3846L2947,3845L2950,3845L2950,3844L2952,3844L2952,3843L2955,3843L2955,3842L2957,3842L2957,3841L2960,3841L2960,3840L2963,3840L2963,3839L2965,3839L2965,3838L2968,3838L2968,3837L2971,3837L2971,3836L2973,3836L2973,3835L2976,3835L2976,3834L2978,3834L2978,3833L2981,3833L2981,3832L2983,3832L2983,3831L2985,3831L2985,3830L2988,3830L2988,3829L2990,3829L2990,3828L2993,3828L2993,3827L2995,3827L2995,3826L2998,3826L2998,3825L3000,3825L3000,3824L3003,3824L3003,3823L3005,3823L3005,3822L3007,3822L3007,3821L3010,3821L3010,3820L3012,3820L3012,3819L3015,3819L3015,3818L3017,3818L3017,3817L3020,3817L3020,3816L3022,3816L3022,3815L3024,3815L3024,3814L3026,3814L3026,3813L3029,3813L3029,3812L3031,3812L3031,3811L3033,3811L3033,3810L3036,3810L3036,3809L3038,3809L3038,3808L3040,3808L3040,3807L3042,3807L3042,3806L3045,3806L3045,3805L3047,3805L3047,3804L3049,3804L3049,3803L3052,3803L3052,3802L3054,3802L3054,3801L3056,3801L3056,3800L3058,3800L3058,3799L3061,3799L3061,3798L3063,3798L3063,3797L3065,3797L3065,3796L3067,3796L3067,3795L3069,3795L3069,3794L3071,3794L3071,3793L3074,3793L3074,3792L3076,3792L3076,3791L3078,3791L3078,3790L3080,3790L3080,3789L3082,3789L3082,3788L3084,3788L3084,3787L3086,3787L3086,3786L3089,3786L3089,3785L3091,3785L3091,3784L3093,3784L3093,3783L3095,3783L3095,3782L3097,3782L3097,3781L3099,3781L3099,3780L3101,3780L3101,3779L3104,3779L3104,3778L3106,3778L3106,3777L3108,3777L3108,3776L3110,3776L3110,3775L3112,3775L3112,3774L3114,3774L3114,3773L3116,3773L3116,3772L3118,3772L3118,3771L3120,3771L3120,3770L3122,3770L3122,3769L3124,3769L3124,3768L3126,3768L3126,3767L3128,3767L3128,3766L3130,3766L3130,3765L3132,3765L3132,3764L3134,3764L3134,3763L3136,3763L3136,3762L3138,3762L3138,3761L3140,3761L3140,3760L3142,3760L3142,3759L3144,3759L3144,3758L3146,3758L3146,3757L3148,3757L3148,3756L3150,3756L3150,3755L3152,3755L3152,3754L3154,3754L3154,3753L3155,3753L3155,3752L3157,3752L3157,3751L3159,3751L3159,3750L3161,3750L3161,3749L3163,3749L3163,3748L3165,3748L3165,3747L3167,3747L3167,3746L3169,3746L3169,3745L3171,3745L3171,3744L3173,3744L3173,3743L3174,3743L3174,3742L3176,3742L3176,3741L3178,3741L3178,3740L3180,3740L3180,3739L3182,3739L3182,3738L3184,3738L3184,3737L3186,3737L3186,3736L3188,3736L3188,3735L3190,3735L3190,3734L3191,3734L3191,3733L3193,3733L3193,3732L3195,3732L3195,3731L3197,3731L3197,3730L3199,3730L3199,3729L3200,3729L3200,3728L3202,3728L3202,3727L3204,3727L3204,3726L3206,3726L3206,3725L3208,3725L3208,3724L3209,3724L3209,3723L3211,3723L3211,3722L3213,3722L3213,3721L3215,3721L3215,3720L3216,3720L3216,3719L3218,3719L3218,3718L3220,3718L3220,3717L3222,3717L3222,3716L3224,3716L3224,3715L3225,3715L3225,3714L3227,3714L3227,3713L3229,3713L3229,3712L3231,3712L3231,3711L3233,3711L3233,3710L3234,3710L3234,3709L3236,3709L3236,3708L3238,3708L3238,3707L3239,3707L3239,3706L3241,3706L3241,3705L3243,3705L3243,3704L3244,3704L3244,3703L3246,3703L3246,3702L3248,3702L3248,3701L3250,3701L3250,3700L3251,3700L3251,3699L3253,3699L3253,3698L3255,3698L3255,3697L3256,3697L3256,3696L3258,3696L3258,3695L3260,3695L3260,3694L3261,3694L3261,3693L3263,3693L3263,3692L3265,3692L3265,3691L3266,3691L3266,3690L3268,3690L3268,3689L3270,3689L3270,3688L3271,3688L3271,3687L3273,3687L3273,3686L3275,3686L3275,3685L3276,3685L3276,3684L3278,3684L3278,3683L3280,3683L3280,3682L3281,3682L3281,3681L3283,3681L3283,3680L3284,3680L3284,3679L3286,3679L3286,3678L3288,3678L3288,3677L3289,3677L3289,3676L3291,3676L3291,3675L3292,3675L3292,3674L3294,3674L3294,3673L3296,3673L3296,3672L3297,3672L3297,3671L3299,3671L3299,3670L3300,3670L3300,3669L3302,3669L3302,3668L3304,3668L3304,3667L3305,3667L3305,3666L3307,3666L3307,3665L3308,3665L3308,3664L3310,3664L3310,3663L3312,3663L3312,3662L3313,3662L3313,3661L3315,3661L3315,3660L3316,3660L3316,3659L3318,3659L3318,3658L3319,3658L3319,3657L3321,3657L3321,3656L3322,3656L3322,3655L3324,3655L3324,3654L3325,3654L3325,3653L3327,3653L3327,3652L3329,3652L3329,3651L3330,3651L3330,3650L3332,3650L3332,3649L3333,3649L3333,3648L3335,3648L3335,3647L3336,3647L3336,3646L3338,3646L3338,3645L3339,3645L3339,3644L3341,3644L3341,3643L3342,3643L3342,3642L3344,3642L3344,3641L3345,3641L3345,3640L3347,3640L3347,3639L3348,3639L3348,3638L3350,3638L3350,3637L3351,3637L3351,3636L3353,3636L3353,3635L3354,3635L3354,3634L3356,3634L3356,3633L3357,3633L3357,3632L3359,3632L3359,3631L3360,3631L3360,3630L3362,3630L3362,3629L3363,3629L3363,3628L3364,3628L3364,3627L3366,3627L3366,3626L3367,3626L3367,3625L3369,3625L3369,3624L3370,3624L3370,3623L3372,3623L3372,3622L3373,3622L3373,3621L3375,3621L3375,3620L3376,3620L3376,3619L3377,3619L3377,3618L3379,3618L3379,3617L3380,3617L3380,3616L3382,3616L3382,3615L3383,3615L3383,3614L3385,3614L3385,3613L3386,3613L3386,3612L3388,3612L3388,3611L3389,3611L3389,3610L3390,3610L3390,3609L3392,3609L3392,3608L3393,3608L3393,3607L3395,3607L3395,3606L3396,3606L3396,3605L3397,3605L3397,3604L3399,3604L3399,3603L3400,3603L3400,3602L3402,3602L3402,3601L3403,3601L3403,3600L3404,3600L3404,3599L3406,3599L3406,3598L3407,3598L3407,3597L3408,3597L3408,3596L3410,3596L3410,3595L3411,3595L3411,3594L3413,3594L3413,3593L3414,3593L3414,3592L3415,3592L3415,3591L3417,3591L3417,3590L3418,3590L3418,3589L3419,3589L3419,3588L3421,3588L3421,3587L3422,3587L3422,3586L3423,3586L3423,3585L3425,3585L3425,3584L3426,3584L3426,3583L3428,3583L3428,3582L3429,3582L3429,3581L3430,3581L3430,3580L3432,3580L3432,3579L3433,3579L3433,3578L3434,3578L3434,3577L3436,3577L3436,3576L3437,3576L3437,3575L3438,3575L3438,3574L3440,3574L3440,3573L3441,3573L3441,3572L3442,3572L3442,3571L3443,3571L3443,3570L3445,3570L3445,3569L3446,3569L3446,3568L3447,3568L3447,3567L3449,3567L3449,3566L3450,3566L3450,3565L3451,3565L3451,3564L3453,3564L3453,3563L3454,3563L3454,3562L3455,3562L3455,3561L3457,3561L3457,3560L3458,3560L3458,3559L3459,3559L3459,3558L3460,3558L3460,3557L3462,3557L3462,3556L3463,3556L3463,3555L3464,3555L3464,3554L3466,3554L3466,3553L3467,3553L3467,3552L3468,3552L3468,3551L3470,3551L3470,3550L3471,3550L3471,3549L3472,3549L3472,3548L3473,3548L3473,3547L3475,3547L3475,3546L3476,3546L3476,3545L3477,3545L3477,3544L3478,3544L3478,3543L3480,3543L3480,3542L3481,3542L3481,3541L3482,3541L3482,3540L3483,3540L3483,3539L3485,3539L3485,3538L3486,3538L3486,3537L3487,3537L3487,3536L3488,3536L3488,3535L3489,3535L3489,3534L3491,3534L3491,3533L3492,3533L3492,3532L3493,3532L3493,3531L3494,3531L3494,3530L3496,3530L3496,3529L3497,3529L3497,3528L3498,3528L3498,3527L3499,3527L3499,3526L3501,3526L3501,3525L3502,3525L3502,3524L3503,3524L3503,3523L3504,3523L3504,3522L3506,3522L3506,3521L3507,3521L3507,3520L3508,3520L3508,3519L3509,3519L3509,3518L3510,3518L3510,3517L3512,3517L3512,3516L3513,3516L3513,3515L3514,3515L3514,3514L3515,3514L3515,3513L3516,3513L3516,3512L3518,3512L3518,3511L3519,3511L3519,3510L3520,3510L3520,3509L3521,3509L3521,3508L3522,3508L3522,3507L3523,3507L3523,3506L3525,3506L3525,3505L3526,3505L3526,3504L3527,3504L3527,3503L3528,3503L3528,3502L3529,3502L3529,3501L3531,3501L3531,3500L3532,3500L3532,3499L3533,3499L3533,3498L3534,3498L3534,3497L3535,3497L3535,3496L3536,3496L3536,3495L3538,3495L3538,3494L3539,3494L3539,3493L3540,3493L3540,3492L3541,3492L3541,3491L3542,3491L3542,3490L3544,3490L3544,3489L3545,3489L3545,3488L3546,3488L3546,3487L3547,3487L3547,3486L3548,3486L3548,3485L3549,3485L3549,3484L3550,3484L3550,3483L3551,3483L3551,3482L3553,3482L3553,3481L3554,3481L3554,3480L3555,3480L3555,3479L3556,3479L3556,3478L3557,3478L3557,3477L3558,3477L3558,3476L3559,3476L3559,3475L3560,3475L3560,3474L3562,3474L3562,3473L3563,3473L3563,3472L3564,3472L3564,3471L3565,3471L3565,3470L3566,3470L3566,3469L3567,3469L3567,3468L3568,3468L3568,3467L3569,3467L3569,3466L3571,3466L3571,3465L3572,3465L3572,3464L3573,3464L3573,3463L3574,3463L3574,3462L3575,3462L3575,3461L3576,3461L3576,3460L3577,3460L3577,3459L3578,3459L3578,3458L3580,3458L3580,3457L3581,3457L3581,3456L3582,3456L3582,3455L3583,3455L3583,3454L3584,3454L3584,3453L3585,3453L3585,3452L3586,3452L3586,3451L3587,3451L3587,3450L3588,3450L3588,3449L3589,3449L3589,3448L3590,3448L3590,3447L3591,3447L3591,3446L3593,3446L3593,3445L3594,3445L3594,3444L3595,3444L3595,3443L3596,3443L3596,3442L3597,3442L3597,3441L3598,3441L3598,3440L3599,3440L3599,3439L3600,3439L3600,3438L3601,3438L3601,3437L3602,3437L3602,3436L3603,3436L3603,3435L3604,3435L3604,3434L3605,3434L3605,3433L3606,3433L3606,3432L3608,3432L3608,3431L3609,3431L3609,3430L3610,3430L3610,3429L3611,3429L3611,3428L3612,3428L3612,3427L3613,3427L3613,3426L3614,3426L3614,3425L3615,3425L3615,3424L3616,3424L3616,3423L3617,3423L3617,3422L3618,3422L3618,3421L3619,3421L3619,3420L3620,3420L3620,3419L3621,3419L3621,3418L3622,3418L3622,3417L3623,3417L3623,3416L3624,3416L3624,3415L3625,3415L3625,3414L3626,3414L3626,3413L3627,3413L3627,3412L3628,3412L3628,3411L3629,3411L3629,3410L3630,3410L3630,3409L3631,3409L3631,3408L3632,3408L3632,3407L3633,3407L3633,3406L3634,3406L3634,3405L3636,3405L3636,3404L3637,3404L3637,3403L3638,3403L3638,3402L3639,3402L3639,3401L3640,3401L3640,3400L3641,3400L3641,3399L3642,3399L3642,3398L3643,3398L3643,3397L3644,3397L3644,3396L3645,3396L3645,3395L3646,3395L3646,3394L3647,3394L3647,3393L3648,3393L3648,3392L3649,3392L3649,3391L3650,3391L3650,3390L3651,3390L3651,3389L3652,3389L3652,3388L3653,3388L3653,3387L3654,3387L3654,3386L3655,3386L3655,3385L3656,3385L3656,3384L3657,3384L3657,3383L3658,3383L3658,3382L3659,3382L3659,3381L3660,3381L3660,3380L3661,3380L3661,3379L3662,3379L3662,3377L3663,3377L3663,3376L3664,3376L3664,3375L3665,3375L3665,3374L3666,3374L3666,3373L3667,3373L3667,3372L3668,3372L3668,3371L3669,3371L3669,3370L3670,3370L3670,3369L3671,3369L3671,3368L3672,3368L3672,3367L3673,3367L3673,3366L3674,3366L3674,3365L3675,3365L3675,3364L3676,3364L3676,3363L3677,3363L3677,3362L3678,3362L3678,3361L3679,3361L3679,3360L3680,3360L3680,3359L3681,3359L3681,3358L3682,3358L3682,3357L3683,3357L3683,3356L3684,3356L3684,3355L3685,3355L3685,3354L3686,3354L3686,3353L3687,3353L3687,3352L3688,3352L3688,3351L3689,3351L3689,3349L3690,3349L3690,3348L3691,3348L3691,3347L3692,3347L3692,3346L3693,3346L3693,3345L3694,3345L3694,3344L3695,3344L3695,3343L3696,3343L3696,3342L3697,3342L3697,3341L3698,3341L3698,3340L3699,3340L3699,3339L3700,3339L3700,3338L3701,3338L3701,3337L3702,3337L3702,3335L3703,3335L3703,3334L3704,3334L3704,3333L3705,3333L3705,3332L3706,3332L3706,3331L3707,3331L3707,3330L3708,3330L3708,3329L3709,3329L3709,3328L3710,3328L3710,3327L3711,3327L3711,3326L3712,3326L3712,3325L3713,3325L3713,3324L3714,3324L3714,3323L3715,3323L3715,3321L3716,3321L3716,3320L3717,3320L3717,3319L3718,3319L3718,3318L3719,3318L3719,3317L3720,3317L3720,3316L3721,3316L3721,3315L3722,3315L3722,3314L3723,3314L3723,3312L3724,3312L3724,3311L3725,3311L3725,3310L3726,3310L3726,3309L3727,3309L3727,3308L3728,3308L3728,3307L3729,3307L3729,3306L3730,3306L3730,3305L3731,3305L3731,3303L3732,3303L3732,3302L3733,3302L3733,3301L3734,3301L3734,3300L3735,3300L3735,3299L3736,3299L3736,3298L3737,3298L3737,3297L3738,3297L3738,3296L3739,3296L3739,3294L3740,3294L3740,3293L3741,3293L3741,3292L3742,3292L3742,3291L3743,3291L3743,3290L3744,3290L3744,3289L3745,3289L3745,3288L3746,3288L3746,3286L3747,3286L3747,3285L3748,3285L3748,3284L3749,3284L3749,3283L3750,3283L3750,3282L3751,3282L3751,3281L3752,3281L3752,3279L3753,3279L3753,3278L3754,3278L3754,3277L3755,3277L3755,3276L3756,3276L3756,3275L3757,3275L3757,3273L3758,3273L3758,3272L3759,3272L3759,3271L3760,3271L3760,3270L3761,3270L3761,3269L3762,3269L3762,3268L3763,3268L3763,3266L3764,3266L3764,3265L3765,3265L3765,3264L3766,3264L3766,3263L3767,3263L3767,3262L3768,3262L3768,3260L3769,3260L3769,3259L3770,3259L3770,3258L3771,3258L3771,3257L3772,3257L3772,3256L3773,3256L3773,3255L3774,3255L3774,3253L3775,3253L3775,3252L3776,3252L3776,3251L3777,3251L3777,3250L3778,3250L3778,3249L3779,3249L3779,3247L3780,3247L3780,3246L3781,3246L3781,3245L3782,3245L3782,3244L3783,3244L3783,3242L3784,3242L3784,3241L3785,3241L3785,3240L3786,3240L3786,3239L3787,3239L3787,3237L3788,3237L3788,3236L3789,3236L3789,3235L3790,3235L3790,3234L3791,3234L3791,3232L3792,3232L3792,3231L3793,3231L3793,3230L3794,3230L3794,3229L3795,3229L3795,3227L3796,3227L3796,3226L3797,3226L3797,3225L3798,3225L3798,3224L3799,3224L3799,3222L3800,3222L3800,3221L3801,3221L3801,3220L3802,3220L3802,3219L3803,3219L3803,3217L3804,3217L3804,3216L3805,3216L3805,3215L3806,3215L3806,3214L3807,3214L3807,3212L3808,3212L3808,3211L3809,3211L3809,3210L3810,3210L3810,3209L3811,3209L3811,3207L3812,3207L3812,3206L3813,3206L3813,3205L3814,3205L3814,3203L3815,3203L3815,3202L3816,3202L3816,3201L3817,3201L3817,3199L3818,3199L3818,3198L3819,3198L3819,3197L3820,3197L3820,3196L3821,3196L3821,3194L3822,3194L3822,3193L3823,3193L3823,3192L3824,3192L3824,3190L3825,3190L3825,3189L3826,3189L3826,3188L3827,3188L3827,3186L3828,3186L3828,3185L3829,3185L3829,3184L3830,3184L3830,3182L3831,3182L3831,3181L3832,3181L3832,3180L3833,3180L3833,3179L3834,3179L3834,3177L3835,3177L3835,3176L3836,3176L3836,3175L3837,3175L3837,3173L3838,3173L3838,3172L3839,3172L3839,3170L3840,3170L3840,3169L3841,3169L3841,3168L3842,3168L3842,3166L3843,3166L3843,3165L3844,3165L3844,3164L3845,3164L3845,3162L3846,3162L3846,3161L3847,3161L3847,3160L3848,3160L3848,3158L3849,3158L3849,3157L3850,3157L3850,3155L3851,3155L3851,3154L3852,3154L3852,3153L3853,3153L3853,3151L3854,3151L3854,3150L3855,3150L3855,3149L3856,3149L3856,3147L3857,3147L3857,3146L3858,3146L3858,3144L3859,3144L3859,3143L3860,3143L3860,3142L3861,3142L3861,3140L3862,3140L3862,3139L3863,3139L3863,3138L3864,3138L3864,3136L3865,3136L3865,3135L3866,3135L3866,3133L3867,3133L3867,3132L3868,3132L3868,3130L3869,3130L3869,3129L3870,3129L3870,3127L3871,3127L3871,3126L3872,3126L3872,3125L3873,3125L3873,3123L3874,3123L3874,3122L3875,3122L3875,3120L3876,3120L3876,3119L3877,3119L3877,3117L3878,3117L3878,3116L3879,3116L3879,3115L3880,3115L3880,3113L3881,3113L3881,3112L3882,3112L3882,3110L3883,3110L3883,3109L3884,3109L3884,3107L3885,3107L3885,3106L3886,3106L3886,3104L3887,3104L3887,3103L3888,3103L3888,3102L3889,3102L3889,3100L3890,3100L3890,3099L3891,3099L3891,3097L3892,3097L3892,3096L3893,3096L3893,3094L3894,3094L3894,3093L3895,3093L3895,3091L3896,3091L3896,3090L3897,3090L3897,3088L3898,3088L3898,3087L3899,3087L3899,3085L3900,3085L3900,3083L3901,3083L3901,3082L3902,3082L3902,3080L3903,3080L3903,3079L3904,3079L3904,3077L3905,3077L3905,3076L3906,3076L3906,3074L3907,3074L3907,3073L3908,3073L3908,3071L3909,3071L3909,3070L3910,3070L3910,3068L3911,3068L3911,3067L3912,3067L3912,3065L3913,3065L3913,3064L3914,3064L3914,3062L3915,3062L3915,3061L3916,3061L3916,3059L3917,3059L3917,3058L3918,3058L3918,3056L3919,3056L3919,3054L3920,3054L3920,3053L3921,3053L3921,3051L3922,3051L3922,3050L3923,3050L3923,3048L3924,3048L3924,3046L3925,3046L3925,3045L3926,3045L3926,3043L3927,3043L3927,3042L3928,3042L3928,3040L3929,3040L3929,3038L3930,3038L3930,3037L3931,3037L3931,3035L3932,3035L3932,3034L3933,3034L3933,3032L3934,3032L3934,3030L3935,3030L3935,3029L3936,3029L3936,3027L3937,3027L3937,3026L3938,3026L3938,3024L3939,3024L3939,3022L3940,3022L3940,3021L3941,3021L3941,3019L3942,3019L3942,3018L3943,3018L3943,3016L3944,3016L3944,3014L3945,3014L3945,3013L3946,3013L3946,3011L3947,3011L3947,3009L3948,3009L3948,3007L3949,3007L3949,3006L3950,3006L3950,3004L3951,3004L3951,3002L3952,3002L3952,3001L3953,3001L3953,2999L3954,2999L3954,2997L3955,2997L3955,2996L3956,2996L3956,2994L3957,2994L3957,2992L3958,2992L3958,2991L3959,2991L3959,2989L3960,2989L3960,2987L3961,2987L3961,2985L3962,2985L3962,2984L3963,2984L3963,2982L3964,2982L3964,2980L3965,2980L3965,2979L3966,2979L3966,2977L3967,2977L3967,2975L3968,2975L3968,2974L3969,2974L3969,2972L3970,2972L3970,2970L3971,2970L3971,2968L3972,2968L3972,2966L3973,2966L3973,2965L3974,2965L3974,2963L3975,2963L3975,2961L3976,2961L3976,2959L3977,2959L3977,2957L3978,2957L3978,2956L3979,2956L3979,2954L3980,2954L3980,2952L3981,2952L3981,2950L3982,2950L3982,2948L3983,2948L3983,2947L3984,2947L3984,2945L3985,2945L3985,2943L3986,2943L3986,2941L3987,2941L3987,2940L3988,2940L3988,2938L3989,2938L3989,2936L3990,2936L3990,2934L3991,2934L3991,2932L3992,2932L3992,2930L3993,2930L3993,2928L3994,2928L3994,2927L3995,2927L3995,2925L3996,2925L3996,2923L3997,2923L3997,2921L3998,2921L3998,2919L3999,2919L3999,2917L4000,2917L4000,2915L4001,2915L4001,2913L4002,2913L4002,2911L4003,2911L4003,2910L4004,2910L4004,2908L4005,2908L4005,2906L4006,2906L4006,2904L4007,2904L4007,2902L4008,2902L4008,2900L4009,2900L4009,2898L4010,2898L4010,2896L4011,2896L4011,2894L4012,2894L4012,2892L4013,2892L4013,2891L4014,2891L4014,2888L4015,2888L4015,2886L4016,2886L4016,2884L4017,2884L4017,2882L4018,2882L4018,2880L4019,2880L4019,2878L4020,2878L4020,2876L4021,2876L4021,2874L4022,2874L4022,2872L4023,2872L4023,2870L4024,2870L4024,2868L4025,2868L4025,2866L4026,2866L4026,2864L4027,2864L4027,2862L4028,2862L4028,2860L4029,2860L4029,2858L4030,2858L4030,2856L4031,2856L4031,2854L4032,2854L4032,2852L4033,2852L4033,2850L4034,2850L4034,2848L4035,2848L4035,2846L4036,2846L4036,2844L4037,2844L4037,2842L4038,2842L4038,2840L4039,2840L4039,2838L4040,2838L4040,2835L4041,2835L4041,2833L4042,2833L4042,2831L4043,2831L4043,2829L4044,2829L4044,2827L4045,2827L4045,2825L4046,2825L4046,2823L4047,2823L4047,2820L4048,2820L4048,2818L4049,2818L4049,2816L4050,2816L4050,2814L4051,2814L4051,2812L4052,2812L4052,2810L4053,2810L4053,2808L4054,2808L4054,2805L4055,2805L4055,2803L4056,2803L4056,2801L4057,2801L4057,2799L4058,2799L4058,2796L4059,2796L4059,2794L4060,2794L4060,2792L4061,2792L4061,2789L4062,2789L4062,2787L4063,2787L4063,2785L4064,2785L4064,2783L4065,2783L4065,2780L4066,2780L4066,2778L4067,2778L4067,2776L4068,2776L4068,2773L4069,2773L4069,2771L4070,2771L4070,2769L4071,2769L4071,2767L4072,2767L4072,2764L4073,2764L4073,2762L4074,2762L4074,2760L4075,2760L4075,2757L4076,2757L4076,2755L4077,2755L4077,2752L4078,2752L4078,2750L4079,2750L4079,2747L4080,2747L4080,2745L4081,2745L4081,2743L4082,2743L4082,2740L4083,2740L4083,2738L4084,2738L4084,2735L4085,2735L4085,2733L4086,2733L4086,2730L4087,2730L4087,2728L4088,2728L4088,2725L4089,2725L4089,2723L4090,2723L4090,2721L4091,2721L4091,2718L4092,2718L4092,2716L4093,2716L4093,2713L4094,2713L4094,2710L4095,2710L4095,2708L4096,2708L4096,2705L4097,2705L4097,2702L4098,2702L4098,2700L4099,2700L4099,2697L4100,2697L4100,2695L4101,2695L4101,2692L4102,2692L4102,2689L4103,2689L4103,2687L4104,2687L4104,2684L4105,2684L4105,2681L4106,2681L4106,2679L4107,2679L4107,2676L4108,2676L4108,2674L4109,2674L4109,2671L4110,2671L4110,2668L4111,2668L4111,2665L4112,2665L4112,2662L4113,2662L4113,2660L4114,2660L4114,2657L4115,2657L4115,2654L4116,2654L4116,2651L4117,2651L4117,2648L4118,2648L4118,2645L4119,2645L4119,2643L4120,2643L4120,2640L4121,2640L4121,2637L4122,2637L4122,2634L4123,2634L4123,2631L4124,2631L4124,2628L4125,2628L4125,2626L4126,2626L4126,2623L4127,2623L4127,2620L4128,2620L4128,2616L4129,2616L4129,2613L4130,2613L4130,2610L4131,2610L4131,2607L4132,2607L4132,2604L4133,2604L4133,2601L4134,2601L4134,2598L4135,2598L4135,2595L4136,2595L4136,2592L4137,2592L4137,2589L4138,2589L4138,2586L4139,2586L4139,2583L4140,2583L4140,2579L4141,2579L4141,2576L4142,2576L4142,2573L4143,2573L4143,2570L4144,2570L4144,2566L4145,2566L4145,2563L4146,2563L4146,2559L4147,2559L4147,2556L4148,2556L4148,2553L4149,2553L4149,2549L4150,2549L4150,2546L4151,2546L4151,2543L4152,2543L4152,2539L4153,2539L4153,2536L4154,2536L4154,2533L4155,2533L4155,2529L4156,2529L4156,2525L4157,2525L4157,2522L4158,2522L4158,2518L4159,2518L4159,2514L4160,2514L4160,2511L4161,2511L4161,2507L4162,2507L4162,2503L4163,2503L4163,2499L4164,2499L4164,2496L4165,2496L4165,2492L4166,2492L4166,2488L4167,2488L4167,2485L4168,2485L4168,2481L4169,2481L4169,2477L4170,2477L4170,2472L4171,2472L4171,2468L4172,2468L4172,2464L4173,2464L4173,2460L4174,2460L4174,2456L4175,2456L4175,2452L4176,2452L4176,2448L4177,2448L4177,2444L4178,2444L4178,2440L4179,2440L4179,2436L4180,2436L4180,2431L4181,2431L4181,2426L4182,2426L4182,2422L4183,2422L4183,2417L4184,2417L4184,2413L4185,2413L4185,2408L4186,2408L4186,2403L4187,2403L4187,2399L4188,2399L4188,2394L4189,2394L4189,2390L4190,2390L4190,2385L4191,2385L4191,2380L4192,2380L4192,2374L4193,2374L4193,2369L4194,2369L4194,2364L4195,2364L4195,2359L4196,2359L4196,2353L4197,2353L4197,2348L4198,2348L4198,2343L4199,2343L4199,2338L4200,2338L4200,2332L4201,2332L4201,2326L4202,2326L4202,2320L4203,2320L4203,2313L4204,2313L4204,2307L4205,2307L4205,2301L4206,2301L4206,2295L4207,2295L4207,2289L4208,2289L4208,2282L4209,2282L4209,2275L4210,2275L4210,2268L4211,2268L4211,2261L4212,2261L4212,2254L4213,2254L4213,2246L4214,2246L4214,2239L4215,2239L4215,2230L4216,2230L4216,2222L4217,2222L4217,2213L4218,2213L4218,2204L4219,2204L4219,2195L4220,2195L4220,2185L4221,2185L4221,2174L4222,2174L4222,2163L4223,2163L4223,2152L4224,2152L4224,2140L4225,2140L4225,2125L4226,2125L4226,2109L4227,2109L4227,2093L4228,2093L4228,2070L4229,2070L4229,2043L4230,2043L4230,1930L4229,1930L4229,1904L4228,1904L4228,1880L4227,1880L4227,1864L4226,1864L4226,1848L4225,1848L4225,1833L4224,1833L4224,1821L4223,1821L4223,1810L4222,1810L4222,1799L4221,1799L4221,1788L4220,1788L4220,1778L4219,1778L4219,1769L4218,1769L4218,1760L4217,1760L4217,1752L4216,1752L4216,1743L4215,1743L4215,1734L4214,1734L4214,1727L4213,1727L4213,1720L4212,1720L4212,1713L4211,1713L4211,1705L4210,1705L4210,1698L4209,1698L4209,1691L4208,1691L4208,1684L4207,1684L4207,1678L4206,1678L4206,1672L4205,1672L4205,1666L4204,1666L4204,1660L4203,1660L4203,1654L4202,1654L4202,1648L4201,1648L4201,1642L4200,1642L4200,1636L4199,1636L4199,1630L4198,1630L4198,1625L4197,1625L4197,1620L4196,1620L4196,1615L4195,1615L4195,1609L4194,1609L4194,1604L4193,1604L4193,1599L4192,1599L4192,1594L4191,1594L4191,1588L4190,1588L4190,1584L4189,1584L4189,1579L4188,1579L4188,1574L4187,1574L4187,1570L4186,1570L4186,1565L4185,1565L4185,1561L4184,1561L4184,1556L4183,1556L4183,1551L4182,1551L4182,1547L4181,1547L4181,1542L4180,1542L4180,1538L4179,1538L4179,1534L4178,1534L4178,1529L4177,1529L4177,1525L4176,1525L4176,1521L4175,1521L4175,1517L4174,1517L4174,1513L4173,1513L4173,1509L4172,1509L4172,1505L4171,1505L4171,1501L4170,1501L4170,1497L4169,1497L4169,1493L4168,1493L4168,1489L4167,1489L4167,1485L4166,1485L4166,1481L4165,1481L4165,1477L4164,1477L4164,1474L4163,1474L4163,1470L4162,1470L4162,1466L4161,1466L4161,1463L4160,1463L4160,1459L4159,1459L4159,1455L4158,1455L4158,1452L4157,1452L4157,1448L4156,1448L4156,1444L4155,1444L4155,1441L4154,1441L4154,1437L4153,1437L4153,1434L4152,1434L4152,1431L4151,1431L4151,1427L4150,1427L4150,1424L4149,1424L4149,1420L4148,1420L4148,1417L4147,1417L4147,1414L4146,1414L4146,1410L4145,1410L4145,1407L4144,1407L4144,1404L4143,1404L4143,1400L4142,1400L4142,1397L4141,1397L4141,1394L4140,1394L4140,1391L4139,1391L4139,1388L4138,1388L4138,1384L4137,1384L4137,1381L4136,1381L4136,1378L4135,1378L4135,1375L4134,1375L4134,1372L4133,1372L4133,1369L4132,1369L4132,1366L4131,1366L4131,1363L4130,1363L4130,1360L4129,1360L4129,1357L4128,1357L4128,1354L4127,1354L4127,1351L4126,1351L4126,1348L4125,1348L4125,1345L4124,1345L4124,1342L4123,1342L4123,1339L4122,1339L4122,1336L4121,1336L4121,1333L4120,1333L4120,1331L4119,1331L4119,1328L4118,1328L4118,1325L4117,1325L4117,1322L4116,1322L4116,1319L4115,1319L4115,1316L4114,1316L4114,1314L4113,1314L4113,1311L4112,1311L4112,1308L4111,1308L4111,1305L4110,1305L4110,1302L4109,1302L4109,1300L4108,1300L4108,1297L4107,1297L4107,1294L4106,1294L4106,1292L4105,1292L4105,1289L4104,1289L4104,1287L4103,1287L4103,1284L4102,1284L4102,1281L4101,1281L4101,1279L4100,1279L4100,1276L4099,1276L4099,1273L4098,1273L4098,1271L4097,1271L4097,1268L4096,1268L4096,1265L4095,1265L4095,1263L4094,1263L4094,1260L4093,1260L4093,1258L4092,1258L4092,1255L4091,1255L4091,1253L4090,1253L4090,1250L4089,1250L4089,1248L4088,1248L4088,1245L4087,1245L4087,1243L4086,1243L4086,1240L4085,1240L4085,1238L4084,1238L4084,1236L4083,1236L4083,1233L4082,1233L4082,1231L4081,1231L4081,1228L4080,1228L4080,1226L4079,1226L4079,1223L4078,1223L4078,1221L4077,1221L4077,1218L4076,1218L4076,1216L4075,1216L4075,1214L4074,1214L4074,1211L4073,1211L4073,1209L4072,1209L4072,1207L4071,1207L4071,1204L4070,1204L4070,1202L4069,1202L4069,1200L4068,1200L4068,1197L4067,1197L4067,1195L4066,1195L4066,1193L4065,1193L4065,1191L4064,1191L4064,1188L4063,1188L4063,1186L4062,1186L4062,1184L4061,1184L4061,1181L4060,1181L4060,1179L4059,1179L4059,1177L4058,1177L4058,1175L4057,1175L4057,1172L4056,1172L4056,1170L4055,1170L4055,1168L4054,1168L4054,1166L4053,1166L4053,1164L4052,1164L4052,1161L4051,1161L4051,1159L4050,1159L4050,1157L4049,1157L4049,1155L4048,1155L4048,1153L4047,1153L4047,1151L4046,1151L4046,1149L4045,1149L4045,1146L4044,1146L4044,1144L4043,1144L4043,1142L4042,1142L4042,1140L4041,1140L4041,1138L4040,1138L4040,1136L4039,1136L4039,1134L4038,1134L4038,1131L4037,1131L4037,1129L4036,1129L4036,1127L4035,1127L4035,1125L4034,1125L4034,1123L4033,1123L4033,1121L4032,1121L4032,1119L4031,1119L4031,1117L4030,1117L4030,1115L4029,1115L4029,1113L4028,1113L4028,1111L4027,1111L4027,1109L4026,1109L4026,1107L4025,1107L4025,1105L4024,1105L4024,1103L4023,1103L4023,1101L4022,1101L4022,1099L4021,1099L4021,1097L4020,1097L4020,1095L4019,1095L4019,1093L4018,1093L4018,1091L4017,1091L4017,1089L4016,1089L4016,1087L4015,1087L4015,1085L4014,1085L4014,1083L4013,1083L4013,1081L4012,1081L4012,1079L4011,1079L4011,1077L4010,1077L4010,1075L4009,1075L4009,1073L4008,1073L4008,1071L4007,1071L4007,1069L4006,1069L4006,1067L4005,1067L4005,1066L4004,1066L4004,1064L4003,1064L4003,1062L4002,1062L4002,1060L4001,1060L4001,1058L4000,1058L4000,1056L3999,1056L3999,1054L3998,1054L3998,1052L3997,1052L3997,1050L3996,1050L3996,1049L3995,1049L3995,1047L3994,1047L3994,1045L3993,1045L3993,1043L3992,1043L3992,1041L3991,1041L3991,1039L3990,1039L3990,1037L3989,1037L3989,1035L3988,1035L3988,1034L3987,1034L3987,1032L3986,1032L3986,1030L3985,1030L3985,1028L3984,1028L3984,1027L3983,1027L3983,1025L3982,1025L3982,1023L3981,1023L3981,1021L3980,1021L3980,1019L3979,1019L3979,1018L3978,1018L3978,1016L3977,1016L3977,1014L3976,1014L3976,1012L3975,1012L3975,1010L3974,1010L3974,1009L3973,1009L3973,1007L3972,1007L3972,1005L3971,1005L3971,1003L3970,1003L3970,1001L3969,1001L3969,1000L3968,1000L3968,998L3967,998L3967,996L3966,996L3966,994L3965,994L3965,993L3964,993L3964,991L3963,991L3963,989L3962,989L3962,988L3961,988L3961,986L3960,986L3960,984L3959,984L3959,983L3958,983L3958,981L3957,981L3957,979L3956,979L3956,978L3955,978L3955,976L3954,976L3954,974L3953,974L3953,973L3952,973L3952,971L3951,971L3951,969L3950,969L3950,967L3949,967L3949,966L3948,966L3948,964L3947,964L3947,962L3946,962L3946,961L3945,961L3945,959L3944,959L3944,957L3943,957L3943,956L3942,956L3942,954L3941,954L3941,952L3940,952L3940,951L3939,951L3939,949L3938,949L3938,948L3937,948L3937,946L3936,946L3936,944L3935,944L3935,943L3934,943L3934,941L3933,941L3933,940L3932,940L3932,938L3931,938L3931,936L3930,936L3930,935L3929,935L3929,933L3928,933L3928,932L3927,932L3927,930L3926,930L3926,928L3925,928L3925,927L3924,927L3924,925L3923,925L3923,924L3922,924L3922,922L3921,922L3921,920L3920,920L3920,919L3919,919L3919,917L3918,917L3918,916L3917,916L3917,914L3916,914L3916,913L3915,913L3915,911L3914,911L3914,909L3913,909L3913,908L3912,908L3912,906L3911,906L3911,905L3910,905L3910,903L3909,903L3909,902L3908,902L3908,900L3907,900L3907,899L3906,899L3906,897L3905,897L3905,896L3904,896L3904,894L3903,894L3903,893L3902,893L3902,891L3901,891L3901,890L3900,890L3900,888L3899,888L3899,887L3898,887L3898,885L3897,885L3897,884L3896,884L3896,882L3895,882L3895,881L3894,881L3894,879L3893,879L3893,878L3892,878L3892,876L3891,876L3891,875L3890,875L3890,873L3889,873L3889,872L3888,872L3888,870L3887,870L3887,869L3886,869L3886,867L3885,867L3885,866L3884,866L3884,864L3883,864L3883,863L3882,863L3882,862L3881,862L3881,860L3880,860L3880,859L3879,859L3879,857L3878,857L3878,856L3877,856L3877,854L3876,854L3876,853L3875,853L3875,851L3874,851L3874,850L3873,850L3873,849L3872,849L3872,847L3871,847L3871,846L3870,846L3870,844L3869,844L3869,843L3868,843L3868,841L3867,841L3867,840L3866,840L3866,839L3865,839L3865,837L3864,837L3864,836L3863,836L3863,834L3862,834L3862,833L3861,833L3861,832L3860,832L3860,830L3859,830L3859,829L3858,829L3858,827L3857,827L3857,826L3856,826L3856,825L3855,825L3855,823L3854,823L3854,822L3853,822L3853,821L3852,821L3852,819L3851,819L3851,818L3850,818L3850,816L3849,816L3849,815L3848,815L3848,814L3847,814L3847,812L3846,812L3846,811L3845,811L3845,810L3844,810L3844,808L3843,808L3843,807L3842,807L3842,805L3841,805L3841,804L3840,804L3840,803L3839,803L3839,801L3838,801L3838,800L3837,800L3837,799L3836,799L3836,797L3835,797L3835,796L3834,796L3834,795L3833,795L3833,793L3832,793L3832,792L3831,792L3831,791L3830,791L3830,789L3829,789L3829,788L3828,788L3828,787L3827,787L3827,786L3826,786L3826,784L3825,784L3825,783L3824,783L3824,782L3823,782L3823,780L3822,780L3822,779L3821,779L3821,778L3820,778L3820,776L3819,776L3819,775L3818,775L3818,774L3817,774L3817,772L3816,772L3816,771L3815,771L3815,770L3814,770L3814,769L3813,769L3813,767L3812,767L3812,766L3811,766L3811,765L3810,765L3810,763L3809,763L3809,762L3808,762L3808,761L3807,761L3807,759L3806,759L3806,758L3805,758L3805,757L3804,757L3804,756L3803,756L3803,754L3802,754L3802,753L3801,753L3801,752L3800,752L3800,751L3799,751L3799,750L3798,750L3798,748L3797,748L3797,747L3796,747L3796,746L3795,746L3795,745L3794,745L3794,743L3793,743L3793,742L3792,742L3792,741L3791,741L3791,740L3790,740L3790,738L3789,738L3789,737L3788,737L3788,736L3787,736L3787,735L3786,735L3786,733L3785,733L3785,732L3784,732L3784,731L3783,731L3783,730L3782,730L3782,728L3781,728L3781,727L3780,727L3780,726L3779,726L3779,725L3778,725L3778,723L3777,723L3777,722L3776,722L3776,721L3775,721L3775,720L3774,720L3774,719L3773,719L3773,717L3772,717L3772,716L3771,716L3771,715L3770,715L3770,714L3769,714L3769,713L3768,713L3768,712L3767,712L3767,710L3766,710L3766,709L3765,709L3765,708L3764,708L3764,707L3763,707L3763,706L3762,706L3762,704L3761,704L3761,703L3760,703L3760,702L3759,702L3759,701L3758,701L3758,700L3757,700L3757,699L3756,699L3756,697L3755,697L3755,696L3754,696L3754,695L3753,695L3753,694L3752,694L3752,693L3751,693L3751,691L3750,691L3750,690L3749,690L3749,689L3748,689L3748,688L3747,688L3747,687L3746,687L3746,686L3745,686L3745,684L3744,684L3744,683L3743,683L3743,682L3742,682L3742,681L3741,681L3741,680L3740,680L3740,679L3739,679L3739,678L3738,678L3738,677L3737,677L3737,675L3736,675L3736,674L3735,674L3735,673L3734,673L3734,672L3733,672L3733,671L3732,671L3732,670L3731,670L3731,669L3730,669L3730,668L3729,668L3729,666L3728,666L3728,665L3727,665L3727,664L3726,664L3726,663L3725,663L3725,662L3724,662L3724,661L3723,661L3723,660L3722,660L3722,659L3721,659L3721,657L3720,657L3720,656L3719,656L3719,655L3718,655L3718,654L3717,654L3717,653L3716,653L3716,652L3715,652L3715,651L3714,651L3714,650L3713,650L3713,648L3712,648L3712,647L3711,647L3711,646L3710,646L3710,645L3709,645L3709,644L3708,644L3708,643L3707,643L3707,642L3706,642L3706,641L3705,641L3705,640L3704,640L3704,639L3703,639L3703,638L3702,638L3702,637L3701,637L3701,636L3700,636L3700,635L3699,635L3699,633L3698,633L3698,632L3697,632L3697,631L3696,631L3696,630L3695,630L3695,629L3694,629L3694,628L3693,628L3693,627L3692,627L3692,626L3691,626L3691,625L3690,625L3690,624L3689,624L3689,623L3688,623L3688,622L3687,622L3687,621L3686,621L3686,619L3685,619L3685,618L3684,618L3684,617L3683,617L3683,616L3682,616L3682,615L3681,615L3681,614L3680,614L3680,613L3679,613L3679,612L3678,612L3678,611L3677,611L3677,610L3676,610L3676,609L3675,609L3675,608L3674,608L3674,607L3673,607L3673,606L3672,606L3672,605L3671,605L3671,604L3670,604L3670,603L3669,603L3669,602L3668,602L3668,601L3667,601L3667,600L3666,600L3666,599L3665,599L3665,598L3664,598L3664,597L3663,597L3663,596L3662,596L3662,595L3661,595L3661,594L3660,594L3660,593L3659,593L3659,592L3658,592L3658,591L3657,591L3657,590L3656,590L3656,589L3655,589L3655,588L3654,588L3654,587L3653,587L3653,585L3652,585L3652,584L3651,584L3651,583L3650,583L3650,582L3649,582L3649,581L3648,581L3648,580L3647,580L3647,579L3646,579L3646,578L3645,578L3645,577L3643,577L3643,576L3642,576L3642,575L3641,575L3641,574L3640,574L3640,573L3639,573L3639,572L3638,572L3638,571L3637,571L3637,570L3636,570L3636,569L3635,569L3635,568L3634,568L3634,567L3633,567L3633,566L3632,566L3632,565L3631,565L3631,564L3630,564L3630,563L3629,563L3629,562L3628,562L3628,561L3627,561L3627,560L3626,560L3626,559L3625,559L3625,558L3624,558L3624,557L3623,557L3623,556L3622,556L3622,555L3621,555L3621,554L3620,554L3620,553L3619,553L3619,552L3618,552L3618,551L3617,551L3617,550L3616,550L3616,549L3615,549L3615,548L3614,548L3614,547L3613,547L3613,546L3612,546L3612,545L3611,545L3611,544L3609,544L3609,543L3608,543L3608,542L3607,542L3607,541L3606,541L3606,540L3605,540L3605,539L3604,539L3604,538L3603,538L3603,537L3602,537L3602,536L3601,536L3601,535L3600,535L3600,534L3599,534L3599,533L3598,533L3598,532L3597,532L3597,531L3596,531L3596,530L3594,530L3594,529L3593,529L3593,528L3592,528L3592,527L3591,527L3591,526L3590,526L3590,525L3589,525L3589,524L3588,524L3588,523L3587,523L3587,522L3586,522L3586,521L3585,521L3585,520L3584,520L3584,519L3583,519L3583,518L3582,518L3582,517L3580,517L3580,516L3579,516L3579,515L3578,515L3578,514L3577,514L3577,513L3576,513L3576,512L3575,512L3575,511L3574,511L3574,510L3573,510L3573,509L3571,509L3571,508L3570,508L3570,507L3569,507L3569,506L3568,506L3568,505L3567,505L3567,504L3566,504L3566,503L3565,503L3565,502L3564,502L3564,501L3562,501L3562,500L3561,500L3561,499L3560,499L3560,498L3559,498L3559,497L3558,497L3558,496L3557,496L3557,495L3556,495L3556,494L3555,494L3555,493L3553,493L3553,492L3552,492L3552,491L3551,491L3551,490L3550,490L3550,489L3549,489L3549,488L3548,488L3548,487L3547,487L3547,486L3546,486L3546,485L3544,485L3544,484L3543,484L3543,483L3542,483L3542,482L3541,482L3541,481L3540,481L3540,480L3539,480L3539,479L3537,479L3537,478L3536,478L3536,477L3535,477L3535,476L3534,476L3534,475L3533,475L3533,474L3531,474L3531,473L3530,473L3530,472L3529,472L3529,471L3528,471L3528,470L3527,470L3527,469L3526,469L3526,468L3524,468L3524,467L3523,467L3523,466L3522,466L3522,465L3521,465L3521,464L3520,464L3520,463L3518,463L3518,462L3517,462L3517,461L3516,461L3516,460L3515,460L3515,459L3514,459L3514,458L3513,458L3513,457L3511,457L3511,456L3510,456L3510,455L3509,455L3509,454L3508,454L3508,453L3507,453L3507,452L3505,452L3505,451L3504,451L3504,450L3503,450L3503,449L3502,449L3502,448L3500,448L3500,447L3499,447L3499,446L3498,446L3498,445L3497,445L3497,444L3495,444L3495,443L3494,443L3494,442L3493,442L3493,441L3492,441L3492,440L3490,440L3490,439L3489,439L3489,438L3488,438L3488,437L3487,437L3487,436L3485,436L3485,435L3484,435L3484,434L3483,434L3483,433L3482,433L3482,432L3481,432L3481,431L3479,431L3479,430L3478,430L3478,429L3477,429L3477,428L3476,428L3476,427L3474,427L3474,426L3473,426L3473,425L3472,425L3472,424L3471,424L3471,423L3469,423L3469,422L3468,422L3468,421L3467,421L3467,420L3465,420L3465,419L3464,419L3464,418L3463,418L3463,417L3461,417L3461,416L3460,416L3460,415L3459,415L3459,414L3458,414L3458,413L3456,413L3456,412L3455,412L3455,411L3454,411L3454,410L3452,410L3452,409L3451,409L3451,408L3450,408L3450,407L3448,407L3448,406L3447,406L3447,405L3446,405L3446,404L3445,404L3445,403L3443,403L3443,402L3442,402L3442,401L3441,401L3441,400L3439,400L3439,399L3438,399L3438,398L3437,398L3437,397L3435,397L3435,396L3434,396L3434,395L3433,395L3433,394L3431,394L3431,393L3430,393L3430,392L3429,392L3429,391L3427,391L3427,390L3426,390L3426,389L3425,389L3425,388L3423,388L3423,387L3422,387L3422,386L3420,386L3420,385L3419,385L3419,384L3418,384L3418,383L3416,383L3416,382L3415,382L3415,381L3414,381L3414,380L3412,380L3412,379L3411,379L3411,378L3409,378L3409,377L3408,377L3408,376L3407,376L3407,375L3405,375L3405,374L3404,374L3404,373L3403,373L3403,372L3401,372L3401,371L3400,371L3400,370L3399,370L3399,369L3397,369L3397,368L3396,368L3396,367L3394,367L3394,366L3393,366L3393,365L3392,365L3392,364L3390,364L3390,363L3389,363L3389,362L3387,362L3387,361L3386,361L3386,360L3384,360L3384,359L3383,359L3383,358L3381,358L3381,357L3380,357L3380,356L3379,356L3379,355L3377,355L3377,354L3376,354L3376,353L3374,353L3374,352L3373,352L3373,351L3371,351L3371,350L3370,350L3370,349L3368,349L3368,348L3367,348L3367,347L3366,347L3366,346L3364,346L3364,345L3363,345L3363,344L3361,344L3361,343L3360,343L3360,342L3358,342L3358,341L3357,341L3357,340L3356,340L3356,339L3354,339L3354,338L3353,338L3353,337L3351,337L3351,336L3349,336L3349,335L3348,335L3348,334L3346,334L3346,333L3345,333L3345,332L3343,332L3343,331L3342,331L3342,330L3340,330L3340,329L3339,329L3339,328L3337,328L3337,327L3336,327L3336,326L3334,326L3334,325L3333,325L3333,324L3331,324L3331,323L3330,323L3330,322L3328,322L3328,321L3327,321L3327,320L3325,320L3325,319L3324,319L3324,318L3322,318L3322,317L3321,317L3321,316L3319,316L3319,315L3318,315L3318,314L3316,314L3316,313L3315,313L3315,312L3313,312L3313,311L3311,311L3311,310L3310,310L3310,309L3308,309L3308,308L3307,308L3307,307L3305,307L3305,306L3303,306L3303,305L3302,305L3302,304L3300,304L3300,303L3299,303L3299,302L3297,302L3297,301L3295,301L3295,300L3294,300L3294,299L3292,299L3292,298L3291,298L3291,297L3289,297L3289,296L3287,296L3287,295L3286,295L3286,294L3284,294L3284,293L3282,293L3282,292L3281,292L3281,291L3279,291L3279,290L3278,290L3278,289L3276,289L3276,288L3274,288L3274,287L3273,287L3273,286L3271,286L3271,285L3269,285L3269,284L3268,284L3268,283L3266,283L3266,282L3264,282L3264,281L3263,281L3263,280L3261,280L3261,279L3259,279L3259,278L3258,278L3258,277L3256,277L3256,276L3254,276L3254,275L3253,275L3253,274L3251,274L3251,273L3249,273L3249,272L3247,272L3247,271L3246,271L3246,270L3244,270L3244,269L3242,269L3242,268L3241,268L3241,267L3239,267L3239,266L3237,266L3237,265L3236,265L3236,264L3234,264L3234,263L3232,263L3232,262L3230,262L3230,261L3229,261L3229,260L3227,260L3227,259L3225,259L3225,258L3223,258L3223,257L3221,257L3221,256L3220,256L3220,255L3218,255L3218,254L3216,254L3216,253L3214,253L3214,252L3213,252L3213,251L3211,251L3211,250L3209,250L3209,249L3207,249L3207,248L3205,248L3205,247L3204,247L3204,246L3202,246L3202,245L3200,245L3200,244L3198,244L3198,243L3196,243L3196,242L3195,242L3195,241L3193,241L3193,240L3191,240L3191,239L3189,239L3189,238L3187,238L3187,237L3185,237L3185,236L3184,236L3184,235L3182,235L3182,234L3180,234L3180,233L3178,233L3178,232L3176,232L3176,231L3174,231L3174,230L3172,230L3172,229L3170,229L3170,228L3168,228L3168,227L3166,227L3166,226L3165,226L3165,225L3163,225L3163,224L3161,224L3161,223L3159,223L3159,222L3157,222L3157,221L3155,221L3155,220L3153,220L3153,219L3151,219L3151,218L3149,218L3149,217L3147,217L3147,216L3145,216L3145,215L3143,215L3143,214L3141,214L3141,213L3139,213L3139,212L3137,212L3137,211L3135,211L3135,210L3133,210L3133,209L3131,209L3131,208L3129,208L3129,207L3127,207L3127,206L3125,206L3125,205L3123,205L3123,204L3121,204L3121,203L3119,203L3119,202L3117,202L3117,201L3115,201L3115,200L3113,200L3113,199L3111,199L3111,198L3109,198L3109,197L3107,197L3107,196L3105,196L3105,195L3103,195L3103,194L3101,194L3101,193L3099,193L3099,192L3097,192L3097,191L3095,191L3095,190L3092,190L3092,189L3090,189L3090,188L3088,188L3088,187L3086,187L3086,186L3084,186L3084,185L3082,185L3082,184L3080,184L3080,183L3077,183L3077,182L3075,182L3075,181L3073,181L3073,180L3071,180L3071,179L3069,179L3069,178L3067,178L3067,177L3065,177L3065,176L3062,176L3062,175L3060,175L3060,174L3058,174L3058,173L3056,173L3056,172L3053,172L3053,171L3051,171L3051,170L3049,170L3049,169L3046,169L3046,168L3044,168L3044,167L3042,167L3042,166L3040,166L3040,165L3037,165L3037,164L3035,164L3035,163L3033,163L3033,162L3030,162L3030,161L3028,161L3028,160L3026,160L3026,159L3024,159L3024,158L3021,158L3021,157L3019,157L3019,156L3017,156L3017,155L3014,155L3014,154L3012,154L3012,153L3009,153L3009,152L3007,152L3007,151L3004,151L3004,150L3002,150L3002,149L3000,149L3000,148L2997,148L2997,147L2995,147L2995,146L2992,146L2992,145L2990,145L2990,144L2987,144L2987,143L2985,143L2985,142L2982,142L2982,141L2980,141L2980,140L2978,140L2978,139L2975,139L2975,138L2973,138L2973,137L2970,137L2970,136L2967,136L2967,135L2965,135L2965,134L2962,134L2962,133L2960,133L2960,132L2957,132L2957,131L2954,131L2954,130L2952,130L2952,129L2949,129L2949,128L2946,128L2946,127L2944,127L2944,126L2941,126L2941,125L2939,125L2939,124L2936,124L2936,123L2933,123L2933,122L2931,122L2931,121L2928,121L2928,120L2925,120L2925,119L2922,119L2922,118L2920,118L2920,117L2917,117L2917,116L2914,116L2914,115L2911,115L2911,114L2908,114L2908,113L2905,113L2905,112L2903,112L2903,111L2900,111L2900,110L2897,110L2897,109L2894,109L2894,108L2891,108L2891,107L2888,107L2888,106L2886,106L2886,105L2883,105L2883,104L2880,104L2880,103L2877,103L2877,102L2874,102L2874,101L2870,101L2870,100L2867,100L2867,99L2864,99L2864,98L2861,98L2861,97L2858,97L2858,96L2855,96L2855,95L2852,95L2852,94L2849,94L2849,93L2846,93L2846,92L2843,92L2843,91L2840,91L2840,90L2837,90L2837,89L2833,89L2833,88L2830,88L2830,87L2827,87L2827,86L2823,86L2823,85L2820,85L2820,84L2817,84L2817,83L2813,83L2813,82L2810,82L2810,81L2807,81L2807,80L2803,80L2803,79L2800,79L2800,78L2796,78L2796,77L2793,77L2793,76L2790,76L2790,75L2786,75L2786,74L2783,74L2783,73L2779,73L2779,72L2775,72L2775,71L2771,71L2771,70L2768,70L2768,69L2764,69L2764,68L2760,68L2760,67L2757,67L2757,66L2753,66L2753,65L2749,65L2749,64L2746,64L2746,63L2742,63L2742,62L2738,62L2738,61L2734,61L2734,60L2730,60L2730,59L2726,59L2726,58L2722,58L2722,57L2718,57L2718,56L2713,56L2713,55L2709,55L2709,54L2705,54L2705,53L2701,53L2701,52L2697,52L2697,51L2693,51L2693,50L2688,50L2688,49L2684,49L2684,48L2679,48L2679,47L2675,47L2675,46L2670,46L2670,45L2665,45L2665,44L2661,44L2661,43L2656,43L2656,42L2652,42L2652,41L2647,41L2647,40L2642,40L2642,39L2637,39L2637,38L2632,38L2632,37L2627,37L2627,36L2621,36L2621,35L2616,35L2616,34L2611,34L2611,33L2606,33L2606,32L2601,32L2601,31L2595,31L2595,30L2589,30L2589,29L2583,29L2583,28L2577,28L2577,27L2571,27L2571,26L2565,26L2565,25L2559,25L2559,24L2553,24L2553,23L2547,23L2547,22L2540,22L2540,21L2533,21L2533,20L2526,20L2526,19L2519,19L2519,18L2511,18L2511,17L2504,17L2504,16L2497,16L2497,15L2488,15L2488,14L2480,14L2480,13L2471,13L2471,12L2462,12L2462,11L2453,11L2453,10L2444,10L2444,9L2433,9L2433,8L2422,8L2422,7L2410,7L2410,6L2399,6L2399,5L2384,5L2384,4L2368,4L2368,3L2353,3L2353,2L2331,2L2331,1L2305,1L2305,0" style="fill:url(#_Radial2);fill-rule:nonzero;"/>
                </g>
            </g>
        </g>
        <g id="path6" transform="matrix(0.133333,0,0,-0.133333,0,564.173)">
            <path d="M166.719,3399.11L1743.84,4079.15C1755.37,4084.13 1768.67,4080.25 1776.04,4069.77L2629.01,2857.09C2640,2841.47 2632.95,2819.23 2615.19,2813.49L2386.61,2739.61C2368.2,2733.66 2361.49,2710.16 2373.78,2694.7L3047.4,1846.73C3060.2,1830.62 3052.3,1806.11 3032.76,1801.3L2740.8,1729.5C2721.3,1724.71 2713.38,1700.28 2726.1,1684.15L3717.46,427.629C3736.42,403.59 3709.53,369.969 3683.4,385.059L1452.07,1673.32C1431.92,1684.95 1434.04,1715.82 1455.58,1724.35L1724.46,1830.84C1744.84,1838.92 1748.18,1867.45 1730.26,1880.38L824.266,2534.42C806.703,2547.09 809.492,2574.96 829.18,2583.59L1036.17,2674.36C1055.93,2683.03 1058.65,2711.03 1040.95,2723.64L161.793,3349.77C144.035,3362.41 146.848,3390.54 166.719,3399.11" style="fill:white;fill-rule:nonzero;"/>
        </g>
        <g id="path7" transform="matrix(0.133333,0,0,-0.133333,0,564.173)">
            <path d="M1754.19,4231.3C1730.08,4231.3 1706.61,4226.45 1684.44,4216.89L107.324,3536.85C48.547,3511.5 7.805,3456 1.004,3392.01C-5.813,3327.86 22.453,3264.86 74.777,3227.59L779.582,2725.63L768.941,2720.96C710.734,2695.44 670.379,2640.11 663.613,2576.58C656.844,2512.88 684.754,2450.13 736.465,2412.8L1462.73,1888.52L1400.34,1863.81C1336.48,1838.52 1293.66,1780.01 1288.6,1711.12C1283.54,1642.1 1317.44,1577.84 1377.08,1543.42L3608.4,255.148C3635.43,239.551 3665.98,231.301 3696.77,231.301C3763.8,231.301 3826.26,270.781 3855.89,331.898C3885.97,393.961 3878.05,466.238 3835.22,520.539L2960.61,1629.09L3068.58,1655.65C3127.43,1670.12 3174.3,1713.17 3194,1770.8C3213.82,1828.84 3202.93,1892.1 3164.85,1940.03L2600.08,2650.96L2661.32,2670.76C2714.64,2688 2757.14,2730.17 2775,2783.59C2792.97,2837.36 2784.26,2897.1 2751.7,2943.39L1898.73,4156.06C1865.59,4203.17 1811.56,4231.3 1754.19,4231.3ZM1754.19,4081.3C1762.62,4081.3 1770.82,4077.19 1776.04,4069.77L2629.01,2857.09C2640,2841.47 2632.95,2819.23 2615.19,2813.49L2386.61,2739.61C2368.2,2733.66 2361.49,2710.15 2373.78,2694.7L3047.4,1846.73C3060.2,1830.62 3052.3,1806.11 3032.76,1801.3L2740.8,1729.5C2721.3,1724.71 2713.38,1700.29 2726.1,1684.15L3717.46,427.629C3733.14,407.75 3717.45,381.301 3696.77,381.301C3692.45,381.301 3687.92,382.449 3683.4,385.059L1452.08,1673.32C1431.92,1684.95 1434.04,1715.82 1455.58,1724.35L1724.46,1830.84C1744.84,1838.92 1748.18,1867.45 1730.26,1880.38L824.266,2534.42C806.703,2547.09 809.492,2574.96 829.18,2583.59L1036.17,2674.36C1055.93,2683.03 1058.65,2711.03 1040.95,2723.64L161.793,3349.77C144.035,3362.41 146.848,3390.54 166.719,3399.11L1743.84,4079.15C1747.2,4080.61 1750.71,4081.3 1754.19,4081.3" style="fill:rgb(4,6,6);fill-rule:nonzero;"/>
        </g>
    </g>
    <g transform="matrix(0.96199,0,0,1.03951,634.434,515.001)">
        <g transform="matrix(611.181,0,0,611.181,0,0)">
            <path d="M0.548,-0.7C0.563,-0.7 0.577,-0.695 0.592,-0.684C0.606,-0.673 0.613,-0.659 0.613,-0.641C0.613,-0.628 0.608,-0.616 0.599,-0.603L0.216,-0.111L0.204,-0.115L0.538,-0.115C0.555,-0.115 0.57,-0.11 0.582,-0.1C0.593,-0.089 0.599,-0.075 0.599,-0.058C0.599,-0.041 0.593,-0.028 0.582,-0.017C0.57,-0.006 0.555,-0 0.538,-0L0.099,-0C0.082,-0 0.067,-0.006 0.054,-0.019C0.041,-0.031 0.035,-0.044 0.035,-0.059C0.035,-0.072 0.04,-0.084 0.049,-0.097L0.433,-0.591L0.442,-0.585L0.139,-0.585C0.122,-0.585 0.107,-0.59 0.096,-0.601C0.084,-0.612 0.078,-0.626 0.078,-0.643C0.078,-0.66 0.084,-0.674 0.096,-0.685C0.107,-0.695 0.122,-0.7 0.139,-0.7L0.548,-0.7Z" style="fill:rgb(0,84,158);fill-rule:nonzero;"/>
        </g>
        <g transform="matrix(611.181,0,0,611.181,392.989,0)">
            <path d="M0.332,-0.543L0.116,-0.035C0.111,-0.022 0.104,-0.012 0.095,-0.006C0.085,0.002 0.074,0.005 0.063,0.005C0.045,0.005 0.032,0 0.023,-0.01C0.014,-0.02 0.01,-0.032 0.01,-0.047C0.01,-0.053 0.011,-0.059 0.013,-0.066L0.262,-0.664C0.267,-0.677 0.276,-0.688 0.287,-0.695C0.298,-0.702 0.309,-0.705 0.322,-0.704C0.334,-0.704 0.345,-0.7 0.356,-0.694C0.366,-0.687 0.373,-0.677 0.378,-0.664L0.624,-0.078C0.627,-0.069 0.629,-0.061 0.629,-0.054C0.629,-0.036 0.623,-0.022 0.612,-0.011C0.6,-0 0.587,0.005 0.573,0.005C0.561,0.005 0.55,0.001 0.541,-0.006C0.531,-0.013 0.523,-0.023 0.518,-0.036L0.303,-0.537L0.332,-0.543ZM0.147,-0.157L0.202,-0.272L0.472,-0.272L0.491,-0.157L0.147,-0.157Z" style="fill:rgb(0,84,158);fill-rule:nonzero;"/>
        </g>
        <g transform="matrix(611.181,0,0,611.181,789.646,0)">
            <path d="M0.364,-0.7C0.399,-0.7 0.431,-0.69 0.462,-0.67C0.492,-0.65 0.516,-0.623 0.535,-0.589C0.554,-0.555 0.563,-0.517 0.563,-0.475C0.563,-0.434 0.554,-0.396 0.535,-0.362C0.516,-0.328 0.492,-0.301 0.462,-0.281C0.431,-0.26 0.399,-0.25 0.364,-0.25L0.18,-0.25L0.19,-0.268L0.19,-0.061C0.19,-0.044 0.185,-0.029 0.174,-0.018C0.163,-0.006 0.149,-0 0.132,-0C0.115,-0 0.102,-0.006 0.091,-0.018C0.08,-0.029 0.075,-0.044 0.075,-0.061L0.075,-0.639C0.075,-0.656 0.081,-0.671 0.093,-0.683C0.104,-0.694 0.119,-0.7 0.136,-0.7L0.364,-0.7ZM0.364,-0.364C0.377,-0.364 0.389,-0.369 0.401,-0.38C0.413,-0.391 0.423,-0.405 0.431,-0.422C0.439,-0.439 0.443,-0.456 0.443,-0.475C0.443,-0.494 0.439,-0.512 0.431,-0.529C0.423,-0.546 0.413,-0.559 0.401,-0.57C0.389,-0.58 0.377,-0.585 0.364,-0.585L0.178,-0.585L0.19,-0.603L0.19,-0.348L0.179,-0.364L0.364,-0.364Z" style="fill:rgb(0,84,158);fill-rule:nonzero;"/>
        </g>
    </g>
    <defs>
        <radialGradient id="_Radial2" cx="0" cy="0" r="1" gradientUnits="userSpaceOnUse" gradientTransform="matrix(1986.61,0,0,-1986.61,2243.22,1986.61)"><stop offset="0" style="stop-color:rgb(85,121,197);stop-opacity:1"/><stop offset="0" style="stop-color:rgb(85,121,197);stop-opacity:1"/><stop offset="1" style="stop-color:rgb(39,90,172);stop-opacity:1"/></radialGradient>
    </defs>
</svg>
