<?xml version="1.0" encoding="UTF-8" standalone="no"?>
<!DOCTYPE svg PUBLIC "-//W3C//DTD SVG 1.1//EN" "http://www.w3.org/Graphics/SVG/1.1/DTD/svg11.dtd">
<svg width="100%" height="100%" viewBox="0 0 167 270" version="1.1" xmlns="http://www.w3.org/2000/svg" xmlns:xlink="http://www.w3.org/1999/xlink" xml:space="preserve" xmlns:serif="http://www.serif.com/" style="fill-rule:evenodd;clip-rule:evenodd;stroke-linejoin:round;stroke-miterlimit:1.41421;">
    <g transform="matrix(0.312504,-4.18361e-05,4.18361e-05,0.312504,-19.3763,71.6098)">
        <g transform="matrix(90,0,0,90,67.8833,632.135)">
            <path d="M0.555,-0.361C0.601,-0.351 0.636,-0.331 0.662,-0.302C0.687,-0.272 0.699,-0.234 0.699,-0.187C0.699,-0.127 0.677,-0.081 0.633,-0.049C0.588,-0.016 0.523,-0 0.436,-0L0.114,-0L0.114,-0.7L0.416,-0.7C0.494,-0.7 0.555,-0.684 0.598,-0.653C0.641,-0.622 0.662,-0.577 0.662,-0.52C0.662,-0.481 0.653,-0.448 0.634,-0.422C0.615,-0.395 0.588,-0.374 0.555,-0.361ZM0.188,-0.639L0.188,-0.385L0.411,-0.385C0.468,-0.385 0.511,-0.396 0.542,-0.418C0.573,-0.439 0.588,-0.471 0.588,-0.512C0.588,-0.553 0.573,-0.585 0.542,-0.607C0.511,-0.628 0.468,-0.639 0.411,-0.639L0.188,-0.639ZM0.435,-0.061C0.498,-0.061 0.545,-0.072 0.577,-0.093C0.609,-0.114 0.625,-0.148 0.625,-0.193C0.625,-0.28 0.562,-0.324 0.435,-0.324L0.188,-0.324L0.188,-0.061L0.435,-0.061Z" style="fill:#94b7e8;fill-rule:nonzero;"/>
        </g>
        <g transform="matrix(90,0,0,90,135.743,632.135)">
            <path d="M0.42,0.006C0.351,0.006 0.288,-0.01 0.232,-0.041C0.175,-0.072 0.131,-0.114 0.1,-0.168C0.068,-0.222 0.052,-0.283 0.052,-0.35C0.052,-0.417 0.068,-0.478 0.1,-0.532C0.131,-0.586 0.175,-0.628 0.232,-0.66C0.288,-0.691 0.351,-0.706 0.42,-0.706C0.489,-0.706 0.552,-0.691 0.608,-0.66C0.663,-0.629 0.707,-0.587 0.739,-0.533C0.771,-0.478 0.787,-0.417 0.787,-0.35C0.787,-0.283 0.771,-0.222 0.739,-0.168C0.707,-0.113 0.663,-0.071 0.608,-0.04C0.552,-0.009 0.489,0.006 0.42,0.006ZM0.42,-0.06C0.475,-0.06 0.525,-0.073 0.57,-0.098C0.615,-0.123 0.65,-0.157 0.675,-0.202C0.7,-0.246 0.713,-0.295 0.713,-0.35C0.713,-0.405 0.7,-0.454 0.675,-0.499C0.65,-0.543 0.615,-0.578 0.57,-0.603C0.525,-0.628 0.475,-0.64 0.42,-0.64C0.365,-0.64 0.315,-0.628 0.27,-0.603C0.225,-0.578 0.189,-0.543 0.164,-0.499C0.138,-0.454 0.125,-0.405 0.125,-0.35C0.125,-0.295 0.138,-0.246 0.164,-0.202C0.189,-0.157 0.225,-0.123 0.27,-0.098C0.315,-0.073 0.365,-0.06 0.42,-0.06Z" style="fill:#94b7e8;fill-rule:nonzero;"/>
        </g>
        <g transform="matrix(90,0,0,90,211.253,632.135)">
            <path d="M0.841,-0.7L0.841,-0L0.77,-0L0.77,-0.56L0.495,-0.089L0.46,-0.089L0.185,-0.557L0.185,-0L0.114,-0L0.114,-0.7L0.175,-0.7L0.479,-0.181L0.78,-0.7L0.841,-0.7Z" style="fill:#94b7e8;fill-rule:nonzero;"/>
        </g>
        <g transform="matrix(90,0,0,90,320.783,632.135)">
            <path d="M0.505,-0.32L0.319,-0.32L0.319,-0.138L0.256,-0.138L0.256,-0.32L0.07,-0.32L0.07,-0.379L0.256,-0.379L0.256,-0.562L0.319,-0.562L0.319,-0.379L0.505,-0.379L0.505,-0.32Z" style="fill-rule:nonzero;"/>
        </g>
        <g transform="matrix(90,0,0,90,396.113,632.135)">
            <path d="M0.696,-0.7L0.386,-0L0.313,-0L0.003,-0.7L0.083,-0.7L0.351,-0.092L0.621,-0.7L0.696,-0.7Z" style="fill:#f18b88;fill-rule:nonzero;"/>
        </g>
        <g transform="matrix(90,0,0,90,457.583,632.135)">
            <path d="M0.609,-0.064L0.609,-0L0.114,-0L0.114,-0.7L0.594,-0.7L0.594,-0.636L0.188,-0.636L0.188,-0.387L0.55,-0.387L0.55,-0.324L0.188,-0.324L0.188,-0.064L0.609,-0.064Z" style="fill:#f18b88;fill-rule:nonzero;"/>
        </g>
        <g transform="matrix(90,0,0,90,516.983,632.135)">
            <path d="M0.553,-0L0.327,-0.308L0.102,-0L0.017,-0L0.283,-0.36L0.034,-0.7L0.119,-0.7L0.33,-0.414L0.54,-0.7L0.62,-0.7L0.372,-0.362L0.639,-0L0.553,-0Z" style="fill:#f18b88;fill-rule:nonzero;"/>
        </g>
    </g>
    <g id="CycloneDX-logo---left" serif:id="CycloneDX logo - left" transform="matrix(0.441375,6.07555e-05,-6.07555e-05,0.441375,-135.866,-126.326)">
        <g id="_-006ca2ff" serif:id="#006ca2ff" transform="matrix(1,0,0,1,325.667,766.452)">
            <path d="M35.632,2.144C38.825,1.428 42.12,1.145 45.386,1.385C50.324,1.735 55.205,3.341 59.256,6.212C61.354,7.689 63.219,9.494 64.777,11.533C63.203,10.598 61.498,9.9 59.755,9.348C56.074,8.2 52.122,7.851 48.315,8.518C47.626,8.645 46.886,8.723 46.308,9.155C46.086,9.315 45.901,9.582 45.966,9.868C46.058,10.275 46.426,10.527 46.734,10.772C50.729,13.614 53.805,17.731 55.368,22.381C56.869,26.794 57.006,31.659 55.753,36.15C55.255,37.949 54.539,39.688 53.627,41.317C53.416,41.725 53.139,42.096 52.964,42.523C52.18,43.927 51.215,45.225 50.167,46.443C47.245,49.82 43.574,52.514 39.554,54.442C36.352,56.036 32.945,57.236 29.429,57.911C25.005,58.76 20.392,58.769 16.003,57.707C13.549,57.116 11.172,56.194 8.978,54.944C6.029,53.268 3.423,50.993 1.367,48.295C3.387,49.481 5.6,50.319 7.867,50.893C11.119,51.706 14.541,51.885 17.849,51.309C18.504,51.183 19.201,51.11 19.766,50.724C20.02,50.561 20.249,50.274 20.177,49.955C20.084,49.548 19.716,49.298 19.409,49.054C15.416,46.209 12.34,42.093 10.776,37.445C9.813,34.61 9.409,31.589 9.579,28.601C9.785,24.751 10.982,20.965 12.998,17.682C13.311,17.007 13.722,16.384 14.135,15.768C17.196,11.338 21.524,7.859 26.348,5.509C29.292,4.02 32.41,2.864 35.632,2.144M32.046,20.255C29.248,20.534 26.624,22.115 25.051,24.442C23.75,26.33 23.168,28.691 23.424,30.969C23.647,33.089 24.602,35.12 26.086,36.649C27.571,38.197 29.585,39.228 31.711,39.521C33.93,39.84 36.255,39.363 38.16,38.177C39.954,37.075 41.371,35.373 42.127,33.408C42.953,31.283 42.993,28.866 42.239,26.715C41.546,24.708 40.167,22.949 38.39,21.787C36.538,20.56 34.253,20.017 32.046,20.255Z" style="fill:none;stroke:#45aaff;stroke-width:2px;"/>
        </g>
        <g transform="matrix(1,0,0,1,325.667,766.452)">
            <path d="M87.297,44.938C84.593,43.45 82.473,41.402 80.937,38.794C79.401,36.186 78.633,33.25 78.633,29.986C78.633,26.722 79.401,23.786 80.937,21.178C82.473,18.57 84.601,16.522 87.321,15.034C90.041,13.546 93.081,12.802 96.441,12.802C99.065,12.802 101.465,13.242 103.641,14.122C105.817,15.002 107.673,16.306 109.209,18.034L106.089,21.058C103.561,18.402 100.409,17.074 96.633,17.074C94.137,17.074 91.881,17.634 89.865,18.754C87.849,19.874 86.273,21.418 85.137,23.386C84.001,25.354 83.433,27.554 83.433,29.986C83.433,32.418 84.001,34.618 85.137,36.586C86.273,38.554 87.849,40.098 89.865,41.218C91.881,42.338 94.137,42.898 96.633,42.898C100.377,42.898 103.529,41.554 106.089,38.866L109.209,41.89C107.673,43.618 105.809,44.93 103.617,45.826C101.425,46.722 99.017,47.17 96.393,47.17C93.033,47.17 90.001,46.426 87.297,44.938Z" style="fill:#222;fill-rule:nonzero;"/>
        </g>
        <g transform="matrix(1,0,0,1,325.667,766.452)">
            <path d="M137.913,21.346L125.577,49.33C124.489,51.922 123.217,53.746 121.761,54.802C120.305,55.858 118.553,56.386 116.505,56.386C115.257,56.386 114.049,56.186 112.881,55.786C111.713,55.386 110.745,54.802 109.977,54.034L111.945,50.578C113.257,51.826 114.777,52.45 116.505,52.45C117.625,52.45 118.561,52.154 119.313,51.562C120.065,50.97 120.745,49.954 121.353,48.514L122.169,46.738L110.937,21.346L115.737,21.346L124.617,41.698L133.401,21.346L137.913,21.346Z" style="fill:#222;fill-rule:nonzero;"/>
        </g>
        <g transform="matrix(1,0,0,1,325.667,766.452)">
            <path d="M145.665,45.394C143.633,44.274 142.041,42.73 140.889,40.762C139.737,38.794 139.161,36.562 139.161,34.066C139.161,31.57 139.737,29.338 140.889,27.37C142.041,25.402 143.633,23.866 145.665,22.762C147.697,21.658 150.009,21.106 152.601,21.106C154.905,21.106 156.961,21.57 158.769,22.498C160.577,23.426 161.977,24.77 162.969,26.53L159.465,28.786C158.665,27.57 157.673,26.658 156.489,26.05C155.305,25.442 153.993,25.138 152.553,25.138C150.889,25.138 149.393,25.506 148.065,26.242C146.737,26.978 145.697,28.026 144.945,29.386C144.193,30.746 143.817,32.306 143.817,34.066C143.817,35.858 144.193,37.434 144.945,38.794C145.697,40.154 146.737,41.202 148.065,41.938C149.393,42.674 150.889,43.042 152.553,43.042C153.993,43.042 155.305,42.738 156.489,42.13C157.673,41.522 158.665,40.61 159.465,39.394L162.969,41.602C161.977,43.362 160.577,44.714 158.769,45.658C156.961,46.602 154.905,47.074 152.601,47.074C150.009,47.074 147.697,46.514 145.665,45.394Z" style="fill:#222;fill-rule:nonzero;"/>
            <rect x="168.585" y="11.17" width="4.608" height="35.616" style="fill:#222;"/>
            <path d="M186.057,45.394C184.041,44.274 182.465,42.73 181.329,40.762C180.193,38.794 179.625,36.562 179.625,34.066C179.625,31.57 180.193,29.338 181.329,27.37C182.465,25.402 184.041,23.866 186.057,22.762C188.073,21.658 190.345,21.106 192.873,21.106C195.401,21.106 197.665,21.658 199.665,22.762C201.665,23.866 203.233,25.402 204.369,27.37C205.505,29.338 206.073,31.57 206.073,34.066C206.073,36.562 205.505,38.794 204.369,40.762C203.233,42.73 201.665,44.274 199.665,45.394C197.665,46.514 195.401,47.074 192.873,47.074C190.345,47.074 188.073,46.514 186.057,45.394ZM197.265,41.914C198.561,41.162 199.577,40.106 200.313,38.746C201.049,37.386 201.417,35.826 201.417,34.066C201.417,32.306 201.049,30.746 200.313,29.386C199.577,28.026 198.561,26.978 197.265,26.242C195.969,25.506 194.505,25.138 192.873,25.138C191.241,25.138 189.777,25.506 188.481,26.242C187.185,26.978 186.161,28.026 185.409,29.386C184.657,30.746 184.281,32.306 184.281,34.066C184.281,35.826 184.657,37.386 185.409,38.746C186.161,40.106 187.185,41.162 188.481,41.914C189.777,42.666 191.241,43.042 192.873,43.042C194.505,43.042 195.969,42.666 197.265,41.914Z" style="fill:#222;fill-rule:nonzero;"/>
            <path d="M233.745,23.914C235.649,25.786 236.601,28.53 236.601,32.146L236.601,46.786L231.993,46.786L231.993,32.674C231.993,30.21 231.401,28.354 230.217,27.106C229.033,25.858 227.337,25.234 225.129,25.234C222.633,25.234 220.665,25.962 219.225,27.418C217.785,28.874 217.065,30.962 217.065,33.682L217.065,46.786L212.457,46.786L212.457,21.346L216.873,21.346L216.873,25.186C217.801,23.874 219.057,22.866 220.641,22.162C222.225,21.458 224.025,21.106 226.041,21.106C229.273,21.106 231.841,22.042 233.745,23.914Z" style="fill:#222;fill-rule:nonzero;"/>
        </g>
        <g transform="matrix(1,0,0,1,325.667,766.452)">
            <path d="M268.185,35.602L247.545,35.602C247.833,37.842 248.817,39.642 250.497,41.002C252.177,42.362 254.265,43.042 256.761,43.042C259.801,43.042 262.249,42.018 264.105,39.97L266.649,42.946C265.497,44.29 264.065,45.314 262.353,46.018C260.641,46.722 258.729,47.074 256.617,47.074C253.929,47.074 251.545,46.522 249.465,45.418C247.385,44.314 245.777,42.77 244.641,40.786C243.505,38.802 242.937,36.562 242.937,34.066C242.937,31.602 243.489,29.378 244.593,27.394C245.697,25.41 247.217,23.866 249.153,22.762C251.089,21.658 253.273,21.106 255.705,21.106C258.137,21.106 260.305,21.658 262.209,22.762C264.113,23.866 265.601,25.41 266.673,27.394C267.745,29.378 268.281,31.65 268.281,34.21C268.281,34.562 268.249,35.026 268.185,35.602ZM250.161,27.01C248.673,28.354 247.801,30.114 247.545,32.29L263.865,32.29C263.609,30.146 262.737,28.394 261.249,27.034C259.761,25.674 257.913,24.994 255.705,24.994C253.497,24.994 251.649,25.666 250.161,27.01Z" style="fill:#222;fill-rule:nonzero;"/>
            <path d="M275.337,13.186L289.497,13.186C293.049,13.186 296.201,13.89 298.953,15.298C301.705,16.706 303.841,18.682 305.361,21.226C306.881,23.77 307.641,26.69 307.641,29.986C307.641,33.282 306.881,36.202 305.361,38.746C303.841,41.29 301.705,43.266 298.953,44.674C296.201,46.082 293.049,46.786 289.497,46.786L275.337,46.786L275.337,13.186ZM289.209,42.61C291.929,42.61 294.321,42.082 296.385,41.026C298.449,39.97 300.041,38.49 301.161,36.586C302.281,34.682 302.841,32.482 302.841,29.986C302.841,27.49 302.281,25.29 301.161,23.386C300.041,21.482 298.449,20.002 296.385,18.946C294.321,17.89 291.929,17.362 289.209,17.362L280.137,17.362L280.137,42.61L289.209,42.61Z" style="fill:#222;fill-rule:nonzero;"/>
            <path d="M334.905,46.786L324.825,32.914L314.889,46.786L309.369,46.786L321.993,29.554L310.137,13.186L315.609,13.186L325.017,26.098L334.329,13.186L339.561,13.186L327.705,29.41L340.425,46.786L334.905,46.786Z" style="fill:#222;fill-rule:nonzero;"/>
        </g>
    </g>
    <g id="Inline-VEX" serif:id="Inline VEX" transform="matrix(0.228518,0,0,0.228518,175.101,-0.603966)">
        <g id="_-3282b8ff" serif:id="#3282b8ff">
            <g transform="matrix(1,0,0,1,-788.719,326.906)">
                <path d="M132.24,89.3C140.22,89.19 148.66,88.14 156.14,91.56C165.9,95.72 172.88,105.59 173.49,116.19C173.67,120.71 173.69,125.25 173.46,129.78C172.7,140.3 165.66,150.01 155.94,154.08C148.75,157.26 140.68,156.49 133.04,156.31C118.98,155.48 106.8,143.07 106.35,128.97C106.33,121.82 105.51,114.35 108.3,107.56C112.12,97.69 121.68,90.31 132.24,89.3M132.8,105.4C127.19,106.35 123.21,111.31 122.17,116.7C122.41,120.99 121.99,125.31 122.52,129.58C123.38,135.55 128.96,140.34 134.98,140.38C139.56,140.48 144.27,140.91 148.74,139.71C154.03,137.98 157.72,132.61 157.57,127.06C157.46,123.37 158.21,119.45 156.95,115.91L157.68,116.41C156.44,110.83 152.01,105.74 146.07,105.27C141.66,105.08 137.19,104.91 132.8,105.4Z" style="fill:#f18b88;fill-rule:nonzero;"/>
            </g>
            <g transform="matrix(2.63782,0,0,1,-1121.18,326.906)">
                <path d="M203,91.92C250.74,91.92 298.47,91.92 346.21,91.93C346.21,97.26 346.22,102.59 346.21,107.92C298.47,107.93 250.74,107.92 203,107.92C202.99,102.59 202.99,97.26 203,91.92Z" style="fill:#f18b88;fill-rule:nonzero;"/>
            </g>
            <g transform="matrix(2.63782,0,0,1,-1121.18,326.906)">
                <path d="M203,137.63C250.74,137.63 298.47,137.63 346.21,137.64C346.22,142.97 346.21,148.3 346.21,153.63C298.48,153.64 250.74,153.63 203,153.64C202.99,148.3 202.99,142.97 203,137.63Z" style="fill:#f18b88;fill-rule:nonzero;"/>
            </g>
            <g transform="matrix(1,0,0,1,-788.719,326.906)">
                <path d="M128.47,196.74C133.86,195.49 139.44,195.89 144.93,195.91C155.5,195.97 165.69,202.32 170.39,211.78C174.3,218.89 173.64,227.2 173.55,235.01C173.36,245.85 166.47,256.17 156.58,260.58C149.25,264.07 140.89,263.32 133.02,263.1C119.06,262.28 106.96,250.01 106.36,236.03C106.34,229 105.51,221.67 108.07,214.94C111.32,206 119.21,198.94 128.47,196.74M127.55,214.53C124.54,216.61 123.03,220.07 122.18,223.52C122.68,230.08 120.68,237.94 125.91,243.14C130.73,248.45 138.5,247.26 144.93,247.17C151.43,247.13 157.27,241.53 157.5,235.02C157.6,230.95 158.08,226.75 157.07,222.77L157.63,223.14C156.44,217.17 151.32,212.03 145.04,211.95C139.21,212.01 132.55,210.73 127.55,214.53Z" style="fill:#f18b88;fill-rule:nonzero;"/>
            </g>
            <g transform="matrix(2.63782,0,0,1,-1121.18,326.906)">
                <path d="M203,198.71L346.21,198.71C346.22,204.05 346.21,209.38 346.21,214.71L203,214.71C202.99,209.38 202.99,204.04 203,198.71Z" style="fill:#f18b88;fill-rule:nonzero;"/>
            </g>
            <g transform="matrix(2.63782,0,0,1,-1121.18,326.906)">
                <path d="M203,244.42C250.74,244.43 298.48,244.42 346.21,244.43C346.21,249.76 346.22,255.09 346.21,260.42C298.47,260.43 250.73,260.43 203,260.43C202.99,255.09 202.99,249.76 203,244.42Z" style="fill:#f18b88;fill-rule:nonzero;"/>
            </g>
            <g transform="matrix(1,0,0,1,-788.719,326.906)">
                <path d="M127.44,303.81C133.14,302.19 139.12,302.71 144.97,302.71C155.54,302.76 165.71,309.16 170.41,318.61C174.47,326.09 173.64,334.84 173.48,343.03C172.78,355.87 162.52,367.34 149.86,369.51C144.24,370.36 138.52,370.14 132.86,369.89C121.89,369.1 111.86,361.39 108.11,351.07C105.59,344.66 106.34,337.64 106.31,330.91C106.45,318.52 115.52,307.04 127.44,303.81M127.39,321.44C124.47,323.51 123.06,326.91 122.1,330.23L123.64,329.26C121.82,330.52 122.39,333.05 122.21,334.94C122.31,339.22 121.76,343.93 124.19,347.73C126.6,351.81 131.32,354.15 136.01,354.04C142.11,354.1 149.42,355 153.94,349.95C159.26,344.62 157.18,336.57 157.62,329.86C156.38,323.92 151.28,318.79 145.01,318.75C139.13,318.83 132.37,317.51 127.39,321.44Z" style="fill:#f18b88;fill-rule:nonzero;"/>
            </g>
            <g transform="matrix(2.63782,0,0,1,-1121.18,326.906)">
                <path d="M203,305.51L346.21,305.51C346.22,310.84 346.21,316.18 346.21,321.51C298.48,321.52 250.74,321.51 203,321.52C202.98,316.18 202.99,310.84 203,305.51Z" style="fill:#f18b88;fill-rule:nonzero;"/>
            </g>
            <g transform="matrix(2.63782,0,0,1,-1121.18,326.906)">
                <path d="M203,351.22L346.21,351.22C346.22,356.55 346.21,361.88 346.21,367.22C298.47,367.23 250.74,367.22 203,367.22C202.99,361.89 202.99,356.55 203,351.22Z" style="fill:#f18b88;fill-rule:nonzero;"/>
            </g>
        </g>
        <g id="_-5fb8e0ff" serif:id="#5fb8e0ff">
            <g transform="matrix(1,0,0,1,-788.719,326.906)">
                <path d="M122.17,116.7C125.87,113.96 130.25,111.98 134.94,111.98C142.38,111.87 150.68,111.04 156.95,115.91C158.21,119.45 157.46,123.37 157.57,127.06C157.72,132.61 154.03,137.98 148.74,139.71C144.27,140.91 139.56,140.48 134.98,140.38C128.96,140.34 123.38,135.55 122.52,129.58C121.99,125.31 122.41,120.99 122.17,116.7Z" style="fill:#fcc;fill-rule:nonzero;"/>
            </g>
            <g transform="matrix(1,0,0,1,-788.719,326.906)">
                <path d="M122.18,223.52C125.6,220.95 129.61,219.03 133.93,218.84C141.74,218.66 150.45,217.69 157.07,222.77C158.08,226.75 157.6,230.95 157.5,235.02C157.27,241.53 151.43,247.13 144.93,247.17C138.5,247.26 130.73,248.45 125.91,243.14C120.68,237.94 122.68,230.08 122.18,223.52Z" style="fill:#fcc;fill-rule:nonzero;"/>
            </g>
            <g transform="matrix(1,0,0,1,-788.719,326.906)">
                <path d="M123.64,329.26C126.7,327.18 130.28,325.83 134,325.63C142.02,325.35 150.86,324.64 157.62,329.86C157.18,336.57 159.26,344.62 153.94,349.95C149.42,355 142.11,354.1 136.01,354.04C131.32,354.15 126.6,351.81 124.19,347.73C121.76,343.93 122.31,339.22 122.21,334.94C122.39,333.05 121.82,330.52 123.64,329.26Z" style="fill:#fcc;fill-rule:nonzero;"/>
            </g>
        </g>
    </g>
    <g id="BOM-Doc" serif:id="BOM Doc" transform="matrix(0.228518,0,0,0.228518,-5.61827,0.482492)">
        <g id="_-3282b8ff1" serif:id="#3282b8ff">
            <g transform="matrix(1.83727,0,0,1.83727,-79.9882,-41.4649)">
                <path d="M63.41,21.65C66.25,21.29 69.13,21.5 71.98,21.47C181,21.47 290.02,21.47 399.03,21.46C403.39,21.01 407.85,24.37 407.96,28.88C408.17,38.96 407.98,49.05 408.05,59.13C421.05,59.19 434.06,59.04 447.06,59.2C451.5,59.23 455.04,63.52 454.65,67.86C454.66,208.91 454.67,349.96 454.65,491C454.9,494.84 452.22,498.69 448.38,499.41C445.61,499.86 442.79,499.63 440.01,499.67C330.7,499.65 221.39,499.7 112.08,499.65C107.81,499.9 103.65,496.41 103.62,492.04C103.46,482.03 103.61,472.02 103.56,462.01C91.37,462 79.18,461.99 66.99,462.01C64.05,462.13 60.78,461.57 58.85,459.13C56.36,456.35 57.03,452.39 56.93,448.98C56.98,309.3 56.91,169.62 56.96,29.93C56.72,26.08 59.55,22.27 63.41,21.65M72.95,37.47C72.94,173.62 72.94,309.78 72.95,445.93L327.1,445.93C327.14,427.3 327.03,408.66 327.15,390.03C327.12,385.88 330.84,382.22 334.98,382.31C354,382.21 373.02,382.3 392.05,382.27C392.05,267.33 392.05,152.4 392.04,37.47C285.68,37.46 179.31,37.46 72.95,37.47M408.05,75.13C408.04,201.12 408.05,327.1 408.04,453.08C408.58,458.09 404.02,462.53 399.04,461.99C305.88,462.01 212.71,461.99 119.55,462L119.55,483.66C225.92,483.68 332.29,483.66 438.66,483.67C438.67,347.49 438.66,211.31 438.67,75.14C428.46,75.13 418.25,75.14 408.05,75.13M343.1,398.26C343.09,401.4 343.1,404.55 343.11,407.69C343.08,420.46 343.08,433.22 343.11,445.98C359,446.01 374.89,446.02 390.78,445.97C390.79,433.21 390.8,420.45 390.78,407.69C390.78,404.55 390.79,401.4 390.78,398.26C374.89,398.26 358.99,398.27 343.1,398.26Z" style="fill:#94b7e8;fill-rule:nonzero;"/>
            </g>
            <path d="M132.24,89.3C140.22,89.19 148.66,88.14 156.14,91.56C165.9,95.72 172.88,105.59 173.49,116.19C173.67,120.71 173.69,125.25 173.46,129.78C172.7,140.3 165.66,150.01 155.94,154.08C148.75,157.26 140.68,156.49 133.04,156.31C118.98,155.48 106.8,143.07 106.35,128.97C106.33,121.82 105.51,114.35 108.3,107.56C112.12,97.69 121.68,90.31 132.24,89.3M132.8,105.4C127.19,106.35 123.21,111.31 122.17,116.7C122.41,120.99 121.99,125.31 122.52,129.58C123.38,135.55 128.96,140.34 134.98,140.38C139.56,140.48 144.27,140.91 148.74,139.71C154.03,137.98 157.72,132.61 157.57,127.06C157.46,123.37 158.21,119.45 156.95,115.91L157.68,116.41C156.44,110.83 152.01,105.74 146.07,105.27C141.66,105.08 137.19,104.91 132.8,105.4Z" style="fill:#94b7e8;fill-rule:nonzero;"/>
            <g transform="matrix(2.6704,0,0,1,-339.071,0)">
                <path d="M203,91.92C250.74,91.92 298.47,91.92 346.21,91.93C346.21,97.26 346.22,102.59 346.21,107.92C298.47,107.93 250.74,107.92 203,107.92C202.99,102.59 202.99,97.26 203,91.92Z" style="fill:#94b7e8;fill-rule:nonzero;"/>
            </g>
            <g transform="matrix(2.6704,0,0,1,-339.071,0)">
                <path d="M203,137.63C250.74,137.63 298.47,137.63 346.21,137.64C346.22,142.97 346.21,148.3 346.21,153.63C298.48,153.64 250.74,153.63 203,153.64C202.99,148.3 202.99,142.97 203,137.63Z" style="fill:#94b7e8;fill-rule:nonzero;"/>
            </g>
            <path d="M128.47,196.74C133.86,195.49 139.44,195.89 144.93,195.91C155.5,195.97 165.69,202.32 170.39,211.78C174.3,218.89 173.64,227.2 173.55,235.01C173.36,245.85 166.47,256.17 156.58,260.58C149.25,264.07 140.89,263.32 133.02,263.1C119.06,262.28 106.96,250.01 106.36,236.03C106.34,229 105.51,221.67 108.07,214.94C111.32,206 119.21,198.94 128.47,196.74M127.55,214.53C124.54,216.61 123.03,220.07 122.18,223.52C122.68,230.08 120.68,237.94 125.91,243.14C130.73,248.45 138.5,247.26 144.93,247.17C151.43,247.13 157.27,241.53 157.5,235.02C157.6,230.95 158.08,226.75 157.07,222.77L157.63,223.14C156.44,217.17 151.32,212.03 145.04,211.95C139.21,212.01 132.55,210.73 127.55,214.53Z" style="fill:#94b7e8;fill-rule:nonzero;"/>
            <g transform="matrix(2.6704,0,0,1,-339.071,0)">
                <path d="M203,198.71L346.21,198.71C346.22,204.05 346.21,209.38 346.21,214.71L203,214.71C202.99,209.38 202.99,204.04 203,198.71Z" style="fill:#94b7e8;fill-rule:nonzero;"/>
            </g>
            <g transform="matrix(2.6704,0,0,1,-339.071,0)">
                <path d="M203,244.42C250.74,244.43 298.48,244.42 346.21,244.43C346.21,249.76 346.22,255.09 346.21,260.42C298.47,260.43 250.73,260.43 203,260.43C202.99,255.09 202.99,249.76 203,244.42Z" style="fill:#94b7e8;fill-rule:nonzero;"/>
            </g>
            <path d="M127.44,303.81C133.14,302.19 139.12,302.71 144.97,302.71C155.54,302.76 165.71,309.16 170.41,318.61C174.47,326.09 173.64,334.84 173.48,343.03C172.78,355.87 162.52,367.34 149.86,369.51C144.24,370.36 138.52,370.14 132.86,369.89C121.89,369.1 111.86,361.39 108.11,351.07C105.59,344.66 106.34,337.64 106.31,330.91C106.45,318.52 115.52,307.04 127.44,303.81M127.39,321.44C124.47,323.51 123.06,326.91 122.1,330.23L123.64,329.26C121.82,330.52 122.39,333.05 122.21,334.94C122.31,339.22 121.76,343.93 124.19,347.73C126.6,351.81 131.32,354.15 136.01,354.04C142.11,354.1 149.42,355 153.94,349.95C159.26,344.62 157.18,336.57 157.62,329.86C156.38,323.92 151.28,318.79 145.01,318.75C139.13,318.83 132.37,317.51 127.39,321.44Z" style="fill:#94b7e8;fill-rule:nonzero;"/>
            <g transform="matrix(2.6704,0,0,1,-339.071,0)">
                <path d="M203,305.51L346.21,305.51C346.22,310.84 346.21,316.18 346.21,321.51C298.48,321.52 250.74,321.51 203,321.52C202.98,316.18 202.99,310.84 203,305.51Z" style="fill:#94b7e8;fill-rule:nonzero;"/>
            </g>
            <g transform="matrix(2.6704,0,0,1,-339.071,0)">
                <path d="M203,351.22L346.21,351.22C346.22,356.55 346.21,361.88 346.21,367.22C298.47,367.23 250.74,367.22 203,367.22C202.99,361.89 202.99,356.55 203,351.22Z" style="fill:#94b7e8;fill-rule:nonzero;"/>
            </g>
        </g>
        <g id="_-5fb8e0ff1" serif:id="#5fb8e0ff">
            <path d="M122.17,116.7C125.87,113.96 130.25,111.98 134.94,111.98C142.38,111.87 150.68,111.04 156.95,115.91C158.21,119.45 157.46,123.37 157.57,127.06C157.72,132.61 154.03,137.98 148.74,139.71C144.27,140.91 139.56,140.48 134.98,140.38C128.96,140.34 123.38,135.55 122.52,129.58C121.99,125.31 122.41,120.99 122.17,116.7Z" style="fill:#cce5ff;fill-rule:nonzero;"/>
            <path d="M122.18,223.52C125.6,220.95 129.61,219.03 133.93,218.84C141.74,218.66 150.45,217.69 157.07,222.77C158.08,226.75 157.6,230.95 157.5,235.02C157.27,241.53 151.43,247.13 144.93,247.17C138.5,247.26 130.73,248.45 125.91,243.14C120.68,237.94 122.68,230.08 122.18,223.52Z" style="fill:#cce5ff;fill-rule:nonzero;"/>
            <path d="M123.64,329.26C126.7,327.18 130.28,325.83 134,325.63C142.02,325.35 150.86,324.64 157.62,329.86C157.18,336.57 159.26,344.62 153.94,349.95C149.42,355 142.11,354.1 136.01,354.04C131.32,354.15 126.6,351.81 124.19,347.73C121.76,343.93 122.31,339.22 122.21,334.94C122.39,333.05 121.82,330.52 123.64,329.26Z" style="fill:#cce5ff;fill-rule:nonzero;"/>
            <g transform="matrix(1.83354,0,0,1.72686,-78.5639,7.66894)">
                <path d="M343.11,407.69C359,407.68 374.89,407.68 390.78,407.69C390.8,420.45 390.79,433.21 390.78,445.97C374.89,446.02 359,446.01 343.11,445.98C343.08,433.22 343.08,420.46 343.11,407.69Z" style="fill:#cce5ff;fill-rule:nonzero;"/>
            </g>
        </g>
    </g>
</svg>
