<?xml version="1.0" encoding="UTF-8" standalone="no"?>
<!DOCTYPE svg PUBLIC "-//W3C//DTD SVG 1.1//EN" "http://www.w3.org/Graphics/SVG/1.1/DTD/svg11.dtd">
<svg width="100%" height="100%" viewBox="0 0 1100 300" version="1.1" xmlns="http://www.w3.org/2000/svg" xmlns:xlink="http://www.w3.org/1999/xlink" xml:space="preserve" xmlns:serif="http://www.serif.com/" style="fill-rule:evenodd;clip-rule:evenodd;stroke-linejoin:round;stroke-miterlimit:1.41421;">
    <g transform="matrix(1,0,0,1,598.045,0)">
        <g id="CycloneDX-BOM" serif:id="CycloneDX BOM" transform="matrix(1,0,0,1,-99.4463,-89.2267)">
            <g transform="matrix(0.960217,0,0,0.669334,3.95631,33.0767)">
                <path d="M622.198,122.541C622.198,110.117 615.167,100.031 606.507,100.031L115.138,100.031C106.477,100.031 99.446,110.117 99.446,122.541L99.446,493.444C99.446,505.868 106.477,515.955 115.138,515.955L606.507,515.955C615.167,515.955 622.198,505.868 622.198,493.444L622.198,122.541Z" style="fill:rgb(235,235,235);"/>
            </g>
            <g transform="matrix(1,0,0,1,104.646,9.99563)">
                <g transform="matrix(18.6667,0,0,18.6667,138.805,125.657)">
                    <path d="M0.173,-0.407L0.173,-0.634L0.363,-0.634C0.384,-0.634 0.403,-0.633 0.422,-0.631C0.44,-0.628 0.456,-0.623 0.47,-0.615C0.484,-0.607 0.495,-0.596 0.503,-0.581C0.511,-0.566 0.515,-0.546 0.515,-0.521C0.515,-0.483 0.503,-0.455 0.48,-0.436C0.456,-0.417 0.417,-0.407 0.363,-0.407L0.173,-0.407ZM0.078,-0.714L0.078,-0L0.423,-0C0.458,-0 0.49,-0.006 0.517,-0.018C0.544,-0.029 0.566,-0.045 0.585,-0.064C0.603,-0.083 0.617,-0.104 0.626,-0.129C0.635,-0.154 0.64,-0.179 0.64,-0.205C0.64,-0.249 0.628,-0.286 0.605,-0.317C0.582,-0.348 0.548,-0.368 0.504,-0.377L0.504,-0.379C0.538,-0.392 0.564,-0.413 0.583,-0.441C0.601,-0.468 0.61,-0.501 0.61,-0.539C0.61,-0.575 0.602,-0.605 0.586,-0.63C0.569,-0.655 0.549,-0.674 0.526,-0.688C0.515,-0.695 0.503,-0.7 0.488,-0.703C0.472,-0.706 0.456,-0.709 0.439,-0.711C0.422,-0.712 0.404,-0.713 0.387,-0.714C0.369,-0.714 0.352,-0.714 0.337,-0.714L0.078,-0.714ZM0.173,-0.08L0.173,-0.327L0.39,-0.327C0.41,-0.327 0.429,-0.325 0.448,-0.322C0.467,-0.318 0.483,-0.312 0.498,-0.303C0.512,-0.294 0.523,-0.281 0.532,-0.266C0.541,-0.251 0.545,-0.231 0.545,-0.208C0.545,-0.168 0.533,-0.137 0.51,-0.114C0.486,-0.091 0.453,-0.08 0.411,-0.08L0.173,-0.08Z" style="fill:rgb(34,34,34);fill-rule:nonzero;"/>
                </g>
                <g transform="matrix(18.6667,0,0,18.6667,151.591,125.657)">
                    <path d="M0.133,-0.357C0.133,-0.393 0.138,-0.429 0.147,-0.464C0.156,-0.499 0.171,-0.53 0.191,-0.558C0.211,-0.586 0.237,-0.608 0.268,-0.626C0.299,-0.643 0.337,-0.651 0.38,-0.651C0.423,-0.651 0.461,-0.643 0.492,-0.626C0.523,-0.608 0.549,-0.586 0.569,-0.558C0.589,-0.53 0.604,-0.499 0.613,-0.464C0.622,-0.429 0.627,-0.393 0.627,-0.357C0.627,-0.321 0.622,-0.286 0.613,-0.251C0.604,-0.216 0.589,-0.184 0.569,-0.156C0.549,-0.128 0.523,-0.106 0.492,-0.089C0.461,-0.071 0.423,-0.063 0.38,-0.063C0.337,-0.063 0.299,-0.071 0.268,-0.089C0.237,-0.106 0.211,-0.128 0.191,-0.156C0.171,-0.184 0.156,-0.216 0.147,-0.251C0.138,-0.286 0.133,-0.321 0.133,-0.357ZM0.038,-0.357C0.038,-0.308 0.045,-0.262 0.06,-0.217C0.074,-0.171 0.095,-0.132 0.124,-0.097C0.153,-0.062 0.188,-0.035 0.231,-0.015C0.274,0.006 0.323,0.016 0.38,0.016C0.437,0.016 0.486,0.006 0.529,-0.015C0.572,-0.035 0.607,-0.062 0.636,-0.097C0.665,-0.132 0.686,-0.171 0.701,-0.217C0.715,-0.262 0.722,-0.308 0.722,-0.357C0.722,-0.406 0.715,-0.452 0.701,-0.498C0.686,-0.543 0.665,-0.582 0.636,-0.617C0.607,-0.652 0.572,-0.679 0.529,-0.7C0.486,-0.721 0.437,-0.731 0.38,-0.731C0.323,-0.731 0.274,-0.721 0.231,-0.7C0.188,-0.679 0.153,-0.652 0.124,-0.617C0.095,-0.582 0.074,-0.543 0.06,-0.498C0.045,-0.452 0.038,-0.406 0.038,-0.357Z" style="fill:rgb(34,34,34);fill-rule:nonzero;"/>
                </g>
                <g transform="matrix(18.6667,0,0,18.6667,165.778,125.657)">
                    <path d="M0.08,-0.714L0.08,-0L0.17,-0L0.17,-0.594L0.172,-0.594L0.395,-0L0.476,-0L0.699,-0.594L0.701,-0.594L0.701,-0L0.791,-0L0.791,-0.714L0.661,-0.714L0.435,-0.114L0.21,-0.714L0.08,-0.714Z" style="fill:rgb(34,34,34);fill-rule:nonzero;"/>
                </g>
            </g>
            <g id="CycloneDX-Logo" serif:id="CycloneDX Logo" transform="matrix(0.0836947,0,0,0.0836947,119.166,119.032)">
                <g id="_-006ca2ff" serif:id="#006ca2ff" transform="matrix(4.16667,0,0,4.16667,-4.32883,-4.12072)">
                    <path d="M35.632,2.144C38.825,1.428 42.12,1.145 45.386,1.385C50.324,1.735 55.205,3.341 59.256,6.212C61.354,7.689 63.219,9.494 64.777,11.533C63.203,10.598 61.498,9.9 59.755,9.348C56.074,8.2 52.122,7.851 48.315,8.518C47.626,8.645 46.886,8.723 46.308,9.155C46.086,9.315 45.901,9.582 45.966,9.868C46.058,10.275 46.426,10.527 46.734,10.772C50.729,13.614 53.805,17.731 55.368,22.381C56.869,26.794 57.006,31.659 55.753,36.15C55.255,37.949 54.539,39.688 53.627,41.317C53.416,41.725 53.139,42.096 52.964,42.523C52.18,43.927 51.215,45.225 50.167,46.443C47.245,49.82 43.574,52.514 39.554,54.442C36.352,56.036 32.945,57.236 29.429,57.911C25.005,58.76 20.392,58.769 16.003,57.707C13.549,57.116 11.172,56.194 8.978,54.944C6.029,53.268 3.423,50.993 1.367,48.295C3.387,49.481 5.6,50.319 7.867,50.893C11.119,51.706 14.541,51.885 17.849,51.309C18.504,51.183 19.201,51.11 19.766,50.724C20.02,50.561 20.249,50.274 20.177,49.955C20.084,49.548 19.716,49.298 19.409,49.054C15.416,46.209 12.34,42.093 10.776,37.445C9.813,34.61 9.409,31.589 9.579,28.601C9.785,24.751 10.982,20.965 12.998,17.682C13.311,17.007 13.722,16.384 14.135,15.768C17.196,11.338 21.524,7.859 26.348,5.509C29.292,4.02 32.41,2.864 35.632,2.144M32.046,20.255C29.248,20.534 26.624,22.115 25.051,24.442C23.75,26.33 23.168,28.691 23.424,30.969C23.647,33.089 24.602,35.12 26.086,36.649C27.571,38.197 29.585,39.228 31.711,39.521C33.93,39.84 36.255,39.363 38.16,38.177C39.954,37.075 41.371,35.373 42.127,33.408C42.953,31.283 42.993,28.866 42.239,26.715C41.546,24.708 40.167,22.949 38.39,21.787C36.538,20.56 34.253,20.017 32.046,20.255Z" style="fill:none;stroke:rgb(69,170,255);stroke-width:2px;"/>
                </g>
                <g transform="matrix(4.16667,0,0,4.16667,-4.32883,-4.12072)">
                    <path d="M87.297,44.938C84.593,43.45 82.473,41.402 80.937,38.794C79.401,36.186 78.633,33.25 78.633,29.986C78.633,26.722 79.401,23.786 80.937,21.178C82.473,18.57 84.601,16.522 87.321,15.034C90.041,13.546 93.081,12.802 96.441,12.802C99.065,12.802 101.465,13.242 103.641,14.122C105.817,15.002 107.673,16.306 109.209,18.034L106.089,21.058C103.561,18.402 100.409,17.074 96.633,17.074C94.137,17.074 91.881,17.634 89.865,18.754C87.849,19.874 86.273,21.418 85.137,23.386C84.001,25.354 83.433,27.554 83.433,29.986C83.433,32.418 84.001,34.618 85.137,36.586C86.273,38.554 87.849,40.098 89.865,41.218C91.881,42.338 94.137,42.898 96.633,42.898C100.377,42.898 103.529,41.554 106.089,38.866L109.209,41.89C107.673,43.618 105.809,44.93 103.617,45.826C101.425,46.722 99.017,47.17 96.393,47.17C93.033,47.17 90.001,46.426 87.297,44.938Z" style="fill-rule:nonzero;"/>
                </g>
                <g transform="matrix(4.16667,0,0,4.16667,-4.32883,-4.12072)">
                    <path d="M137.913,21.346L125.577,49.33C124.489,51.922 123.217,53.746 121.761,54.802C120.305,55.858 118.553,56.386 116.505,56.386C115.257,56.386 114.049,56.186 112.881,55.786C111.713,55.386 110.745,54.802 109.977,54.034L111.945,50.578C113.257,51.826 114.777,52.45 116.505,52.45C117.625,52.45 118.561,52.154 119.313,51.562C120.065,50.97 120.745,49.954 121.353,48.514L122.169,46.738L110.937,21.346L115.737,21.346L124.617,41.698L133.401,21.346L137.913,21.346Z" style="fill-rule:nonzero;"/>
                </g>
                <g transform="matrix(4.16667,0,0,4.16667,-4.32883,-4.12072)">
                    <path d="M145.665,45.394C143.633,44.274 142.041,42.73 140.889,40.762C139.737,38.794 139.161,36.562 139.161,34.066C139.161,31.57 139.737,29.338 140.889,27.37C142.041,25.402 143.633,23.866 145.665,22.762C147.697,21.658 150.009,21.106 152.601,21.106C154.905,21.106 156.961,21.57 158.769,22.498C160.577,23.426 161.977,24.77 162.969,26.53L159.465,28.786C158.665,27.57 157.673,26.658 156.489,26.05C155.305,25.442 153.993,25.138 152.553,25.138C150.889,25.138 149.393,25.506 148.065,26.242C146.737,26.978 145.697,28.026 144.945,29.386C144.193,30.746 143.817,32.306 143.817,34.066C143.817,35.858 144.193,37.434 144.945,38.794C145.697,40.154 146.737,41.202 148.065,41.938C149.393,42.674 150.889,43.042 152.553,43.042C153.993,43.042 155.305,42.738 156.489,42.13C157.673,41.522 158.665,40.61 159.465,39.394L162.969,41.602C161.977,43.362 160.577,44.714 158.769,45.658C156.961,46.602 154.905,47.074 152.601,47.074C150.009,47.074 147.697,46.514 145.665,45.394Z" style="fill-rule:nonzero;"/>
                    <rect x="168.585" y="11.17" width="4.608" height="35.616"/>
                    <path d="M186.057,45.394C184.041,44.274 182.465,42.73 181.329,40.762C180.193,38.794 179.625,36.562 179.625,34.066C179.625,31.57 180.193,29.338 181.329,27.37C182.465,25.402 184.041,23.866 186.057,22.762C188.073,21.658 190.345,21.106 192.873,21.106C195.401,21.106 197.665,21.658 199.665,22.762C201.665,23.866 203.233,25.402 204.369,27.37C205.505,29.338 206.073,31.57 206.073,34.066C206.073,36.562 205.505,38.794 204.369,40.762C203.233,42.73 201.665,44.274 199.665,45.394C197.665,46.514 195.401,47.074 192.873,47.074C190.345,47.074 188.073,46.514 186.057,45.394ZM197.265,41.914C198.561,41.162 199.577,40.106 200.313,38.746C201.049,37.386 201.417,35.826 201.417,34.066C201.417,32.306 201.049,30.746 200.313,29.386C199.577,28.026 198.561,26.978 197.265,26.242C195.969,25.506 194.505,25.138 192.873,25.138C191.241,25.138 189.777,25.506 188.481,26.242C187.185,26.978 186.161,28.026 185.409,29.386C184.657,30.746 184.281,32.306 184.281,34.066C184.281,35.826 184.657,37.386 185.409,38.746C186.161,40.106 187.185,41.162 188.481,41.914C189.777,42.666 191.241,43.042 192.873,43.042C194.505,43.042 195.969,42.666 197.265,41.914Z" style="fill-rule:nonzero;"/>
                    <path d="M233.745,23.914C235.649,25.786 236.601,28.53 236.601,32.146L236.601,46.786L231.993,46.786L231.993,32.674C231.993,30.21 231.401,28.354 230.217,27.106C229.033,25.858 227.337,25.234 225.129,25.234C222.633,25.234 220.665,25.962 219.225,27.418C217.785,28.874 217.065,30.962 217.065,33.682L217.065,46.786L212.457,46.786L212.457,21.346L216.873,21.346L216.873,25.186C217.801,23.874 219.057,22.866 220.641,22.162C222.225,21.458 224.025,21.106 226.041,21.106C229.273,21.106 231.841,22.042 233.745,23.914Z" style="fill-rule:nonzero;"/>
                </g>
                <g transform="matrix(4.16667,0,0,4.16667,-4.32883,-4.12072)">
                    <path d="M268.185,35.602L247.545,35.602C247.833,37.842 248.817,39.642 250.497,41.002C252.177,42.362 254.265,43.042 256.761,43.042C259.801,43.042 262.249,42.018 264.105,39.97L266.649,42.946C265.497,44.29 264.065,45.314 262.353,46.018C260.641,46.722 258.729,47.074 256.617,47.074C253.929,47.074 251.545,46.522 249.465,45.418C247.385,44.314 245.777,42.77 244.641,40.786C243.505,38.802 242.937,36.562 242.937,34.066C242.937,31.602 243.489,29.378 244.593,27.394C245.697,25.41 247.217,23.866 249.153,22.762C251.089,21.658 253.273,21.106 255.705,21.106C258.137,21.106 260.305,21.658 262.209,22.762C264.113,23.866 265.601,25.41 266.673,27.394C267.745,29.378 268.281,31.65 268.281,34.21C268.281,34.562 268.249,35.026 268.185,35.602ZM250.161,27.01C248.673,28.354 247.801,30.114 247.545,32.29L263.865,32.29C263.609,30.146 262.737,28.394 261.249,27.034C259.761,25.674 257.913,24.994 255.705,24.994C253.497,24.994 251.649,25.666 250.161,27.01Z" style="fill-rule:nonzero;"/>
                    <path d="M275.337,13.186L289.497,13.186C293.049,13.186 296.201,13.89 298.953,15.298C301.705,16.706 303.841,18.682 305.361,21.226C306.881,23.77 307.641,26.69 307.641,29.986C307.641,33.282 306.881,36.202 305.361,38.746C303.841,41.29 301.705,43.266 298.953,44.674C296.201,46.082 293.049,46.786 289.497,46.786L275.337,46.786L275.337,13.186ZM289.209,42.61C291.929,42.61 294.321,42.082 296.385,41.026C298.449,39.97 300.041,38.49 301.161,36.586C302.281,34.682 302.841,32.482 302.841,29.986C302.841,27.49 302.281,25.29 301.161,23.386C300.041,21.482 298.449,20.002 296.385,18.946C294.321,17.89 291.929,17.362 289.209,17.362L280.137,17.362L280.137,42.61L289.209,42.61Z" style="fill-rule:nonzero;"/>
                    <path d="M334.905,46.786L324.825,32.914L314.889,46.786L309.369,46.786L321.993,29.554L310.137,13.186L315.609,13.186L325.017,26.098L334.329,13.186L339.561,13.186L327.705,29.41L340.425,46.786L334.905,46.786Z" style="fill-rule:nonzero;"/>
                </g>
            </g>
        </g>
        <g id="Vulnerabilities" transform="matrix(1.04367,0,0,1,-125.503,-89.2267)">
            <g transform="matrix(0.846833,0,0,0.524836,55.1701,107.631)">
                <path d="M622.198,122.541C622.198,110.117 616.208,100.031 608.831,100.031L112.814,100.031C105.436,100.031 99.446,110.117 99.446,122.541L99.446,493.444C99.446,505.868 105.436,515.955 112.814,515.955L608.831,515.955C616.208,515.955 622.198,505.868 622.198,493.444L622.198,122.541Z" style="fill:rgb(204,229,255);"/>
            </g>
            <g transform="matrix(1,0,0,1,-177.294,115.611)">
                <g transform="matrix(18.6667,0,0,18.6667,335.616,77.1686)">
                    <path d="M0.359,-0L0.613,-0.714L0.514,-0.714L0.308,-0.095L0.306,-0.095L0.102,-0.714L0,-0.714L0.251,-0L0.359,-0Z" style="fill:rgb(34,34,34);fill-rule:nonzero;"/>
                </g>
                <g transform="matrix(18.6667,0,0,18.6667,346.331,77.1686)">
                    <path d="M0.492,-0L0.492,-0.517L0.407,-0.517L0.407,-0.225C0.407,-0.202 0.404,-0.18 0.398,-0.161C0.391,-0.141 0.382,-0.124 0.369,-0.109C0.356,-0.094 0.341,-0.083 0.322,-0.075C0.303,-0.067 0.28,-0.063 0.254,-0.063C0.221,-0.063 0.196,-0.072 0.177,-0.091C0.158,-0.11 0.149,-0.135 0.149,-0.167L0.149,-0.517L0.064,-0.517L0.064,-0.177C0.064,-0.149 0.067,-0.124 0.073,-0.101C0.078,-0.078 0.088,-0.058 0.102,-0.041C0.116,-0.024 0.134,-0.012 0.157,-0.003C0.18,0.007 0.208,0.011 0.242,0.011C0.28,0.011 0.313,0.003 0.341,-0.012C0.369,-0.027 0.392,-0.05 0.41,-0.082L0.412,-0.082L0.412,-0L0.492,-0Z" style="fill:rgb(34,34,34);fill-rule:nonzero;"/>
                </g>
                <g transform="matrix(18.6667,0,0,18.6667,356.71,77.1686)">
                    <rect x="0.069" y="-0.714" width="0.085" height="0.714" style="fill:rgb(34,34,34);fill-rule:nonzero;"/>
                </g>
                <g transform="matrix(18.6667,0,0,18.6667,360.854,77.1686)">
                    <path d="M0.064,-0.517L0.064,-0L0.149,-0L0.149,-0.292C0.149,-0.315 0.152,-0.337 0.159,-0.357C0.165,-0.376 0.174,-0.393 0.187,-0.408C0.2,-0.423 0.216,-0.434 0.235,-0.442C0.254,-0.45 0.276,-0.454 0.302,-0.454C0.335,-0.454 0.36,-0.445 0.379,-0.426C0.398,-0.407 0.407,-0.382 0.407,-0.35L0.407,-0L0.492,-0L0.492,-0.34C0.492,-0.368 0.489,-0.393 0.484,-0.417C0.478,-0.44 0.468,-0.459 0.454,-0.476C0.44,-0.493 0.422,-0.506 0.399,-0.515C0.376,-0.524 0.348,-0.529 0.314,-0.529C0.237,-0.529 0.181,-0.498 0.146,-0.435L0.144,-0.435L0.144,-0.517L0.064,-0.517Z" style="fill:rgb(34,34,34);fill-rule:nonzero;"/>
                </g>
                <g transform="matrix(18.6667,0,0,18.6667,371.232,77.1686)">
                    <path d="M0.423,-0.308L0.126,-0.308C0.127,-0.328 0.132,-0.347 0.139,-0.365C0.146,-0.382 0.156,-0.398 0.169,-0.411C0.182,-0.424 0.197,-0.435 0.215,-0.443C0.232,-0.45 0.252,-0.454 0.274,-0.454C0.295,-0.454 0.315,-0.45 0.333,-0.443C0.35,-0.435 0.366,-0.425 0.379,-0.412C0.392,-0.399 0.402,-0.383 0.41,-0.365C0.417,-0.347 0.422,-0.328 0.423,-0.308ZM0.505,-0.164L0.421,-0.164C0.414,-0.13 0.399,-0.105 0.376,-0.088C0.353,-0.071 0.323,-0.063 0.287,-0.063C0.259,-0.063 0.235,-0.068 0.214,-0.077C0.193,-0.086 0.176,-0.099 0.163,-0.115C0.15,-0.13 0.14,-0.148 0.134,-0.169C0.128,-0.189 0.125,-0.21 0.126,-0.233L0.513,-0.233C0.514,-0.264 0.511,-0.297 0.505,-0.332C0.498,-0.367 0.485,-0.399 0.467,-0.428C0.448,-0.457 0.424,-0.482 0.394,-0.501C0.363,-0.52 0.325,-0.529 0.279,-0.529C0.244,-0.529 0.211,-0.522 0.182,-0.509C0.152,-0.496 0.126,-0.477 0.105,-0.453C0.083,-0.429 0.066,-0.401 0.054,-0.368C0.042,-0.335 0.036,-0.299 0.036,-0.26C0.037,-0.221 0.043,-0.184 0.054,-0.151C0.064,-0.118 0.079,-0.089 0.1,-0.065C0.121,-0.041 0.146,-0.022 0.177,-0.009C0.207,0.004 0.243,0.011 0.284,0.011C0.343,0.011 0.391,-0.004 0.43,-0.033C0.469,-0.062 0.494,-0.106 0.505,-0.164Z" style="fill:rgb(34,34,34);fill-rule:nonzero;"/>
                </g>
                <g transform="matrix(18.6667,0,0,18.6667,381.256,77.1686)">
                    <path d="M0.061,-0.517L0.061,-0L0.146,-0L0.146,-0.23C0.146,-0.263 0.149,-0.293 0.156,-0.319C0.163,-0.344 0.173,-0.366 0.188,-0.384C0.203,-0.402 0.222,-0.416 0.246,-0.425C0.27,-0.434 0.299,-0.439 0.333,-0.439L0.333,-0.529C0.287,-0.53 0.249,-0.521 0.219,-0.501C0.189,-0.481 0.164,-0.45 0.143,-0.408L0.141,-0.408L0.141,-0.517L0.061,-0.517Z" style="fill:rgb(34,34,34);fill-rule:nonzero;"/>
                </g>
                <g transform="matrix(18.6667,0,0,18.6667,387.472,77.1686)">
                    <path d="M0.522,-0.002C0.507,0.007 0.487,0.011 0.461,0.011C0.439,0.011 0.422,0.005 0.409,-0.008C0.396,-0.02 0.389,-0.04 0.389,-0.068C0.366,-0.04 0.338,-0.02 0.308,-0.008C0.277,0.005 0.243,0.011 0.207,0.011C0.184,0.011 0.162,0.008 0.141,0.003C0.12,-0.002 0.101,-0.011 0.086,-0.022C0.071,-0.033 0.058,-0.048 0.05,-0.067C0.041,-0.085 0.036,-0.107 0.036,-0.133C0.036,-0.162 0.041,-0.186 0.051,-0.205C0.061,-0.224 0.074,-0.239 0.091,-0.251C0.107,-0.262 0.126,-0.271 0.147,-0.277C0.167,-0.283 0.189,-0.288 0.211,-0.292C0.234,-0.297 0.257,-0.3 0.278,-0.303C0.299,-0.305 0.317,-0.308 0.333,-0.313C0.349,-0.317 0.362,-0.323 0.371,-0.332C0.38,-0.34 0.385,-0.352 0.385,-0.368C0.385,-0.387 0.382,-0.402 0.375,-0.413C0.368,-0.424 0.359,-0.433 0.348,-0.439C0.337,-0.445 0.324,-0.449 0.311,-0.451C0.297,-0.453 0.283,-0.454 0.27,-0.454C0.234,-0.454 0.204,-0.447 0.18,-0.434C0.156,-0.42 0.143,-0.394 0.141,-0.356L0.056,-0.356C0.057,-0.388 0.064,-0.415 0.076,-0.437C0.088,-0.459 0.104,-0.477 0.124,-0.491C0.144,-0.504 0.167,-0.514 0.193,-0.52C0.218,-0.526 0.246,-0.529 0.275,-0.529C0.298,-0.529 0.322,-0.527 0.345,-0.524C0.368,-0.521 0.388,-0.514 0.407,-0.504C0.426,-0.493 0.441,-0.479 0.452,-0.46C0.463,-0.441 0.469,-0.417 0.469,-0.387L0.469,-0.121C0.469,-0.101 0.47,-0.086 0.473,-0.077C0.475,-0.068 0.483,-0.063 0.496,-0.063C0.503,-0.063 0.512,-0.065 0.522,-0.068L0.522,-0.002ZM0.384,-0.267C0.373,-0.259 0.359,-0.253 0.342,-0.25C0.325,-0.246 0.307,-0.243 0.288,-0.241C0.269,-0.238 0.249,-0.236 0.23,-0.233C0.211,-0.23 0.193,-0.225 0.178,-0.218C0.163,-0.211 0.15,-0.202 0.141,-0.19C0.131,-0.177 0.126,-0.16 0.126,-0.139C0.126,-0.125 0.129,-0.113 0.135,-0.104C0.14,-0.094 0.148,-0.086 0.157,-0.08C0.166,-0.074 0.176,-0.07 0.188,-0.067C0.2,-0.064 0.213,-0.063 0.226,-0.063C0.254,-0.063 0.278,-0.067 0.298,-0.075C0.318,-0.082 0.334,-0.092 0.347,-0.104C0.36,-0.115 0.369,-0.128 0.375,-0.142C0.381,-0.155 0.384,-0.168 0.384,-0.18L0.384,-0.267Z" style="fill:rgb(34,34,34);fill-rule:nonzero;"/>
                </g>
                <g transform="matrix(18.6667,0,0,18.6667,397.496,77.1686)">
                    <path d="M0.067,-0.714L0.067,-0L0.152,-0L0.152,-0.069L0.154,-0.069C0.163,-0.054 0.175,-0.041 0.189,-0.031C0.202,-0.02 0.217,-0.012 0.232,-0.006C0.247,0 0.263,0.004 0.279,0.007C0.294,0.01 0.308,0.011 0.321,0.011C0.36,0.011 0.395,0.004 0.425,-0.01C0.454,-0.024 0.479,-0.043 0.499,-0.068C0.518,-0.092 0.533,-0.12 0.543,-0.153C0.552,-0.186 0.557,-0.22 0.557,-0.257C0.557,-0.294 0.552,-0.328 0.542,-0.361C0.532,-0.394 0.517,-0.423 0.498,-0.448C0.478,-0.472 0.453,-0.492 0.424,-0.507C0.394,-0.522 0.359,-0.529 0.319,-0.529C0.283,-0.529 0.25,-0.523 0.22,-0.51C0.19,-0.497 0.168,-0.476 0.154,-0.447L0.152,-0.447L0.152,-0.714L0.067,-0.714ZM0.467,-0.263C0.467,-0.238 0.464,-0.213 0.459,-0.189C0.454,-0.165 0.445,-0.144 0.433,-0.125C0.421,-0.106 0.405,-0.091 0.386,-0.08C0.366,-0.069 0.341,-0.063 0.312,-0.063C0.283,-0.063 0.258,-0.069 0.237,-0.08C0.216,-0.091 0.2,-0.105 0.187,-0.123C0.173,-0.141 0.164,-0.162 0.158,-0.186C0.152,-0.209 0.149,-0.234 0.149,-0.259C0.149,-0.283 0.152,-0.307 0.158,-0.33C0.163,-0.353 0.172,-0.374 0.185,-0.393C0.198,-0.411 0.214,-0.426 0.234,-0.437C0.254,-0.448 0.278,-0.454 0.307,-0.454C0.334,-0.454 0.358,-0.449 0.379,-0.438C0.399,-0.427 0.416,-0.413 0.429,-0.395C0.442,-0.377 0.451,-0.357 0.458,-0.334C0.464,-0.311 0.467,-0.287 0.467,-0.263Z" style="fill:rgb(34,34,34);fill-rule:nonzero;"/>
                </g>
                <g transform="matrix(18.6667,0,0,18.6667,408.566,77.1686)">
                    <path d="M0.154,-0.61L0.154,-0.714L0.069,-0.714L0.069,-0.61L0.154,-0.61ZM0.069,-0.517L0.069,-0L0.154,-0L0.154,-0.517L0.069,-0.517Z" style="fill:rgb(34,34,34);fill-rule:nonzero;"/>
                </g>
                <g transform="matrix(18.6667,0,0,18.6667,412.71,77.1686)">
                    <rect x="0.069" y="-0.714" width="0.085" height="0.714" style="fill:rgb(34,34,34);fill-rule:nonzero;"/>
                </g>
                <g transform="matrix(18.6667,0,0,18.6667,416.854,77.1686)">
                    <path d="M0.154,-0.61L0.154,-0.714L0.069,-0.714L0.069,-0.61L0.154,-0.61ZM0.069,-0.517L0.069,-0L0.154,-0L0.154,-0.517L0.069,-0.517Z" style="fill:rgb(34,34,34);fill-rule:nonzero;"/>
                </g>
                <g transform="matrix(18.6667,0,0,18.6667,420.998,77.1686)">
                    <path d="M0.182,-0.517L0.182,-0.672L0.097,-0.672L0.097,-0.517L0.009,-0.517L0.009,-0.442L0.097,-0.442L0.097,-0.113C0.097,-0.089 0.099,-0.07 0.104,-0.055C0.109,-0.04 0.116,-0.029 0.126,-0.021C0.135,-0.013 0.148,-0.008 0.164,-0.005C0.179,-0.002 0.198,-0 0.22,-0L0.285,-0L0.285,-0.075L0.246,-0.075C0.233,-0.075 0.222,-0.076 0.214,-0.077C0.205,-0.078 0.199,-0.08 0.194,-0.083C0.189,-0.086 0.186,-0.091 0.185,-0.097C0.183,-0.103 0.182,-0.111 0.182,-0.121L0.182,-0.442L0.285,-0.442L0.285,-0.517L0.182,-0.517Z" style="fill:rgb(34,34,34);fill-rule:nonzero;"/>
                </g>
                <g transform="matrix(18.6667,0,0,18.6667,426.878,77.1686)">
                    <path d="M0.154,-0.61L0.154,-0.714L0.069,-0.714L0.069,-0.61L0.154,-0.61ZM0.069,-0.517L0.069,-0L0.154,-0L0.154,-0.517L0.069,-0.517Z" style="fill:rgb(34,34,34);fill-rule:nonzero;"/>
                </g>
                <g transform="matrix(18.6667,0,0,18.6667,431.022,77.1686)">
                    <path d="M0.423,-0.308L0.126,-0.308C0.127,-0.328 0.132,-0.347 0.139,-0.365C0.146,-0.382 0.156,-0.398 0.169,-0.411C0.182,-0.424 0.197,-0.435 0.215,-0.443C0.232,-0.45 0.252,-0.454 0.274,-0.454C0.295,-0.454 0.315,-0.45 0.333,-0.443C0.35,-0.435 0.366,-0.425 0.379,-0.412C0.392,-0.399 0.402,-0.383 0.41,-0.365C0.417,-0.347 0.422,-0.328 0.423,-0.308ZM0.505,-0.164L0.421,-0.164C0.414,-0.13 0.399,-0.105 0.376,-0.088C0.353,-0.071 0.323,-0.063 0.287,-0.063C0.259,-0.063 0.235,-0.068 0.214,-0.077C0.193,-0.086 0.176,-0.099 0.163,-0.115C0.15,-0.13 0.14,-0.148 0.134,-0.169C0.128,-0.189 0.125,-0.21 0.126,-0.233L0.513,-0.233C0.514,-0.264 0.511,-0.297 0.505,-0.332C0.498,-0.367 0.485,-0.399 0.467,-0.428C0.448,-0.457 0.424,-0.482 0.394,-0.501C0.363,-0.52 0.325,-0.529 0.279,-0.529C0.244,-0.529 0.211,-0.522 0.182,-0.509C0.152,-0.496 0.126,-0.477 0.105,-0.453C0.083,-0.429 0.066,-0.401 0.054,-0.368C0.042,-0.335 0.036,-0.299 0.036,-0.26C0.037,-0.221 0.043,-0.184 0.054,-0.151C0.064,-0.118 0.079,-0.089 0.1,-0.065C0.121,-0.041 0.146,-0.022 0.177,-0.009C0.207,0.004 0.243,0.011 0.284,0.011C0.343,0.011 0.391,-0.004 0.43,-0.033C0.469,-0.062 0.494,-0.106 0.505,-0.164Z" style="fill:rgb(34,34,34);fill-rule:nonzero;"/>
                </g>
                <g transform="matrix(18.6667,0,0,18.6667,441.046,77.1686)">
                    <path d="M0.116,-0.163L0.031,-0.163C0.032,-0.131 0.039,-0.104 0.051,-0.082C0.063,-0.059 0.079,-0.041 0.099,-0.028C0.119,-0.014 0.142,-0.004 0.168,0.002C0.194,0.008 0.221,0.011 0.25,0.011C0.276,0.011 0.302,0.008 0.329,0.004C0.355,-0.002 0.379,-0.01 0.4,-0.023C0.421,-0.036 0.438,-0.052 0.451,-0.073C0.464,-0.094 0.47,-0.12 0.47,-0.151C0.47,-0.176 0.465,-0.196 0.456,-0.213C0.446,-0.23 0.433,-0.244 0.418,-0.255C0.402,-0.266 0.384,-0.274 0.364,-0.281C0.343,-0.288 0.322,-0.293 0.301,-0.298C0.281,-0.303 0.261,-0.307 0.241,-0.312C0.221,-0.316 0.203,-0.321 0.187,-0.328C0.171,-0.334 0.158,-0.342 0.148,-0.352C0.137,-0.361 0.132,-0.373 0.132,-0.388C0.132,-0.401 0.135,-0.412 0.142,-0.421C0.149,-0.429 0.157,-0.436 0.168,-0.441C0.179,-0.446 0.191,-0.449 0.204,-0.451C0.217,-0.453 0.229,-0.454 0.242,-0.454C0.256,-0.454 0.27,-0.452 0.284,-0.45C0.297,-0.447 0.31,-0.442 0.321,-0.435C0.332,-0.428 0.342,-0.42 0.349,-0.409C0.356,-0.398 0.361,-0.384 0.362,-0.367L0.447,-0.367C0.445,-0.398 0.438,-0.425 0.427,-0.446C0.416,-0.467 0.401,-0.483 0.382,-0.496C0.363,-0.508 0.341,-0.517 0.316,-0.522C0.291,-0.527 0.264,-0.529 0.235,-0.529C0.212,-0.529 0.19,-0.526 0.167,-0.521C0.143,-0.515 0.123,-0.506 0.105,-0.495C0.086,-0.483 0.071,-0.468 0.06,-0.449C0.048,-0.43 0.042,-0.408 0.042,-0.382C0.042,-0.349 0.05,-0.323 0.067,-0.304C0.084,-0.285 0.105,-0.271 0.13,-0.261C0.155,-0.25 0.182,-0.242 0.211,-0.237C0.24,-0.231 0.268,-0.225 0.293,-0.218C0.318,-0.211 0.338,-0.201 0.355,-0.19C0.372,-0.179 0.38,-0.162 0.38,-0.14C0.38,-0.124 0.376,-0.111 0.368,-0.101C0.36,-0.09 0.35,-0.082 0.338,-0.077C0.325,-0.072 0.312,-0.068 0.297,-0.066C0.282,-0.064 0.268,-0.063 0.255,-0.063C0.238,-0.063 0.221,-0.065 0.205,-0.068C0.188,-0.071 0.173,-0.077 0.161,-0.085C0.148,-0.092 0.137,-0.102 0.129,-0.116C0.121,-0.129 0.117,-0.144 0.116,-0.163Z" style="fill:rgb(34,34,34);fill-rule:nonzero;"/>
                </g>
            </g>
        </g>
        <g id="Vulnerability" transform="matrix(1.04367,0,0,1,-64.6269,-27.0159)">
            <g transform="matrix(0.771855,0,0,0.241993,23.8954,127.967)">
                <path d="M622.198,122.541C622.198,110.117 619.168,100.031 615.436,100.031L106.208,100.031C102.476,100.031 99.446,110.117 99.446,122.541L99.446,493.444C99.446,505.868 102.476,515.955 106.208,515.955L615.436,515.955C619.168,515.955 622.198,505.868 622.198,493.444L622.198,122.541Z" style="fill:rgb(148,183,232);"/>
            </g>
            <g transform="matrix(1,0,0,1,-217.337,108.391)">
                <g transform="matrix(18.6667,0,0,18.6667,335.616,77.1686)">
                    <path d="M0.359,-0L0.613,-0.714L0.514,-0.714L0.308,-0.095L0.306,-0.095L0.102,-0.714L0,-0.714L0.251,-0L0.359,-0Z" style="fill:rgb(34,34,34);fill-rule:nonzero;"/>
                </g>
                <g transform="matrix(18.6667,0,0,18.6667,346.331,77.1686)">
                    <path d="M0.492,-0L0.492,-0.517L0.407,-0.517L0.407,-0.225C0.407,-0.202 0.404,-0.18 0.398,-0.161C0.391,-0.141 0.382,-0.124 0.369,-0.109C0.356,-0.094 0.341,-0.083 0.322,-0.075C0.303,-0.067 0.28,-0.063 0.254,-0.063C0.221,-0.063 0.196,-0.072 0.177,-0.091C0.158,-0.11 0.149,-0.135 0.149,-0.167L0.149,-0.517L0.064,-0.517L0.064,-0.177C0.064,-0.149 0.067,-0.124 0.073,-0.101C0.078,-0.078 0.088,-0.058 0.102,-0.041C0.116,-0.024 0.134,-0.012 0.157,-0.003C0.18,0.007 0.208,0.011 0.242,0.011C0.28,0.011 0.313,0.003 0.341,-0.012C0.369,-0.027 0.392,-0.05 0.41,-0.082L0.412,-0.082L0.412,-0L0.492,-0Z" style="fill:rgb(34,34,34);fill-rule:nonzero;"/>
                </g>
                <g transform="matrix(18.6667,0,0,18.6667,356.71,77.1686)">
                    <rect x="0.069" y="-0.714" width="0.085" height="0.714" style="fill:rgb(34,34,34);fill-rule:nonzero;"/>
                </g>
                <g transform="matrix(18.6667,0,0,18.6667,360.854,77.1686)">
                    <path d="M0.064,-0.517L0.064,-0L0.149,-0L0.149,-0.292C0.149,-0.315 0.152,-0.337 0.159,-0.357C0.165,-0.376 0.174,-0.393 0.187,-0.408C0.2,-0.423 0.216,-0.434 0.235,-0.442C0.254,-0.45 0.276,-0.454 0.302,-0.454C0.335,-0.454 0.36,-0.445 0.379,-0.426C0.398,-0.407 0.407,-0.382 0.407,-0.35L0.407,-0L0.492,-0L0.492,-0.34C0.492,-0.368 0.489,-0.393 0.484,-0.417C0.478,-0.44 0.468,-0.459 0.454,-0.476C0.44,-0.493 0.422,-0.506 0.399,-0.515C0.376,-0.524 0.348,-0.529 0.314,-0.529C0.237,-0.529 0.181,-0.498 0.146,-0.435L0.144,-0.435L0.144,-0.517L0.064,-0.517Z" style="fill:rgb(34,34,34);fill-rule:nonzero;"/>
                </g>
                <g transform="matrix(18.6667,0,0,18.6667,371.232,77.1686)">
                    <path d="M0.423,-0.308L0.126,-0.308C0.127,-0.328 0.132,-0.347 0.139,-0.365C0.146,-0.382 0.156,-0.398 0.169,-0.411C0.182,-0.424 0.197,-0.435 0.215,-0.443C0.232,-0.45 0.252,-0.454 0.274,-0.454C0.295,-0.454 0.315,-0.45 0.333,-0.443C0.35,-0.435 0.366,-0.425 0.379,-0.412C0.392,-0.399 0.402,-0.383 0.41,-0.365C0.417,-0.347 0.422,-0.328 0.423,-0.308ZM0.505,-0.164L0.421,-0.164C0.414,-0.13 0.399,-0.105 0.376,-0.088C0.353,-0.071 0.323,-0.063 0.287,-0.063C0.259,-0.063 0.235,-0.068 0.214,-0.077C0.193,-0.086 0.176,-0.099 0.163,-0.115C0.15,-0.13 0.14,-0.148 0.134,-0.169C0.128,-0.189 0.125,-0.21 0.126,-0.233L0.513,-0.233C0.514,-0.264 0.511,-0.297 0.505,-0.332C0.498,-0.367 0.485,-0.399 0.467,-0.428C0.448,-0.457 0.424,-0.482 0.394,-0.501C0.363,-0.52 0.325,-0.529 0.279,-0.529C0.244,-0.529 0.211,-0.522 0.182,-0.509C0.152,-0.496 0.126,-0.477 0.105,-0.453C0.083,-0.429 0.066,-0.401 0.054,-0.368C0.042,-0.335 0.036,-0.299 0.036,-0.26C0.037,-0.221 0.043,-0.184 0.054,-0.151C0.064,-0.118 0.079,-0.089 0.1,-0.065C0.121,-0.041 0.146,-0.022 0.177,-0.009C0.207,0.004 0.243,0.011 0.284,0.011C0.343,0.011 0.391,-0.004 0.43,-0.033C0.469,-0.062 0.494,-0.106 0.505,-0.164Z" style="fill:rgb(34,34,34);fill-rule:nonzero;"/>
                </g>
                <g transform="matrix(18.6667,0,0,18.6667,381.256,77.1686)">
                    <path d="M0.061,-0.517L0.061,-0L0.146,-0L0.146,-0.23C0.146,-0.263 0.149,-0.293 0.156,-0.319C0.163,-0.344 0.173,-0.366 0.188,-0.384C0.203,-0.402 0.222,-0.416 0.246,-0.425C0.27,-0.434 0.299,-0.439 0.333,-0.439L0.333,-0.529C0.287,-0.53 0.249,-0.521 0.219,-0.501C0.189,-0.481 0.164,-0.45 0.143,-0.408L0.141,-0.408L0.141,-0.517L0.061,-0.517Z" style="fill:rgb(34,34,34);fill-rule:nonzero;"/>
                </g>
                <g transform="matrix(18.6667,0,0,18.6667,387.472,77.1686)">
                    <path d="M0.522,-0.002C0.507,0.007 0.487,0.011 0.461,0.011C0.439,0.011 0.422,0.005 0.409,-0.008C0.396,-0.02 0.389,-0.04 0.389,-0.068C0.366,-0.04 0.338,-0.02 0.308,-0.008C0.277,0.005 0.243,0.011 0.207,0.011C0.184,0.011 0.162,0.008 0.141,0.003C0.12,-0.002 0.101,-0.011 0.086,-0.022C0.071,-0.033 0.058,-0.048 0.05,-0.067C0.041,-0.085 0.036,-0.107 0.036,-0.133C0.036,-0.162 0.041,-0.186 0.051,-0.205C0.061,-0.224 0.074,-0.239 0.091,-0.251C0.107,-0.262 0.126,-0.271 0.147,-0.277C0.167,-0.283 0.189,-0.288 0.211,-0.292C0.234,-0.297 0.257,-0.3 0.278,-0.303C0.299,-0.305 0.317,-0.308 0.333,-0.313C0.349,-0.317 0.362,-0.323 0.371,-0.332C0.38,-0.34 0.385,-0.352 0.385,-0.368C0.385,-0.387 0.382,-0.402 0.375,-0.413C0.368,-0.424 0.359,-0.433 0.348,-0.439C0.337,-0.445 0.324,-0.449 0.311,-0.451C0.297,-0.453 0.283,-0.454 0.27,-0.454C0.234,-0.454 0.204,-0.447 0.18,-0.434C0.156,-0.42 0.143,-0.394 0.141,-0.356L0.056,-0.356C0.057,-0.388 0.064,-0.415 0.076,-0.437C0.088,-0.459 0.104,-0.477 0.124,-0.491C0.144,-0.504 0.167,-0.514 0.193,-0.52C0.218,-0.526 0.246,-0.529 0.275,-0.529C0.298,-0.529 0.322,-0.527 0.345,-0.524C0.368,-0.521 0.388,-0.514 0.407,-0.504C0.426,-0.493 0.441,-0.479 0.452,-0.46C0.463,-0.441 0.469,-0.417 0.469,-0.387L0.469,-0.121C0.469,-0.101 0.47,-0.086 0.473,-0.077C0.475,-0.068 0.483,-0.063 0.496,-0.063C0.503,-0.063 0.512,-0.065 0.522,-0.068L0.522,-0.002ZM0.384,-0.267C0.373,-0.259 0.359,-0.253 0.342,-0.25C0.325,-0.246 0.307,-0.243 0.288,-0.241C0.269,-0.238 0.249,-0.236 0.23,-0.233C0.211,-0.23 0.193,-0.225 0.178,-0.218C0.163,-0.211 0.15,-0.202 0.141,-0.19C0.131,-0.177 0.126,-0.16 0.126,-0.139C0.126,-0.125 0.129,-0.113 0.135,-0.104C0.14,-0.094 0.148,-0.086 0.157,-0.08C0.166,-0.074 0.176,-0.07 0.188,-0.067C0.2,-0.064 0.213,-0.063 0.226,-0.063C0.254,-0.063 0.278,-0.067 0.298,-0.075C0.318,-0.082 0.334,-0.092 0.347,-0.104C0.36,-0.115 0.369,-0.128 0.375,-0.142C0.381,-0.155 0.384,-0.168 0.384,-0.18L0.384,-0.267Z" style="fill:rgb(34,34,34);fill-rule:nonzero;"/>
                </g>
                <g transform="matrix(18.6667,0,0,18.6667,397.496,77.1686)">
                    <path d="M0.067,-0.714L0.067,-0L0.152,-0L0.152,-0.069L0.154,-0.069C0.163,-0.054 0.175,-0.041 0.189,-0.031C0.202,-0.02 0.217,-0.012 0.232,-0.006C0.247,0 0.263,0.004 0.279,0.007C0.294,0.01 0.308,0.011 0.321,0.011C0.36,0.011 0.395,0.004 0.425,-0.01C0.454,-0.024 0.479,-0.043 0.499,-0.068C0.518,-0.092 0.533,-0.12 0.543,-0.153C0.552,-0.186 0.557,-0.22 0.557,-0.257C0.557,-0.294 0.552,-0.328 0.542,-0.361C0.532,-0.394 0.517,-0.423 0.498,-0.448C0.478,-0.472 0.453,-0.492 0.424,-0.507C0.394,-0.522 0.359,-0.529 0.319,-0.529C0.283,-0.529 0.25,-0.523 0.22,-0.51C0.19,-0.497 0.168,-0.476 0.154,-0.447L0.152,-0.447L0.152,-0.714L0.067,-0.714ZM0.467,-0.263C0.467,-0.238 0.464,-0.213 0.459,-0.189C0.454,-0.165 0.445,-0.144 0.433,-0.125C0.421,-0.106 0.405,-0.091 0.386,-0.08C0.366,-0.069 0.341,-0.063 0.312,-0.063C0.283,-0.063 0.258,-0.069 0.237,-0.08C0.216,-0.091 0.2,-0.105 0.187,-0.123C0.173,-0.141 0.164,-0.162 0.158,-0.186C0.152,-0.209 0.149,-0.234 0.149,-0.259C0.149,-0.283 0.152,-0.307 0.158,-0.33C0.163,-0.353 0.172,-0.374 0.185,-0.393C0.198,-0.411 0.214,-0.426 0.234,-0.437C0.254,-0.448 0.278,-0.454 0.307,-0.454C0.334,-0.454 0.358,-0.449 0.379,-0.438C0.399,-0.427 0.416,-0.413 0.429,-0.395C0.442,-0.377 0.451,-0.357 0.458,-0.334C0.464,-0.311 0.467,-0.287 0.467,-0.263Z" style="fill:rgb(34,34,34);fill-rule:nonzero;"/>
                </g>
                <g transform="matrix(18.6667,0,0,18.6667,408.566,77.1686)">
                    <path d="M0.154,-0.61L0.154,-0.714L0.069,-0.714L0.069,-0.61L0.154,-0.61ZM0.069,-0.517L0.069,-0L0.154,-0L0.154,-0.517L0.069,-0.517Z" style="fill:rgb(34,34,34);fill-rule:nonzero;"/>
                </g>
                <g transform="matrix(18.6667,0,0,18.6667,412.71,77.1686)">
                    <rect x="0.069" y="-0.714" width="0.085" height="0.714" style="fill:rgb(34,34,34);fill-rule:nonzero;"/>
                </g>
                <g transform="matrix(18.6667,0,0,18.6667,416.854,77.1686)">
                    <path d="M0.154,-0.61L0.154,-0.714L0.069,-0.714L0.069,-0.61L0.154,-0.61ZM0.069,-0.517L0.069,-0L0.154,-0L0.154,-0.517L0.069,-0.517Z" style="fill:rgb(34,34,34);fill-rule:nonzero;"/>
                </g>
                <g transform="matrix(18.6667,0,0,18.6667,420.998,77.1686)">
                    <path d="M0.182,-0.517L0.182,-0.672L0.097,-0.672L0.097,-0.517L0.009,-0.517L0.009,-0.442L0.097,-0.442L0.097,-0.113C0.097,-0.089 0.099,-0.07 0.104,-0.055C0.109,-0.04 0.116,-0.029 0.126,-0.021C0.135,-0.013 0.148,-0.008 0.164,-0.005C0.179,-0.002 0.198,-0 0.22,-0L0.285,-0L0.285,-0.075L0.246,-0.075C0.233,-0.075 0.222,-0.076 0.214,-0.077C0.205,-0.078 0.199,-0.08 0.194,-0.083C0.189,-0.086 0.186,-0.091 0.185,-0.097C0.183,-0.103 0.182,-0.111 0.182,-0.121L0.182,-0.442L0.285,-0.442L0.285,-0.517L0.182,-0.517Z" style="fill:rgb(34,34,34);fill-rule:nonzero;"/>
                </g>
                <g transform="matrix(18.6667,0,0,18.6667,426.878,77.1686)">
                    <path d="M0.267,0.069C0.257,0.094 0.247,0.116 0.238,0.133C0.228,0.15 0.217,0.165 0.206,0.176C0.194,0.187 0.181,0.195 0.167,0.2C0.152,0.205 0.136,0.207 0.117,0.207C0.107,0.207 0.097,0.206 0.087,0.205C0.077,0.204 0.067,0.201 0.058,0.198L0.058,0.12C0.065,0.123 0.074,0.126 0.084,0.129C0.093,0.131 0.101,0.132 0.108,0.132C0.125,0.132 0.14,0.128 0.152,0.12C0.163,0.111 0.172,0.099 0.178,0.084L0.213,-0.003L0.008,-0.517L0.104,-0.517L0.255,-0.094L0.257,-0.094L0.402,-0.517L0.492,-0.517L0.267,0.069Z" style="fill:rgb(34,34,34);fill-rule:nonzero;"/>
                </g>
            </g>
        </g>
        <g id="VEX" transform="matrix(0.955803,0,0,1,-33.166,-110.675)">
            <g transform="matrix(0.764912,0,0,0.114731,21.2851,277.288)">
                <path d="M622.198,122.541C622.198,110.117 620.615,100.031 618.665,100.031L102.979,100.031C101.029,100.031 99.446,110.117 99.446,122.541L99.446,493.444C99.446,505.868 101.029,515.955 102.979,515.955L618.665,515.955C620.615,515.955 622.198,505.868 622.198,493.444L622.198,122.541Z" style="fill:rgb(203,133,144);"/>
            </g>
            <g transform="matrix(1,0,0,1,-58.6997,18.5651)">
                <g transform="matrix(18.6667,0,0,18.6667,176.345,300)">
                    <path d="M0.359,-0L0.613,-0.714L0.514,-0.714L0.308,-0.095L0.306,-0.095L0.102,-0.714L0,-0.714L0.251,-0L0.359,-0Z" style="fill:rgb(34,34,34);fill-rule:nonzero;"/>
                </g>
                <g transform="matrix(18.6667,0,0,18.6667,187.75,300)">
                    <path d="M0.078,-0.714L0.078,-0L0.574,-0L0.574,-0.08L0.173,-0.08L0.173,-0.327L0.544,-0.327L0.544,-0.407L0.173,-0.407L0.173,-0.634L0.571,-0.634L0.571,-0.714L0.078,-0.714Z" style="fill:rgb(34,34,34);fill-rule:nonzero;"/>
                </g>
                <g transform="matrix(18.6667,0,0,18.6667,199.156,300)">
                    <path d="M0.248,-0.367L0,-0L0.106,-0L0.304,-0.295L0.496,-0L0.612,-0L0.361,-0.367L0.597,-0.714L0.491,-0.714L0.305,-0.435L0.127,-0.714L0.013,-0.714L0.248,-0.367Z" style="fill:rgb(34,34,34);fill-rule:nonzero;"/>
                </g>
            </g>
        </g>
    </g>
    <g>
        <g id="CycloneDX-BOM1" serif:id="CycloneDX BOM" transform="matrix(1,0,0,1,-99.4463,-89.2267)">
            <g transform="matrix(0.960217,0,0,0.669334,3.95631,33.0767)">
                <path d="M622.198,122.541C622.198,110.117 615.167,100.031 606.507,100.031L115.138,100.031C106.477,100.031 99.446,110.117 99.446,122.541L99.446,493.444C99.446,505.868 106.477,515.955 115.138,515.955L606.507,515.955C615.167,515.955 622.198,505.868 622.198,493.444L622.198,122.541Z" style="fill:rgb(235,235,235);"/>
            </g>
            <g transform="matrix(1,0,0,1,104.646,9.99563)">
                <g transform="matrix(18.6667,0,0,18.6667,138.805,125.657)">
                    <path d="M0.173,-0.407L0.173,-0.634L0.363,-0.634C0.384,-0.634 0.403,-0.633 0.422,-0.631C0.44,-0.628 0.456,-0.623 0.47,-0.615C0.484,-0.607 0.495,-0.596 0.503,-0.581C0.511,-0.566 0.515,-0.546 0.515,-0.521C0.515,-0.483 0.503,-0.455 0.48,-0.436C0.456,-0.417 0.417,-0.407 0.363,-0.407L0.173,-0.407ZM0.078,-0.714L0.078,-0L0.423,-0C0.458,-0 0.49,-0.006 0.517,-0.018C0.544,-0.029 0.566,-0.045 0.585,-0.064C0.603,-0.083 0.617,-0.104 0.626,-0.129C0.635,-0.154 0.64,-0.179 0.64,-0.205C0.64,-0.249 0.628,-0.286 0.605,-0.317C0.582,-0.348 0.548,-0.368 0.504,-0.377L0.504,-0.379C0.538,-0.392 0.564,-0.413 0.583,-0.441C0.601,-0.468 0.61,-0.501 0.61,-0.539C0.61,-0.575 0.602,-0.605 0.586,-0.63C0.569,-0.655 0.549,-0.674 0.526,-0.688C0.515,-0.695 0.503,-0.7 0.488,-0.703C0.472,-0.706 0.456,-0.709 0.439,-0.711C0.422,-0.712 0.404,-0.713 0.387,-0.714C0.369,-0.714 0.352,-0.714 0.337,-0.714L0.078,-0.714ZM0.173,-0.08L0.173,-0.327L0.39,-0.327C0.41,-0.327 0.429,-0.325 0.448,-0.322C0.467,-0.318 0.483,-0.312 0.498,-0.303C0.512,-0.294 0.523,-0.281 0.532,-0.266C0.541,-0.251 0.545,-0.231 0.545,-0.208C0.545,-0.168 0.533,-0.137 0.51,-0.114C0.486,-0.091 0.453,-0.08 0.411,-0.08L0.173,-0.08Z" style="fill:rgb(34,34,34);fill-rule:nonzero;"/>
                </g>
                <g transform="matrix(18.6667,0,0,18.6667,151.591,125.657)">
                    <path d="M0.133,-0.357C0.133,-0.393 0.138,-0.429 0.147,-0.464C0.156,-0.499 0.171,-0.53 0.191,-0.558C0.211,-0.586 0.237,-0.608 0.268,-0.626C0.299,-0.643 0.337,-0.651 0.38,-0.651C0.423,-0.651 0.461,-0.643 0.492,-0.626C0.523,-0.608 0.549,-0.586 0.569,-0.558C0.589,-0.53 0.604,-0.499 0.613,-0.464C0.622,-0.429 0.627,-0.393 0.627,-0.357C0.627,-0.321 0.622,-0.286 0.613,-0.251C0.604,-0.216 0.589,-0.184 0.569,-0.156C0.549,-0.128 0.523,-0.106 0.492,-0.089C0.461,-0.071 0.423,-0.063 0.38,-0.063C0.337,-0.063 0.299,-0.071 0.268,-0.089C0.237,-0.106 0.211,-0.128 0.191,-0.156C0.171,-0.184 0.156,-0.216 0.147,-0.251C0.138,-0.286 0.133,-0.321 0.133,-0.357ZM0.038,-0.357C0.038,-0.308 0.045,-0.262 0.06,-0.217C0.074,-0.171 0.095,-0.132 0.124,-0.097C0.153,-0.062 0.188,-0.035 0.231,-0.015C0.274,0.006 0.323,0.016 0.38,0.016C0.437,0.016 0.486,0.006 0.529,-0.015C0.572,-0.035 0.607,-0.062 0.636,-0.097C0.665,-0.132 0.686,-0.171 0.701,-0.217C0.715,-0.262 0.722,-0.308 0.722,-0.357C0.722,-0.406 0.715,-0.452 0.701,-0.498C0.686,-0.543 0.665,-0.582 0.636,-0.617C0.607,-0.652 0.572,-0.679 0.529,-0.7C0.486,-0.721 0.437,-0.731 0.38,-0.731C0.323,-0.731 0.274,-0.721 0.231,-0.7C0.188,-0.679 0.153,-0.652 0.124,-0.617C0.095,-0.582 0.074,-0.543 0.06,-0.498C0.045,-0.452 0.038,-0.406 0.038,-0.357Z" style="fill:rgb(34,34,34);fill-rule:nonzero;"/>
                </g>
                <g transform="matrix(18.6667,0,0,18.6667,165.778,125.657)">
                    <path d="M0.08,-0.714L0.08,-0L0.17,-0L0.17,-0.594L0.172,-0.594L0.395,-0L0.476,-0L0.699,-0.594L0.701,-0.594L0.701,-0L0.791,-0L0.791,-0.714L0.661,-0.714L0.435,-0.114L0.21,-0.714L0.08,-0.714Z" style="fill:rgb(34,34,34);fill-rule:nonzero;"/>
                </g>
            </g>
            <g id="CycloneDX-Logo1" serif:id="CycloneDX Logo" transform="matrix(0.0836947,0,0,0.0836947,119.166,119.032)">
                <g id="_-006ca2ff1" serif:id="#006ca2ff" transform="matrix(4.16667,0,0,4.16667,-4.32883,-4.12072)">
                    <path d="M35.632,2.144C38.825,1.428 42.12,1.145 45.386,1.385C50.324,1.735 55.205,3.341 59.256,6.212C61.354,7.689 63.219,9.494 64.777,11.533C63.203,10.598 61.498,9.9 59.755,9.348C56.074,8.2 52.122,7.851 48.315,8.518C47.626,8.645 46.886,8.723 46.308,9.155C46.086,9.315 45.901,9.582 45.966,9.868C46.058,10.275 46.426,10.527 46.734,10.772C50.729,13.614 53.805,17.731 55.368,22.381C56.869,26.794 57.006,31.659 55.753,36.15C55.255,37.949 54.539,39.688 53.627,41.317C53.416,41.725 53.139,42.096 52.964,42.523C52.18,43.927 51.215,45.225 50.167,46.443C47.245,49.82 43.574,52.514 39.554,54.442C36.352,56.036 32.945,57.236 29.429,57.911C25.005,58.76 20.392,58.769 16.003,57.707C13.549,57.116 11.172,56.194 8.978,54.944C6.029,53.268 3.423,50.993 1.367,48.295C3.387,49.481 5.6,50.319 7.867,50.893C11.119,51.706 14.541,51.885 17.849,51.309C18.504,51.183 19.201,51.11 19.766,50.724C20.02,50.561 20.249,50.274 20.177,49.955C20.084,49.548 19.716,49.298 19.409,49.054C15.416,46.209 12.34,42.093 10.776,37.445C9.813,34.61 9.409,31.589 9.579,28.601C9.785,24.751 10.982,20.965 12.998,17.682C13.311,17.007 13.722,16.384 14.135,15.768C17.196,11.338 21.524,7.859 26.348,5.509C29.292,4.02 32.41,2.864 35.632,2.144M32.046,20.255C29.248,20.534 26.624,22.115 25.051,24.442C23.75,26.33 23.168,28.691 23.424,30.969C23.647,33.089 24.602,35.12 26.086,36.649C27.571,38.197 29.585,39.228 31.711,39.521C33.93,39.84 36.255,39.363 38.16,38.177C39.954,37.075 41.371,35.373 42.127,33.408C42.953,31.283 42.993,28.866 42.239,26.715C41.546,24.708 40.167,22.949 38.39,21.787C36.538,20.56 34.253,20.017 32.046,20.255Z" style="fill:none;stroke:rgb(69,170,255);stroke-width:2px;"/>
                </g>
                <g transform="matrix(4.16667,0,0,4.16667,-4.32883,-4.12072)">
                    <path d="M87.297,44.938C84.593,43.45 82.473,41.402 80.937,38.794C79.401,36.186 78.633,33.25 78.633,29.986C78.633,26.722 79.401,23.786 80.937,21.178C82.473,18.57 84.601,16.522 87.321,15.034C90.041,13.546 93.081,12.802 96.441,12.802C99.065,12.802 101.465,13.242 103.641,14.122C105.817,15.002 107.673,16.306 109.209,18.034L106.089,21.058C103.561,18.402 100.409,17.074 96.633,17.074C94.137,17.074 91.881,17.634 89.865,18.754C87.849,19.874 86.273,21.418 85.137,23.386C84.001,25.354 83.433,27.554 83.433,29.986C83.433,32.418 84.001,34.618 85.137,36.586C86.273,38.554 87.849,40.098 89.865,41.218C91.881,42.338 94.137,42.898 96.633,42.898C100.377,42.898 103.529,41.554 106.089,38.866L109.209,41.89C107.673,43.618 105.809,44.93 103.617,45.826C101.425,46.722 99.017,47.17 96.393,47.17C93.033,47.17 90.001,46.426 87.297,44.938Z" style="fill-rule:nonzero;"/>
                </g>
                <g transform="matrix(4.16667,0,0,4.16667,-4.32883,-4.12072)">
                    <path d="M137.913,21.346L125.577,49.33C124.489,51.922 123.217,53.746 121.761,54.802C120.305,55.858 118.553,56.386 116.505,56.386C115.257,56.386 114.049,56.186 112.881,55.786C111.713,55.386 110.745,54.802 109.977,54.034L111.945,50.578C113.257,51.826 114.777,52.45 116.505,52.45C117.625,52.45 118.561,52.154 119.313,51.562C120.065,50.97 120.745,49.954 121.353,48.514L122.169,46.738L110.937,21.346L115.737,21.346L124.617,41.698L133.401,21.346L137.913,21.346Z" style="fill-rule:nonzero;"/>
                </g>
                <g transform="matrix(4.16667,0,0,4.16667,-4.32883,-4.12072)">
                    <path d="M145.665,45.394C143.633,44.274 142.041,42.73 140.889,40.762C139.737,38.794 139.161,36.562 139.161,34.066C139.161,31.57 139.737,29.338 140.889,27.37C142.041,25.402 143.633,23.866 145.665,22.762C147.697,21.658 150.009,21.106 152.601,21.106C154.905,21.106 156.961,21.57 158.769,22.498C160.577,23.426 161.977,24.77 162.969,26.53L159.465,28.786C158.665,27.57 157.673,26.658 156.489,26.05C155.305,25.442 153.993,25.138 152.553,25.138C150.889,25.138 149.393,25.506 148.065,26.242C146.737,26.978 145.697,28.026 144.945,29.386C144.193,30.746 143.817,32.306 143.817,34.066C143.817,35.858 144.193,37.434 144.945,38.794C145.697,40.154 146.737,41.202 148.065,41.938C149.393,42.674 150.889,43.042 152.553,43.042C153.993,43.042 155.305,42.738 156.489,42.13C157.673,41.522 158.665,40.61 159.465,39.394L162.969,41.602C161.977,43.362 160.577,44.714 158.769,45.658C156.961,46.602 154.905,47.074 152.601,47.074C150.009,47.074 147.697,46.514 145.665,45.394Z" style="fill-rule:nonzero;"/>
                    <rect x="168.585" y="11.17" width="4.608" height="35.616"/>
                    <path d="M186.057,45.394C184.041,44.274 182.465,42.73 181.329,40.762C180.193,38.794 179.625,36.562 179.625,34.066C179.625,31.57 180.193,29.338 181.329,27.37C182.465,25.402 184.041,23.866 186.057,22.762C188.073,21.658 190.345,21.106 192.873,21.106C195.401,21.106 197.665,21.658 199.665,22.762C201.665,23.866 203.233,25.402 204.369,27.37C205.505,29.338 206.073,31.57 206.073,34.066C206.073,36.562 205.505,38.794 204.369,40.762C203.233,42.73 201.665,44.274 199.665,45.394C197.665,46.514 195.401,47.074 192.873,47.074C190.345,47.074 188.073,46.514 186.057,45.394ZM197.265,41.914C198.561,41.162 199.577,40.106 200.313,38.746C201.049,37.386 201.417,35.826 201.417,34.066C201.417,32.306 201.049,30.746 200.313,29.386C199.577,28.026 198.561,26.978 197.265,26.242C195.969,25.506 194.505,25.138 192.873,25.138C191.241,25.138 189.777,25.506 188.481,26.242C187.185,26.978 186.161,28.026 185.409,29.386C184.657,30.746 184.281,32.306 184.281,34.066C184.281,35.826 184.657,37.386 185.409,38.746C186.161,40.106 187.185,41.162 188.481,41.914C189.777,42.666 191.241,43.042 192.873,43.042C194.505,43.042 195.969,42.666 197.265,41.914Z" style="fill-rule:nonzero;"/>
                    <path d="M233.745,23.914C235.649,25.786 236.601,28.53 236.601,32.146L236.601,46.786L231.993,46.786L231.993,32.674C231.993,30.21 231.401,28.354 230.217,27.106C229.033,25.858 227.337,25.234 225.129,25.234C222.633,25.234 220.665,25.962 219.225,27.418C217.785,28.874 217.065,30.962 217.065,33.682L217.065,46.786L212.457,46.786L212.457,21.346L216.873,21.346L216.873,25.186C217.801,23.874 219.057,22.866 220.641,22.162C222.225,21.458 224.025,21.106 226.041,21.106C229.273,21.106 231.841,22.042 233.745,23.914Z" style="fill-rule:nonzero;"/>
                </g>
                <g transform="matrix(4.16667,0,0,4.16667,-4.32883,-4.12072)">
                    <path d="M268.185,35.602L247.545,35.602C247.833,37.842 248.817,39.642 250.497,41.002C252.177,42.362 254.265,43.042 256.761,43.042C259.801,43.042 262.249,42.018 264.105,39.97L266.649,42.946C265.497,44.29 264.065,45.314 262.353,46.018C260.641,46.722 258.729,47.074 256.617,47.074C253.929,47.074 251.545,46.522 249.465,45.418C247.385,44.314 245.777,42.77 244.641,40.786C243.505,38.802 242.937,36.562 242.937,34.066C242.937,31.602 243.489,29.378 244.593,27.394C245.697,25.41 247.217,23.866 249.153,22.762C251.089,21.658 253.273,21.106 255.705,21.106C258.137,21.106 260.305,21.658 262.209,22.762C264.113,23.866 265.601,25.41 266.673,27.394C267.745,29.378 268.281,31.65 268.281,34.21C268.281,34.562 268.249,35.026 268.185,35.602ZM250.161,27.01C248.673,28.354 247.801,30.114 247.545,32.29L263.865,32.29C263.609,30.146 262.737,28.394 261.249,27.034C259.761,25.674 257.913,24.994 255.705,24.994C253.497,24.994 251.649,25.666 250.161,27.01Z" style="fill-rule:nonzero;"/>
                    <path d="M275.337,13.186L289.497,13.186C293.049,13.186 296.201,13.89 298.953,15.298C301.705,16.706 303.841,18.682 305.361,21.226C306.881,23.77 307.641,26.69 307.641,29.986C307.641,33.282 306.881,36.202 305.361,38.746C303.841,41.29 301.705,43.266 298.953,44.674C296.201,46.082 293.049,46.786 289.497,46.786L275.337,46.786L275.337,13.186ZM289.209,42.61C291.929,42.61 294.321,42.082 296.385,41.026C298.449,39.97 300.041,38.49 301.161,36.586C302.281,34.682 302.841,32.482 302.841,29.986C302.841,27.49 302.281,25.29 301.161,23.386C300.041,21.482 298.449,20.002 296.385,18.946C294.321,17.89 291.929,17.362 289.209,17.362L280.137,17.362L280.137,42.61L289.209,42.61Z" style="fill-rule:nonzero;"/>
                    <path d="M334.905,46.786L324.825,32.914L314.889,46.786L309.369,46.786L321.993,29.554L310.137,13.186L315.609,13.186L325.017,26.098L334.329,13.186L339.561,13.186L327.705,29.41L340.425,46.786L334.905,46.786Z" style="fill-rule:nonzero;"/>
                </g>
            </g>
        </g>
        <g id="Vulnerabilities1" serif:id="Vulnerabilities" transform="matrix(1.04367,0,0,1,-125.503,-89.2267)">
            <g transform="matrix(0.846833,0,0,0.524836,55.1701,107.631)">
                <path d="M622.198,122.541C622.198,110.117 616.208,100.031 608.831,100.031L112.814,100.031C105.436,100.031 99.446,110.117 99.446,122.541L99.446,493.444C99.446,505.868 105.436,515.955 112.814,515.955L608.831,515.955C616.208,515.955 622.198,505.868 622.198,493.444L622.198,122.541Z" style="fill:rgb(204,229,255);"/>
            </g>
            <g transform="matrix(1,0,0,1,-177.294,115.611)">
                <g transform="matrix(18.6667,0,0,18.6667,335.616,77.1686)">
                    <path d="M0.359,-0L0.613,-0.714L0.514,-0.714L0.308,-0.095L0.306,-0.095L0.102,-0.714L0,-0.714L0.251,-0L0.359,-0Z" style="fill:rgb(34,34,34);fill-rule:nonzero;"/>
                </g>
                <g transform="matrix(18.6667,0,0,18.6667,346.331,77.1686)">
                    <path d="M0.492,-0L0.492,-0.517L0.407,-0.517L0.407,-0.225C0.407,-0.202 0.404,-0.18 0.398,-0.161C0.391,-0.141 0.382,-0.124 0.369,-0.109C0.356,-0.094 0.341,-0.083 0.322,-0.075C0.303,-0.067 0.28,-0.063 0.254,-0.063C0.221,-0.063 0.196,-0.072 0.177,-0.091C0.158,-0.11 0.149,-0.135 0.149,-0.167L0.149,-0.517L0.064,-0.517L0.064,-0.177C0.064,-0.149 0.067,-0.124 0.073,-0.101C0.078,-0.078 0.088,-0.058 0.102,-0.041C0.116,-0.024 0.134,-0.012 0.157,-0.003C0.18,0.007 0.208,0.011 0.242,0.011C0.28,0.011 0.313,0.003 0.341,-0.012C0.369,-0.027 0.392,-0.05 0.41,-0.082L0.412,-0.082L0.412,-0L0.492,-0Z" style="fill:rgb(34,34,34);fill-rule:nonzero;"/>
                </g>
                <g transform="matrix(18.6667,0,0,18.6667,356.71,77.1686)">
                    <rect x="0.069" y="-0.714" width="0.085" height="0.714" style="fill:rgb(34,34,34);fill-rule:nonzero;"/>
                </g>
                <g transform="matrix(18.6667,0,0,18.6667,360.854,77.1686)">
                    <path d="M0.064,-0.517L0.064,-0L0.149,-0L0.149,-0.292C0.149,-0.315 0.152,-0.337 0.159,-0.357C0.165,-0.376 0.174,-0.393 0.187,-0.408C0.2,-0.423 0.216,-0.434 0.235,-0.442C0.254,-0.45 0.276,-0.454 0.302,-0.454C0.335,-0.454 0.36,-0.445 0.379,-0.426C0.398,-0.407 0.407,-0.382 0.407,-0.35L0.407,-0L0.492,-0L0.492,-0.34C0.492,-0.368 0.489,-0.393 0.484,-0.417C0.478,-0.44 0.468,-0.459 0.454,-0.476C0.44,-0.493 0.422,-0.506 0.399,-0.515C0.376,-0.524 0.348,-0.529 0.314,-0.529C0.237,-0.529 0.181,-0.498 0.146,-0.435L0.144,-0.435L0.144,-0.517L0.064,-0.517Z" style="fill:rgb(34,34,34);fill-rule:nonzero;"/>
                </g>
                <g transform="matrix(18.6667,0,0,18.6667,371.232,77.1686)">
                    <path d="M0.423,-0.308L0.126,-0.308C0.127,-0.328 0.132,-0.347 0.139,-0.365C0.146,-0.382 0.156,-0.398 0.169,-0.411C0.182,-0.424 0.197,-0.435 0.215,-0.443C0.232,-0.45 0.252,-0.454 0.274,-0.454C0.295,-0.454 0.315,-0.45 0.333,-0.443C0.35,-0.435 0.366,-0.425 0.379,-0.412C0.392,-0.399 0.402,-0.383 0.41,-0.365C0.417,-0.347 0.422,-0.328 0.423,-0.308ZM0.505,-0.164L0.421,-0.164C0.414,-0.13 0.399,-0.105 0.376,-0.088C0.353,-0.071 0.323,-0.063 0.287,-0.063C0.259,-0.063 0.235,-0.068 0.214,-0.077C0.193,-0.086 0.176,-0.099 0.163,-0.115C0.15,-0.13 0.14,-0.148 0.134,-0.169C0.128,-0.189 0.125,-0.21 0.126,-0.233L0.513,-0.233C0.514,-0.264 0.511,-0.297 0.505,-0.332C0.498,-0.367 0.485,-0.399 0.467,-0.428C0.448,-0.457 0.424,-0.482 0.394,-0.501C0.363,-0.52 0.325,-0.529 0.279,-0.529C0.244,-0.529 0.211,-0.522 0.182,-0.509C0.152,-0.496 0.126,-0.477 0.105,-0.453C0.083,-0.429 0.066,-0.401 0.054,-0.368C0.042,-0.335 0.036,-0.299 0.036,-0.26C0.037,-0.221 0.043,-0.184 0.054,-0.151C0.064,-0.118 0.079,-0.089 0.1,-0.065C0.121,-0.041 0.146,-0.022 0.177,-0.009C0.207,0.004 0.243,0.011 0.284,0.011C0.343,0.011 0.391,-0.004 0.43,-0.033C0.469,-0.062 0.494,-0.106 0.505,-0.164Z" style="fill:rgb(34,34,34);fill-rule:nonzero;"/>
                </g>
                <g transform="matrix(18.6667,0,0,18.6667,381.256,77.1686)">
                    <path d="M0.061,-0.517L0.061,-0L0.146,-0L0.146,-0.23C0.146,-0.263 0.149,-0.293 0.156,-0.319C0.163,-0.344 0.173,-0.366 0.188,-0.384C0.203,-0.402 0.222,-0.416 0.246,-0.425C0.27,-0.434 0.299,-0.439 0.333,-0.439L0.333,-0.529C0.287,-0.53 0.249,-0.521 0.219,-0.501C0.189,-0.481 0.164,-0.45 0.143,-0.408L0.141,-0.408L0.141,-0.517L0.061,-0.517Z" style="fill:rgb(34,34,34);fill-rule:nonzero;"/>
                </g>
                <g transform="matrix(18.6667,0,0,18.6667,387.472,77.1686)">
                    <path d="M0.522,-0.002C0.507,0.007 0.487,0.011 0.461,0.011C0.439,0.011 0.422,0.005 0.409,-0.008C0.396,-0.02 0.389,-0.04 0.389,-0.068C0.366,-0.04 0.338,-0.02 0.308,-0.008C0.277,0.005 0.243,0.011 0.207,0.011C0.184,0.011 0.162,0.008 0.141,0.003C0.12,-0.002 0.101,-0.011 0.086,-0.022C0.071,-0.033 0.058,-0.048 0.05,-0.067C0.041,-0.085 0.036,-0.107 0.036,-0.133C0.036,-0.162 0.041,-0.186 0.051,-0.205C0.061,-0.224 0.074,-0.239 0.091,-0.251C0.107,-0.262 0.126,-0.271 0.147,-0.277C0.167,-0.283 0.189,-0.288 0.211,-0.292C0.234,-0.297 0.257,-0.3 0.278,-0.303C0.299,-0.305 0.317,-0.308 0.333,-0.313C0.349,-0.317 0.362,-0.323 0.371,-0.332C0.38,-0.34 0.385,-0.352 0.385,-0.368C0.385,-0.387 0.382,-0.402 0.375,-0.413C0.368,-0.424 0.359,-0.433 0.348,-0.439C0.337,-0.445 0.324,-0.449 0.311,-0.451C0.297,-0.453 0.283,-0.454 0.27,-0.454C0.234,-0.454 0.204,-0.447 0.18,-0.434C0.156,-0.42 0.143,-0.394 0.141,-0.356L0.056,-0.356C0.057,-0.388 0.064,-0.415 0.076,-0.437C0.088,-0.459 0.104,-0.477 0.124,-0.491C0.144,-0.504 0.167,-0.514 0.193,-0.52C0.218,-0.526 0.246,-0.529 0.275,-0.529C0.298,-0.529 0.322,-0.527 0.345,-0.524C0.368,-0.521 0.388,-0.514 0.407,-0.504C0.426,-0.493 0.441,-0.479 0.452,-0.46C0.463,-0.441 0.469,-0.417 0.469,-0.387L0.469,-0.121C0.469,-0.101 0.47,-0.086 0.473,-0.077C0.475,-0.068 0.483,-0.063 0.496,-0.063C0.503,-0.063 0.512,-0.065 0.522,-0.068L0.522,-0.002ZM0.384,-0.267C0.373,-0.259 0.359,-0.253 0.342,-0.25C0.325,-0.246 0.307,-0.243 0.288,-0.241C0.269,-0.238 0.249,-0.236 0.23,-0.233C0.211,-0.23 0.193,-0.225 0.178,-0.218C0.163,-0.211 0.15,-0.202 0.141,-0.19C0.131,-0.177 0.126,-0.16 0.126,-0.139C0.126,-0.125 0.129,-0.113 0.135,-0.104C0.14,-0.094 0.148,-0.086 0.157,-0.08C0.166,-0.074 0.176,-0.07 0.188,-0.067C0.2,-0.064 0.213,-0.063 0.226,-0.063C0.254,-0.063 0.278,-0.067 0.298,-0.075C0.318,-0.082 0.334,-0.092 0.347,-0.104C0.36,-0.115 0.369,-0.128 0.375,-0.142C0.381,-0.155 0.384,-0.168 0.384,-0.18L0.384,-0.267Z" style="fill:rgb(34,34,34);fill-rule:nonzero;"/>
                </g>
                <g transform="matrix(18.6667,0,0,18.6667,397.496,77.1686)">
                    <path d="M0.067,-0.714L0.067,-0L0.152,-0L0.152,-0.069L0.154,-0.069C0.163,-0.054 0.175,-0.041 0.189,-0.031C0.202,-0.02 0.217,-0.012 0.232,-0.006C0.247,0 0.263,0.004 0.279,0.007C0.294,0.01 0.308,0.011 0.321,0.011C0.36,0.011 0.395,0.004 0.425,-0.01C0.454,-0.024 0.479,-0.043 0.499,-0.068C0.518,-0.092 0.533,-0.12 0.543,-0.153C0.552,-0.186 0.557,-0.22 0.557,-0.257C0.557,-0.294 0.552,-0.328 0.542,-0.361C0.532,-0.394 0.517,-0.423 0.498,-0.448C0.478,-0.472 0.453,-0.492 0.424,-0.507C0.394,-0.522 0.359,-0.529 0.319,-0.529C0.283,-0.529 0.25,-0.523 0.22,-0.51C0.19,-0.497 0.168,-0.476 0.154,-0.447L0.152,-0.447L0.152,-0.714L0.067,-0.714ZM0.467,-0.263C0.467,-0.238 0.464,-0.213 0.459,-0.189C0.454,-0.165 0.445,-0.144 0.433,-0.125C0.421,-0.106 0.405,-0.091 0.386,-0.08C0.366,-0.069 0.341,-0.063 0.312,-0.063C0.283,-0.063 0.258,-0.069 0.237,-0.08C0.216,-0.091 0.2,-0.105 0.187,-0.123C0.173,-0.141 0.164,-0.162 0.158,-0.186C0.152,-0.209 0.149,-0.234 0.149,-0.259C0.149,-0.283 0.152,-0.307 0.158,-0.33C0.163,-0.353 0.172,-0.374 0.185,-0.393C0.198,-0.411 0.214,-0.426 0.234,-0.437C0.254,-0.448 0.278,-0.454 0.307,-0.454C0.334,-0.454 0.358,-0.449 0.379,-0.438C0.399,-0.427 0.416,-0.413 0.429,-0.395C0.442,-0.377 0.451,-0.357 0.458,-0.334C0.464,-0.311 0.467,-0.287 0.467,-0.263Z" style="fill:rgb(34,34,34);fill-rule:nonzero;"/>
                </g>
                <g transform="matrix(18.6667,0,0,18.6667,408.566,77.1686)">
                    <path d="M0.154,-0.61L0.154,-0.714L0.069,-0.714L0.069,-0.61L0.154,-0.61ZM0.069,-0.517L0.069,-0L0.154,-0L0.154,-0.517L0.069,-0.517Z" style="fill:rgb(34,34,34);fill-rule:nonzero;"/>
                </g>
                <g transform="matrix(18.6667,0,0,18.6667,412.71,77.1686)">
                    <rect x="0.069" y="-0.714" width="0.085" height="0.714" style="fill:rgb(34,34,34);fill-rule:nonzero;"/>
                </g>
                <g transform="matrix(18.6667,0,0,18.6667,416.854,77.1686)">
                    <path d="M0.154,-0.61L0.154,-0.714L0.069,-0.714L0.069,-0.61L0.154,-0.61ZM0.069,-0.517L0.069,-0L0.154,-0L0.154,-0.517L0.069,-0.517Z" style="fill:rgb(34,34,34);fill-rule:nonzero;"/>
                </g>
                <g transform="matrix(18.6667,0,0,18.6667,420.998,77.1686)">
                    <path d="M0.182,-0.517L0.182,-0.672L0.097,-0.672L0.097,-0.517L0.009,-0.517L0.009,-0.442L0.097,-0.442L0.097,-0.113C0.097,-0.089 0.099,-0.07 0.104,-0.055C0.109,-0.04 0.116,-0.029 0.126,-0.021C0.135,-0.013 0.148,-0.008 0.164,-0.005C0.179,-0.002 0.198,-0 0.22,-0L0.285,-0L0.285,-0.075L0.246,-0.075C0.233,-0.075 0.222,-0.076 0.214,-0.077C0.205,-0.078 0.199,-0.08 0.194,-0.083C0.189,-0.086 0.186,-0.091 0.185,-0.097C0.183,-0.103 0.182,-0.111 0.182,-0.121L0.182,-0.442L0.285,-0.442L0.285,-0.517L0.182,-0.517Z" style="fill:rgb(34,34,34);fill-rule:nonzero;"/>
                </g>
                <g transform="matrix(18.6667,0,0,18.6667,426.878,77.1686)">
                    <path d="M0.154,-0.61L0.154,-0.714L0.069,-0.714L0.069,-0.61L0.154,-0.61ZM0.069,-0.517L0.069,-0L0.154,-0L0.154,-0.517L0.069,-0.517Z" style="fill:rgb(34,34,34);fill-rule:nonzero;"/>
                </g>
                <g transform="matrix(18.6667,0,0,18.6667,431.022,77.1686)">
                    <path d="M0.423,-0.308L0.126,-0.308C0.127,-0.328 0.132,-0.347 0.139,-0.365C0.146,-0.382 0.156,-0.398 0.169,-0.411C0.182,-0.424 0.197,-0.435 0.215,-0.443C0.232,-0.45 0.252,-0.454 0.274,-0.454C0.295,-0.454 0.315,-0.45 0.333,-0.443C0.35,-0.435 0.366,-0.425 0.379,-0.412C0.392,-0.399 0.402,-0.383 0.41,-0.365C0.417,-0.347 0.422,-0.328 0.423,-0.308ZM0.505,-0.164L0.421,-0.164C0.414,-0.13 0.399,-0.105 0.376,-0.088C0.353,-0.071 0.323,-0.063 0.287,-0.063C0.259,-0.063 0.235,-0.068 0.214,-0.077C0.193,-0.086 0.176,-0.099 0.163,-0.115C0.15,-0.13 0.14,-0.148 0.134,-0.169C0.128,-0.189 0.125,-0.21 0.126,-0.233L0.513,-0.233C0.514,-0.264 0.511,-0.297 0.505,-0.332C0.498,-0.367 0.485,-0.399 0.467,-0.428C0.448,-0.457 0.424,-0.482 0.394,-0.501C0.363,-0.52 0.325,-0.529 0.279,-0.529C0.244,-0.529 0.211,-0.522 0.182,-0.509C0.152,-0.496 0.126,-0.477 0.105,-0.453C0.083,-0.429 0.066,-0.401 0.054,-0.368C0.042,-0.335 0.036,-0.299 0.036,-0.26C0.037,-0.221 0.043,-0.184 0.054,-0.151C0.064,-0.118 0.079,-0.089 0.1,-0.065C0.121,-0.041 0.146,-0.022 0.177,-0.009C0.207,0.004 0.243,0.011 0.284,0.011C0.343,0.011 0.391,-0.004 0.43,-0.033C0.469,-0.062 0.494,-0.106 0.505,-0.164Z" style="fill:rgb(34,34,34);fill-rule:nonzero;"/>
                </g>
                <g transform="matrix(18.6667,0,0,18.6667,441.046,77.1686)">
                    <path d="M0.116,-0.163L0.031,-0.163C0.032,-0.131 0.039,-0.104 0.051,-0.082C0.063,-0.059 0.079,-0.041 0.099,-0.028C0.119,-0.014 0.142,-0.004 0.168,0.002C0.194,0.008 0.221,0.011 0.25,0.011C0.276,0.011 0.302,0.008 0.329,0.004C0.355,-0.002 0.379,-0.01 0.4,-0.023C0.421,-0.036 0.438,-0.052 0.451,-0.073C0.464,-0.094 0.47,-0.12 0.47,-0.151C0.47,-0.176 0.465,-0.196 0.456,-0.213C0.446,-0.23 0.433,-0.244 0.418,-0.255C0.402,-0.266 0.384,-0.274 0.364,-0.281C0.343,-0.288 0.322,-0.293 0.301,-0.298C0.281,-0.303 0.261,-0.307 0.241,-0.312C0.221,-0.316 0.203,-0.321 0.187,-0.328C0.171,-0.334 0.158,-0.342 0.148,-0.352C0.137,-0.361 0.132,-0.373 0.132,-0.388C0.132,-0.401 0.135,-0.412 0.142,-0.421C0.149,-0.429 0.157,-0.436 0.168,-0.441C0.179,-0.446 0.191,-0.449 0.204,-0.451C0.217,-0.453 0.229,-0.454 0.242,-0.454C0.256,-0.454 0.27,-0.452 0.284,-0.45C0.297,-0.447 0.31,-0.442 0.321,-0.435C0.332,-0.428 0.342,-0.42 0.349,-0.409C0.356,-0.398 0.361,-0.384 0.362,-0.367L0.447,-0.367C0.445,-0.398 0.438,-0.425 0.427,-0.446C0.416,-0.467 0.401,-0.483 0.382,-0.496C0.363,-0.508 0.341,-0.517 0.316,-0.522C0.291,-0.527 0.264,-0.529 0.235,-0.529C0.212,-0.529 0.19,-0.526 0.167,-0.521C0.143,-0.515 0.123,-0.506 0.105,-0.495C0.086,-0.483 0.071,-0.468 0.06,-0.449C0.048,-0.43 0.042,-0.408 0.042,-0.382C0.042,-0.349 0.05,-0.323 0.067,-0.304C0.084,-0.285 0.105,-0.271 0.13,-0.261C0.155,-0.25 0.182,-0.242 0.211,-0.237C0.24,-0.231 0.268,-0.225 0.293,-0.218C0.318,-0.211 0.338,-0.201 0.355,-0.19C0.372,-0.179 0.38,-0.162 0.38,-0.14C0.38,-0.124 0.376,-0.111 0.368,-0.101C0.36,-0.09 0.35,-0.082 0.338,-0.077C0.325,-0.072 0.312,-0.068 0.297,-0.066C0.282,-0.064 0.268,-0.063 0.255,-0.063C0.238,-0.063 0.221,-0.065 0.205,-0.068C0.188,-0.071 0.173,-0.077 0.161,-0.085C0.148,-0.092 0.137,-0.102 0.129,-0.116C0.121,-0.129 0.117,-0.144 0.116,-0.163Z" style="fill:rgb(34,34,34);fill-rule:nonzero;"/>
                </g>
            </g>
        </g>
        <g id="Vulnerability1" serif:id="Vulnerability" transform="matrix(1.04367,0,0,1,-64.6269,-27.0159)">
            <g transform="matrix(0.771855,0,0,0.241993,23.8954,127.967)">
                <path d="M622.198,122.541C622.198,110.117 619.168,100.031 615.436,100.031L106.208,100.031C102.476,100.031 99.446,110.117 99.446,122.541L99.446,493.444C99.446,505.868 102.476,515.955 106.208,515.955L615.436,515.955C619.168,515.955 622.198,505.868 622.198,493.444L622.198,122.541Z" style="fill:rgb(148,183,232);"/>
            </g>
            <g transform="matrix(1,0,0,1,-217.337,108.391)">
                <g transform="matrix(18.6667,0,0,18.6667,335.616,77.1686)">
                    <path d="M0.359,-0L0.613,-0.714L0.514,-0.714L0.308,-0.095L0.306,-0.095L0.102,-0.714L0,-0.714L0.251,-0L0.359,-0Z" style="fill:rgb(34,34,34);fill-rule:nonzero;"/>
                </g>
                <g transform="matrix(18.6667,0,0,18.6667,346.331,77.1686)">
                    <path d="M0.492,-0L0.492,-0.517L0.407,-0.517L0.407,-0.225C0.407,-0.202 0.404,-0.18 0.398,-0.161C0.391,-0.141 0.382,-0.124 0.369,-0.109C0.356,-0.094 0.341,-0.083 0.322,-0.075C0.303,-0.067 0.28,-0.063 0.254,-0.063C0.221,-0.063 0.196,-0.072 0.177,-0.091C0.158,-0.11 0.149,-0.135 0.149,-0.167L0.149,-0.517L0.064,-0.517L0.064,-0.177C0.064,-0.149 0.067,-0.124 0.073,-0.101C0.078,-0.078 0.088,-0.058 0.102,-0.041C0.116,-0.024 0.134,-0.012 0.157,-0.003C0.18,0.007 0.208,0.011 0.242,0.011C0.28,0.011 0.313,0.003 0.341,-0.012C0.369,-0.027 0.392,-0.05 0.41,-0.082L0.412,-0.082L0.412,-0L0.492,-0Z" style="fill:rgb(34,34,34);fill-rule:nonzero;"/>
                </g>
                <g transform="matrix(18.6667,0,0,18.6667,356.71,77.1686)">
                    <rect x="0.069" y="-0.714" width="0.085" height="0.714" style="fill:rgb(34,34,34);fill-rule:nonzero;"/>
                </g>
                <g transform="matrix(18.6667,0,0,18.6667,360.854,77.1686)">
                    <path d="M0.064,-0.517L0.064,-0L0.149,-0L0.149,-0.292C0.149,-0.315 0.152,-0.337 0.159,-0.357C0.165,-0.376 0.174,-0.393 0.187,-0.408C0.2,-0.423 0.216,-0.434 0.235,-0.442C0.254,-0.45 0.276,-0.454 0.302,-0.454C0.335,-0.454 0.36,-0.445 0.379,-0.426C0.398,-0.407 0.407,-0.382 0.407,-0.35L0.407,-0L0.492,-0L0.492,-0.34C0.492,-0.368 0.489,-0.393 0.484,-0.417C0.478,-0.44 0.468,-0.459 0.454,-0.476C0.44,-0.493 0.422,-0.506 0.399,-0.515C0.376,-0.524 0.348,-0.529 0.314,-0.529C0.237,-0.529 0.181,-0.498 0.146,-0.435L0.144,-0.435L0.144,-0.517L0.064,-0.517Z" style="fill:rgb(34,34,34);fill-rule:nonzero;"/>
                </g>
                <g transform="matrix(18.6667,0,0,18.6667,371.232,77.1686)">
                    <path d="M0.423,-0.308L0.126,-0.308C0.127,-0.328 0.132,-0.347 0.139,-0.365C0.146,-0.382 0.156,-0.398 0.169,-0.411C0.182,-0.424 0.197,-0.435 0.215,-0.443C0.232,-0.45 0.252,-0.454 0.274,-0.454C0.295,-0.454 0.315,-0.45 0.333,-0.443C0.35,-0.435 0.366,-0.425 0.379,-0.412C0.392,-0.399 0.402,-0.383 0.41,-0.365C0.417,-0.347 0.422,-0.328 0.423,-0.308ZM0.505,-0.164L0.421,-0.164C0.414,-0.13 0.399,-0.105 0.376,-0.088C0.353,-0.071 0.323,-0.063 0.287,-0.063C0.259,-0.063 0.235,-0.068 0.214,-0.077C0.193,-0.086 0.176,-0.099 0.163,-0.115C0.15,-0.13 0.14,-0.148 0.134,-0.169C0.128,-0.189 0.125,-0.21 0.126,-0.233L0.513,-0.233C0.514,-0.264 0.511,-0.297 0.505,-0.332C0.498,-0.367 0.485,-0.399 0.467,-0.428C0.448,-0.457 0.424,-0.482 0.394,-0.501C0.363,-0.52 0.325,-0.529 0.279,-0.529C0.244,-0.529 0.211,-0.522 0.182,-0.509C0.152,-0.496 0.126,-0.477 0.105,-0.453C0.083,-0.429 0.066,-0.401 0.054,-0.368C0.042,-0.335 0.036,-0.299 0.036,-0.26C0.037,-0.221 0.043,-0.184 0.054,-0.151C0.064,-0.118 0.079,-0.089 0.1,-0.065C0.121,-0.041 0.146,-0.022 0.177,-0.009C0.207,0.004 0.243,0.011 0.284,0.011C0.343,0.011 0.391,-0.004 0.43,-0.033C0.469,-0.062 0.494,-0.106 0.505,-0.164Z" style="fill:rgb(34,34,34);fill-rule:nonzero;"/>
                </g>
                <g transform="matrix(18.6667,0,0,18.6667,381.256,77.1686)">
                    <path d="M0.061,-0.517L0.061,-0L0.146,-0L0.146,-0.23C0.146,-0.263 0.149,-0.293 0.156,-0.319C0.163,-0.344 0.173,-0.366 0.188,-0.384C0.203,-0.402 0.222,-0.416 0.246,-0.425C0.27,-0.434 0.299,-0.439 0.333,-0.439L0.333,-0.529C0.287,-0.53 0.249,-0.521 0.219,-0.501C0.189,-0.481 0.164,-0.45 0.143,-0.408L0.141,-0.408L0.141,-0.517L0.061,-0.517Z" style="fill:rgb(34,34,34);fill-rule:nonzero;"/>
                </g>
                <g transform="matrix(18.6667,0,0,18.6667,387.472,77.1686)">
                    <path d="M0.522,-0.002C0.507,0.007 0.487,0.011 0.461,0.011C0.439,0.011 0.422,0.005 0.409,-0.008C0.396,-0.02 0.389,-0.04 0.389,-0.068C0.366,-0.04 0.338,-0.02 0.308,-0.008C0.277,0.005 0.243,0.011 0.207,0.011C0.184,0.011 0.162,0.008 0.141,0.003C0.12,-0.002 0.101,-0.011 0.086,-0.022C0.071,-0.033 0.058,-0.048 0.05,-0.067C0.041,-0.085 0.036,-0.107 0.036,-0.133C0.036,-0.162 0.041,-0.186 0.051,-0.205C0.061,-0.224 0.074,-0.239 0.091,-0.251C0.107,-0.262 0.126,-0.271 0.147,-0.277C0.167,-0.283 0.189,-0.288 0.211,-0.292C0.234,-0.297 0.257,-0.3 0.278,-0.303C0.299,-0.305 0.317,-0.308 0.333,-0.313C0.349,-0.317 0.362,-0.323 0.371,-0.332C0.38,-0.34 0.385,-0.352 0.385,-0.368C0.385,-0.387 0.382,-0.402 0.375,-0.413C0.368,-0.424 0.359,-0.433 0.348,-0.439C0.337,-0.445 0.324,-0.449 0.311,-0.451C0.297,-0.453 0.283,-0.454 0.27,-0.454C0.234,-0.454 0.204,-0.447 0.18,-0.434C0.156,-0.42 0.143,-0.394 0.141,-0.356L0.056,-0.356C0.057,-0.388 0.064,-0.415 0.076,-0.437C0.088,-0.459 0.104,-0.477 0.124,-0.491C0.144,-0.504 0.167,-0.514 0.193,-0.52C0.218,-0.526 0.246,-0.529 0.275,-0.529C0.298,-0.529 0.322,-0.527 0.345,-0.524C0.368,-0.521 0.388,-0.514 0.407,-0.504C0.426,-0.493 0.441,-0.479 0.452,-0.46C0.463,-0.441 0.469,-0.417 0.469,-0.387L0.469,-0.121C0.469,-0.101 0.47,-0.086 0.473,-0.077C0.475,-0.068 0.483,-0.063 0.496,-0.063C0.503,-0.063 0.512,-0.065 0.522,-0.068L0.522,-0.002ZM0.384,-0.267C0.373,-0.259 0.359,-0.253 0.342,-0.25C0.325,-0.246 0.307,-0.243 0.288,-0.241C0.269,-0.238 0.249,-0.236 0.23,-0.233C0.211,-0.23 0.193,-0.225 0.178,-0.218C0.163,-0.211 0.15,-0.202 0.141,-0.19C0.131,-0.177 0.126,-0.16 0.126,-0.139C0.126,-0.125 0.129,-0.113 0.135,-0.104C0.14,-0.094 0.148,-0.086 0.157,-0.08C0.166,-0.074 0.176,-0.07 0.188,-0.067C0.2,-0.064 0.213,-0.063 0.226,-0.063C0.254,-0.063 0.278,-0.067 0.298,-0.075C0.318,-0.082 0.334,-0.092 0.347,-0.104C0.36,-0.115 0.369,-0.128 0.375,-0.142C0.381,-0.155 0.384,-0.168 0.384,-0.18L0.384,-0.267Z" style="fill:rgb(34,34,34);fill-rule:nonzero;"/>
                </g>
                <g transform="matrix(18.6667,0,0,18.6667,397.496,77.1686)">
                    <path d="M0.067,-0.714L0.067,-0L0.152,-0L0.152,-0.069L0.154,-0.069C0.163,-0.054 0.175,-0.041 0.189,-0.031C0.202,-0.02 0.217,-0.012 0.232,-0.006C0.247,0 0.263,0.004 0.279,0.007C0.294,0.01 0.308,0.011 0.321,0.011C0.36,0.011 0.395,0.004 0.425,-0.01C0.454,-0.024 0.479,-0.043 0.499,-0.068C0.518,-0.092 0.533,-0.12 0.543,-0.153C0.552,-0.186 0.557,-0.22 0.557,-0.257C0.557,-0.294 0.552,-0.328 0.542,-0.361C0.532,-0.394 0.517,-0.423 0.498,-0.448C0.478,-0.472 0.453,-0.492 0.424,-0.507C0.394,-0.522 0.359,-0.529 0.319,-0.529C0.283,-0.529 0.25,-0.523 0.22,-0.51C0.19,-0.497 0.168,-0.476 0.154,-0.447L0.152,-0.447L0.152,-0.714L0.067,-0.714ZM0.467,-0.263C0.467,-0.238 0.464,-0.213 0.459,-0.189C0.454,-0.165 0.445,-0.144 0.433,-0.125C0.421,-0.106 0.405,-0.091 0.386,-0.08C0.366,-0.069 0.341,-0.063 0.312,-0.063C0.283,-0.063 0.258,-0.069 0.237,-0.08C0.216,-0.091 0.2,-0.105 0.187,-0.123C0.173,-0.141 0.164,-0.162 0.158,-0.186C0.152,-0.209 0.149,-0.234 0.149,-0.259C0.149,-0.283 0.152,-0.307 0.158,-0.33C0.163,-0.353 0.172,-0.374 0.185,-0.393C0.198,-0.411 0.214,-0.426 0.234,-0.437C0.254,-0.448 0.278,-0.454 0.307,-0.454C0.334,-0.454 0.358,-0.449 0.379,-0.438C0.399,-0.427 0.416,-0.413 0.429,-0.395C0.442,-0.377 0.451,-0.357 0.458,-0.334C0.464,-0.311 0.467,-0.287 0.467,-0.263Z" style="fill:rgb(34,34,34);fill-rule:nonzero;"/>
                </g>
                <g transform="matrix(18.6667,0,0,18.6667,408.566,77.1686)">
                    <path d="M0.154,-0.61L0.154,-0.714L0.069,-0.714L0.069,-0.61L0.154,-0.61ZM0.069,-0.517L0.069,-0L0.154,-0L0.154,-0.517L0.069,-0.517Z" style="fill:rgb(34,34,34);fill-rule:nonzero;"/>
                </g>
                <g transform="matrix(18.6667,0,0,18.6667,412.71,77.1686)">
                    <rect x="0.069" y="-0.714" width="0.085" height="0.714" style="fill:rgb(34,34,34);fill-rule:nonzero;"/>
                </g>
                <g transform="matrix(18.6667,0,0,18.6667,416.854,77.1686)">
                    <path d="M0.154,-0.61L0.154,-0.714L0.069,-0.714L0.069,-0.61L0.154,-0.61ZM0.069,-0.517L0.069,-0L0.154,-0L0.154,-0.517L0.069,-0.517Z" style="fill:rgb(34,34,34);fill-rule:nonzero;"/>
                </g>
                <g transform="matrix(18.6667,0,0,18.6667,420.998,77.1686)">
                    <path d="M0.182,-0.517L0.182,-0.672L0.097,-0.672L0.097,-0.517L0.009,-0.517L0.009,-0.442L0.097,-0.442L0.097,-0.113C0.097,-0.089 0.099,-0.07 0.104,-0.055C0.109,-0.04 0.116,-0.029 0.126,-0.021C0.135,-0.013 0.148,-0.008 0.164,-0.005C0.179,-0.002 0.198,-0 0.22,-0L0.285,-0L0.285,-0.075L0.246,-0.075C0.233,-0.075 0.222,-0.076 0.214,-0.077C0.205,-0.078 0.199,-0.08 0.194,-0.083C0.189,-0.086 0.186,-0.091 0.185,-0.097C0.183,-0.103 0.182,-0.111 0.182,-0.121L0.182,-0.442L0.285,-0.442L0.285,-0.517L0.182,-0.517Z" style="fill:rgb(34,34,34);fill-rule:nonzero;"/>
                </g>
                <g transform="matrix(18.6667,0,0,18.6667,426.878,77.1686)">
                    <path d="M0.267,0.069C0.257,0.094 0.247,0.116 0.238,0.133C0.228,0.15 0.217,0.165 0.206,0.176C0.194,0.187 0.181,0.195 0.167,0.2C0.152,0.205 0.136,0.207 0.117,0.207C0.107,0.207 0.097,0.206 0.087,0.205C0.077,0.204 0.067,0.201 0.058,0.198L0.058,0.12C0.065,0.123 0.074,0.126 0.084,0.129C0.093,0.131 0.101,0.132 0.108,0.132C0.125,0.132 0.14,0.128 0.152,0.12C0.163,0.111 0.172,0.099 0.178,0.084L0.213,-0.003L0.008,-0.517L0.104,-0.517L0.255,-0.094L0.257,-0.094L0.402,-0.517L0.492,-0.517L0.267,0.069Z" style="fill:rgb(34,34,34);fill-rule:nonzero;"/>
                </g>
            </g>
        </g>
    </g>
</svg>
