<?xml version="1.0" encoding="UTF-8" standalone="no"?><!DOCTYPE svg PUBLIC "-//W3C//DTD SVG 1.1//EN" "http://www.w3.org/Graphics/SVG/1.1/DTD/svg11.dtd"><svg width="100%" height="100%" viewBox="0 0 3032 250" version="1.1" xmlns="http://www.w3.org/2000/svg" xmlns:xlink="http://www.w3.org/1999/xlink" xml:space="preserve" xmlns:serif="http://www.serif.com/" style="fill-rule:evenodd;clip-rule:evenodd;stroke-linejoin:round;stroke-miterlimit:2;"><g id="Compositions"><rect x="0" y="-0" width="468.75" height="250" style="fill:#ebdaad;"/><rect x="468.75" y="-0" width="2562.5" height="250" style="fill:#fff9e5;"/><path d="M79.921,101.859c4.541,0 8.065,1.196 10.571,3.589c2.507,2.393 3.898,5.111 4.175,8.154l-4.736,0c-0.537,-2.311 -1.608,-4.142 -3.211,-5.493c-1.603,-1.351 -3.853,-2.026 -6.75,-2.026c-3.532,-0 -6.385,1.241 -8.557,3.723c-2.173,2.482 -3.26,6.287 -3.26,11.414c0,4.199 0.981,7.605 2.942,10.217c1.961,2.612 4.887,3.918 8.777,3.918c3.581,0 6.307,-1.375 8.179,-4.126c0.993,-1.448 1.733,-3.353 2.221,-5.713l4.737,0c-0.423,3.776 -1.823,6.942 -4.199,9.497c-2.849,3.077 -6.69,4.615 -11.524,4.615c-4.167,-0 -7.666,-1.262 -10.498,-3.784c-3.727,-3.337 -5.591,-8.488 -5.591,-15.455c0,-5.289 1.4,-9.627 4.199,-13.012c3.028,-3.679 7.203,-5.518 12.525,-5.518Z" style="fill-rule:nonzero;"/><path d="M110.707,135.868c2.913,-0 4.911,-1.103 5.994,-3.308c1.082,-2.206 1.623,-4.659 1.623,-7.361c0,-2.441 -0.39,-4.427 -1.172,-5.957c-1.237,-2.409 -3.369,-3.613 -6.396,-3.613c-2.686,-0 -4.639,1.025 -5.86,3.076c-1.22,2.051 -1.831,4.525 -1.831,7.422c0,2.783 0.611,5.102 1.831,6.958c1.221,1.855 3.158,2.783 5.811,2.783Zm0.171,-24.072c3.369,-0 6.217,1.123 8.545,3.369c2.327,2.246 3.491,5.55 3.491,9.912c0,4.215 -1.025,7.699 -3.076,10.449c-2.051,2.751 -5.233,4.126 -9.546,4.126c-3.597,0 -6.453,-1.216 -8.569,-3.65c-2.116,-2.433 -3.174,-5.7 -3.174,-9.802c-0,-4.395 1.115,-7.894 3.345,-10.498c2.229,-2.604 5.224,-3.906 8.984,-3.906Z" style="fill-rule:nonzero;"/><path d="M128.139,112.553l4.345,-0l0,3.71c1.042,-1.285 1.986,-2.221 2.832,-2.807c1.449,-0.993 3.093,-1.489 4.932,-1.489c2.083,-0 3.76,0.512 5.029,1.538c0.716,0.586 1.368,1.448 1.953,2.588c0.977,-1.4 2.124,-2.438 3.443,-3.113c1.318,-0.676 2.799,-1.013 4.443,-1.013c3.516,-0 5.908,1.269 7.178,3.808c0.684,1.367 1.025,3.207 1.025,5.518l0,17.407l-4.565,0l-0,-18.164c-0,-1.742 -0.435,-2.938 -1.306,-3.589c-0.871,-0.651 -1.933,-0.976 -3.186,-0.976c-1.726,-0 -3.211,0.577 -4.456,1.733c-1.245,1.156 -1.868,3.084 -1.868,5.786l0,15.21l-4.467,0l-0,-17.065c-0,-1.775 -0.212,-3.068 -0.635,-3.882c-0.667,-1.221 -1.912,-1.831 -3.735,-1.831c-1.661,-0 -3.17,0.643 -4.529,1.928c-1.359,1.286 -2.039,3.614 -2.039,6.983l0,13.867l-4.394,0l-0,-26.147Z" style="fill-rule:nonzero;"/><path d="M180.824,135.746c2.051,-0 3.756,-0.859 5.115,-2.576c1.359,-1.717 2.039,-4.284 2.039,-7.702c-0,-2.084 -0.302,-3.874 -0.904,-5.372c-1.139,-2.88 -3.222,-4.321 -6.25,-4.321c-3.043,0 -5.127,1.522 -6.25,4.566c-0.602,1.627 -0.903,3.694 -0.903,6.201c-0,2.018 0.301,3.735 0.903,5.151c1.14,2.702 3.223,4.053 6.25,4.053Zm-11.377,-23.071l4.273,-0l-0,3.466c0.879,-1.188 1.839,-2.107 2.881,-2.758c1.481,-0.977 3.222,-1.465 5.224,-1.465c2.962,-0 5.477,1.135 7.544,3.406c2.067,2.27 3.101,5.513 3.101,9.729c-0,5.696 -1.49,9.765 -4.468,12.207c-1.888,1.546 -4.085,2.319 -6.592,2.319c-1.969,-0 -3.621,-0.431 -4.956,-1.294c-0.781,-0.488 -1.652,-1.327 -2.612,-2.515l-0,13.355l-4.395,-0l0,-36.45Z" style="fill-rule:nonzero;"/><path d="M207.973,135.868c2.913,-0 4.911,-1.103 5.993,-3.308c1.083,-2.206 1.624,-4.659 1.624,-7.361c-0,-2.441 -0.391,-4.427 -1.172,-5.957c-1.237,-2.409 -3.369,-3.613 -6.397,-3.613c-2.685,-0 -4.638,1.025 -5.859,3.076c-1.221,2.051 -1.831,4.525 -1.831,7.422c0,2.783 0.61,5.102 1.831,6.958c1.221,1.855 3.158,2.783 5.811,2.783Zm0.171,-24.072c3.369,-0 6.217,1.123 8.544,3.369c2.328,2.246 3.492,5.55 3.492,9.912c-0,4.215 -1.026,7.699 -3.076,10.449c-2.051,2.751 -5.233,4.126 -9.546,4.126c-3.597,0 -6.454,-1.216 -8.57,-3.65c-2.116,-2.433 -3.174,-5.7 -3.174,-9.802c0,-4.395 1.115,-7.894 3.345,-10.498c2.23,-2.604 5.225,-3.906 8.985,-3.906Z" style="fill-rule:nonzero;"/><path d="M228.017,130.497c0.13,1.465 0.496,2.588 1.098,3.369c1.107,1.416 3.028,2.124 5.762,2.124c1.628,0 3.06,-0.354 4.297,-1.062c1.237,-0.708 1.855,-1.803 1.855,-3.284c0,-1.123 -0.496,-1.977 -1.489,-2.563c-0.635,-0.358 -1.888,-0.773 -3.76,-1.245l-3.491,-0.879c-2.23,-0.554 -3.874,-1.172 -4.932,-1.856c-1.888,-1.188 -2.832,-2.832 -2.832,-4.931c0,-2.474 0.892,-4.476 2.674,-6.006c1.782,-1.53 4.179,-2.295 7.19,-2.295c3.938,-0 6.779,1.156 8.52,3.467c1.091,1.465 1.62,3.043 1.587,4.736l-4.15,0c-0.082,-0.993 -0.432,-1.896 -1.05,-2.71c-1.009,-1.155 -2.759,-1.733 -5.249,-1.733c-1.66,-0 -2.918,0.317 -3.772,0.952c-0.855,0.635 -1.282,1.473 -1.282,2.515c0,1.139 0.562,2.05 1.685,2.734c0.651,0.407 1.611,0.765 2.881,1.074l2.905,0.708c3.157,0.765 5.273,1.506 6.348,2.222c1.709,1.123 2.563,2.889 2.563,5.298c-0,2.327 -0.883,4.337 -2.649,6.03c-1.766,1.693 -4.455,2.539 -8.069,2.539c-3.89,-0 -6.644,-0.883 -8.264,-2.649c-1.619,-1.766 -2.486,-3.951 -2.6,-6.555l4.224,-0Z" style="fill-rule:nonzero;"/><path d="M250.404,112.675l4.468,-0l0,26.025l-4.468,0l0,-26.025Zm0,-9.839l4.468,-0l0,4.98l-4.468,0l0,-4.98Z" style="fill-rule:nonzero;"/><path d="M262.392,105.253l4.443,-0l-0,7.3l4.175,-0l-0,3.588l-4.175,0l-0,17.066c-0,0.911 0.309,1.522 0.928,1.831c0.341,0.179 0.911,0.268 1.709,0.268c0.211,0 0.439,-0.004 0.683,-0.012c0.244,-0.008 0.529,-0.028 0.855,-0.061l-0,3.467c-0.505,0.146 -1.03,0.252 -1.575,0.317c-0.545,0.065 -1.135,0.098 -1.77,0.098c-2.051,0 -3.442,-0.525 -4.175,-1.575c-0.732,-1.049 -1.098,-2.413 -1.098,-4.089l-0,-17.31l-3.54,0l-0,-3.588l3.54,-0l-0,-7.3Z" style="fill-rule:nonzero;"/><path d="M275.404,112.675l4.468,-0l0,26.025l-4.468,0l0,-26.025Zm0,-9.839l4.468,-0l0,4.98l-4.468,0l0,-4.98Z" style="fill-rule:nonzero;"/><path d="M296.889,135.868c2.913,-0 4.911,-1.103 5.993,-3.308c1.083,-2.206 1.624,-4.659 1.624,-7.361c-0,-2.441 -0.391,-4.427 -1.172,-5.957c-1.237,-2.409 -3.369,-3.613 -6.397,-3.613c-2.685,-0 -4.638,1.025 -5.859,3.076c-1.221,2.051 -1.831,4.525 -1.831,7.422c0,2.783 0.61,5.102 1.831,6.958c1.221,1.855 3.158,2.783 5.811,2.783Zm0.171,-24.072c3.369,-0 6.217,1.123 8.544,3.369c2.328,2.246 3.492,5.55 3.492,9.912c-0,4.215 -1.026,7.699 -3.076,10.449c-2.051,2.751 -5.233,4.126 -9.546,4.126c-3.597,0 -6.454,-1.216 -8.57,-3.65c-2.116,-2.433 -3.174,-5.7 -3.174,-9.802c0,-4.395 1.115,-7.894 3.345,-10.498c2.23,-2.604 5.225,-3.906 8.985,-3.906Z" style="fill-rule:nonzero;"/><path d="M314.32,112.553l4.175,-0l0,3.71c1.237,-1.529 2.547,-2.628 3.931,-3.295c1.383,-0.668 2.921,-1.001 4.614,-1.001c3.711,-0 6.217,1.294 7.52,3.881c0.716,1.416 1.074,3.443 1.074,6.08l-0,16.772l-4.468,0l0,-16.479c0,-1.596 -0.236,-2.881 -0.708,-3.858c-0.781,-1.628 -2.197,-2.441 -4.248,-2.441c-1.042,-0 -1.896,0.105 -2.564,0.317c-1.204,0.358 -2.262,1.074 -3.173,2.149c-0.733,0.862 -1.209,1.753 -1.429,2.673c-0.219,0.919 -0.329,2.234 -0.329,3.943l-0,13.696l-4.395,0l0,-26.147Z" style="fill-rule:nonzero;"/><path d="M344.74,130.497c0.13,1.465 0.497,2.588 1.099,3.369c1.107,1.416 3.027,2.124 5.762,2.124c1.627,0 3.059,-0.354 4.296,-1.062c1.237,-0.708 1.856,-1.803 1.856,-3.284c-0,-1.123 -0.496,-1.977 -1.489,-2.563c-0.635,-0.358 -1.888,-0.773 -3.76,-1.245l-3.491,-0.879c-2.23,-0.554 -3.874,-1.172 -4.932,-1.856c-1.888,-1.188 -2.832,-2.832 -2.832,-4.931c0,-2.474 0.891,-4.476 2.673,-6.006c1.783,-1.53 4.179,-2.295 7.19,-2.295c3.939,-0 6.779,1.156 8.521,3.467c1.09,1.465 1.619,3.043 1.587,4.736l-4.151,0c-0.081,-0.993 -0.431,-1.896 -1.049,-2.71c-1.01,-1.155 -2.759,-1.733 -5.249,-1.733c-1.661,-0 -2.918,0.317 -3.772,0.952c-0.855,0.635 -1.282,1.473 -1.282,2.515c-0,1.139 0.561,2.05 1.684,2.734c0.651,0.407 1.612,0.765 2.881,1.074l2.905,0.708c3.158,0.765 5.274,1.506 6.348,2.222c1.709,1.123 2.564,2.889 2.564,5.298c-0,2.327 -0.883,4.337 -2.649,6.03c-1.766,1.693 -4.456,2.539 -8.069,2.539c-3.89,-0 -6.645,-0.883 -8.264,-2.649c-1.62,-1.766 -2.486,-3.951 -2.6,-6.555l4.223,-0Z" style="fill-rule:nonzero;"/><g id="Tag:-Services" serif:id="Tag: Services"><path d="M1029.07,124.984l18.715,-35.964l-0.06,71.96l-18.655,-35.996Z" style="fill:#ebdaad;"/><rect x="1047.78" y="89.02" width="443.75" height="71.959" style="fill:#ebdaad;"/><path d="M1087.02,126.862c0.1,1.78 0.52,3.225 1.261,4.336c1.409,2.08 3.895,3.119 7.455,3.119c1.595,0 3.048,-0.228 4.358,-0.683c2.535,-0.883 3.802,-2.464 3.802,-4.743c0,-1.709 -0.534,-2.926 -1.602,-3.653c-1.082,-0.712 -2.777,-1.331 -5.084,-1.858l-4.251,-0.962c-2.777,-0.626 -4.743,-1.317 -5.896,-2.072c-1.994,-1.31 -2.991,-3.268 -2.991,-5.874c0,-2.82 0.976,-5.134 2.927,-6.943c1.951,-1.809 4.714,-2.713 8.288,-2.713c3.29,-0 6.085,0.794 8.385,2.382c2.3,1.588 3.45,4.126 3.45,7.615l-3.995,0c-0.213,-1.68 -0.669,-2.969 -1.367,-3.866c-1.296,-1.638 -3.496,-2.457 -6.601,-2.457c-2.506,0 -4.308,0.527 -5.404,1.581c-1.097,1.054 -1.645,2.279 -1.645,3.674c-0,1.538 0.64,2.663 1.922,3.376c0.84,0.455 2.742,1.025 5.704,1.709l4.401,1.004c2.122,0.484 3.759,1.146 4.913,1.986c1.994,1.467 2.991,3.596 2.991,6.388c-0,3.475 -1.264,5.96 -3.792,7.455c-2.528,1.495 -5.465,2.243 -8.812,2.243c-3.902,0 -6.957,-0.997 -9.165,-2.991c-2.207,-1.979 -3.289,-4.664 -3.247,-8.053l3.995,-0Z" style="fill:#333;fill-rule:nonzero;"/><path d="M1122.44,113.596c1.623,-0 3.197,0.381 4.721,1.143c1.524,0.762 2.684,1.748 3.482,2.958c0.769,1.154 1.282,2.5 1.538,4.038c0.228,1.054 0.342,2.734 0.342,5.041l-16.77,0c0.072,2.322 0.62,4.184 1.645,5.587c1.026,1.402 2.614,2.104 4.764,2.104c2.008,-0 3.61,-0.662 4.807,-1.987c0.683,-0.769 1.167,-1.659 1.452,-2.67l3.781,-0c-0.099,0.84 -0.43,1.776 -0.993,2.809c-0.562,1.032 -1.193,1.876 -1.89,2.531c-1.168,1.14 -2.614,1.909 -4.337,2.307c-0.926,0.228 -1.972,0.342 -3.14,0.342c-2.849,0 -5.263,-1.036 -7.242,-3.108c-1.98,-2.072 -2.969,-4.974 -2.969,-8.705c-0,-3.674 0.996,-6.658 2.99,-8.951c1.994,-2.293 4.6,-3.439 7.819,-3.439Zm6.131,10.126c-0.157,-1.667 -0.52,-2.998 -1.09,-3.995c-1.054,-1.852 -2.812,-2.777 -5.276,-2.777c-1.766,-0 -3.247,0.637 -4.444,1.912c-1.196,1.274 -1.83,2.894 -1.901,4.86l12.711,-0Z" style="fill:#333;fill-rule:nonzero;"/><path d="M1137.35,114.108l3.653,0l-0,3.952c0.299,-0.769 1.032,-1.705 2.2,-2.809c1.168,-1.103 2.514,-1.655 4.037,-1.655c0.072,-0 0.193,0.007 0.364,0.021c0.171,0.014 0.462,0.043 0.875,0.086l0,4.058c-0.227,-0.042 -0.437,-0.071 -0.63,-0.085c-0.192,-0.014 -0.402,-0.021 -0.63,-0.021c-1.937,-0 -3.425,0.623 -4.465,1.869c-1.039,1.246 -1.559,2.681 -1.559,4.304l-0,13.159l-3.845,0l-0,-22.879Z" style="fill:#333;fill-rule:nonzero;"/><path d="M1153.69,114.108l6.11,18.628l6.387,-18.628l4.208,0l-8.63,22.879l-4.102,0l-8.438,-22.879l4.465,0Z" style="fill:#333;fill-rule:nonzero;"/><path d="M1173.69,114.215l3.909,0l0,22.772l-3.909,0l0,-22.772Zm0,-8.609l3.909,0l0,4.358l-3.909,0l0,-4.358Z" style="fill:#333;fill-rule:nonzero;"/><path d="M1192.23,113.446c2.578,0 4.675,0.627 6.292,1.88c1.616,1.253 2.588,3.411 2.916,6.473l-3.739,-0c-0.228,-1.41 -0.747,-2.581 -1.559,-3.514c-0.812,-0.933 -2.115,-1.399 -3.91,-1.399c-2.449,-0 -4.201,1.196 -5.255,3.588c-0.683,1.553 -1.025,3.468 -1.025,5.747c-0,2.293 0.484,4.223 1.453,5.789c0.968,1.567 2.492,2.35 4.571,2.35c1.595,-0 2.859,-0.488 3.792,-1.463c0.933,-0.976 1.577,-2.311 1.933,-4.006l3.739,0c-0.428,3.034 -1.496,5.252 -3.205,6.655c-1.709,1.402 -3.895,2.104 -6.558,2.104c-2.991,-0 -5.376,-1.093 -7.156,-3.279c-1.78,-2.186 -2.671,-4.917 -2.671,-8.193c0,-4.016 0.976,-7.142 2.927,-9.378c1.951,-2.236 4.436,-3.354 7.455,-3.354Z" style="fill:#333;fill-rule:nonzero;"/><path d="M1214.81,113.596c1.624,-0 3.198,0.381 4.722,1.143c1.523,0.762 2.684,1.748 3.482,2.958c0.769,1.154 1.281,2.5 1.538,4.038c0.228,1.054 0.341,2.734 0.341,5.041l-16.769,0c0.071,2.322 0.62,4.184 1.645,5.587c1.025,1.402 2.613,2.104 4.764,2.104c2.008,-0 3.61,-0.662 4.806,-1.987c0.684,-0.769 1.168,-1.659 1.453,-2.67l3.781,-0c-0.1,0.84 -0.431,1.776 -0.993,2.809c-0.563,1.032 -1.193,1.876 -1.891,2.531c-1.168,1.14 -2.613,1.909 -4.336,2.307c-0.926,0.228 -1.973,0.342 -3.141,0.342c-2.848,0 -5.262,-1.036 -7.242,-3.108c-1.979,-2.072 -2.969,-4.974 -2.969,-8.705c0,-3.674 0.997,-6.658 2.991,-8.951c1.994,-2.293 4.6,-3.439 7.818,-3.439Zm6.131,10.126c-0.156,-1.667 -0.519,-2.998 -1.089,-3.995c-1.054,-1.852 -2.813,-2.777 -5.277,-2.777c-1.765,-0 -3.247,0.637 -4.443,1.912c-1.196,1.274 -1.83,2.894 -1.901,4.86l12.71,-0Z" style="fill:#333;fill-rule:nonzero;"/><path d="M1231.9,129.81c0.114,1.282 0.435,2.264 0.962,2.948c0.968,1.239 2.649,1.858 5.041,1.858c1.424,0 2.678,-0.309 3.76,-0.929c1.082,-0.619 1.623,-1.577 1.623,-2.873c0,-0.983 -0.434,-1.731 -1.303,-2.243c-0.555,-0.314 -1.652,-0.677 -3.289,-1.09l-3.055,-0.769c-1.951,-0.484 -3.39,-1.025 -4.315,-1.623c-1.653,-1.04 -2.479,-2.478 -2.479,-4.315c0,-2.165 0.78,-3.917 2.34,-5.256c1.559,-1.338 3.656,-2.008 6.291,-2.008c3.446,0 5.931,1.011 7.455,3.034c0.954,1.282 1.417,2.663 1.389,4.144l-3.632,0c-0.071,-0.869 -0.377,-1.659 -0.918,-2.371c-0.883,-1.011 -2.414,-1.517 -4.593,-1.517c-1.453,0 -2.553,0.278 -3.301,0.833c-0.747,0.556 -1.121,1.289 -1.121,2.201c-0,0.996 0.491,1.794 1.474,2.392c0.569,0.356 1.41,0.669 2.521,0.94l2.542,0.62c2.763,0.669 4.614,1.317 5.554,1.944c1.495,0.982 2.243,2.527 2.243,4.635c-0,2.037 -0.773,3.796 -2.318,5.277c-1.545,1.481 -3.899,2.221 -7.06,2.221c-3.404,0 -5.814,-0.772 -7.231,-2.317c-1.417,-1.546 -2.176,-3.458 -2.275,-5.736l3.695,-0Z" style="fill:#333;fill-rule:nonzero;"/></g><g id="Tag:-Dependencies" serif:id="Tag: Dependencies"><path d="M1528.95,124.984l18.716,-35.964l-0.061,71.96l-18.655,-35.996Z" style="fill:#ebdaad;"/><rect x="1547.66" y="89.02" width="443.75" height="71.959" style="fill:#ebdaad;"/><path d="M1596.17,133.356c1.438,-0 2.62,-0.15 3.546,-0.449c1.652,-0.555 3.005,-1.623 4.059,-3.204c0.84,-1.268 1.445,-2.891 1.815,-4.871c0.214,-1.182 0.321,-2.278 0.321,-3.289c-0,-3.888 -0.773,-6.908 -2.318,-9.058c-1.545,-2.151 -4.034,-3.226 -7.466,-3.226l-7.541,0l-0,24.097l7.584,-0Zm-11.856,-27.75l12.71,0c4.315,0 7.662,1.531 10.04,4.593c2.122,2.763 3.183,6.302 3.183,10.617c0,3.333 -0.626,6.345 -1.88,9.036c-2.207,4.757 -6.002,7.135 -11.386,7.135l-12.667,0l-0,-31.381Z" style="fill:#333;fill-rule:nonzero;"/><path d="M1624.73,113.596c1.624,-0 3.197,0.381 4.721,1.143c1.524,0.762 2.685,1.748 3.482,2.958c0.769,1.154 1.282,2.5 1.538,4.038c0.228,1.054 0.342,2.734 0.342,5.041l-16.769,0c0.071,2.322 0.619,4.184 1.645,5.587c1.025,1.402 2.613,2.104 4.763,2.104c2.008,-0 3.611,-0.662 4.807,-1.987c0.683,-0.769 1.168,-1.659 1.452,-2.67l3.782,-0c-0.1,0.84 -0.431,1.776 -0.994,2.809c-0.562,1.032 -1.192,1.876 -1.89,2.531c-1.168,1.14 -2.614,1.909 -4.337,2.307c-0.926,0.228 -1.972,0.342 -3.14,0.342c-2.848,0 -5.262,-1.036 -7.242,-3.108c-1.98,-2.072 -2.969,-4.974 -2.969,-8.705c-0,-3.674 0.997,-6.658 2.99,-8.951c1.994,-2.293 4.6,-3.439 7.819,-3.439Zm6.131,10.126c-0.157,-1.667 -0.52,-2.998 -1.089,-3.995c-1.054,-1.852 -2.813,-2.777 -5.277,-2.777c-1.766,-0 -3.247,0.637 -4.443,1.912c-1.197,1.274 -1.83,2.894 -1.902,4.86l12.711,-0Z" style="fill:#333;fill-rule:nonzero;"/><path d="M1649.19,134.403c1.794,-0 3.286,-0.752 4.475,-2.254c1.189,-1.503 1.784,-3.749 1.784,-6.74c0,-1.823 -0.263,-3.389 -0.79,-4.7c-0.997,-2.52 -2.82,-3.781 -5.469,-3.781c-2.663,0 -4.486,1.332 -5.469,3.995c-0.527,1.424 -0.79,3.233 -0.79,5.426c-0,1.766 0.263,3.269 0.79,4.508c0.997,2.364 2.82,3.546 5.469,3.546Zm-9.955,-20.188l3.738,0l0,3.034c0.769,-1.04 1.61,-1.845 2.521,-2.414c1.296,-0.855 2.82,-1.282 4.572,-1.282c2.592,0 4.792,0.993 6.601,2.98c1.808,1.987 2.713,4.824 2.713,8.513c-0,4.985 -1.303,8.545 -3.91,10.681c-1.652,1.353 -3.574,2.03 -5.767,2.03c-1.724,-0 -3.169,-0.378 -4.337,-1.133c-0.684,-0.427 -1.446,-1.16 -2.286,-2.2l0,11.685l-3.845,0l0,-31.894Z" style="fill:#333;fill-rule:nonzero;"/><path d="M1673.4,113.596c1.624,-0 3.198,0.381 4.721,1.143c1.524,0.762 2.685,1.748 3.482,2.958c0.77,1.154 1.282,2.5 1.539,4.038c0.227,1.054 0.341,2.734 0.341,5.041l-16.769,0c0.071,2.322 0.619,4.184 1.645,5.587c1.025,1.402 2.613,2.104 4.764,2.104c2.008,-0 3.61,-0.662 4.806,-1.987c0.684,-0.769 1.168,-1.659 1.453,-2.67l3.781,-0c-0.1,0.84 -0.431,1.776 -0.993,2.809c-0.563,1.032 -1.193,1.876 -1.891,2.531c-1.168,1.14 -2.613,1.909 -4.337,2.307c-0.925,0.228 -1.972,0.342 -3.14,0.342c-2.848,0 -5.262,-1.036 -7.242,-3.108c-1.979,-2.072 -2.969,-4.974 -2.969,-8.705c0,-3.674 0.997,-6.658 2.991,-8.951c1.994,-2.293 4.6,-3.439 7.818,-3.439Zm6.131,10.126c-0.156,-1.667 -0.519,-2.998 -1.089,-3.995c-1.054,-1.852 -2.813,-2.777 -5.277,-2.777c-1.766,-0 -3.247,0.637 -4.443,1.912c-1.196,1.274 -1.83,2.894 -1.901,4.86l12.71,-0Z" style="fill:#333;fill-rule:nonzero;"/><path d="M1688.2,114.108l3.653,0l0,3.248c1.083,-1.339 2.229,-2.3 3.44,-2.884c1.21,-0.584 2.556,-0.876 4.037,-0.876c3.247,-0 5.44,1.132 6.58,3.396c0.626,1.239 0.94,3.012 0.94,5.32l-0,14.675l-3.91,0l0,-14.419c0,-1.396 -0.206,-2.521 -0.619,-3.375c-0.684,-1.424 -1.923,-2.137 -3.717,-2.137c-0.912,0 -1.659,0.093 -2.243,0.278c-1.054,0.313 -1.98,0.94 -2.777,1.88c-0.641,0.755 -1.058,1.535 -1.25,2.339c-0.192,0.805 -0.288,1.955 -0.288,3.45l-0,11.984l-3.846,0l0,-22.879Z" style="fill:#333;fill-rule:nonzero;"/><path d="M1714.97,125.815c0,2.45 0.52,4.5 1.56,6.152c1.039,1.652 2.706,2.478 4.999,2.478c1.78,0 3.243,-0.765 4.39,-2.296c1.146,-1.531 1.719,-3.728 1.719,-6.59c0,-2.891 -0.591,-5.031 -1.773,-6.42c-1.182,-1.388 -2.642,-2.083 -4.379,-2.083c-1.937,0 -3.507,0.741 -4.71,2.222c-1.204,1.481 -1.806,3.66 -1.806,6.537Zm5.79,-12.112c1.751,-0 3.218,0.37 4.4,1.11c0.684,0.428 1.46,1.175 2.329,2.243l-0,-11.557l3.695,0l0,31.488l-3.46,0l-0,-3.182c-0.898,1.409 -1.959,2.428 -3.183,3.054c-1.225,0.627 -2.628,0.94 -4.209,0.94c-2.549,0 -4.756,-1.071 -6.622,-3.215c-1.866,-2.143 -2.798,-4.995 -2.798,-8.555c-0,-3.333 0.85,-6.22 2.552,-8.663c1.702,-2.442 4.134,-3.663 7.296,-3.663Z" style="fill:#333;fill-rule:nonzero;"/><path d="M1746.39,113.596c1.624,-0 3.198,0.381 4.721,1.143c1.524,0.762 2.685,1.748 3.482,2.958c0.77,1.154 1.282,2.5 1.539,4.038c0.227,1.054 0.341,2.734 0.341,5.041l-16.769,0c0.071,2.322 0.619,4.184 1.645,5.587c1.025,1.402 2.613,2.104 4.764,2.104c2.008,-0 3.61,-0.662 4.806,-1.987c0.684,-0.769 1.168,-1.659 1.453,-2.67l3.781,-0c-0.1,0.84 -0.431,1.776 -0.993,2.809c-0.563,1.032 -1.193,1.876 -1.891,2.531c-1.168,1.14 -2.613,1.909 -4.337,2.307c-0.925,0.228 -1.972,0.342 -3.14,0.342c-2.848,0 -5.262,-1.036 -7.242,-3.108c-1.979,-2.072 -2.969,-4.974 -2.969,-8.705c0,-3.674 0.997,-6.658 2.991,-8.951c1.994,-2.293 4.6,-3.439 7.818,-3.439Zm6.131,10.126c-0.156,-1.667 -0.519,-2.998 -1.089,-3.995c-1.054,-1.852 -2.813,-2.777 -5.277,-2.777c-1.766,-0 -3.247,0.637 -4.443,1.912c-1.196,1.274 -1.83,2.894 -1.901,4.86l12.71,-0Z" style="fill:#333;fill-rule:nonzero;"/><path d="M1761.2,114.108l3.653,0l0,3.248c1.083,-1.339 2.229,-2.3 3.44,-2.884c1.21,-0.584 2.556,-0.876 4.037,-0.876c3.247,-0 5.44,1.132 6.58,3.396c0.626,1.239 0.94,3.012 0.94,5.32l-0,14.675l-3.91,0l0,-14.419c0,-1.396 -0.206,-2.521 -0.619,-3.375c-0.684,-1.424 -1.923,-2.137 -3.717,-2.137c-0.912,0 -1.659,0.093 -2.243,0.278c-1.054,0.313 -1.98,0.94 -2.777,1.88c-0.641,0.755 -1.058,1.535 -1.25,2.339c-0.192,0.805 -0.288,1.955 -0.288,3.45l-0,11.984l-3.846,0l0,-22.879Z" style="fill:#333;fill-rule:nonzero;"/><path d="M1794.35,113.446c2.577,0 4.675,0.627 6.291,1.88c1.616,1.253 2.588,3.411 2.916,6.473l-3.739,-0c-0.227,-1.41 -0.747,-2.581 -1.559,-3.514c-0.812,-0.933 -2.115,-1.399 -3.909,-1.399c-2.45,-0 -4.202,1.196 -5.255,3.588c-0.684,1.553 -1.026,3.468 -1.026,5.747c0,2.293 0.484,4.223 1.453,5.789c0.968,1.567 2.492,2.35 4.571,2.35c1.595,-0 2.859,-0.488 3.792,-1.463c0.933,-0.976 1.577,-2.311 1.933,-4.006l3.739,0c-0.427,3.034 -1.495,5.252 -3.204,6.655c-1.709,1.402 -3.896,2.104 -6.559,2.104c-2.99,-0 -5.376,-1.093 -7.156,-3.279c-1.78,-2.186 -2.67,-4.917 -2.67,-8.193c-0,-4.016 0.975,-7.142 2.926,-9.378c1.951,-2.236 4.437,-3.354 7.456,-3.354Z" style="fill:#333;fill-rule:nonzero;"/><path d="M1807.4,114.215l3.909,0l0,22.772l-3.909,0l0,-22.772Zm0,-8.609l3.909,0l0,4.358l-3.909,0l0,-4.358Z" style="fill:#333;fill-rule:nonzero;"/><path d="M1826.65,113.596c1.623,-0 3.197,0.381 4.721,1.143c1.523,0.762 2.684,1.748 3.482,2.958c0.769,1.154 1.281,2.5 1.538,4.038c0.228,1.054 0.342,2.734 0.342,5.041l-16.77,0c0.071,2.322 0.62,4.184 1.645,5.587c1.025,1.402 2.613,2.104 4.764,2.104c2.008,-0 3.61,-0.662 4.806,-1.987c0.684,-0.769 1.168,-1.659 1.453,-2.67l3.781,-0c-0.1,0.84 -0.431,1.776 -0.993,2.809c-0.563,1.032 -1.193,1.876 -1.891,2.531c-1.168,1.14 -2.613,1.909 -4.336,2.307c-0.926,0.228 -1.973,0.342 -3.141,0.342c-2.848,0 -5.262,-1.036 -7.241,-3.108c-1.98,-2.072 -2.97,-4.974 -2.97,-8.705c0,-3.674 0.997,-6.658 2.991,-8.951c1.994,-2.293 4.6,-3.439 7.819,-3.439Zm6.131,10.126c-0.157,-1.667 -0.52,-2.998 -1.09,-3.995c-1.054,-1.852 -2.813,-2.777 -5.276,-2.777c-1.766,-0 -3.248,0.637 -4.444,1.912c-1.196,1.274 -1.83,2.894 -1.901,4.86l12.711,-0Z" style="fill:#333;fill-rule:nonzero;"/><path d="M1843.74,129.81c0.114,1.282 0.435,2.264 0.962,2.948c0.968,1.239 2.649,1.858 5.041,1.858c1.424,0 2.678,-0.309 3.76,-0.929c1.082,-0.619 1.623,-1.577 1.623,-2.873c0,-0.983 -0.434,-1.731 -1.303,-2.243c-0.555,-0.314 -1.652,-0.677 -3.289,-1.09l-3.055,-0.769c-1.951,-0.484 -3.39,-1.025 -4.315,-1.623c-1.652,-1.04 -2.478,-2.478 -2.478,-4.315c-0,-2.165 0.779,-3.917 2.339,-5.256c1.559,-1.338 3.656,-2.008 6.291,-2.008c3.446,0 5.932,1.011 7.455,3.034c0.955,1.282 1.417,2.663 1.389,4.144l-3.632,0c-0.071,-0.869 -0.377,-1.659 -0.918,-2.371c-0.883,-1.011 -2.414,-1.517 -4.593,-1.517c-1.453,0 -2.553,0.278 -3.301,0.833c-0.747,0.556 -1.121,1.289 -1.121,2.201c-0,0.996 0.491,1.794 1.474,2.392c0.57,0.356 1.41,0.669 2.521,0.94l2.542,0.62c2.763,0.669 4.614,1.317 5.554,1.944c1.495,0.982 2.243,2.527 2.243,4.635c-0,2.037 -0.773,3.796 -2.318,5.277c-1.545,1.481 -3.898,2.221 -7.06,2.221c-3.404,0 -5.814,-0.772 -7.231,-2.317c-1.417,-1.546 -2.176,-3.458 -2.275,-5.736l3.695,-0Z" style="fill:#333;fill-rule:nonzero;"/></g><g id="Tag:-Vulnerabilities" serif:id="Tag: Vulnerabilities"><path d="M2029.09,124.984l18.715,-35.964l-0.06,71.96l-18.655,-35.996Z" style="fill:#ebdaad;"/><rect x="2047.81" y="89.02" width="443.75" height="71.959" style="fill:#ebdaad;"/><path d="M2086.75,105.606l9.015,26.725l8.908,-26.725l4.764,0l-11.451,31.381l-4.507,0l-11.429,-31.381l4.7,0Z" style="fill:#333;fill-rule:nonzero;"/><path d="M2115.18,114.108l0,15.189c0,1.168 0.185,2.122 0.556,2.863c0.683,1.367 1.958,2.05 3.823,2.05c2.678,0 4.501,-1.196 5.469,-3.588c0.527,-1.282 0.791,-3.041 0.791,-5.277l-0,-11.237l3.845,0l-0,22.879l-3.632,0l0.043,-3.375c-0.499,0.869 -1.118,1.602 -1.859,2.201c-1.467,1.196 -3.247,1.794 -5.34,1.794c-3.262,0 -5.483,-1.089 -6.665,-3.268c-0.641,-1.168 -0.962,-2.728 -0.962,-4.679l0,-15.552l3.931,0Z" style="fill:#333;fill-rule:nonzero;"/><rect x="2135.77" y="105.606" width="3.845" height="31.381" style="fill:#333;fill-rule:nonzero;"/><path d="M2145.39,114.108l3.653,0l0,3.248c1.083,-1.339 2.229,-2.3 3.44,-2.884c1.21,-0.584 2.556,-0.876 4.037,-0.876c3.247,-0 5.44,1.132 6.58,3.396c0.626,1.239 0.94,3.012 0.94,5.32l-0,14.675l-3.91,0l0,-14.419c0,-1.396 -0.206,-2.521 -0.619,-3.375c-0.684,-1.424 -1.923,-2.137 -3.717,-2.137c-0.912,0 -1.659,0.093 -2.243,0.278c-1.054,0.313 -1.98,0.94 -2.777,1.88c-0.641,0.755 -1.058,1.535 -1.25,2.339c-0.192,0.805 -0.288,1.955 -0.288,3.45l-0,11.984l-3.846,0l0,-22.879Z" style="fill:#333;fill-rule:nonzero;"/><path d="M2179.25,113.596c1.623,-0 3.197,0.381 4.721,1.143c1.524,0.762 2.684,1.748 3.482,2.958c0.769,1.154 1.282,2.5 1.538,4.038c0.228,1.054 0.342,2.734 0.342,5.041l-16.77,0c0.071,2.322 0.62,4.184 1.645,5.587c1.026,1.402 2.613,2.104 4.764,2.104c2.008,-0 3.61,-0.662 4.806,-1.987c0.684,-0.769 1.168,-1.659 1.453,-2.67l3.781,-0c-0.099,0.84 -0.431,1.776 -0.993,2.809c-0.563,1.032 -1.193,1.876 -1.891,2.531c-1.168,1.14 -2.613,1.909 -4.336,2.307c-0.926,0.228 -1.973,0.342 -3.141,0.342c-2.848,0 -5.262,-1.036 -7.241,-3.108c-1.98,-2.072 -2.97,-4.974 -2.97,-8.705c0,-3.674 0.997,-6.658 2.991,-8.951c1.994,-2.293 4.6,-3.439 7.819,-3.439Zm6.131,10.126c-0.157,-1.667 -0.52,-2.998 -1.09,-3.995c-1.054,-1.852 -2.813,-2.777 -5.276,-2.777c-1.766,-0 -3.247,0.637 -4.444,1.912c-1.196,1.274 -1.83,2.894 -1.901,4.86l12.711,-0Z" style="fill:#333;fill-rule:nonzero;"/><path d="M2194.16,114.108l3.652,0l0,3.952c0.3,-0.769 1.033,-1.705 2.201,-2.809c1.168,-1.103 2.513,-1.655 4.037,-1.655c0.071,-0 0.193,0.007 0.363,0.021c0.171,0.014 0.463,0.043 0.876,0.086l0,4.058c-0.228,-0.042 -0.438,-0.071 -0.63,-0.085c-0.192,-0.014 -0.402,-0.021 -0.63,-0.021c-1.937,-0 -3.425,0.623 -4.465,1.869c-1.039,1.246 -1.559,2.681 -1.559,4.304l-0,13.159l-3.845,0l-0,-22.879Z" style="fill:#333;fill-rule:nonzero;"/><path d="M2211.57,130.899c-0,1.111 0.406,1.987 1.217,2.628c0.812,0.641 1.774,0.961 2.884,0.961c1.353,0 2.664,-0.313 3.931,-0.94c2.136,-1.039 3.204,-2.741 3.204,-5.105l0,-3.098c-0.47,0.299 -1.075,0.548 -1.815,0.748c-0.741,0.199 -1.467,0.342 -2.179,0.427l-2.329,0.299c-1.396,0.185 -2.442,0.477 -3.14,0.876c-1.182,0.669 -1.773,1.737 -1.773,3.204Zm9.314,-7.776c0.883,-0.114 1.474,-0.484 1.773,-1.11c0.171,-0.342 0.256,-0.834 0.256,-1.474c0,-1.311 -0.466,-2.261 -1.399,-2.852c-0.933,-0.591 -2.268,-0.887 -4.005,-0.887c-2.009,0 -3.433,0.541 -4.273,1.624c-0.47,0.598 -0.776,1.488 -0.919,2.67l-3.588,-0c0.071,-2.82 0.986,-4.782 2.745,-5.885c1.759,-1.104 3.799,-1.656 6.12,-1.656c2.692,0 4.878,0.513 6.558,1.538c1.666,1.026 2.5,2.621 2.5,4.785l-0,13.181c-0,0.399 0.081,0.719 0.245,0.961c0.164,0.242 0.509,0.363 1.036,0.363c0.171,0 0.363,-0.01 0.577,-0.032c0.214,-0.021 0.442,-0.053 0.684,-0.096l-0,2.841c-0.598,0.171 -1.054,0.278 -1.367,0.321c-0.314,0.042 -0.741,0.064 -1.282,0.064c-1.325,-0 -2.286,-0.47 -2.884,-1.41c-0.313,-0.499 -0.534,-1.203 -0.662,-2.115c-0.784,1.025 -1.909,1.916 -3.376,2.67c-1.466,0.755 -3.083,1.133 -4.849,1.133c-2.122,-0 -3.856,-0.645 -5.202,-1.934c-1.345,-1.289 -2.018,-2.901 -2.018,-4.838c-0,-2.122 0.662,-3.767 1.986,-4.935c1.325,-1.168 3.062,-1.887 5.213,-2.158l6.131,-0.769Z" style="fill:#333;fill-rule:nonzero;"/><path d="M2232.65,105.499l3.739,0l-0,11.387c0.84,-1.097 1.844,-1.934 3.012,-2.51c1.168,-0.577 2.435,-0.866 3.802,-0.866c2.849,0 5.159,0.979 6.932,2.938c1.774,1.958 2.66,4.845 2.66,8.662c0,3.617 -0.876,6.622 -2.628,9.015c-1.751,2.393 -4.179,3.589 -7.284,3.589c-1.738,-0 -3.204,-0.42 -4.401,-1.261c-0.712,-0.498 -1.474,-1.296 -2.285,-2.392l-0,2.926l-3.547,0l0,-31.488Zm9.998,28.818c2.079,0 3.635,-0.826 4.668,-2.478c1.032,-1.652 1.548,-3.831 1.548,-6.537c0,-2.407 -0.516,-4.4 -1.548,-5.981c-1.033,-1.581 -2.553,-2.371 -4.561,-2.371c-1.752,-0 -3.286,0.648 -4.604,1.944c-1.317,1.296 -1.976,3.432 -1.976,6.408c0,2.151 0.271,3.895 0.812,5.234c1.011,2.521 2.898,3.781 5.661,3.781Z" style="fill:#333;fill-rule:nonzero;"/><path d="M2257.28,114.215l3.909,0l0,22.772l-3.909,0l0,-22.772Zm0,-8.609l3.909,0l0,4.358l-3.909,0l0,-4.358Z" style="fill:#333;fill-rule:nonzero;"/><rect x="2267.11" y="105.606" width="3.845" height="31.381" style="fill:#333;fill-rule:nonzero;"/><path d="M2276.72,114.215l3.909,0l0,22.772l-3.909,0l-0,-22.772Zm-0,-8.609l3.909,0l0,4.358l-3.909,0l-0,-4.358Z" style="fill:#333;fill-rule:nonzero;"/><path d="M2287.21,107.721l3.888,0l-0,6.387l3.653,0l-0,3.141l-3.653,-0l-0,14.932c-0,0.798 0.27,1.332 0.811,1.602c0.3,0.157 0.798,0.235 1.496,0.235c0.185,0 0.384,-0.003 0.598,-0.011c0.214,-0.007 0.463,-0.024 0.748,-0.053l-0,3.033c-0.442,0.129 -0.901,0.221 -1.378,0.278c-0.477,0.057 -0.994,0.086 -1.549,0.086c-1.794,-0 -3.012,-0.46 -3.653,-1.378c-0.641,-0.919 -0.961,-2.112 -0.961,-3.578l-0,-15.146l-3.098,-0l0,-3.141l3.098,0l-0,-6.387Z" style="fill:#333;fill-rule:nonzero;"/><path d="M2298.6,114.215l3.909,0l0,22.772l-3.909,0l-0,-22.772Zm-0,-8.609l3.909,0l0,4.358l-3.909,0l-0,-4.358Z" style="fill:#333;fill-rule:nonzero;"/><path d="M2317.85,113.596c1.624,-0 3.198,0.381 4.721,1.143c1.524,0.762 2.685,1.748 3.482,2.958c0.769,1.154 1.282,2.5 1.538,4.038c0.228,1.054 0.342,2.734 0.342,5.041l-16.769,0c0.071,2.322 0.619,4.184 1.645,5.587c1.025,1.402 2.613,2.104 4.764,2.104c2.008,-0 3.61,-0.662 4.806,-1.987c0.684,-0.769 1.168,-1.659 1.453,-2.67l3.781,-0c-0.1,0.84 -0.431,1.776 -0.993,2.809c-0.563,1.032 -1.193,1.876 -1.891,2.531c-1.168,1.14 -2.613,1.909 -4.337,2.307c-0.925,0.228 -1.972,0.342 -3.14,0.342c-2.848,0 -5.262,-1.036 -7.242,-3.108c-1.979,-2.072 -2.969,-4.974 -2.969,-8.705c-0,-3.674 0.997,-6.658 2.991,-8.951c1.993,-2.293 4.6,-3.439 7.818,-3.439Zm6.131,10.126c-0.156,-1.667 -0.52,-2.998 -1.089,-3.995c-1.054,-1.852 -2.813,-2.777 -5.277,-2.777c-1.766,-0 -3.247,0.637 -4.443,1.912c-1.196,1.274 -1.83,2.894 -1.901,4.86l12.71,-0Z" style="fill:#333;fill-rule:nonzero;"/><path d="M2334.93,129.81c0.114,1.282 0.434,2.264 0.961,2.948c0.969,1.239 2.649,1.858 5.042,1.858c1.424,0 2.677,-0.309 3.76,-0.929c1.082,-0.619 1.623,-1.577 1.623,-2.873c0,-0.983 -0.434,-1.731 -1.303,-2.243c-0.555,-0.314 -1.652,-0.677 -3.29,-1.09l-3.054,-0.769c-1.952,-0.484 -3.39,-1.025 -4.316,-1.623c-1.652,-1.04 -2.478,-2.478 -2.478,-4.315c0,-2.165 0.78,-3.917 2.339,-5.256c1.56,-1.338 3.657,-2.008 6.292,-2.008c3.446,0 5.931,1.011 7.455,3.034c0.954,1.282 1.417,2.663 1.389,4.144l-3.632,0c-0.071,-0.869 -0.377,-1.659 -0.918,-2.371c-0.883,-1.011 -2.414,-1.517 -4.593,-1.517c-1.453,0 -2.553,0.278 -3.301,0.833c-0.748,0.556 -1.121,1.289 -1.121,2.201c-0,0.996 0.491,1.794 1.474,2.392c0.569,0.356 1.41,0.669 2.52,0.94l2.542,0.62c2.763,0.669 4.615,1.317 5.555,1.944c1.495,0.982 2.243,2.527 2.243,4.635c-0,2.037 -0.773,3.796 -2.318,5.277c-1.545,1.481 -3.899,2.221 -7.06,2.221c-3.404,0 -5.814,-0.772 -7.231,-2.317c-1.418,-1.546 -2.176,-3.458 -2.276,-5.736l3.696,-0Z" style="fill:#333;fill-rule:nonzero;"/></g><g id="Tag:-Components" serif:id="Tag: Components"><path d="M529.093,125.091l18.715,-35.964l-0.06,71.959l-18.655,-35.995Z" style="fill:#ebdaad;"/><rect x="547.808" y="89.127" width="443.75" height="71.959" style="fill:#ebdaad;"/><path d="M597.493,104.858c3.973,0 7.057,1.047 9.25,3.14c2.193,2.094 3.411,4.472 3.653,7.135l-4.144,0c-0.47,-2.022 -1.407,-3.624 -2.809,-4.806c-1.403,-1.182 -3.372,-1.773 -5.907,-1.773c-3.091,-0 -5.586,1.086 -7.488,3.258c-1.901,2.171 -2.852,5.5 -2.852,9.986c0,3.675 0.859,6.655 2.575,8.941c1.716,2.285 4.276,3.428 7.679,3.428c3.134,0 5.519,-1.203 7.157,-3.61c0.868,-1.268 1.516,-2.934 1.944,-4.999l4.144,0c-0.37,3.304 -1.595,6.074 -3.674,8.31c-2.493,2.692 -5.854,4.038 -10.083,4.038c-3.646,-0 -6.708,-1.104 -9.186,-3.312c-3.261,-2.919 -4.892,-7.427 -4.892,-13.522c-0,-4.628 1.225,-8.424 3.674,-11.386c2.649,-3.219 6.302,-4.828 10.959,-4.828Z" style="fill:#333;fill-rule:nonzero;"/><path d="M624.431,134.616c2.549,-0 4.297,-0.965 5.244,-2.895c0.947,-1.93 1.421,-4.076 1.421,-6.441c0,-2.136 -0.342,-3.873 -1.025,-5.212c-1.083,-2.108 -2.948,-3.162 -5.597,-3.162c-2.35,0 -4.059,0.898 -5.127,2.692c-1.068,1.795 -1.602,3.959 -1.602,6.494c-0,2.436 0.534,4.465 1.602,6.088c1.068,1.624 2.763,2.436 5.084,2.436Zm0.15,-21.063c2.948,-0 5.44,0.982 7.476,2.948c2.037,1.965 3.055,4.856 3.055,8.673c0,3.688 -0.897,6.736 -2.692,9.143c-1.794,2.407 -4.578,3.61 -8.352,3.61c-3.148,-0 -5.647,-1.065 -7.498,-3.194c-1.852,-2.129 -2.777,-4.988 -2.777,-8.577c-0,-3.845 0.975,-6.907 2.926,-9.185c1.951,-2.279 4.572,-3.418 7.862,-3.418Z" style="fill:#333;fill-rule:nonzero;"/><path d="M639.684,114.215l3.802,-0l0,3.247c0.912,-1.125 1.738,-1.944 2.478,-2.457c1.268,-0.869 2.706,-1.303 4.315,-1.303c1.823,0 3.29,0.449 4.401,1.346c0.627,0.513 1.196,1.267 1.709,2.264c0.854,-1.224 1.858,-2.132 3.012,-2.723c1.154,-0.591 2.45,-0.887 3.888,-0.887c3.076,0 5.17,1.111 6.281,3.333c0.598,1.196 0.897,2.805 0.897,4.827l-0,15.232l-3.995,-0l-0,-15.894c-0,-1.524 -0.381,-2.57 -1.143,-3.14c-0.762,-0.57 -1.691,-0.854 -2.788,-0.854c-1.509,-0 -2.809,0.505 -3.898,1.516c-1.09,1.011 -1.635,2.699 -1.635,5.063l0,13.309l-3.909,-0l0,-14.932c0,-1.553 -0.185,-2.685 -0.555,-3.397c-0.584,-1.068 -1.674,-1.602 -3.269,-1.602c-1.452,-0 -2.773,0.562 -3.962,1.687c-1.19,1.125 -1.784,3.162 -1.784,6.11l-0,12.134l-3.845,-0l-0,-22.879Z" style="fill:#333;fill-rule:nonzero;"/><path d="M685.784,134.509c1.794,-0 3.286,-0.751 4.475,-2.254c1.189,-1.502 1.784,-3.749 1.784,-6.74c-0,-1.822 -0.264,-3.389 -0.791,-4.699c-0.997,-2.521 -2.82,-3.781 -5.468,-3.781c-2.664,-0 -4.487,1.331 -5.469,3.994c-0.527,1.425 -0.791,3.233 -0.791,5.426c0,1.766 0.264,3.269 0.791,4.508c0.997,2.364 2.82,3.546 5.469,3.546Zm-9.955,-20.187l3.738,-0l0,3.033c0.769,-1.04 1.609,-1.844 2.521,-2.414c1.296,-0.854 2.82,-1.282 4.571,-1.282c2.592,0 4.793,0.994 6.601,2.98c1.809,1.987 2.713,4.825 2.713,8.513c0,4.985 -1.303,8.545 -3.909,10.681c-1.652,1.353 -3.575,2.03 -5.768,2.03c-1.723,-0 -3.169,-0.378 -4.336,-1.132c-0.684,-0.428 -1.446,-1.161 -2.286,-2.201l-0,11.686l-3.845,-0l-0,-31.894Z" style="fill:#333;fill-rule:nonzero;"/><path d="M709.538,134.616c2.55,-0 4.298,-0.965 5.245,-2.895c0.947,-1.93 1.42,-4.076 1.42,-6.441c0,-2.136 -0.341,-3.873 -1.025,-5.212c-1.082,-2.108 -2.948,-3.162 -5.597,-3.162c-2.35,0 -4.059,0.898 -5.127,2.692c-1.068,1.795 -1.602,3.959 -1.602,6.494c-0,2.436 0.534,4.465 1.602,6.088c1.068,1.624 2.763,2.436 5.084,2.436Zm0.15,-21.063c2.948,-0 5.44,0.982 7.477,2.948c2.036,1.965 3.055,4.856 3.055,8.673c-0,3.688 -0.898,6.736 -2.692,9.143c-1.795,2.407 -4.579,3.61 -8.353,3.61c-3.147,-0 -5.647,-1.065 -7.498,-3.194c-1.851,-2.129 -2.777,-4.988 -2.777,-8.577c-0,-3.845 0.976,-6.907 2.927,-9.185c1.951,-2.279 4.571,-3.418 7.861,-3.418Z" style="fill:#333;fill-rule:nonzero;"/><path d="M724.791,114.215l3.653,-0l0,3.247c1.082,-1.339 2.229,-2.3 3.439,-2.884c1.211,-0.584 2.557,-0.876 4.038,-0.876c3.247,0 5.44,1.132 6.579,3.397c0.627,1.239 0.94,3.012 0.94,5.319l0,14.676l-3.909,-0l0,-14.42c0,-1.395 -0.206,-2.52 -0.619,-3.375c-0.684,-1.424 -1.923,-2.136 -3.717,-2.136c-0.912,-0 -1.66,0.092 -2.244,0.277c-1.053,0.314 -1.979,0.94 -2.777,1.88c-0.64,0.755 -1.057,1.535 -1.249,2.34c-0.193,0.804 -0.289,1.954 -0.289,3.45l0,11.984l-3.845,-0l0,-22.879Z" style="fill:#333;fill-rule:nonzero;"/><path d="M758.65,113.702c1.624,0 3.198,0.381 4.721,1.143c1.524,0.762 2.685,1.748 3.482,2.959c0.769,1.153 1.282,2.499 1.539,4.037c0.227,1.054 0.341,2.735 0.341,5.042l-16.769,-0c0.071,2.321 0.619,4.183 1.645,5.586c1.025,1.403 2.613,2.104 4.764,2.104c2.008,0 3.61,-0.662 4.806,-1.987c0.684,-0.769 1.168,-1.659 1.453,-2.67l3.781,0c-0.1,0.84 -0.431,1.777 -0.993,2.809c-0.563,1.033 -1.193,1.877 -1.891,2.532c-1.168,1.139 -2.613,1.908 -4.337,2.307c-0.925,0.228 -1.972,0.342 -3.14,0.342c-2.848,-0 -5.262,-1.036 -7.242,-3.109c-1.979,-2.072 -2.969,-4.973 -2.969,-8.705c0,-3.674 0.997,-6.658 2.991,-8.951c1.994,-2.292 4.6,-3.439 7.818,-3.439Zm6.131,10.126c-0.156,-1.666 -0.52,-2.998 -1.089,-3.995c-1.054,-1.851 -2.813,-2.777 -5.277,-2.777c-1.766,-0 -3.247,0.637 -4.443,1.912c-1.196,1.275 -1.83,2.894 -1.901,4.86l12.71,-0Z" style="fill:#333;fill-rule:nonzero;"/><path d="M773.454,114.215l3.653,-0l0,3.247c1.083,-1.339 2.229,-2.3 3.44,-2.884c1.21,-0.584 2.556,-0.876 4.037,-0.876c3.247,0 5.44,1.132 6.58,3.397c0.626,1.239 0.94,3.012 0.94,5.319l-0,14.676l-3.91,-0l0,-14.42c0,-1.395 -0.206,-2.52 -0.619,-3.375c-0.684,-1.424 -1.923,-2.136 -3.717,-2.136c-0.912,-0 -1.659,0.092 -2.243,0.277c-1.054,0.314 -1.98,0.94 -2.777,1.88c-0.641,0.755 -1.058,1.535 -1.25,2.34c-0.192,0.804 -0.288,1.954 -0.288,3.45l-0,11.984l-3.846,-0l0,-22.879Z" style="fill:#333;fill-rule:nonzero;"/><path d="M798.555,107.827l3.888,0l0,6.388l3.653,-0l0,3.14l-3.653,0l0,14.932c0,0.798 0.271,1.332 0.812,1.602c0.299,0.157 0.797,0.235 1.495,0.235c0.185,0 0.385,-0.003 0.598,-0.01c0.214,-0.007 0.463,-0.025 0.748,-0.054l0,3.034c-0.441,0.128 -0.901,0.221 -1.378,0.278c-0.477,0.056 -0.993,0.085 -1.549,0.085c-1.794,-0 -3.012,-0.459 -3.653,-1.378c-0.64,-0.918 -0.961,-2.111 -0.961,-3.578l0,-15.146l-3.097,0l-0,-3.14l3.097,-0l0,-6.388Z" style="fill:#333;fill-rule:nonzero;"/><path d="M812.227,129.916c0.114,1.282 0.434,2.264 0.961,2.948c0.969,1.239 2.649,1.859 5.042,1.859c1.424,-0 2.677,-0.31 3.76,-0.93c1.082,-0.619 1.623,-1.577 1.623,-2.873c0,-0.983 -0.434,-1.73 -1.303,-2.243c-0.555,-0.313 -1.652,-0.676 -3.29,-1.089l-3.055,-0.769c-1.951,-0.485 -3.389,-1.026 -4.315,-1.624c-1.652,-1.04 -2.478,-2.478 -2.478,-4.315c0,-2.165 0.78,-3.917 2.339,-5.255c1.56,-1.339 3.657,-2.008 6.292,-2.008c3.446,-0 5.931,1.011 7.455,3.033c0.954,1.282 1.417,2.663 1.389,4.144l-3.632,0c-0.071,-0.868 -0.377,-1.659 -0.919,-2.371c-0.883,-1.011 -2.414,-1.517 -4.593,-1.517c-1.452,0 -2.552,0.278 -3.3,0.834c-0.748,0.555 -1.122,1.288 -1.122,2.2c0,0.997 0.492,1.794 1.474,2.392c0.57,0.356 1.41,0.67 2.521,0.94l2.542,0.62c2.763,0.669 4.615,1.317 5.555,1.944c1.495,0.983 2.243,2.528 2.243,4.635c-0,2.037 -0.773,3.796 -2.318,5.277c-1.545,1.481 -3.899,2.222 -7.06,2.222c-3.404,-0 -5.815,-0.773 -7.232,-2.318c-1.417,-1.545 -2.175,-3.457 -2.275,-5.736l3.696,0Z" style="fill:#333;fill-rule:nonzero;"/></g><path d="M516.096,24.968c3.122,0 5.544,0.822 7.268,2.467c1.723,1.645 2.68,3.514 2.87,5.606l-3.256,0c-0.37,-1.588 -1.105,-2.847 -2.208,-3.776c-1.102,-0.929 -2.649,-1.393 -4.64,-1.393c-2.429,-0 -4.39,0.853 -5.884,2.559c-1.493,1.707 -2.24,4.322 -2.24,7.847c-0,2.887 0.674,5.229 2.022,7.025c1.349,1.796 3.36,2.694 6.034,2.694c2.462,-0 4.336,-0.946 5.623,-2.837c0.683,-0.996 1.192,-2.305 1.528,-3.928l3.256,0c-0.291,2.596 -1.253,4.773 -2.887,6.53c-1.958,2.114 -4.599,3.172 -7.922,3.172c-2.865,-0 -5.271,-0.867 -7.218,-2.602c-2.562,-2.294 -3.844,-5.835 -3.844,-10.624c0,-3.637 0.963,-6.619 2.887,-8.947c2.082,-2.529 4.952,-3.793 8.611,-3.793Z" style="fill:#555;fill-rule:nonzero;"/><path d="M537.261,48.349c2.003,0 3.377,-0.758 4.121,-2.274c0.744,-1.516 1.116,-3.203 1.116,-5.061c0,-1.678 -0.268,-3.043 -0.805,-4.095c-0.851,-1.656 -2.317,-2.484 -4.398,-2.484c-1.846,-0 -3.189,0.705 -4.028,2.114c-0.84,1.41 -1.259,3.111 -1.259,5.103c-0,1.913 0.419,3.508 1.259,4.784c0.839,1.275 2.17,1.913 3.994,1.913Zm0.118,-16.55c2.316,0 4.274,0.772 5.875,2.317c1.6,1.544 2.4,3.815 2.4,6.814c-0,2.898 -0.705,5.293 -2.115,7.184c-1.41,1.891 -3.598,2.837 -6.563,2.837c-2.473,-0 -4.437,-0.837 -5.891,-2.51c-1.455,-1.672 -2.182,-3.919 -2.182,-6.739c-0,-3.021 0.766,-5.427 2.299,-7.217c1.533,-1.79 3.592,-2.686 6.177,-2.686Z" style="fill:#555;fill-rule:nonzero;"/><path d="M549.246,32.32l2.987,-0l0,2.551c0.716,-0.884 1.365,-1.527 1.947,-1.93c0.996,-0.683 2.126,-1.024 3.391,-1.024c1.432,-0 2.585,0.352 3.457,1.057c0.493,0.403 0.94,0.996 1.343,1.779c0.672,-0.962 1.461,-1.675 2.367,-2.14c0.906,-0.464 1.925,-0.696 3.055,-0.696c2.417,-0 4.062,0.873 4.934,2.618c0.47,0.94 0.705,2.205 0.705,3.794l0,11.967l-3.138,0l-0,-12.488c-0,-1.197 -0.3,-2.019 -0.898,-2.467c-0.599,-0.448 -1.329,-0.671 -2.191,-0.671c-1.186,-0 -2.207,0.397 -3.063,1.191c-0.856,0.795 -1.284,2.121 -1.284,3.978l0,10.457l-3.072,0l0,-11.732c0,-1.22 -0.145,-2.11 -0.436,-2.669c-0.459,-0.839 -1.315,-1.259 -2.568,-1.259c-1.141,-0 -2.179,0.442 -3.114,1.326c-0.934,0.884 -1.401,2.484 -1.401,4.8l-0,9.534l-3.021,0l-0,-17.976Z" style="fill:#555;fill-rule:nonzero;"/><path d="M585.467,48.265c1.41,0 2.582,-0.59 3.516,-1.771c0.935,-1.18 1.402,-2.945 1.402,-5.295c-0,-1.432 -0.207,-2.663 -0.621,-3.693c-0.783,-1.98 -2.216,-2.971 -4.297,-2.971c-2.093,0 -3.525,1.047 -4.297,3.139c-0.414,1.119 -0.621,2.54 -0.621,4.263c0,1.388 0.207,2.568 0.621,3.542c0.783,1.857 2.216,2.786 4.297,2.786Zm-7.822,-15.861l2.938,-0l-0,2.383c0.604,-0.817 1.264,-1.449 1.98,-1.897c1.018,-0.671 2.216,-1.007 3.592,-1.007c2.037,0 3.765,0.781 5.187,2.342c1.421,1.561 2.131,3.79 2.131,6.688c0,3.917 -1.024,6.714 -3.071,8.393c-1.298,1.063 -2.809,1.594 -4.532,1.594c-1.354,0 -2.49,-0.296 -3.407,-0.889c-0.538,-0.336 -1.136,-0.912 -1.796,-1.729l-0,9.181l-3.022,0l0,-25.059Z" style="fill:#555;fill-rule:nonzero;"/><rect x="597.082" y="25.639" width="3.021" height="24.657" style="fill:#555;fill-rule:nonzero;"/><path d="M612.121,31.917c1.276,-0 2.512,0.299 3.709,0.898c1.198,0.599 2.11,1.373 2.736,2.325c0.605,0.906 1.007,1.963 1.209,3.172c0.179,0.828 0.268,2.148 0.268,3.961l-13.176,0c0.056,1.824 0.487,3.287 1.293,4.389c0.806,1.102 2.053,1.654 3.743,1.654c1.578,-0 2.836,-0.521 3.776,-1.561c0.537,-0.605 0.918,-1.304 1.142,-2.099l2.971,0c-0.079,0.661 -0.339,1.396 -0.781,2.208c-0.442,0.811 -0.937,1.474 -1.485,1.989c-0.918,0.895 -2.054,1.499 -3.408,1.812c-0.727,0.179 -1.549,0.269 -2.467,0.269c-2.238,-0 -4.135,-0.814 -5.69,-2.442c-1.555,-1.628 -2.333,-3.908 -2.333,-6.84c-0,-2.887 0.783,-5.231 2.35,-7.033c1.566,-1.801 3.614,-2.702 6.143,-2.702Zm4.817,7.956c-0.123,-1.309 -0.408,-2.356 -0.856,-3.139c-0.828,-1.455 -2.21,-2.182 -4.146,-2.182c-1.387,0 -2.551,0.501 -3.491,1.502c-0.94,1.002 -1.438,2.275 -1.494,3.819l9.987,-0Z" style="fill:#555;fill-rule:nonzero;"/><path d="M624.357,27.301l3.055,0l-0,5.019l2.87,-0l0,2.467l-2.87,0l-0,11.733c-0,0.626 0.212,1.046 0.638,1.258c0.235,0.123 0.626,0.185 1.175,0.185c0.145,0 0.302,-0.003 0.47,-0.008c0.167,-0.006 0.363,-0.02 0.587,-0.042l0,2.383c-0.347,0.101 -0.708,0.174 -1.083,0.218c-0.374,0.045 -0.78,0.067 -1.216,0.067c-1.41,0 -2.367,-0.36 -2.871,-1.082c-0.503,-0.722 -0.755,-1.659 -0.755,-2.812l0,-11.9l-2.434,0l0,-2.467l2.434,-0l0,-5.019Z" style="fill:#555;fill-rule:nonzero;"/><path d="M640.789,31.917c1.276,-0 2.512,0.299 3.71,0.898c1.197,0.599 2.109,1.373 2.736,2.325c0.604,0.906 1.007,1.963 1.208,3.172c0.179,0.828 0.269,2.148 0.269,3.961l-13.176,0c0.056,1.824 0.486,3.287 1.292,4.389c0.806,1.102 2.053,1.654 3.743,1.654c1.578,-0 2.837,-0.521 3.777,-1.561c0.537,-0.605 0.917,-1.304 1.141,-2.099l2.971,0c-0.079,0.661 -0.339,1.396 -0.781,2.208c-0.442,0.811 -0.937,1.474 -1.485,1.989c-0.918,0.895 -2.053,1.499 -3.407,1.812c-0.728,0.179 -1.55,0.269 -2.468,0.269c-2.238,-0 -4.134,-0.814 -5.69,-2.442c-1.555,-1.628 -2.333,-3.908 -2.333,-6.84c0,-2.887 0.783,-5.231 2.35,-7.033c1.567,-1.801 3.614,-2.702 6.143,-2.702Zm4.817,7.956c-0.123,-1.309 -0.408,-2.356 -0.856,-3.139c-0.828,-1.455 -2.21,-2.182 -4.145,-2.182c-1.388,0 -2.552,0.501 -3.492,1.502c-0.94,1.002 -1.437,2.275 -1.493,3.819l9.986,-0Z" style="fill:#555;fill-rule:nonzero;"/><path d="M652.421,32.32l2.87,-0l0,2.551c0.851,-1.052 1.751,-1.807 2.703,-2.266c0.951,-0.459 2.008,-0.688 3.172,-0.688c2.551,-0 4.274,0.889 5.169,2.669c0.493,0.973 0.739,2.366 0.739,4.179l0,11.531l-3.072,0l0,-11.33c0,-1.096 -0.162,-1.98 -0.486,-2.652c-0.537,-1.119 -1.511,-1.678 -2.921,-1.678c-0.716,-0 -1.303,0.073 -1.762,0.218c-0.828,0.246 -1.556,0.739 -2.182,1.477c-0.504,0.593 -0.831,1.206 -0.982,1.838c-0.151,0.632 -0.227,1.536 -0.227,2.711l0,9.416l-3.021,0l0,-17.976Z" style="fill:#555;fill-rule:nonzero;"/><path d="M679.025,31.917c1.275,-0 2.512,0.299 3.709,0.898c1.197,0.599 2.109,1.373 2.736,2.325c0.604,0.906 1.007,1.963 1.209,3.172c0.179,0.828 0.268,2.148 0.268,3.961l-13.176,0c0.056,1.824 0.487,3.287 1.293,4.389c0.805,1.102 2.053,1.654 3.743,1.654c1.577,-0 2.836,-0.521 3.776,-1.561c0.537,-0.605 0.918,-1.304 1.141,-2.099l2.971,0c-0.078,0.661 -0.338,1.396 -0.78,2.208c-0.442,0.811 -0.937,1.474 -1.486,1.989c-0.917,0.895 -2.053,1.499 -3.407,1.812c-0.727,0.179 -1.55,0.269 -2.467,0.269c-2.238,-0 -4.135,-0.814 -5.69,-2.442c-1.556,-1.628 -2.333,-3.908 -2.333,-6.84c-0,-2.887 0.783,-5.231 2.35,-7.033c1.566,-1.801 3.614,-2.702 6.143,-2.702Zm4.817,7.956c-0.123,-1.309 -0.409,-2.356 -0.856,-3.139c-0.828,-1.455 -2.21,-2.182 -4.146,-2.182c-1.387,0 -2.551,0.501 -3.491,1.502c-0.94,1.002 -1.438,2.275 -1.494,3.819l9.987,-0Z" style="fill:#555;fill-rule:nonzero;"/><path d="M692.452,44.656c0.09,1.008 0.342,1.78 0.756,2.317c0.761,0.973 2.081,1.46 3.961,1.46c1.119,-0 2.104,-0.243 2.954,-0.73c0.85,-0.487 1.276,-1.239 1.276,-2.258c-0,-0.772 -0.342,-1.359 -1.024,-1.762c-0.437,-0.246 -1.298,-0.532 -2.585,-0.856l-2.4,-0.604c-1.533,-0.381 -2.663,-0.806 -3.391,-1.276c-1.298,-0.817 -1.947,-1.947 -1.947,-3.39c0,-1.701 0.613,-3.078 1.838,-4.13c1.225,-1.051 2.873,-1.577 4.943,-1.577c2.708,-0 4.661,0.794 5.858,2.383c0.75,1.007 1.113,2.093 1.091,3.256l-2.853,0c-0.056,-0.682 -0.297,-1.303 -0.722,-1.863c-0.694,-0.794 -1.897,-1.191 -3.609,-1.191c-1.141,-0 -2.006,0.218 -2.593,0.654c-0.587,0.437 -0.881,1.013 -0.881,1.729c-0,0.783 0.386,1.41 1.158,1.88c0.448,0.28 1.108,0.526 1.981,0.738l1.997,0.487c2.171,0.526 3.625,1.035 4.364,1.528c1.175,0.772 1.762,1.986 1.762,3.642c0,1.6 -0.607,2.982 -1.821,4.146c-1.214,1.163 -3.063,1.745 -5.547,1.745c-2.674,0 -4.568,-0.607 -5.682,-1.821c-1.113,-1.214 -1.709,-2.716 -1.787,-4.507l2.903,0Z" style="fill:#555;fill-rule:nonzero;"/><path d="M709.64,44.656c0.089,1.008 0.341,1.78 0.755,2.317c0.761,0.973 2.082,1.46 3.961,1.46c1.119,-0 2.104,-0.243 2.955,-0.73c0.85,-0.487 1.275,-1.239 1.275,-2.258c0,-0.772 -0.341,-1.359 -1.024,-1.762c-0.436,-0.246 -1.298,-0.532 -2.585,-0.856l-2.4,-0.604c-1.533,-0.381 -2.663,-0.806 -3.39,-1.276c-1.298,-0.817 -1.947,-1.947 -1.947,-3.39c-0,-1.701 0.612,-3.078 1.838,-4.13c1.225,-1.051 2.873,-1.577 4.943,-1.577c2.708,-0 4.66,0.794 5.858,2.383c0.749,1.007 1.113,2.093 1.091,3.256l-2.854,0c-0.056,-0.682 -0.296,-1.303 -0.722,-1.863c-0.693,-0.794 -1.896,-1.191 -3.608,-1.191c-1.142,-0 -2.006,0.218 -2.593,0.654c-0.588,0.437 -0.882,1.013 -0.882,1.729c0,0.783 0.386,1.41 1.158,1.88c0.448,0.28 1.108,0.526 1.981,0.738l1.997,0.487c2.171,0.526 3.626,1.035 4.364,1.528c1.175,0.772 1.763,1.986 1.763,3.642c-0,1.6 -0.607,2.982 -1.821,4.146c-1.214,1.163 -3.064,1.745 -5.548,1.745c-2.674,0 -4.568,-0.607 -5.681,-1.821c-1.114,-1.214 -1.709,-2.716 -1.788,-4.507l2.904,0Z" style="fill:#555;fill-rule:nonzero;"/><path d="M741.715,48.349c2.003,0 3.377,-0.758 4.121,-2.274c0.744,-1.516 1.116,-3.203 1.116,-5.061c0,-1.678 -0.268,-3.043 -0.805,-4.095c-0.851,-1.656 -2.317,-2.484 -4.398,-2.484c-1.846,-0 -3.189,0.705 -4.028,2.114c-0.84,1.41 -1.259,3.111 -1.259,5.103c-0,1.913 0.419,3.508 1.259,4.784c0.839,1.275 2.171,1.913 3.994,1.913Zm0.118,-16.55c2.316,0 4.274,0.772 5.875,2.317c1.6,1.544 2.4,3.815 2.4,6.814c-0,2.898 -0.705,5.293 -2.115,7.184c-1.41,1.891 -3.598,2.837 -6.563,2.837c-2.473,-0 -4.437,-0.837 -5.891,-2.51c-1.455,-1.672 -2.182,-3.919 -2.182,-6.739c-0,-3.021 0.766,-5.427 2.299,-7.217c1.533,-1.79 3.592,-2.686 6.177,-2.686Z" style="fill:#555;fill-rule:nonzero;"/><path d="M754.455,29.584c0.045,-1.253 0.263,-2.171 0.655,-2.753c0.705,-1.029 2.064,-1.544 4.078,-1.544c0.191,-0 0.386,0.006 0.588,0.017c0.201,0.011 0.431,0.028 0.688,0.05l-0,2.753c-0.313,-0.023 -0.54,-0.037 -0.68,-0.042c-0.14,-0.006 -0.271,-0.009 -0.394,-0.009c-0.918,0 -1.466,0.238 -1.645,0.714c-0.179,0.475 -0.269,1.687 -0.269,3.634l2.988,-0l-0,2.383l-3.021,0l-0,15.509l-2.988,0l0,-15.509l-2.501,0l0,-2.383l2.501,-0l0,-2.82Z" style="fill:#555;fill-rule:nonzero;"/><path d="M764.845,32.555l3.508,-0l-0,3.659l-3.508,-0l-0,-3.659Zm-0,14.082l3.508,0l-0,3.659l-3.508,0l-0,-3.659Z" style="fill:#555;fill-rule:nonzero;"/></g></svg>