<?xml version="1.0" encoding="UTF-8" standalone="no"?><!DOCTYPE svg PUBLIC "-//W3C//DTD SVG 1.1//EN" "http://www.w3.org/Graphics/SVG/1.1/DTD/svg11.dtd"><svg width="100%" height="100%" viewBox="0 0 3932 532" version="1.1" xmlns="http://www.w3.org/2000/svg" xmlns:xlink="http://www.w3.org/1999/xlink" xml:space="preserve" xmlns:serif="http://www.serif.com/" style="fill-rule:evenodd;clip-rule:evenodd;stroke-linejoin:round;stroke-miterlimit:2;"><g id="Declarations"><path d="M3931.51,0l-343.75,0l-500,531.25l343.75,0l500,-531.25Z" style="fill:#ecd2b5;"/><path d="M3381.39,418.099c1.694,-1.792 2.9,-3.44 3.618,-4.945c1.254,-2.712 1.517,-5.656 0.789,-8.83c-0.589,-2.54 -1.898,-5.206 -3.928,-7.999c-1.221,-1.658 -2.461,-3.083 -3.72,-4.274c-4.843,-4.579 -9.514,-7.173 -14.012,-7.781c-4.499,-0.608 -8.769,1.225 -12.812,5.501l-8.882,9.393l30.015,28.381l8.932,-9.446Zm-48.529,-17.916l14.971,-15.832c5.082,-5.375 10.931,-7.741 17.546,-7.097c5.941,0.611 11.599,3.458 16.974,8.54c4.151,3.925 7.165,8.254 9.041,12.985c3.325,8.352 1.817,15.881 -4.523,22.586l-14.921,15.779l-39.088,-36.961Z" style="fill-rule:nonzero;"/><path d="M3390.42,359.249c1.912,-2.022 4.24,-3.534 6.984,-4.534c2.744,-1.001 5.34,-1.285 7.787,-0.853c2.343,0.401 4.623,1.348 6.841,2.84c1.581,0.957 3.808,2.795 6.682,5.512l-19.752,20.888c2.976,2.645 5.941,4.156 8.896,4.531c2.955,0.375 5.699,-0.777 8.232,-3.456c2.365,-2.501 3.427,-5.277 3.187,-8.327c-0.153,-1.757 -0.692,-3.408 -1.616,-4.954l4.454,-4.71c0.929,1.114 1.705,2.629 2.329,4.546c0.623,1.917 0.932,3.696 0.926,5.337c0.044,2.796 -0.701,5.502 -2.234,8.119c-0.806,1.421 -1.897,2.859 -3.273,4.314c-3.354,3.547 -7.488,5.334 -12.401,5.359c-4.912,0.025 -9.692,-2.16 -14.34,-6.554c-4.577,-4.328 -7.119,-9.084 -7.627,-14.268c-0.507,-5.184 1.134,-9.781 4.925,-13.79Zm19.834,4.29c-2.26,-1.768 -4.346,-2.884 -6.259,-3.348c-3.547,-0.868 -6.772,0.232 -9.674,3.301c-2.08,2.2 -3.031,4.795 -2.852,7.787c0.179,2.991 1.45,5.688 3.814,8.092l14.971,-15.832Z" style="fill-rule:nonzero;"/><path d="M3418.06,329.644c3.036,-3.211 6.287,-5.085 9.752,-5.622c3.464,-0.538 7.297,0.793 11.496,3.991l-4.403,4.657c-2.024,-1.377 -4.096,-2.109 -6.214,-2.197c-2.118,-0.087 -4.233,0.986 -6.347,3.222c-2.885,3.051 -3.458,6.642 -1.719,10.772c1.128,2.68 3.111,5.362 5.95,8.046c2.856,2.701 5.83,4.37 8.922,5.009c3.092,0.639 5.862,-0.336 8.311,-2.926c1.879,-1.987 2.76,-4.136 2.643,-6.447c-0.116,-2.311 -1.02,-4.686 -2.712,-7.126l4.404,-4.656c3.275,4.105 4.78,8.048 4.514,11.829c-0.266,3.781 -1.967,7.33 -5.103,10.647c-3.523,3.725 -7.694,5.409 -12.514,5.052c-4.82,-0.358 -9.269,-2.465 -13.349,-6.323c-5.003,-4.731 -7.748,-9.628 -8.235,-14.692c-0.487,-5.063 1.048,-9.476 4.604,-13.236Z" style="fill-rule:nonzero;"/><path d="M3423.79,304.019l4.529,-4.79l39.088,36.962l-4.529,4.789l-39.088,-36.961Z" style="fill-rule:nonzero;"/><path d="M3470.09,318.163c1.384,1.309 2.953,1.835 4.707,1.578c1.755,-0.256 3.286,-1.076 4.594,-2.46c1.594,-1.685 2.747,-3.686 3.459,-6.003c1.221,-3.885 0.36,-7.22 -2.585,-10.005l-3.858,-3.648c-0.181,0.938 -0.584,1.985 -1.208,3.143c-0.624,1.157 -1.302,2.229 -2.034,3.217l-2.37,3.252c-1.413,1.957 -2.282,3.605 -2.608,4.944c-0.558,2.26 0.076,4.255 1.903,5.982Zm1.285,-20.76c0.898,-1.234 1.133,-2.406 0.705,-3.517c-0.225,-0.615 -0.736,-1.3 -1.535,-2.055c-1.632,-1.543 -3.365,-2.082 -5.2,-1.616c-1.835,0.466 -3.775,1.781 -5.822,3.945c-2.365,2.501 -3.368,4.912 -3.01,7.234c0.192,1.29 0.94,2.719 2.244,4.289l-4.227,4.47c-3.428,-3.41 -4.794,-6.86 -4.097,-10.351c0.697,-3.491 2.412,-6.682 5.146,-9.573c3.171,-3.353 6.384,-5.472 9.641,-6.357c3.239,-0.868 6.207,-0.027 8.904,2.522l16.417,15.525c0.497,0.469 0.993,0.745 1.487,0.826c0.495,0.081 1.052,-0.207 1.673,-0.863c0.201,-0.213 0.414,-0.465 0.639,-0.756c0.225,-0.291 0.454,-0.613 0.686,-0.965l3.539,3.347c-0.492,0.946 -0.896,1.639 -1.212,2.08c-0.315,0.441 -0.792,0.998 -1.429,1.672c-1.56,1.65 -3.278,2.294 -5.153,1.932c-0.99,-0.197 -2.128,-0.753 -3.415,-1.666c0.355,2.183 0.139,4.633 -0.649,7.349c-0.787,2.716 -2.221,5.174 -4.301,7.374c-2.499,2.643 -5.344,4.043 -8.535,4.202c-3.191,0.158 -5.992,-0.903 -8.405,-3.185c-2.643,-2.499 -3.912,-5.261 -3.806,-8.286c0.105,-3.026 1.256,-6.037 3.452,-9.034l6.263,-8.543Z" style="fill-rule:nonzero;"/><path d="M3474.49,271.618l4.302,-4.55l4.923,4.655c-0.606,-1.278 -0.908,-3.295 -0.908,-6.049c0.001,-2.755 0.899,-5.081 2.694,-6.98c0.084,-0.088 0.235,-0.231 0.454,-0.427c0.219,-0.196 0.598,-0.526 1.138,-0.99l5.056,4.781c-0.322,0.233 -0.605,0.461 -0.849,0.684c-0.244,0.223 -0.5,0.476 -0.769,0.76c-2.281,2.412 -3.258,5 -2.93,7.763c0.327,2.762 1.502,5.1 3.525,7.012l16.391,15.499l-4.529,4.79l-28.498,-26.948Z" style="fill-rule:nonzero;"/><path d="M3515.91,269.709c1.384,1.308 2.953,1.834 4.708,1.578c1.754,-0.257 3.285,-1.077 4.594,-2.46c1.593,-1.685 2.746,-3.686 3.458,-6.003c1.222,-3.886 0.36,-7.221 -2.585,-10.005l-3.858,-3.648c-0.181,0.937 -0.584,1.985 -1.208,3.142c-0.623,1.157 -1.301,2.23 -2.034,3.217l-2.37,3.253c-1.413,1.956 -2.282,3.604 -2.607,4.943c-0.559,2.261 0.075,4.255 1.902,5.983Zm1.285,-20.76c0.898,-1.234 1.133,-2.407 0.705,-3.517c-0.225,-0.616 -0.736,-1.301 -1.534,-2.056c-1.632,-1.543 -3.366,-2.082 -5.201,-1.616c-1.834,0.466 -3.775,1.781 -5.822,3.945c-2.365,2.501 -3.368,4.913 -3.01,7.234c0.192,1.29 0.94,2.72 2.245,4.289l-4.227,4.471c-3.429,-3.41 -4.795,-6.861 -4.098,-10.351c0.697,-3.491 2.412,-6.682 5.147,-9.574c3.17,-3.353 6.383,-5.472 9.64,-6.357c3.24,-0.868 6.208,-0.027 8.904,2.523l16.418,15.524c0.496,0.47 0.992,0.745 1.486,0.826c0.495,0.081 1.052,-0.206 1.673,-0.862c0.201,-0.213 0.414,-0.465 0.639,-0.757c0.225,-0.291 0.454,-0.612 0.686,-0.964l3.539,3.346c-0.492,0.946 -0.896,1.64 -1.211,2.08c-0.316,0.441 -0.793,0.998 -1.43,1.672c-1.56,1.65 -3.278,2.294 -5.153,1.932c-0.99,-0.197 -2.128,-0.752 -3.414,-1.666c0.354,2.183 0.138,4.633 -0.65,7.349c-0.787,2.716 -2.221,5.174 -4.301,7.374c-2.499,2.643 -5.344,4.044 -8.535,4.202c-3.19,0.158 -5.992,-0.903 -8.404,-3.184c-2.644,-2.5 -3.912,-5.262 -3.807,-8.287c0.105,-3.025 1.256,-6.037 3.452,-9.034l6.263,-8.542Z" style="fill-rule:nonzero;"/><path d="M3513.13,214.816l4.579,-4.843l7.956,7.523l4.303,-4.55l3.911,3.699l-4.302,4.55l18.599,17.587c0.994,0.939 1.978,1.231 2.952,0.876c0.547,-0.188 1.232,-0.717 2.054,-1.586c0.218,-0.23 0.448,-0.483 0.691,-0.757c0.243,-0.275 0.514,-0.606 0.814,-0.995l3.779,3.573c-0.361,0.701 -0.786,1.382 -1.277,2.044c-0.491,0.661 -1.064,1.338 -1.718,2.029c-2.113,2.236 -4.12,3.211 -6.019,2.928c-1.899,-0.284 -3.762,-1.29 -5.589,-3.017l-18.866,-17.84l-3.648,3.859l-3.911,-3.699l3.648,-3.858l-7.956,-7.523Z" style="fill-rule:nonzero;"/><path d="M3534.63,208.282l4.604,-4.869l28.365,26.821l-4.604,4.87l-28.365,-26.822Zm-10.724,-10.14l4.605,-4.869l5.428,5.133l-4.604,4.869l-5.429,-5.133Z" style="fill-rule:nonzero;"/><path d="M3582.05,208.769c3.002,-3.175 3.86,-6.489 2.571,-9.942c-1.288,-3.452 -3.404,-6.571 -6.349,-9.355c-2.661,-2.516 -5.228,-4.137 -7.7,-4.862c-3.9,-1.134 -7.411,-0.052 -10.531,3.248c-2.767,2.927 -3.663,6.112 -2.685,9.556c0.977,3.444 3.044,6.659 6.202,9.645c3.033,2.868 6.19,4.593 9.47,5.175c3.28,0.582 6.288,-0.573 9.022,-3.465Zm-26.06,-24.995c3.472,-3.672 7.631,-5.619 12.478,-5.841c4.847,-0.221 9.647,1.915 14.401,6.411c4.595,4.344 7.334,9.051 8.219,14.121c0.884,5.07 -0.896,9.956 -5.342,14.657c-3.707,3.92 -7.976,5.779 -12.809,5.578c-4.833,-0.202 -9.484,-2.416 -13.954,-6.643c-4.79,-4.529 -7.455,-9.351 -7.995,-14.465c-0.54,-5.114 1.127,-9.72 5.002,-13.818Z" style="fill-rule:nonzero;"/><path d="M3574.61,165.742l4.303,-4.55l4.044,3.824c-0.392,-2.925 -0.239,-5.485 0.459,-7.681c0.699,-2.195 1.92,-4.215 3.665,-6.06c3.824,-4.045 7.818,-5.443 11.98,-4.195c2.281,0.679 4.859,2.377 7.733,5.094l18.28,17.286l-4.604,4.869l-17.961,-16.983c-1.739,-1.644 -3.383,-2.712 -4.934,-3.204c-2.579,-0.826 -4.926,-0.122 -7.039,2.114c-1.074,1.135 -1.839,2.175 -2.296,3.121c-0.851,1.681 -1.161,3.572 -0.93,5.673c0.186,1.687 0.666,3.124 1.442,4.312c0.776,1.187 2.095,2.661 3.958,4.422l14.927,14.116l-4.529,4.789l-28.498,-26.947Z" style="fill-rule:nonzero;"/><path d="M3625.51,151.081c1.731,1.367 3.333,2.126 4.805,2.274c2.684,0.254 5.435,-1.11 8.253,-4.09c1.677,-1.774 2.767,-3.7 3.271,-5.778c0.503,-2.078 -0.053,-3.88 -1.667,-5.406c-1.224,-1.158 -2.667,-1.497 -4.329,-1.019c-1.044,0.323 -2.788,1.261 -5.232,2.814l-4.556,2.9c-2.901,1.86 -5.269,3.014 -7.104,3.462c-3.241,0.834 -6.006,0.168 -8.294,-1.995c-2.696,-2.55 -3.96,-5.585 -3.791,-9.104c0.17,-3.519 1.806,-6.919 4.909,-10.201c4.059,-4.293 8.246,-6.198 12.56,-5.714c2.72,0.321 4.986,1.372 6.797,3.152l-4.277,4.523c-1.166,-0.934 -2.511,-1.484 -4.036,-1.648c-2.299,-0.091 -4.732,1.22 -7.299,3.934c-1.71,1.81 -2.66,3.507 -2.849,5.093c-0.189,1.585 0.284,2.915 1.42,3.988c1.241,1.174 2.813,1.502 4.716,0.982c1.114,-0.29 2.494,-0.968 4.14,-2.033l3.766,-2.436c4.087,-2.653 7.075,-4.196 8.963,-4.629c2.985,-0.705 5.79,0.183 8.416,2.666c2.536,2.399 3.817,5.433 3.842,9.102c0.025,3.669 -1.824,7.473 -5.548,11.411c-4.009,4.239 -7.811,6.332 -11.404,6.277c-3.594,-0.055 -6.869,-1.362 -9.824,-3.922l4.352,-4.603Z" style="fill-rule:nonzero;"/></g><g id="Definitions"><path d="M3587.76,0l-343.75,0l-500,531.25l343.75,0l500,-531.25Z" style="fill:#bae7c1;"/><path d="M3043.89,411.849c1.694,-1.792 2.9,-3.44 3.618,-4.945c1.254,-2.712 1.517,-5.656 0.789,-8.83c-0.589,-2.54 -1.898,-5.206 -3.928,-7.999c-1.221,-1.658 -2.461,-3.083 -3.72,-4.274c-4.843,-4.579 -9.514,-7.173 -14.012,-7.781c-4.499,-0.608 -8.769,1.225 -12.812,5.501l-8.882,9.393l30.015,28.381l8.932,-9.446Zm-48.529,-17.916l14.971,-15.832c5.082,-5.375 10.931,-7.741 17.546,-7.097c5.941,0.611 11.599,3.458 16.974,8.54c4.151,3.925 7.165,8.254 9.041,12.985c3.325,8.352 1.817,15.881 -4.523,22.586l-14.921,15.779l-39.088,-36.961Z" style="fill-rule:nonzero;"/><path d="M3052.92,352.999c1.912,-2.022 4.24,-3.534 6.984,-4.534c2.744,-1.001 5.34,-1.285 7.787,-0.853c2.343,0.401 4.623,1.348 6.841,2.84c1.581,0.957 3.808,2.795 6.682,5.512l-19.752,20.888c2.976,2.645 5.941,4.156 8.896,4.531c2.955,0.375 5.699,-0.777 8.232,-3.456c2.365,-2.501 3.427,-5.277 3.187,-8.327c-0.153,-1.757 -0.692,-3.408 -1.616,-4.954l4.454,-4.71c0.929,1.114 1.705,2.629 2.329,4.546c0.623,1.917 0.932,3.696 0.926,5.337c0.044,2.796 -0.701,5.502 -2.234,8.119c-0.806,1.421 -1.897,2.859 -3.273,4.314c-3.354,3.547 -7.488,5.334 -12.401,5.359c-4.912,0.025 -9.692,-2.16 -14.34,-6.554c-4.577,-4.328 -7.119,-9.084 -7.627,-14.268c-0.507,-5.184 1.134,-9.781 4.925,-13.79Zm19.834,4.29c-2.26,-1.768 -4.346,-2.884 -6.259,-3.348c-3.547,-0.868 -6.772,0.232 -9.674,3.301c-2.08,2.2 -3.031,4.795 -2.852,7.787c0.179,2.991 1.45,5.688 3.814,8.092l14.971,-15.832Z" style="fill-rule:nonzero;"/><path d="M3067.79,329.864c-1.919,-1.949 -3.047,-3.671 -3.382,-5.164c-0.575,-2.66 0.647,-5.587 3.666,-8.78c0.285,-0.302 0.588,-0.604 0.907,-0.907c0.32,-0.302 0.69,-0.641 1.112,-1.015l4.363,4.126c-0.505,0.463 -0.867,0.802 -1.085,1.015c-0.219,0.213 -0.42,0.418 -0.605,0.613c-1.375,1.454 -1.82,2.68 -1.335,3.677c0.486,0.997 2.272,2.954 5.359,5.873l4.478,-4.736l3.779,3.572l-4.529,4.79l24.586,23.249l-4.478,4.736l-24.587,-23.249l-3.749,3.965l-3.778,-3.573l3.749,-3.964l-4.471,-4.228Zm12.536,-14.909l-5.428,-5.133l4.529,-4.789l5.428,5.133l-4.529,4.789Zm5.295,5.007l4.529,-4.789l28.365,26.821l-4.529,4.79l-28.365,-26.822Z" style="fill-rule:nonzero;"/><path d="M3096.76,307.916l4.303,-4.55l4.044,3.824c-0.392,-2.925 -0.239,-5.485 0.459,-7.681c0.699,-2.195 1.92,-4.215 3.665,-6.06c3.824,-4.045 7.817,-5.443 11.98,-4.195c2.281,0.679 4.859,2.377 7.733,5.094l18.28,17.286l-4.605,4.869l-17.961,-16.984c-1.738,-1.643 -3.383,-2.711 -4.933,-3.203c-2.579,-0.826 -4.926,-0.122 -7.039,2.113c-1.074,1.136 -1.839,2.176 -2.296,3.121c-0.851,1.682 -1.161,3.573 -0.93,5.674c0.186,1.687 0.666,3.124 1.442,4.312c0.776,1.187 2.095,2.661 3.958,4.422l14.927,14.116l-4.529,4.789l-28.498,-26.947Z" style="fill-rule:nonzero;"/><path d="M3125.55,277.734l4.604,-4.869l28.365,26.821l-4.604,4.87l-28.365,-26.822Zm-10.724,-10.14l4.605,-4.869l5.428,5.133l-4.604,4.869l-5.429,-5.133Z" style="fill-rule:nonzero;"/><path d="M3129.82,257.02l4.579,-4.843l7.956,7.524l4.303,-4.551l3.911,3.699l-4.302,4.55l18.599,17.588c0.993,0.939 1.977,1.231 2.952,0.876c0.547,-0.188 1.232,-0.717 2.054,-1.586c0.218,-0.231 0.448,-0.483 0.691,-0.758c0.243,-0.274 0.514,-0.606 0.814,-0.994l3.779,3.573c-0.361,0.701 -0.786,1.382 -1.277,2.043c-0.491,0.662 -1.064,1.338 -1.718,2.03c-2.114,2.235 -4.12,3.211 -6.019,2.927c-1.899,-0.283 -3.762,-1.289 -5.589,-3.017l-18.866,-17.839l-3.648,3.858l-3.912,-3.698l3.649,-3.859l-7.956,-7.523Z" style="fill-rule:nonzero;"/><path d="M3151.32,250.487l4.604,-4.87l28.365,26.822l-4.604,4.869l-28.365,-26.821Zm-10.724,-10.14l4.605,-4.87l5.428,5.133l-4.605,4.87l-5.428,-5.133Z" style="fill-rule:nonzero;"/><path d="M3198.74,250.974c3.002,-3.175 3.859,-6.489 2.571,-9.942c-1.288,-3.452 -3.404,-6.571 -6.349,-9.355c-2.661,-2.517 -5.228,-4.137 -7.7,-4.862c-3.901,-1.135 -7.411,-0.052 -10.531,3.247c-2.767,2.927 -3.663,6.113 -2.686,9.557c0.977,3.444 3.045,6.658 6.202,9.644c3.034,2.869 6.191,4.594 9.471,5.175c3.28,0.582 6.287,-0.573 9.022,-3.464Zm-26.061,-24.995c3.473,-3.672 7.632,-5.619 12.479,-5.841c4.847,-0.222 9.647,1.915 14.401,6.41c4.595,4.345 7.334,9.052 8.218,14.122c0.885,5.07 -0.896,9.955 -5.341,14.656c-3.707,3.921 -7.977,5.78 -12.809,5.578c-4.833,-0.201 -9.484,-2.416 -13.955,-6.643c-4.789,-4.529 -7.454,-9.35 -7.994,-14.464c-0.541,-5.114 1.127,-9.72 5.001,-13.818Z" style="fill-rule:nonzero;"/><path d="M3191.29,207.946l4.303,-4.55l4.044,3.825c-0.392,-2.925 -0.239,-5.485 0.459,-7.681c0.698,-2.196 1.92,-4.216 3.664,-6.061c3.825,-4.044 7.818,-5.442 11.981,-4.195c2.281,0.679 4.859,2.377 7.733,5.095l18.28,17.285l-4.605,4.87l-17.961,-16.984c-1.738,-1.644 -3.383,-2.712 -4.933,-3.204c-2.58,-0.826 -4.926,-0.121 -7.039,2.114c-1.074,1.135 -1.839,2.176 -2.296,3.121c-0.851,1.682 -1.161,3.573 -0.93,5.674c0.186,1.687 0.666,3.124 1.442,4.311c0.776,1.187 2.095,2.662 3.958,4.423l14.927,14.115l-4.529,4.79l-28.498,-26.948Z" style="fill-rule:nonzero;"/><path d="M3242.2,193.285c1.731,1.368 3.332,2.126 4.805,2.275c2.683,0.253 5.434,-1.11 8.253,-4.091c1.677,-1.774 2.767,-3.699 3.27,-5.777c0.504,-2.078 -0.052,-3.88 -1.666,-5.407c-1.224,-1.157 -2.667,-1.497 -4.329,-1.018c-1.044,0.322 -2.788,1.261 -5.232,2.814l-4.556,2.899c-2.901,1.86 -5.269,3.015 -7.105,3.463c-3.24,0.833 -6.005,0.168 -8.293,-1.996c-2.697,-2.549 -3.96,-5.584 -3.791,-9.103c0.169,-3.519 1.806,-6.92 4.909,-10.202c4.059,-4.292 8.246,-6.197 12.559,-5.713c2.721,0.321 4.987,1.372 6.798,3.152l-4.277,4.523c-1.166,-0.934 -2.511,-1.484 -4.036,-1.649c-2.299,-0.091 -4.732,1.221 -7.299,3.935c-1.711,1.809 -2.661,3.507 -2.849,5.092c-0.189,1.586 0.284,2.915 1.419,3.989c1.242,1.174 2.814,1.501 4.717,0.982c1.114,-0.291 2.494,-0.968 4.139,-2.033l3.766,-2.437c4.088,-2.653 7.076,-4.196 8.964,-4.628c2.985,-0.706 5.79,0.183 8.416,2.666c2.536,2.398 3.817,5.432 3.842,9.101c0.025,3.67 -1.825,7.473 -5.548,11.411c-4.009,4.24 -7.811,6.332 -11.404,6.277c-3.594,-0.054 -6.869,-1.362 -9.825,-3.921l4.353,-4.604Z" style="fill-rule:nonzero;"/></g><g id="Annotations"><path d="M3246.18,0l-343.75,0l-500,531.25l343.75,0l500,-531.25Z" style="fill:#ecb5e2;"/><path d="M2686.41,405.28l-22.88,-10.396l11.306,22.636l11.574,-12.24Zm-31.297,-13.114l5.661,-5.986l52.499,22.779l-5.485,5.8l-15.457,-7.106l-14.618,15.46l7.707,15.301l-5.133,5.429l-25.174,-51.677Z" style="fill-rule:nonzero;"/><path d="M2688.72,377.834l4.303,-4.551l4.044,3.825c-0.392,-2.925 -0.239,-5.485 0.459,-7.681c0.699,-2.195 1.92,-4.216 3.665,-6.061c3.824,-4.044 7.818,-5.442 11.98,-4.194c2.281,0.678 4.859,2.376 7.733,5.094l18.28,17.285l-4.605,4.87l-17.96,-16.984c-1.739,-1.644 -3.384,-2.712 -4.934,-3.204c-2.579,-0.825 -4.926,-0.121 -7.039,2.114c-1.074,1.136 -1.839,2.176 -2.296,3.121c-0.851,1.682 -1.161,3.573 -0.93,5.674c0.186,1.687 0.666,3.124 1.442,4.311c0.776,1.188 2.095,2.662 3.958,4.423l14.927,14.115l-4.529,4.79l-28.498,-26.947Z" style="fill-rule:nonzero;"/><path d="M2717.38,347.526l4.302,-4.55l4.045,3.824c-0.393,-2.924 -0.24,-5.485 0.459,-7.68c0.698,-2.196 1.919,-4.216 3.664,-6.061c3.824,-4.044 7.818,-5.443 11.98,-4.195c2.282,0.679 4.859,2.377 7.733,5.094l18.28,17.286l-4.604,4.869l-17.961,-16.983c-1.739,-1.644 -3.383,-2.712 -4.934,-3.204c-2.579,-0.826 -4.925,-0.121 -7.039,2.114c-1.073,1.135 -1.839,2.175 -2.296,3.121c-0.851,1.682 -1.161,3.573 -0.929,5.673c0.185,1.687 0.666,3.125 1.442,4.312c0.775,1.187 2.095,2.661 3.957,4.423l14.928,14.115l-4.529,4.79l-28.498,-26.948Z" style="fill-rule:nonzero;"/><path d="M2782.14,329.939c3.002,-3.176 3.86,-6.49 2.571,-9.942c-1.288,-3.453 -3.404,-6.571 -6.349,-9.356c-2.661,-2.516 -5.228,-4.136 -7.7,-4.862c-3.9,-1.134 -7.41,-0.051 -10.53,3.248c-2.768,2.927 -3.663,6.112 -2.686,9.556c0.977,3.444 3.044,6.659 6.202,9.645c3.033,2.868 6.19,4.593 9.47,5.175c3.281,0.582 6.288,-0.573 9.022,-3.464Zm-26.06,-24.995c3.472,-3.672 7.631,-5.619 12.478,-5.841c4.847,-0.222 9.647,1.915 14.401,6.41c4.595,4.345 7.334,9.052 8.219,14.122c0.884,5.07 -0.896,9.955 -5.341,14.656c-3.707,3.92 -7.977,5.78 -12.81,5.578c-4.833,-0.201 -9.484,-2.416 -13.954,-6.643c-4.79,-4.529 -7.455,-9.35 -7.995,-14.465c-0.54,-5.114 1.127,-9.72 5.002,-13.817Z" style="fill-rule:nonzero;"/><path d="M2767.65,278.43l4.58,-4.843l7.956,7.524l4.302,-4.551l3.912,3.699l-4.303,4.55l18.6,17.588c0.993,0.939 1.977,1.231 2.951,0.876c0.548,-0.188 1.232,-0.717 2.054,-1.586c0.218,-0.231 0.449,-0.483 0.692,-0.758c0.242,-0.274 0.514,-0.606 0.814,-0.994l3.778,3.573c-0.36,0.701 -0.786,1.382 -1.277,2.043c-0.491,0.662 -1.063,1.338 -1.718,2.03c-2.113,2.235 -4.119,3.211 -6.018,2.927c-1.899,-0.283 -3.762,-1.289 -5.59,-3.017l-18.865,-17.839l-3.649,3.858l-3.911,-3.698l3.648,-3.859l-7.956,-7.523Z" style="fill-rule:nonzero;"/><path d="M2813.4,287.875c1.384,1.309 2.953,1.835 4.707,1.579c1.754,-0.257 3.286,-1.077 4.594,-2.46c1.594,-1.686 2.747,-3.687 3.459,-6.004c1.221,-3.885 0.359,-7.22 -2.585,-10.004l-3.859,-3.649c-0.181,0.938 -0.583,1.985 -1.207,3.143c-0.624,1.157 -1.302,2.229 -2.034,3.217l-2.37,3.253c-1.414,1.956 -2.283,3.604 -2.608,4.943c-0.559,2.26 0.076,4.255 1.903,5.982Zm1.284,-20.76c0.899,-1.234 1.133,-2.406 0.705,-3.517c-0.224,-0.615 -0.736,-1.3 -1.534,-2.055c-1.632,-1.543 -3.365,-2.082 -5.2,-1.616c-1.835,0.466 -3.776,1.781 -5.822,3.945c-2.365,2.501 -3.369,4.912 -3.01,7.234c0.191,1.29 0.939,2.72 2.244,4.289l-4.227,4.47c-3.428,-3.409 -4.794,-6.86 -4.098,-10.351c0.697,-3.49 2.413,-6.682 5.147,-9.573c3.17,-3.353 6.384,-5.472 9.64,-6.357c3.24,-0.868 6.208,-0.027 8.904,2.523l16.418,15.524c0.497,0.47 0.992,0.745 1.487,0.826c0.494,0.081 1.052,-0.206 1.672,-0.863c0.202,-0.213 0.415,-0.465 0.64,-0.756c0.225,-0.291 0.453,-0.613 0.685,-0.965l3.539,3.347c-0.491,0.946 -0.895,1.64 -1.211,2.08c-0.316,0.441 -0.792,0.998 -1.43,1.672c-1.56,1.65 -3.277,2.294 -5.153,1.932c-0.99,-0.197 -2.128,-0.752 -3.414,-1.666c0.355,2.183 0.138,4.633 -0.649,7.349c-0.788,2.716 -2.222,5.174 -4.302,7.374c-2.499,2.643 -5.344,4.044 -8.534,4.202c-3.191,0.158 -5.992,-0.903 -8.405,-3.185c-2.643,-2.499 -3.912,-5.261 -3.807,-8.286c0.106,-3.026 1.256,-6.037 3.452,-9.034l6.263,-8.543Z" style="fill-rule:nonzero;"/><path d="M2810.62,232.982l4.58,-4.842l7.956,7.523l4.302,-4.55l3.912,3.698l-4.303,4.55l18.6,17.588c0.993,0.939 1.977,1.231 2.951,0.876c0.548,-0.188 1.232,-0.717 2.054,-1.586c0.218,-0.231 0.449,-0.483 0.692,-0.758c0.242,-0.274 0.514,-0.605 0.814,-0.994l3.778,3.573c-0.36,0.701 -0.786,1.382 -1.277,2.043c-0.491,0.662 -1.063,1.338 -1.718,2.03c-2.113,2.235 -4.119,3.211 -6.018,2.927c-1.899,-0.283 -3.762,-1.289 -5.59,-3.017l-18.865,-17.839l-3.649,3.858l-3.911,-3.698l3.648,-3.858l-7.956,-7.524Z" style="fill-rule:nonzero;"/><path d="M2832.12,226.449l4.605,-4.87l28.365,26.822l-4.605,4.869l-28.365,-26.821Zm-10.723,-10.14l4.604,-4.869l5.428,5.132l-4.604,4.87l-5.428,-5.133Z" style="fill-rule:nonzero;"/><path d="M2879.54,226.936c3.003,-3.175 3.86,-6.489 2.572,-9.942c-1.288,-3.452 -3.405,-6.571 -6.35,-9.355c-2.66,-2.516 -5.227,-4.137 -7.7,-4.862c-3.9,-1.135 -7.41,-0.052 -10.53,3.247c-2.768,2.927 -3.663,6.113 -2.686,9.557c0.977,3.444 3.044,6.659 6.202,9.644c3.033,2.869 6.19,4.594 9.47,5.176c3.281,0.581 6.288,-0.573 9.022,-3.465Zm-26.06,-24.995c3.472,-3.672 7.632,-5.619 12.478,-5.841c4.847,-0.222 9.648,1.915 14.402,6.41c4.594,4.345 7.334,9.052 8.218,14.122c0.884,5.07 -0.896,9.955 -5.341,14.656c-3.707,3.921 -7.977,5.78 -12.81,5.578c-4.832,-0.201 -9.484,-2.415 -13.954,-6.643c-4.79,-4.529 -7.455,-9.35 -7.995,-14.464c-0.54,-5.114 1.127,-9.72 5.002,-13.818Z" style="fill-rule:nonzero;"/><path d="M2872.1,183.909l4.302,-4.55l4.045,3.824c-0.393,-2.925 -0.24,-5.485 0.459,-7.681c0.698,-2.195 1.92,-4.216 3.664,-6.06c3.825,-4.045 7.818,-5.443 11.98,-4.195c2.282,0.678 4.859,2.377 7.733,5.094l18.28,17.286l-4.604,4.869l-17.961,-16.984c-1.738,-1.644 -3.383,-2.711 -4.934,-3.203c-2.579,-0.826 -4.925,-0.122 -7.039,2.113c-1.073,1.136 -1.839,2.176 -2.296,3.121c-0.851,1.682 -1.161,3.573 -0.929,5.674c0.185,1.687 0.666,3.124 1.442,4.311c0.775,1.188 2.095,2.662 3.957,4.423l14.928,14.115l-4.529,4.79l-28.498,-26.947Z" style="fill-rule:nonzero;"/><path d="M2923,169.247c1.731,1.368 3.332,2.126 4.804,2.275c2.684,0.253 5.435,-1.11 8.253,-4.09c1.677,-1.774 2.768,-3.7 3.271,-5.778c0.503,-2.078 -0.052,-3.88 -1.667,-5.407c-1.224,-1.157 -2.667,-1.497 -4.328,-1.018c-1.045,0.323 -2.789,1.261 -5.232,2.814l-4.556,2.9c-2.901,1.859 -5.27,3.014 -7.105,3.462c-3.241,0.833 -6.005,0.168 -8.294,-1.996c-2.696,-2.549 -3.96,-5.584 -3.79,-9.103c0.169,-3.519 1.805,-6.92 4.908,-10.201c4.06,-4.293 8.246,-6.198 12.56,-5.714c2.72,0.321 4.986,1.372 6.798,3.152l-4.278,4.523c-1.166,-0.934 -2.511,-1.484 -4.035,-1.648c-2.3,-0.092 -4.733,1.22 -7.299,3.934c-1.711,1.809 -2.661,3.507 -2.85,5.092c-0.189,1.586 0.285,2.915 1.42,3.989c1.242,1.174 2.814,1.501 4.716,0.982c1.115,-0.29 2.495,-0.968 4.14,-2.033l3.766,-2.437c4.088,-2.653 7.076,-4.196 8.963,-4.628c2.985,-0.705 5.791,0.183 8.416,2.666c2.537,2.398 3.818,5.432 3.843,9.102c0.024,3.669 -1.825,7.472 -5.549,11.411c-4.009,4.239 -7.81,6.332 -11.404,6.277c-3.594,-0.055 -6.868,-1.363 -9.824,-3.922l4.353,-4.604Z" style="fill-rule:nonzero;"/></g><g id="Formulation"><path d="M2902.51,0l-343.75,0l-500,531.25l343.75,0l500,-531.25Z" style="fill:#b5e3ec;"/><path d="M2304.59,404.261l25.639,-27.115l4.79,4.529l-20.632,21.82l11.867,11.221l18.141,-19.185l4.657,4.404l-18.141,19.185l17.775,16.807l-5.008,5.295l-39.088,-36.961Z" style="fill-rule:nonzero;"/><path d="M2381.68,394.851c3.002,-3.175 3.86,-6.489 2.571,-9.941c-1.288,-3.453 -3.404,-6.571 -6.349,-9.356c-2.661,-2.516 -5.228,-4.137 -7.7,-4.862c-3.9,-1.134 -7.411,-0.052 -10.531,3.248c-2.767,2.927 -3.663,6.112 -2.685,9.556c0.977,3.444 3.044,6.659 6.202,9.645c3.033,2.868 6.19,4.593 9.47,5.175c3.28,0.582 6.288,-0.573 9.022,-3.465Zm-26.06,-24.995c3.472,-3.672 7.631,-5.619 12.478,-5.84c4.847,-0.222 9.647,1.914 14.401,6.41c4.595,4.344 7.334,9.052 8.219,14.122c0.884,5.069 -0.896,9.955 -5.342,14.656c-3.707,3.92 -7.976,5.779 -12.809,5.578c-4.833,-0.202 -9.484,-2.416 -13.954,-6.643c-4.79,-4.529 -7.455,-9.351 -7.995,-14.465c-0.54,-5.114 1.127,-9.72 5.002,-13.818Z" style="fill-rule:nonzero;"/><path d="M2374.36,351.691l4.303,-4.55l4.922,4.655c-0.605,-1.279 -0.908,-3.295 -0.907,-6.05c0.001,-2.754 0.898,-5.081 2.693,-6.979c0.084,-0.088 0.235,-0.231 0.454,-0.427c0.219,-0.196 0.599,-0.526 1.138,-0.99l5.056,4.78c-0.321,0.234 -0.604,0.462 -0.849,0.685c-0.244,0.222 -0.5,0.476 -0.768,0.759c-2.282,2.413 -3.258,5.001 -2.931,7.763c0.328,2.763 1.503,5.1 3.525,7.013l16.391,15.499l-4.529,4.789l-28.498,-26.947Z" style="fill-rule:nonzero;"/><path d="M2391.39,333.677l4.479,-4.737l4.044,3.825c-0.327,-2.461 -0.375,-4.454 -0.141,-5.98c0.411,-2.602 1.564,-4.905 3.459,-6.91c2.148,-2.271 4.434,-3.569 6.86,-3.896c1.377,-0.177 2.988,0.003 4.833,0.538c-0.519,-2.507 -0.467,-4.827 0.155,-6.96c0.623,-2.133 1.781,-4.095 3.475,-5.887c3.624,-3.831 7.473,-5.131 11.549,-3.898c2.194,0.664 4.551,2.187 7.07,4.569l18.972,17.94l-4.705,4.976l-19.797,-18.72c-1.898,-1.795 -3.65,-2.553 -5.257,-2.275c-1.607,0.278 -3.057,1.1 -4.348,2.466c-1.778,1.88 -2.679,4.094 -2.703,6.642c-0.024,2.548 1.437,5.215 4.382,7.999l16.577,15.676l-4.605,4.869l-18.599,-17.588c-1.934,-1.828 -3.562,-2.931 -4.885,-3.308c-2.018,-0.531 -3.967,0.197 -5.846,2.184c-1.71,1.809 -2.566,4.117 -2.565,6.923c0.001,2.807 1.837,5.946 5.509,9.418l15.114,14.292l-4.529,4.789l-28.498,-26.947Z" style="fill-rule:nonzero;"/><path d="M2438.85,283.493l18.919,17.889c1.454,1.376 2.861,2.269 4.219,2.68c2.509,0.759 4.861,-0.024 7.059,-2.348c3.153,-3.335 3.81,-7.014 1.971,-11.039c-0.976,-2.166 -2.857,-4.565 -5.642,-7.199l-13.996,-13.235l4.529,-4.789l28.498,26.947l-4.277,4.524l-4.154,-4.029c0.495,1.644 0.679,3.28 0.551,4.907c-0.237,3.236 -1.589,6.158 -4.055,8.765c-3.841,4.063 -7.815,5.547 -11.921,4.453c-2.209,-0.577 -4.529,-2.015 -6.96,-4.313l-19.371,-18.317l4.63,-4.896Z" style="fill-rule:nonzero;"/><path d="M2452.51,247.828l4.529,-4.79l39.088,36.962l-4.529,4.789l-39.088,-36.961Z" style="fill-rule:nonzero;"/><path d="M2498.81,261.972c1.384,1.309 2.953,1.835 4.707,1.578c1.755,-0.256 3.286,-1.076 4.594,-2.46c1.594,-1.685 2.747,-3.686 3.459,-6.003c1.221,-3.885 0.36,-7.22 -2.585,-10.004l-3.858,-3.649c-0.181,0.938 -0.584,1.985 -1.208,3.143c-0.624,1.157 -1.302,2.229 -2.034,3.217l-2.37,3.253c-1.413,1.956 -2.282,3.604 -2.608,4.943c-0.558,2.26 0.076,4.255 1.903,5.982Zm1.285,-20.76c0.898,-1.234 1.133,-2.406 0.705,-3.517c-0.225,-0.615 -0.736,-1.3 -1.535,-2.055c-1.632,-1.543 -3.365,-2.082 -5.2,-1.616c-1.835,0.466 -3.775,1.781 -5.822,3.945c-2.365,2.501 -3.368,4.912 -3.01,7.234c0.192,1.29 0.94,2.719 2.244,4.289l-4.227,4.47c-3.428,-3.41 -4.794,-6.86 -4.097,-10.351c0.697,-3.49 2.412,-6.682 5.146,-9.573c3.171,-3.353 6.384,-5.472 9.641,-6.357c3.239,-0.868 6.207,-0.027 8.904,2.522l16.417,15.525c0.497,0.469 0.993,0.745 1.487,0.826c0.495,0.081 1.052,-0.206 1.673,-0.863c0.201,-0.213 0.414,-0.465 0.639,-0.756c0.225,-0.291 0.454,-0.613 0.686,-0.965l3.539,3.347c-0.492,0.946 -0.896,1.64 -1.212,2.08c-0.315,0.441 -0.792,0.998 -1.429,1.672c-1.56,1.65 -3.278,2.294 -5.153,1.932c-0.99,-0.197 -2.128,-0.752 -3.415,-1.666c0.355,2.183 0.139,4.633 -0.649,7.349c-0.787,2.716 -2.221,5.174 -4.301,7.374c-2.5,2.643 -5.344,4.044 -8.535,4.202c-3.191,0.158 -5.992,-0.903 -8.405,-3.185c-2.643,-2.499 -3.912,-5.261 -3.806,-8.286c0.105,-3.026 1.256,-6.037 3.452,-9.034l6.263,-8.543Z" style="fill-rule:nonzero;"/><path d="M2496.03,207.079l4.579,-4.843l7.956,7.524l4.303,-4.55l3.911,3.698l-4.302,4.55l18.599,17.588c0.993,0.939 1.977,1.231 2.952,0.876c0.547,-0.188 1.232,-0.717 2.054,-1.586c0.218,-0.231 0.448,-0.483 0.691,-0.758c0.243,-0.274 0.514,-0.606 0.814,-0.994l3.779,3.573c-0.361,0.701 -0.786,1.382 -1.277,2.043c-0.491,0.662 -1.064,1.338 -1.718,2.03c-2.114,2.235 -4.12,3.211 -6.019,2.927c-1.899,-0.283 -3.762,-1.289 -5.589,-3.017l-18.866,-17.839l-3.648,3.858l-3.912,-3.698l3.649,-3.859l-7.956,-7.523Z" style="fill-rule:nonzero;"/><path d="M2517.53,200.546l4.604,-4.87l28.365,26.822l-4.604,4.869l-28.365,-26.821Zm-10.724,-10.14l4.605,-4.87l5.428,5.133l-4.605,4.87l-5.428,-5.133Z" style="fill-rule:nonzero;"/><path d="M2564.95,201.033c3.002,-3.175 3.859,-6.489 2.571,-9.942c-1.288,-3.452 -3.404,-6.571 -6.349,-9.355c-2.661,-2.516 -5.228,-4.137 -7.7,-4.862c-3.901,-1.135 -7.411,-0.052 -10.531,3.247c-2.767,2.927 -3.663,6.113 -2.686,9.557c0.977,3.444 3.045,6.659 6.202,9.644c3.034,2.869 6.191,4.594 9.471,5.176c3.28,0.581 6.287,-0.574 9.022,-3.465Zm-26.061,-24.995c3.473,-3.672 7.632,-5.619 12.479,-5.841c4.847,-0.222 9.647,1.915 14.401,6.41c4.594,4.345 7.334,9.052 8.218,14.122c0.885,5.07 -0.896,9.955 -5.341,14.656c-3.707,3.921 -7.977,5.78 -12.809,5.578c-4.833,-0.201 -9.484,-2.416 -13.955,-6.643c-4.789,-4.529 -7.454,-9.35 -7.994,-14.464c-0.541,-5.114 1.127,-9.72 5.001,-13.818Z" style="fill-rule:nonzero;"/><path d="M2557.51,158.006l4.303,-4.551l4.044,3.825c-0.392,-2.925 -0.24,-5.485 0.459,-7.681c0.698,-2.195 1.92,-4.216 3.664,-6.061c3.825,-4.044 7.818,-5.442 11.981,-4.194c2.281,0.678 4.859,2.376 7.733,5.094l18.28,17.285l-4.605,4.87l-17.961,-16.984c-1.738,-1.644 -3.383,-2.712 -4.934,-3.204c-2.579,-0.825 -4.925,-0.121 -7.038,2.114c-1.074,1.136 -1.839,2.176 -2.296,3.121c-0.851,1.682 -1.161,3.573 -0.93,5.674c0.186,1.687 0.666,3.124 1.442,4.311c0.776,1.188 2.095,2.662 3.958,4.423l14.927,14.115l-4.529,4.79l-28.498,-26.947Z" style="fill-rule:nonzero;"/></g><g id="Vulnerabilities"><path d="M2561.27,-0l-343.75,-0l-500,531.25l343.75,-0l500,-531.25Z" style="fill:#f9b8b8;"/><path d="M1931.13,433.805l43.906,20.247l-22.796,-42.572l5.611,-5.934l25.602,51.224l-5.309,5.614l-52.549,-22.725l5.535,-5.854Z" style="fill-rule:nonzero;"/><path d="M1975.21,408.402l18.919,17.89c1.454,1.375 2.861,2.269 4.219,2.68c2.508,0.759 4.861,-0.024 7.059,-2.348c3.153,-3.335 3.81,-7.014 1.971,-11.039c-0.976,-2.166 -2.857,-4.565 -5.642,-7.199l-13.996,-13.235l4.529,-4.789l28.498,26.947l-4.277,4.524l-4.154,-4.029c0.495,1.644 0.679,3.28 0.551,4.907c-0.237,3.236 -1.589,6.158 -4.055,8.765c-3.841,4.063 -7.815,5.547 -11.921,4.453c-2.21,-0.578 -4.529,-2.015 -6.96,-4.313l-19.371,-18.317l4.63,-4.897Z" style="fill-rule:nonzero;"/><path d="M1988.88,372.738l4.529,-4.79l39.088,36.961l-4.529,4.79l-39.088,-36.961Z" style="fill-rule:nonzero;"/><path d="M2010.79,370.778l4.303,-4.55l4.044,3.824c-0.392,-2.925 -0.239,-5.485 0.459,-7.681c0.699,-2.195 1.92,-4.216 3.665,-6.06c3.824,-4.045 7.818,-5.443 11.98,-4.195c2.281,0.679 4.859,2.377 7.733,5.094l18.28,17.286l-4.605,4.869l-17.96,-16.984c-1.739,-1.644 -3.384,-2.711 -4.934,-3.203c-2.579,-0.826 -4.926,-0.122 -7.039,2.113c-1.074,1.136 -1.839,2.176 -2.296,3.121c-0.851,1.682 -1.161,3.573 -0.93,5.674c0.186,1.687 0.666,3.124 1.442,4.311c0.776,1.188 2.095,2.662 3.958,4.423l14.927,14.116l-4.529,4.789l-28.498,-26.947Z" style="fill-rule:nonzero;"/><path d="M2050.03,327.999c1.912,-2.022 4.24,-3.534 6.984,-4.535c2.744,-1 5.339,-1.284 7.787,-0.852c2.342,0.401 4.623,1.347 6.84,2.84c1.581,0.957 3.809,2.794 6.683,5.512l-19.752,20.888c2.976,2.645 5.941,4.155 8.896,4.53c2.955,0.375 5.699,-0.776 8.232,-3.455c2.365,-2.501 3.427,-5.277 3.186,-8.327c-0.153,-1.757 -0.691,-3.409 -1.615,-4.954l4.454,-4.71c0.929,1.114 1.705,2.629 2.329,4.546c0.623,1.917 0.932,3.695 0.926,5.336c0.044,2.797 -0.701,5.503 -2.234,8.119c-0.806,1.422 -1.897,2.86 -3.273,4.314c-3.355,3.548 -7.488,5.335 -12.401,5.36c-4.913,0.025 -9.693,-2.16 -14.34,-6.555c-4.577,-4.327 -7.119,-9.083 -7.627,-14.267c-0.508,-5.185 1.134,-9.781 4.925,-13.79Zm19.834,4.289c-2.26,-1.767 -4.347,-2.883 -6.259,-3.348c-3.548,-0.868 -6.772,0.233 -9.674,3.302c-2.08,2.199 -3.031,4.795 -2.852,7.786c0.178,2.992 1.45,5.689 3.814,8.093l14.971,-15.833Z" style="fill-rule:nonzero;"/><path d="M2068.23,310.03l4.302,-4.55l4.923,4.654c-0.606,-1.278 -0.908,-3.294 -0.907,-6.049c0,-2.755 0.898,-5.081 2.693,-6.979c0.084,-0.089 0.235,-0.231 0.454,-0.427c0.219,-0.196 0.599,-0.526 1.138,-0.99l5.056,4.78c-0.322,0.234 -0.605,0.462 -0.849,0.684c-0.244,0.223 -0.5,0.476 -0.769,0.76c-2.281,2.413 -3.258,5 -2.93,7.763c0.328,2.763 1.503,5.1 3.525,7.012l16.391,15.5l-4.529,4.789l-28.498,-26.947Z" style="fill-rule:nonzero;"/><path d="M2109.65,308.12c1.383,1.309 2.952,1.835 4.707,1.578c1.754,-0.256 3.286,-1.076 4.594,-2.46c1.593,-1.685 2.746,-3.686 3.459,-6.003c1.221,-3.885 0.359,-7.22 -2.586,-10.005l-3.858,-3.648c-0.181,0.938 -0.583,1.985 -1.207,3.142c-0.624,1.158 -1.302,2.23 -2.035,3.218l-2.37,3.252c-1.413,1.957 -2.282,3.605 -2.607,4.943c-0.559,2.261 0.076,4.255 1.903,5.983Zm1.284,-20.76c0.898,-1.234 1.133,-2.406 0.705,-3.517c-0.224,-0.615 -0.736,-1.3 -1.534,-2.055c-1.632,-1.543 -3.366,-2.082 -5.2,-1.616c-1.835,0.465 -3.776,1.78 -5.822,3.945c-2.365,2.501 -3.369,4.912 -3.01,7.234c0.191,1.29 0.939,2.719 2.244,4.289l-4.227,4.47c-3.429,-3.41 -4.795,-6.86 -4.098,-10.351c0.697,-3.491 2.413,-6.682 5.147,-9.573c3.17,-3.353 6.383,-5.472 9.64,-6.358c3.24,-0.867 6.208,-0.026 8.904,2.523l16.418,15.525c0.497,0.469 0.992,0.745 1.487,0.826c0.494,0.081 1.052,-0.207 1.672,-0.863c0.202,-0.213 0.415,-0.465 0.64,-0.756c0.225,-0.291 0.453,-0.613 0.685,-0.965l3.539,3.347c-0.492,0.946 -0.895,1.639 -1.211,2.08c-0.316,0.441 -0.793,0.998 -1.43,1.672c-1.56,1.65 -3.278,2.294 -5.153,1.932c-0.99,-0.197 -2.128,-0.753 -3.414,-1.667c0.355,2.184 0.138,4.634 -0.649,7.35c-0.788,2.716 -2.222,5.174 -4.302,7.374c-2.499,2.643 -5.344,4.043 -8.535,4.202c-3.19,0.158 -5.992,-0.903 -8.404,-3.185c-2.643,-2.499 -3.912,-5.261 -3.807,-8.287c0.106,-3.025 1.256,-6.036 3.452,-9.033l6.263,-8.543Z" style="fill-rule:nonzero;"/><path d="M2102.85,251.941l4.403,-4.657l14.182,13.411c-0.376,-2.338 -0.235,-4.574 0.422,-6.708c0.657,-2.134 1.79,-4.053 3.401,-5.756c3.354,-3.547 7.296,-5.272 11.823,-5.174c4.528,0.097 9.168,2.394 13.922,6.89c4.506,4.26 7.218,8.89 8.135,13.89c0.917,5 -0.453,9.434 -4.11,13.301c-2.046,2.164 -4.298,3.497 -6.753,3.997c-1.46,0.3 -3.351,0.31 -5.673,0.029l3.646,3.447l-4.177,4.417l-39.221,-37.087Zm47.67,21.489c2.449,-2.59 3.253,-5.501 2.411,-8.733c-0.841,-3.231 -2.947,-6.441 -6.318,-9.628c-2.998,-2.835 -6.089,-4.54 -9.274,-5.116c-3.185,-0.576 -5.961,0.387 -8.326,2.888c-2.063,2.182 -3.063,4.857 -3.001,8.024c0.063,3.167 1.948,6.504 5.656,10.01c2.678,2.533 5.17,4.25 7.475,5.153c4.331,1.709 8.123,0.844 11.377,-2.598Z" style="fill-rule:nonzero;"/><path d="M2142.72,231.527l4.604,-4.87l28.365,26.822l-4.604,4.869l-28.365,-26.821Zm-10.724,-10.14l4.605,-4.87l5.428,5.133l-4.604,4.87l-5.429,-5.133Z" style="fill-rule:nonzero;"/><path d="M2143.57,209.147l4.529,-4.79l39.089,36.962l-4.529,4.789l-39.089,-36.961Z" style="fill-rule:nonzero;"/><path d="M2165.61,207.313l4.605,-4.87l28.365,26.822l-4.605,4.869l-28.365,-26.821Zm-10.723,-10.14l4.604,-4.87l5.429,5.133l-4.605,4.87l-5.428,-5.133Z" style="fill-rule:nonzero;"/><path d="M2169.88,186.599l4.58,-4.843l7.956,7.523l4.302,-4.55l3.912,3.699l-4.303,4.55l18.6,17.587c0.993,0.94 1.977,1.232 2.951,0.876c0.548,-0.188 1.232,-0.716 2.054,-1.586c0.218,-0.23 0.449,-0.483 0.692,-0.757c0.242,-0.275 0.514,-0.606 0.814,-0.994l3.778,3.572c-0.36,0.701 -0.786,1.382 -1.277,2.044c-0.491,0.661 -1.063,1.338 -1.718,2.03c-2.113,2.235 -4.119,3.21 -6.018,2.927c-1.899,-0.284 -3.762,-1.29 -5.59,-3.017l-18.865,-17.839l-3.649,3.858l-3.911,-3.699l3.648,-3.858l-7.956,-7.523Z" style="fill-rule:nonzero;"/><path d="M2191.38,180.065l4.605,-4.869l28.365,26.821l-4.605,4.87l-28.365,-26.822Zm-10.723,-10.14l4.604,-4.869l5.428,5.133l-4.604,4.869l-5.428,-5.133Z" style="fill-rule:nonzero;"/><path d="M2213.28,155.361c1.912,-2.022 4.24,-3.534 6.984,-4.534c2.744,-1.001 5.339,-1.285 7.786,-0.853c2.343,0.401 4.623,1.347 6.841,2.84c1.581,0.957 3.808,2.795 6.682,5.512l-19.751,20.888c2.975,2.645 5.94,4.156 8.895,4.531c2.955,0.375 5.699,-0.777 8.232,-3.456c2.365,-2.501 3.428,-5.277 3.187,-8.327c-0.153,-1.757 -0.691,-3.409 -1.615,-4.954l4.453,-4.71c0.929,1.114 1.706,2.629 2.329,4.546c0.624,1.917 0.933,3.696 0.927,5.336c0.043,2.797 -0.701,5.503 -2.234,8.119c-0.807,1.422 -1.898,2.86 -3.273,4.314c-3.355,3.548 -7.489,5.335 -12.401,5.36c-4.913,0.025 -9.693,-2.16 -14.341,-6.555c-4.576,-4.327 -7.119,-9.083 -7.626,-14.267c-0.508,-5.184 1.134,-9.781 4.925,-13.79Zm19.833,4.29c-2.26,-1.768 -4.346,-2.884 -6.259,-3.348c-3.547,-0.868 -6.772,0.232 -9.674,3.301c-2.08,2.2 -3.03,4.795 -2.852,7.786c0.179,2.992 1.45,5.689 3.815,8.093l14.97,-15.832Z" style="fill-rule:nonzero;"/><path d="M2253.6,153.171c1.731,1.368 3.333,2.126 4.805,2.275c2.684,0.253 5.435,-1.111 8.253,-4.091c1.677,-1.774 2.767,-3.699 3.271,-5.777c0.503,-2.078 -0.053,-3.88 -1.667,-5.407c-1.224,-1.157 -2.667,-1.497 -4.329,-1.019c-1.044,0.323 -2.788,1.261 -5.232,2.815l-4.556,2.899c-2.901,1.86 -5.269,3.014 -7.104,3.463c-3.241,0.833 -6.006,0.168 -8.294,-1.996c-2.696,-2.55 -3.96,-5.584 -3.791,-9.103c0.17,-3.519 1.806,-6.92 4.909,-10.202c4.059,-4.292 8.246,-6.197 12.56,-5.713c2.72,0.321 4.986,1.371 6.797,3.151l-4.277,4.524c-1.166,-0.935 -2.511,-1.484 -4.036,-1.649c-2.299,-0.091 -4.732,1.221 -7.299,3.935c-1.71,1.809 -2.66,3.507 -2.849,5.092c-0.189,1.586 0.284,2.915 1.42,3.989c1.241,1.174 2.813,1.501 4.716,0.982c1.114,-0.291 2.494,-0.968 4.14,-2.033l3.766,-2.437c4.087,-2.653 7.075,-4.196 8.963,-4.629c2.985,-0.705 5.79,0.184 8.416,2.666c2.536,2.399 3.817,5.433 3.842,9.102c0.025,3.67 -1.824,7.473 -5.548,11.411c-4.009,4.24 -7.811,6.332 -11.404,6.277c-3.594,-0.055 -6.869,-1.362 -9.824,-3.922l4.352,-4.603Z" style="fill-rule:nonzero;"/></g><g id="Compositions"><path d="M2218.75,0l-343.75,0l-500,531.25l343.75,0l500,-531.25Z" style="fill:#ebdaad;"/><path d="M1613.73,413.166c4.68,-4.949 9.616,-7.557 14.807,-7.823c5.191,-0.266 9.587,1.019 13.19,3.854l-4.882,5.162c-3.072,-1.797 -6.171,-2.517 -9.295,-2.162c-3.125,0.355 -6.18,2.111 -9.166,5.269c-3.64,3.849 -5.227,8.237 -4.761,13.163c0.466,4.926 3.493,10.031 9.081,15.315c4.576,4.328 9.299,6.769 14.167,7.324c4.869,0.554 9.307,-1.288 13.316,-5.528c3.691,-3.903 5.001,-8.291 3.932,-13.166c-0.555,-2.575 -1.867,-5.345 -3.936,-8.309l4.881,-5.162c3.679,4.353 5.687,9.141 6.023,14.364c0.417,6.275 -1.865,12.046 -6.847,17.315c-4.294,4.541 -9.275,7.055 -14.943,7.542c-7.478,0.623 -15.013,-2.655 -22.606,-9.834c-5.765,-5.451 -9.05,-11.447 -9.855,-17.987c-0.889,-7.091 1.409,-13.536 6.894,-19.337Z" style="fill-rule:nonzero;"/><path d="M1682.53,414.662c3.002,-3.176 3.859,-6.49 2.571,-9.942c-1.288,-3.453 -3.405,-6.571 -6.349,-9.356c-2.661,-2.516 -5.228,-4.137 -7.701,-4.862c-3.9,-1.134 -7.41,-0.052 -10.53,3.248c-2.768,2.927 -3.663,6.112 -2.686,9.556c0.977,3.444 3.045,6.659 6.202,9.645c3.034,2.868 6.191,4.593 9.471,5.175c3.28,0.582 6.287,-0.573 9.022,-3.464Zm-26.061,-24.995c3.473,-3.672 7.632,-5.619 12.479,-5.841c4.846,-0.222 9.647,1.915 14.401,6.41c4.594,4.344 7.334,9.052 8.218,14.122c0.885,5.07 -0.896,9.955 -5.341,14.656c-3.707,3.92 -7.977,5.78 -12.809,5.578c-4.833,-0.202 -9.484,-2.416 -13.955,-6.643c-4.789,-4.529 -7.454,-9.351 -7.994,-14.465c-0.541,-5.114 1.127,-9.72 5.001,-13.817Z" style="fill-rule:nonzero;"/><path d="M1675.08,371.634l4.479,-4.736l4.044,3.824c-0.328,-2.46 -0.375,-4.454 -0.141,-5.98c0.411,-2.602 1.564,-4.905 3.459,-6.91c2.147,-2.27 4.434,-3.569 6.86,-3.896c1.377,-0.177 2.988,0.003 4.833,0.538c-0.519,-2.507 -0.467,-4.827 0.155,-6.96c0.623,-2.133 1.781,-4.095 3.475,-5.886c3.624,-3.832 7.473,-5.131 11.549,-3.898c2.194,0.664 4.551,2.187 7.07,4.568l18.972,17.94l-4.705,4.976l-19.797,-18.72c-1.898,-1.795 -3.651,-2.553 -5.257,-2.275c-1.607,0.278 -3.057,1.1 -4.348,2.466c-1.778,1.881 -2.679,4.095 -2.703,6.643c-0.024,2.548 1.437,5.214 4.381,7.998l16.578,15.676l-4.605,4.869l-18.599,-17.587c-1.934,-1.829 -3.562,-2.932 -4.885,-3.309c-2.018,-0.531 -3.967,0.197 -5.846,2.184c-1.711,1.809 -2.566,4.117 -2.565,6.924c0.001,2.806 1.837,5.945 5.509,9.417l15.114,14.292l-4.529,4.79l-28.498,-26.948Z" style="fill-rule:nonzero;"/><path d="M1754.66,338.115c2.113,-2.235 2.935,-4.978 2.464,-8.229c-0.471,-3.251 -2.569,-6.637 -6.294,-10.16c-2.271,-2.147 -4.532,-3.664 -6.785,-4.551c-4.314,-1.727 -8.031,-0.941 -11.151,2.359c-3.137,3.317 -3.625,7.156 -1.465,11.517c1.153,2.333 3.095,4.792 5.827,7.375c2.2,2.08 4.382,3.521 6.546,4.324c4.119,1.543 7.738,0.665 10.858,-2.635Zm-36.87,-11.377l4.403,-4.657l3.778,3.573c-0.389,-2.182 -0.402,-4.177 -0.038,-5.983c0.463,-2.621 1.725,-5.022 3.788,-7.204c3.053,-3.228 6.882,-4.799 11.487,-4.712c4.605,0.087 9.205,2.303 13.799,6.647c6.209,5.871 9.109,11.688 8.7,17.45c-0.261,3.652 -1.682,6.843 -4.266,9.575c-2.029,2.146 -4.202,3.502 -6.518,4.068c-1.337,0.348 -3.148,0.433 -5.432,0.256l14.555,13.763l-4.529,4.789l-39.727,-37.565Z" style="fill-rule:nonzero;"/><path d="M1782.77,308.652c3.003,-3.175 3.86,-6.489 2.572,-9.942c-1.289,-3.452 -3.405,-6.571 -6.35,-9.355c-2.661,-2.516 -5.227,-4.137 -7.7,-4.862c-3.9,-1.135 -7.41,-0.052 -10.53,3.247c-2.768,2.927 -3.663,6.113 -2.686,9.557c0.977,3.444 3.044,6.659 6.202,9.644c3.033,2.869 6.19,4.594 9.47,5.176c3.281,0.581 6.288,-0.573 9.022,-3.465Zm-26.06,-24.995c3.472,-3.672 7.632,-5.619 12.478,-5.841c4.847,-0.222 9.647,1.915 14.401,6.411c4.595,4.344 7.334,9.051 8.219,14.121c0.884,5.07 -0.896,9.956 -5.341,14.656c-3.707,3.921 -7.977,5.78 -12.81,5.579c-4.832,-0.202 -9.484,-2.416 -13.954,-6.643c-4.79,-4.529 -7.455,-9.351 -7.995,-14.465c-0.54,-5.114 1.127,-9.72 5.002,-13.818Z" style="fill-rule:nonzero;"/><path d="M1797.57,281.271c1.731,1.368 3.332,2.126 4.805,2.275c2.683,0.253 5.434,-1.111 8.253,-4.091c1.677,-1.774 2.767,-3.7 3.27,-5.778c0.504,-2.077 -0.052,-3.88 -1.666,-5.406c-1.224,-1.157 -2.667,-1.497 -4.329,-1.019c-1.044,0.323 -2.788,1.261 -5.232,2.815l-4.556,2.899c-2.901,1.86 -5.269,3.014 -7.105,3.463c-3.24,0.833 -6.005,0.168 -8.293,-1.996c-2.697,-2.55 -3.96,-5.584 -3.791,-9.103c0.169,-3.52 1.806,-6.92 4.909,-10.202c4.059,-4.293 8.246,-6.197 12.559,-5.714c2.721,0.322 4.987,1.372 6.798,3.152l-4.277,4.524c-1.166,-0.935 -2.511,-1.484 -4.036,-1.649c-2.299,-0.091 -4.732,1.22 -7.299,3.934c-1.711,1.81 -2.661,3.507 -2.849,5.093c-0.189,1.585 0.284,2.915 1.419,3.988c1.242,1.174 2.814,1.502 4.717,0.982c1.114,-0.29 2.494,-0.967 4.14,-2.032l3.765,-2.437c4.088,-2.653 7.076,-4.196 8.964,-4.629c2.985,-0.705 5.79,0.184 8.416,2.666c2.536,2.399 3.817,5.433 3.842,9.102c0.025,3.669 -1.825,7.473 -5.548,11.411c-4.009,4.24 -7.811,6.332 -11.404,6.277c-3.594,-0.055 -6.869,-1.362 -9.825,-3.922l4.353,-4.603Z" style="fill-rule:nonzero;"/><path d="M1801.22,238.503l4.604,-4.869l28.365,26.821l-4.605,4.87l-28.364,-26.822Zm-10.724,-10.14l4.605,-4.869l5.428,5.133l-4.605,4.869l-5.428,-5.133Z" style="fill-rule:nonzero;"/><path d="M1805.49,217.789l4.579,-4.843l7.956,7.524l4.302,-4.551l3.912,3.699l-4.303,4.55l18.6,17.588c0.993,0.939 1.977,1.231 2.952,0.876c0.547,-0.188 1.232,-0.717 2.054,-1.586c0.218,-0.231 0.448,-0.483 0.691,-0.758c0.243,-0.274 0.514,-0.606 0.814,-0.994l3.778,3.573c-0.36,0.701 -0.786,1.382 -1.277,2.043c-0.491,0.662 -1.063,1.338 -1.717,2.03c-2.114,2.235 -4.12,3.211 -6.019,2.927c-1.899,-0.283 -3.762,-1.289 -5.589,-3.017l-18.866,-17.839l-3.648,3.858l-3.912,-3.698l3.649,-3.859l-7.956,-7.523Z" style="fill-rule:nonzero;"/><path d="M1826.99,211.256l4.605,-4.87l28.365,26.822l-4.605,4.869l-28.365,-26.821Zm-10.723,-10.14l4.605,-4.87l5.428,5.133l-4.605,4.87l-5.428,-5.133Z" style="fill-rule:nonzero;"/><path d="M1874.41,211.743c3.003,-3.175 3.86,-6.489 2.572,-9.942c-1.288,-3.452 -3.405,-6.571 -6.349,-9.355c-2.661,-2.517 -5.228,-4.137 -7.701,-4.863c-3.9,-1.134 -7.41,-0.051 -10.53,3.248c-2.768,2.927 -3.663,6.113 -2.686,9.557c0.977,3.444 3.045,6.658 6.202,9.644c3.034,2.869 6.19,4.594 9.471,5.175c3.28,0.582 6.287,-0.573 9.021,-3.464Zm-26.06,-24.995c3.473,-3.672 7.632,-5.619 12.479,-5.841c4.846,-0.222 9.647,1.915 14.401,6.41c4.594,4.345 7.334,9.052 8.218,14.122c0.885,5.07 -0.896,9.955 -5.341,14.656c-3.707,3.921 -7.977,5.78 -12.809,5.578c-4.833,-0.201 -9.485,-2.416 -13.955,-6.643c-4.789,-4.529 -7.454,-9.35 -7.995,-14.464c-0.54,-5.114 1.128,-9.72 5.002,-13.818Z" style="fill-rule:nonzero;"/><path d="M1866.96,168.715l4.303,-4.55l4.044,3.825c-0.393,-2.925 -0.24,-5.485 0.459,-7.681c0.698,-2.196 1.92,-4.216 3.664,-6.061c3.825,-4.044 7.818,-5.442 11.981,-4.195c2.281,0.679 4.859,2.377 7.732,5.095l18.281,17.285l-4.605,4.87l-17.961,-16.984c-1.738,-1.644 -3.383,-2.712 -4.934,-3.204c-2.579,-0.826 -4.925,-0.121 -7.039,2.114c-1.073,1.135 -1.838,2.176 -2.296,3.121c-0.851,1.682 -1.16,3.573 -0.929,5.673c0.185,1.688 0.666,3.125 1.442,4.312c0.776,1.187 2.095,2.662 3.957,4.423l14.928,14.115l-4.529,4.79l-28.498,-26.948Z" style="fill-rule:nonzero;"/><path d="M1917.87,154.054c1.731,1.368 3.332,2.126 4.804,2.275c2.684,0.253 5.435,-1.11 8.253,-4.091c1.678,-1.774 2.768,-3.699 3.271,-5.777c0.503,-2.078 -0.052,-3.88 -1.666,-5.407c-1.224,-1.157 -2.667,-1.497 -4.329,-1.018c-1.045,0.322 -2.789,1.26 -5.232,2.814l-4.556,2.899c-2.901,1.86 -5.269,3.015 -7.105,3.463c-3.241,0.833 -6.005,0.168 -8.293,-1.996c-2.697,-2.549 -3.96,-5.584 -3.791,-9.103c0.169,-3.519 1.805,-6.92 4.909,-10.202c4.059,-4.292 8.245,-6.197 12.559,-5.713c2.721,0.321 4.986,1.372 6.798,3.152l-4.278,4.523c-1.166,-0.935 -2.511,-1.484 -4.035,-1.649c-2.3,-0.091 -4.732,1.221 -7.299,3.935c-1.711,1.809 -2.661,3.507 -2.85,5.092c-0.188,1.586 0.285,2.915 1.42,3.989c1.242,1.174 2.814,1.501 4.717,0.982c1.114,-0.291 2.494,-0.968 4.139,-2.033l3.766,-2.437c4.088,-2.653 7.076,-4.196 8.963,-4.628c2.986,-0.706 5.791,0.183 8.416,2.666c2.537,2.398 3.818,5.432 3.843,9.101c0.025,3.67 -1.825,7.473 -5.549,11.411c-4.009,4.24 -7.81,6.332 -11.404,6.277c-3.593,-0.055 -6.868,-1.362 -9.824,-3.921l4.353,-4.604Z" style="fill-rule:nonzero;"/></g><g id="Dependencies"><path d="M1875,0l-343.75,0l-500,531.25l343.75,0l500,-531.25Z" style="fill:#ffd4ad;"/><path d="M1298.88,454.278c1.694,-1.791 2.9,-3.44 3.618,-4.945c1.253,-2.712 1.517,-5.655 0.789,-8.83c-0.589,-2.539 -1.899,-5.205 -3.928,-7.998c-1.221,-1.659 -2.461,-3.083 -3.721,-4.274c-4.842,-4.58 -9.513,-7.173 -14.012,-7.781c-4.498,-0.609 -8.769,1.225 -12.811,5.5l-8.882,9.393l30.014,28.382l8.933,-9.447Zm-48.53,-17.916l14.971,-15.832c5.083,-5.375 10.932,-7.741 17.547,-7.097c5.94,0.611 11.598,3.458 16.973,8.541c4.151,3.925 7.165,8.253 9.042,12.984c3.325,8.353 1.817,15.881 -4.524,22.587l-14.92,15.779l-39.089,-36.962Z" style="fill-rule:nonzero;"/><path d="M1307.91,395.429c1.912,-2.023 4.24,-3.534 6.984,-4.535c2.744,-1.001 5.339,-1.285 7.786,-0.852c2.343,0.4 4.623,1.347 6.841,2.839c1.581,0.958 3.809,2.795 6.682,5.513l-19.751,20.887c2.975,2.646 5.941,4.156 8.896,4.531c2.955,0.375 5.699,-0.777 8.231,-3.455c2.366,-2.501 3.428,-5.277 3.187,-8.327c-0.153,-1.757 -0.691,-3.409 -1.615,-4.955l4.453,-4.709c0.93,1.113 1.706,2.629 2.329,4.546c0.624,1.916 0.933,3.695 0.927,5.336c0.044,2.797 -0.701,5.503 -2.234,8.119c-0.807,1.421 -1.898,2.859 -3.273,4.314c-3.355,3.548 -7.489,5.334 -12.401,5.359c-4.913,0.026 -9.693,-2.159 -14.341,-6.554c-4.576,-4.328 -7.119,-9.084 -7.626,-14.268c-0.508,-5.184 1.134,-9.78 4.925,-13.789Zm19.833,4.289c-2.26,-1.767 -4.346,-2.883 -6.259,-3.348c-3.547,-0.868 -6.772,0.233 -9.673,3.302c-2.08,2.199 -3.031,4.795 -2.852,7.786c0.178,2.991 1.45,5.689 3.814,8.092l14.97,-15.832Z" style="fill-rule:nonzero;"/><path d="M1362.63,389.468c2.114,-2.235 2.935,-4.978 2.464,-8.229c-0.471,-3.251 -2.569,-6.637 -6.294,-10.16c-2.271,-2.147 -4.532,-3.664 -6.785,-4.551c-4.314,-1.727 -8.031,-0.941 -11.151,2.359c-3.137,3.317 -3.625,7.156 -1.465,11.517c1.153,2.333 3.096,4.792 5.827,7.375c2.2,2.08 4.382,3.521 6.546,4.324c4.119,1.543 7.738,0.665 10.858,-2.635Zm-36.87,-11.377l4.403,-4.657l3.778,3.573c-0.389,-2.182 -0.401,-4.177 -0.037,-5.983c0.462,-2.621 1.724,-5.022 3.787,-7.204c3.053,-3.228 6.882,-4.799 11.487,-4.712c4.605,0.087 9.205,2.303 13.799,6.647c6.209,5.871 9.109,11.688 8.7,17.45c-0.26,3.652 -1.682,6.843 -4.266,9.575c-2.029,2.146 -4.202,3.502 -6.517,4.068c-1.338,0.348 -3.149,0.433 -5.433,0.256l14.555,13.763l-4.529,4.789l-39.727,-37.565Z" style="fill-rule:nonzero;"/><path d="M1365.23,334.814c1.913,-2.023 4.241,-3.534 6.985,-4.535c2.744,-1 5.339,-1.285 7.786,-0.852c2.343,0.401 4.623,1.347 6.841,2.839c1.581,0.958 3.808,2.795 6.682,5.513l-19.751,20.888c2.975,2.645 5.94,4.155 8.895,4.53c2.955,0.375 5.699,-0.776 8.232,-3.455c2.365,-2.501 3.428,-5.277 3.187,-8.327c-0.153,-1.757 -0.691,-3.409 -1.615,-4.955l4.453,-4.709c0.929,1.114 1.706,2.629 2.329,4.546c0.624,1.916 0.933,3.695 0.927,5.336c0.043,2.797 -0.701,5.503 -2.234,8.119c-0.807,1.422 -1.898,2.86 -3.273,4.314c-3.355,3.548 -7.489,5.335 -12.401,5.36c-4.913,0.025 -9.693,-2.16 -14.341,-6.555c-4.577,-4.328 -7.119,-9.083 -7.626,-14.268c-0.508,-5.184 1.134,-9.78 4.924,-13.789Zm19.834,4.289c-2.26,-1.767 -4.346,-2.883 -6.259,-3.348c-3.547,-0.868 -6.772,0.233 -9.674,3.302c-2.08,2.199 -3.03,4.795 -2.852,7.786c0.179,2.992 1.45,5.689 3.814,8.093l14.971,-15.833Z" style="fill-rule:nonzero;"/><path d="M1383.3,316.978l4.302,-4.55l4.045,3.824c-0.393,-2.925 -0.24,-5.485 0.458,-7.681c0.699,-2.195 1.92,-4.215 3.665,-6.06c3.824,-4.045 7.818,-5.443 11.98,-4.195c2.282,0.679 4.859,2.377 7.733,5.094l18.28,17.286l-4.604,4.869l-17.961,-16.984c-1.739,-1.643 -3.383,-2.711 -4.934,-3.203c-2.579,-0.826 -4.925,-0.122 -7.039,2.113c-1.073,1.136 -1.839,2.176 -2.296,3.121c-0.851,1.682 -1.161,3.573 -0.929,5.674c0.185,1.687 0.666,3.124 1.442,4.311c0.775,1.188 2.095,2.662 3.957,4.423l14.928,14.116l-4.529,4.789l-28.498,-26.947Z" style="fill-rule:nonzero;"/><path d="M1429.41,297.425c3.051,2.885 6.218,4.653 9.5,5.304c3.282,0.651 6.274,-0.452 8.974,-3.308c2.097,-2.217 2.867,-4.941 2.311,-8.173c-0.557,-3.231 -2.618,-6.532 -6.184,-9.904c-3.601,-3.405 -6.962,-5.189 -10.084,-5.352c-3.122,-0.163 -5.706,0.837 -7.752,3.001c-2.282,2.413 -3.209,5.241 -2.781,8.484c0.427,3.244 2.433,6.56 6.016,9.948Zm-8.268,-21.477c2.063,-2.182 4.252,-3.573 6.566,-4.173c1.338,-0.348 3.183,-0.435 5.537,-0.259l-14.396,-13.612l4.353,-4.603l39.222,37.087l-4.076,4.311l-3.965,-3.749c0.699,2.778 0.718,5.299 0.056,7.563c-0.662,2.263 -1.924,4.38 -3.786,6.349c-3.003,3.175 -6.937,4.662 -11.805,4.462c-4.867,-0.201 -9.518,-2.398 -13.952,-6.592c-4.151,-3.925 -6.746,-8.386 -7.784,-13.382c-1.037,-4.997 0.306,-9.464 4.03,-13.402Z" style="fill-rule:nonzero;"/><path d="M1451.2,243.891c1.912,-2.022 4.24,-3.533 6.984,-4.534c2.744,-1.001 5.339,-1.285 7.786,-0.852c2.343,0.4 4.623,1.347 6.841,2.839c1.581,0.958 3.809,2.795 6.682,5.512l-19.751,20.888c2.975,2.646 5.94,4.156 8.895,4.531c2.956,0.375 5.699,-0.777 8.232,-3.455c2.366,-2.502 3.428,-5.277 3.187,-8.327c-0.153,-1.758 -0.691,-3.409 -1.615,-4.955l4.453,-4.71c0.93,1.114 1.706,2.63 2.329,4.546c0.624,1.917 0.933,3.696 0.927,5.337c0.043,2.796 -0.701,5.503 -2.234,8.119c-0.807,1.421 -1.898,2.859 -3.273,4.314c-3.355,3.548 -7.489,5.334 -12.401,5.359c-4.913,0.026 -9.693,-2.159 -14.341,-6.554c-4.576,-4.328 -7.119,-9.084 -7.626,-14.268c-0.508,-5.184 1.134,-9.78 4.925,-13.79Zm19.833,4.29c-2.26,-1.767 -4.346,-2.883 -6.259,-3.348c-3.547,-0.868 -6.772,0.233 -9.674,3.301c-2.079,2.2 -3.03,4.796 -2.852,7.787c0.179,2.991 1.451,5.689 3.815,8.092l14.97,-15.832Z" style="fill-rule:nonzero;"/><path d="M1469.28,226.055l4.302,-4.55l4.045,3.825c-0.393,-2.925 -0.24,-5.485 0.459,-7.681c0.698,-2.196 1.92,-4.216 3.664,-6.061c3.825,-4.044 7.818,-5.442 11.981,-4.195c2.281,0.679 4.858,2.377 7.732,5.095l18.28,17.285l-4.604,4.87l-17.961,-16.984c-1.738,-1.644 -3.383,-2.712 -4.934,-3.204c-2.579,-0.826 -4.925,-0.121 -7.039,2.114c-1.073,1.135 -1.839,2.176 -2.296,3.121c-0.851,1.682 -1.161,3.573 -0.929,5.673c0.185,1.688 0.666,3.125 1.442,4.312c0.775,1.187 2.095,2.662 3.957,4.423l14.928,14.115l-4.529,4.79l-28.498,-26.948Z" style="fill-rule:nonzero;"/><path d="M1507.5,183.979c3.036,-3.211 6.286,-5.085 9.751,-5.623c3.465,-0.537 7.298,0.794 11.497,3.992l-4.403,4.657c-2.024,-1.377 -4.096,-2.109 -6.214,-2.197c-2.118,-0.087 -4.234,0.986 -6.347,3.222c-2.885,3.051 -3.458,6.642 -1.719,10.772c1.128,2.68 3.111,5.362 5.95,8.046c2.856,2.7 5.83,4.37 8.922,5.009c3.091,0.639 5.862,-0.337 8.311,-2.926c1.879,-1.987 2.76,-4.136 2.643,-6.447c-0.116,-2.311 -1.02,-4.686 -2.712,-7.126l4.403,-4.656c3.276,4.105 4.78,8.048 4.515,11.829c-0.266,3.781 -1.967,7.33 -5.104,10.647c-3.522,3.725 -7.693,5.409 -12.513,5.052c-4.82,-0.358 -9.27,-2.466 -13.35,-6.324c-5.002,-4.73 -7.747,-9.627 -8.234,-14.691c-0.487,-5.063 1.048,-9.476 4.604,-13.236Z" style="fill-rule:nonzero;"/><path d="M1523.83,168.626l4.605,-4.869l28.365,26.822l-4.605,4.869l-28.365,-26.822Zm-10.723,-10.139l4.604,-4.87l5.428,5.133l-4.604,4.869l-5.428,-5.132Z" style="fill-rule:nonzero;"/><path d="M1545.73,143.922c1.912,-2.022 4.24,-3.534 6.984,-4.534c2.744,-1.001 5.339,-1.285 7.786,-0.853c2.343,0.401 4.623,1.348 6.841,2.84c1.581,0.957 3.808,2.795 6.682,5.512l-19.751,20.888c2.975,2.646 5.94,4.156 8.895,4.531c2.955,0.375 5.699,-0.777 8.232,-3.456c2.365,-2.501 3.428,-5.276 3.187,-8.327c-0.153,-1.757 -0.691,-3.408 -1.615,-4.954l4.453,-4.71c0.929,1.114 1.706,2.629 2.329,4.546c0.624,1.917 0.933,3.696 0.927,5.337c0.043,2.796 -0.701,5.502 -2.234,8.119c-0.807,1.421 -1.898,2.859 -3.273,4.314c-3.355,3.548 -7.489,5.334 -12.401,5.359c-4.913,0.025 -9.693,-2.16 -14.341,-6.554c-4.576,-4.328 -7.119,-9.084 -7.626,-14.268c-0.508,-5.184 1.134,-9.781 4.925,-13.79Zm19.833,4.29c-2.26,-1.768 -4.346,-2.884 -6.259,-3.348c-3.547,-0.868 -6.772,0.232 -9.674,3.301c-2.08,2.2 -3.03,4.795 -2.852,7.787c0.179,2.991 1.45,5.689 3.815,8.092l14.97,-15.832Z" style="fill-rule:nonzero;"/><path d="M1586.06,141.732c1.731,1.368 3.333,2.126 4.805,2.275c2.684,0.253 5.435,-1.11 8.253,-4.09c1.677,-1.774 2.767,-3.7 3.271,-5.778c0.503,-2.078 -0.053,-3.88 -1.667,-5.407c-1.224,-1.157 -2.667,-1.497 -4.329,-1.018c-1.044,0.322 -2.788,1.261 -5.232,2.814l-4.556,2.899c-2.901,1.86 -5.269,3.015 -7.104,3.463c-3.241,0.833 -6.006,0.168 -8.294,-1.996c-2.696,-2.549 -3.96,-5.584 -3.791,-9.103c0.17,-3.519 1.806,-6.92 4.909,-10.201c4.059,-4.293 8.246,-6.198 12.56,-5.714c2.72,0.321 4.986,1.372 6.797,3.152l-4.277,4.523c-1.166,-0.934 -2.511,-1.484 -4.036,-1.649c-2.299,-0.091 -4.732,1.221 -7.299,3.935c-1.71,1.809 -2.66,3.507 -2.849,5.092c-0.189,1.586 0.284,2.915 1.42,3.989c1.241,1.174 2.813,1.501 4.716,0.982c1.114,-0.29 2.494,-0.968 4.14,-2.033l3.766,-2.437c4.087,-2.653 7.075,-4.196 8.963,-4.628c2.985,-0.706 5.79,0.183 8.416,2.666c2.536,2.398 3.817,5.432 3.842,9.102c0.025,3.669 -1.824,7.472 -5.548,11.41c-4.009,4.24 -7.811,6.333 -11.404,6.278c-3.594,-0.055 -6.869,-1.363 -9.824,-3.922l4.352,-4.604Z" style="fill-rule:nonzero;"/></g><g id="Services"><path d="M1531.25,0l-343.75,0l-500,531.25l343.75,0l500,-531.25Z" style="fill:#afdccd;"/><path d="M1016.15,372.113c2.335,1.973 4.63,3.152 6.886,3.538c4.251,0.693 8.473,-1.178 12.666,-5.613c1.879,-1.987 3.306,-4.064 4.282,-6.233c1.886,-4.198 1.409,-7.638 -1.429,-10.322c-2.129,-2.013 -4.274,-2.782 -6.437,-2.307c-2.162,0.509 -4.93,1.891 -8.303,4.144l-6.205,4.163c-4.051,2.721 -7.226,4.355 -9.525,4.903c-3.981,0.94 -7.594,-0.124 -10.84,-3.194c-3.513,-3.321 -5.246,-7.262 -5.201,-11.823c0.045,-4.56 2.173,-9.067 6.383,-13.519c3.875,-4.098 8.156,-6.644 12.843,-7.639c4.687,-0.994 9.203,0.563 13.549,4.673l-4.705,4.976c-2.345,-1.714 -4.487,-2.664 -6.426,-2.852c-3.567,-0.314 -7.178,1.462 -10.835,5.329c-2.952,3.122 -4.418,5.987 -4.397,8.594c0.021,2.607 0.901,4.733 2.64,6.376c1.915,1.812 4.072,2.339 6.468,1.581c1.558,-0.51 4.506,-2.207 8.847,-5.092l6.434,-4.298c3.102,-2.073 5.856,-3.333 8.261,-3.78c4.176,-0.756 8.002,0.51 11.479,3.797c4.328,4.093 5.935,8.595 4.82,13.505c-1.114,4.91 -3.643,9.449 -7.585,13.618c-4.596,4.86 -9.436,7.491 -14.519,7.892c-5.066,0.418 -9.684,-1.395 -13.856,-5.441l4.705,-4.976Z" style="fill-rule:nonzero;"/><path d="M1041.34,312.371c1.912,-2.022 4.24,-3.534 6.984,-4.534c2.744,-1.001 5.34,-1.285 7.787,-0.853c2.342,0.401 4.623,1.347 6.84,2.84c1.581,0.957 3.809,2.795 6.683,5.512l-19.752,20.888c2.976,2.645 5.941,4.156 8.896,4.531c2.955,0.375 5.699,-0.777 8.232,-3.456c2.365,-2.501 3.427,-5.277 3.186,-8.327c-0.152,-1.757 -0.691,-3.409 -1.615,-4.954l4.454,-4.71c0.929,1.114 1.705,2.629 2.329,4.546c0.623,1.917 0.932,3.696 0.926,5.336c0.044,2.797 -0.701,5.503 -2.234,8.119c-0.806,1.422 -1.897,2.86 -3.273,4.314c-3.355,3.548 -7.488,5.335 -12.401,5.36c-4.913,0.025 -9.693,-2.16 -14.34,-6.555c-4.577,-4.327 -7.119,-9.083 -7.627,-14.267c-0.508,-5.184 1.134,-9.781 4.925,-13.79Zm19.834,4.29c-2.26,-1.768 -4.347,-2.884 -6.259,-3.348c-3.548,-0.868 -6.772,0.232 -9.674,3.301c-2.08,2.2 -3.031,4.795 -2.852,7.787c0.178,2.991 1.45,5.688 3.814,8.092l14.971,-15.832Z" style="fill-rule:nonzero;"/><path d="M1059.54,294.402l4.303,-4.55l4.922,4.655c-0.605,-1.279 -0.908,-3.295 -0.907,-6.05c0,-2.754 0.898,-5.081 2.693,-6.979c0.084,-0.089 0.235,-0.231 0.454,-0.427c0.219,-0.196 0.599,-0.526 1.138,-0.99l5.056,4.78c-0.322,0.234 -0.604,0.462 -0.849,0.685c-0.244,0.222 -0.5,0.476 -0.769,0.759c-2.281,2.413 -3.258,5.001 -2.93,7.763c0.328,2.763 1.503,5.1 3.525,7.013l16.391,15.499l-4.529,4.789l-28.498,-26.947Z" style="fill-rule:nonzero;"/><path d="M1078.79,274.046l30.399,14.33l-15.68,-29.896l4.957,-5.242l18.333,37.698l-4.831,5.108l-38.436,-16.437l5.258,-5.561Z" style="fill-rule:nonzero;"/><path d="M1102.48,249.266l4.604,-4.869l28.365,26.821l-4.604,4.87l-28.365,-26.822Zm-10.723,-10.14l4.604,-4.869l5.428,5.133l-4.604,4.869l-5.428,-5.133Z" style="fill-rule:nonzero;"/><path d="M1123.36,225.264c3.036,-3.211 6.286,-5.085 9.751,-5.622c3.465,-0.537 7.298,0.793 11.497,3.992l-4.403,4.656c-2.025,-1.377 -4.096,-2.109 -6.214,-2.196c-2.118,-0.088 -4.234,0.986 -6.347,3.221c-2.885,3.051 -3.458,6.642 -1.72,10.773c1.129,2.68 3.112,5.361 5.951,8.045c2.856,2.701 5.83,4.371 8.921,5.009c3.092,0.639 5.863,-0.336 8.312,-2.926c1.879,-1.987 2.76,-4.136 2.643,-6.447c-0.116,-2.311 -1.02,-4.686 -2.712,-7.125l4.403,-4.657c3.276,4.105 4.78,8.048 4.515,11.829c-0.266,3.781 -1.967,7.33 -5.104,10.647c-3.522,3.725 -7.693,5.409 -12.513,5.052c-4.82,-0.357 -9.27,-2.465 -13.35,-6.323c-5.002,-4.73 -7.747,-9.628 -8.234,-14.691c-0.487,-5.064 1.048,-9.476 4.604,-13.237Z" style="fill-rule:nonzero;"/><path d="M1150.14,197.315c1.912,-2.023 4.241,-3.534 6.984,-4.535c2.744,-1.001 5.34,-1.285 7.787,-0.852c2.343,0.4 4.623,1.347 6.841,2.839c1.581,0.958 3.808,2.795 6.682,5.513l-19.752,20.887c2.976,2.646 5.941,4.156 8.896,4.531c2.955,0.375 5.699,-0.777 8.232,-3.455c2.365,-2.501 3.427,-5.277 3.187,-8.327c-0.153,-1.757 -0.692,-3.409 -1.616,-4.955l4.454,-4.709c0.929,1.113 1.705,2.629 2.329,4.546c0.623,1.916 0.932,3.695 0.926,5.336c0.044,2.797 -0.701,5.503 -2.234,8.119c-0.806,1.421 -1.897,2.859 -3.272,4.314c-3.355,3.548 -7.489,5.334 -12.402,5.36c-4.912,0.025 -9.692,-2.16 -14.34,-6.555c-4.577,-4.328 -7.119,-9.084 -7.627,-14.268c-0.507,-5.184 1.134,-9.78 4.925,-13.789Zm19.834,4.289c-2.26,-1.767 -4.346,-2.883 -6.259,-3.348c-3.547,-0.868 -6.772,0.233 -9.674,3.302c-2.08,2.199 -3.031,4.795 -2.852,7.786c0.179,2.991 1.45,5.689 3.814,8.092l14.971,-15.832Z" style="fill-rule:nonzero;"/><path d="M1190.46,195.125c1.731,1.367 3.332,2.126 4.804,2.275c2.684,0.253 5.435,-1.111 8.253,-4.091c1.678,-1.774 2.768,-3.7 3.271,-5.778c0.503,-2.078 -0.052,-3.88 -1.666,-5.406c-1.224,-1.158 -2.667,-1.497 -4.329,-1.019c-1.045,0.323 -2.789,1.261 -5.232,2.815l-4.556,2.899c-2.901,1.86 -5.269,3.014 -7.105,3.463c-3.241,0.833 -6.005,0.168 -8.293,-1.996c-2.697,-2.55 -3.96,-5.584 -3.791,-9.104c0.169,-3.519 1.805,-6.919 4.909,-10.201c4.059,-4.293 8.246,-6.197 12.559,-5.714c2.721,0.322 4.987,1.372 6.798,3.152l-4.278,4.524c-1.165,-0.935 -2.511,-1.485 -4.035,-1.649c-2.299,-0.091 -4.732,1.22 -7.299,3.934c-1.711,1.81 -2.661,3.507 -2.849,5.093c-0.189,1.585 0.284,2.915 1.419,3.988c1.242,1.174 2.814,1.502 4.717,0.982c1.114,-0.29 2.494,-0.968 4.139,-2.033l3.766,-2.436c4.088,-2.653 7.076,-4.196 8.963,-4.629c2.986,-0.705 5.791,0.184 8.416,2.666c2.537,2.399 3.818,5.433 3.843,9.102c0.025,3.669 -1.825,7.473 -5.549,11.411c-4.009,4.24 -7.81,6.332 -11.404,6.277c-3.593,-0.055 -6.868,-1.362 -9.824,-3.922l4.353,-4.603Z" style="fill-rule:nonzero;"/></g><g id="Components"><path d="M1187.5,0l-343.75,0l-500,531.25l343.75,0l500,-531.25Z" style="fill:#bcd5f4;"/><path d="M592.095,403.003c4.68,-4.95 9.615,-7.557 14.806,-7.823c5.191,-0.266 9.587,1.018 13.19,3.853l-4.881,5.163c-3.073,-1.797 -6.171,-2.518 -9.296,-2.163c-3.125,0.355 -6.18,2.112 -9.166,5.269c-3.64,3.85 -5.227,8.238 -4.761,13.164c0.466,4.926 3.493,10.031 9.081,15.315c4.577,4.327 9.299,6.769 14.168,7.323c4.868,0.555 9.307,-1.288 13.316,-5.527c3.69,-3.903 5.001,-8.292 3.932,-13.166c-0.556,-2.575 -1.868,-5.345 -3.937,-8.309l4.881,-5.163c3.68,4.353 5.687,9.141 6.023,14.365c0.418,6.274 -1.865,12.046 -6.847,17.315c-4.294,4.541 -9.275,7.055 -14.943,7.541c-7.478,0.624 -15.013,-2.654 -22.605,-9.833c-5.766,-5.452 -9.051,-11.448 -9.855,-17.988c-0.889,-7.09 1.409,-13.536 6.894,-19.336Z" style="fill-rule:nonzero;"/><path d="M660.889,404.498c3.002,-3.175 3.86,-6.489 2.571,-9.942c-1.288,-3.452 -3.404,-6.571 -6.349,-9.355c-2.661,-2.516 -5.228,-4.137 -7.7,-4.862c-3.9,-1.134 -7.411,-0.052 -10.53,3.248c-2.768,2.927 -3.664,6.112 -2.686,9.556c0.977,3.444 3.044,6.659 6.202,9.645c3.033,2.868 6.19,4.593 9.47,5.175c3.28,0.582 6.288,-0.573 9.022,-3.465Zm-26.06,-24.995c3.472,-3.672 7.631,-5.619 12.478,-5.841c4.847,-0.222 9.647,1.915 14.401,6.411c4.595,4.344 7.334,9.051 8.219,14.121c0.884,5.07 -0.896,9.956 -5.342,14.657c-3.707,3.92 -7.976,5.779 -12.809,5.578c-4.833,-0.202 -9.484,-2.416 -13.954,-6.643c-4.79,-4.529 -7.455,-9.351 -7.995,-14.465c-0.54,-5.114 1.127,-9.72 5.002,-13.818Z" style="fill-rule:nonzero;"/><path d="M653.442,361.471l4.479,-4.737l4.045,3.825c-0.328,-2.461 -0.375,-4.454 -0.142,-5.98c0.411,-2.602 1.564,-4.905 3.46,-6.91c2.147,-2.271 4.433,-3.569 6.859,-3.896c1.377,-0.177 2.988,0.003 4.834,0.538c-0.52,-2.507 -0.468,-4.827 0.155,-6.96c0.622,-2.133 1.781,-4.095 3.475,-5.887c3.623,-3.831 7.472,-5.131 11.548,-3.898c2.195,0.664 4.551,2.187 7.07,4.569l18.972,17.94l-4.705,4.976l-19.797,-18.72c-1.898,-1.795 -3.65,-2.553 -5.257,-2.275c-1.607,0.278 -3.056,1.1 -4.348,2.466c-1.778,1.88 -2.679,4.094 -2.703,6.642c-0.023,2.548 1.437,5.215 4.382,7.999l16.577,15.676l-4.604,4.869l-18.6,-17.588c-1.934,-1.828 -3.562,-2.931 -4.885,-3.308c-2.018,-0.531 -3.967,0.197 -5.845,2.184c-1.711,1.809 -2.566,4.117 -2.566,6.923c0.001,2.807 1.838,5.946 5.51,9.418l15.113,14.292l-4.529,4.789l-28.498,-26.947Z" style="fill-rule:nonzero;"/><path d="M733.018,327.952c2.114,-2.235 2.935,-4.978 2.464,-8.229c-0.471,-3.251 -2.569,-6.638 -6.294,-10.16c-2.27,-2.147 -4.532,-3.664 -6.785,-4.551c-4.314,-1.727 -8.031,-0.941 -11.151,2.358c-3.136,3.318 -3.625,7.157 -1.465,11.517c1.153,2.334 3.096,4.792 5.828,7.376c2.199,2.08 4.381,3.521 6.545,4.324c4.119,1.543 7.738,0.664 10.858,-2.635Zm-36.87,-11.377l4.403,-4.657l3.779,3.573c-0.39,-2.183 -0.402,-4.177 -0.038,-5.983c0.462,-2.621 1.724,-5.022 3.788,-7.204c3.053,-3.229 6.881,-4.799 11.486,-4.712c4.605,0.087 9.205,2.303 13.799,6.647c6.209,5.871 9.109,11.688 8.7,17.45c-0.26,3.651 -1.682,6.843 -4.265,9.575c-2.03,2.146 -4.203,3.502 -6.518,4.068c-1.338,0.348 -3.149,0.433 -5.433,0.255l14.555,13.763l-4.529,4.79l-39.727,-37.565Z" style="fill-rule:nonzero;"/><path d="M761.13,298.489c3.003,-3.176 3.86,-6.489 2.572,-9.942c-1.288,-3.452 -3.405,-6.571 -6.349,-9.355c-2.661,-2.517 -5.228,-4.137 -7.701,-4.863c-3.9,-1.134 -7.41,-0.051 -10.53,3.248c-2.768,2.927 -3.663,6.113 -2.686,9.557c0.977,3.443 3.044,6.658 6.202,9.644c3.033,2.868 6.19,4.594 9.471,5.175c3.28,0.582 6.287,-0.573 9.021,-3.464Zm-26.06,-24.995c3.472,-3.672 7.632,-5.619 12.479,-5.841c4.846,-0.222 9.647,1.915 14.401,6.41c4.594,4.345 7.334,9.052 8.218,14.122c0.884,5.07 -0.896,9.955 -5.341,14.656c-3.707,3.92 -7.977,5.78 -12.81,5.578c-4.832,-0.201 -9.484,-2.416 -13.954,-6.643c-4.79,-4.529 -7.454,-9.35 -7.995,-14.464c-0.54,-5.115 1.127,-9.72 5.002,-13.818Z" style="fill-rule:nonzero;"/><path d="M753.684,255.461l4.302,-4.55l4.045,3.825c-0.393,-2.925 -0.24,-5.485 0.459,-7.681c0.698,-2.196 1.92,-4.216 3.664,-6.061c3.825,-4.044 7.818,-5.443 11.981,-4.195c2.281,0.679 4.858,2.377 7.732,5.095l18.28,17.285l-4.604,4.87l-17.961,-16.984c-1.738,-1.644 -3.383,-2.712 -4.934,-3.204c-2.579,-0.826 -4.925,-0.121 -7.039,2.114c-1.073,1.135 -1.839,2.176 -2.296,3.121c-0.851,1.682 -1.16,3.573 -0.929,5.673c0.185,1.688 0.666,3.125 1.442,4.312c0.776,1.187 2.095,2.662 3.957,4.423l14.928,14.115l-4.529,4.79l-28.498,-26.948Z" style="fill-rule:nonzero;"/><path d="M792.925,212.683c1.913,-2.023 4.241,-3.534 6.985,-4.535c2.744,-1.001 5.339,-1.285 7.786,-0.852c2.343,0.4 4.623,1.347 6.841,2.839c1.581,0.958 3.808,2.795 6.682,5.513l-19.751,20.887c2.975,2.646 5.94,4.156 8.895,4.531c2.955,0.375 5.699,-0.777 8.232,-3.455c2.365,-2.501 3.428,-5.277 3.187,-8.327c-0.153,-1.757 -0.691,-3.409 -1.615,-4.955l4.453,-4.709c0.929,1.113 1.706,2.629 2.329,4.546c0.624,1.916 0.933,3.695 0.927,5.336c0.043,2.797 -0.701,5.503 -2.234,8.119c-0.807,1.421 -1.898,2.859 -3.273,4.314c-3.355,3.548 -7.489,5.334 -12.401,5.359c-4.913,0.026 -9.693,-2.159 -14.341,-6.554c-4.577,-4.328 -7.119,-9.084 -7.626,-14.268c-0.508,-5.184 1.134,-9.78 4.924,-13.789Zm19.834,4.289c-2.26,-1.767 -4.346,-2.883 -6.259,-3.348c-3.547,-0.868 -6.772,0.233 -9.674,3.302c-2.08,2.199 -3.03,4.795 -2.852,7.786c0.179,2.991 1.45,5.689 3.814,8.092l14.971,-15.832Z" style="fill-rule:nonzero;"/><path d="M811.001,194.847l4.302,-4.551l4.045,3.825c-0.393,-2.925 -0.24,-5.485 0.458,-7.681c0.699,-2.195 1.92,-4.216 3.665,-6.061c3.824,-4.044 7.818,-5.442 11.98,-4.194c2.282,0.678 4.859,2.376 7.733,5.094l18.28,17.285l-4.604,4.87l-17.961,-16.984c-1.739,-1.644 -3.383,-2.712 -4.934,-3.204c-2.579,-0.825 -4.925,-0.121 -7.039,2.114c-1.073,1.136 -1.839,2.176 -2.296,3.121c-0.851,1.682 -1.161,3.573 -0.929,5.674c0.185,1.687 0.666,3.124 1.442,4.311c0.775,1.188 2.095,2.662 3.957,4.423l14.928,14.115l-4.529,4.79l-28.498,-26.947Z" style="fill-rule:nonzero;"/><path d="M832.609,156.058l4.579,-4.843l7.956,7.523l4.303,-4.55l3.911,3.699l-4.302,4.55l18.599,17.588c0.994,0.939 1.978,1.231 2.952,0.876c0.547,-0.188 1.232,-0.717 2.054,-1.586c0.218,-0.231 0.448,-0.483 0.691,-0.758c0.243,-0.274 0.514,-0.606 0.814,-0.994l3.779,3.573c-0.361,0.701 -0.786,1.382 -1.277,2.043c-0.491,0.661 -1.064,1.338 -1.718,2.03c-2.114,2.235 -4.12,3.211 -6.019,2.927c-1.899,-0.284 -3.762,-1.289 -5.589,-3.017l-18.866,-17.839l-3.648,3.858l-3.911,-3.699l3.648,-3.858l-7.956,-7.523Z" style="fill-rule:nonzero;"/><path d="M876.225,165.045c1.731,1.368 3.333,2.126 4.805,2.275c2.684,0.253 5.435,-1.111 8.253,-4.091c1.677,-1.774 2.767,-3.7 3.27,-5.778c0.504,-2.077 -0.052,-3.88 -1.666,-5.406c-1.224,-1.157 -2.667,-1.497 -4.329,-1.019c-1.044,0.323 -2.788,1.261 -5.232,2.815l-4.556,2.899c-2.901,1.86 -5.269,3.014 -7.105,3.463c-3.24,0.833 -6.005,0.168 -8.293,-1.996c-2.697,-2.55 -3.96,-5.584 -3.791,-9.103c0.169,-3.52 1.806,-6.92 4.909,-10.202c4.059,-4.293 8.246,-6.197 12.56,-5.713c2.72,0.321 4.986,1.371 6.797,3.151l-4.277,4.524c-1.166,-0.935 -2.511,-1.484 -4.036,-1.649c-2.299,-0.091 -4.732,1.22 -7.299,3.934c-1.711,1.81 -2.66,3.507 -2.849,5.093c-0.189,1.585 0.284,2.915 1.42,3.988c1.241,1.175 2.813,1.502 4.716,0.982c1.114,-0.29 2.494,-0.967 4.14,-2.032l3.765,-2.437c4.088,-2.653 7.076,-4.196 8.964,-4.629c2.985,-0.705 5.79,0.184 8.416,2.666c2.536,2.399 3.817,5.433 3.842,9.102c0.025,3.669 -1.824,7.473 -5.548,11.411c-4.009,4.24 -7.811,6.332 -11.404,6.277c-3.594,-0.055 -6.869,-1.362 -9.824,-3.922l4.352,-4.603Z" style="fill-rule:nonzero;"/></g><g id="Metadata"><path d="M843.75,-0l-343.75,-0l-500,531.25l343.75,-0l500,-531.25Z" style="fill:#cfb7e0;"/><path d="M280.983,367.336l7.171,-7.583l43.666,20.021l-22.506,-42.399l7.096,-7.504l39.088,36.962l-4.755,5.029l-23.07,-21.815c-0.799,-0.755 -2.103,-2.022 -3.915,-3.802c-1.811,-1.78 -3.772,-3.668 -5.883,-5.664l22.426,42.323l-4.957,5.242l-43.586,-19.945l1.197,1.132c0.958,0.906 2.438,2.263 4.44,4.072c2.002,1.81 3.465,3.15 4.387,4.023l23.07,21.814l-4.781,5.056l-39.088,-36.962Z" style="fill-rule:nonzero;"/><path d="M344.603,319.99c1.912,-2.022 4.24,-3.534 6.984,-4.535c2.744,-1 5.34,-1.284 7.787,-0.852c2.342,0.401 4.623,1.347 6.84,2.84c1.582,0.957 3.809,2.795 6.683,5.512l-19.752,20.888c2.976,2.645 5.941,4.156 8.896,4.531c2.955,0.375 5.699,-0.777 8.232,-3.456c2.365,-2.501 3.427,-5.277 3.186,-8.327c-0.152,-1.757 -0.691,-3.409 -1.615,-4.954l4.454,-4.71c0.929,1.114 1.705,2.629 2.329,4.546c0.623,1.917 0.932,3.696 0.926,5.336c0.044,2.797 -0.701,5.503 -2.234,8.119c-0.806,1.422 -1.897,2.86 -3.273,4.314c-3.354,3.548 -7.488,5.335 -12.401,5.36c-4.912,0.025 -9.693,-2.16 -14.34,-6.555c-4.577,-4.327 -7.119,-9.083 -7.627,-14.267c-0.507,-5.184 1.134,-9.781 4.925,-13.79Zm19.834,4.29c-2.26,-1.768 -4.347,-2.884 -6.259,-3.349c-3.548,-0.867 -6.772,0.233 -9.674,3.302c-2.08,2.2 -3.031,4.795 -2.852,7.786c0.179,2.992 1.45,5.689 3.814,8.093l14.971,-15.832Z" style="fill-rule:nonzero;"/><path d="M355.628,293.673l4.579,-4.843l7.956,7.523l4.303,-4.55l3.911,3.699l-4.302,4.55l18.599,17.587c0.994,0.94 1.978,1.232 2.952,0.876c0.548,-0.188 1.232,-0.716 2.054,-1.586c0.218,-0.23 0.449,-0.483 0.691,-0.757c0.243,-0.275 0.514,-0.606 0.814,-0.994l3.779,3.573c-0.36,0.7 -0.786,1.382 -1.277,2.043c-0.491,0.661 -1.064,1.338 -1.718,2.03c-2.113,2.235 -4.12,3.211 -6.019,2.927c-1.899,-0.284 -3.762,-1.289 -5.589,-3.017l-18.865,-17.839l-3.649,3.858l-3.911,-3.699l3.648,-3.858l-7.956,-7.523Z" style="fill-rule:nonzero;"/><path d="M401.382,303.118c1.383,1.308 2.952,1.834 4.707,1.578c1.754,-0.256 3.285,-1.076 4.594,-2.46c1.593,-1.685 2.746,-3.686 3.459,-6.003c1.221,-3.885 0.359,-7.22 -2.586,-10.005l-3.858,-3.648c-0.181,0.938 -0.583,1.985 -1.207,3.142c-0.624,1.158 -1.302,2.23 -2.035,3.218l-2.37,3.252c-1.413,1.957 -2.282,3.604 -2.607,4.943c-0.559,2.261 0.075,4.255 1.903,5.983Zm1.284,-20.76c0.898,-1.234 1.133,-2.406 0.705,-3.517c-0.225,-0.615 -0.736,-1.301 -1.534,-2.055c-1.632,-1.544 -3.366,-2.082 -5.2,-1.616c-1.835,0.465 -3.776,1.78 -5.822,3.945c-2.366,2.501 -3.369,4.912 -3.01,7.234c0.191,1.289 0.939,2.719 2.244,4.289l-4.227,4.47c-3.429,-3.41 -4.795,-6.86 -4.098,-10.351c0.697,-3.491 2.413,-6.682 5.147,-9.573c3.17,-3.353 6.383,-5.472 9.64,-6.358c3.24,-0.867 6.208,-0.027 8.904,2.523l16.418,15.524c0.496,0.47 0.992,0.746 1.487,0.827c0.494,0.081 1.052,-0.207 1.672,-0.863c0.201,-0.213 0.415,-0.465 0.64,-0.756c0.225,-0.291 0.453,-0.613 0.685,-0.965l3.539,3.346c-0.492,0.947 -0.895,1.64 -1.211,2.081c-0.316,0.44 -0.793,0.998 -1.43,1.672c-1.56,1.65 -3.278,2.293 -5.153,1.931c-0.99,-0.196 -2.128,-0.752 -3.414,-1.666c0.354,2.184 0.138,4.634 -0.65,7.35c-0.787,2.716 -2.221,5.174 -4.301,7.373c-2.499,2.644 -5.344,4.044 -8.535,4.203c-3.19,0.158 -5.992,-0.904 -8.404,-3.185c-2.643,-2.499 -3.912,-5.261 -3.807,-8.287c0.105,-3.025 1.256,-6.036 3.452,-9.033l6.263,-8.543Z" style="fill-rule:nonzero;"/><path d="M423.103,267.461c3.051,2.885 6.218,4.653 9.5,5.304c3.283,0.651 6.274,-0.452 8.975,-3.308c2.096,-2.217 2.866,-4.942 2.31,-8.173c-0.557,-3.231 -2.618,-6.532 -6.184,-9.904c-3.601,-3.405 -6.962,-5.189 -10.084,-5.352c-3.122,-0.164 -5.706,0.837 -7.752,3.001c-2.282,2.413 -3.208,5.241 -2.781,8.484c0.428,3.244 2.433,6.56 6.016,9.948Zm-8.268,-21.477c2.063,-2.182 4.252,-3.573 6.567,-4.173c1.337,-0.349 3.182,-0.435 5.536,-0.259l-14.395,-13.612l4.352,-4.603l39.222,37.087l-4.076,4.311l-3.965,-3.749c0.699,2.778 0.718,5.299 0.056,7.562c-0.662,2.264 -1.924,4.38 -3.786,6.349c-3.002,3.176 -6.937,4.663 -11.804,4.462c-4.867,-0.2 -9.518,-2.397 -13.953,-6.591c-4.151,-3.925 -6.746,-8.386 -7.783,-13.382c-1.038,-4.997 0.305,-9.464 4.029,-13.402Z" style="fill-rule:nonzero;"/><path d="M458.698,242.503c1.384,1.309 2.953,1.835 4.707,1.578c1.755,-0.256 3.286,-1.076 4.595,-2.46c1.593,-1.685 2.746,-3.686 3.458,-6.003c1.222,-3.885 0.36,-7.22 -2.585,-10.005l-3.858,-3.648c-0.181,0.938 -0.584,1.985 -1.208,3.142c-0.623,1.158 -1.302,2.23 -2.034,3.218l-2.37,3.252c-1.413,1.957 -2.282,3.605 -2.608,4.944c-0.558,2.26 0.076,4.254 1.903,5.982Zm1.285,-20.76c0.898,-1.234 1.133,-2.406 0.705,-3.517c-0.225,-0.615 -0.736,-1.3 -1.534,-2.055c-1.632,-1.543 -3.366,-2.082 -5.201,-1.616c-1.835,0.466 -3.775,1.78 -5.822,3.945c-2.365,2.501 -3.368,4.912 -3.01,7.234c0.192,1.29 0.94,2.719 2.245,4.289l-4.227,4.47c-3.429,-3.41 -4.795,-6.86 -4.098,-10.351c0.697,-3.491 2.412,-6.682 5.146,-9.573c3.171,-3.353 6.384,-5.472 9.641,-6.358c3.24,-0.867 6.208,-0.026 8.904,2.523l16.418,15.525c0.496,0.469 0.992,0.745 1.486,0.826c0.495,0.081 1.052,-0.207 1.673,-0.863c0.201,-0.213 0.414,-0.465 0.639,-0.756c0.225,-0.291 0.454,-0.613 0.686,-0.965l3.539,3.347c-0.492,0.946 -0.896,1.639 -1.211,2.08c-0.316,0.441 -0.793,0.998 -1.43,1.672c-1.56,1.65 -3.278,2.294 -5.153,1.932c-0.99,-0.197 -2.128,-0.753 -3.414,-1.666c0.354,2.183 0.138,4.633 -0.65,7.349c-0.787,2.716 -2.221,5.174 -4.301,7.374c-2.499,2.643 -5.344,4.043 -8.535,4.202c-3.19,0.158 -5.992,-0.903 -8.404,-3.185c-2.644,-2.499 -3.912,-5.261 -3.807,-8.287c0.105,-3.025 1.256,-6.036 3.452,-9.033l6.263,-8.543Z" style="fill-rule:nonzero;"/><path d="M455.92,187.61l4.579,-4.843l7.956,7.524l4.303,-4.551l3.911,3.699l-4.302,4.55l18.599,17.588c0.994,0.939 1.978,1.231 2.952,0.876c0.547,-0.188 1.232,-0.717 2.054,-1.586c0.218,-0.231 0.448,-0.483 0.691,-0.758c0.243,-0.274 0.514,-0.606 0.814,-0.994l3.779,3.573c-0.361,0.701 -0.786,1.382 -1.277,2.043c-0.491,0.662 -1.064,1.338 -1.718,2.03c-2.114,2.235 -4.12,3.211 -6.019,2.927c-1.899,-0.283 -3.762,-1.289 -5.589,-3.017l-18.866,-17.839l-3.648,3.858l-3.911,-3.698l3.648,-3.859l-7.956,-7.523Z" style="fill-rule:nonzero;"/><path d="M501.673,197.055c1.384,1.309 2.953,1.835 4.707,1.578c1.755,-0.256 3.286,-1.076 4.595,-2.459c1.593,-1.686 2.746,-3.687 3.458,-6.004c1.222,-3.885 0.36,-7.22 -2.585,-10.004l-3.858,-3.649c-0.181,0.938 -0.584,1.985 -1.208,3.143c-0.623,1.157 -1.302,2.229 -2.034,3.217l-2.37,3.253c-1.413,1.956 -2.282,3.604 -2.608,4.943c-0.558,2.26 0.076,4.255 1.903,5.982Zm1.285,-20.76c0.898,-1.234 1.133,-2.406 0.705,-3.517c-0.225,-0.615 -0.736,-1.3 -1.534,-2.055c-1.632,-1.543 -3.366,-2.082 -5.201,-1.616c-1.835,0.466 -3.775,1.781 -5.822,3.945c-2.365,2.501 -3.368,4.912 -3.01,7.234c0.192,1.29 0.94,2.72 2.245,4.289l-4.227,4.47c-3.429,-3.41 -4.795,-6.86 -4.098,-10.351c0.697,-3.49 2.412,-6.682 5.146,-9.573c3.171,-3.353 6.384,-5.472 9.641,-6.357c3.24,-0.868 6.208,-0.027 8.904,2.522l16.418,15.525c0.496,0.469 0.992,0.745 1.486,0.826c0.495,0.081 1.052,-0.206 1.673,-0.863c0.201,-0.213 0.414,-0.465 0.639,-0.756c0.225,-0.291 0.454,-0.613 0.686,-0.965l3.539,3.347c-0.492,0.946 -0.896,1.64 -1.211,2.08c-0.316,0.441 -0.793,0.998 -1.43,1.672c-1.56,1.65 -3.278,2.294 -5.153,1.932c-0.99,-0.197 -2.128,-0.752 -3.414,-1.666c0.354,2.183 0.138,4.633 -0.65,7.349c-0.787,2.716 -2.221,5.174 -4.301,7.374c-2.499,2.643 -5.344,4.044 -8.535,4.202c-3.19,0.158 -5.992,-0.903 -8.404,-3.185c-2.644,-2.499 -3.912,-5.261 -3.807,-8.286c0.105,-3.026 1.256,-6.037 3.452,-9.034l6.263,-8.543Z" style="fill-rule:nonzero;"/></g><g id="Seperators"><path d="M2401.95,531.315l499.237,-531.315l2.186,0l-499.878,531.25l-1.545,0.065Z" style="fill:#232323;"/><path d="M3087.5,531.315l499.237,-531.315l2.186,0l-499.878,531.25l-1.545,0.065Z" style="fill:#232323;"/><path d="M2745.29,531.315l499.237,-531.315l2.185,0l-499.878,531.25l-1.544,0.065Z" style="fill:#232323;"/><path d="M1719.47,531.315l499.238,-531.315l2.185,0l-499.878,531.25l-1.545,0.065Z" style="fill:#232323;"/><path d="M2059.55,531.315l499.237,-531.315l2.186,0l-499.878,531.25l-1.545,0.065Z" style="fill:#232323;"/><path d="M1374.94,531.315l499.238,-531.315l2.185,0l-499.878,531.25l-1.545,0.065Z" style="fill:#232323;"/><path d="M1031.19,531.315l499.238,-531.315l2.185,0l-499.878,531.25l-1.545,0.065Z" style="fill:#232323;"/><path d="M343.689,531.315l499.238,-531.315l2.185,0l-499.878,531.25l-1.545,0.065Z" style="fill:#232323;"/><path d="M687.439,531.315l499.238,-531.315l2.185,0l-499.878,531.25l-1.545,0.065Z" style="fill:#232323;"/></g></svg>