<?xml version="1.0" encoding="UTF-8" standalone="no"?>
<!DOCTYPE svg PUBLIC "-//W3C//DTD SVG 1.1//EN" "http://www.w3.org/Graphics/SVG/1.1/DTD/svg11.dtd">
<svg width="100%" height="100%" viewBox="0 0 970 80" version="1.1" xmlns="http://www.w3.org/2000/svg" xmlns:xlink="http://www.w3.org/1999/xlink" xml:space="preserve" xmlns:serif="http://www.serif.com/" style="fill-rule:evenodd;clip-rule:evenodd;stroke-linejoin:round;stroke-miterlimit:2;">
    <g id="Data" transform="matrix(1,0,0,1,-100,-370.234)">
        <g transform="matrix(0.8545,0,0,1.01705,69.4127,283.647)">
            <rect x="35.796" y="85.135" width="175.541" height="78.659" style="fill:rgb(186,231,193);"/>
        </g>
        <g transform="matrix(4.67127,0,0,1.01705,82.7894,283.647)">
            <rect x="35.796" y="85.135" width="175.541" height="78.659" style="fill:rgb(227,245,230);"/>
        </g>
        <g transform="matrix(1,0,0,1,34.7333,337.3)">
            <g transform="matrix(16,0,0,16,120.355,78.8299)">
                <path d="M0.114,-0.7L0.399,-0.7C0.473,-0.7 0.538,-0.685 0.595,-0.656C0.652,-0.626 0.696,-0.584 0.727,-0.532C0.758,-0.478 0.774,-0.418 0.774,-0.35C0.774,-0.282 0.758,-0.222 0.727,-0.169C0.696,-0.116 0.652,-0.074 0.595,-0.045C0.538,-0.015 0.473,-0 0.399,-0L0.114,-0L0.114,-0.7ZM0.395,-0.064C0.456,-0.064 0.51,-0.076 0.556,-0.101C0.602,-0.125 0.638,-0.159 0.663,-0.202C0.688,-0.245 0.701,-0.294 0.701,-0.35C0.701,-0.406 0.688,-0.456 0.663,-0.499C0.638,-0.542 0.602,-0.575 0.556,-0.6C0.51,-0.624 0.456,-0.636 0.395,-0.636L0.188,-0.636L0.188,-0.064L0.395,-0.064Z" style="fill-rule:nonzero;"/>
            </g>
            <g transform="matrix(16,0,0,16,133.571,78.8299)">
                <path d="M0.283,-0.53C0.352,-0.53 0.404,-0.513 0.441,-0.479C0.478,-0.444 0.496,-0.393 0.496,-0.326L0.496,-0L0.428,-0L0.428,-0.082C0.412,-0.055 0.389,-0.033 0.358,-0.018C0.327,-0.003 0.29,0.005 0.247,0.005C0.188,0.005 0.142,-0.009 0.107,-0.037C0.072,-0.065 0.055,-0.102 0.055,-0.148C0.055,-0.193 0.071,-0.229 0.104,-0.256C0.136,-0.283 0.187,-0.297 0.258,-0.297L0.425,-0.297L0.425,-0.329C0.425,-0.374 0.412,-0.409 0.387,-0.433C0.362,-0.456 0.325,-0.468 0.276,-0.468C0.243,-0.468 0.211,-0.463 0.18,-0.452C0.149,-0.44 0.123,-0.425 0.101,-0.406L0.069,-0.459C0.096,-0.482 0.128,-0.499 0.165,-0.512C0.202,-0.524 0.242,-0.53 0.283,-0.53ZM0.258,-0.051C0.298,-0.051 0.332,-0.06 0.361,-0.079C0.39,-0.097 0.411,-0.123 0.425,-0.158L0.425,-0.244L0.26,-0.244C0.17,-0.244 0.125,-0.213 0.125,-0.15C0.125,-0.119 0.137,-0.095 0.16,-0.078C0.183,-0.06 0.216,-0.051 0.258,-0.051Z" style="fill-rule:nonzero;"/>
            </g>
            <g transform="matrix(16,0,0,16,143.011,78.8299)">
                <path d="M0.376,-0.032C0.363,-0.02 0.346,-0.011 0.327,-0.005C0.307,0.002 0.286,0.005 0.265,0.005C0.216,0.005 0.178,-0.008 0.151,-0.035C0.124,-0.062 0.111,-0.099 0.111,-0.148L0.111,-0.466L0.017,-0.466L0.017,-0.526L0.111,-0.526L0.111,-0.641L0.182,-0.641L0.182,-0.526L0.342,-0.526L0.342,-0.466L0.182,-0.466L0.182,-0.152C0.182,-0.121 0.19,-0.097 0.206,-0.081C0.221,-0.064 0.244,-0.056 0.273,-0.056C0.288,-0.056 0.302,-0.058 0.316,-0.063C0.329,-0.068 0.341,-0.074 0.351,-0.083L0.376,-0.032Z" style="fill-rule:nonzero;"/>
            </g>
            <g transform="matrix(16,0,0,16,149.507,78.8299)">
                <path d="M0.283,-0.53C0.352,-0.53 0.404,-0.513 0.441,-0.479C0.478,-0.444 0.496,-0.393 0.496,-0.326L0.496,-0L0.428,-0L0.428,-0.082C0.412,-0.055 0.389,-0.033 0.358,-0.018C0.327,-0.003 0.29,0.005 0.247,0.005C0.188,0.005 0.142,-0.009 0.107,-0.037C0.072,-0.065 0.055,-0.102 0.055,-0.148C0.055,-0.193 0.071,-0.229 0.104,-0.256C0.136,-0.283 0.187,-0.297 0.258,-0.297L0.425,-0.297L0.425,-0.329C0.425,-0.374 0.412,-0.409 0.387,-0.433C0.362,-0.456 0.325,-0.468 0.276,-0.468C0.243,-0.468 0.211,-0.463 0.18,-0.452C0.149,-0.44 0.123,-0.425 0.101,-0.406L0.069,-0.459C0.096,-0.482 0.128,-0.499 0.165,-0.512C0.202,-0.524 0.242,-0.53 0.283,-0.53ZM0.258,-0.051C0.298,-0.051 0.332,-0.06 0.361,-0.079C0.39,-0.097 0.411,-0.123 0.425,-0.158L0.425,-0.244L0.26,-0.244C0.17,-0.244 0.125,-0.213 0.125,-0.15C0.125,-0.119 0.137,-0.095 0.16,-0.078C0.183,-0.06 0.216,-0.051 0.258,-0.051Z" style="fill-rule:nonzero;"/>
            </g>
        </g>
        <g id="Tag:-Configuration" serif:id="Tag: Configuration" transform="matrix(4.59945,0,0,4.59945,-98.6552,57.2374)">
            <g transform="matrix(0.000853892,-1.01803,1.08168,0.000907279,3.01566,159.061)">
                <path d="M85.094,71.106L87.553,72.307L82.635,72.307L85.094,71.106Z" style="fill:rgb(186,231,193);"/>
            </g>
            <g transform="matrix(7.90449,0,0,1.73436,-569.57,-53.359)">
                <rect x="82.342" y="71.124" width="3.906" height="2.887" style="fill:rgb(186,231,193);"/>
            </g>
            <g transform="matrix(0.217417,0,0,0.217417,21.6776,52.17)">
                <g transform="matrix(14,0,0,14,284.851,97.333)">
                    <path d="M0.418,0.006C0.349,0.006 0.286,-0.009 0.231,-0.04C0.175,-0.071 0.131,-0.113 0.1,-0.168C0.068,-0.222 0.052,-0.283 0.052,-0.35C0.052,-0.417 0.068,-0.478 0.1,-0.533C0.131,-0.587 0.175,-0.629 0.231,-0.66C0.287,-0.691 0.35,-0.706 0.419,-0.706C0.471,-0.706 0.519,-0.697 0.563,-0.68C0.607,-0.663 0.644,-0.637 0.675,-0.604L0.628,-0.557C0.573,-0.612 0.504,-0.64 0.421,-0.64C0.366,-0.64 0.315,-0.627 0.27,-0.602C0.225,-0.577 0.189,-0.542 0.164,-0.498C0.138,-0.454 0.125,-0.405 0.125,-0.35C0.125,-0.295 0.138,-0.246 0.164,-0.202C0.189,-0.158 0.225,-0.123 0.27,-0.098C0.315,-0.073 0.366,-0.06 0.421,-0.06C0.505,-0.06 0.574,-0.088 0.628,-0.144L0.675,-0.097C0.644,-0.064 0.607,-0.038 0.563,-0.021C0.518,-0.003 0.47,0.006 0.418,0.006Z" style="fill:rgb(51,51,51);fill-rule:nonzero;"/>
                </g>
                <g transform="matrix(14,0,0,14,294.595,97.333)">
                    <path d="M0.314,0.005C0.263,0.005 0.218,-0.007 0.177,-0.03C0.136,-0.053 0.104,-0.084 0.081,-0.125C0.058,-0.166 0.046,-0.212 0.046,-0.263C0.046,-0.314 0.058,-0.36 0.081,-0.401C0.104,-0.442 0.136,-0.473 0.177,-0.496C0.218,-0.519 0.263,-0.53 0.314,-0.53C0.365,-0.53 0.41,-0.519 0.451,-0.496C0.492,-0.473 0.524,-0.442 0.547,-0.401C0.57,-0.36 0.581,-0.314 0.581,-0.263C0.581,-0.212 0.57,-0.166 0.547,-0.125C0.524,-0.084 0.492,-0.053 0.451,-0.03C0.41,-0.007 0.365,0.005 0.314,0.005ZM0.314,-0.058C0.351,-0.058 0.385,-0.067 0.415,-0.084C0.444,-0.1 0.467,-0.125 0.484,-0.156C0.501,-0.187 0.509,-0.223 0.509,-0.263C0.509,-0.303 0.501,-0.339 0.484,-0.37C0.467,-0.401 0.444,-0.426 0.415,-0.443C0.385,-0.46 0.351,-0.468 0.314,-0.468C0.277,-0.468 0.243,-0.46 0.214,-0.443C0.184,-0.426 0.161,-0.401 0.144,-0.37C0.127,-0.339 0.118,-0.303 0.118,-0.263C0.118,-0.223 0.127,-0.187 0.144,-0.156C0.161,-0.125 0.184,-0.1 0.214,-0.084C0.243,-0.067 0.277,-0.058 0.314,-0.058Z" style="fill:rgb(51,51,51);fill-rule:nonzero;"/>
                </g>
                <g transform="matrix(14,0,0,14,303.373,97.333)">
                    <path d="M0.367,-0.53C0.433,-0.53 0.486,-0.511 0.525,-0.473C0.564,-0.434 0.583,-0.378 0.583,-0.305L0.583,-0L0.512,-0L0.512,-0.298C0.512,-0.353 0.498,-0.394 0.471,-0.423C0.444,-0.452 0.405,-0.466 0.354,-0.466C0.297,-0.466 0.253,-0.449 0.22,-0.416C0.187,-0.382 0.17,-0.335 0.17,-0.276L0.17,-0L0.099,-0L0.099,-0.526L0.167,-0.526L0.167,-0.429C0.186,-0.461 0.213,-0.486 0.248,-0.504C0.282,-0.521 0.322,-0.53 0.367,-0.53Z" style="fill:rgb(51,51,51);fill-rule:nonzero;"/>
                </g>
                <g transform="matrix(14,0,0,14,312.851,97.333)">
                    <path d="M0.273,-0.687C0.242,-0.687 0.219,-0.679 0.204,-0.662C0.188,-0.645 0.18,-0.621 0.18,-0.588L0.18,-0.526L0.342,-0.526L0.342,-0.466L0.182,-0.466L0.182,-0L0.111,-0L0.111,-0.466L0.017,-0.466L0.017,-0.526L0.111,-0.526L0.111,-0.591C0.111,-0.639 0.125,-0.677 0.153,-0.705C0.18,-0.733 0.219,-0.747 0.27,-0.747C0.29,-0.747 0.309,-0.744 0.328,-0.739C0.347,-0.733 0.362,-0.725 0.375,-0.714L0.351,-0.661C0.33,-0.678 0.304,-0.687 0.273,-0.687ZM0.438,-0.526L0.509,-0.526L0.509,-0L0.438,-0L0.438,-0.526ZM0.474,-0.641C0.459,-0.641 0.447,-0.646 0.437,-0.656C0.427,-0.666 0.422,-0.678 0.422,-0.692C0.422,-0.705 0.427,-0.717 0.437,-0.727C0.447,-0.737 0.459,-0.742 0.474,-0.742C0.489,-0.742 0.501,-0.737 0.511,-0.728C0.521,-0.718 0.526,-0.706 0.526,-0.693C0.526,-0.678 0.521,-0.666 0.511,-0.656C0.501,-0.646 0.489,-0.641 0.474,-0.641Z" style="fill:rgb(51,51,51);fill-rule:nonzero;"/>
                </g>
                <g transform="matrix(14,0,0,14,321.363,97.333)">
                    <path d="M0.586,-0.526L0.586,-0.064C0.586,0.025 0.564,0.092 0.521,0.135C0.477,0.178 0.411,0.199 0.323,0.199C0.274,0.199 0.228,0.192 0.185,0.178C0.141,0.163 0.105,0.143 0.078,0.118L0.114,0.064C0.139,0.087 0.17,0.104 0.207,0.117C0.243,0.13 0.281,0.136 0.321,0.136C0.388,0.136 0.437,0.121 0.468,0.09C0.499,0.058 0.515,0.01 0.515,-0.055L0.515,-0.122C0.493,-0.089 0.464,-0.063 0.429,-0.046C0.393,-0.029 0.353,-0.02 0.31,-0.02C0.261,-0.02 0.216,-0.031 0.176,-0.053C0.135,-0.074 0.103,-0.105 0.081,-0.144C0.057,-0.183 0.046,-0.227 0.046,-0.276C0.046,-0.325 0.057,-0.369 0.081,-0.408C0.103,-0.447 0.135,-0.477 0.175,-0.498C0.215,-0.519 0.26,-0.53 0.31,-0.53C0.355,-0.53 0.395,-0.521 0.431,-0.503C0.467,-0.485 0.496,-0.459 0.518,-0.425L0.518,-0.526L0.586,-0.526ZM0.317,-0.083C0.355,-0.083 0.389,-0.091 0.42,-0.108C0.451,-0.124 0.474,-0.147 0.492,-0.176C0.509,-0.205 0.517,-0.239 0.517,-0.276C0.517,-0.313 0.509,-0.347 0.492,-0.376C0.474,-0.405 0.451,-0.427 0.421,-0.444C0.39,-0.46 0.356,-0.468 0.317,-0.468C0.279,-0.468 0.245,-0.46 0.215,-0.444C0.184,-0.428 0.161,-0.405 0.144,-0.376C0.127,-0.347 0.118,-0.313 0.118,-0.276C0.118,-0.239 0.127,-0.205 0.144,-0.176C0.161,-0.147 0.184,-0.124 0.215,-0.108C0.245,-0.091 0.279,-0.083 0.317,-0.083Z" style="fill:rgb(51,51,51);fill-rule:nonzero;"/>
                </g>
                <g transform="matrix(14,0,0,14,330.967,97.333)">
                    <path d="M0.573,-0.526L0.573,-0L0.505,-0L0.505,-0.096C0.486,-0.064 0.461,-0.039 0.428,-0.022C0.395,-0.004 0.358,0.005 0.316,0.005C0.247,0.005 0.193,-0.014 0.154,-0.053C0.114,-0.091 0.094,-0.147 0.094,-0.221L0.094,-0.526L0.165,-0.526L0.165,-0.228C0.165,-0.173 0.179,-0.131 0.206,-0.102C0.233,-0.073 0.272,-0.059 0.323,-0.059C0.378,-0.059 0.422,-0.076 0.454,-0.11C0.486,-0.143 0.502,-0.19 0.502,-0.25L0.502,-0.526L0.573,-0.526Z" style="fill:rgb(51,51,51);fill-rule:nonzero;"/>
                </g>
                <g transform="matrix(14,0,0,14,340.389,97.333)">
                    <path d="M0.167,-0.423C0.184,-0.458 0.209,-0.485 0.242,-0.503C0.274,-0.521 0.315,-0.53 0.364,-0.53L0.364,-0.461L0.347,-0.462C0.292,-0.462 0.248,-0.445 0.217,-0.411C0.186,-0.377 0.17,-0.329 0.17,-0.268L0.17,-0L0.099,-0L0.099,-0.526L0.167,-0.526L0.167,-0.423Z" style="fill:rgb(51,51,51);fill-rule:nonzero;"/>
                </g>
                <g transform="matrix(14,0,0,14,345.345,97.333)">
                    <path d="M0.283,-0.53C0.352,-0.53 0.404,-0.513 0.441,-0.479C0.478,-0.444 0.496,-0.393 0.496,-0.326L0.496,-0L0.428,-0L0.428,-0.082C0.412,-0.055 0.389,-0.033 0.358,-0.018C0.327,-0.003 0.29,0.005 0.247,0.005C0.188,0.005 0.142,-0.009 0.107,-0.037C0.072,-0.065 0.055,-0.102 0.055,-0.148C0.055,-0.193 0.071,-0.229 0.104,-0.256C0.136,-0.283 0.187,-0.297 0.258,-0.297L0.425,-0.297L0.425,-0.329C0.425,-0.374 0.412,-0.409 0.387,-0.433C0.362,-0.456 0.325,-0.468 0.276,-0.468C0.243,-0.468 0.211,-0.463 0.18,-0.452C0.149,-0.44 0.123,-0.425 0.101,-0.406L0.069,-0.459C0.096,-0.482 0.128,-0.499 0.165,-0.512C0.202,-0.524 0.242,-0.53 0.283,-0.53ZM0.258,-0.051C0.298,-0.051 0.332,-0.06 0.361,-0.079C0.39,-0.097 0.411,-0.123 0.425,-0.158L0.425,-0.244L0.26,-0.244C0.17,-0.244 0.125,-0.213 0.125,-0.15C0.125,-0.119 0.137,-0.095 0.16,-0.078C0.183,-0.06 0.216,-0.051 0.258,-0.051Z" style="fill:rgb(51,51,51);fill-rule:nonzero;"/>
                </g>
                <g transform="matrix(14,0,0,14,353.605,97.333)">
                    <path d="M0.376,-0.032C0.363,-0.02 0.346,-0.011 0.327,-0.005C0.307,0.002 0.286,0.005 0.265,0.005C0.216,0.005 0.178,-0.008 0.151,-0.035C0.124,-0.062 0.111,-0.099 0.111,-0.148L0.111,-0.466L0.017,-0.466L0.017,-0.526L0.111,-0.526L0.111,-0.641L0.182,-0.641L0.182,-0.526L0.342,-0.526L0.342,-0.466L0.182,-0.466L0.182,-0.152C0.182,-0.121 0.19,-0.097 0.206,-0.081C0.221,-0.064 0.244,-0.056 0.273,-0.056C0.288,-0.056 0.302,-0.058 0.316,-0.063C0.329,-0.068 0.341,-0.074 0.351,-0.083L0.376,-0.032Z" style="fill:rgb(51,51,51);fill-rule:nonzero;"/>
                </g>
                <g transform="matrix(14,0,0,14,359.289,97.333)">
                    <path d="M0.099,-0.526L0.17,-0.526L0.17,-0L0.099,-0L0.099,-0.526ZM0.135,-0.641C0.12,-0.641 0.108,-0.646 0.098,-0.656C0.088,-0.666 0.083,-0.678 0.083,-0.692C0.083,-0.705 0.088,-0.717 0.098,-0.727C0.108,-0.737 0.12,-0.742 0.135,-0.742C0.15,-0.742 0.162,-0.737 0.172,-0.728C0.182,-0.718 0.187,-0.706 0.187,-0.693C0.187,-0.678 0.182,-0.666 0.172,-0.656C0.162,-0.646 0.15,-0.641 0.135,-0.641Z" style="fill:rgb(51,51,51);fill-rule:nonzero;"/>
                </g>
                <g transform="matrix(14,0,0,14,363.055,97.333)">
                    <path d="M0.314,0.005C0.263,0.005 0.218,-0.007 0.177,-0.03C0.136,-0.053 0.104,-0.084 0.081,-0.125C0.058,-0.166 0.046,-0.212 0.046,-0.263C0.046,-0.314 0.058,-0.36 0.081,-0.401C0.104,-0.442 0.136,-0.473 0.177,-0.496C0.218,-0.519 0.263,-0.53 0.314,-0.53C0.365,-0.53 0.41,-0.519 0.451,-0.496C0.492,-0.473 0.524,-0.442 0.547,-0.401C0.57,-0.36 0.581,-0.314 0.581,-0.263C0.581,-0.212 0.57,-0.166 0.547,-0.125C0.524,-0.084 0.492,-0.053 0.451,-0.03C0.41,-0.007 0.365,0.005 0.314,0.005ZM0.314,-0.058C0.351,-0.058 0.385,-0.067 0.415,-0.084C0.444,-0.1 0.467,-0.125 0.484,-0.156C0.501,-0.187 0.509,-0.223 0.509,-0.263C0.509,-0.303 0.501,-0.339 0.484,-0.37C0.467,-0.401 0.444,-0.426 0.415,-0.443C0.385,-0.46 0.351,-0.468 0.314,-0.468C0.277,-0.468 0.243,-0.46 0.214,-0.443C0.184,-0.426 0.161,-0.401 0.144,-0.37C0.127,-0.339 0.118,-0.303 0.118,-0.263C0.118,-0.223 0.127,-0.187 0.144,-0.156C0.161,-0.125 0.184,-0.1 0.214,-0.084C0.243,-0.067 0.277,-0.058 0.314,-0.058Z" style="fill:rgb(51,51,51);fill-rule:nonzero;"/>
                </g>
                <g transform="matrix(14,0,0,14,371.833,97.333)">
                    <path d="M0.367,-0.53C0.433,-0.53 0.486,-0.511 0.525,-0.473C0.564,-0.434 0.583,-0.378 0.583,-0.305L0.583,-0L0.512,-0L0.512,-0.298C0.512,-0.353 0.498,-0.394 0.471,-0.423C0.444,-0.452 0.405,-0.466 0.354,-0.466C0.297,-0.466 0.253,-0.449 0.22,-0.416C0.187,-0.382 0.17,-0.335 0.17,-0.276L0.17,-0L0.099,-0L0.099,-0.526L0.167,-0.526L0.167,-0.429C0.186,-0.461 0.213,-0.486 0.248,-0.504C0.282,-0.521 0.322,-0.53 0.367,-0.53Z" style="fill:rgb(51,51,51);fill-rule:nonzero;"/>
                </g>
            </g>
        </g>
        <g id="Tag:-Code-Snippet" serif:id="Tag: Code Snippet" transform="matrix(4.59945,0,0,4.59945,-98.6552,96.4598)">
            <g transform="matrix(0.000853892,-1.01803,1.08168,0.000907279,3.01566,159.061)">
                <path d="M85.094,71.106L87.553,72.307L82.635,72.307L85.094,71.106Z" style="fill:rgb(186,231,193);"/>
            </g>
            <g transform="matrix(7.90449,0,0,1.73436,-569.57,-53.359)">
                <rect x="82.342" y="71.124" width="3.906" height="2.887" style="fill:rgb(186,231,193);"/>
            </g>
            <g transform="matrix(0.217417,0,0,0.217417,21.6776,52.17)">
                <g transform="matrix(14,0,0,14,284.851,97.333)">
                    <path d="M0.418,0.006C0.349,0.006 0.286,-0.009 0.231,-0.04C0.175,-0.071 0.131,-0.113 0.1,-0.168C0.068,-0.222 0.052,-0.283 0.052,-0.35C0.052,-0.417 0.068,-0.478 0.1,-0.533C0.131,-0.587 0.175,-0.629 0.231,-0.66C0.287,-0.691 0.35,-0.706 0.419,-0.706C0.471,-0.706 0.519,-0.697 0.563,-0.68C0.607,-0.663 0.644,-0.637 0.675,-0.604L0.628,-0.557C0.573,-0.612 0.504,-0.64 0.421,-0.64C0.366,-0.64 0.315,-0.627 0.27,-0.602C0.225,-0.577 0.189,-0.542 0.164,-0.498C0.138,-0.454 0.125,-0.405 0.125,-0.35C0.125,-0.295 0.138,-0.246 0.164,-0.202C0.189,-0.158 0.225,-0.123 0.27,-0.098C0.315,-0.073 0.366,-0.06 0.421,-0.06C0.505,-0.06 0.574,-0.088 0.628,-0.144L0.675,-0.097C0.644,-0.064 0.607,-0.038 0.563,-0.021C0.518,-0.003 0.47,0.006 0.418,0.006Z" style="fill:rgb(51,51,51);fill-rule:nonzero;"/>
                </g>
                <g transform="matrix(14,0,0,14,294.595,97.333)">
                    <path d="M0.314,0.005C0.263,0.005 0.218,-0.007 0.177,-0.03C0.136,-0.053 0.104,-0.084 0.081,-0.125C0.058,-0.166 0.046,-0.212 0.046,-0.263C0.046,-0.314 0.058,-0.36 0.081,-0.401C0.104,-0.442 0.136,-0.473 0.177,-0.496C0.218,-0.519 0.263,-0.53 0.314,-0.53C0.365,-0.53 0.41,-0.519 0.451,-0.496C0.492,-0.473 0.524,-0.442 0.547,-0.401C0.57,-0.36 0.581,-0.314 0.581,-0.263C0.581,-0.212 0.57,-0.166 0.547,-0.125C0.524,-0.084 0.492,-0.053 0.451,-0.03C0.41,-0.007 0.365,0.005 0.314,0.005ZM0.314,-0.058C0.351,-0.058 0.385,-0.067 0.415,-0.084C0.444,-0.1 0.467,-0.125 0.484,-0.156C0.501,-0.187 0.509,-0.223 0.509,-0.263C0.509,-0.303 0.501,-0.339 0.484,-0.37C0.467,-0.401 0.444,-0.426 0.415,-0.443C0.385,-0.46 0.351,-0.468 0.314,-0.468C0.277,-0.468 0.243,-0.46 0.214,-0.443C0.184,-0.426 0.161,-0.401 0.144,-0.37C0.127,-0.339 0.118,-0.303 0.118,-0.263C0.118,-0.223 0.127,-0.187 0.144,-0.156C0.161,-0.125 0.184,-0.1 0.214,-0.084C0.243,-0.067 0.277,-0.058 0.314,-0.058Z" style="fill:rgb(51,51,51);fill-rule:nonzero;"/>
                </g>
                <g transform="matrix(14,0,0,14,303.373,97.333)">
                    <path d="M0.579,-0.742L0.579,-0L0.511,-0L0.511,-0.104C0.49,-0.069 0.462,-0.042 0.427,-0.023C0.392,-0.004 0.352,0.005 0.308,0.005C0.259,0.005 0.214,-0.006 0.174,-0.029C0.134,-0.052 0.103,-0.083 0.08,-0.124C0.057,-0.165 0.046,-0.211 0.046,-0.263C0.046,-0.315 0.057,-0.361 0.08,-0.402C0.103,-0.443 0.134,-0.474 0.174,-0.497C0.214,-0.519 0.259,-0.53 0.308,-0.53C0.351,-0.53 0.389,-0.521 0.424,-0.504C0.458,-0.486 0.486,-0.46 0.508,-0.426L0.508,-0.742L0.579,-0.742ZM0.314,-0.058C0.351,-0.058 0.384,-0.067 0.414,-0.084C0.443,-0.1 0.466,-0.125 0.484,-0.156C0.501,-0.187 0.509,-0.223 0.509,-0.263C0.509,-0.303 0.501,-0.339 0.484,-0.37C0.466,-0.401 0.443,-0.426 0.414,-0.443C0.384,-0.46 0.351,-0.468 0.314,-0.468C0.277,-0.468 0.243,-0.46 0.214,-0.443C0.184,-0.426 0.161,-0.401 0.144,-0.37C0.127,-0.339 0.118,-0.303 0.118,-0.263C0.118,-0.223 0.127,-0.187 0.144,-0.156C0.161,-0.125 0.184,-0.1 0.214,-0.084C0.243,-0.067 0.277,-0.058 0.314,-0.058Z" style="fill:rgb(51,51,51);fill-rule:nonzero;"/>
                </g>
                <g transform="matrix(14,0,0,14,312.865,97.333)">
                    <path d="M0.557,-0.241L0.117,-0.241C0.121,-0.186 0.142,-0.142 0.18,-0.109C0.218,-0.075 0.266,-0.058 0.324,-0.058C0.357,-0.058 0.387,-0.064 0.414,-0.076C0.441,-0.087 0.465,-0.104 0.485,-0.127L0.525,-0.081C0.502,-0.053 0.472,-0.032 0.438,-0.017C0.403,-0.002 0.364,0.005 0.322,0.005C0.268,0.005 0.22,-0.007 0.179,-0.03C0.137,-0.053 0.104,-0.084 0.081,-0.125C0.058,-0.166 0.046,-0.212 0.046,-0.263C0.046,-0.314 0.057,-0.36 0.08,-0.401C0.102,-0.442 0.133,-0.473 0.172,-0.496C0.211,-0.519 0.254,-0.53 0.303,-0.53C0.352,-0.53 0.395,-0.519 0.434,-0.496C0.473,-0.473 0.503,-0.442 0.525,-0.402C0.547,-0.361 0.558,-0.315 0.558,-0.263L0.557,-0.241ZM0.303,-0.469C0.252,-0.469 0.21,-0.453 0.176,-0.421C0.141,-0.388 0.122,-0.346 0.117,-0.294L0.49,-0.294C0.485,-0.346 0.466,-0.388 0.432,-0.421C0.397,-0.453 0.354,-0.469 0.303,-0.469Z" style="fill:rgb(51,51,51);fill-rule:nonzero;"/>
                </g>
                <g transform="matrix(14,0,0,14,324.989,97.333)">
                    <path d="M0.307,0.006C0.255,0.006 0.205,-0.002 0.158,-0.019C0.11,-0.036 0.073,-0.058 0.047,-0.085L0.076,-0.142C0.101,-0.117 0.135,-0.096 0.177,-0.081C0.219,-0.065 0.262,-0.057 0.307,-0.057C0.37,-0.057 0.417,-0.069 0.448,-0.092C0.479,-0.115 0.495,-0.144 0.495,-0.181C0.495,-0.209 0.487,-0.231 0.47,-0.248C0.452,-0.265 0.432,-0.278 0.407,-0.287C0.382,-0.296 0.348,-0.305 0.304,-0.316C0.251,-0.329 0.209,-0.342 0.178,-0.355C0.147,-0.367 0.12,-0.386 0.098,-0.411C0.075,-0.436 0.064,-0.471 0.064,-0.514C0.064,-0.549 0.073,-0.582 0.092,-0.611C0.111,-0.64 0.139,-0.663 0.178,-0.68C0.217,-0.697 0.265,-0.706 0.322,-0.706C0.362,-0.706 0.401,-0.7 0.44,-0.69C0.478,-0.679 0.511,-0.663 0.539,-0.644L0.514,-0.585C0.485,-0.604 0.453,-0.619 0.42,-0.629C0.387,-0.638 0.354,-0.643 0.322,-0.643C0.261,-0.643 0.215,-0.631 0.184,-0.608C0.153,-0.584 0.137,-0.553 0.137,-0.516C0.137,-0.488 0.146,-0.466 0.163,-0.449C0.18,-0.432 0.201,-0.419 0.227,-0.41C0.252,-0.401 0.287,-0.391 0.33,-0.38C0.381,-0.367 0.423,-0.355 0.455,-0.343C0.486,-0.33 0.513,-0.312 0.535,-0.287C0.557,-0.262 0.568,-0.228 0.568,-0.185C0.568,-0.15 0.559,-0.118 0.54,-0.089C0.521,-0.059 0.491,-0.037 0.452,-0.02C0.413,-0.003 0.364,0.006 0.307,0.006Z" style="fill:rgb(51,51,51);fill-rule:nonzero;"/>
                </g>
                <g transform="matrix(14,0,0,14,333.599,97.333)">
                    <path d="M0.367,-0.53C0.433,-0.53 0.486,-0.511 0.525,-0.473C0.564,-0.434 0.583,-0.378 0.583,-0.305L0.583,-0L0.512,-0L0.512,-0.298C0.512,-0.353 0.498,-0.394 0.471,-0.423C0.444,-0.452 0.405,-0.466 0.354,-0.466C0.297,-0.466 0.253,-0.449 0.22,-0.416C0.187,-0.382 0.17,-0.335 0.17,-0.276L0.17,-0L0.099,-0L0.099,-0.526L0.167,-0.526L0.167,-0.429C0.186,-0.461 0.213,-0.486 0.248,-0.504C0.282,-0.521 0.322,-0.53 0.367,-0.53Z" style="fill:rgb(51,51,51);fill-rule:nonzero;"/>
                </g>
                <g transform="matrix(14,0,0,14,343.077,97.333)">
                    <path d="M0.099,-0.526L0.17,-0.526L0.17,-0L0.099,-0L0.099,-0.526ZM0.135,-0.641C0.12,-0.641 0.108,-0.646 0.098,-0.656C0.088,-0.666 0.083,-0.678 0.083,-0.692C0.083,-0.705 0.088,-0.717 0.098,-0.727C0.108,-0.737 0.12,-0.742 0.135,-0.742C0.15,-0.742 0.162,-0.737 0.172,-0.728C0.182,-0.718 0.187,-0.706 0.187,-0.693C0.187,-0.678 0.182,-0.666 0.172,-0.656C0.162,-0.646 0.15,-0.641 0.135,-0.641Z" style="fill:rgb(51,51,51);fill-rule:nonzero;"/>
                </g>
                <g transform="matrix(14,0,0,14,346.843,97.333)">
                    <path d="M0.37,-0.53C0.419,-0.53 0.464,-0.519 0.504,-0.497C0.544,-0.474 0.575,-0.443 0.598,-0.402C0.621,-0.361 0.632,-0.315 0.632,-0.263C0.632,-0.21 0.621,-0.164 0.598,-0.123C0.575,-0.082 0.544,-0.051 0.505,-0.029C0.465,-0.006 0.42,0.005 0.37,0.005C0.327,0.005 0.289,-0.004 0.255,-0.022C0.22,-0.039 0.192,-0.065 0.17,-0.099L0.17,0.194L0.099,0.194L0.099,-0.526L0.167,-0.526L0.167,-0.422C0.188,-0.457 0.217,-0.483 0.252,-0.502C0.286,-0.521 0.326,-0.53 0.37,-0.53ZM0.365,-0.058C0.402,-0.058 0.435,-0.067 0.465,-0.084C0.495,-0.1 0.519,-0.125 0.536,-0.156C0.553,-0.187 0.561,-0.223 0.561,-0.263C0.561,-0.303 0.553,-0.339 0.536,-0.37C0.519,-0.401 0.495,-0.425 0.465,-0.442C0.435,-0.459 0.402,-0.468 0.365,-0.468C0.328,-0.468 0.294,-0.459 0.265,-0.442C0.235,-0.425 0.212,-0.401 0.195,-0.37C0.178,-0.339 0.169,-0.303 0.169,-0.263C0.169,-0.223 0.178,-0.187 0.195,-0.156C0.212,-0.125 0.235,-0.1 0.265,-0.084C0.294,-0.067 0.328,-0.058 0.365,-0.058Z" style="fill:rgb(51,51,51);fill-rule:nonzero;"/>
                </g>
                <g transform="matrix(14,0,0,14,356.335,97.333)">
                    <path d="M0.37,-0.53C0.419,-0.53 0.464,-0.519 0.504,-0.497C0.544,-0.474 0.575,-0.443 0.598,-0.402C0.621,-0.361 0.632,-0.315 0.632,-0.263C0.632,-0.21 0.621,-0.164 0.598,-0.123C0.575,-0.082 0.544,-0.051 0.505,-0.029C0.465,-0.006 0.42,0.005 0.37,0.005C0.327,0.005 0.289,-0.004 0.255,-0.022C0.22,-0.039 0.192,-0.065 0.17,-0.099L0.17,0.194L0.099,0.194L0.099,-0.526L0.167,-0.526L0.167,-0.422C0.188,-0.457 0.217,-0.483 0.252,-0.502C0.286,-0.521 0.326,-0.53 0.37,-0.53ZM0.365,-0.058C0.402,-0.058 0.435,-0.067 0.465,-0.084C0.495,-0.1 0.519,-0.125 0.536,-0.156C0.553,-0.187 0.561,-0.223 0.561,-0.263C0.561,-0.303 0.553,-0.339 0.536,-0.37C0.519,-0.401 0.495,-0.425 0.465,-0.442C0.435,-0.459 0.402,-0.468 0.365,-0.468C0.328,-0.468 0.294,-0.459 0.265,-0.442C0.235,-0.425 0.212,-0.401 0.195,-0.37C0.178,-0.339 0.169,-0.303 0.169,-0.263C0.169,-0.223 0.178,-0.187 0.195,-0.156C0.212,-0.125 0.235,-0.1 0.265,-0.084C0.294,-0.067 0.328,-0.058 0.365,-0.058Z" style="fill:rgb(51,51,51);fill-rule:nonzero;"/>
                </g>
                <g transform="matrix(14,0,0,14,365.827,97.333)">
                    <path d="M0.557,-0.241L0.117,-0.241C0.121,-0.186 0.142,-0.142 0.18,-0.109C0.218,-0.075 0.266,-0.058 0.324,-0.058C0.357,-0.058 0.387,-0.064 0.414,-0.076C0.441,-0.087 0.465,-0.104 0.485,-0.127L0.525,-0.081C0.502,-0.053 0.472,-0.032 0.438,-0.017C0.403,-0.002 0.364,0.005 0.322,0.005C0.268,0.005 0.22,-0.007 0.179,-0.03C0.137,-0.053 0.104,-0.084 0.081,-0.125C0.058,-0.166 0.046,-0.212 0.046,-0.263C0.046,-0.314 0.057,-0.36 0.08,-0.401C0.102,-0.442 0.133,-0.473 0.172,-0.496C0.211,-0.519 0.254,-0.53 0.303,-0.53C0.352,-0.53 0.395,-0.519 0.434,-0.496C0.473,-0.473 0.503,-0.442 0.525,-0.402C0.547,-0.361 0.558,-0.315 0.558,-0.263L0.557,-0.241ZM0.303,-0.469C0.252,-0.469 0.21,-0.453 0.176,-0.421C0.141,-0.388 0.122,-0.346 0.117,-0.294L0.49,-0.294C0.485,-0.346 0.466,-0.388 0.432,-0.421C0.397,-0.453 0.354,-0.469 0.303,-0.469Z" style="fill:rgb(51,51,51);fill-rule:nonzero;"/>
                </g>
                <g transform="matrix(14,0,0,14,374.283,97.333)">
                    <path d="M0.376,-0.032C0.363,-0.02 0.346,-0.011 0.327,-0.005C0.307,0.002 0.286,0.005 0.265,0.005C0.216,0.005 0.178,-0.008 0.151,-0.035C0.124,-0.062 0.111,-0.099 0.111,-0.148L0.111,-0.466L0.017,-0.466L0.017,-0.526L0.111,-0.526L0.111,-0.641L0.182,-0.641L0.182,-0.526L0.342,-0.526L0.342,-0.466L0.182,-0.466L0.182,-0.152C0.182,-0.121 0.19,-0.097 0.206,-0.081C0.221,-0.064 0.244,-0.056 0.273,-0.056C0.288,-0.056 0.302,-0.058 0.316,-0.063C0.329,-0.068 0.341,-0.074 0.351,-0.083L0.376,-0.032Z" style="fill:rgb(51,51,51);fill-rule:nonzero;"/>
                </g>
            </g>
        </g>
        <g id="Tag:-Per-Industry" serif:id="Tag: Per Industry" transform="matrix(4.59945,0,0,4.59945,61.3836,96.4598)">
            <g transform="matrix(0.000853892,-1.01803,1.08168,0.000907279,3.01566,159.061)">
                <path d="M85.094,71.106L87.553,72.307L82.635,72.307L85.094,71.106Z" style="fill:rgb(186,231,193);"/>
            </g>
            <g transform="matrix(7.90449,0,0,1.73436,-569.57,-53.359)">
                <rect x="82.342" y="71.124" width="3.906" height="2.887" style="fill:rgb(186,231,193);"/>
            </g>
            <g transform="matrix(0.217417,0,0,0.217417,21.6776,52.17)">
                <g transform="matrix(14,0,0,14,284.851,97.333)">
                    <path d="M0.609,-0.064L0.609,-0L0.114,-0L0.114,-0.7L0.594,-0.7L0.594,-0.636L0.188,-0.636L0.188,-0.387L0.55,-0.387L0.55,-0.324L0.188,-0.324L0.188,-0.064L0.609,-0.064Z" style="fill:rgb(51,51,51);fill-rule:nonzero;"/>
                </g>
                <g transform="matrix(14,0,0,14,294.217,97.333)">
                    <path d="M0.367,-0.53C0.433,-0.53 0.486,-0.511 0.525,-0.473C0.564,-0.434 0.583,-0.378 0.583,-0.305L0.583,-0L0.512,-0L0.512,-0.298C0.512,-0.353 0.498,-0.394 0.471,-0.423C0.444,-0.452 0.405,-0.466 0.354,-0.466C0.297,-0.466 0.253,-0.449 0.22,-0.416C0.187,-0.382 0.17,-0.335 0.17,-0.276L0.17,-0L0.099,-0L0.099,-0.526L0.167,-0.526L0.167,-0.429C0.186,-0.461 0.213,-0.486 0.248,-0.504C0.282,-0.521 0.322,-0.53 0.367,-0.53Z" style="fill:rgb(51,51,51);fill-rule:nonzero;"/>
                </g>
                <g transform="matrix(14,0,0,14,303.555,97.333)">
                    <path d="M0.541,-0.526L0.307,-0L0.234,-0L0.001,-0.526L0.075,-0.526L0.272,-0.078L0.471,-0.526L0.541,-0.526Z" style="fill:rgb(51,51,51);fill-rule:nonzero;"/>
                </g>
                <g transform="matrix(14,0,0,14,311.143,97.333)">
                    <path d="M0.099,-0.526L0.17,-0.526L0.17,-0L0.099,-0L0.099,-0.526ZM0.135,-0.641C0.12,-0.641 0.108,-0.646 0.098,-0.656C0.088,-0.666 0.083,-0.678 0.083,-0.692C0.083,-0.705 0.088,-0.717 0.098,-0.727C0.108,-0.737 0.12,-0.742 0.135,-0.742C0.15,-0.742 0.162,-0.737 0.172,-0.728C0.182,-0.718 0.187,-0.706 0.187,-0.693C0.187,-0.678 0.182,-0.666 0.172,-0.656C0.162,-0.646 0.15,-0.641 0.135,-0.641Z" style="fill:rgb(51,51,51);fill-rule:nonzero;"/>
                </g>
                <g transform="matrix(14,0,0,14,314.909,97.333)">
                    <path d="M0.167,-0.423C0.184,-0.458 0.209,-0.485 0.242,-0.503C0.274,-0.521 0.315,-0.53 0.364,-0.53L0.364,-0.461L0.347,-0.462C0.292,-0.462 0.248,-0.445 0.217,-0.411C0.186,-0.377 0.17,-0.329 0.17,-0.268L0.17,-0L0.099,-0L0.099,-0.526L0.167,-0.526L0.167,-0.423Z" style="fill:rgb(51,51,51);fill-rule:nonzero;"/>
                </g>
                <g transform="matrix(14,0,0,14,320.341,97.333)">
                    <path d="M0.314,0.005C0.263,0.005 0.218,-0.007 0.177,-0.03C0.136,-0.053 0.104,-0.084 0.081,-0.125C0.058,-0.166 0.046,-0.212 0.046,-0.263C0.046,-0.314 0.058,-0.36 0.081,-0.401C0.104,-0.442 0.136,-0.473 0.177,-0.496C0.218,-0.519 0.263,-0.53 0.314,-0.53C0.365,-0.53 0.41,-0.519 0.451,-0.496C0.492,-0.473 0.524,-0.442 0.547,-0.401C0.57,-0.36 0.581,-0.314 0.581,-0.263C0.581,-0.212 0.57,-0.166 0.547,-0.125C0.524,-0.084 0.492,-0.053 0.451,-0.03C0.41,-0.007 0.365,0.005 0.314,0.005ZM0.314,-0.058C0.351,-0.058 0.385,-0.067 0.415,-0.084C0.444,-0.1 0.467,-0.125 0.484,-0.156C0.501,-0.187 0.509,-0.223 0.509,-0.263C0.509,-0.303 0.501,-0.339 0.484,-0.37C0.467,-0.401 0.444,-0.426 0.415,-0.443C0.385,-0.46 0.351,-0.468 0.314,-0.468C0.277,-0.468 0.243,-0.46 0.214,-0.443C0.184,-0.426 0.161,-0.401 0.144,-0.37C0.127,-0.339 0.118,-0.303 0.118,-0.263C0.118,-0.223 0.127,-0.187 0.144,-0.156C0.161,-0.125 0.184,-0.1 0.214,-0.084C0.243,-0.067 0.277,-0.058 0.314,-0.058Z" style="fill:rgb(51,51,51);fill-rule:nonzero;"/>
                </g>
                <g transform="matrix(14,0,0,14,329.119,97.333)">
                    <path d="M0.367,-0.53C0.433,-0.53 0.486,-0.511 0.525,-0.473C0.564,-0.434 0.583,-0.378 0.583,-0.305L0.583,-0L0.512,-0L0.512,-0.298C0.512,-0.353 0.498,-0.394 0.471,-0.423C0.444,-0.452 0.405,-0.466 0.354,-0.466C0.297,-0.466 0.253,-0.449 0.22,-0.416C0.187,-0.382 0.17,-0.335 0.17,-0.276L0.17,-0L0.099,-0L0.099,-0.526L0.167,-0.526L0.167,-0.429C0.186,-0.461 0.213,-0.486 0.248,-0.504C0.282,-0.521 0.322,-0.53 0.367,-0.53Z" style="fill:rgb(51,51,51);fill-rule:nonzero;"/>
                </g>
                <g transform="matrix(14,0,0,14,338.597,97.333)">
                    <path d="M0.755,-0.53C0.821,-0.53 0.873,-0.511 0.911,-0.473C0.948,-0.435 0.967,-0.379 0.967,-0.305L0.967,-0L0.896,-0L0.896,-0.298C0.896,-0.353 0.883,-0.394 0.857,-0.423C0.83,-0.452 0.793,-0.466 0.745,-0.466C0.69,-0.466 0.647,-0.449 0.616,-0.416C0.585,-0.382 0.569,-0.335 0.569,-0.276L0.569,-0L0.498,-0L0.498,-0.298C0.498,-0.353 0.485,-0.394 0.459,-0.423C0.432,-0.452 0.395,-0.466 0.346,-0.466C0.292,-0.466 0.249,-0.449 0.218,-0.416C0.186,-0.382 0.17,-0.335 0.17,-0.276L0.17,-0L0.099,-0L0.099,-0.526L0.167,-0.526L0.167,-0.43C0.186,-0.462 0.212,-0.487 0.245,-0.504C0.278,-0.521 0.317,-0.53 0.36,-0.53C0.404,-0.53 0.442,-0.521 0.475,-0.502C0.507,-0.483 0.531,-0.456 0.547,-0.419C0.566,-0.454 0.594,-0.481 0.631,-0.501C0.667,-0.52 0.708,-0.53 0.755,-0.53Z" style="fill:rgb(51,51,51);fill-rule:nonzero;"/>
                </g>
                <g transform="matrix(14,0,0,14,353.451,97.333)">
                    <path d="M0.557,-0.241L0.117,-0.241C0.121,-0.186 0.142,-0.142 0.18,-0.109C0.218,-0.075 0.266,-0.058 0.324,-0.058C0.357,-0.058 0.387,-0.064 0.414,-0.076C0.441,-0.087 0.465,-0.104 0.485,-0.127L0.525,-0.081C0.502,-0.053 0.472,-0.032 0.438,-0.017C0.403,-0.002 0.364,0.005 0.322,0.005C0.268,0.005 0.22,-0.007 0.179,-0.03C0.137,-0.053 0.104,-0.084 0.081,-0.125C0.058,-0.166 0.046,-0.212 0.046,-0.263C0.046,-0.314 0.057,-0.36 0.08,-0.401C0.102,-0.442 0.133,-0.473 0.172,-0.496C0.211,-0.519 0.254,-0.53 0.303,-0.53C0.352,-0.53 0.395,-0.519 0.434,-0.496C0.473,-0.473 0.503,-0.442 0.525,-0.402C0.547,-0.361 0.558,-0.315 0.558,-0.263L0.557,-0.241ZM0.303,-0.469C0.252,-0.469 0.21,-0.453 0.176,-0.421C0.141,-0.388 0.122,-0.346 0.117,-0.294L0.49,-0.294C0.485,-0.346 0.466,-0.388 0.432,-0.421C0.397,-0.453 0.354,-0.469 0.303,-0.469Z" style="fill:rgb(51,51,51);fill-rule:nonzero;"/>
                </g>
                <g transform="matrix(14,0,0,14,361.907,97.333)">
                    <path d="M0.367,-0.53C0.433,-0.53 0.486,-0.511 0.525,-0.473C0.564,-0.434 0.583,-0.378 0.583,-0.305L0.583,-0L0.512,-0L0.512,-0.298C0.512,-0.353 0.498,-0.394 0.471,-0.423C0.444,-0.452 0.405,-0.466 0.354,-0.466C0.297,-0.466 0.253,-0.449 0.22,-0.416C0.187,-0.382 0.17,-0.335 0.17,-0.276L0.17,-0L0.099,-0L0.099,-0.526L0.167,-0.526L0.167,-0.429C0.186,-0.461 0.213,-0.486 0.248,-0.504C0.282,-0.521 0.322,-0.53 0.367,-0.53Z" style="fill:rgb(51,51,51);fill-rule:nonzero;"/>
                </g>
                <g transform="matrix(14,0,0,14,371.385,97.333)">
                    <path d="M0.376,-0.032C0.363,-0.02 0.346,-0.011 0.327,-0.005C0.307,0.002 0.286,0.005 0.265,0.005C0.216,0.005 0.178,-0.008 0.151,-0.035C0.124,-0.062 0.111,-0.099 0.111,-0.148L0.111,-0.466L0.017,-0.466L0.017,-0.526L0.111,-0.526L0.111,-0.641L0.182,-0.641L0.182,-0.526L0.342,-0.526L0.342,-0.466L0.182,-0.466L0.182,-0.152C0.182,-0.121 0.19,-0.097 0.206,-0.081C0.221,-0.064 0.244,-0.056 0.273,-0.056C0.288,-0.056 0.302,-0.058 0.316,-0.063C0.329,-0.068 0.341,-0.074 0.351,-0.083L0.376,-0.032Z" style="fill:rgb(51,51,51);fill-rule:nonzero;"/>
                </g>
            </g>
        </g>
        <g id="Tag:-Team" serif:id="Tag: Team" transform="matrix(4.59945,0,0,4.59945,221.309,57.2374)">
            <g transform="matrix(0.000853892,-1.01803,1.08168,0.000907279,3.01566,159.061)">
                <path d="M85.094,71.106L87.553,72.307L82.635,72.307L85.094,71.106Z" style="fill:rgb(186,231,193);"/>
            </g>
            <g transform="matrix(7.90449,0,0,1.73436,-569.57,-53.359)">
                <rect x="82.342" y="71.124" width="3.906" height="2.887" style="fill:rgb(186,231,193);"/>
            </g>
            <g transform="matrix(0.217417,0,0,0.217417,21.6776,52.17)">
                <g transform="matrix(14,0,0,14,284.851,97.333)">
                    <path d="M0.555,-0.361C0.601,-0.351 0.636,-0.331 0.662,-0.302C0.687,-0.272 0.699,-0.234 0.699,-0.187C0.699,-0.127 0.677,-0.081 0.633,-0.049C0.588,-0.016 0.523,-0 0.436,-0L0.114,-0L0.114,-0.7L0.416,-0.7C0.494,-0.7 0.555,-0.684 0.598,-0.653C0.641,-0.622 0.662,-0.577 0.662,-0.52C0.662,-0.481 0.653,-0.448 0.634,-0.422C0.615,-0.395 0.588,-0.374 0.555,-0.361ZM0.188,-0.639L0.188,-0.385L0.411,-0.385C0.468,-0.385 0.511,-0.396 0.542,-0.418C0.573,-0.439 0.588,-0.471 0.588,-0.512C0.588,-0.553 0.573,-0.585 0.542,-0.607C0.511,-0.628 0.468,-0.639 0.411,-0.639L0.188,-0.639ZM0.435,-0.061C0.498,-0.061 0.545,-0.072 0.577,-0.093C0.609,-0.114 0.625,-0.148 0.625,-0.193C0.625,-0.28 0.562,-0.324 0.435,-0.324L0.188,-0.324L0.188,-0.061L0.435,-0.061Z" style="fill:rgb(51,51,51);fill-rule:nonzero;"/>
                </g>
                <g transform="matrix(14,0,0,14,295.407,97.333)">
                    <path d="M0.541,-0.526L0.278,0.063C0.257,0.112 0.232,0.147 0.204,0.168C0.176,0.189 0.142,0.199 0.103,0.199C0.078,0.199 0.054,0.195 0.032,0.187C0.01,0.179 -0.009,0.167 -0.025,0.151L0.008,0.098C0.035,0.125 0.067,0.138 0.104,0.138C0.128,0.138 0.149,0.131 0.166,0.118C0.183,0.105 0.198,0.082 0.213,0.05L0.236,-0.001L0.001,-0.526L0.075,-0.526L0.273,-0.079L0.471,-0.526L0.541,-0.526Z" style="fill:rgb(51,51,51);fill-rule:nonzero;"/>
                </g>
                <g transform="matrix(14,0,0,14,303.205,97.333)">
                    <path d="M0.376,-0.032C0.363,-0.02 0.346,-0.011 0.327,-0.005C0.307,0.002 0.286,0.005 0.265,0.005C0.216,0.005 0.178,-0.008 0.151,-0.035C0.124,-0.062 0.111,-0.099 0.111,-0.148L0.111,-0.466L0.017,-0.466L0.017,-0.526L0.111,-0.526L0.111,-0.641L0.182,-0.641L0.182,-0.526L0.342,-0.526L0.342,-0.466L0.182,-0.466L0.182,-0.152C0.182,-0.121 0.19,-0.097 0.206,-0.081C0.221,-0.064 0.244,-0.056 0.273,-0.056C0.288,-0.056 0.302,-0.058 0.316,-0.063C0.329,-0.068 0.341,-0.074 0.351,-0.083L0.376,-0.032Z" style="fill:rgb(51,51,51);fill-rule:nonzero;"/>
                </g>
                <g transform="matrix(14,0,0,14,308.623,97.333)">
                    <path d="M0.557,-0.241L0.117,-0.241C0.121,-0.186 0.142,-0.142 0.18,-0.109C0.218,-0.075 0.266,-0.058 0.324,-0.058C0.357,-0.058 0.387,-0.064 0.414,-0.076C0.441,-0.087 0.465,-0.104 0.485,-0.127L0.525,-0.081C0.502,-0.053 0.472,-0.032 0.438,-0.017C0.403,-0.002 0.364,0.005 0.322,0.005C0.268,0.005 0.22,-0.007 0.179,-0.03C0.137,-0.053 0.104,-0.084 0.081,-0.125C0.058,-0.166 0.046,-0.212 0.046,-0.263C0.046,-0.314 0.057,-0.36 0.08,-0.401C0.102,-0.442 0.133,-0.473 0.172,-0.496C0.211,-0.519 0.254,-0.53 0.303,-0.53C0.352,-0.53 0.395,-0.519 0.434,-0.496C0.473,-0.473 0.503,-0.442 0.525,-0.402C0.547,-0.361 0.558,-0.315 0.558,-0.263L0.557,-0.241ZM0.303,-0.469C0.252,-0.469 0.21,-0.453 0.176,-0.421C0.141,-0.388 0.122,-0.346 0.117,-0.294L0.49,-0.294C0.485,-0.346 0.466,-0.388 0.432,-0.421C0.397,-0.453 0.354,-0.469 0.303,-0.469Z" style="fill:rgb(51,51,51);fill-rule:nonzero;"/>
                </g>
                <g transform="matrix(14,0,0,14,320.747,97.333)">
                    <path d="M0.553,-0.187L0.163,-0.187L0.079,-0L0.002,-0L0.322,-0.7L0.395,-0.7L0.715,-0L0.637,-0L0.553,-0.187ZM0.526,-0.247L0.358,-0.623L0.19,-0.247L0.526,-0.247Z" style="fill:rgb(51,51,51);fill-rule:nonzero;"/>
                </g>
                <g transform="matrix(14,0,0,14,330.785,97.333)">
                    <path d="M0.167,-0.423C0.184,-0.458 0.209,-0.485 0.242,-0.503C0.274,-0.521 0.315,-0.53 0.364,-0.53L0.364,-0.461L0.347,-0.462C0.292,-0.462 0.248,-0.445 0.217,-0.411C0.186,-0.377 0.17,-0.329 0.17,-0.268L0.17,-0L0.099,-0L0.099,-0.526L0.167,-0.526L0.167,-0.423Z" style="fill:rgb(51,51,51);fill-rule:nonzero;"/>
                </g>
                <g transform="matrix(14,0,0,14,336.287,97.333)">
                    <path d="M0.167,-0.423C0.184,-0.458 0.209,-0.485 0.242,-0.503C0.274,-0.521 0.315,-0.53 0.364,-0.53L0.364,-0.461L0.347,-0.462C0.292,-0.462 0.248,-0.445 0.217,-0.411C0.186,-0.377 0.17,-0.329 0.17,-0.268L0.17,-0L0.099,-0L0.099,-0.526L0.167,-0.526L0.167,-0.423Z" style="fill:rgb(51,51,51);fill-rule:nonzero;"/>
                </g>
                <g transform="matrix(14,0,0,14,341.243,97.333)">
                    <path d="M0.283,-0.53C0.352,-0.53 0.404,-0.513 0.441,-0.479C0.478,-0.444 0.496,-0.393 0.496,-0.326L0.496,-0L0.428,-0L0.428,-0.082C0.412,-0.055 0.389,-0.033 0.358,-0.018C0.327,-0.003 0.29,0.005 0.247,0.005C0.188,0.005 0.142,-0.009 0.107,-0.037C0.072,-0.065 0.055,-0.102 0.055,-0.148C0.055,-0.193 0.071,-0.229 0.104,-0.256C0.136,-0.283 0.187,-0.297 0.258,-0.297L0.425,-0.297L0.425,-0.329C0.425,-0.374 0.412,-0.409 0.387,-0.433C0.362,-0.456 0.325,-0.468 0.276,-0.468C0.243,-0.468 0.211,-0.463 0.18,-0.452C0.149,-0.44 0.123,-0.425 0.101,-0.406L0.069,-0.459C0.096,-0.482 0.128,-0.499 0.165,-0.512C0.202,-0.524 0.242,-0.53 0.283,-0.53ZM0.258,-0.051C0.298,-0.051 0.332,-0.06 0.361,-0.079C0.39,-0.097 0.411,-0.123 0.425,-0.158L0.425,-0.244L0.26,-0.244C0.17,-0.244 0.125,-0.213 0.125,-0.15C0.125,-0.119 0.137,-0.095 0.16,-0.078C0.183,-0.06 0.216,-0.051 0.258,-0.051Z" style="fill:rgb(51,51,51);fill-rule:nonzero;"/>
                </g>
                <g transform="matrix(14,0,0,14,349.363,97.333)">
                    <path d="M0.541,-0.526L0.278,0.063C0.257,0.112 0.232,0.147 0.204,0.168C0.176,0.189 0.142,0.199 0.103,0.199C0.078,0.199 0.054,0.195 0.032,0.187C0.01,0.179 -0.009,0.167 -0.025,0.151L0.008,0.098C0.035,0.125 0.067,0.138 0.104,0.138C0.128,0.138 0.149,0.131 0.166,0.118C0.183,0.105 0.198,0.082 0.213,0.05L0.236,-0.001L0.001,-0.526L0.075,-0.526L0.273,-0.079L0.471,-0.526L0.541,-0.526Z" style="fill:rgb(51,51,51);fill-rule:nonzero;"/>
                </g>
            </g>
        </g>
        <g id="Tag:-..." serif:id="Tag: ..." transform="matrix(4.59945,0,0,4.59945,221.309,96.4598)">
            <g transform="matrix(0.000853892,-1.01803,1.08168,0.000907279,3.01566,159.061)">
                <path d="M85.094,71.106L87.553,72.307L82.635,72.307L85.094,71.106Z" style="fill:rgb(186,231,193);"/>
            </g>
            <g transform="matrix(7.90449,0,0,1.73436,-569.57,-53.359)">
                <rect x="82.342" y="71.124" width="3.906" height="2.887" style="fill:rgb(186,231,193);"/>
            </g>
            <g transform="matrix(0.217417,0,0,0.217417,21.6776,52.17)">
                <g transform="matrix(14,0,0,14,284.851,97.333)">
                    <path d="M0.106,0.005C0.091,0.005 0.079,-0 0.069,-0.011C0.058,-0.022 0.053,-0.035 0.053,-0.05C0.053,-0.065 0.058,-0.078 0.069,-0.089C0.079,-0.099 0.091,-0.104 0.106,-0.104C0.121,-0.104 0.133,-0.099 0.144,-0.089C0.155,-0.078 0.16,-0.065 0.16,-0.05C0.16,-0.035 0.155,-0.022 0.144,-0.011C0.133,-0 0.121,0.005 0.106,0.005Z" style="fill:rgb(51,51,51);fill-rule:nonzero;"/>
                </g>
                <g transform="matrix(14,0,0,14,287.819,97.333)">
                    <path d="M0.106,0.005C0.091,0.005 0.079,-0 0.069,-0.011C0.058,-0.022 0.053,-0.035 0.053,-0.05C0.053,-0.065 0.058,-0.078 0.069,-0.089C0.079,-0.099 0.091,-0.104 0.106,-0.104C0.121,-0.104 0.133,-0.099 0.144,-0.089C0.155,-0.078 0.16,-0.065 0.16,-0.05C0.16,-0.035 0.155,-0.022 0.144,-0.011C0.133,-0 0.121,0.005 0.106,0.005Z" style="fill:rgb(51,51,51);fill-rule:nonzero;"/>
                </g>
                <g transform="matrix(14,0,0,14,290.787,97.333)">
                    <path d="M0.106,0.005C0.091,0.005 0.079,-0 0.069,-0.011C0.058,-0.022 0.053,-0.035 0.053,-0.05C0.053,-0.065 0.058,-0.078 0.069,-0.089C0.079,-0.099 0.091,-0.104 0.106,-0.104C0.121,-0.104 0.133,-0.099 0.144,-0.089C0.155,-0.078 0.16,-0.065 0.16,-0.05C0.16,-0.035 0.155,-0.022 0.144,-0.011C0.133,-0 0.121,0.005 0.106,0.005Z" style="fill:rgb(51,51,51);fill-rule:nonzero;"/>
                </g>
            </g>
        </g>
        <g id="Tag:-Per-Organization" serif:id="Tag: Per Organization" transform="matrix(4.59945,0,0,4.59945,61.3493,57.2374)">
            <g transform="matrix(0.000853892,-1.01803,1.08168,0.000907279,3.01566,159.061)">
                <path d="M85.094,71.106L87.553,72.307L82.635,72.307L85.094,71.106Z" style="fill:rgb(186,231,193);"/>
            </g>
            <g transform="matrix(7.90449,0,0,1.73436,-569.57,-53.359)">
                <rect x="82.342" y="71.124" width="3.906" height="2.887" style="fill:rgb(186,231,193);"/>
            </g>
            <g transform="matrix(0.217417,0,0,0.217417,21.6776,52.17)">
                <g transform="matrix(14,0,0,14,284.851,97.333)">
                    <path d="M0.841,-0.7L0.841,-0L0.77,-0L0.77,-0.56L0.495,-0.089L0.46,-0.089L0.185,-0.557L0.185,-0L0.114,-0L0.114,-0.7L0.175,-0.7L0.479,-0.181L0.78,-0.7L0.841,-0.7Z" style="fill:rgb(51,51,51);fill-rule:nonzero;"/>
                </g>
                <g transform="matrix(14,0,0,14,298.221,97.333)">
                    <path d="M0.114,-0.7L0.188,-0.7L0.188,-0.064L0.58,-0.064L0.58,-0L0.114,-0L0.114,-0.7Z" style="fill:rgb(51,51,51);fill-rule:nonzero;"/>
                </g>
                <g transform="matrix(14,0,0,14,310.135,97.333)">
                    <path d="M0.25,-0.636L0.004,-0.636L0.004,-0.7L0.57,-0.7L0.57,-0.636L0.324,-0.636L0.324,-0L0.25,-0L0.25,-0.636Z" style="fill:rgb(51,51,51);fill-rule:nonzero;"/>
                </g>
                <g transform="matrix(14,0,0,14,317.975,97.333)">
                    <path d="M0.167,-0.423C0.184,-0.458 0.209,-0.485 0.242,-0.503C0.274,-0.521 0.315,-0.53 0.364,-0.53L0.364,-0.461L0.347,-0.462C0.292,-0.462 0.248,-0.445 0.217,-0.411C0.186,-0.377 0.17,-0.329 0.17,-0.268L0.17,-0L0.099,-0L0.099,-0.526L0.167,-0.526L0.167,-0.423Z" style="fill:rgb(51,51,51);fill-rule:nonzero;"/>
                </g>
                <g transform="matrix(14,0,0,14,322.931,97.333)">
                    <path d="M0.283,-0.53C0.352,-0.53 0.404,-0.513 0.441,-0.479C0.478,-0.444 0.496,-0.393 0.496,-0.326L0.496,-0L0.428,-0L0.428,-0.082C0.412,-0.055 0.389,-0.033 0.358,-0.018C0.327,-0.003 0.29,0.005 0.247,0.005C0.188,0.005 0.142,-0.009 0.107,-0.037C0.072,-0.065 0.055,-0.102 0.055,-0.148C0.055,-0.193 0.071,-0.229 0.104,-0.256C0.136,-0.283 0.187,-0.297 0.258,-0.297L0.425,-0.297L0.425,-0.329C0.425,-0.374 0.412,-0.409 0.387,-0.433C0.362,-0.456 0.325,-0.468 0.276,-0.468C0.243,-0.468 0.211,-0.463 0.18,-0.452C0.149,-0.44 0.123,-0.425 0.101,-0.406L0.069,-0.459C0.096,-0.482 0.128,-0.499 0.165,-0.512C0.202,-0.524 0.242,-0.53 0.283,-0.53ZM0.258,-0.051C0.298,-0.051 0.332,-0.06 0.361,-0.079C0.39,-0.097 0.411,-0.123 0.425,-0.158L0.425,-0.244L0.26,-0.244C0.17,-0.244 0.125,-0.213 0.125,-0.15C0.125,-0.119 0.137,-0.095 0.16,-0.078C0.183,-0.06 0.216,-0.051 0.258,-0.051Z" style="fill:rgb(51,51,51);fill-rule:nonzero;"/>
                </g>
                <g transform="matrix(14,0,0,14,331.191,97.333)">
                    <path d="M0.099,-0.526L0.17,-0.526L0.17,-0L0.099,-0L0.099,-0.526ZM0.135,-0.641C0.12,-0.641 0.108,-0.646 0.098,-0.656C0.088,-0.666 0.083,-0.678 0.083,-0.692C0.083,-0.705 0.088,-0.717 0.098,-0.727C0.108,-0.737 0.12,-0.742 0.135,-0.742C0.15,-0.742 0.162,-0.737 0.172,-0.728C0.182,-0.718 0.187,-0.706 0.187,-0.693C0.187,-0.678 0.182,-0.666 0.172,-0.656C0.162,-0.646 0.15,-0.641 0.135,-0.641Z" style="fill:rgb(51,51,51);fill-rule:nonzero;"/>
                </g>
                <g transform="matrix(14,0,0,14,334.957,97.333)">
                    <path d="M0.367,-0.53C0.433,-0.53 0.486,-0.511 0.525,-0.473C0.564,-0.434 0.583,-0.378 0.583,-0.305L0.583,-0L0.512,-0L0.512,-0.298C0.512,-0.353 0.498,-0.394 0.471,-0.423C0.444,-0.452 0.405,-0.466 0.354,-0.466C0.297,-0.466 0.253,-0.449 0.22,-0.416C0.187,-0.382 0.17,-0.335 0.17,-0.276L0.17,-0L0.099,-0L0.099,-0.526L0.167,-0.526L0.167,-0.429C0.186,-0.461 0.213,-0.486 0.248,-0.504C0.282,-0.521 0.322,-0.53 0.367,-0.53Z" style="fill:rgb(51,51,51);fill-rule:nonzero;"/>
                </g>
                <g transform="matrix(14,0,0,14,344.435,97.333)">
                    <path d="M0.099,-0.526L0.17,-0.526L0.17,-0L0.099,-0L0.099,-0.526ZM0.135,-0.641C0.12,-0.641 0.108,-0.646 0.098,-0.656C0.088,-0.666 0.083,-0.678 0.083,-0.692C0.083,-0.705 0.088,-0.717 0.098,-0.727C0.108,-0.737 0.12,-0.742 0.135,-0.742C0.15,-0.742 0.162,-0.737 0.172,-0.728C0.182,-0.718 0.187,-0.706 0.187,-0.693C0.187,-0.678 0.182,-0.666 0.172,-0.656C0.162,-0.646 0.15,-0.641 0.135,-0.641Z" style="fill:rgb(51,51,51);fill-rule:nonzero;"/>
                </g>
                <g transform="matrix(14,0,0,14,348.201,97.333)">
                    <path d="M0.367,-0.53C0.433,-0.53 0.486,-0.511 0.525,-0.473C0.564,-0.434 0.583,-0.378 0.583,-0.305L0.583,-0L0.512,-0L0.512,-0.298C0.512,-0.353 0.498,-0.394 0.471,-0.423C0.444,-0.452 0.405,-0.466 0.354,-0.466C0.297,-0.466 0.253,-0.449 0.22,-0.416C0.187,-0.382 0.17,-0.335 0.17,-0.276L0.17,-0L0.099,-0L0.099,-0.526L0.167,-0.526L0.167,-0.429C0.186,-0.461 0.213,-0.486 0.248,-0.504C0.282,-0.521 0.322,-0.53 0.367,-0.53Z" style="fill:rgb(51,51,51);fill-rule:nonzero;"/>
                </g>
                <g transform="matrix(14,0,0,14,357.679,97.333)">
                    <path d="M0.586,-0.526L0.586,-0.064C0.586,0.025 0.564,0.092 0.521,0.135C0.477,0.178 0.411,0.199 0.323,0.199C0.274,0.199 0.228,0.192 0.185,0.178C0.141,0.163 0.105,0.143 0.078,0.118L0.114,0.064C0.139,0.087 0.17,0.104 0.207,0.117C0.243,0.13 0.281,0.136 0.321,0.136C0.388,0.136 0.437,0.121 0.468,0.09C0.499,0.058 0.515,0.01 0.515,-0.055L0.515,-0.122C0.493,-0.089 0.464,-0.063 0.429,-0.046C0.393,-0.029 0.353,-0.02 0.31,-0.02C0.261,-0.02 0.216,-0.031 0.176,-0.053C0.135,-0.074 0.103,-0.105 0.081,-0.144C0.057,-0.183 0.046,-0.227 0.046,-0.276C0.046,-0.325 0.057,-0.369 0.081,-0.408C0.103,-0.447 0.135,-0.477 0.175,-0.498C0.215,-0.519 0.26,-0.53 0.31,-0.53C0.355,-0.53 0.395,-0.521 0.431,-0.503C0.467,-0.485 0.496,-0.459 0.518,-0.425L0.518,-0.526L0.586,-0.526ZM0.317,-0.083C0.355,-0.083 0.389,-0.091 0.42,-0.108C0.451,-0.124 0.474,-0.147 0.492,-0.176C0.509,-0.205 0.517,-0.239 0.517,-0.276C0.517,-0.313 0.509,-0.347 0.492,-0.376C0.474,-0.405 0.451,-0.427 0.421,-0.444C0.39,-0.46 0.356,-0.468 0.317,-0.468C0.279,-0.468 0.245,-0.46 0.215,-0.444C0.184,-0.428 0.161,-0.405 0.144,-0.376C0.127,-0.347 0.118,-0.313 0.118,-0.276C0.118,-0.239 0.127,-0.205 0.144,-0.176C0.161,-0.147 0.184,-0.124 0.215,-0.108C0.245,-0.091 0.279,-0.083 0.317,-0.083Z" style="fill:rgb(51,51,51);fill-rule:nonzero;"/>
                </g>
                <g transform="matrix(14,0,0,14,370.951,97.333)">
                    <path d="M0.114,-0.7L0.399,-0.7C0.473,-0.7 0.538,-0.685 0.595,-0.656C0.652,-0.626 0.696,-0.584 0.727,-0.532C0.758,-0.478 0.774,-0.418 0.774,-0.35C0.774,-0.282 0.758,-0.222 0.727,-0.169C0.696,-0.116 0.652,-0.074 0.595,-0.045C0.538,-0.015 0.473,-0 0.399,-0L0.114,-0L0.114,-0.7ZM0.395,-0.064C0.456,-0.064 0.51,-0.076 0.556,-0.101C0.602,-0.125 0.638,-0.159 0.663,-0.202C0.688,-0.245 0.701,-0.294 0.701,-0.35C0.701,-0.406 0.688,-0.456 0.663,-0.499C0.638,-0.542 0.602,-0.575 0.556,-0.6C0.51,-0.624 0.456,-0.636 0.395,-0.636L0.188,-0.636L0.188,-0.064L0.395,-0.064Z" style="fill:rgb(51,51,51);fill-rule:nonzero;"/>
                </g>
                <g transform="matrix(14,0,0,14,382.515,97.333)">
                    <path d="M0.283,-0.53C0.352,-0.53 0.404,-0.513 0.441,-0.479C0.478,-0.444 0.496,-0.393 0.496,-0.326L0.496,-0L0.428,-0L0.428,-0.082C0.412,-0.055 0.389,-0.033 0.358,-0.018C0.327,-0.003 0.29,0.005 0.247,0.005C0.188,0.005 0.142,-0.009 0.107,-0.037C0.072,-0.065 0.055,-0.102 0.055,-0.148C0.055,-0.193 0.071,-0.229 0.104,-0.256C0.136,-0.283 0.187,-0.297 0.258,-0.297L0.425,-0.297L0.425,-0.329C0.425,-0.374 0.412,-0.409 0.387,-0.433C0.362,-0.456 0.325,-0.468 0.276,-0.468C0.243,-0.468 0.211,-0.463 0.18,-0.452C0.149,-0.44 0.123,-0.425 0.101,-0.406L0.069,-0.459C0.096,-0.482 0.128,-0.499 0.165,-0.512C0.202,-0.524 0.242,-0.53 0.283,-0.53ZM0.258,-0.051C0.298,-0.051 0.332,-0.06 0.361,-0.079C0.39,-0.097 0.411,-0.123 0.425,-0.158L0.425,-0.244L0.26,-0.244C0.17,-0.244 0.125,-0.213 0.125,-0.15C0.125,-0.119 0.137,-0.095 0.16,-0.078C0.183,-0.06 0.216,-0.051 0.258,-0.051Z" style="fill:rgb(51,51,51);fill-rule:nonzero;"/>
                </g>
                <g transform="matrix(14,0,0,14,390.775,97.333)">
                    <path d="M0.376,-0.032C0.363,-0.02 0.346,-0.011 0.327,-0.005C0.307,0.002 0.286,0.005 0.265,0.005C0.216,0.005 0.178,-0.008 0.151,-0.035C0.124,-0.062 0.111,-0.099 0.111,-0.148L0.111,-0.466L0.017,-0.466L0.017,-0.526L0.111,-0.526L0.111,-0.641L0.182,-0.641L0.182,-0.526L0.342,-0.526L0.342,-0.466L0.182,-0.466L0.182,-0.152C0.182,-0.121 0.19,-0.097 0.206,-0.081C0.221,-0.064 0.244,-0.056 0.273,-0.056C0.288,-0.056 0.302,-0.058 0.316,-0.063C0.329,-0.068 0.341,-0.074 0.351,-0.083L0.376,-0.032Z" style="fill:rgb(51,51,51);fill-rule:nonzero;"/>
                </g>
                <g transform="matrix(14,0,0,14,396.459,97.333)">
                    <path d="M0.283,-0.53C0.352,-0.53 0.404,-0.513 0.441,-0.479C0.478,-0.444 0.496,-0.393 0.496,-0.326L0.496,-0L0.428,-0L0.428,-0.082C0.412,-0.055 0.389,-0.033 0.358,-0.018C0.327,-0.003 0.29,0.005 0.247,0.005C0.188,0.005 0.142,-0.009 0.107,-0.037C0.072,-0.065 0.055,-0.102 0.055,-0.148C0.055,-0.193 0.071,-0.229 0.104,-0.256C0.136,-0.283 0.187,-0.297 0.258,-0.297L0.425,-0.297L0.425,-0.329C0.425,-0.374 0.412,-0.409 0.387,-0.433C0.362,-0.456 0.325,-0.468 0.276,-0.468C0.243,-0.468 0.211,-0.463 0.18,-0.452C0.149,-0.44 0.123,-0.425 0.101,-0.406L0.069,-0.459C0.096,-0.482 0.128,-0.499 0.165,-0.512C0.202,-0.524 0.242,-0.53 0.283,-0.53ZM0.258,-0.051C0.298,-0.051 0.332,-0.06 0.361,-0.079C0.39,-0.097 0.411,-0.123 0.425,-0.158L0.425,-0.244L0.26,-0.244C0.17,-0.244 0.125,-0.213 0.125,-0.15C0.125,-0.119 0.137,-0.095 0.16,-0.078C0.183,-0.06 0.216,-0.051 0.258,-0.051Z" style="fill:rgb(51,51,51);fill-rule:nonzero;"/>
                </g>
            </g>
        </g>
    </g>
</svg>
