<?xml version="1.0" encoding="UTF-8" standalone="no"?><!DOCTYPE svg PUBLIC "-//W3C//DTD SVG 1.1//EN" "http://www.w3.org/Graphics/SVG/1.1/DTD/svg11.dtd"><svg width="100%" height="100%" viewBox="0 0 3032 250" version="1.1" xmlns="http://www.w3.org/2000/svg" xmlns:xlink="http://www.w3.org/1999/xlink" xml:space="preserve" xmlns:serif="http://www.serif.com/" style="fill-rule:evenodd;clip-rule:evenodd;stroke-linejoin:round;stroke-miterlimit:2;"><g id="Declarations"><rect x="0" y="-0" width="468.75" height="250" style="fill:#ecd2b5;"/><rect x="468.75" y="-0" width="2562.5" height="250" style="fill:#feefe0;"/><path d="M111.603,139.275c1.644,-0 2.995,-0.171 4.053,-0.513c1.888,-0.635 3.434,-1.856 4.639,-3.662c0.96,-1.449 1.652,-3.304 2.075,-5.567c0.244,-1.351 0.366,-2.604 0.366,-3.759c-0,-4.444 -0.883,-7.894 -2.649,-10.352c-1.766,-2.458 -4.61,-3.686 -8.533,-3.686l-8.618,-0l0,27.539l8.667,-0Zm-13.55,-31.714l14.527,-0c4.931,-0 8.756,1.749 11.474,5.249c2.425,3.157 3.638,7.202 3.638,12.134c-0,3.808 -0.716,7.251 -2.148,10.327c-2.523,5.436 -6.861,8.154 -13.013,8.154l-14.478,0l0,-35.864Z" style="fill-rule:nonzero;"/><path d="M144.245,116.692c1.855,-0 3.654,0.435 5.395,1.306c1.742,0.871 3.068,1.998 3.98,3.381c0.879,1.318 1.465,2.857 1.758,4.614c0.26,1.205 0.39,3.125 0.39,5.762l-19.165,0c0.082,2.653 0.708,4.781 1.88,6.384c1.172,1.604 2.987,2.405 5.444,2.405c2.295,0 4.126,-0.757 5.494,-2.27c0.781,-0.879 1.334,-1.897 1.66,-3.052l4.321,-0c-0.114,0.96 -0.492,2.03 -1.135,3.21c-0.643,1.18 -1.363,2.145 -2.161,2.893c-1.335,1.302 -2.987,2.181 -4.956,2.637c-1.058,0.261 -2.254,0.391 -3.589,0.391c-3.255,-0 -6.014,-1.184 -8.276,-3.553c-2.263,-2.368 -3.394,-5.684 -3.394,-9.948c0,-4.199 1.14,-7.609 3.418,-10.23c2.279,-2.62 5.257,-3.93 8.936,-3.93Zm7.007,11.572c-0.179,-1.904 -0.595,-3.426 -1.246,-4.566c-1.204,-2.115 -3.214,-3.173 -6.03,-3.173c-2.018,-0 -3.711,0.728 -5.078,2.185c-1.367,1.456 -2.091,3.308 -2.173,5.554l14.527,-0Z" style="fill-rule:nonzero;"/><path d="M171.247,116.521c2.946,-0 5.342,0.716 7.19,2.148c1.847,1.432 2.958,3.898 3.332,7.398l-4.272,-0c-0.261,-1.612 -0.855,-2.95 -1.783,-4.017c-0.927,-1.066 -2.417,-1.599 -4.467,-1.599c-2.8,0 -4.802,1.368 -6.006,4.102c-0.781,1.774 -1.172,3.963 -1.172,6.567c-0,2.621 0.553,4.826 1.66,6.617c1.107,1.79 2.848,2.685 5.225,2.685c1.823,0 3.267,-0.557 4.333,-1.672c1.066,-1.115 1.803,-2.641 2.21,-4.578l4.272,0c-0.488,3.467 -1.709,6.002 -3.662,7.605c-1.953,1.603 -4.451,2.405 -7.495,2.405c-3.418,-0 -6.144,-1.249 -8.179,-3.748c-2.034,-2.498 -3.052,-5.619 -3.052,-9.363c0,-4.589 1.115,-8.162 3.345,-10.717c2.23,-2.556 5.07,-3.833 8.521,-3.833Z" style="fill-rule:nonzero;"/><rect x="186.286" y="107.561" width="4.395" height="35.864" style="fill-rule:nonzero;"/><path d="M200.641,136.467c0,1.27 0.464,2.27 1.392,3.003c0.928,0.732 2.026,1.099 3.296,1.099c1.546,-0 3.043,-0.359 4.492,-1.075c2.441,-1.188 3.662,-3.133 3.662,-5.835l0,-3.54c-0.537,0.342 -1.229,0.627 -2.075,0.855c-0.847,0.228 -1.677,0.39 -2.49,0.488l-2.662,0.342c-1.595,0.211 -2.791,0.545 -3.588,1.001c-1.351,0.765 -2.027,1.986 -2.027,3.662Zm10.645,-8.887c1.009,-0.13 1.684,-0.553 2.026,-1.269c0.195,-0.391 0.293,-0.952 0.293,-1.685c0,-1.497 -0.533,-2.584 -1.599,-3.259c-1.066,-0.676 -2.592,-1.013 -4.578,-1.013c-2.295,-0 -3.922,0.618 -4.882,1.855c-0.538,0.684 -0.888,1.701 -1.05,3.052l-4.102,-0c0.082,-3.223 1.127,-5.465 3.137,-6.726c2.01,-1.262 4.342,-1.892 6.995,-1.892c3.076,-0 5.575,0.586 7.495,1.758c1.904,1.171 2.857,2.994 2.857,5.468l-0,15.064c-0,0.456 0.093,0.822 0.28,1.098c0.187,0.277 0.582,0.415 1.184,0.415c0.196,0 0.415,-0.012 0.66,-0.036c0.244,-0.025 0.504,-0.061 0.781,-0.11l-0,3.247c-0.684,0.195 -1.205,0.317 -1.563,0.366c-0.358,0.049 -0.846,0.074 -1.465,0.074c-1.513,-0 -2.612,-0.538 -3.295,-1.612c-0.359,-0.569 -0.611,-1.375 -0.757,-2.417c-0.895,1.172 -2.181,2.189 -3.858,3.052c-1.676,0.863 -3.523,1.294 -5.542,1.294c-2.425,-0 -4.406,-0.737 -5.945,-2.21c-1.538,-1.473 -2.307,-3.316 -2.307,-5.529c0,-2.425 0.757,-4.305 2.271,-5.64c1.514,-1.335 3.499,-2.157 5.957,-2.466l7.007,-0.879Z" style="fill-rule:nonzero;"/><path d="M225.202,117.278l4.175,-0l-0,4.516c0.341,-0.879 1.18,-1.949 2.514,-3.21c1.335,-1.262 2.873,-1.892 4.614,-1.892c0.082,-0 0.22,0.008 0.416,0.024c0.195,0.016 0.528,0.049 1,0.098l0,4.638c-0.26,-0.048 -0.5,-0.081 -0.72,-0.097c-0.219,-0.017 -0.46,-0.025 -0.72,-0.025c-2.213,0 -3.914,0.712 -5.102,2.137c-1.189,1.424 -1.783,3.063 -1.783,4.919l0,15.039l-4.394,0l-0,-26.147Z" style="fill-rule:nonzero;"/><path d="M245.099,136.467c0,1.27 0.464,2.27 1.392,3.003c0.928,0.732 2.026,1.099 3.296,1.099c1.546,-0 3.043,-0.359 4.492,-1.075c2.441,-1.188 3.662,-3.133 3.662,-5.835l0,-3.54c-0.537,0.342 -1.229,0.627 -2.075,0.855c-0.847,0.228 -1.677,0.39 -2.49,0.488l-2.662,0.342c-1.595,0.211 -2.791,0.545 -3.588,1.001c-1.351,0.765 -2.027,1.986 -2.027,3.662Zm10.645,-8.887c1.009,-0.13 1.684,-0.553 2.026,-1.269c0.195,-0.391 0.293,-0.952 0.293,-1.685c0,-1.497 -0.533,-2.584 -1.599,-3.259c-1.066,-0.676 -2.592,-1.013 -4.578,-1.013c-2.295,-0 -3.922,0.618 -4.882,1.855c-0.538,0.684 -0.888,1.701 -1.05,3.052l-4.102,-0c0.082,-3.223 1.127,-5.465 3.137,-6.726c2.01,-1.262 4.342,-1.892 6.995,-1.892c3.076,-0 5.575,0.586 7.495,1.758c1.904,1.171 2.857,2.994 2.857,5.468l-0,15.064c-0,0.456 0.093,0.822 0.28,1.098c0.187,0.277 0.582,0.415 1.184,0.415c0.196,0 0.415,-0.012 0.66,-0.036c0.244,-0.025 0.504,-0.061 0.781,-0.11l-0,3.247c-0.684,0.195 -1.205,0.317 -1.563,0.366c-0.358,0.049 -0.846,0.074 -1.465,0.074c-1.513,-0 -2.612,-0.538 -3.295,-1.612c-0.358,-0.569 -0.611,-1.375 -0.757,-2.417c-0.895,1.172 -2.181,2.189 -3.858,3.052c-1.676,0.863 -3.523,1.294 -5.542,1.294c-2.425,-0 -4.406,-0.737 -5.944,-2.21c-1.539,-1.473 -2.308,-3.316 -2.308,-5.529c0,-2.425 0.757,-4.305 2.271,-5.64c1.514,-1.335 3.499,-2.157 5.957,-2.466l7.007,-0.879Z" style="fill-rule:nonzero;"/><path d="M270.417,109.978l4.443,-0l-0,7.3l4.175,-0l-0,3.588l-4.175,0l-0,17.066c-0,0.911 0.309,1.522 0.928,1.831c0.341,0.179 0.911,0.268 1.709,0.268c0.211,0 0.439,-0.004 0.683,-0.012c0.244,-0.008 0.529,-0.028 0.855,-0.061l-0,3.467c-0.505,0.146 -1.03,0.252 -1.575,0.317c-0.545,0.065 -1.135,0.098 -1.77,0.098c-2.051,0 -3.442,-0.525 -4.175,-1.575c-0.732,-1.049 -1.098,-2.413 -1.098,-4.089l-0,-17.31l-3.54,0l-0,-3.588l3.54,-0l-0,-7.3Z" style="fill-rule:nonzero;"/><path d="M283.429,117.4l4.468,-0l0,26.025l-4.468,0l0,-26.025Zm0,-9.839l4.468,-0l0,4.98l-4.468,0l0,-4.98Z" style="fill-rule:nonzero;"/><path d="M304.914,140.593c2.913,-0 4.911,-1.103 5.993,-3.308c1.083,-2.206 1.624,-4.659 1.624,-7.361c-0,-2.441 -0.391,-4.427 -1.172,-5.957c-1.237,-2.409 -3.369,-3.613 -6.397,-3.613c-2.685,-0 -4.638,1.025 -5.859,3.076c-1.221,2.051 -1.831,4.525 -1.831,7.422c0,2.783 0.61,5.102 1.831,6.958c1.221,1.855 3.158,2.783 5.811,2.783Zm0.171,-24.072c3.369,-0 6.217,1.123 8.544,3.369c2.328,2.246 3.492,5.55 3.492,9.912c-0,4.215 -1.026,7.699 -3.076,10.449c-2.051,2.751 -5.233,4.126 -9.546,4.126c-3.597,0 -6.454,-1.216 -8.57,-3.65c-2.116,-2.433 -3.174,-5.7 -3.174,-9.802c0,-4.395 1.115,-7.894 3.345,-10.498c2.23,-2.604 5.225,-3.906 8.985,-3.906Z" style="fill-rule:nonzero;"/><path d="M322.345,117.278l4.175,-0l0,3.71c1.237,-1.529 2.547,-2.628 3.931,-3.295c1.383,-0.668 2.921,-1.001 4.614,-1.001c3.711,-0 6.217,1.294 7.52,3.881c0.716,1.416 1.074,3.443 1.074,6.08l-0,16.772l-4.468,0l0,-16.479c0,-1.596 -0.236,-2.881 -0.708,-3.858c-0.781,-1.628 -2.197,-2.441 -4.248,-2.441c-1.042,-0 -1.896,0.105 -2.564,0.317c-1.204,0.358 -2.262,1.074 -3.173,2.149c-0.733,0.862 -1.209,1.753 -1.429,2.673c-0.219,0.919 -0.329,2.234 -0.329,3.943l-0,13.696l-4.395,0l0,-26.147Z" style="fill-rule:nonzero;"/><path d="M352.765,135.222c0.13,1.465 0.497,2.588 1.099,3.369c1.107,1.416 3.027,2.124 5.762,2.124c1.627,0 3.059,-0.354 4.296,-1.062c1.237,-0.708 1.856,-1.803 1.856,-3.284c-0,-1.123 -0.496,-1.977 -1.489,-2.563c-0.635,-0.358 -1.888,-0.773 -3.76,-1.245l-3.491,-0.879c-2.23,-0.554 -3.874,-1.172 -4.932,-1.856c-1.888,-1.188 -2.832,-2.832 -2.832,-4.931c0,-2.474 0.891,-4.476 2.673,-6.006c1.783,-1.53 4.179,-2.295 7.19,-2.295c3.939,-0 6.779,1.156 8.521,3.467c1.09,1.465 1.619,3.043 1.587,4.736l-4.151,0c-0.081,-0.993 -0.431,-1.896 -1.049,-2.71c-1.01,-1.155 -2.759,-1.733 -5.249,-1.733c-1.661,-0 -2.918,0.317 -3.772,0.952c-0.855,0.635 -1.282,1.473 -1.282,2.515c-0,1.139 0.561,2.05 1.684,2.734c0.651,0.407 1.612,0.765 2.881,1.074l2.905,0.708c3.158,0.765 5.274,1.506 6.348,2.222c1.709,1.123 2.564,2.889 2.564,5.298c-0,2.327 -0.883,4.337 -2.649,6.03c-1.766,1.693 -4.456,2.539 -8.069,2.539c-3.89,-0 -6.645,-0.883 -8.264,-2.649c-1.62,-1.766 -2.486,-3.951 -2.6,-6.555l4.223,-0Z" style="fill-rule:nonzero;"/><g id="Tag:-Attestations" serif:id="Tag: Attestations"><path d="M529.095,63.901l18.715,-35.965l-0.06,71.96l-18.655,-35.995Z" style="fill:#ecd2b5;"/><rect x="547.81" y="27.936" width="443.75" height="71.959" style="fill:#ecd2b5;"/><path d="M600.379,63.044l-4.764,-13.865l-5.063,13.865l9.827,-0Zm-6.985,-18.522l4.806,0l11.386,31.382l-4.657,-0l-3.183,-9.4l-12.411,0l-3.397,9.4l-4.358,-0l11.814,-31.382Z" style="fill:#333;fill-rule:nonzero;"/><path d="M613.709,46.637l3.888,0l0,6.388l3.653,-0l-0,3.14l-3.653,-0l0,14.932c0,0.798 0.271,1.332 0.812,1.602c0.299,0.157 0.797,0.235 1.495,0.235c0.185,0 0.385,-0.003 0.598,-0.01c0.214,-0.007 0.463,-0.025 0.748,-0.054l-0,3.034c-0.442,0.128 -0.901,0.22 -1.378,0.277c-0.477,0.057 -0.993,0.086 -1.549,0.086c-1.794,-0 -3.012,-0.459 -3.653,-1.378c-0.64,-0.919 -0.961,-2.111 -0.961,-3.578l0,-15.146l-3.097,-0l-0,-3.14l3.097,-0l0,-6.388Z" style="fill:#333;fill-rule:nonzero;"/><path d="M625.864,46.637l3.888,0l0,6.388l3.653,-0l0,3.14l-3.653,-0l0,14.932c0,0.798 0.271,1.332 0.812,1.602c0.299,0.157 0.797,0.235 1.495,0.235c0.185,0 0.385,-0.003 0.598,-0.01c0.214,-0.007 0.463,-0.025 0.748,-0.054l0,3.034c-0.441,0.128 -0.901,0.22 -1.378,0.277c-0.477,0.057 -0.993,0.086 -1.549,0.086c-1.794,-0 -3.012,-0.459 -3.652,-1.378c-0.641,-0.919 -0.962,-2.111 -0.962,-3.578l0,-15.146l-3.097,-0l-0,-3.14l3.097,-0l0,-6.388Z" style="fill:#333;fill-rule:nonzero;"/><path d="M646.778,52.512c1.623,-0 3.197,0.381 4.721,1.143c1.524,0.762 2.685,1.748 3.482,2.959c0.769,1.153 1.282,2.499 1.538,4.037c0.228,1.054 0.342,2.734 0.342,5.042l-16.769,-0c0.071,2.321 0.619,4.183 1.644,5.586c1.026,1.403 2.614,2.104 4.764,2.104c2.008,-0 3.61,-0.662 4.807,-1.987c0.683,-0.769 1.168,-1.659 1.452,-2.67l3.782,-0c-0.1,0.84 -0.431,1.777 -0.994,2.809c-0.562,1.033 -1.193,1.876 -1.89,2.532c-1.168,1.139 -2.614,1.908 -4.337,2.307c-0.926,0.228 -1.972,0.341 -3.14,0.341c-2.849,0 -5.262,-1.036 -7.242,-3.108c-1.98,-2.072 -2.969,-4.974 -2.969,-8.705c-0,-3.674 0.997,-6.658 2.99,-8.951c1.994,-2.293 4.6,-3.439 7.819,-3.439Zm6.131,10.126c-0.157,-1.667 -0.52,-2.998 -1.09,-3.995c-1.053,-1.851 -2.812,-2.777 -5.276,-2.777c-1.766,-0 -3.247,0.637 -4.443,1.912c-1.197,1.274 -1.83,2.894 -1.902,4.86l12.711,-0Z" style="fill:#333;fill-rule:nonzero;"/><path d="M663.868,68.726c0.114,1.282 0.434,2.264 0.961,2.948c0.969,1.239 2.649,1.858 5.042,1.858c1.424,0 2.677,-0.309 3.759,-0.929c1.083,-0.619 1.624,-1.577 1.624,-2.873c-0,-0.983 -0.434,-1.73 -1.303,-2.243c-0.556,-0.313 -1.652,-0.677 -3.29,-1.09l-3.055,-0.769c-1.951,-0.484 -3.389,-1.025 -4.315,-1.623c-1.652,-1.04 -2.478,-2.478 -2.478,-4.315c-0,-2.165 0.78,-3.917 2.339,-5.255c1.56,-1.339 3.657,-2.008 6.291,-2.008c3.447,-0 5.932,1.011 7.456,3.033c0.954,1.282 1.417,2.663 1.388,4.144l-3.631,0c-0.071,-0.868 -0.378,-1.659 -0.919,-2.371c-0.883,-1.011 -2.414,-1.517 -4.593,-1.517c-1.452,0 -2.553,0.278 -3.3,0.833c-0.748,0.556 -1.122,1.289 -1.122,2.201c0,0.997 0.492,1.794 1.474,2.392c0.57,0.356 1.41,0.67 2.521,0.94l2.542,0.62c2.763,0.669 4.614,1.317 5.554,1.944c1.496,0.982 2.243,2.528 2.243,4.635c0,2.037 -0.772,3.796 -2.317,5.277c-1.546,1.481 -3.899,2.222 -7.061,2.222c-3.403,-0 -5.814,-0.773 -7.231,-2.318c-1.417,-1.545 -2.175,-3.457 -2.275,-5.736l3.696,-0Z" style="fill:#333;fill-rule:nonzero;"/><path d="M684.226,46.637l3.888,0l-0,6.388l3.653,-0l-0,3.14l-3.653,-0l-0,14.932c-0,0.798 0.271,1.332 0.812,1.602c0.299,0.157 0.797,0.235 1.495,0.235c0.185,0 0.385,-0.003 0.598,-0.01c0.214,-0.007 0.463,-0.025 0.748,-0.054l-0,3.034c-0.442,0.128 -0.901,0.22 -1.378,0.277c-0.477,0.057 -0.993,0.086 -1.549,0.086c-1.794,-0 -3.012,-0.459 -3.653,-1.378c-0.641,-0.919 -0.961,-2.111 -0.961,-3.578l0,-15.146l-3.097,-0l-0,-3.14l3.097,-0l0,-6.388Z" style="fill:#333;fill-rule:nonzero;"/><path d="M698.56,69.815c0,1.111 0.406,1.987 1.218,2.628c0.812,0.641 1.773,0.961 2.884,0.961c1.353,0 2.663,-0.313 3.93,-0.94c2.137,-1.039 3.205,-2.741 3.205,-5.105l-0,-3.098c-0.47,0.299 -1.076,0.549 -1.816,0.748c-0.741,0.199 -1.467,0.342 -2.179,0.427l-2.329,0.299c-1.395,0.185 -2.442,0.477 -3.14,0.876c-1.182,0.669 -1.773,1.738 -1.773,3.204Zm9.314,-7.775c0.883,-0.114 1.474,-0.485 1.773,-1.111c0.171,-0.342 0.257,-0.833 0.257,-1.474c-0,-1.31 -0.467,-2.261 -1.4,-2.852c-0.933,-0.591 -2.268,-0.887 -4.005,-0.887c-2.008,0 -3.432,0.542 -4.273,1.624c-0.47,0.598 -0.776,1.488 -0.918,2.67l-3.589,0c0.071,-2.82 0.986,-4.781 2.745,-5.885c1.759,-1.104 3.799,-1.656 6.12,-1.656c2.692,0 4.878,0.513 6.559,1.538c1.666,1.026 2.499,2.621 2.499,4.785l-0,13.181c-0,0.399 0.082,0.719 0.246,0.961c0.163,0.242 0.509,0.364 1.036,0.364c0.171,-0 0.363,-0.011 0.576,-0.033c0.214,-0.021 0.442,-0.053 0.684,-0.096l0,2.842c-0.598,0.17 -1.054,0.277 -1.367,0.32c-0.313,0.043 -0.741,0.064 -1.282,0.064c-1.324,0 -2.286,-0.47 -2.884,-1.41c-0.313,-0.498 -0.534,-1.203 -0.662,-2.115c-0.783,1.026 -1.908,1.916 -3.375,2.671c-1.467,0.754 -3.084,1.132 -4.849,1.132c-2.122,-0 -3.856,-0.645 -5.202,-1.934c-1.346,-1.288 -2.019,-2.901 -2.019,-4.838c0,-2.122 0.662,-3.767 1.987,-4.935c1.324,-1.168 3.062,-1.887 5.212,-2.157l6.131,-0.769Z" style="fill:#333;fill-rule:nonzero;"/><path d="M720.713,46.637l3.888,0l-0,6.388l3.653,-0l-0,3.14l-3.653,-0l-0,14.932c-0,0.798 0.27,1.332 0.812,1.602c0.299,0.157 0.797,0.235 1.495,0.235c0.185,0 0.384,-0.003 0.598,-0.01c0.214,-0.007 0.463,-0.025 0.748,-0.054l-0,3.034c-0.442,0.128 -0.901,0.22 -1.378,0.277c-0.477,0.057 -0.993,0.086 -1.549,0.086c-1.794,-0 -3.012,-0.459 -3.653,-1.378c-0.641,-0.919 -0.961,-2.111 -0.961,-3.578l-0,-15.146l-3.098,-0l0,-3.14l3.098,-0l-0,-6.388Z" style="fill:#333;fill-rule:nonzero;"/><path d="M732.099,53.131l3.909,0l0,22.773l-3.909,-0l-0,-22.773Zm-0,-8.609l3.909,0l0,4.358l-3.909,0l-0,-4.358Z" style="fill:#333;fill-rule:nonzero;"/><path d="M750.898,73.426c2.549,-0 4.297,-0.965 5.244,-2.895c0.947,-1.93 1.421,-4.077 1.421,-6.441c-0,-2.136 -0.342,-3.873 -1.026,-5.212c-1.082,-2.108 -2.948,-3.162 -5.596,-3.162c-2.35,0 -4.059,0.898 -5.127,2.692c-1.069,1.794 -1.603,3.959 -1.603,6.494c0,2.435 0.534,4.465 1.603,6.088c1.068,1.624 2.762,2.436 5.084,2.436Zm0.149,-21.064c2.948,0 5.441,0.983 7.477,2.948c2.037,1.966 3.055,4.857 3.055,8.674c-0,3.688 -0.897,6.736 -2.692,9.143c-1.794,2.406 -4.578,3.61 -8.352,3.61c-3.148,-0 -5.647,-1.065 -7.499,-3.194c-1.851,-2.129 -2.777,-4.988 -2.777,-8.577c0,-3.845 0.976,-6.907 2.927,-9.186c1.951,-2.278 4.572,-3.418 7.861,-3.418Z" style="fill:#333;fill-rule:nonzero;"/><path d="M766.15,53.025l3.653,-0l0,3.247c1.083,-1.339 2.229,-2.3 3.44,-2.884c1.21,-0.584 2.556,-0.876 4.037,-0.876c3.247,-0 5.441,1.132 6.58,3.397c0.626,1.239 0.94,3.012 0.94,5.319l-0,14.676l-3.91,-0l0,-14.42c0,-1.396 -0.206,-2.521 -0.619,-3.375c-0.684,-1.424 -1.923,-2.136 -3.717,-2.136c-0.912,-0 -1.659,0.092 -2.243,0.277c-1.054,0.314 -1.98,0.94 -2.777,1.88c-0.641,0.755 -1.058,1.535 -1.25,2.339c-0.192,0.805 -0.288,1.955 -0.288,3.45l-0,11.985l-3.846,-0l0,-22.879Z" style="fill:#333;fill-rule:nonzero;"/><path d="M792.768,68.726c0.114,1.282 0.434,2.264 0.961,2.948c0.969,1.239 2.649,1.858 5.042,1.858c1.424,0 2.677,-0.309 3.759,-0.929c1.083,-0.619 1.624,-1.577 1.624,-2.873c0,-0.983 -0.434,-1.73 -1.303,-2.243c-0.555,-0.313 -1.652,-0.677 -3.29,-1.09l-3.055,-0.769c-1.951,-0.484 -3.389,-1.025 -4.315,-1.623c-1.652,-1.04 -2.478,-2.478 -2.478,-4.315c0,-2.165 0.78,-3.917 2.339,-5.255c1.56,-1.339 3.657,-2.008 6.291,-2.008c3.447,-0 5.932,1.011 7.456,3.033c0.954,1.282 1.417,2.663 1.388,4.144l-3.631,0c-0.071,-0.868 -0.378,-1.659 -0.919,-2.371c-0.883,-1.011 -2.414,-1.517 -4.593,-1.517c-1.452,0 -2.552,0.278 -3.3,0.833c-0.748,0.556 -1.122,1.289 -1.122,2.201c0,0.997 0.492,1.794 1.474,2.392c0.57,0.356 1.41,0.67 2.521,0.94l2.542,0.62c2.763,0.669 4.615,1.317 5.554,1.944c1.496,0.982 2.244,2.528 2.244,4.635c-0,2.037 -0.773,3.796 -2.318,5.277c-1.545,1.481 -3.899,2.222 -7.061,2.222c-3.403,-0 -5.814,-0.773 -7.231,-2.318c-1.417,-1.545 -2.175,-3.457 -2.275,-5.736l3.696,-0Z" style="fill:#333;fill-rule:nonzero;"/></g><g id="Tag:-Claims" serif:id="Tag: Claims"><path d="M529.095,186.47l18.715,-35.964l-0.06,71.96l-18.655,-35.996Z" style="fill:#ecd2b5;"/><rect x="547.81" y="150.506" width="443.75" height="71.959" style="fill:#ecd2b5;"/><path d="M597.495,166.238c3.973,-0 7.057,1.047 9.25,3.14c2.193,2.094 3.411,4.472 3.653,7.135l-4.144,0c-0.47,-2.022 -1.407,-3.624 -2.81,-4.806c-1.402,-1.182 -3.371,-1.773 -5.906,-1.773c-3.091,-0 -5.586,1.085 -7.488,3.257c-1.901,2.172 -2.852,5.501 -2.852,9.987c0,3.675 0.859,6.655 2.575,8.94c1.716,2.286 4.276,3.429 7.679,3.429c3.134,-0 5.519,-1.203 7.157,-3.61c0.868,-1.268 1.516,-2.934 1.944,-4.999l4.144,-0c-0.37,3.304 -1.595,6.074 -3.674,8.31c-2.493,2.692 -5.854,4.037 -10.083,4.037c-3.646,0 -6.708,-1.103 -9.186,-3.311c-3.261,-2.919 -4.892,-7.427 -4.892,-13.522c-0,-4.629 1.225,-8.424 3.674,-11.386c2.649,-3.219 6.302,-4.828 10.959,-4.828Z" style="fill:#333;fill-rule:nonzero;"/><rect x="615.461" y="167.092" width="3.845" height="31.381" style="fill:#333;fill-rule:nonzero;"/><path d="M628.022,192.385c-0,1.111 0.406,1.987 1.217,2.628c0.812,0.641 1.774,0.961 2.884,0.961c1.353,0 2.664,-0.313 3.931,-0.94c2.136,-1.039 3.204,-2.741 3.204,-5.105l0,-3.098c-0.47,0.299 -1.075,0.548 -1.815,0.748c-0.741,0.199 -1.467,0.342 -2.179,0.427l-2.329,0.299c-1.396,0.185 -2.442,0.477 -3.14,0.876c-1.182,0.669 -1.773,1.737 -1.773,3.204Zm9.314,-7.776c0.883,-0.113 1.474,-0.484 1.773,-1.11c0.171,-0.342 0.256,-0.834 0.256,-1.474c0,-1.311 -0.466,-2.261 -1.399,-2.852c-0.933,-0.591 -2.268,-0.887 -4.005,-0.887c-2.009,0 -3.433,0.541 -4.273,1.624c-0.47,0.598 -0.776,1.488 -0.918,2.67l-3.589,0c0.071,-2.82 0.986,-4.782 2.745,-5.885c1.759,-1.104 3.799,-1.656 6.12,-1.656c2.692,0 4.878,0.513 6.558,1.538c1.666,1.026 2.5,2.621 2.5,4.785l-0,13.181c-0,0.399 0.082,0.719 0.245,0.961c0.164,0.242 0.509,0.363 1.036,0.363c0.171,0 0.364,-0.01 0.577,-0.032c0.214,-0.021 0.442,-0.053 0.684,-0.096l-0,2.841c-0.598,0.171 -1.054,0.278 -1.367,0.321c-0.314,0.043 -0.741,0.064 -1.282,0.064c-1.325,-0 -2.286,-0.47 -2.884,-1.41c-0.313,-0.498 -0.534,-1.203 -0.662,-2.115c-0.784,1.026 -1.909,1.916 -3.376,2.67c-1.466,0.755 -3.083,1.133 -4.849,1.133c-2.122,-0 -3.856,-0.645 -5.202,-1.934c-1.345,-1.289 -2.018,-2.901 -2.018,-4.838c-0,-2.122 0.662,-3.767 1.986,-4.935c1.325,-1.168 3.062,-1.887 5.213,-2.157l6.131,-0.77Z" style="fill:#333;fill-rule:nonzero;"/><path d="M649.405,175.701l3.91,0l-0,22.773l-3.91,-0l0,-22.773Zm0,-8.609l3.91,0l-0,4.358l-3.91,0l0,-4.358Z" style="fill:#333;fill-rule:nonzero;"/><path d="M659.125,175.595l3.803,-0l-0,3.247c0.911,-1.125 1.737,-1.944 2.478,-2.457c1.267,-0.869 2.706,-1.303 4.315,-1.303c1.823,-0 3.29,0.448 4.401,1.346c0.626,0.512 1.196,1.267 1.709,2.264c0.854,-1.225 1.858,-2.133 3.012,-2.724c1.153,-0.591 2.449,-0.886 3.888,-0.886c3.076,-0 5.169,1.111 6.28,3.332c0.598,1.197 0.897,2.806 0.897,4.828l0,15.232l-3.994,-0l-0,-15.894c-0,-1.524 -0.381,-2.571 -1.143,-3.14c-0.762,-0.57 -1.691,-0.855 -2.788,-0.855c-1.51,0 -2.809,0.506 -3.899,1.517c-1.089,1.011 -1.634,2.699 -1.634,5.063l0,13.309l-3.909,-0l-0,-14.933c-0,-1.552 -0.185,-2.684 -0.556,-3.396c-0.583,-1.068 -1.673,-1.602 -3.268,-1.602c-1.453,-0 -2.774,0.562 -3.963,1.687c-1.189,1.125 -1.783,3.162 -1.783,6.11l-0,12.134l-3.846,-0l0,-22.879Z" style="fill:#333;fill-rule:nonzero;"/><path d="M697.855,191.296c0.114,1.282 0.435,2.264 0.962,2.948c0.968,1.239 2.648,1.858 5.041,1.858c1.424,0 2.677,-0.309 3.76,-0.929c1.082,-0.619 1.623,-1.577 1.623,-2.873c0,-0.983 -0.434,-1.73 -1.303,-2.243c-0.555,-0.313 -1.652,-0.677 -3.29,-1.09l-3.054,-0.769c-1.951,-0.484 -3.39,-1.025 -4.316,-1.623c-1.652,-1.04 -2.478,-2.478 -2.478,-4.315c0,-2.165 0.78,-3.917 2.34,-5.256c1.559,-1.338 3.656,-2.008 6.291,-2.008c3.446,0 5.931,1.012 7.455,3.034c0.954,1.282 1.417,2.663 1.389,4.144l-3.632,0c-0.071,-0.869 -0.377,-1.659 -0.918,-2.371c-0.883,-1.011 -2.414,-1.517 -4.593,-1.517c-1.453,0 -2.553,0.278 -3.301,0.833c-0.747,0.556 -1.121,1.289 -1.121,2.201c-0,0.997 0.491,1.794 1.474,2.392c0.569,0.356 1.41,0.67 2.52,0.94l2.543,0.62c2.762,0.669 4.614,1.317 5.554,1.944c1.495,0.982 2.243,2.528 2.243,4.635c-0,2.037 -0.773,3.796 -2.318,5.277c-1.545,1.481 -3.899,2.221 -7.06,2.221c-3.404,0 -5.814,-0.772 -7.231,-2.317c-1.417,-1.546 -2.176,-3.457 -2.275,-5.736l3.695,-0Z" style="fill:#333;fill-rule:nonzero;"/></g><g id="Tag:-Counter-Evidence" serif:id="Tag: Counter Evidence"><path d="M1029.22,186.47l18.715,-35.964l-0.06,71.96l-18.655,-35.996Z" style="fill:#ecd2b5;"/><rect x="1047.93" y="150.506" width="443.75" height="71.959" style="fill:#ecd2b5;"/><path d="M1097.62,166.238c3.974,-0 7.057,1.047 9.25,3.14c2.193,2.094 3.411,4.472 3.653,7.135l-4.144,0c-0.47,-2.022 -1.406,-3.624 -2.809,-4.806c-1.403,-1.182 -3.372,-1.773 -5.907,-1.773c-3.09,-0 -5.586,1.085 -7.487,3.257c-1.902,2.172 -2.852,5.501 -2.852,9.987c-0,3.675 0.858,6.655 2.574,8.94c1.716,2.286 4.276,3.429 7.68,3.429c3.133,-0 5.518,-1.203 7.156,-3.61c0.869,-1.268 1.517,-2.934 1.944,-4.999l4.144,-0c-0.37,3.304 -1.595,6.074 -3.674,8.31c-2.492,2.692 -5.853,4.037 -10.083,4.037c-3.646,0 -6.708,-1.103 -9.186,-3.311c-3.261,-2.919 -4.892,-7.427 -4.892,-13.522c0,-4.629 1.225,-8.424 3.674,-11.386c2.649,-3.219 6.302,-4.828 10.959,-4.828Z" style="fill:#333;fill-rule:nonzero;"/><path d="M1124.55,195.996c2.549,-0 4.298,-0.965 5.245,-2.895c0.947,-1.93 1.42,-4.077 1.42,-6.441c0,-2.136 -0.342,-3.873 -1.025,-5.212c-1.083,-2.108 -2.948,-3.162 -5.597,-3.162c-2.35,0 -4.059,0.897 -5.127,2.692c-1.068,1.794 -1.602,3.959 -1.602,6.494c-0,2.435 0.534,4.465 1.602,6.088c1.068,1.624 2.763,2.436 5.084,2.436Zm0.15,-21.064c2.948,0 5.44,0.983 7.477,2.948c2.036,1.966 3.054,4.857 3.054,8.673c0,3.689 -0.897,6.737 -2.691,9.143c-1.795,2.407 -4.579,3.611 -8.353,3.611c-3.147,-0 -5.647,-1.065 -7.498,-3.194c-1.852,-2.129 -2.777,-4.988 -2.777,-8.577c-0,-3.845 0.975,-6.907 2.926,-9.186c1.952,-2.278 4.572,-3.418 7.862,-3.418Z" style="fill:#333;fill-rule:nonzero;"/><path d="M1143.65,175.595l0,15.188c0,1.168 0.185,2.122 0.556,2.863c0.683,1.367 1.958,2.05 3.823,2.05c2.678,0 4.501,-1.196 5.469,-3.588c0.527,-1.282 0.791,-3.041 0.791,-5.277l-0,-11.236l3.845,-0l-0,22.879l-3.632,-0l0.043,-3.376c-0.499,0.869 -1.118,1.603 -1.859,2.201c-1.467,1.196 -3.247,1.794 -5.34,1.794c-3.262,0 -5.483,-1.089 -6.665,-3.268c-0.641,-1.168 -0.962,-2.728 -0.962,-4.679l0,-15.551l3.931,-0Z" style="fill:#333;fill-rule:nonzero;"/><path d="M1164.14,175.595l3.653,-0l-0,3.247c1.082,-1.339 2.228,-2.3 3.439,-2.884c1.21,-0.584 2.556,-0.876 4.037,-0.876c3.247,-0 5.441,1.132 6.58,3.396c0.627,1.239 0.94,3.013 0.94,5.32l-0,14.676l-3.909,-0l-0,-14.42c-0,-1.396 -0.207,-2.521 -0.62,-3.375c-0.684,-1.424 -1.923,-2.136 -3.717,-2.136c-0.911,-0 -1.659,0.092 -2.243,0.277c-1.054,0.314 -1.98,0.94 -2.777,1.88c-0.641,0.755 -1.058,1.535 -1.25,2.339c-0.192,0.805 -0.288,1.955 -0.288,3.45l-0,11.985l-3.845,-0l-0,-22.879Z" style="fill:#333;fill-rule:nonzero;"/><path d="M1189.24,169.207l3.888,0l0,6.388l3.653,-0l0,3.14l-3.653,-0l0,14.932c0,0.798 0.271,1.332 0.812,1.602c0.299,0.157 0.797,0.235 1.495,0.235c0.185,0 0.385,-0.003 0.598,-0.01c0.214,-0.008 0.463,-0.025 0.748,-0.054l0,3.034c-0.441,0.128 -0.901,0.22 -1.378,0.277c-0.477,0.057 -0.993,0.086 -1.548,0.086c-1.795,-0 -3.013,-0.46 -3.653,-1.378c-0.641,-0.919 -0.962,-2.111 -0.962,-3.578l0,-15.146l-3.097,-0l-0,-3.14l3.097,-0l0,-6.388Z" style="fill:#333;fill-rule:nonzero;"/><path d="M1210.15,175.082c1.623,-0 3.197,0.381 4.721,1.143c1.524,0.762 2.685,1.748 3.482,2.958c0.769,1.154 1.282,2.5 1.538,4.038c0.228,1.054 0.342,2.734 0.342,5.041l-16.769,0c0.071,2.322 0.619,4.184 1.644,5.587c1.026,1.402 2.614,2.104 4.764,2.104c2.008,-0 3.61,-0.662 4.807,-1.987c0.683,-0.769 1.168,-1.659 1.452,-2.67l3.782,-0c-0.1,0.84 -0.431,1.776 -0.994,2.809c-0.562,1.033 -1.193,1.876 -1.89,2.531c-1.168,1.14 -2.614,1.909 -4.337,2.308c-0.926,0.227 -1.972,0.341 -3.14,0.341c-2.848,0 -5.262,-1.036 -7.242,-3.108c-1.98,-2.072 -2.969,-4.974 -2.969,-8.705c-0,-3.674 0.997,-6.658 2.99,-8.951c1.994,-2.293 4.6,-3.439 7.819,-3.439Zm6.131,10.126c-0.157,-1.667 -0.52,-2.998 -1.09,-3.995c-1.053,-1.852 -2.812,-2.777 -5.276,-2.777c-1.766,-0 -3.247,0.637 -4.443,1.912c-1.197,1.274 -1.83,2.894 -1.902,4.86l12.711,-0Z" style="fill:#333;fill-rule:nonzero;"/><path d="M1225.06,175.595l3.653,-0l-0,3.952c0.299,-0.769 1.032,-1.706 2.2,-2.81c1.168,-1.103 2.514,-1.655 4.038,-1.655c0.071,-0 0.192,0.007 0.363,0.021c0.171,0.014 0.463,0.043 0.876,0.086l-0,4.059c-0.228,-0.043 -0.438,-0.072 -0.631,-0.086c-0.192,-0.014 -0.402,-0.021 -0.63,-0.021c-1.937,-0 -3.425,0.623 -4.464,1.869c-1.04,1.246 -1.56,2.681 -1.56,4.304l0,13.16l-3.845,-0l-0,-22.879Z" style="fill:#333;fill-rule:nonzero;"/><path d="M1252.6,167.092l22.879,0l-0,3.846l-18.735,-0l0,9.527l17.325,0l-0,3.632l-17.325,-0l0,10.638l19.055,0l0,3.739l-23.199,-0l-0,-31.382Z" style="fill:#333;fill-rule:nonzero;"/><path d="M1282.74,175.595l6.11,18.627l6.387,-18.627l4.208,-0l-8.63,22.879l-4.102,-0l-8.438,-22.879l4.465,-0Z" style="fill:#333;fill-rule:nonzero;"/><path d="M1302.74,175.701l3.909,0l0,22.773l-3.909,-0l0,-22.773Zm0,-8.609l3.909,0l0,4.358l-3.909,0l0,-4.358Z" style="fill:#333;fill-rule:nonzero;"/><path d="M1314.89,187.301c0,2.45 0.52,4.5 1.56,6.152c1.039,1.652 2.706,2.478 4.999,2.478c1.78,0 3.243,-0.765 4.39,-2.296c1.146,-1.531 1.719,-3.728 1.719,-6.59c0,-2.891 -0.591,-5.031 -1.773,-6.42c-1.182,-1.388 -2.642,-2.082 -4.379,-2.082c-1.937,-0 -3.507,0.74 -4.711,2.221c-1.203,1.481 -1.805,3.66 -1.805,6.537Zm5.79,-12.112c1.751,-0 3.218,0.37 4.4,1.111c0.684,0.427 1.46,1.174 2.329,2.243l-0,-11.557l3.695,-0l0,31.488l-3.46,-0l-0,-3.183c-0.898,1.41 -1.959,2.428 -3.183,3.054c-1.225,0.627 -2.628,0.94 -4.209,0.94c-2.549,0 -4.756,-1.071 -6.622,-3.215c-1.866,-2.143 -2.798,-4.995 -2.798,-8.555c-0,-3.333 0.85,-6.22 2.552,-8.663c1.702,-2.442 4.134,-3.663 7.296,-3.663Z" style="fill:#333;fill-rule:nonzero;"/><path d="M1346.32,175.082c1.624,-0 3.198,0.381 4.721,1.143c1.524,0.762 2.685,1.748 3.482,2.958c0.769,1.154 1.282,2.5 1.539,4.038c0.227,1.054 0.341,2.734 0.341,5.041l-16.769,0c0.071,2.322 0.619,4.184 1.645,5.587c1.025,1.402 2.613,2.104 4.764,2.104c2.008,-0 3.61,-0.662 4.806,-1.987c0.684,-0.769 1.168,-1.659 1.453,-2.67l3.781,-0c-0.1,0.84 -0.431,1.776 -0.993,2.809c-0.563,1.033 -1.193,1.876 -1.891,2.531c-1.168,1.14 -2.613,1.909 -4.337,2.308c-0.925,0.227 -1.972,0.341 -3.14,0.341c-2.848,0 -5.262,-1.036 -7.242,-3.108c-1.979,-2.072 -2.969,-4.974 -2.969,-8.705c-0,-3.674 0.997,-6.658 2.991,-8.951c1.994,-2.293 4.6,-3.439 7.818,-3.439Zm6.131,10.126c-0.156,-1.667 -0.52,-2.998 -1.089,-3.995c-1.054,-1.852 -2.813,-2.777 -5.277,-2.777c-1.766,-0 -3.247,0.637 -4.443,1.912c-1.196,1.274 -1.83,2.894 -1.901,4.86l12.71,-0Z" style="fill:#333;fill-rule:nonzero;"/><path d="M1361.12,175.595l3.653,-0l0,3.247c1.083,-1.339 2.229,-2.3 3.44,-2.884c1.21,-0.584 2.556,-0.876 4.037,-0.876c3.247,-0 5.44,1.132 6.58,3.396c0.626,1.239 0.94,3.013 0.94,5.32l-0,14.676l-3.91,-0l0,-14.42c0,-1.396 -0.206,-2.521 -0.619,-3.375c-0.684,-1.424 -1.923,-2.136 -3.717,-2.136c-0.912,-0 -1.659,0.092 -2.243,0.277c-1.054,0.314 -1.98,0.94 -2.777,1.88c-0.641,0.755 -1.058,1.535 -1.25,2.339c-0.192,0.805 -0.288,1.955 -0.288,3.45l-0,11.985l-3.846,-0l0,-22.879Z" style="fill:#333;fill-rule:nonzero;"/><path d="M1394.28,174.932c2.577,0 4.674,0.627 6.291,1.88c1.616,1.253 2.588,3.411 2.916,6.473l-3.739,-0c-0.227,-1.41 -0.747,-2.581 -1.559,-3.514c-0.812,-0.933 -2.115,-1.399 -3.909,-1.399c-2.45,-0 -4.202,1.196 -5.255,3.589c-0.684,1.552 -1.026,3.467 -1.026,5.746c0,2.293 0.484,4.223 1.453,5.789c0.968,1.567 2.492,2.35 4.571,2.35c1.595,0 2.859,-0.488 3.792,-1.463c0.933,-0.976 1.577,-2.311 1.933,-4.006l3.739,0c-0.427,3.034 -1.496,5.252 -3.205,6.655c-1.709,1.402 -3.895,2.104 -6.558,2.104c-2.99,-0 -5.376,-1.093 -7.156,-3.279c-1.78,-2.186 -2.67,-4.917 -2.67,-8.193c-0,-4.016 0.975,-7.142 2.926,-9.378c1.951,-2.236 4.436,-3.354 7.456,-3.354Z" style="fill:#333;fill-rule:nonzero;"/><path d="M1416.86,175.082c1.623,-0 3.197,0.381 4.721,1.143c1.524,0.762 2.684,1.748 3.482,2.958c0.769,1.154 1.281,2.5 1.538,4.038c0.228,1.054 0.342,2.734 0.342,5.041l-16.77,0c0.071,2.322 0.62,4.184 1.645,5.587c1.026,1.402 2.613,2.104 4.764,2.104c2.008,-0 3.61,-0.662 4.806,-1.987c0.684,-0.769 1.168,-1.659 1.453,-2.67l3.781,-0c-0.099,0.84 -0.431,1.776 -0.993,2.809c-0.563,1.033 -1.193,1.876 -1.891,2.531c-1.168,1.14 -2.613,1.909 -4.336,2.308c-0.926,0.227 -1.973,0.341 -3.141,0.341c-2.848,0 -5.262,-1.036 -7.241,-3.108c-1.98,-2.072 -2.97,-4.974 -2.97,-8.705c0,-3.674 0.997,-6.658 2.991,-8.951c1.994,-2.293 4.6,-3.439 7.819,-3.439Zm6.131,10.126c-0.157,-1.667 -0.52,-2.998 -1.09,-3.995c-1.054,-1.852 -2.813,-2.777 -5.276,-2.777c-1.766,-0 -3.247,0.637 -4.444,1.912c-1.196,1.274 -1.83,2.894 -1.901,4.86l12.711,-0Z" style="fill:#333;fill-rule:nonzero;"/></g><g id="Tag:-Conformance" serif:id="Tag: Conformance"><path d="M1528.98,63.901l18.716,-35.965l-0.061,71.96l-18.655,-35.995Z" style="fill:#ecd2b5;"/><rect x="1547.7" y="27.936" width="443.75" height="71.959" style="fill:#ecd2b5;"/><path d="M1597.38,43.668c3.973,-0 7.056,1.047 9.25,3.14c2.193,2.094 3.411,4.472 3.653,7.135l-4.145,0c-0.47,-2.022 -1.406,-3.624 -2.809,-4.806c-1.403,-1.182 -3.372,-1.773 -5.906,-1.773c-3.091,-0 -5.587,1.086 -7.488,3.257c-1.901,2.172 -2.852,5.501 -2.852,9.987c0,3.675 0.858,6.655 2.574,8.94c1.716,2.286 4.276,3.429 7.68,3.429c3.133,0 5.519,-1.203 7.156,-3.61c0.869,-1.268 1.517,-2.934 1.944,-4.999l4.145,0c-0.371,3.304 -1.595,6.074 -3.675,8.31c-2.492,2.692 -5.853,4.037 -10.083,4.037c-3.645,0 -6.707,-1.103 -9.185,-3.311c-3.262,-2.919 -4.892,-7.427 -4.892,-13.522c-0,-4.629 1.224,-8.424 3.674,-11.386c2.649,-3.219 6.302,-4.828 10.959,-4.828Z" style="fill:#333;fill-rule:nonzero;"/><path d="M1624.32,73.426c2.549,-0 4.297,-0.965 5.244,-2.895c0.947,-1.93 1.421,-4.077 1.421,-6.441c-0,-2.136 -0.342,-3.873 -1.026,-5.212c-1.082,-2.108 -2.948,-3.162 -5.597,-3.162c-2.349,0 -4.058,0.898 -5.127,2.692c-1.068,1.794 -1.602,3.959 -1.602,6.494c0,2.435 0.534,4.465 1.602,6.088c1.069,1.624 2.763,2.436 5.085,2.436Zm0.149,-21.064c2.948,0 5.44,0.983 7.477,2.948c2.037,1.966 3.055,4.857 3.055,8.674c-0,3.688 -0.897,6.736 -2.692,9.143c-1.794,2.406 -4.579,3.61 -8.353,3.61c-3.147,-0 -5.646,-1.065 -7.498,-3.194c-1.851,-2.129 -2.777,-4.988 -2.777,-8.577c0,-3.845 0.976,-6.907 2.927,-9.186c1.951,-2.278 4.571,-3.418 7.861,-3.418Z" style="fill:#333;fill-rule:nonzero;"/><path d="M1639.57,53.025l3.653,-0l0,3.247c1.083,-1.339 2.229,-2.3 3.44,-2.884c1.21,-0.584 2.556,-0.876 4.037,-0.876c3.247,-0 5.44,1.132 6.58,3.397c0.626,1.239 0.94,3.012 0.94,5.319l-0,14.676l-3.91,-0l0,-14.42c0,-1.396 -0.206,-2.521 -0.619,-3.375c-0.684,-1.424 -1.923,-2.136 -3.717,-2.136c-0.912,-0 -1.659,0.092 -2.243,0.277c-1.054,0.314 -1.98,0.94 -2.777,1.88c-0.641,0.755 -1.058,1.535 -1.25,2.339c-0.192,0.805 -0.288,1.955 -0.288,3.45l-0,11.985l-3.846,-0l0,-22.879Z" style="fill:#333;fill-rule:nonzero;"/><path d="M1664.87,49.543c0.057,-1.595 0.335,-2.763 0.833,-3.504c0.898,-1.31 2.628,-1.965 5.191,-1.965c0.243,-0 0.492,0.007 0.748,0.021c0.256,0.014 0.548,0.036 0.876,0.064l0,3.504c-0.399,-0.029 -0.687,-0.047 -0.865,-0.054c-0.178,-0.007 -0.346,-0.01 -0.502,-0.01c-1.168,-0 -1.866,0.302 -2.094,0.908c-0.228,0.605 -0.341,2.146 -0.341,4.624l3.802,0l0,3.034l-3.845,-0l-0,19.739l-3.803,-0l0,-19.739l-3.183,-0l0,-3.034l3.183,0l0,-3.588Z" style="fill:#333;fill-rule:nonzero;"/><path d="M1685.14,73.426c2.549,-0 4.298,-0.965 5.245,-2.895c0.947,-1.93 1.42,-4.077 1.42,-6.441c0,-2.136 -0.342,-3.873 -1.025,-5.212c-1.083,-2.108 -2.948,-3.162 -5.597,-3.162c-2.35,0 -4.059,0.898 -5.127,2.692c-1.068,1.794 -1.602,3.959 -1.602,6.494c-0,2.435 0.534,4.465 1.602,6.088c1.068,1.624 2.763,2.436 5.084,2.436Zm0.15,-21.064c2.948,0 5.44,0.983 7.476,2.948c2.037,1.966 3.055,4.857 3.055,8.674c0,3.688 -0.897,6.736 -2.691,9.143c-1.795,2.406 -4.579,3.61 -8.353,3.61c-3.147,-0 -5.647,-1.065 -7.498,-3.194c-1.852,-2.129 -2.777,-4.988 -2.777,-8.577c-0,-3.845 0.975,-6.907 2.926,-9.186c1.951,-2.278 4.572,-3.418 7.862,-3.418Z" style="fill:#333;fill-rule:nonzero;"/><path d="M1700.5,53.025l3.653,-0l-0,3.952c0.299,-0.769 1.032,-1.706 2.2,-2.809c1.168,-1.104 2.514,-1.656 4.037,-1.656c0.072,-0 0.193,0.007 0.364,0.021c0.17,0.015 0.462,0.043 0.875,0.086l0,4.059c-0.227,-0.043 -0.438,-0.072 -0.63,-0.086c-0.192,-0.014 -0.402,-0.021 -0.63,-0.021c-1.937,-0 -3.425,0.623 -4.465,1.869c-1.039,1.246 -1.559,2.681 -1.559,4.305l-0,13.159l-3.845,-0l-0,-22.879Z" style="fill:#333;fill-rule:nonzero;"/><path d="M1714.96,53.025l3.802,-0l0,3.247c0.912,-1.125 1.738,-1.944 2.478,-2.457c1.268,-0.869 2.706,-1.303 4.316,-1.303c1.823,-0 3.289,0.449 4.4,1.346c0.627,0.512 1.197,1.267 1.709,2.264c0.855,-1.225 1.859,-2.132 3.012,-2.723c1.154,-0.592 2.45,-0.887 3.888,-0.887c3.076,-0 5.17,1.111 6.281,3.332c0.598,1.197 0.897,2.806 0.897,4.828l-0,15.232l-3.995,-0l0,-15.894c0,-1.524 -0.381,-2.57 -1.143,-3.14c-0.762,-0.57 -1.691,-0.855 -2.787,-0.855c-1.51,0 -2.81,0.506 -3.899,1.517c-1.09,1.011 -1.634,2.699 -1.634,5.063l-0,13.309l-3.91,-0l0,-14.933c0,-1.552 -0.185,-2.684 -0.555,-3.396c-0.584,-1.068 -1.673,-1.602 -3.268,-1.602c-1.453,-0 -2.774,0.562 -3.963,1.687c-1.189,1.125 -1.784,3.162 -1.784,6.11l0,12.134l-3.845,-0l-0,-22.879Z" style="fill:#333;fill-rule:nonzero;"/><path d="M1754.35,69.815c-0,1.111 0.406,1.987 1.218,2.628c0.811,0.641 1.773,0.961 2.884,0.961c1.353,0 2.663,-0.313 3.93,-0.94c2.136,-1.039 3.205,-2.741 3.205,-5.105l-0,-3.098c-0.47,0.299 -1.076,0.549 -1.816,0.748c-0.741,0.199 -1.467,0.342 -2.179,0.427l-2.329,0.299c-1.395,0.185 -2.442,0.477 -3.14,0.876c-1.182,0.669 -1.773,1.738 -1.773,3.204Zm9.314,-7.775c0.883,-0.114 1.474,-0.485 1.773,-1.111c0.171,-0.342 0.256,-0.833 0.256,-1.474c0,-1.31 -0.466,-2.261 -1.399,-2.852c-0.933,-0.591 -2.268,-0.887 -4.005,-0.887c-2.008,0 -3.432,0.542 -4.273,1.624c-0.47,0.598 -0.776,1.488 -0.918,2.67l-3.589,0c0.071,-2.82 0.986,-4.781 2.745,-5.885c1.759,-1.104 3.799,-1.656 6.12,-1.656c2.692,0 4.878,0.513 6.558,1.538c1.667,1.026 2.5,2.621 2.5,4.785l-0,13.181c-0,0.399 0.082,0.719 0.245,0.961c0.164,0.242 0.51,0.364 1.037,0.364c0.17,-0 0.363,-0.011 0.576,-0.033c0.214,-0.021 0.442,-0.053 0.684,-0.096l-0,2.842c-0.598,0.17 -1.054,0.277 -1.367,0.32c-0.314,0.043 -0.741,0.064 -1.282,0.064c-1.324,0 -2.286,-0.47 -2.884,-1.41c-0.313,-0.498 -0.534,-1.203 -0.662,-2.115c-0.783,1.026 -1.909,1.916 -3.375,2.671c-1.467,0.754 -3.084,1.132 -4.85,1.132c-2.122,-0 -3.856,-0.645 -5.201,-1.934c-1.346,-1.288 -2.019,-2.901 -2.019,-4.838c-0,-2.122 0.662,-3.767 1.987,-4.935c1.324,-1.168 3.062,-1.887 5.212,-2.157l6.131,-0.769Z" style="fill:#333;fill-rule:nonzero;"/><path d="M1775.74,53.025l3.653,-0l-0,3.247c1.082,-1.339 2.228,-2.3 3.439,-2.884c1.21,-0.584 2.556,-0.876 4.037,-0.876c3.247,-0 5.441,1.132 6.58,3.397c0.627,1.239 0.94,3.012 0.94,5.319l-0,14.676l-3.909,-0l-0,-14.42c-0,-1.396 -0.207,-2.521 -0.62,-3.375c-0.683,-1.424 -1.922,-2.136 -3.717,-2.136c-0.911,-0 -1.659,0.092 -2.243,0.277c-1.054,0.314 -1.98,0.94 -2.777,1.88c-0.641,0.755 -1.057,1.535 -1.25,2.339c-0.192,0.805 -0.288,1.955 -0.288,3.45l-0,11.985l-3.845,-0l-0,-22.879Z" style="fill:#333;fill-rule:nonzero;"/><path d="M1808.89,52.362c2.578,0 4.675,0.627 6.291,1.88c1.617,1.254 2.589,3.411 2.916,6.473l-3.738,0c-0.228,-1.41 -0.748,-2.581 -1.56,-3.514c-0.812,-0.933 -2.115,-1.399 -3.909,-1.399c-2.45,-0 -4.201,1.196 -5.255,3.589c-0.684,1.552 -1.026,3.467 -1.026,5.746c0,2.293 0.485,4.223 1.453,5.789c0.969,1.567 2.492,2.35 4.572,2.35c1.595,0 2.859,-0.488 3.791,-1.463c0.933,-0.976 1.578,-2.311 1.934,-4.006l3.738,0c-0.427,3.034 -1.495,5.252 -3.204,6.655c-1.709,1.403 -3.895,2.104 -6.558,2.104c-2.991,-0 -5.377,-1.093 -7.157,-3.279c-1.78,-2.186 -2.67,-4.917 -2.67,-8.193c-0,-4.016 0.975,-7.142 2.927,-9.378c1.951,-2.236 4.436,-3.354 7.455,-3.354Z" style="fill:#333;fill-rule:nonzero;"/><path d="M1831.47,52.512c1.623,-0 3.197,0.381 4.721,1.143c1.524,0.762 2.685,1.748 3.482,2.959c0.769,1.153 1.282,2.499 1.538,4.037c0.228,1.054 0.342,2.734 0.342,5.042l-16.769,-0c0.071,2.321 0.619,4.183 1.644,5.586c1.026,1.403 2.614,2.104 4.764,2.104c2.008,-0 3.61,-0.662 4.807,-1.987c0.683,-0.769 1.168,-1.659 1.452,-2.67l3.781,-0c-0.099,0.84 -0.43,1.777 -0.993,2.809c-0.562,1.033 -1.193,1.876 -1.89,2.532c-1.168,1.139 -2.614,1.908 -4.337,2.307c-0.926,0.228 -1.972,0.341 -3.14,0.341c-2.849,0 -5.262,-1.036 -7.242,-3.108c-1.98,-2.072 -2.969,-4.974 -2.969,-8.705c-0,-3.674 0.996,-6.658 2.99,-8.951c1.994,-2.293 4.6,-3.439 7.819,-3.439Zm6.131,10.126c-0.157,-1.667 -0.52,-2.998 -1.09,-3.995c-1.053,-1.851 -2.812,-2.777 -5.276,-2.777c-1.766,-0 -3.247,0.637 -4.443,1.912c-1.197,1.274 -1.83,2.894 -1.902,4.86l12.711,-0Z" style="fill:#333;fill-rule:nonzero;"/></g><g id="Tag:-Confidence" serif:id="Tag: Confidence"><path d="M1528.98,186.47l18.716,-35.964l-0.061,71.96l-18.655,-35.996Z" style="fill:#ecd2b5;"/><rect x="1547.7" y="150.506" width="443.75" height="71.959" style="fill:#ecd2b5;"/><path d="M1597.38,166.238c3.973,-0 7.056,1.047 9.25,3.14c2.193,2.094 3.411,4.472 3.653,7.135l-4.145,0c-0.47,-2.022 -1.406,-3.624 -2.809,-4.806c-1.403,-1.182 -3.372,-1.773 -5.906,-1.773c-3.091,-0 -5.587,1.085 -7.488,3.257c-1.901,2.172 -2.852,5.501 -2.852,9.987c0,3.675 0.858,6.655 2.574,8.94c1.716,2.286 4.276,3.429 7.68,3.429c3.133,-0 5.519,-1.203 7.156,-3.61c0.869,-1.268 1.517,-2.934 1.944,-4.999l4.145,-0c-0.371,3.304 -1.595,6.074 -3.675,8.31c-2.492,2.692 -5.853,4.037 -10.083,4.037c-3.645,0 -6.707,-1.103 -9.185,-3.311c-3.262,-2.919 -4.892,-7.427 -4.892,-13.522c-0,-4.629 1.224,-8.424 3.674,-11.386c2.649,-3.219 6.302,-4.828 10.959,-4.828Z" style="fill:#333;fill-rule:nonzero;"/><path d="M1624.32,195.996c2.549,-0 4.297,-0.965 5.244,-2.895c0.947,-1.93 1.421,-4.077 1.421,-6.441c-0,-2.136 -0.342,-3.873 -1.026,-5.212c-1.082,-2.108 -2.948,-3.162 -5.597,-3.162c-2.349,0 -4.058,0.897 -5.127,2.692c-1.068,1.794 -1.602,3.959 -1.602,6.494c0,2.435 0.534,4.465 1.602,6.088c1.069,1.624 2.763,2.436 5.085,2.436Zm0.149,-21.064c2.948,0 5.44,0.983 7.477,2.948c2.037,1.966 3.055,4.857 3.055,8.673c-0,3.689 -0.897,6.737 -2.692,9.143c-1.794,2.407 -4.579,3.611 -8.353,3.611c-3.147,-0 -5.646,-1.065 -7.498,-3.194c-1.851,-2.129 -2.777,-4.988 -2.777,-8.577c0,-3.845 0.976,-6.907 2.927,-9.186c1.951,-2.278 4.571,-3.418 7.861,-3.418Z" style="fill:#333;fill-rule:nonzero;"/><path d="M1639.57,175.595l3.653,-0l0,3.247c1.083,-1.339 2.229,-2.3 3.44,-2.884c1.21,-0.584 2.556,-0.876 4.037,-0.876c3.247,-0 5.44,1.132 6.58,3.396c0.626,1.239 0.94,3.013 0.94,5.32l-0,14.676l-3.91,-0l0,-14.42c0,-1.396 -0.206,-2.521 -0.619,-3.375c-0.684,-1.424 -1.923,-2.136 -3.717,-2.136c-0.912,-0 -1.659,0.092 -2.243,0.277c-1.054,0.314 -1.98,0.94 -2.777,1.88c-0.641,0.755 -1.058,1.535 -1.25,2.339c-0.192,0.805 -0.288,1.955 -0.288,3.45l-0,11.985l-3.846,-0l0,-22.879Z" style="fill:#333;fill-rule:nonzero;"/><path d="M1664.87,172.113c0.057,-1.596 0.335,-2.763 0.833,-3.504c0.898,-1.31 2.628,-1.965 5.191,-1.965c0.243,-0 0.492,0.007 0.748,0.021c0.256,0.014 0.548,0.036 0.876,0.064l0,3.504c-0.399,-0.029 -0.687,-0.047 -0.865,-0.054c-0.178,-0.007 -0.346,-0.01 -0.502,-0.01c-1.168,-0 -1.866,0.302 -2.094,0.907c-0.228,0.606 -0.341,2.147 -0.341,4.625l3.802,0l0,3.034l-3.845,-0l-0,19.739l-3.803,-0l0,-19.739l-3.183,-0l0,-3.034l3.183,0l0,-3.588Zm11.344,-0.663l-0,-4.358l3.845,0l-0,4.358l-3.845,0Zm-0,4.251l3.845,0l-0,22.773l-3.845,-0l-0,-22.773Z" style="fill:#333;fill-rule:nonzero;"/><path d="M1688.22,187.301c0,2.45 0.52,4.5 1.56,6.152c1.039,1.652 2.706,2.478 4.999,2.478c1.78,0 3.243,-0.765 4.389,-2.296c1.147,-1.531 1.72,-3.728 1.72,-6.59c0,-2.891 -0.591,-5.031 -1.773,-6.42c-1.182,-1.388 -2.642,-2.082 -4.379,-2.082c-1.937,-0 -3.507,0.74 -4.711,2.221c-1.203,1.481 -1.805,3.66 -1.805,6.537Zm5.789,-12.112c1.752,-0 3.219,0.37 4.401,1.111c0.684,0.427 1.46,1.174 2.329,2.243l-0,-11.557l3.695,-0l0,31.488l-3.46,-0l-0,-3.183c-0.898,1.41 -1.959,2.428 -3.183,3.054c-1.225,0.627 -2.628,0.94 -4.209,0.94c-2.549,0 -4.756,-1.071 -6.622,-3.215c-1.866,-2.143 -2.799,-4.995 -2.799,-8.555c0,-3.333 0.851,-6.22 2.553,-8.663c1.702,-2.442 4.134,-3.663 7.295,-3.663Z" style="fill:#333;fill-rule:nonzero;"/><path d="M1719.64,175.082c1.624,-0 3.197,0.381 4.721,1.143c1.524,0.762 2.685,1.748 3.482,2.958c0.769,1.154 1.282,2.5 1.538,4.038c0.228,1.054 0.342,2.734 0.342,5.041l-16.769,0c0.071,2.322 0.619,4.184 1.645,5.587c1.025,1.402 2.613,2.104 4.764,2.104c2.008,-0 3.61,-0.662 4.806,-1.987c0.684,-0.769 1.168,-1.659 1.453,-2.67l3.781,-0c-0.1,0.84 -0.431,1.776 -0.994,2.809c-0.562,1.033 -1.192,1.876 -1.89,2.531c-1.168,1.14 -2.613,1.909 -4.337,2.308c-0.925,0.227 -1.972,0.341 -3.14,0.341c-2.848,0 -5.262,-1.036 -7.242,-3.108c-1.979,-2.072 -2.969,-4.974 -2.969,-8.705c-0,-3.674 0.997,-6.658 2.991,-8.951c1.993,-2.293 4.6,-3.439 7.818,-3.439Zm6.131,10.126c-0.156,-1.667 -0.52,-2.998 -1.089,-3.995c-1.054,-1.852 -2.813,-2.777 -5.277,-2.777c-1.766,-0 -3.247,0.637 -4.443,1.912c-1.196,1.274 -1.83,2.894 -1.901,4.86l12.71,-0Z" style="fill:#333;fill-rule:nonzero;"/><path d="M1734.44,175.595l3.653,-0l0,3.247c1.083,-1.339 2.229,-2.3 3.44,-2.884c1.21,-0.584 2.556,-0.876 4.037,-0.876c3.247,-0 5.44,1.132 6.58,3.396c0.626,1.239 0.94,3.013 0.94,5.32l-0,14.676l-3.91,-0l0,-14.42c0,-1.396 -0.206,-2.521 -0.619,-3.375c-0.684,-1.424 -1.923,-2.136 -3.717,-2.136c-0.912,-0 -1.659,0.092 -2.243,0.277c-1.054,0.314 -1.98,0.94 -2.777,1.88c-0.641,0.755 -1.058,1.535 -1.25,2.339c-0.192,0.805 -0.288,1.955 -0.288,3.45l-0,11.985l-3.846,-0l0,-22.879Z" style="fill:#333;fill-rule:nonzero;"/><path d="M1767.6,174.932c2.577,0 4.674,0.627 6.291,1.88c1.616,1.253 2.588,3.411 2.916,6.473l-3.739,-0c-0.227,-1.41 -0.747,-2.581 -1.559,-3.514c-0.812,-0.933 -2.115,-1.399 -3.909,-1.399c-2.45,-0 -4.202,1.196 -5.256,3.589c-0.683,1.552 -1.025,3.467 -1.025,5.746c0,2.293 0.484,4.223 1.453,5.789c0.968,1.567 2.492,2.35 4.571,2.35c1.595,0 2.859,-0.488 3.792,-1.463c0.933,-0.976 1.577,-2.311 1.933,-4.006l3.739,0c-0.427,3.034 -1.496,5.252 -3.205,6.655c-1.709,1.402 -3.895,2.104 -6.558,2.104c-2.991,-0 -5.376,-1.093 -7.156,-3.279c-1.78,-2.186 -2.67,-4.917 -2.67,-8.193c-0,-4.016 0.975,-7.142 2.926,-9.378c1.951,-2.236 4.436,-3.354 7.456,-3.354Z" style="fill:#333;fill-rule:nonzero;"/><path d="M1790.18,175.082c1.623,-0 3.197,0.381 4.721,1.143c1.523,0.762 2.684,1.748 3.482,2.958c0.769,1.154 1.281,2.5 1.538,4.038c0.228,1.054 0.342,2.734 0.342,5.041l-16.77,0c0.071,2.322 0.62,4.184 1.645,5.587c1.025,1.402 2.613,2.104 4.764,2.104c2.008,-0 3.61,-0.662 4.806,-1.987c0.684,-0.769 1.168,-1.659 1.453,-2.67l3.781,-0c-0.1,0.84 -0.431,1.776 -0.993,2.809c-0.563,1.033 -1.193,1.876 -1.891,2.531c-1.168,1.14 -2.613,1.909 -4.336,2.308c-0.926,0.227 -1.973,0.341 -3.141,0.341c-2.848,0 -5.262,-1.036 -7.241,-3.108c-1.98,-2.072 -2.97,-4.974 -2.97,-8.705c0,-3.674 0.997,-6.658 2.991,-8.951c1.994,-2.293 4.6,-3.439 7.819,-3.439Zm6.131,10.126c-0.157,-1.667 -0.52,-2.998 -1.09,-3.995c-1.054,-1.852 -2.813,-2.777 -5.276,-2.777c-1.766,-0 -3.247,0.637 -4.444,1.912c-1.196,1.274 -1.83,2.894 -1.901,4.86l12.711,-0Z" style="fill:#333;fill-rule:nonzero;"/></g><g id="Tag:-Mitigation-Strategies" serif:id="Tag: Mitigation Strategies"><path d="M2029.09,63.901l18.715,-35.965l-0.06,71.96l-18.655,-35.995Z" style="fill:#ecd2b5;"/><rect x="2047.81" y="27.936" width="443.75" height="71.959" style="fill:#ecd2b5;"/><path d="M2084.16,44.522l6.088,0l9.015,26.532l8.951,-26.532l6.024,0l0,31.382l-4.037,-0l-0,-18.521c-0,-0.641 0.014,-1.702 0.042,-3.183c0.029,-1.482 0.043,-3.069 0.043,-4.764l-8.951,26.468l-4.208,-0l-9.015,-26.468l0,0.961c0,0.769 0.018,1.941 0.053,3.514c0.036,1.574 0.054,2.731 0.054,3.472l-0,18.521l-4.059,-0l0,-31.382Z" style="fill:#333;fill-rule:nonzero;"/><path d="M2120.2,53.131l3.91,0l-0,22.773l-3.91,-0l0,-22.773Zm0,-8.609l3.91,0l-0,4.358l-3.91,0l0,-4.358Z" style="fill:#333;fill-rule:nonzero;"/><path d="M2130.69,46.637l3.888,0l0,6.388l3.653,-0l0,3.14l-3.653,-0l0,14.932c0,0.798 0.271,1.332 0.812,1.602c0.299,0.157 0.797,0.235 1.495,0.235c0.185,0 0.385,-0.003 0.598,-0.01c0.214,-0.007 0.463,-0.025 0.748,-0.054l0,3.034c-0.441,0.128 -0.901,0.22 -1.378,0.277c-0.477,0.057 -0.993,0.086 -1.549,0.086c-1.794,-0 -3.012,-0.459 -3.653,-1.378c-0.64,-0.919 -0.961,-2.111 -0.961,-3.578l0,-15.146l-3.097,-0l-0,-3.14l3.097,-0l0,-6.388Z" style="fill:#333;fill-rule:nonzero;"/><path d="M2142.08,53.131l3.91,0l-0,22.773l-3.91,-0l0,-22.773Zm0,-8.609l3.91,0l-0,4.358l-3.91,0l0,-4.358Z" style="fill:#333;fill-rule:nonzero;"/><path d="M2159.87,52.619c1.794,-0 3.361,0.441 4.7,1.324c0.726,0.499 1.467,1.225 2.221,2.179l0,-2.884l3.547,0l-0,20.807c-0,2.905 -0.428,5.198 -1.282,6.879c-1.595,3.104 -4.607,4.657 -9.036,4.657c-2.464,-0 -4.536,-0.552 -6.217,-1.656c-1.68,-1.103 -2.62,-2.83 -2.82,-5.18l3.91,-0c0.185,1.025 0.555,1.816 1.11,2.371c0.869,0.855 2.236,1.282 4.102,1.282c2.948,-0 4.878,-1.04 5.789,-3.119c0.541,-1.225 0.791,-3.411 0.748,-6.558c-0.769,1.168 -1.695,2.036 -2.777,2.606c-1.083,0.57 -2.514,0.854 -4.294,0.854c-2.478,0 -4.646,-0.879 -6.505,-2.638c-1.858,-1.759 -2.788,-4.667 -2.788,-8.726c0,-3.831 0.937,-6.822 2.81,-8.973c1.872,-2.15 4.133,-3.225 6.782,-3.225Zm6.921,11.749c0,-2.834 -0.583,-4.935 -1.751,-6.302c-1.168,-1.367 -2.656,-2.051 -4.465,-2.051c-2.706,0 -4.557,1.268 -5.554,3.803c-0.527,1.353 -0.791,3.126 -0.791,5.319c0,2.578 0.524,4.54 1.571,5.885c1.046,1.346 2.453,2.019 4.219,2.019c2.762,0 4.706,-1.246 5.831,-3.738c0.627,-1.41 0.94,-3.055 0.94,-4.935Z" style="fill:#333;fill-rule:nonzero;"/><path d="M2179.08,69.815c-0,1.111 0.406,1.987 1.217,2.628c0.812,0.641 1.773,0.961 2.884,0.961c1.353,0 2.663,-0.313 3.931,-0.94c2.136,-1.039 3.204,-2.741 3.204,-5.105l0,-3.098c-0.47,0.299 -1.075,0.549 -1.815,0.748c-0.741,0.199 -1.467,0.342 -2.179,0.427l-2.329,0.299c-1.396,0.185 -2.442,0.477 -3.14,0.876c-1.182,0.669 -1.773,1.738 -1.773,3.204Zm9.314,-7.775c0.883,-0.114 1.474,-0.485 1.773,-1.111c0.171,-0.342 0.256,-0.833 0.256,-1.474c0,-1.31 -0.466,-2.261 -1.399,-2.852c-0.933,-0.591 -2.268,-0.887 -4.006,-0.887c-2.008,0 -3.432,0.542 -4.272,1.624c-0.47,0.598 -0.776,1.488 -0.919,2.67l-3.588,0c0.071,-2.82 0.986,-4.781 2.745,-5.885c1.758,-1.104 3.799,-1.656 6.12,-1.656c2.692,0 4.878,0.513 6.558,1.538c1.666,1.026 2.5,2.621 2.5,4.785l-0,13.181c-0,0.399 0.081,0.719 0.245,0.961c0.164,0.242 0.509,0.364 1.036,0.364c0.171,-0 0.363,-0.011 0.577,-0.033c0.214,-0.021 0.442,-0.053 0.684,-0.096l-0,2.842c-0.598,0.17 -1.054,0.277 -1.368,0.32c-0.313,0.043 -0.74,0.064 -1.281,0.064c-1.325,0 -2.286,-0.47 -2.884,-1.41c-0.314,-0.498 -0.534,-1.203 -0.662,-2.115c-0.784,1.026 -1.909,1.916 -3.376,2.671c-1.467,0.754 -3.083,1.132 -4.849,1.132c-2.122,-0 -3.856,-0.645 -5.202,-1.934c-1.345,-1.288 -2.018,-2.901 -2.018,-4.838c-0,-2.122 0.662,-3.767 1.986,-4.935c1.325,-1.168 3.062,-1.887 5.213,-2.157l6.131,-0.769Z" style="fill:#333;fill-rule:nonzero;"/><path d="M2201.23,46.637l3.888,0l0,6.388l3.653,-0l0,3.14l-3.653,-0l0,14.932c0,0.798 0.271,1.332 0.812,1.602c0.299,0.157 0.798,0.235 1.496,0.235c0.185,0 0.384,-0.003 0.598,-0.01c0.213,-0.007 0.463,-0.025 0.747,-0.054l0,3.034c-0.441,0.128 -0.9,0.22 -1.378,0.277c-0.477,0.057 -0.993,0.086 -1.548,0.086c-1.795,-0 -3.012,-0.459 -3.653,-1.378c-0.641,-0.919 -0.962,-2.111 -0.962,-3.578l0,-15.146l-3.097,-0l-0,-3.14l3.097,-0l0,-6.388Z" style="fill:#333;fill-rule:nonzero;"/><path d="M2212.62,53.131l3.909,0l-0,22.773l-3.909,-0l-0,-22.773Zm-0,-8.609l3.909,0l-0,4.358l-3.909,0l-0,-4.358Z" style="fill:#333;fill-rule:nonzero;"/><path d="M2231.41,73.426c2.55,-0 4.298,-0.965 5.245,-2.895c0.947,-1.93 1.42,-4.077 1.42,-6.441c0,-2.136 -0.341,-3.873 -1.025,-5.212c-1.082,-2.108 -2.948,-3.162 -5.597,-3.162c-2.35,0 -4.059,0.898 -5.127,2.692c-1.068,1.794 -1.602,3.959 -1.602,6.494c-0,2.435 0.534,4.465 1.602,6.088c1.068,1.624 2.763,2.436 5.084,2.436Zm0.15,-21.064c2.948,0 5.44,0.983 7.477,2.948c2.036,1.966 3.055,4.857 3.055,8.674c-0,3.688 -0.898,6.736 -2.692,9.143c-1.795,2.406 -4.579,3.61 -8.353,3.61c-3.147,-0 -5.647,-1.065 -7.498,-3.194c-1.851,-2.129 -2.777,-4.988 -2.777,-8.577c-0,-3.845 0.976,-6.907 2.927,-9.186c1.951,-2.278 4.571,-3.418 7.861,-3.418Z" style="fill:#333;fill-rule:nonzero;"/><path d="M2246.67,53.025l3.653,-0l0,3.247c1.082,-1.339 2.229,-2.3 3.439,-2.884c1.211,-0.584 2.557,-0.876 4.038,-0.876c3.247,-0 5.44,1.132 6.579,3.397c0.627,1.239 0.94,3.012 0.94,5.319l0,14.676l-3.909,-0l0,-14.42c0,-1.396 -0.206,-2.521 -0.619,-3.375c-0.684,-1.424 -1.923,-2.136 -3.717,-2.136c-0.912,-0 -1.66,0.092 -2.244,0.277c-1.053,0.314 -1.979,0.94 -2.777,1.88c-0.64,0.755 -1.057,1.535 -1.249,2.339c-0.193,0.805 -0.289,1.955 -0.289,3.45l0,11.985l-3.845,-0l0,-22.879Z" style="fill:#333;fill-rule:nonzero;"/><path d="M2286.44,65.778c0.099,1.78 0.52,3.226 1.26,4.337c1.41,2.079 3.895,3.118 7.456,3.118c1.595,0 3.047,-0.227 4.357,-0.683c2.535,-0.883 3.803,-2.464 3.803,-4.743c-0,-1.709 -0.534,-2.926 -1.602,-3.653c-1.083,-0.712 -2.777,-1.331 -5.084,-1.858l-4.252,-0.961c-2.777,-0.627 -4.742,-1.318 -5.896,-2.073c-1.993,-1.31 -2.99,-3.268 -2.99,-5.874c-0,-2.82 0.975,-5.134 2.926,-6.943c1.951,-1.809 4.714,-2.713 8.289,-2.713c3.29,0 6.085,0.794 8.385,2.382c2.3,1.588 3.45,4.126 3.45,7.616l-3.995,-0c-0.214,-1.681 -0.669,-2.97 -1.367,-3.867c-1.296,-1.638 -3.497,-2.457 -6.601,-2.457c-2.507,0 -4.308,0.527 -5.405,1.581c-1.097,1.054 -1.645,2.279 -1.645,3.675c0,1.538 0.641,2.663 1.923,3.375c0.84,0.455 2.741,1.025 5.704,1.709l4.4,1.004c2.122,0.484 3.76,1.146 4.913,1.986c1.994,1.467 2.991,3.596 2.991,6.388c0,3.475 -1.264,5.96 -3.792,7.455c-2.527,1.496 -5.465,2.243 -8.812,2.243c-3.902,0 -6.957,-0.997 -9.164,-2.99c-2.207,-1.98 -3.29,-4.665 -3.247,-8.054l3.995,-0Z" style="fill:#333;fill-rule:nonzero;"/><path d="M2313.1,46.637l3.888,0l-0,6.388l3.653,-0l-0,3.14l-3.653,-0l-0,14.932c-0,0.798 0.27,1.332 0.812,1.602c0.299,0.157 0.797,0.235 1.495,0.235c0.185,0 0.384,-0.003 0.598,-0.01c0.214,-0.007 0.463,-0.025 0.748,-0.054l-0,3.034c-0.442,0.128 -0.901,0.22 -1.378,0.277c-0.477,0.057 -0.993,0.086 -1.549,0.086c-1.794,-0 -3.012,-0.459 -3.653,-1.378c-0.641,-0.919 -0.961,-2.111 -0.961,-3.578l-0,-15.146l-3.098,-0l0,-3.14l3.098,-0l-0,-6.388Z" style="fill:#333;fill-rule:nonzero;"/><path d="M2324.6,53.025l3.653,-0l-0,3.952c0.299,-0.769 1.032,-1.706 2.2,-2.809c1.168,-1.104 2.514,-1.656 4.038,-1.656c0.071,-0 0.192,0.007 0.363,0.021c0.171,0.015 0.463,0.043 0.876,0.086l-0,4.059c-0.228,-0.043 -0.438,-0.072 -0.631,-0.086c-0.192,-0.014 -0.402,-0.021 -0.63,-0.021c-1.937,-0 -3.425,0.623 -4.465,1.869c-1.039,1.246 -1.559,2.681 -1.559,4.305l-0,13.159l-3.845,-0l-0,-22.879Z" style="fill:#333;fill-rule:nonzero;"/><path d="M2342.01,69.815c0,1.111 0.406,1.987 1.218,2.628c0.811,0.641 1.773,0.961 2.884,0.961c1.353,0 2.663,-0.313 3.93,-0.94c2.136,-1.039 3.205,-2.741 3.205,-5.105l-0,-3.098c-0.47,0.299 -1.076,0.549 -1.816,0.748c-0.741,0.199 -1.467,0.342 -2.179,0.427l-2.329,0.299c-1.395,0.185 -2.442,0.477 -3.14,0.876c-1.182,0.669 -1.773,1.738 -1.773,3.204Zm9.314,-7.775c0.883,-0.114 1.474,-0.485 1.773,-1.111c0.171,-0.342 0.256,-0.833 0.256,-1.474c0,-1.31 -0.466,-2.261 -1.399,-2.852c-0.933,-0.591 -2.268,-0.887 -4.005,-0.887c-2.008,0 -3.432,0.542 -4.273,1.624c-0.47,0.598 -0.776,1.488 -0.918,2.67l-3.589,0c0.071,-2.82 0.986,-4.781 2.745,-5.885c1.759,-1.104 3.799,-1.656 6.12,-1.656c2.692,0 4.878,0.513 6.558,1.538c1.667,1.026 2.5,2.621 2.5,4.785l-0,13.181c-0,0.399 0.082,0.719 0.245,0.961c0.164,0.242 0.51,0.364 1.037,0.364c0.17,-0 0.363,-0.011 0.576,-0.033c0.214,-0.021 0.442,-0.053 0.684,-0.096l-0,2.842c-0.598,0.17 -1.054,0.277 -1.367,0.32c-0.314,0.043 -0.741,0.064 -1.282,0.064c-1.324,0 -2.286,-0.47 -2.884,-1.41c-0.313,-0.498 -0.534,-1.203 -0.662,-2.115c-0.783,1.026 -1.908,1.916 -3.375,2.671c-1.467,0.754 -3.084,1.132 -4.85,1.132c-2.122,-0 -3.856,-0.645 -5.201,-1.934c-1.346,-1.288 -2.019,-2.901 -2.019,-4.838c-0,-2.122 0.662,-3.767 1.987,-4.935c1.324,-1.168 3.062,-1.887 5.212,-2.157l6.131,-0.769Z" style="fill:#333;fill-rule:nonzero;"/><path d="M2364.16,46.637l3.888,0l-0,6.388l3.653,-0l-0,3.14l-3.653,-0l-0,14.932c-0,0.798 0.27,1.332 0.811,1.602c0.3,0.157 0.798,0.235 1.496,0.235c0.185,0 0.384,-0.003 0.598,-0.01c0.214,-0.007 0.463,-0.025 0.748,-0.054l-0,3.034c-0.442,0.128 -0.901,0.22 -1.378,0.277c-0.477,0.057 -0.994,0.086 -1.549,0.086c-1.794,-0 -3.012,-0.459 -3.653,-1.378c-0.641,-0.919 -0.961,-2.111 -0.961,-3.578l-0,-15.146l-3.098,-0l0,-3.14l3.098,-0l-0,-6.388Z" style="fill:#333;fill-rule:nonzero;"/><path d="M2385.07,52.512c1.624,-0 3.198,0.381 4.722,1.143c1.523,0.762 2.684,1.748 3.482,2.959c0.769,1.153 1.281,2.499 1.538,4.037c0.228,1.054 0.341,2.734 0.341,5.042l-16.769,-0c0.071,2.321 0.62,4.183 1.645,5.586c1.025,1.403 2.613,2.104 4.764,2.104c2.008,-0 3.61,-0.662 4.806,-1.987c0.684,-0.769 1.168,-1.659 1.453,-2.67l3.781,-0c-0.1,0.84 -0.431,1.777 -0.993,2.809c-0.563,1.033 -1.193,1.876 -1.891,2.532c-1.168,1.139 -2.613,1.908 -4.336,2.307c-0.926,0.228 -1.973,0.341 -3.141,0.341c-2.848,0 -5.262,-1.036 -7.242,-3.108c-1.979,-2.072 -2.969,-4.974 -2.969,-8.705c0,-3.674 0.997,-6.658 2.991,-8.951c1.994,-2.293 4.6,-3.439 7.818,-3.439Zm6.131,10.126c-0.156,-1.667 -0.519,-2.998 -1.089,-3.995c-1.054,-1.851 -2.813,-2.777 -5.277,-2.777c-1.765,-0 -3.247,0.637 -4.443,1.912c-1.196,1.274 -1.83,2.894 -1.901,4.86l12.71,-0Z" style="fill:#333;fill-rule:nonzero;"/><path d="M2407.95,52.619c1.795,-0 3.361,0.441 4.7,1.324c0.727,0.499 1.467,1.225 2.222,2.179l-0,-2.884l3.546,0l0,20.807c0,2.905 -0.427,5.198 -1.282,6.879c-1.595,3.104 -4.607,4.657 -9.036,4.657c-2.464,-0 -4.536,-0.552 -6.216,-1.656c-1.681,-1.103 -2.621,-2.83 -2.82,-5.18l3.909,-0c0.185,1.025 0.555,1.816 1.111,2.371c0.869,0.855 2.236,1.282 4.101,1.282c2.948,-0 4.878,-1.04 5.79,-3.119c0.541,-1.225 0.79,-3.411 0.747,-6.558c-0.769,1.168 -1.694,2.036 -2.777,2.606c-1.082,0.57 -2.513,0.854 -4.294,0.854c-2.478,0 -4.646,-0.879 -6.504,-2.638c-1.859,-1.759 -2.788,-4.667 -2.788,-8.726c-0,-3.831 0.936,-6.822 2.809,-8.973c1.873,-2.15 4.134,-3.225 6.782,-3.225Zm6.922,11.749c-0,-2.834 -0.584,-4.935 -1.752,-6.302c-1.168,-1.367 -2.656,-2.051 -4.465,-2.051c-2.705,0 -4.557,1.268 -5.554,3.803c-0.527,1.353 -0.79,3.126 -0.79,5.319c-0,2.578 0.523,4.54 1.57,5.885c1.047,1.346 2.453,2.019 4.219,2.019c2.763,0 4.707,-1.246 5.832,-3.738c0.627,-1.41 0.94,-3.055 0.94,-4.935Z" style="fill:#333;fill-rule:nonzero;"/><path d="M2424.21,53.131l3.909,0l0,22.773l-3.909,-0l0,-22.773Zm0,-8.609l3.909,0l0,4.358l-3.909,0l0,-4.358Z" style="fill:#333;fill-rule:nonzero;"/><path d="M2443.46,52.512c1.623,-0 3.197,0.381 4.721,1.143c1.524,0.762 2.684,1.748 3.482,2.959c0.769,1.153 1.281,2.499 1.538,4.037c0.228,1.054 0.342,2.734 0.342,5.042l-16.77,-0c0.071,2.321 0.62,4.183 1.645,5.586c1.026,1.403 2.613,2.104 4.764,2.104c2.008,-0 3.61,-0.662 4.806,-1.987c0.684,-0.769 1.168,-1.659 1.453,-2.67l3.781,-0c-0.099,0.84 -0.431,1.777 -0.993,2.809c-0.563,1.033 -1.193,1.876 -1.891,2.532c-1.168,1.139 -2.613,1.908 -4.336,2.307c-0.926,0.228 -1.973,0.341 -3.141,0.341c-2.848,0 -5.262,-1.036 -7.241,-3.108c-1.98,-2.072 -2.97,-4.974 -2.97,-8.705c0,-3.674 0.997,-6.658 2.991,-8.951c1.994,-2.293 4.6,-3.439 7.819,-3.439Zm6.131,10.126c-0.157,-1.667 -0.52,-2.998 -1.09,-3.995c-1.054,-1.851 -2.813,-2.777 -5.276,-2.777c-1.766,-0 -3.247,0.637 -4.444,1.912c-1.196,1.274 -1.83,2.894 -1.901,4.86l12.711,-0Z" style="fill:#333;fill-rule:nonzero;"/><path d="M2460.55,68.726c0.114,1.282 0.435,2.264 0.962,2.948c0.968,1.239 2.649,1.858 5.041,1.858c1.424,0 2.678,-0.309 3.76,-0.929c1.082,-0.619 1.624,-1.577 1.624,-2.873c-0,-0.983 -0.435,-1.73 -1.304,-2.243c-0.555,-0.313 -1.652,-0.677 -3.289,-1.09l-3.055,-0.769c-1.951,-0.484 -3.39,-1.025 -4.315,-1.623c-1.652,-1.04 -2.478,-2.478 -2.478,-4.315c-0,-2.165 0.779,-3.917 2.339,-5.255c1.559,-1.339 3.656,-2.008 6.291,-2.008c3.446,-0 5.932,1.011 7.455,3.033c0.955,1.282 1.418,2.663 1.389,4.144l-3.632,0c-0.071,-0.868 -0.377,-1.659 -0.918,-2.371c-0.883,-1.011 -2.414,-1.517 -4.593,-1.517c-1.453,0 -2.553,0.278 -3.301,0.833c-0.747,0.556 -1.121,1.289 -1.121,2.201c-0,0.997 0.491,1.794 1.474,2.392c0.57,0.356 1.41,0.67 2.521,0.94l2.542,0.62c2.763,0.669 4.614,1.317 5.554,1.944c1.495,0.982 2.243,2.528 2.243,4.635c0,2.037 -0.773,3.796 -2.318,5.277c-1.545,1.481 -3.898,2.222 -7.06,2.222c-3.404,-0 -5.814,-0.773 -7.231,-2.318c-1.417,-1.545 -2.176,-3.457 -2.275,-5.736l3.695,-0Z" style="fill:#333;fill-rule:nonzero;"/></g><g id="Tag:-Assessors" serif:id="Tag: Assessors"><path d="M2529.09,63.901l18.715,-35.965l-0.06,71.96l-18.655,-35.995Z" style="fill:#ecd2b5;"/><rect x="2547.81" y="27.936" width="443.75" height="71.959" style="fill:#ecd2b5;"/><path d="M2600.38,63.044l-4.764,-13.865l-5.063,13.865l9.827,-0Zm-6.985,-18.522l4.806,0l11.386,31.382l-4.657,-0l-3.183,-9.4l-12.411,0l-3.397,9.4l-4.358,-0l11.814,-31.382Z" style="fill:#333;fill-rule:nonzero;"/><path d="M2615.22,68.726c0.114,1.282 0.434,2.264 0.961,2.948c0.969,1.239 2.649,1.858 5.042,1.858c1.424,0 2.677,-0.309 3.759,-0.929c1.083,-0.619 1.624,-1.577 1.624,-2.873c-0,-0.983 -0.434,-1.73 -1.303,-2.243c-0.556,-0.313 -1.652,-0.677 -3.29,-1.09l-3.055,-0.769c-1.951,-0.484 -3.389,-1.025 -4.315,-1.623c-1.652,-1.04 -2.478,-2.478 -2.478,-4.315c0,-2.165 0.78,-3.917 2.339,-5.255c1.56,-1.339 3.657,-2.008 6.291,-2.008c3.447,-0 5.932,1.011 7.456,3.033c0.954,1.282 1.417,2.663 1.388,4.144l-3.631,0c-0.071,-0.868 -0.378,-1.659 -0.919,-2.371c-0.883,-1.011 -2.414,-1.517 -4.593,-1.517c-1.452,0 -2.552,0.278 -3.3,0.833c-0.748,0.556 -1.122,1.289 -1.122,2.201c0,0.997 0.492,1.794 1.474,2.392c0.57,0.356 1.41,0.67 2.521,0.94l2.542,0.62c2.763,0.669 4.614,1.317 5.554,1.944c1.496,0.982 2.243,2.528 2.243,4.635c0,2.037 -0.772,3.796 -2.317,5.277c-1.546,1.481 -3.899,2.222 -7.061,2.222c-3.403,-0 -5.814,-0.773 -7.231,-2.318c-1.417,-1.545 -2.175,-3.457 -2.275,-5.736l3.696,-0Z" style="fill:#333;fill-rule:nonzero;"/><path d="M2637.1,68.726c0.114,1.282 0.434,2.264 0.961,2.948c0.969,1.239 2.649,1.858 5.042,1.858c1.424,0 2.677,-0.309 3.759,-0.929c1.083,-0.619 1.624,-1.577 1.624,-2.873c-0,-0.983 -0.434,-1.73 -1.303,-2.243c-0.556,-0.313 -1.652,-0.677 -3.29,-1.09l-3.055,-0.769c-1.951,-0.484 -3.389,-1.025 -4.315,-1.623c-1.652,-1.04 -2.478,-2.478 -2.478,-4.315c0,-2.165 0.78,-3.917 2.339,-5.255c1.56,-1.339 3.657,-2.008 6.291,-2.008c3.447,-0 5.932,1.011 7.456,3.033c0.954,1.282 1.417,2.663 1.388,4.144l-3.631,0c-0.071,-0.868 -0.378,-1.659 -0.919,-2.371c-0.883,-1.011 -2.414,-1.517 -4.593,-1.517c-1.452,0 -2.552,0.278 -3.3,0.833c-0.748,0.556 -1.122,1.289 -1.122,2.201c0,0.997 0.492,1.794 1.474,2.392c0.57,0.356 1.41,0.67 2.521,0.94l2.542,0.62c2.763,0.669 4.614,1.317 5.554,1.944c1.496,0.982 2.243,2.528 2.243,4.635c0,2.037 -0.772,3.796 -2.317,5.277c-1.546,1.481 -3.899,2.222 -7.061,2.222c-3.403,-0 -5.814,-0.773 -7.231,-2.318c-1.417,-1.545 -2.175,-3.457 -2.275,-5.736l3.696,-0Z" style="fill:#333;fill-rule:nonzero;"/><path d="M2666.22,52.512c1.623,-0 3.197,0.381 4.721,1.143c1.524,0.762 2.684,1.748 3.482,2.959c0.769,1.153 1.282,2.499 1.538,4.037c0.228,1.054 0.342,2.734 0.342,5.042l-16.77,-0c0.071,2.321 0.62,4.183 1.645,5.586c1.026,1.403 2.613,2.104 4.764,2.104c2.008,-0 3.61,-0.662 4.806,-1.987c0.684,-0.769 1.168,-1.659 1.453,-2.67l3.781,-0c-0.099,0.84 -0.431,1.777 -0.993,2.809c-0.563,1.033 -1.193,1.876 -1.891,2.532c-1.168,1.139 -2.613,1.908 -4.336,2.307c-0.926,0.228 -1.973,0.341 -3.141,0.341c-2.848,0 -5.262,-1.036 -7.241,-3.108c-1.98,-2.072 -2.97,-4.974 -2.97,-8.705c0,-3.674 0.997,-6.658 2.991,-8.951c1.994,-2.293 4.6,-3.439 7.819,-3.439Zm6.131,10.126c-0.157,-1.667 -0.52,-2.998 -1.09,-3.995c-1.054,-1.851 -2.813,-2.777 -5.276,-2.777c-1.766,-0 -3.247,0.637 -4.444,1.912c-1.196,1.274 -1.83,2.894 -1.901,4.86l12.711,-0Z" style="fill:#333;fill-rule:nonzero;"/><path d="M2683.3,68.726c0.114,1.282 0.435,2.264 0.962,2.948c0.968,1.239 2.649,1.858 5.041,1.858c1.424,0 2.678,-0.309 3.76,-0.929c1.082,-0.619 1.624,-1.577 1.624,-2.873c-0,-0.983 -0.435,-1.73 -1.304,-2.243c-0.555,-0.313 -1.652,-0.677 -3.289,-1.09l-3.055,-0.769c-1.951,-0.484 -3.39,-1.025 -4.315,-1.623c-1.652,-1.04 -2.478,-2.478 -2.478,-4.315c-0,-2.165 0.779,-3.917 2.339,-5.255c1.559,-1.339 3.656,-2.008 6.291,-2.008c3.446,-0 5.932,1.011 7.455,3.033c0.955,1.282 1.418,2.663 1.389,4.144l-3.632,0c-0.071,-0.868 -0.377,-1.659 -0.918,-2.371c-0.883,-1.011 -2.414,-1.517 -4.593,-1.517c-1.453,0 -2.553,0.278 -3.301,0.833c-0.747,0.556 -1.121,1.289 -1.121,2.201c-0,0.997 0.491,1.794 1.474,2.392c0.57,0.356 1.41,0.67 2.521,0.94l2.542,0.62c2.763,0.669 4.614,1.317 5.554,1.944c1.495,0.982 2.243,2.528 2.243,4.635c0,2.037 -0.773,3.796 -2.318,5.277c-1.545,1.481 -3.898,2.222 -7.06,2.222c-3.404,-0 -5.814,-0.773 -7.231,-2.318c-1.417,-1.545 -2.176,-3.457 -2.275,-5.736l3.695,-0Z" style="fill:#333;fill-rule:nonzero;"/><path d="M2705.18,68.726c0.114,1.282 0.435,2.264 0.962,2.948c0.968,1.239 2.649,1.858 5.041,1.858c1.424,0 2.678,-0.309 3.76,-0.929c1.082,-0.619 1.624,-1.577 1.624,-2.873c-0,-0.983 -0.435,-1.73 -1.304,-2.243c-0.555,-0.313 -1.652,-0.677 -3.289,-1.09l-3.055,-0.769c-1.951,-0.484 -3.39,-1.025 -4.315,-1.623c-1.652,-1.04 -2.478,-2.478 -2.478,-4.315c-0,-2.165 0.779,-3.917 2.339,-5.255c1.559,-1.339 3.656,-2.008 6.291,-2.008c3.446,-0 5.932,1.011 7.455,3.033c0.955,1.282 1.418,2.663 1.389,4.144l-3.632,0c-0.071,-0.868 -0.377,-1.659 -0.918,-2.371c-0.883,-1.011 -2.414,-1.517 -4.593,-1.517c-1.453,0 -2.553,0.278 -3.301,0.833c-0.747,0.556 -1.121,1.289 -1.121,2.201c-0,0.997 0.491,1.794 1.474,2.392c0.57,0.356 1.41,0.67 2.521,0.94l2.542,0.62c2.763,0.669 4.614,1.317 5.554,1.944c1.495,0.982 2.243,2.528 2.243,4.635c0,2.037 -0.773,3.796 -2.318,5.277c-1.545,1.481 -3.898,2.222 -7.06,2.222c-3.404,-0 -5.814,-0.773 -7.231,-2.318c-1.417,-1.545 -2.176,-3.457 -2.275,-5.736l3.695,-0Z" style="fill:#333;fill-rule:nonzero;"/><path d="M2733.85,73.426c2.549,-0 4.297,-0.965 5.244,-2.895c0.947,-1.93 1.421,-4.077 1.421,-6.441c-0,-2.136 -0.342,-3.873 -1.026,-5.212c-1.082,-2.108 -2.948,-3.162 -5.597,-3.162c-2.349,0 -4.058,0.898 -5.127,2.692c-1.068,1.794 -1.602,3.959 -1.602,6.494c0,2.435 0.534,4.465 1.602,6.088c1.069,1.624 2.763,2.436 5.085,2.436Zm0.149,-21.064c2.948,0 5.44,0.983 7.477,2.948c2.037,1.966 3.055,4.857 3.055,8.674c-0,3.688 -0.897,6.736 -2.692,9.143c-1.794,2.406 -4.578,3.61 -8.352,3.61c-3.148,-0 -5.647,-1.065 -7.499,-3.194c-1.851,-2.129 -2.777,-4.988 -2.777,-8.577c0,-3.845 0.976,-6.907 2.927,-9.186c1.951,-2.278 4.571,-3.418 7.861,-3.418Z" style="fill:#333;fill-rule:nonzero;"/><path d="M2749.21,53.025l3.653,-0l0,3.952c0.299,-0.769 1.033,-1.706 2.2,-2.809c1.168,-1.104 2.514,-1.656 4.038,-1.656c0.071,-0 0.192,0.007 0.363,0.021c0.171,0.015 0.463,0.043 0.876,0.086l-0,4.059c-0.228,-0.043 -0.438,-0.072 -0.63,-0.086c-0.192,-0.014 -0.403,-0.021 -0.63,-0.021c-1.937,-0 -3.426,0.623 -4.465,1.869c-1.04,1.246 -1.56,2.681 -1.56,4.305l0,13.159l-3.845,-0l0,-22.879Z" style="fill:#333;fill-rule:nonzero;"/><path d="M2765.96,68.726c0.114,1.282 0.435,2.264 0.962,2.948c0.968,1.239 2.648,1.858 5.041,1.858c1.424,0 2.677,-0.309 3.76,-0.929c1.082,-0.619 1.623,-1.577 1.623,-2.873c0,-0.983 -0.434,-1.73 -1.303,-2.243c-0.555,-0.313 -1.652,-0.677 -3.29,-1.09l-3.054,-0.769c-1.951,-0.484 -3.39,-1.025 -4.316,-1.623c-1.652,-1.04 -2.478,-2.478 -2.478,-4.315c0,-2.165 0.78,-3.917 2.34,-5.255c1.559,-1.339 3.656,-2.008 6.291,-2.008c3.446,-0 5.931,1.011 7.455,3.033c0.954,1.282 1.417,2.663 1.389,4.144l-3.632,0c-0.071,-0.868 -0.377,-1.659 -0.918,-2.371c-0.883,-1.011 -2.414,-1.517 -4.593,-1.517c-1.453,0 -2.553,0.278 -3.301,0.833c-0.747,0.556 -1.121,1.289 -1.121,2.201c-0,0.997 0.491,1.794 1.474,2.392c0.569,0.356 1.41,0.67 2.52,0.94l2.543,0.62c2.762,0.669 4.614,1.317 5.554,1.944c1.495,0.982 2.243,2.528 2.243,4.635c-0,2.037 -0.773,3.796 -2.318,5.277c-1.545,1.481 -3.899,2.222 -7.06,2.222c-3.404,-0 -5.814,-0.773 -7.231,-2.318c-1.417,-1.545 -2.176,-3.457 -2.275,-5.736l3.695,-0Z" style="fill:#333;fill-rule:nonzero;"/></g><g id="Tag:-Signatories" serif:id="Tag: Signatories"><path d="M2029.09,186.47l18.715,-35.964l-0.06,71.96l-18.655,-35.996Z" style="fill:#ecd2b5;"/><rect x="2047.81" y="150.506" width="443.75" height="71.959" style="fill:#ecd2b5;"/><path d="M2087.05,188.348c0.1,1.78 0.52,3.226 1.26,4.336c1.41,2.08 3.895,3.119 7.456,3.119c1.595,0 3.047,-0.228 4.358,-0.683c2.535,-0.883 3.802,-2.464 3.802,-4.743c0,-1.709 -0.534,-2.926 -1.602,-3.653c-1.082,-0.712 -2.777,-1.331 -5.084,-1.858l-4.251,-0.961c-2.777,-0.627 -4.743,-1.318 -5.896,-2.073c-1.994,-1.31 -2.991,-3.268 -2.991,-5.874c-0,-2.82 0.975,-5.134 2.927,-6.943c1.951,-1.809 4.714,-2.713 8.288,-2.713c3.29,-0 6.085,0.794 8.385,2.382c2.3,1.588 3.45,4.126 3.45,7.616l-3.995,-0c-0.214,-1.681 -0.669,-2.97 -1.367,-3.867c-1.296,-1.638 -3.496,-2.457 -6.601,-2.457c-2.507,0 -4.308,0.527 -5.405,1.581c-1.096,1.054 -1.645,2.279 -1.645,3.674c0,1.538 0.641,2.664 1.923,3.376c0.84,0.455 2.742,1.025 5.704,1.709l4.4,1.004c2.122,0.484 3.76,1.146 4.914,1.986c1.994,1.467 2.99,3.596 2.99,6.388c0,3.475 -1.263,5.96 -3.791,7.455c-2.528,1.495 -5.466,2.243 -8.812,2.243c-3.902,0 -6.957,-0.997 -9.165,-2.991c-2.207,-1.979 -3.29,-4.664 -3.247,-8.053l3.995,-0Z" style="fill:#333;fill-rule:nonzero;"/><path d="M2112.94,175.701l3.909,0l0,22.773l-3.909,-0l0,-22.773Zm0,-8.609l3.909,0l0,4.358l-3.909,0l0,-4.358Z" style="fill:#333;fill-rule:nonzero;"/><path d="M2130.73,175.189c1.794,-0 3.361,0.441 4.7,1.324c0.726,0.499 1.466,1.225 2.221,2.179l0,-2.884l3.546,0l0,20.807c0,2.905 -0.427,5.198 -1.281,6.879c-1.595,3.104 -4.607,4.657 -9.037,4.657c-2.463,-0 -4.536,-0.552 -6.216,-1.656c-1.681,-1.104 -2.62,-2.83 -2.82,-5.18l3.909,-0c0.186,1.025 0.556,1.816 1.111,2.371c0.869,0.854 2.236,1.282 4.102,1.282c2.948,-0 4.878,-1.04 5.789,-3.119c0.541,-1.225 0.79,-3.411 0.748,-6.558c-0.769,1.167 -1.695,2.036 -2.777,2.606c-1.083,0.569 -2.514,0.854 -4.294,0.854c-2.478,0 -4.647,-0.879 -6.505,-2.638c-1.859,-1.759 -2.788,-4.668 -2.788,-8.726c0,-3.831 0.937,-6.822 2.809,-8.973c1.873,-2.15 4.134,-3.225 6.783,-3.225Zm6.921,11.749c0,-2.834 -0.584,-4.935 -1.751,-6.302c-1.168,-1.367 -2.657,-2.051 -4.465,-2.051c-2.706,0 -4.557,1.268 -5.554,3.803c-0.527,1.353 -0.791,3.126 -0.791,5.319c0,2.578 0.524,4.539 1.57,5.885c1.047,1.346 2.453,2.019 4.219,2.019c2.763,0 4.707,-1.246 5.832,-3.738c0.627,-1.41 0.94,-3.055 0.94,-4.935Z" style="fill:#333;fill-rule:nonzero;"/><path d="M2146.99,175.595l3.653,-0l-0,3.247c1.082,-1.339 2.228,-2.3 3.439,-2.884c1.21,-0.584 2.556,-0.876 4.037,-0.876c3.247,-0 5.441,1.132 6.58,3.396c0.627,1.239 0.94,3.013 0.94,5.32l-0,14.676l-3.909,-0l-0,-14.42c-0,-1.396 -0.207,-2.521 -0.62,-3.375c-0.684,-1.424 -1.923,-2.136 -3.717,-2.136c-0.911,-0 -1.659,0.092 -2.243,0.277c-1.054,0.314 -1.98,0.94 -2.777,1.88c-0.641,0.755 -1.058,1.535 -1.25,2.339c-0.192,0.805 -0.288,1.955 -0.288,3.45l-0,11.985l-3.845,-0l-0,-22.879Z" style="fill:#333;fill-rule:nonzero;"/><path d="M2174.27,192.385c0,1.111 0.406,1.987 1.218,2.628c0.812,0.641 1.773,0.961 2.884,0.961c1.353,0 2.663,-0.313 3.93,-0.94c2.137,-1.039 3.205,-2.741 3.205,-5.105l-0,-3.098c-0.47,0.299 -1.075,0.548 -1.816,0.748c-0.741,0.199 -1.467,0.342 -2.179,0.427l-2.328,0.299c-1.396,0.185 -2.443,0.477 -3.141,0.876c-1.182,0.669 -1.773,1.737 -1.773,3.204Zm9.314,-7.776c0.883,-0.113 1.474,-0.484 1.773,-1.11c0.171,-0.342 0.257,-0.834 0.257,-1.474c-0,-1.311 -0.467,-2.261 -1.4,-2.852c-0.932,-0.591 -2.268,-0.887 -4.005,-0.887c-2.008,0 -3.432,0.541 -4.273,1.624c-0.469,0.598 -0.776,1.488 -0.918,2.67l-3.589,0c0.071,-2.82 0.986,-4.782 2.745,-5.885c1.759,-1.104 3.799,-1.656 6.12,-1.656c2.692,0 4.878,0.513 6.559,1.538c1.666,1.026 2.499,2.621 2.499,4.785l0,13.181c0,0.399 0.082,0.719 0.246,0.961c0.163,0.242 0.509,0.363 1.036,0.363c0.171,0 0.363,-0.01 0.577,-0.032c0.213,-0.021 0.441,-0.053 0.683,-0.096l0,2.841c-0.598,0.171 -1.054,0.278 -1.367,0.321c-0.313,0.043 -0.741,0.064 -1.282,0.064c-1.324,-0 -2.286,-0.47 -2.884,-1.41c-0.313,-0.498 -0.534,-1.203 -0.662,-2.115c-0.783,1.026 -1.908,1.916 -3.375,2.67c-1.467,0.755 -3.083,1.133 -4.849,1.133c-2.122,-0 -3.856,-0.645 -5.202,-1.934c-1.346,-1.289 -2.019,-2.901 -2.019,-4.838c0,-2.122 0.662,-3.767 1.987,-4.935c1.324,-1.168 3.062,-1.887 5.212,-2.157l6.131,-0.77Z" style="fill:#333;fill-rule:nonzero;"/><path d="M2196.42,169.207l3.888,0l-0,6.388l3.653,-0l-0,3.14l-3.653,-0l-0,14.932c-0,0.798 0.27,1.332 0.812,1.602c0.299,0.157 0.797,0.235 1.495,0.235c0.185,0 0.385,-0.003 0.598,-0.01c0.214,-0.008 0.463,-0.025 0.748,-0.054l-0,3.034c-0.442,0.128 -0.901,0.22 -1.378,0.277c-0.477,0.057 -0.993,0.086 -1.549,0.086c-1.794,-0 -3.012,-0.46 -3.653,-1.378c-0.641,-0.919 -0.961,-2.111 -0.961,-3.578l-0,-15.146l-3.098,-0l0,-3.14l3.098,-0l-0,-6.388Z" style="fill:#333;fill-rule:nonzero;"/><path d="M2216.89,195.996c2.549,-0 4.297,-0.965 5.244,-2.895c0.948,-1.93 1.421,-4.077 1.421,-6.441c0,-2.136 -0.342,-3.873 -1.025,-5.212c-1.083,-2.108 -2.948,-3.162 -5.597,-3.162c-2.35,0 -4.059,0.897 -5.127,2.692c-1.068,1.794 -1.602,3.959 -1.602,6.494c-0,2.435 0.534,4.465 1.602,6.088c1.068,1.624 2.763,2.436 5.084,2.436Zm0.15,-21.064c2.948,0 5.44,0.983 7.476,2.948c2.037,1.966 3.055,4.857 3.055,8.673c0,3.689 -0.897,6.737 -2.691,9.143c-1.795,2.407 -4.579,3.611 -8.353,3.611c-3.148,-0 -5.647,-1.065 -7.498,-3.194c-1.852,-2.129 -2.777,-4.988 -2.777,-8.577c-0,-3.845 0.975,-6.907 2.926,-9.186c1.951,-2.278 4.572,-3.418 7.862,-3.418Z" style="fill:#333;fill-rule:nonzero;"/><path d="M2232.25,175.595l3.652,-0l0,3.952c0.3,-0.769 1.033,-1.706 2.201,-2.81c1.168,-1.103 2.513,-1.655 4.037,-1.655c0.071,-0 0.193,0.007 0.363,0.021c0.171,0.014 0.463,0.043 0.876,0.086l0,4.059c-0.228,-0.043 -0.438,-0.072 -0.63,-0.086c-0.192,-0.014 -0.402,-0.021 -0.63,-0.021c-1.937,-0 -3.425,0.623 -4.465,1.869c-1.039,1.246 -1.559,2.681 -1.559,4.304l-0,13.16l-3.845,-0l-0,-22.879Z" style="fill:#333;fill-rule:nonzero;"/><path d="M2246.71,175.701l3.909,0l0,22.773l-3.909,-0l-0,-22.773Zm-0,-8.609l3.909,0l0,4.358l-3.909,0l-0,-4.358Z" style="fill:#333;fill-rule:nonzero;"/><path d="M2265.96,175.082c1.624,-0 3.197,0.381 4.721,1.143c1.524,0.762 2.685,1.748 3.482,2.958c0.769,1.154 1.282,2.5 1.538,4.038c0.228,1.054 0.342,2.734 0.342,5.041l-16.769,0c0.071,2.322 0.619,4.184 1.645,5.587c1.025,1.402 2.613,2.104 4.764,2.104c2.008,-0 3.61,-0.662 4.806,-1.987c0.684,-0.769 1.168,-1.659 1.453,-2.67l3.781,-0c-0.1,0.84 -0.431,1.776 -0.994,2.809c-0.562,1.033 -1.192,1.876 -1.89,2.531c-1.168,1.14 -2.613,1.909 -4.337,2.308c-0.925,0.227 -1.972,0.341 -3.14,0.341c-2.848,0 -5.262,-1.036 -7.242,-3.108c-1.979,-2.072 -2.969,-4.974 -2.969,-8.705c-0,-3.674 0.997,-6.658 2.991,-8.951c1.993,-2.293 4.6,-3.439 7.818,-3.439Zm6.131,10.126c-0.156,-1.667 -0.52,-2.998 -1.089,-3.995c-1.054,-1.852 -2.813,-2.777 -5.277,-2.777c-1.766,-0 -3.247,0.637 -4.443,1.912c-1.196,1.274 -1.83,2.894 -1.901,4.86l12.71,-0Z" style="fill:#333;fill-rule:nonzero;"/><path d="M2283.05,191.296c0.114,1.282 0.434,2.264 0.961,2.948c0.969,1.239 2.649,1.858 5.042,1.858c1.424,0 2.677,-0.309 3.76,-0.929c1.082,-0.619 1.623,-1.577 1.623,-2.873c0,-0.983 -0.434,-1.73 -1.303,-2.243c-0.555,-0.313 -1.652,-0.677 -3.29,-1.09l-3.055,-0.769c-1.951,-0.484 -3.389,-1.025 -4.315,-1.623c-1.652,-1.04 -2.478,-2.478 -2.478,-4.315c0,-2.165 0.78,-3.917 2.339,-5.256c1.56,-1.338 3.657,-2.008 6.292,-2.008c3.446,0 5.931,1.012 7.455,3.034c0.954,1.282 1.417,2.663 1.389,4.144l-3.632,0c-0.071,-0.869 -0.377,-1.659 -0.919,-2.371c-0.883,-1.011 -2.413,-1.517 -4.592,-1.517c-1.453,0 -2.553,0.278 -3.301,0.833c-0.748,0.556 -1.121,1.289 -1.121,2.201c-0,0.997 0.491,1.794 1.474,2.392c0.569,0.356 1.409,0.67 2.52,0.94l2.542,0.62c2.763,0.669 4.615,1.317 5.555,1.944c1.495,0.982 2.243,2.528 2.243,4.635c-0,2.037 -0.773,3.796 -2.318,5.277c-1.545,1.481 -3.899,2.221 -7.06,2.221c-3.404,0 -5.814,-0.772 -7.232,-2.317c-1.417,-1.546 -2.175,-3.457 -2.275,-5.736l3.696,-0Z" style="fill:#333;fill-rule:nonzero;"/></g><g id="Tag:-Signatures" serif:id="Tag: Signatures"><path d="M2529.09,186.47l18.715,-35.964l-0.06,71.96l-18.655,-35.996Z" style="fill:#ecd2b5;"/><rect x="2547.81" y="150.506" width="443.75" height="71.959" style="fill:#ecd2b5;"/><path d="M2587.05,188.348c0.1,1.78 0.52,3.226 1.26,4.336c1.41,2.08 3.895,3.119 7.456,3.119c1.595,0 3.047,-0.228 4.358,-0.683c2.535,-0.883 3.802,-2.464 3.802,-4.743c0,-1.709 -0.534,-2.926 -1.602,-3.653c-1.082,-0.712 -2.777,-1.331 -5.084,-1.858l-4.251,-0.961c-2.777,-0.627 -4.743,-1.318 -5.896,-2.073c-1.994,-1.31 -2.991,-3.268 -2.991,-5.874c-0,-2.82 0.975,-5.134 2.927,-6.943c1.951,-1.809 4.714,-2.713 8.288,-2.713c3.29,-0 6.085,0.794 8.385,2.382c2.3,1.588 3.45,4.126 3.45,7.616l-3.995,-0c-0.214,-1.681 -0.669,-2.97 -1.367,-3.867c-1.296,-1.638 -3.496,-2.457 -6.601,-2.457c-2.507,0 -4.308,0.527 -5.405,1.581c-1.096,1.054 -1.645,2.279 -1.645,3.674c0,1.538 0.641,2.664 1.923,3.376c0.84,0.455 2.742,1.025 5.704,1.709l4.4,1.004c2.122,0.484 3.76,1.146 4.914,1.986c1.994,1.467 2.99,3.596 2.99,6.388c0,3.475 -1.263,5.96 -3.791,7.455c-2.528,1.495 -5.466,2.243 -8.812,2.243c-3.902,0 -6.957,-0.997 -9.165,-2.991c-2.207,-1.979 -3.29,-4.664 -3.247,-8.053l3.995,-0Z" style="fill:#333;fill-rule:nonzero;"/><path d="M2612.94,175.701l3.909,0l0,22.773l-3.909,-0l0,-22.773Zm0,-8.609l3.909,0l0,4.358l-3.909,0l0,-4.358Z" style="fill:#333;fill-rule:nonzero;"/><path d="M2630.73,175.189c1.794,-0 3.361,0.441 4.7,1.324c0.726,0.499 1.466,1.225 2.221,2.179l0,-2.884l3.546,0l0,20.807c0,2.905 -0.427,5.198 -1.281,6.879c-1.595,3.104 -4.607,4.657 -9.037,4.657c-2.463,-0 -4.536,-0.552 -6.216,-1.656c-1.681,-1.104 -2.62,-2.83 -2.82,-5.18l3.909,-0c0.186,1.025 0.556,1.816 1.111,2.371c0.869,0.854 2.236,1.282 4.102,1.282c2.948,-0 4.878,-1.04 5.789,-3.119c0.541,-1.225 0.79,-3.411 0.748,-6.558c-0.769,1.167 -1.695,2.036 -2.777,2.606c-1.083,0.569 -2.514,0.854 -4.294,0.854c-2.478,0 -4.647,-0.879 -6.505,-2.638c-1.859,-1.759 -2.788,-4.668 -2.788,-8.726c0,-3.831 0.937,-6.822 2.809,-8.973c1.873,-2.15 4.134,-3.225 6.783,-3.225Zm6.921,11.749c0,-2.834 -0.584,-4.935 -1.751,-6.302c-1.168,-1.367 -2.657,-2.051 -4.465,-2.051c-2.706,0 -4.557,1.268 -5.554,3.803c-0.527,1.353 -0.791,3.126 -0.791,5.319c0,2.578 0.524,4.539 1.57,5.885c1.047,1.346 2.453,2.019 4.219,2.019c2.763,0 4.707,-1.246 5.832,-3.738c0.627,-1.41 0.94,-3.055 0.94,-4.935Z" style="fill:#333;fill-rule:nonzero;"/><path d="M2646.99,175.595l3.653,-0l-0,3.247c1.082,-1.339 2.228,-2.3 3.439,-2.884c1.21,-0.584 2.556,-0.876 4.037,-0.876c3.247,-0 5.441,1.132 6.58,3.396c0.627,1.239 0.94,3.013 0.94,5.32l-0,14.676l-3.909,-0l-0,-14.42c-0,-1.396 -0.207,-2.521 -0.62,-3.375c-0.684,-1.424 -1.923,-2.136 -3.717,-2.136c-0.911,-0 -1.659,0.092 -2.243,0.277c-1.054,0.314 -1.98,0.94 -2.777,1.88c-0.641,0.755 -1.058,1.535 -1.25,2.339c-0.192,0.805 -0.288,1.955 -0.288,3.45l-0,11.985l-3.845,-0l-0,-22.879Z" style="fill:#333;fill-rule:nonzero;"/><path d="M2674.27,192.385c0,1.111 0.406,1.987 1.218,2.628c0.812,0.641 1.773,0.961 2.884,0.961c1.353,0 2.663,-0.313 3.93,-0.94c2.137,-1.039 3.205,-2.741 3.205,-5.105l-0,-3.098c-0.47,0.299 -1.075,0.548 -1.816,0.748c-0.741,0.199 -1.467,0.342 -2.179,0.427l-2.328,0.299c-1.396,0.185 -2.443,0.477 -3.141,0.876c-1.182,0.669 -1.773,1.737 -1.773,3.204Zm9.314,-7.776c0.883,-0.113 1.474,-0.484 1.773,-1.11c0.171,-0.342 0.257,-0.834 0.257,-1.474c-0,-1.311 -0.467,-2.261 -1.4,-2.852c-0.932,-0.591 -2.268,-0.887 -4.005,-0.887c-2.008,0 -3.432,0.541 -4.273,1.624c-0.469,0.598 -0.776,1.488 -0.918,2.67l-3.589,0c0.071,-2.82 0.986,-4.782 2.745,-5.885c1.759,-1.104 3.799,-1.656 6.12,-1.656c2.692,0 4.878,0.513 6.559,1.538c1.666,1.026 2.499,2.621 2.499,4.785l0,13.181c0,0.399 0.082,0.719 0.246,0.961c0.163,0.242 0.509,0.363 1.036,0.363c0.171,0 0.363,-0.01 0.577,-0.032c0.213,-0.021 0.441,-0.053 0.683,-0.096l0,2.841c-0.598,0.171 -1.054,0.278 -1.367,0.321c-0.313,0.043 -0.741,0.064 -1.282,0.064c-1.324,-0 -2.286,-0.47 -2.884,-1.41c-0.313,-0.498 -0.534,-1.203 -0.662,-2.115c-0.783,1.026 -1.908,1.916 -3.375,2.67c-1.467,0.755 -3.083,1.133 -4.849,1.133c-2.122,-0 -3.856,-0.645 -5.202,-1.934c-1.346,-1.289 -2.019,-2.901 -2.019,-4.838c0,-2.122 0.662,-3.767 1.987,-4.935c1.324,-1.168 3.062,-1.887 5.212,-2.157l6.131,-0.77Z" style="fill:#333;fill-rule:nonzero;"/><path d="M2696.42,169.207l3.888,0l-0,6.388l3.653,-0l-0,3.14l-3.653,-0l-0,14.932c-0,0.798 0.27,1.332 0.812,1.602c0.299,0.157 0.797,0.235 1.495,0.235c0.185,0 0.385,-0.003 0.598,-0.01c0.214,-0.008 0.463,-0.025 0.748,-0.054l-0,3.034c-0.442,0.128 -0.901,0.22 -1.378,0.277c-0.477,0.057 -0.993,0.086 -1.549,0.086c-1.794,-0 -3.012,-0.46 -3.653,-1.378c-0.641,-0.919 -0.961,-2.111 -0.961,-3.578l-0,-15.146l-3.098,-0l0,-3.14l3.098,-0l-0,-6.388Z" style="fill:#333;fill-rule:nonzero;"/><path d="M2711.65,175.595l0,15.188c0,1.168 0.185,2.122 0.556,2.863c0.683,1.367 1.958,2.05 3.824,2.05c2.677,0 4.5,-1.196 5.468,-3.588c0.527,-1.282 0.791,-3.041 0.791,-5.277l-0,-11.236l3.845,-0l-0,22.879l-3.632,-0l0.043,-3.376c-0.498,0.869 -1.118,1.603 -1.858,2.201c-1.467,1.196 -3.248,1.794 -5.341,1.794c-3.261,0 -5.483,-1.089 -6.665,-3.268c-0.641,-1.168 -0.961,-2.728 -0.961,-4.679l-0,-15.551l3.93,-0Z" style="fill:#333;fill-rule:nonzero;"/><path d="M2732.25,175.595l3.652,-0l0,3.952c0.3,-0.769 1.033,-1.706 2.201,-2.81c1.168,-1.103 2.513,-1.655 4.037,-1.655c0.071,-0 0.193,0.007 0.363,0.021c0.171,0.014 0.463,0.043 0.876,0.086l0,4.059c-0.228,-0.043 -0.438,-0.072 -0.63,-0.086c-0.192,-0.014 -0.402,-0.021 -0.63,-0.021c-1.937,-0 -3.425,0.623 -4.465,1.869c-1.039,1.246 -1.559,2.681 -1.559,4.304l-0,13.16l-3.845,-0l-0,-22.879Z" style="fill:#333;fill-rule:nonzero;"/><path d="M2756.24,175.082c1.624,-0 3.198,0.381 4.721,1.143c1.524,0.762 2.685,1.748 3.483,2.958c0.769,1.154 1.281,2.5 1.538,4.038c0.227,1.054 0.341,2.734 0.341,5.041l-16.769,0c0.071,2.322 0.619,4.184 1.645,5.587c1.025,1.402 2.613,2.104 4.764,2.104c2.008,-0 3.61,-0.662 4.806,-1.987c0.684,-0.769 1.168,-1.659 1.453,-2.67l3.781,-0c-0.1,0.84 -0.431,1.776 -0.993,2.809c-0.563,1.033 -1.193,1.876 -1.891,2.531c-1.168,1.14 -2.613,1.909 -4.336,2.308c-0.926,0.227 -1.973,0.341 -3.141,0.341c-2.848,0 -5.262,-1.036 -7.242,-3.108c-1.979,-2.072 -2.969,-4.974 -2.969,-8.705c0,-3.674 0.997,-6.658 2.991,-8.951c1.994,-2.293 4.6,-3.439 7.818,-3.439Zm6.131,10.126c-0.156,-1.667 -0.519,-2.998 -1.089,-3.995c-1.054,-1.852 -2.813,-2.777 -5.277,-2.777c-1.766,-0 -3.247,0.637 -4.443,1.912c-1.196,1.274 -1.83,2.894 -1.901,4.86l12.71,-0Z" style="fill:#333;fill-rule:nonzero;"/><path d="M2773.33,191.296c0.114,1.282 0.435,2.264 0.962,2.948c0.968,1.239 2.648,1.858 5.041,1.858c1.424,0 2.677,-0.309 3.76,-0.929c1.082,-0.619 1.623,-1.577 1.623,-2.873c0,-0.983 -0.434,-1.73 -1.303,-2.243c-0.555,-0.313 -1.652,-0.677 -3.29,-1.09l-3.054,-0.769c-1.951,-0.484 -3.39,-1.025 -4.316,-1.623c-1.652,-1.04 -2.478,-2.478 -2.478,-4.315c0,-2.165 0.78,-3.917 2.34,-5.256c1.559,-1.338 3.656,-2.008 6.291,-2.008c3.446,0 5.931,1.012 7.455,3.034c0.954,1.282 1.417,2.663 1.389,4.144l-3.632,0c-0.071,-0.869 -0.377,-1.659 -0.918,-2.371c-0.883,-1.011 -2.414,-1.517 -4.593,-1.517c-1.453,0 -2.553,0.278 -3.301,0.833c-0.747,0.556 -1.121,1.289 -1.121,2.201c-0,0.997 0.491,1.794 1.474,2.392c0.569,0.356 1.41,0.67 2.52,0.94l2.543,0.62c2.762,0.669 4.614,1.317 5.554,1.944c1.495,0.982 2.243,2.528 2.243,4.635c-0,2.037 -0.773,3.796 -2.318,5.277c-1.545,1.481 -3.899,2.221 -7.06,2.221c-3.404,0 -5.814,-0.772 -7.231,-2.317c-1.417,-1.546 -2.176,-3.457 -2.275,-5.736l3.695,-0Z" style="fill:#333;fill-rule:nonzero;"/></g><g id="Tag:-Evidence" serif:id="Tag: Evidence"><path d="M1029.11,63.901l18.715,-35.965l-0.06,71.96l-18.655,-35.995Z" style="fill:#ecd2b5;"/><rect x="1047.82" y="27.936" width="443.75" height="71.959" style="fill:#ecd2b5;"/><path d="M1084.69,44.522l22.879,0l-0,3.846l-18.735,-0l0,9.527l17.325,0l-0,3.632l-17.325,-0l0,10.638l19.055,0l0,3.739l-23.199,-0l-0,-31.382Z" style="fill:#333;fill-rule:nonzero;"/><path d="M1114.83,53.025l6.11,18.628l6.387,-18.628l4.208,-0l-8.63,22.879l-4.102,-0l-8.438,-22.879l4.465,-0Z" style="fill:#333;fill-rule:nonzero;"/><path d="M1134.83,53.131l3.909,0l0,22.773l-3.909,-0l0,-22.773Zm0,-8.609l3.909,0l0,4.358l-3.909,0l0,-4.358Z" style="fill:#333;fill-rule:nonzero;"/><path d="M1146.98,64.731c0,2.45 0.52,4.501 1.56,6.153c1.039,1.652 2.706,2.478 4.998,2.478c1.781,-0 3.244,-0.766 4.39,-2.297c1.147,-1.531 1.72,-3.728 1.72,-6.59c0,-2.891 -0.591,-5.031 -1.773,-6.42c-1.182,-1.388 -2.642,-2.082 -4.379,-2.082c-1.937,-0 -3.507,0.74 -4.711,2.221c-1.203,1.481 -1.805,3.66 -1.805,6.537Zm5.789,-12.112c1.752,-0 3.219,0.37 4.401,1.111c0.684,0.427 1.46,1.175 2.329,2.243l-0,-11.557l3.695,-0l0,31.488l-3.46,-0l-0,-3.183c-0.898,1.41 -1.959,2.428 -3.183,3.055c-1.225,0.626 -2.628,0.939 -4.209,0.939c-2.549,0 -4.756,-1.071 -6.622,-3.215c-1.866,-2.143 -2.799,-4.995 -2.799,-8.555c0,-3.333 0.851,-6.22 2.553,-8.663c1.702,-2.442 4.134,-3.663 7.295,-3.663Z" style="fill:#333;fill-rule:nonzero;"/><path d="M1178.41,52.512c1.624,-0 3.197,0.381 4.721,1.143c1.524,0.762 2.685,1.748 3.482,2.959c0.769,1.153 1.282,2.499 1.538,4.037c0.228,1.054 0.342,2.734 0.342,5.042l-16.769,-0c0.071,2.321 0.619,4.183 1.645,5.586c1.025,1.403 2.613,2.104 4.763,2.104c2.009,-0 3.611,-0.662 4.807,-1.987c0.684,-0.769 1.168,-1.659 1.453,-2.67l3.781,-0c-0.1,0.84 -0.431,1.777 -0.994,2.809c-0.562,1.033 -1.192,1.876 -1.89,2.532c-1.168,1.139 -2.613,1.908 -4.337,2.307c-0.925,0.228 -1.972,0.341 -3.14,0.341c-2.848,0 -5.262,-1.036 -7.242,-3.108c-1.979,-2.072 -2.969,-4.974 -2.969,-8.705c-0,-3.674 0.997,-6.658 2.991,-8.951c1.993,-2.293 4.6,-3.439 7.818,-3.439Zm6.131,10.126c-0.156,-1.667 -0.52,-2.998 -1.089,-3.995c-1.054,-1.851 -2.813,-2.777 -5.277,-2.777c-1.766,-0 -3.247,0.637 -4.443,1.912c-1.196,1.274 -1.83,2.894 -1.901,4.86l12.71,-0Z" style="fill:#333;fill-rule:nonzero;"/><path d="M1193.21,53.025l3.653,-0l0,3.247c1.083,-1.339 2.229,-2.3 3.44,-2.884c1.21,-0.584 2.556,-0.876 4.037,-0.876c3.247,-0 5.44,1.132 6.58,3.397c0.626,1.239 0.94,3.012 0.94,5.319l-0,14.676l-3.91,-0l0,-14.42c0,-1.396 -0.206,-2.521 -0.619,-3.375c-0.684,-1.424 -1.923,-2.136 -3.717,-2.136c-0.912,-0 -1.659,0.092 -2.243,0.277c-1.054,0.314 -1.98,0.94 -2.777,1.88c-0.641,0.755 -1.058,1.535 -1.25,2.339c-0.192,0.805 -0.289,1.955 -0.289,3.45l0,11.985l-3.845,-0l0,-22.879Z" style="fill:#333;fill-rule:nonzero;"/><path d="M1226.37,52.362c2.577,0 4.674,0.627 6.291,1.88c1.616,1.254 2.588,3.411 2.916,6.473l-3.739,0c-0.228,-1.41 -0.747,-2.581 -1.559,-3.514c-0.812,-0.933 -2.115,-1.399 -3.909,-1.399c-2.45,-0 -4.202,1.196 -5.256,3.589c-0.683,1.552 -1.025,3.467 -1.025,5.746c0,2.293 0.484,4.223 1.453,5.789c0.968,1.567 2.492,2.35 4.571,2.35c1.595,0 2.859,-0.488 3.792,-1.463c0.933,-0.976 1.577,-2.311 1.933,-4.006l3.739,0c-0.428,3.034 -1.496,5.252 -3.205,6.655c-1.709,1.403 -3.895,2.104 -6.558,2.104c-2.991,-0 -5.376,-1.093 -7.156,-3.279c-1.78,-2.186 -2.67,-4.917 -2.67,-8.193c-0,-4.016 0.975,-7.142 2.926,-9.378c1.951,-2.236 4.436,-3.354 7.456,-3.354Z" style="fill:#333;fill-rule:nonzero;"/><path d="M1248.95,52.512c1.623,-0 3.197,0.381 4.721,1.143c1.523,0.762 2.684,1.748 3.482,2.959c0.769,1.153 1.281,2.499 1.538,4.037c0.228,1.054 0.342,2.734 0.342,5.042l-16.77,-0c0.071,2.321 0.62,4.183 1.645,5.586c1.025,1.403 2.613,2.104 4.764,2.104c2.008,-0 3.61,-0.662 4.806,-1.987c0.684,-0.769 1.168,-1.659 1.453,-2.67l3.781,-0c-0.1,0.84 -0.431,1.777 -0.993,2.809c-0.563,1.033 -1.193,1.876 -1.891,2.532c-1.168,1.139 -2.613,1.908 -4.336,2.307c-0.926,0.228 -1.973,0.341 -3.141,0.341c-2.848,0 -5.262,-1.036 -7.241,-3.108c-1.98,-2.072 -2.97,-4.974 -2.97,-8.705c0,-3.674 0.997,-6.658 2.991,-8.951c1.994,-2.293 4.6,-3.439 7.819,-3.439Zm6.131,10.126c-0.157,-1.667 -0.52,-2.998 -1.09,-3.995c-1.054,-1.851 -2.813,-2.777 -5.276,-2.777c-1.766,-0 -3.248,0.637 -4.444,1.912c-1.196,1.274 -1.83,2.894 -1.901,4.86l12.711,-0Z" style="fill:#333;fill-rule:nonzero;"/></g></g></svg>