<?xml version="1.0" encoding="UTF-8" standalone="no"?><!DOCTYPE svg PUBLIC "-//W3C//DTD SVG 1.1//EN" "http://www.w3.org/Graphics/SVG/1.1/DTD/svg11.dtd"><svg width="100%" height="100%" viewBox="0 0 3032 250" version="1.1" xmlns="http://www.w3.org/2000/svg" xmlns:xlink="http://www.w3.org/1999/xlink" xml:space="preserve" xmlns:serif="http://www.serif.com/" style="fill-rule:evenodd;clip-rule:evenodd;stroke-linejoin:round;stroke-miterlimit:2;"><g id="Definitions"><rect x="0" y="-0" width="468.75" height="250" style="fill:#bae7c1;"/><rect x="468.75" y="-0" width="2562.5" height="250" style="fill:#e0fde0;"/><path d="M133.478,139.275c1.644,-0 2.995,-0.171 4.053,-0.513c1.888,-0.635 3.434,-1.856 4.639,-3.662c0.96,-1.449 1.652,-3.304 2.075,-5.567c0.244,-1.351 0.366,-2.604 0.366,-3.759c-0,-4.444 -0.883,-7.894 -2.649,-10.352c-1.766,-2.458 -4.61,-3.686 -8.533,-3.686l-8.618,-0l0,27.539l8.667,-0Zm-13.55,-31.714l14.527,-0c4.931,-0 8.756,1.749 11.474,5.249c2.425,3.157 3.638,7.202 3.638,12.134c-0,3.808 -0.716,7.251 -2.148,10.327c-2.523,5.436 -6.861,8.154 -13.013,8.154l-14.478,0l0,-35.864Z" style="fill-rule:nonzero;"/><path d="M166.12,116.692c1.855,-0 3.654,0.435 5.395,1.306c1.742,0.871 3.068,1.998 3.98,3.381c0.879,1.318 1.465,2.857 1.758,4.614c0.26,1.205 0.39,3.125 0.39,5.762l-19.165,0c0.082,2.653 0.708,4.781 1.88,6.384c1.172,1.604 2.987,2.405 5.444,2.405c2.295,0 4.126,-0.757 5.494,-2.27c0.781,-0.879 1.334,-1.897 1.66,-3.052l4.321,-0c-0.114,0.96 -0.492,2.03 -1.135,3.21c-0.643,1.18 -1.363,2.145 -2.161,2.893c-1.335,1.302 -2.987,2.181 -4.956,2.637c-1.058,0.261 -2.254,0.391 -3.589,0.391c-3.255,-0 -6.014,-1.184 -8.276,-3.553c-2.263,-2.368 -3.394,-5.684 -3.394,-9.948c0,-4.199 1.14,-7.609 3.418,-10.23c2.279,-2.62 5.257,-3.93 8.936,-3.93Zm7.007,11.572c-0.179,-1.904 -0.595,-3.426 -1.246,-4.566c-1.204,-2.115 -3.214,-3.173 -6.03,-3.173c-2.018,-0 -3.711,0.728 -5.078,2.185c-1.367,1.456 -2.091,3.308 -2.173,5.554l14.527,-0Z" style="fill-rule:nonzero;"/><path d="M184.137,113.298c0.065,-1.823 0.383,-3.158 0.952,-4.004c1.026,-1.497 3.003,-2.246 5.933,-2.246c0.277,0 0.562,0.008 0.855,0.024c0.293,0.017 0.626,0.041 1.001,0.074l-0,4.004c-0.456,-0.033 -0.786,-0.053 -0.989,-0.061c-0.204,-0.009 -0.395,-0.013 -0.574,-0.013c-1.335,0 -2.132,0.346 -2.393,1.038c-0.26,0.692 -0.39,2.454 -0.39,5.286l4.346,-0l-0,3.466l-4.395,0l0,22.559l-4.346,0l0,-22.559l-3.637,0l-0,-3.466l3.637,-0l0,-4.102Zm12.964,-0.757l0,-4.98l4.395,-0l-0,4.98l-4.395,0Zm0,4.859l4.395,-0l-0,26.025l-4.395,0l0,-26.025Z" style="fill-rule:nonzero;"/><path d="M208.039,117.278l4.174,-0l0,3.71c1.237,-1.529 2.548,-2.628 3.931,-3.295c1.384,-0.668 2.922,-1.001 4.614,-1.001c3.711,-0 6.218,1.294 7.52,3.881c0.716,1.416 1.074,3.443 1.074,6.08l0,16.772l-4.468,0l0,-16.479c0,-1.596 -0.236,-2.881 -0.708,-3.858c-0.781,-1.628 -2.197,-2.441 -4.248,-2.441c-1.041,-0 -1.896,0.105 -2.563,0.317c-1.205,0.358 -2.263,1.074 -3.174,2.149c-0.732,0.862 -1.208,1.753 -1.428,2.673c-0.22,0.919 -0.33,2.234 -0.33,3.943l0,13.696l-4.394,0l-0,-26.147Z" style="fill-rule:nonzero;"/><path d="M235.846,117.4l4.468,-0l0,26.025l-4.468,0l0,-26.025Zm0,-9.839l4.468,-0l0,4.98l-4.468,0l0,-4.98Z" style="fill-rule:nonzero;"/><path d="M247.834,109.978l4.443,-0l-0,7.3l4.175,-0l-0,3.588l-4.175,0l-0,17.066c-0,0.911 0.309,1.522 0.928,1.831c0.341,0.179 0.911,0.268 1.709,0.268c0.211,0 0.439,-0.004 0.683,-0.012c0.244,-0.008 0.529,-0.028 0.855,-0.061l-0,3.467c-0.505,0.146 -1.03,0.252 -1.575,0.317c-0.545,0.065 -1.135,0.098 -1.77,0.098c-2.051,0 -3.442,-0.525 -4.175,-1.575c-0.732,-1.049 -1.098,-2.413 -1.098,-4.089l-0,-17.31l-3.54,0l-0,-3.588l3.54,-0l-0,-7.3Z" style="fill-rule:nonzero;"/><path d="M260.846,117.4l4.468,-0l0,26.025l-4.468,0l0,-26.025Zm0,-9.839l4.468,-0l0,4.98l-4.468,0l0,-4.98Z" style="fill-rule:nonzero;"/><path d="M282.331,140.593c2.913,-0 4.911,-1.103 5.993,-3.308c1.083,-2.206 1.624,-4.659 1.624,-7.361c-0,-2.441 -0.391,-4.427 -1.172,-5.957c-1.237,-2.409 -3.369,-3.613 -6.397,-3.613c-2.685,-0 -4.638,1.025 -5.859,3.076c-1.221,2.051 -1.831,4.525 -1.831,7.422c0,2.783 0.61,5.102 1.831,6.958c1.221,1.855 3.158,2.783 5.811,2.783Zm0.171,-24.072c3.369,-0 6.217,1.123 8.544,3.369c2.328,2.246 3.492,5.55 3.492,9.912c-0,4.215 -1.026,7.699 -3.076,10.449c-2.051,2.751 -5.233,4.126 -9.546,4.126c-3.597,0 -6.454,-1.216 -8.57,-3.65c-2.116,-2.433 -3.174,-5.7 -3.174,-9.802c0,-4.395 1.115,-7.894 3.345,-10.498c2.23,-2.604 5.225,-3.906 8.985,-3.906Z" style="fill-rule:nonzero;"/><path d="M299.762,117.278l4.175,-0l0,3.71c1.237,-1.529 2.547,-2.628 3.931,-3.295c1.383,-0.668 2.921,-1.001 4.614,-1.001c3.711,-0 6.217,1.294 7.52,3.881c0.716,1.416 1.074,3.443 1.074,6.08l-0,16.772l-4.468,0l0,-16.479c0,-1.596 -0.236,-2.881 -0.708,-3.858c-0.781,-1.628 -2.197,-2.441 -4.248,-2.441c-1.042,-0 -1.896,0.105 -2.564,0.317c-1.204,0.358 -2.262,1.074 -3.173,2.149c-0.733,0.862 -1.209,1.753 -1.429,2.673c-0.219,0.919 -0.329,2.234 -0.329,3.943l-0,13.696l-4.395,0l0,-26.147Z" style="fill-rule:nonzero;"/><path d="M330.182,135.222c0.13,1.465 0.497,2.588 1.099,3.369c1.107,1.416 3.027,2.124 5.762,2.124c1.627,0 3.059,-0.354 4.296,-1.062c1.237,-0.708 1.856,-1.803 1.856,-3.284c-0,-1.123 -0.496,-1.977 -1.489,-2.563c-0.635,-0.358 -1.888,-0.773 -3.76,-1.245l-3.491,-0.879c-2.23,-0.554 -3.874,-1.172 -4.932,-1.856c-1.888,-1.188 -2.832,-2.832 -2.832,-4.931c0,-2.474 0.891,-4.476 2.673,-6.006c1.783,-1.53 4.179,-2.295 7.19,-2.295c3.939,-0 6.779,1.156 8.521,3.467c1.09,1.465 1.619,3.043 1.587,4.736l-4.151,0c-0.081,-0.993 -0.431,-1.896 -1.049,-2.71c-1.01,-1.155 -2.759,-1.733 -5.25,-1.733c-1.66,-0 -2.917,0.317 -3.771,0.952c-0.855,0.635 -1.282,1.473 -1.282,2.515c-0,1.139 0.561,2.05 1.684,2.734c0.651,0.407 1.612,0.765 2.881,1.074l2.905,0.708c3.158,0.765 5.274,1.506 6.348,2.222c1.709,1.123 2.564,2.889 2.564,5.298c-0,2.327 -0.883,4.337 -2.649,6.03c-1.766,1.693 -4.456,2.539 -8.069,2.539c-3.89,-0 -6.645,-0.883 -8.264,-2.649c-1.62,-1.766 -2.486,-3.951 -2.6,-6.555l4.223,-0Z" style="fill-rule:nonzero;"/><g id="Tag:-Standards" serif:id="Tag: Standards"><path d="M529.095,126.472l18.715,-35.964l-0.06,71.96l-18.655,-35.996Z" style="fill:#bae7c1;"/><rect x="547.81" y="90.508" width="443.75" height="71.959" style="fill:#bae7c1;"/><path d="M587.049,128.35c0.1,1.78 0.52,3.225 1.26,4.336c1.41,2.079 3.895,3.119 7.456,3.119c1.595,0 3.047,-0.228 4.358,-0.683c2.535,-0.883 3.802,-2.464 3.802,-4.743c0,-1.709 -0.534,-2.927 -1.602,-3.653c-1.082,-0.712 -2.777,-1.331 -5.084,-1.858l-4.251,-0.962c-2.777,-0.626 -4.743,-1.317 -5.896,-2.072c-1.994,-1.31 -2.991,-3.268 -2.991,-5.874c-0,-2.82 0.975,-5.135 2.927,-6.943c1.951,-1.809 4.714,-2.713 8.288,-2.713c3.29,-0 6.085,0.794 8.385,2.382c2.3,1.588 3.45,4.126 3.45,7.615l-3.995,0c-0.214,-1.68 -0.669,-2.969 -1.367,-3.866c-1.296,-1.638 -3.496,-2.457 -6.601,-2.457c-2.507,0 -4.308,0.527 -5.405,1.581c-1.096,1.054 -1.645,2.279 -1.645,3.674c0,1.538 0.641,2.663 1.923,3.375c0.84,0.456 2.742,1.026 5.704,1.709l4.4,1.004c2.122,0.485 3.76,1.147 4.914,1.987c1.994,1.467 2.99,3.596 2.99,6.388c0,3.474 -1.263,5.96 -3.791,7.455c-2.528,1.495 -5.466,2.243 -8.812,2.243c-3.903,-0 -6.957,-0.997 -9.165,-2.991c-2.207,-1.979 -3.29,-4.664 -3.247,-8.053l3.995,-0Z" style="fill:#333;fill-rule:nonzero;"/><path d="M613.709,109.209l3.888,0l0,6.387l3.653,0l-0,3.141l-3.653,-0l0,14.932c0,0.797 0.271,1.331 0.812,1.602c0.299,0.157 0.797,0.235 1.495,0.235c0.185,0 0.385,-0.004 0.598,-0.011c0.214,-0.007 0.463,-0.025 0.748,-0.053l-0,3.033c-0.442,0.129 -0.901,0.221 -1.378,0.278c-0.477,0.057 -0.993,0.086 -1.549,0.086c-1.794,-0 -3.012,-0.46 -3.653,-1.378c-0.64,-0.919 -0.961,-2.112 -0.961,-3.578l0,-15.146l-3.097,-0l-0,-3.141l3.097,0l0,-6.387Z" style="fill:#333;fill-rule:nonzero;"/><path d="M628.043,132.387c0,1.111 0.406,1.987 1.218,2.628c0.812,0.641 1.773,0.961 2.884,0.961c1.353,0 2.663,-0.313 3.93,-0.94c2.137,-1.04 3.205,-2.741 3.205,-5.106l-0,-3.097c-0.47,0.299 -1.075,0.548 -1.816,0.748c-0.741,0.199 -1.467,0.341 -2.179,0.427l-2.328,0.299c-1.396,0.185 -2.443,0.477 -3.141,0.876c-1.182,0.669 -1.773,1.737 -1.773,3.204Zm9.314,-7.776c0.883,-0.114 1.474,-0.484 1.773,-1.111c0.171,-0.341 0.257,-0.833 0.257,-1.474c-0,-1.31 -0.467,-2.26 -1.4,-2.851c-0.932,-0.591 -2.268,-0.887 -4.005,-0.887c-2.008,0 -3.432,0.541 -4.273,1.624c-0.47,0.598 -0.776,1.488 -0.918,2.67l-3.589,-0c0.071,-2.82 0.986,-4.782 2.745,-5.885c1.759,-1.104 3.799,-1.656 6.12,-1.656c2.692,-0 4.878,0.513 6.559,1.538c1.666,1.025 2.499,2.62 2.499,4.785l-0,13.181c-0,0.399 0.082,0.719 0.246,0.961c0.163,0.242 0.509,0.363 1.036,0.363c0.171,0 0.363,-0.01 0.576,-0.032c0.214,-0.021 0.442,-0.053 0.684,-0.096l0,2.841c-0.598,0.171 -1.054,0.278 -1.367,0.321c-0.313,0.042 -0.741,0.064 -1.282,0.064c-1.324,-0 -2.286,-0.47 -2.884,-1.41c-0.313,-0.499 -0.534,-1.204 -0.662,-2.115c-0.783,1.025 -1.908,1.915 -3.375,2.67c-1.467,0.755 -3.084,1.132 -4.849,1.132c-2.122,0 -3.856,-0.644 -5.202,-1.933c-1.346,-1.289 -2.019,-2.902 -2.019,-4.838c0,-2.122 0.662,-3.767 1.987,-4.935c1.324,-1.168 3.062,-1.887 5.212,-2.158l6.131,-0.769Z" style="fill:#333;fill-rule:nonzero;"/><path d="M649.427,115.596l3.653,0l-0,3.247c1.082,-1.338 2.229,-2.3 3.439,-2.883c1.211,-0.584 2.556,-0.876 4.038,-0.876c3.247,-0 5.44,1.132 6.579,3.396c0.627,1.239 0.94,3.012 0.94,5.32l0,14.675l-3.909,0l-0,-14.419c-0,-1.396 -0.207,-2.521 -0.62,-3.375c-0.683,-1.425 -1.922,-2.137 -3.717,-2.137c-0.911,0 -1.659,0.093 -2.243,0.278c-1.054,0.313 -1.979,0.94 -2.777,1.88c-0.641,0.755 -1.057,1.535 -1.25,2.339c-0.192,0.805 -0.288,1.955 -0.288,3.45l0,11.984l-3.845,0l-0,-22.879Z" style="fill:#333;fill-rule:nonzero;"/><path d="M676.194,127.303c-0,2.449 0.52,4.5 1.559,6.152c1.04,1.652 2.706,2.478 4.999,2.478c1.78,0 3.244,-0.765 4.39,-2.296c1.146,-1.531 1.72,-3.728 1.72,-6.59c-0,-2.891 -0.591,-5.031 -1.773,-6.42c-1.182,-1.388 -2.642,-2.083 -4.38,-2.083c-1.937,0 -3.507,0.741 -4.71,2.222c-1.203,1.481 -1.805,3.66 -1.805,6.537Zm5.789,-12.112c1.752,-0 3.219,0.37 4.401,1.11c0.683,0.428 1.459,1.175 2.328,2.243l0,-11.557l3.696,0l-0,31.488l-3.461,0l0,-3.183c-0.897,1.41 -1.958,2.429 -3.183,3.055c-1.225,0.627 -2.627,0.94 -4.208,0.94c-2.549,0 -4.757,-1.071 -6.623,-3.215c-1.865,-2.143 -2.798,-4.995 -2.798,-8.555c-0,-3.333 0.851,-6.22 2.553,-8.663c1.702,-2.442 4.133,-3.663 7.295,-3.663Z" style="fill:#333;fill-rule:nonzero;"/><path d="M701.038,132.387c0,1.111 0.406,1.987 1.218,2.628c0.812,0.641 1.773,0.961 2.884,0.961c1.353,0 2.663,-0.313 3.93,-0.94c2.137,-1.04 3.205,-2.741 3.205,-5.106l-0,-3.097c-0.47,0.299 -1.075,0.548 -1.816,0.748c-0.741,0.199 -1.467,0.341 -2.179,0.427l-2.328,0.299c-1.396,0.185 -2.443,0.477 -3.141,0.876c-1.182,0.669 -1.773,1.737 -1.773,3.204Zm9.314,-7.776c0.883,-0.114 1.474,-0.484 1.773,-1.111c0.171,-0.341 0.257,-0.833 0.257,-1.474c-0,-1.31 -0.467,-2.26 -1.4,-2.851c-0.932,-0.591 -2.268,-0.887 -4.005,-0.887c-2.008,0 -3.432,0.541 -4.273,1.624c-0.47,0.598 -0.776,1.488 -0.918,2.67l-3.589,-0c0.071,-2.82 0.986,-4.782 2.745,-5.885c1.759,-1.104 3.799,-1.656 6.12,-1.656c2.692,-0 4.878,0.513 6.559,1.538c1.666,1.025 2.499,2.62 2.499,4.785l-0,13.181c-0,0.399 0.082,0.719 0.246,0.961c0.163,0.242 0.509,0.363 1.036,0.363c0.171,0 0.363,-0.01 0.576,-0.032c0.214,-0.021 0.442,-0.053 0.684,-0.096l0,2.841c-0.598,0.171 -1.054,0.278 -1.367,0.321c-0.313,0.042 -0.741,0.064 -1.282,0.064c-1.324,-0 -2.286,-0.47 -2.884,-1.41c-0.313,-0.499 -0.534,-1.204 -0.662,-2.115c-0.783,1.025 -1.908,1.915 -3.375,2.67c-1.467,0.755 -3.084,1.132 -4.849,1.132c-2.122,0 -3.856,-0.644 -5.202,-1.933c-1.346,-1.289 -2.019,-2.902 -2.019,-4.838c0,-2.122 0.662,-3.767 1.987,-4.935c1.324,-1.168 3.062,-1.887 5.212,-2.158l6.131,-0.769Z" style="fill:#333;fill-rule:nonzero;"/><path d="M722.529,115.596l3.653,0l-0,3.952c0.299,-0.769 1.032,-1.705 2.2,-2.809c1.168,-1.103 2.514,-1.655 4.037,-1.655c0.072,-0 0.193,0.007 0.364,0.021c0.17,0.014 0.462,0.043 0.875,0.086l0,4.058c-0.227,-0.042 -0.438,-0.071 -0.63,-0.085c-0.192,-0.014 -0.402,-0.021 -0.63,-0.021c-1.937,-0 -3.425,0.623 -4.465,1.869c-1.039,1.246 -1.559,2.681 -1.559,4.304l-0,13.159l-3.845,0l-0,-22.879Z" style="fill:#333;fill-rule:nonzero;"/><path d="M739.426,127.303c0,2.449 0.52,4.5 1.56,6.152c1.039,1.652 2.706,2.478 4.998,2.478c1.781,0 3.244,-0.765 4.39,-2.296c1.147,-1.531 1.72,-3.728 1.72,-6.59c0,-2.891 -0.591,-5.031 -1.773,-6.42c-1.182,-1.388 -2.642,-2.083 -4.379,-2.083c-1.937,0 -3.507,0.741 -4.711,2.222c-1.203,1.481 -1.805,3.66 -1.805,6.537Zm5.789,-12.112c1.752,-0 3.219,0.37 4.401,1.11c0.684,0.428 1.46,1.175 2.329,2.243l-0,-11.557l3.695,0l0,31.488l-3.46,0l-0,-3.183c-0.898,1.41 -1.959,2.429 -3.183,3.055c-1.225,0.627 -2.628,0.94 -4.209,0.94c-2.549,0 -4.756,-1.071 -6.622,-3.215c-1.866,-2.143 -2.799,-4.995 -2.799,-8.555c0,-3.333 0.851,-6.22 2.553,-8.663c1.702,-2.442 4.134,-3.663 7.295,-3.663Z" style="fill:#333;fill-rule:nonzero;"/><path d="M763.608,131.298c0.114,1.281 0.435,2.264 0.962,2.948c0.968,1.239 2.649,1.858 5.041,1.858c1.424,0 2.678,-0.31 3.76,-0.929c1.082,-0.62 1.623,-1.577 1.623,-2.873c0,-0.983 -0.434,-1.731 -1.303,-2.243c-0.555,-0.314 -1.652,-0.677 -3.289,-1.09l-3.055,-0.769c-1.951,-0.484 -3.39,-1.025 -4.315,-1.623c-1.652,-1.04 -2.478,-2.478 -2.478,-4.316c-0,-2.164 0.779,-3.916 2.339,-5.255c1.559,-1.338 3.656,-2.008 6.291,-2.008c3.446,0 5.932,1.011 7.455,3.034c0.955,1.281 1.417,2.663 1.389,4.144l-3.632,-0c-0.071,-0.869 -0.377,-1.659 -0.918,-2.371c-0.883,-1.011 -2.414,-1.517 -4.593,-1.517c-1.453,0 -2.553,0.278 -3.301,0.833c-0.747,0.556 -1.121,1.289 -1.121,2.2c-0,0.997 0.491,1.795 1.474,2.393c0.57,0.356 1.41,0.669 2.521,0.94l2.542,0.62c2.763,0.669 4.614,1.317 5.554,1.943c1.495,0.983 2.243,2.528 2.243,4.636c-0,2.037 -0.773,3.795 -2.318,5.277c-1.545,1.481 -3.898,2.221 -7.06,2.221c-3.404,0 -5.814,-0.772 -7.231,-2.318c-1.417,-1.545 -2.176,-3.457 -2.275,-5.735l3.695,-0Z" style="fill:#333;fill-rule:nonzero;"/></g><g id="Tag:-Requirements" serif:id="Tag: Requirements"><path d="M1029.06,126.472l18.716,-35.964l-0.061,71.96l-18.655,-35.996Z" style="fill:#bae7c1;"/><rect x="1047.78" y="90.508" width="443.75" height="71.959" style="fill:#bae7c1;"/><path d="M1098.83,121.471c1.994,0 3.571,-0.399 4.732,-1.196c1.16,-0.798 1.741,-2.236 1.741,-4.315c-0,-2.236 -0.812,-3.76 -2.436,-4.572c-0.868,-0.427 -2.029,-0.641 -3.482,-0.641l-10.382,0l0,10.724l9.827,0Zm-14.078,-14.377l14.526,0c2.393,0 4.365,0.349 5.918,1.047c2.948,1.339 4.422,3.81 4.422,7.413c-0,1.88 -0.388,3.418 -1.164,4.614c-0.777,1.196 -1.863,2.158 -3.258,2.884c1.225,0.498 2.147,1.153 2.766,1.965c0.62,0.812 0.965,2.129 1.036,3.952l0.15,4.209c0.043,1.196 0.142,2.086 0.299,2.67c0.256,0.997 0.712,1.638 1.367,1.922l0,0.705l-5.212,0c-0.143,-0.27 -0.257,-0.619 -0.342,-1.046c-0.086,-0.428 -0.157,-1.254 -0.214,-2.478l-0.256,-5.234c-0.1,-2.051 -0.862,-3.425 -2.286,-4.123c-0.812,-0.385 -2.086,-0.577 -3.824,-0.577l-9.677,0l0,13.458l-4.251,0l0,-31.381Z" style="fill:#333;fill-rule:nonzero;"/><path d="M1124.85,115.084c1.624,-0 3.197,0.381 4.721,1.143c1.524,0.761 2.685,1.748 3.482,2.958c0.769,1.154 1.282,2.5 1.538,4.038c0.228,1.054 0.342,2.734 0.342,5.041l-16.769,0c0.071,2.322 0.619,4.184 1.645,5.586c1.025,1.403 2.613,2.105 4.763,2.105c2.008,-0 3.611,-0.663 4.807,-1.987c0.684,-0.769 1.168,-1.659 1.453,-2.67l3.781,-0c-0.1,0.84 -0.431,1.776 -0.994,2.809c-0.562,1.032 -1.192,1.876 -1.89,2.531c-1.168,1.14 -2.614,1.909 -4.337,2.307c-0.925,0.228 -1.972,0.342 -3.14,0.342c-2.848,0 -5.262,-1.036 -7.242,-3.108c-1.979,-2.072 -2.969,-4.974 -2.969,-8.705c-0,-3.674 0.997,-6.658 2.991,-8.951c1.993,-2.293 4.6,-3.439 7.818,-3.439Zm6.131,10.125c-0.157,-1.666 -0.52,-2.997 -1.089,-3.994c-1.054,-1.852 -2.813,-2.777 -5.277,-2.777c-1.766,-0 -3.247,0.637 -4.443,1.912c-1.197,1.274 -1.83,2.894 -1.901,4.859l12.71,0Z" style="fill:#333;fill-rule:nonzero;"/><path d="M1142.13,127.346c0,1.979 0.278,3.638 0.833,4.977c0.983,2.378 2.742,3.568 5.277,3.568c2.677,-0 4.522,-1.254 5.533,-3.76c0.555,-1.382 0.833,-3.148 0.833,-5.298c-0,-1.98 -0.306,-3.632 -0.919,-4.956c-1.039,-2.264 -2.869,-3.397 -5.49,-3.397c-1.666,0 -3.094,0.723 -4.283,2.169c-1.189,1.445 -1.784,3.677 -1.784,6.697Zm5.683,-12.262c1.894,-0 3.489,0.477 4.785,1.431c0.712,0.513 1.395,1.267 2.051,2.264l-0,-3.183l3.652,0l0,32.001l-3.866,0l-0,-11.749c-0.641,1.025 -1.527,1.841 -2.66,2.446c-1.132,0.605 -2.545,0.908 -4.24,0.908c-2.435,-0 -4.614,-0.954 -6.537,-2.863c-1.923,-1.908 -2.884,-4.813 -2.884,-8.716c0,-3.66 0.901,-6.665 2.702,-9.015c1.802,-2.349 4.134,-3.524 6.997,-3.524Z" style="fill:#333;fill-rule:nonzero;"/><path d="M1167.83,115.596l0,15.189c0,1.168 0.185,2.122 0.556,2.863c0.683,1.367 1.958,2.05 3.823,2.05c2.678,0 4.501,-1.196 5.469,-3.589c0.527,-1.281 0.791,-3.04 0.791,-5.276l-0,-11.237l3.845,0l-0,22.879l-3.632,0l0.043,-3.375c-0.499,0.869 -1.118,1.602 -1.859,2.2c-1.467,1.197 -3.247,1.795 -5.34,1.795c-3.262,-0 -5.483,-1.09 -6.665,-3.269c-0.641,-1.167 -0.962,-2.727 -0.962,-4.678l0,-15.552l3.931,0Z" style="fill:#333;fill-rule:nonzero;"/><path d="M1188.31,115.703l3.909,0l-0,22.772l-3.909,0l-0,-22.772Zm-0,-8.609l3.909,0l-0,4.358l-3.909,0l-0,-4.358Z" style="fill:#333;fill-rule:nonzero;"/><path d="M1198.14,115.596l3.653,0l0,3.952c0.299,-0.769 1.033,-1.705 2.2,-2.809c1.168,-1.103 2.514,-1.655 4.038,-1.655c0.071,-0 0.192,0.007 0.363,0.021c0.171,0.014 0.463,0.043 0.876,0.086l-0,4.058c-0.228,-0.042 -0.438,-0.071 -0.63,-0.085c-0.192,-0.014 -0.403,-0.021 -0.63,-0.021c-1.937,-0 -3.426,0.623 -4.465,1.869c-1.04,1.246 -1.56,2.681 -1.56,4.304l0,13.159l-3.845,0l0,-22.879Z" style="fill:#333;fill-rule:nonzero;"/><path d="M1222.13,115.084c1.624,-0 3.197,0.381 4.721,1.143c1.524,0.761 2.685,1.748 3.482,2.958c0.769,1.154 1.282,2.5 1.538,4.038c0.228,1.054 0.342,2.734 0.342,5.041l-16.769,0c0.071,2.322 0.619,4.184 1.645,5.586c1.025,1.403 2.613,2.105 4.763,2.105c2.008,-0 3.611,-0.663 4.807,-1.987c0.683,-0.769 1.168,-1.659 1.453,-2.67l3.781,-0c-0.1,0.84 -0.431,1.776 -0.994,2.809c-0.562,1.032 -1.192,1.876 -1.89,2.531c-1.168,1.14 -2.614,1.909 -4.337,2.307c-0.926,0.228 -1.972,0.342 -3.14,0.342c-2.848,0 -5.262,-1.036 -7.242,-3.108c-1.979,-2.072 -2.969,-4.974 -2.969,-8.705c-0,-3.674 0.997,-6.658 2.99,-8.951c1.994,-2.293 4.6,-3.439 7.819,-3.439Zm6.131,10.125c-0.157,-1.666 -0.52,-2.997 -1.089,-3.994c-1.054,-1.852 -2.813,-2.777 -5.277,-2.777c-1.766,-0 -3.247,0.637 -4.443,1.912c-1.197,1.274 -1.83,2.894 -1.902,4.859l12.711,0Z" style="fill:#333;fill-rule:nonzero;"/><path d="M1236.93,115.596l3.803,0l-0,3.247c0.911,-1.125 1.737,-1.944 2.478,-2.456c1.267,-0.869 2.706,-1.303 4.315,-1.303c1.823,-0 3.29,0.448 4.4,1.346c0.627,0.512 1.197,1.267 1.709,2.264c0.855,-1.225 1.859,-2.133 3.013,-2.724c1.153,-0.591 2.449,-0.886 3.887,-0.886c3.077,-0 5.17,1.111 6.281,3.332c0.598,1.197 0.897,2.806 0.897,4.828l0,15.231l-3.995,0l0,-15.893c0,-1.524 -0.38,-2.571 -1.142,-3.14c-0.762,-0.57 -1.692,-0.855 -2.788,-0.855c-1.51,0 -2.809,0.506 -3.899,1.517c-1.089,1.011 -1.634,2.699 -1.634,5.063l-0,13.308l-3.909,0l-0,-14.932c-0,-1.552 -0.185,-2.684 -0.556,-3.396c-0.584,-1.069 -1.673,-1.603 -3.268,-1.603c-1.453,0 -2.774,0.563 -3.963,1.688c-1.189,1.125 -1.784,3.162 -1.784,6.11l0,12.133l-3.845,0l0,-22.879Z" style="fill:#333;fill-rule:nonzero;"/><path d="M1282.91,115.084c1.623,-0 3.197,0.381 4.721,1.143c1.524,0.761 2.684,1.748 3.482,2.958c0.769,1.154 1.282,2.5 1.538,4.038c0.228,1.054 0.342,2.734 0.342,5.041l-16.77,0c0.072,2.322 0.62,4.184 1.645,5.586c1.026,1.403 2.614,2.105 4.764,2.105c2.008,-0 3.61,-0.663 4.807,-1.987c0.683,-0.769 1.167,-1.659 1.452,-2.67l3.781,-0c-0.099,0.84 -0.43,1.776 -0.993,2.809c-0.562,1.032 -1.193,1.876 -1.891,2.531c-1.167,1.14 -2.613,1.909 -4.336,2.307c-0.926,0.228 -1.973,0.342 -3.14,0.342c-2.849,0 -5.263,-1.036 -7.242,-3.108c-1.98,-2.072 -2.97,-4.974 -2.97,-8.705c0,-3.674 0.997,-6.658 2.991,-8.951c1.994,-2.293 4.6,-3.439 7.819,-3.439Zm6.131,10.125c-0.157,-1.666 -0.52,-2.997 -1.09,-3.994c-1.054,-1.852 -2.812,-2.777 -5.276,-2.777c-1.766,-0 -3.247,0.637 -4.444,1.912c-1.196,1.274 -1.83,2.894 -1.901,4.859l12.711,0Z" style="fill:#333;fill-rule:nonzero;"/><path d="M1297.71,115.596l3.653,0l-0,3.247c1.082,-1.338 2.229,-2.3 3.439,-2.883c1.211,-0.584 2.557,-0.876 4.038,-0.876c3.247,-0 5.44,1.132 6.579,3.396c0.627,1.239 0.94,3.012 0.94,5.32l0,14.675l-3.909,0l-0,-14.419c-0,-1.396 -0.207,-2.521 -0.62,-3.375c-0.683,-1.425 -1.922,-2.137 -3.717,-2.137c-0.911,0 -1.659,0.093 -2.243,0.278c-1.054,0.313 -1.979,0.94 -2.777,1.88c-0.641,0.755 -1.057,1.535 -1.249,2.339c-0.193,0.805 -0.289,1.955 -0.289,3.45l0,11.984l-3.845,0l-0,-22.879Z" style="fill:#333;fill-rule:nonzero;"/><path d="M1322.81,109.209l3.888,0l-0,6.387l3.653,0l-0,3.141l-3.653,-0l-0,14.932c-0,0.797 0.27,1.331 0.811,1.602c0.299,0.157 0.798,0.235 1.496,0.235c0.185,0 0.384,-0.004 0.598,-0.011c0.213,-0.007 0.463,-0.025 0.748,-0.053l-0,3.033c-0.442,0.129 -0.901,0.221 -1.378,0.278c-0.477,0.057 -0.994,0.086 -1.549,0.086c-1.795,-0 -3.012,-0.46 -3.653,-1.378c-0.641,-0.919 -0.961,-2.112 -0.961,-3.578l-0,-15.146l-3.098,-0l0,-3.141l3.098,0l-0,-6.387Z" style="fill:#333;fill-rule:nonzero;"/><path d="M1336.48,131.298c0.114,1.281 0.435,2.264 0.962,2.948c0.968,1.239 2.649,1.858 5.041,1.858c1.424,0 2.678,-0.31 3.76,-0.929c1.082,-0.62 1.624,-1.577 1.624,-2.873c-0,-0.983 -0.435,-1.731 -1.304,-2.243c-0.555,-0.314 -1.652,-0.677 -3.289,-1.09l-3.055,-0.769c-1.951,-0.484 -3.39,-1.025 -4.315,-1.623c-1.652,-1.04 -2.478,-2.478 -2.478,-4.316c-0,-2.164 0.779,-3.916 2.339,-5.255c1.559,-1.338 3.656,-2.008 6.291,-2.008c3.446,0 5.932,1.011 7.455,3.034c0.955,1.281 1.418,2.663 1.389,4.144l-3.632,-0c-0.071,-0.869 -0.377,-1.659 -0.918,-2.371c-0.883,-1.011 -2.414,-1.517 -4.593,-1.517c-1.453,0 -2.553,0.278 -3.301,0.833c-0.747,0.556 -1.121,1.289 -1.121,2.2c-0,0.997 0.491,1.795 1.474,2.393c0.57,0.356 1.41,0.669 2.521,0.94l2.542,0.62c2.763,0.669 4.614,1.317 5.554,1.943c1.495,0.983 2.243,2.528 2.243,4.636c0,2.037 -0.773,3.795 -2.318,5.277c-1.545,1.481 -3.898,2.221 -7.06,2.221c-3.404,0 -5.814,-0.772 -7.231,-2.318c-1.417,-1.545 -2.176,-3.457 -2.275,-5.735l3.695,-0Z" style="fill:#333;fill-rule:nonzero;"/></g><g id="Tag:-Levels" serif:id="Tag: Levels"><path d="M1529.06,126.472l18.716,-35.964l-0.061,71.96l-18.655,-35.996Z" style="fill:#bae7c1;"/><rect x="1547.78" y="90.508" width="443.75" height="71.959" style="fill:#bae7c1;"/><path d="M1584.24,107.094l4.251,0l0,27.643l15.894,0l0,3.738l-20.145,0l0,-31.381Z" style="fill:#333;fill-rule:nonzero;"/><path d="M1617.58,115.084c1.623,-0 3.197,0.381 4.721,1.143c1.524,0.761 2.685,1.748 3.482,2.958c0.769,1.154 1.282,2.5 1.538,4.038c0.228,1.054 0.342,2.734 0.342,5.041l-16.769,0c0.071,2.322 0.619,4.184 1.644,5.586c1.026,1.403 2.614,2.105 4.764,2.105c2.008,-0 3.61,-0.663 4.807,-1.987c0.683,-0.769 1.168,-1.659 1.452,-2.67l3.782,-0c-0.1,0.84 -0.431,1.776 -0.994,2.809c-0.562,1.032 -1.193,1.876 -1.89,2.531c-1.168,1.14 -2.614,1.909 -4.337,2.307c-0.926,0.228 -1.972,0.342 -3.14,0.342c-2.849,0 -5.262,-1.036 -7.242,-3.108c-1.98,-2.072 -2.969,-4.974 -2.969,-8.705c-0,-3.674 0.997,-6.658 2.99,-8.951c1.994,-2.293 4.6,-3.439 7.819,-3.439Zm6.131,10.125c-0.157,-1.666 -0.52,-2.997 -1.09,-3.994c-1.053,-1.852 -2.812,-2.777 -5.276,-2.777c-1.766,-0 -3.247,0.637 -4.443,1.912c-1.197,1.274 -1.83,2.894 -1.902,4.859l12.711,0Z" style="fill:#333;fill-rule:nonzero;"/><path d="M1634.27,115.596l6.11,18.628l6.387,-18.628l4.208,0l-8.63,22.879l-4.102,0l-8.438,-22.879l4.465,0Z" style="fill:#333;fill-rule:nonzero;"/><path d="M1663.79,115.084c1.623,-0 3.197,0.381 4.721,1.143c1.524,0.761 2.684,1.748 3.482,2.958c0.769,1.154 1.281,2.5 1.538,4.038c0.228,1.054 0.342,2.734 0.342,5.041l-16.77,0c0.071,2.322 0.62,4.184 1.645,5.586c1.025,1.403 2.613,2.105 4.764,2.105c2.008,-0 3.61,-0.663 4.806,-1.987c0.684,-0.769 1.168,-1.659 1.453,-2.67l3.781,-0c-0.1,0.84 -0.431,1.776 -0.993,2.809c-0.563,1.032 -1.193,1.876 -1.891,2.531c-1.168,1.14 -2.613,1.909 -4.336,2.307c-0.926,0.228 -1.973,0.342 -3.141,0.342c-2.848,0 -5.262,-1.036 -7.241,-3.108c-1.98,-2.072 -2.97,-4.974 -2.97,-8.705c0,-3.674 0.997,-6.658 2.991,-8.951c1.994,-2.293 4.6,-3.439 7.819,-3.439Zm6.131,10.125c-0.157,-1.666 -0.52,-2.997 -1.09,-3.994c-1.054,-1.852 -2.813,-2.777 -5.276,-2.777c-1.766,-0 -3.247,0.637 -4.444,1.912c-1.196,1.274 -1.83,2.894 -1.901,4.859l12.711,0Z" style="fill:#333;fill-rule:nonzero;"/><rect x="1678.7" y="107.094" width="3.845" height="31.381" style="fill:#333;fill-rule:nonzero;"/><path d="M1690.6,131.298c0.114,1.281 0.435,2.264 0.962,2.948c0.968,1.239 2.649,1.858 5.041,1.858c1.424,0 2.678,-0.31 3.76,-0.929c1.082,-0.62 1.623,-1.577 1.623,-2.873c0,-0.983 -0.434,-1.731 -1.303,-2.243c-0.555,-0.314 -1.652,-0.677 -3.289,-1.09l-3.055,-0.769c-1.951,-0.484 -3.39,-1.025 -4.315,-1.623c-1.652,-1.04 -2.479,-2.478 -2.479,-4.316c0,-2.164 0.78,-3.916 2.34,-5.255c1.559,-1.338 3.656,-2.008 6.291,-2.008c3.446,0 5.931,1.011 7.455,3.034c0.954,1.281 1.417,2.663 1.389,4.144l-3.632,-0c-0.071,-0.869 -0.377,-1.659 -0.918,-2.371c-0.883,-1.011 -2.414,-1.517 -4.593,-1.517c-1.453,0 -2.553,0.278 -3.301,0.833c-0.747,0.556 -1.121,1.289 -1.121,2.2c-0,0.997 0.491,1.795 1.474,2.393c0.569,0.356 1.41,0.669 2.521,0.94l2.542,0.62c2.763,0.669 4.614,1.317 5.554,1.943c1.495,0.983 2.243,2.528 2.243,4.636c-0,2.037 -0.773,3.795 -2.318,5.277c-1.545,1.481 -3.899,2.221 -7.06,2.221c-3.404,0 -5.814,-0.772 -7.231,-2.318c-1.417,-1.545 -2.176,-3.457 -2.275,-5.735l3.695,-0Z" style="fill:#333;fill-rule:nonzero;"/></g></g></svg>