<?xml version="1.0" encoding="UTF-8" standalone="no"?><!DOCTYPE svg PUBLIC "-//W3C//DTD SVG 1.1//EN" "http://www.w3.org/Graphics/SVG/1.1/DTD/svg11.dtd"><svg width="100%" height="100%" viewBox="0 0 3032 250" version="1.1" xmlns="http://www.w3.org/2000/svg" xmlns:xlink="http://www.w3.org/1999/xlink" xml:space="preserve" xmlns:serif="http://www.serif.com/" style="fill-rule:evenodd;clip-rule:evenodd;stroke-linejoin:round;stroke-miterlimit:2;"><g id="Vulnerabilities"><rect x="0" y="-0" width="468.75" height="250" style="fill:#f9b8b8;"/><rect x="468.75" y="-0" width="2562.5" height="250" style="fill:#ffe5e6;"/><path d="M64.566,107.561l10.302,30.542l10.181,-30.542l5.444,-0l-13.086,35.864l-5.151,0l-13.061,-35.864l5.371,-0Z" style="fill-rule:nonzero;"/><path d="M97.061,117.278l-0,17.358c-0,1.335 0.211,2.425 0.635,3.271c0.781,1.563 2.237,2.344 4.37,2.344c3.06,0 5.143,-1.367 6.25,-4.101c0.602,-1.465 0.903,-3.475 0.903,-6.031l-0,-12.841l4.394,-0l0,26.147l-4.15,0l0.049,-3.857c-0.57,0.992 -1.278,1.831 -2.124,2.514c-1.677,1.367 -3.711,2.051 -6.104,2.051c-3.727,0 -6.266,-1.245 -7.617,-3.735c-0.732,-1.335 -1.098,-3.117 -1.098,-5.347l-0,-17.773l4.492,-0Z" style="fill-rule:nonzero;"/><rect x="120.596" y="107.561" width="4.395" height="35.864" style="fill-rule:nonzero;"/><path d="M131.582,117.278l4.175,-0l0,3.71c1.237,-1.529 2.547,-2.628 3.931,-3.295c1.383,-0.668 2.921,-1.001 4.614,-1.001c3.711,-0 6.217,1.294 7.519,3.881c0.717,1.416 1.075,3.443 1.075,6.08l-0,16.772l-4.468,0l-0,-16.479c-0,-1.596 -0.236,-2.881 -0.708,-3.858c-0.781,-1.628 -2.197,-2.441 -4.248,-2.441c-1.042,-0 -1.896,0.105 -2.564,0.317c-1.204,0.358 -2.262,1.074 -3.173,2.149c-0.733,0.862 -1.209,1.753 -1.429,2.673c-0.219,0.919 -0.329,2.234 -0.329,3.943l-0,13.696l-4.395,0l0,-26.147Z" style="fill-rule:nonzero;"/><path d="M170.279,116.692c1.855,-0 3.653,0.435 5.395,1.306c1.742,0.871 3.068,1.998 3.98,3.381c0.878,1.318 1.464,2.857 1.757,4.614c0.261,1.205 0.391,3.125 0.391,5.762l-19.165,0c0.081,2.653 0.708,4.781 1.88,6.384c1.172,1.604 2.986,2.405 5.444,2.405c2.295,0 4.126,-0.757 5.493,-2.27c0.782,-0.879 1.335,-1.897 1.66,-3.052l4.322,-0c-0.114,0.96 -0.493,2.03 -1.136,3.21c-0.642,1.18 -1.363,2.145 -2.16,2.893c-1.335,1.302 -2.987,2.181 -4.956,2.637c-1.058,0.261 -2.254,0.391 -3.589,0.391c-3.255,-0 -6.014,-1.184 -8.276,-3.553c-2.263,-2.368 -3.394,-5.684 -3.394,-9.948c-0,-4.199 1.139,-7.609 3.418,-10.23c2.279,-2.62 5.257,-3.93 8.936,-3.93Zm7.006,11.572c-0.179,-1.904 -0.594,-3.426 -1.245,-4.566c-1.204,-2.115 -3.214,-3.173 -6.03,-3.173c-2.018,-0 -3.711,0.728 -5.078,2.185c-1.367,1.456 -2.092,3.308 -2.173,5.554l14.526,-0Z" style="fill-rule:nonzero;"/><path d="M187.32,117.278l4.174,-0l0,4.516c0.342,-0.879 1.18,-1.949 2.515,-3.21c1.335,-1.262 2.873,-1.892 4.614,-1.892c0.082,-0 0.22,0.008 0.415,0.024c0.196,0.016 0.529,0.049 1.001,0.098l0,4.638c-0.26,-0.048 -0.5,-0.081 -0.72,-0.097c-0.22,-0.017 -0.46,-0.025 -0.72,-0.025c-2.214,0 -3.915,0.712 -5.103,2.137c-1.188,1.424 -1.782,3.063 -1.782,4.919l0,15.039l-4.394,0l-0,-26.147Z" style="fill-rule:nonzero;"/><path d="M207.217,136.467c-0,1.27 0.464,2.27 1.392,3.003c0.927,0.732 2.026,1.099 3.295,1.099c1.547,-0 3.044,-0.359 4.493,-1.075c2.441,-1.188 3.662,-3.133 3.662,-5.835l-0,-3.54c-0.537,0.342 -1.229,0.627 -2.075,0.855c-0.847,0.228 -1.677,0.39 -2.491,0.488l-2.661,0.342c-1.595,0.211 -2.791,0.545 -3.589,1.001c-1.351,0.765 -2.026,1.986 -2.026,3.662Zm10.645,-8.887c1.009,-0.13 1.684,-0.553 2.026,-1.269c0.195,-0.391 0.293,-0.952 0.293,-1.685c-0,-1.497 -0.533,-2.584 -1.599,-3.259c-1.066,-0.676 -2.592,-1.013 -4.578,-1.013c-2.295,-0 -3.922,0.618 -4.883,1.855c-0.537,0.684 -0.887,1.701 -1.05,3.052l-4.101,-0c0.081,-3.223 1.127,-5.465 3.137,-6.726c2.01,-1.262 4.342,-1.892 6.995,-1.892c3.076,-0 5.574,0.586 7.495,1.758c1.904,1.171 2.856,2.994 2.856,5.468l0,15.064c0,0.456 0.094,0.822 0.281,1.098c0.187,0.277 0.582,0.415 1.184,0.415c0.195,0 0.415,-0.012 0.659,-0.036c0.244,-0.025 0.505,-0.061 0.782,-0.11l-0,3.247c-0.684,0.195 -1.205,0.317 -1.563,0.366c-0.358,0.049 -0.846,0.074 -1.465,0.074c-1.513,-0 -2.612,-0.538 -3.296,-1.612c-0.358,-0.569 -0.61,-1.375 -0.756,-2.417c-0.896,1.172 -2.181,2.189 -3.858,3.052c-1.676,0.863 -3.524,1.294 -5.542,1.294c-2.425,-0 -4.407,-0.737 -5.945,-2.21c-1.538,-1.473 -2.307,-3.316 -2.307,-5.529c0,-2.425 0.757,-4.305 2.271,-5.64c1.513,-1.335 3.499,-2.157 5.957,-2.466l7.007,-0.879Z" style="fill-rule:nonzero;"/><path d="M231.314,107.439l4.272,-0l0,13.012c0.96,-1.253 2.108,-2.209 3.443,-2.868c1.334,-0.659 2.783,-0.989 4.345,-0.989c3.255,-0 5.896,1.119 7.923,3.357c2.026,2.238 3.039,5.538 3.039,9.9c0,4.134 -1.001,7.568 -3.003,10.303c-2.002,2.734 -4.777,4.101 -8.325,4.101c-1.986,0 -3.662,-0.48 -5.029,-1.44c-0.814,-0.57 -1.685,-1.481 -2.613,-2.735l0,3.345l-4.052,0l-0,-35.986Zm11.425,32.934c2.377,0 4.155,-0.944 5.335,-2.832c1.18,-1.888 1.77,-4.378 1.77,-7.47c-0,-2.751 -0.59,-5.03 -1.77,-6.836c-1.18,-1.807 -2.918,-2.71 -5.212,-2.71c-2.002,-0 -3.756,0.74 -5.262,2.221c-1.505,1.481 -2.258,3.923 -2.258,7.325c-0,2.457 0.309,4.451 0.928,5.981c1.155,2.881 3.312,4.321 6.469,4.321Z" style="fill-rule:nonzero;"/><path d="M259.463,117.4l4.468,-0l-0,26.025l-4.468,0l0,-26.025Zm0,-9.839l4.468,-0l-0,4.98l-4.468,0l0,-4.98Z" style="fill-rule:nonzero;"/><rect x="270.694" y="107.561" width="4.395" height="35.864" style="fill-rule:nonzero;"/><path d="M281.68,117.4l4.468,-0l-0,26.025l-4.468,0l-0,-26.025Zm-0,-9.839l4.468,-0l-0,4.98l-4.468,0l-0,-4.98Z" style="fill-rule:nonzero;"/><path d="M293.667,109.978l4.444,-0l-0,7.3l4.174,-0l0,3.588l-4.174,0l-0,17.066c-0,0.911 0.309,1.522 0.927,1.831c0.342,0.179 0.912,0.268 1.709,0.268c0.212,0 0.44,-0.004 0.684,-0.012c0.244,-0.008 0.529,-0.028 0.854,-0.061l0,3.467c-0.504,0.146 -1.029,0.252 -1.574,0.317c-0.546,0.065 -1.136,0.098 -1.77,0.098c-2.051,0 -3.443,-0.525 -4.175,-1.575c-0.733,-1.049 -1.099,-2.413 -1.099,-4.089l0,-17.31l-3.54,0l0,-3.588l3.54,-0l0,-7.3Z" style="fill-rule:nonzero;"/><path d="M306.68,117.4l4.468,-0l-0,26.025l-4.468,0l-0,-26.025Zm-0,-9.839l4.468,-0l-0,4.98l-4.468,0l-0,-4.98Z" style="fill-rule:nonzero;"/><path d="M328.677,116.692c1.855,-0 3.654,0.435 5.395,1.306c1.742,0.871 3.068,1.998 3.98,3.381c0.879,1.318 1.465,2.857 1.758,4.614c0.26,1.205 0.39,3.125 0.39,5.762l-19.165,0c0.082,2.653 0.708,4.781 1.88,6.384c1.172,1.604 2.987,2.405 5.445,2.405c2.294,0 4.126,-0.757 5.493,-2.27c0.781,-0.879 1.334,-1.897 1.66,-3.052l4.321,-0c-0.114,0.96 -0.492,2.03 -1.135,3.21c-0.643,1.18 -1.363,2.145 -2.161,2.893c-1.334,1.302 -2.986,2.181 -4.956,2.637c-1.058,0.261 -2.254,0.391 -3.589,0.391c-3.255,-0 -6.014,-1.184 -8.276,-3.553c-2.262,-2.368 -3.394,-5.684 -3.394,-9.948c0,-4.199 1.14,-7.609 3.418,-10.23c2.279,-2.62 5.258,-3.93 8.936,-3.93Zm7.007,11.572c-0.179,-1.904 -0.594,-3.426 -1.245,-4.566c-1.205,-2.115 -3.215,-3.173 -6.031,-3.173c-2.018,-0 -3.711,0.728 -5.078,2.185c-1.367,1.456 -2.091,3.308 -2.173,5.554l14.527,-0Z" style="fill-rule:nonzero;"/><path d="M348.208,135.222c0.13,1.465 0.497,2.588 1.099,3.369c1.107,1.416 3.027,2.124 5.762,2.124c1.627,0 3.059,-0.354 4.296,-1.062c1.237,-0.708 1.856,-1.803 1.856,-3.284c-0,-1.123 -0.497,-1.977 -1.489,-2.563c-0.635,-0.358 -1.888,-0.773 -3.76,-1.245l-3.491,-0.879c-2.23,-0.554 -3.874,-1.172 -4.932,-1.856c-1.888,-1.188 -2.832,-2.832 -2.832,-4.931c-0,-2.474 0.891,-4.476 2.673,-6.006c1.783,-1.53 4.179,-2.295 7.19,-2.295c3.939,-0 6.779,1.156 8.521,3.467c1.09,1.465 1.619,3.043 1.587,4.736l-4.151,0c-0.081,-0.993 -0.431,-1.896 -1.05,-2.71c-1.009,-1.155 -2.758,-1.733 -5.249,-1.733c-1.66,-0 -2.917,0.317 -3.771,0.952c-0.855,0.635 -1.282,1.473 -1.282,2.515c-0,1.139 0.561,2.05 1.684,2.734c0.651,0.407 1.612,0.765 2.881,1.074l2.905,0.708c3.158,0.765 5.274,1.506 6.348,2.222c1.709,1.123 2.564,2.889 2.564,5.298c-0,2.327 -0.883,4.337 -2.649,6.03c-1.766,1.693 -4.456,2.539 -8.069,2.539c-3.89,-0 -6.645,-0.883 -8.264,-2.649c-1.62,-1.766 -2.486,-3.951 -2.6,-6.555l4.223,-0Z" style="fill-rule:nonzero;"/><g id="Tag:-Details" serif:id="Tag: Details"><path d="M529.095,63.901l18.715,-35.965l-0.06,71.96l-18.655,-35.995Z" style="fill:#f9b8b8;"/><rect x="547.81" y="27.936" width="443.75" height="71.959" style="fill:#f9b8b8;"/><path d="M596.32,72.272c1.439,0 2.621,-0.149 3.546,-0.448c1.652,-0.556 3.005,-1.624 4.059,-3.205c0.84,-1.267 1.446,-2.891 1.816,-4.87c0.214,-1.182 0.32,-2.279 0.32,-3.29c0,-3.888 -0.772,-6.907 -2.317,-9.058c-1.546,-2.15 -4.034,-3.226 -7.467,-3.226l-7.54,0l-0,24.097l7.583,0Zm-11.856,-27.75l12.711,0c4.315,0 7.662,1.531 10.04,4.593c2.122,2.763 3.183,6.302 3.183,10.617c-0,3.333 -0.627,6.345 -1.88,9.037c-2.207,4.756 -6.003,7.135 -11.386,7.135l-12.668,-0l0,-31.382Z" style="fill:#333;fill-rule:nonzero;"/><path d="M624.882,52.512c1.623,-0 3.197,0.381 4.721,1.143c1.523,0.762 2.684,1.748 3.482,2.959c0.769,1.153 1.281,2.499 1.538,4.037c0.228,1.054 0.342,2.734 0.342,5.042l-16.77,-0c0.071,2.321 0.62,4.183 1.645,5.586c1.025,1.403 2.613,2.104 4.764,2.104c2.008,-0 3.61,-0.662 4.806,-1.987c0.684,-0.769 1.168,-1.659 1.453,-2.67l3.781,-0c-0.1,0.84 -0.431,1.777 -0.993,2.809c-0.563,1.033 -1.193,1.876 -1.891,2.532c-1.168,1.139 -2.613,1.908 -4.336,2.307c-0.926,0.228 -1.973,0.341 -3.141,0.341c-2.848,0 -5.262,-1.036 -7.241,-3.108c-1.98,-2.072 -2.97,-4.974 -2.97,-8.705c0,-3.674 0.997,-6.658 2.991,-8.951c1.994,-2.293 4.6,-3.439 7.819,-3.439Zm6.131,10.126c-0.157,-1.667 -0.52,-2.998 -1.09,-3.995c-1.054,-1.851 -2.813,-2.777 -5.276,-2.777c-1.766,-0 -3.247,0.637 -4.444,1.912c-1.196,1.274 -1.83,2.894 -1.901,4.86l12.711,-0Z" style="fill:#333;fill-rule:nonzero;"/><path d="M640.455,46.637l3.888,0l-0,6.388l3.653,-0l-0,3.14l-3.653,-0l-0,14.932c-0,0.798 0.27,1.332 0.811,1.602c0.299,0.157 0.798,0.235 1.496,0.235c0.185,0 0.384,-0.003 0.598,-0.01c0.214,-0.007 0.463,-0.025 0.748,-0.054l-0,3.034c-0.442,0.128 -0.901,0.22 -1.378,0.277c-0.477,0.057 -0.994,0.086 -1.549,0.086c-1.794,-0 -3.012,-0.459 -3.653,-1.378c-0.641,-0.919 -0.961,-2.111 -0.961,-3.578l-0,-15.146l-3.098,-0l0,-3.14l3.098,-0l-0,-6.388Z" style="fill:#333;fill-rule:nonzero;"/><path d="M654.789,69.815c-0,1.111 0.406,1.987 1.217,2.628c0.812,0.641 1.774,0.961 2.884,0.961c1.353,0 2.664,-0.313 3.931,-0.94c2.136,-1.039 3.204,-2.741 3.204,-5.105l0,-3.098c-0.47,0.299 -1.075,0.549 -1.815,0.748c-0.741,0.199 -1.467,0.342 -2.179,0.427l-2.329,0.299c-1.396,0.185 -2.442,0.477 -3.14,0.876c-1.182,0.669 -1.773,1.738 -1.773,3.204Zm9.314,-7.775c0.883,-0.114 1.474,-0.485 1.773,-1.111c0.171,-0.342 0.256,-0.833 0.256,-1.474c0,-1.31 -0.466,-2.261 -1.399,-2.852c-0.933,-0.591 -2.268,-0.887 -4.005,-0.887c-2.009,0 -3.433,0.542 -4.273,1.624c-0.47,0.598 -0.776,1.488 -0.919,2.67l-3.588,0c0.071,-2.82 0.986,-4.781 2.745,-5.885c1.758,-1.104 3.799,-1.656 6.12,-1.656c2.692,0 4.878,0.513 6.558,1.538c1.666,1.026 2.5,2.621 2.5,4.785l-0,13.181c-0,0.399 0.081,0.719 0.245,0.961c0.164,0.242 0.509,0.364 1.036,0.364c0.171,-0 0.363,-0.011 0.577,-0.033c0.214,-0.021 0.442,-0.053 0.684,-0.096l-0,2.842c-0.598,0.17 -1.054,0.277 -1.367,0.32c-0.314,0.043 -0.741,0.064 -1.282,0.064c-1.325,0 -2.286,-0.47 -2.884,-1.41c-0.313,-0.498 -0.534,-1.203 -0.662,-2.115c-0.784,1.026 -1.909,1.916 -3.376,2.671c-1.466,0.754 -3.083,1.132 -4.849,1.132c-2.122,-0 -3.856,-0.645 -5.202,-1.934c-1.345,-1.288 -2.018,-2.901 -2.018,-4.838c-0,-2.122 0.662,-3.767 1.986,-4.935c1.325,-1.168 3.062,-1.887 5.213,-2.157l6.131,-0.769Z" style="fill:#333;fill-rule:nonzero;"/><path d="M676.172,53.131l3.91,0l-0,22.773l-3.91,-0l0,-22.773Zm0,-8.609l3.91,0l-0,4.358l-3.91,0l0,-4.358Z" style="fill:#333;fill-rule:nonzero;"/><rect x="685.999" y="44.522" width="3.845" height="31.381" style="fill:#333;fill-rule:nonzero;"/><path d="M697.898,68.726c0.114,1.282 0.434,2.264 0.961,2.948c0.969,1.239 2.649,1.858 5.042,1.858c1.424,0 2.677,-0.309 3.76,-0.929c1.082,-0.619 1.623,-1.577 1.623,-2.873c0,-0.983 -0.434,-1.73 -1.303,-2.243c-0.555,-0.313 -1.652,-0.677 -3.29,-1.09l-3.055,-0.769c-1.951,-0.484 -3.389,-1.025 -4.315,-1.623c-1.652,-1.04 -2.478,-2.478 -2.478,-4.315c0,-2.165 0.78,-3.917 2.339,-5.255c1.56,-1.339 3.657,-2.008 6.291,-2.008c3.447,-0 5.932,1.011 7.456,3.033c0.954,1.282 1.417,2.663 1.388,4.144l-3.631,0c-0.071,-0.868 -0.378,-1.659 -0.919,-2.371c-0.883,-1.011 -2.414,-1.517 -4.593,-1.517c-1.452,0 -2.552,0.278 -3.3,0.833c-0.748,0.556 -1.122,1.289 -1.122,2.201c0,0.997 0.492,1.794 1.474,2.392c0.57,0.356 1.41,0.67 2.521,0.94l2.542,0.62c2.763,0.669 4.615,1.317 5.554,1.944c1.496,0.982 2.244,2.528 2.244,4.635c-0,2.037 -0.773,3.796 -2.318,5.277c-1.545,1.481 -3.899,2.222 -7.061,2.222c-3.403,-0 -5.814,-0.773 -7.231,-2.318c-1.417,-1.545 -2.175,-3.457 -2.275,-5.736l3.696,-0Z" style="fill:#333;fill-rule:nonzero;"/></g><g id="Tag:-Advisories" serif:id="Tag: Advisories"><path d="M529.095,186.47l18.715,-35.964l-0.06,71.96l-18.655,-35.996Z" style="fill:#f9b8b8;"/><rect x="547.81" y="150.506" width="443.75" height="71.959" style="fill:#f9b8b8;"/><path d="M600.379,185.613l-4.764,-13.864l-5.063,13.864l9.827,0Zm-6.985,-18.521l4.806,0l11.386,31.382l-4.657,-0l-3.183,-9.4l-12.411,0l-3.397,9.4l-4.358,-0l11.814,-31.382Z" style="fill:#333;fill-rule:nonzero;"/><path d="M615.375,187.301c0,2.45 0.52,4.5 1.56,6.152c1.039,1.652 2.706,2.478 4.999,2.478c1.78,0 3.243,-0.765 4.39,-2.296c1.146,-1.531 1.719,-3.728 1.719,-6.59c0,-2.891 -0.591,-5.031 -1.773,-6.42c-1.182,-1.388 -2.642,-2.082 -4.379,-2.082c-1.937,-0 -3.507,0.74 -4.711,2.221c-1.203,1.481 -1.805,3.66 -1.805,6.537Zm5.79,-12.112c1.751,-0 3.218,0.37 4.4,1.111c0.684,0.427 1.46,1.174 2.329,2.243l-0,-11.557l3.695,-0l0,31.488l-3.46,-0l-0,-3.183c-0.898,1.41 -1.959,2.428 -3.183,3.054c-1.225,0.627 -2.628,0.94 -4.209,0.94c-2.549,0 -4.756,-1.071 -6.622,-3.215c-1.866,-2.143 -2.798,-4.995 -2.798,-8.555c-0,-3.333 0.85,-6.22 2.552,-8.663c1.702,-2.442 4.134,-3.663 7.296,-3.663Z" style="fill:#333;fill-rule:nonzero;"/><path d="M639.152,175.595l6.109,18.627l6.388,-18.627l4.208,-0l-8.63,22.879l-4.102,-0l-8.438,-22.879l4.465,-0Z" style="fill:#333;fill-rule:nonzero;"/><path d="M659.147,175.701l3.909,0l0,22.773l-3.909,-0l-0,-22.773Zm-0,-8.609l3.909,0l0,4.358l-3.909,0l-0,-4.358Z" style="fill:#333;fill-rule:nonzero;"/><path d="M671.152,191.296c0.114,1.282 0.435,2.264 0.962,2.948c0.968,1.239 2.649,1.858 5.041,1.858c1.424,0 2.678,-0.309 3.76,-0.929c1.082,-0.619 1.623,-1.577 1.623,-2.873c0,-0.983 -0.434,-1.73 -1.303,-2.243c-0.555,-0.313 -1.652,-0.677 -3.289,-1.09l-3.055,-0.769c-1.951,-0.484 -3.39,-1.025 -4.315,-1.623c-1.652,-1.04 -2.478,-2.478 -2.478,-4.315c-0,-2.165 0.779,-3.917 2.339,-5.256c1.559,-1.338 3.656,-2.008 6.291,-2.008c3.446,0 5.931,1.012 7.455,3.034c0.955,1.282 1.417,2.663 1.389,4.144l-3.632,0c-0.071,-0.869 -0.377,-1.659 -0.918,-2.371c-0.883,-1.011 -2.414,-1.517 -4.593,-1.517c-1.453,0 -2.553,0.278 -3.301,0.833c-0.747,0.556 -1.121,1.289 -1.121,2.201c-0,0.997 0.491,1.794 1.474,2.392c0.569,0.356 1.41,0.67 2.521,0.94l2.542,0.62c2.763,0.669 4.614,1.317 5.554,1.944c1.495,0.982 2.243,2.528 2.243,4.635c-0,2.037 -0.773,3.796 -2.318,5.277c-1.545,1.481 -3.899,2.221 -7.06,2.221c-3.404,0 -5.814,-0.772 -7.231,-2.317c-1.417,-1.546 -2.176,-3.457 -2.275,-5.736l3.695,-0Z" style="fill:#333;fill-rule:nonzero;"/><path d="M699.821,195.996c2.549,-0 4.297,-0.965 5.244,-2.895c0.947,-1.93 1.421,-4.077 1.421,-6.441c-0,-2.136 -0.342,-3.873 -1.026,-5.212c-1.082,-2.108 -2.948,-3.162 -5.597,-3.162c-2.35,0 -4.059,0.897 -5.127,2.692c-1.068,1.794 -1.602,3.959 -1.602,6.494c0,2.435 0.534,4.465 1.602,6.088c1.068,1.624 2.763,2.436 5.085,2.436Zm0.149,-21.064c2.948,0 5.44,0.983 7.477,2.948c2.036,1.966 3.055,4.857 3.055,8.673c-0,3.689 -0.898,6.737 -2.692,9.143c-1.794,2.407 -4.579,3.611 -8.353,3.611c-3.147,-0 -5.646,-1.065 -7.498,-3.194c-1.851,-2.129 -2.777,-4.988 -2.777,-8.577c0,-3.845 0.976,-6.907 2.927,-9.186c1.951,-2.278 4.571,-3.418 7.861,-3.418Z" style="fill:#333;fill-rule:nonzero;"/><path d="M715.18,175.595l3.653,-0l-0,3.952c0.299,-0.769 1.032,-1.706 2.2,-2.81c1.168,-1.103 2.514,-1.655 4.038,-1.655c0.071,-0 0.192,0.007 0.363,0.021c0.171,0.014 0.463,0.043 0.876,0.086l-0,4.059c-0.228,-0.043 -0.438,-0.072 -0.63,-0.086c-0.193,-0.014 -0.403,-0.021 -0.631,-0.021c-1.936,-0 -3.425,0.623 -4.464,1.869c-1.04,1.246 -1.56,2.681 -1.56,4.304l0,13.16l-3.845,-0l0,-22.879Z" style="fill:#333;fill-rule:nonzero;"/><path d="M729.642,175.701l3.91,0l-0,22.773l-3.91,-0l0,-22.773Zm0,-8.609l3.91,0l-0,4.358l-3.91,0l0,-4.358Z" style="fill:#333;fill-rule:nonzero;"/><path d="M748.89,175.082c1.623,-0 3.197,0.381 4.721,1.143c1.524,0.762 2.684,1.748 3.482,2.958c0.769,1.154 1.282,2.5 1.538,4.038c0.228,1.054 0.342,2.734 0.342,5.041l-16.77,0c0.072,2.322 0.62,4.184 1.645,5.587c1.026,1.402 2.614,2.104 4.764,2.104c2.008,-0 3.61,-0.662 4.807,-1.987c0.683,-0.769 1.167,-1.659 1.452,-2.67l3.781,-0c-0.099,0.84 -0.43,1.776 -0.993,2.809c-0.563,1.033 -1.193,1.876 -1.891,2.531c-1.167,1.14 -2.613,1.909 -4.336,2.308c-0.926,0.227 -1.973,0.341 -3.14,0.341c-2.849,0 -5.263,-1.036 -7.242,-3.108c-1.98,-2.072 -2.97,-4.974 -2.97,-8.705c0,-3.674 0.997,-6.658 2.991,-8.951c1.994,-2.293 4.6,-3.439 7.819,-3.439Zm6.131,10.126c-0.157,-1.667 -0.52,-2.998 -1.09,-3.995c-1.054,-1.852 -2.812,-2.777 -5.276,-2.777c-1.766,-0 -3.247,0.637 -4.444,1.912c-1.196,1.274 -1.83,2.894 -1.901,4.86l12.711,-0Z" style="fill:#333;fill-rule:nonzero;"/><path d="M765.98,191.296c0.114,1.282 0.434,2.264 0.961,2.948c0.968,1.239 2.649,1.858 5.041,1.858c1.425,0 2.678,-0.309 3.76,-0.929c1.083,-0.619 1.624,-1.577 1.624,-2.873c-0,-0.983 -0.435,-1.73 -1.303,-2.243c-0.556,-0.313 -1.652,-0.677 -3.29,-1.09l-3.055,-0.769c-1.951,-0.484 -3.389,-1.025 -4.315,-1.623c-1.652,-1.04 -2.478,-2.478 -2.478,-4.315c-0,-2.165 0.78,-3.917 2.339,-5.256c1.559,-1.338 3.656,-2.008 6.291,-2.008c3.447,0 5.932,1.012 7.456,3.034c0.954,1.282 1.417,2.663 1.388,4.144l-3.631,0c-0.072,-0.869 -0.378,-1.659 -0.919,-2.371c-0.883,-1.011 -2.414,-1.517 -4.593,-1.517c-1.453,0 -2.553,0.278 -3.3,0.833c-0.748,0.556 -1.122,1.289 -1.122,2.201c0,0.997 0.491,1.794 1.474,2.392c0.57,0.356 1.41,0.67 2.521,0.94l2.542,0.62c2.763,0.669 4.614,1.317 5.554,1.944c1.496,0.982 2.243,2.528 2.243,4.635c0,2.037 -0.772,3.796 -2.318,5.277c-1.545,1.481 -3.898,2.221 -7.06,2.221c-3.404,0 -5.814,-0.772 -7.231,-2.317c-1.417,-1.546 -2.175,-3.457 -2.275,-5.736l3.696,-0Z" style="fill:#333;fill-rule:nonzero;"/></g><g id="Tag:-Risk-Rating" serif:id="Tag: Risk Rating"><path d="M1029.22,186.492l18.715,-35.964l-0.06,71.96l-18.655,-35.996Z" style="fill:#f9b8b8;"/><rect x="1047.93" y="150.528" width="443.75" height="71.959" style="fill:#f9b8b8;"/><path d="M1098.98,181.491c1.993,0 3.571,-0.398 4.731,-1.196c1.161,-0.798 1.741,-2.236 1.741,-4.315c0,-2.236 -0.811,-3.76 -2.435,-4.572c-0.869,-0.427 -2.029,-0.641 -3.482,-0.641l-10.382,0l-0,10.724l9.827,0Zm-14.078,-14.377l14.526,0c2.393,0 4.365,0.349 5.917,1.047c2.948,1.339 4.422,3.81 4.422,7.413c0,1.88 -0.388,3.418 -1.164,4.614c-0.776,1.196 -1.862,2.158 -3.258,2.884c1.225,0.499 2.147,1.154 2.767,1.965c0.619,0.812 0.965,2.13 1.036,3.952l0.15,4.209c0.042,1.196 0.142,2.086 0.299,2.67c0.256,0.997 0.712,1.638 1.367,1.923l-0,0.705l-5.213,-0c-0.142,-0.271 -0.256,-0.62 -0.341,-1.047c-0.086,-0.427 -0.157,-1.253 -0.214,-2.478l-0.256,-5.234c-0.1,-2.051 -0.862,-3.425 -2.286,-4.123c-0.812,-0.384 -2.087,-0.577 -3.824,-0.577l-9.677,0l-0,13.459l-4.251,-0l-0,-31.382Z" style="fill:#333;fill-rule:nonzero;"/><path d="M1115.48,175.723l3.91,0l-0,22.773l-3.91,-0l0,-22.773Zm0,-8.609l3.91,0l-0,4.358l-3.91,0l0,-4.358Z" style="fill:#333;fill-rule:nonzero;"/><path d="M1127.48,191.318c0.114,1.282 0.434,2.264 0.961,2.948c0.969,1.239 2.649,1.858 5.042,1.858c1.424,0 2.677,-0.309 3.759,-0.929c1.083,-0.619 1.624,-1.577 1.624,-2.873c-0,-0.983 -0.434,-1.73 -1.303,-2.243c-0.556,-0.313 -1.652,-0.677 -3.29,-1.09l-3.055,-0.769c-1.951,-0.484 -3.389,-1.025 -4.315,-1.623c-1.652,-1.04 -2.478,-2.478 -2.478,-4.315c0,-2.165 0.78,-3.917 2.339,-5.255c1.56,-1.339 3.657,-2.009 6.291,-2.009c3.447,0 5.932,1.012 7.456,3.034c0.954,1.282 1.417,2.663 1.388,4.144l-3.631,0c-0.071,-0.869 -0.378,-1.659 -0.919,-2.371c-0.883,-1.011 -2.414,-1.517 -4.593,-1.517c-1.452,0 -2.552,0.278 -3.3,0.833c-0.748,0.556 -1.122,1.289 -1.122,2.201c0,0.997 0.492,1.794 1.474,2.392c0.57,0.356 1.41,0.67 2.521,0.94l2.542,0.62c2.763,0.669 4.614,1.317 5.554,1.944c1.496,0.982 2.243,2.528 2.243,4.635c0,2.037 -0.772,3.796 -2.317,5.277c-1.546,1.481 -3.899,2.222 -7.061,2.222c-3.403,-0 -5.814,-0.773 -7.231,-2.318c-1.417,-1.545 -2.175,-3.457 -2.275,-5.736l3.696,-0Z" style="fill:#333;fill-rule:nonzero;"/><path d="M1146.99,167.114l3.695,0l0,18.222l9.87,-9.719l4.913,-0l-8.759,8.566l9.25,14.313l-4.913,-0l-7.135,-11.536l-3.226,2.948l0,8.588l-3.695,-0l-0,-31.382Z" style="fill:#333;fill-rule:nonzero;"/><path d="M1196.2,181.491c1.994,0 3.571,-0.398 4.732,-1.196c1.161,-0.798 1.741,-2.236 1.741,-4.315c0,-2.236 -0.812,-3.76 -2.435,-4.572c-0.869,-0.427 -2.03,-0.641 -3.482,-0.641l-10.382,0l-0,10.724l9.826,0Zm-14.077,-14.377l14.526,0c2.393,0 4.365,0.349 5.917,1.047c2.948,1.339 4.422,3.81 4.422,7.413c0,1.88 -0.388,3.418 -1.164,4.614c-0.776,1.196 -1.862,2.158 -3.258,2.884c1.225,0.499 2.147,1.154 2.767,1.965c0.619,0.812 0.965,2.13 1.036,3.952l0.149,4.209c0.043,1.196 0.143,2.086 0.299,2.67c0.257,0.997 0.713,1.638 1.368,1.923l-0,0.705l-5.213,-0c-0.142,-0.271 -0.256,-0.62 -0.342,-1.047c-0.085,-0.427 -0.156,-1.253 -0.213,-2.478l-0.257,-5.234c-0.099,-2.051 -0.861,-3.425 -2.285,-4.123c-0.812,-0.384 -2.087,-0.577 -3.824,-0.577l-9.677,0l-0,13.459l-4.251,-0l-0,-31.382Z" style="fill:#333;fill-rule:nonzero;"/><path d="M1215.64,192.407c0,1.111 0.406,1.987 1.218,2.628c0.811,0.641 1.773,0.961 2.884,0.961c1.353,0 2.663,-0.313 3.93,-0.94c2.137,-1.039 3.205,-2.741 3.205,-5.105l-0,-3.098c-0.47,0.299 -1.076,0.549 -1.816,0.748c-0.741,0.199 -1.467,0.342 -2.179,0.427l-2.329,0.299c-1.395,0.185 -2.442,0.477 -3.14,0.876c-1.182,0.669 -1.773,1.738 -1.773,3.204Zm9.314,-7.775c0.883,-0.114 1.474,-0.485 1.773,-1.111c0.171,-0.342 0.256,-0.833 0.256,-1.474c0,-1.311 -0.466,-2.261 -1.399,-2.852c-0.933,-0.591 -2.268,-0.887 -4.005,-0.887c-2.008,0 -3.432,0.541 -4.273,1.624c-0.47,0.598 -0.776,1.488 -0.918,2.67l-3.589,0c0.071,-2.82 0.986,-4.781 2.745,-5.885c1.759,-1.104 3.799,-1.656 6.12,-1.656c2.692,0 4.878,0.513 6.558,1.538c1.667,1.026 2.5,2.621 2.5,4.785l-0,13.181c-0,0.399 0.082,0.719 0.246,0.961c0.163,0.242 0.509,0.363 1.036,0.363c0.17,0 0.363,-0.01 0.576,-0.032c0.214,-0.021 0.442,-0.053 0.684,-0.096l-0,2.841c-0.598,0.171 -1.054,0.278 -1.367,0.321c-0.314,0.043 -0.741,0.064 -1.282,0.064c-1.324,-0 -2.286,-0.47 -2.884,-1.41c-0.313,-0.498 -0.534,-1.203 -0.662,-2.115c-0.783,1.026 -1.908,1.916 -3.375,2.671c-1.467,0.754 -3.084,1.132 -4.85,1.132c-2.122,-0 -3.855,-0.645 -5.201,-1.934c-1.346,-1.288 -2.019,-2.901 -2.019,-4.838c-0,-2.122 0.662,-3.767 1.987,-4.935c1.324,-1.168 3.062,-1.887 5.212,-2.157l6.131,-0.769Z" style="fill:#333;fill-rule:nonzero;"/><path d="M1237.8,169.229l3.888,0l-0,6.388l3.653,-0l-0,3.14l-3.653,-0l-0,14.932c-0,0.798 0.27,1.332 0.811,1.602c0.3,0.157 0.798,0.235 1.496,0.235c0.185,0 0.384,-0.003 0.598,-0.01c0.214,-0.007 0.463,-0.025 0.748,-0.054l-0,3.034c-0.442,0.128 -0.901,0.22 -1.378,0.277c-0.477,0.057 -0.994,0.086 -1.549,0.086c-1.794,-0 -3.012,-0.459 -3.653,-1.378c-0.641,-0.919 -0.961,-2.111 -0.961,-3.578l-0,-15.146l-3.098,-0l0,-3.14l3.098,-0l-0,-6.388Z" style="fill:#333;fill-rule:nonzero;"/><path d="M1249.18,175.723l3.909,0l0,22.773l-3.909,-0l-0,-22.773Zm-0,-8.609l3.909,0l0,4.358l-3.909,0l-0,-4.358Z" style="fill:#333;fill-rule:nonzero;"/><path d="M1258.9,175.617l3.653,-0l-0,3.247c1.082,-1.339 2.228,-2.3 3.439,-2.884c1.211,-0.584 2.556,-0.876 4.038,-0.876c3.247,-0 5.44,1.132 6.579,3.397c0.627,1.239 0.94,3.012 0.94,5.319l0,14.676l-3.909,-0l-0,-14.42c-0,-1.396 -0.207,-2.521 -0.62,-3.375c-0.683,-1.424 -1.922,-2.136 -3.717,-2.136c-0.911,-0 -1.659,0.092 -2.243,0.277c-1.054,0.314 -1.979,0.94 -2.777,1.88c-0.641,0.755 -1.057,1.535 -1.25,2.339c-0.192,0.805 -0.288,1.955 -0.288,3.45l-0,11.985l-3.845,-0l-0,-22.879Z" style="fill:#333;fill-rule:nonzero;"/><path d="M1291.31,175.211c1.795,-0 3.361,0.441 4.7,1.324c0.726,0.499 1.467,1.225 2.222,2.179l-0,-2.884l3.546,0l-0,20.807c-0,2.905 -0.427,5.198 -1.282,6.879c-1.595,3.104 -4.607,4.657 -9.036,4.657c-2.464,-0 -4.536,-0.552 -6.217,-1.656c-1.68,-1.104 -2.62,-2.83 -2.819,-5.18l3.909,-0c0.185,1.025 0.555,1.816 1.111,2.371c0.869,0.855 2.236,1.282 4.101,1.282c2.948,-0 4.878,-1.04 5.79,-3.119c0.541,-1.225 0.79,-3.411 0.747,-6.558c-0.769,1.167 -1.695,2.036 -2.777,2.606c-1.082,0.57 -2.514,0.854 -4.294,0.854c-2.478,0 -4.646,-0.879 -6.505,-2.638c-1.858,-1.759 -2.787,-4.668 -2.787,-8.726c-0,-3.831 0.936,-6.822 2.809,-8.973c1.873,-2.15 4.133,-3.225 6.782,-3.225Zm6.922,11.749c-0,-2.834 -0.584,-4.935 -1.752,-6.302c-1.168,-1.367 -2.656,-2.051 -4.465,-2.051c-2.706,0 -4.557,1.268 -5.554,3.803c-0.527,1.353 -0.79,3.126 -0.79,5.319c-0,2.578 0.523,4.54 1.57,5.885c1.047,1.346 2.453,2.019 4.219,2.019c2.763,0 4.707,-1.246 5.832,-3.738c0.626,-1.41 0.94,-3.055 0.94,-4.935Z" style="fill:#333;fill-rule:nonzero;"/><path d="M1309.85,191.318c0.114,1.282 0.434,2.264 0.961,2.948c0.969,1.239 2.649,1.858 5.042,1.858c1.424,0 2.677,-0.309 3.759,-0.929c1.083,-0.619 1.624,-1.577 1.624,-2.873c-0,-0.983 -0.434,-1.73 -1.303,-2.243c-0.556,-0.313 -1.652,-0.677 -3.29,-1.09l-3.055,-0.769c-1.951,-0.484 -3.389,-1.025 -4.315,-1.623c-1.652,-1.04 -2.478,-2.478 -2.478,-4.315c0,-2.165 0.78,-3.917 2.339,-5.255c1.56,-1.339 3.657,-2.009 6.291,-2.009c3.447,0 5.932,1.012 7.456,3.034c0.954,1.282 1.417,2.663 1.388,4.144l-3.631,0c-0.071,-0.869 -0.378,-1.659 -0.919,-2.371c-0.883,-1.011 -2.414,-1.517 -4.593,-1.517c-1.452,0 -2.552,0.278 -3.3,0.833c-0.748,0.556 -1.122,1.289 -1.122,2.201c0,0.997 0.492,1.794 1.474,2.392c0.57,0.356 1.41,0.67 2.521,0.94l2.542,0.62c2.763,0.669 4.614,1.317 5.554,1.944c1.496,0.982 2.243,2.528 2.243,4.635c0,2.037 -0.772,3.796 -2.317,5.277c-1.546,1.481 -3.899,2.222 -7.061,2.222c-3.403,-0 -5.814,-0.773 -7.231,-2.318c-1.417,-1.545 -2.175,-3.457 -2.275,-5.736l3.696,-0Z" style="fill:#333;fill-rule:nonzero;"/></g><g id="Tag:-Exploitability" serif:id="Tag: Exploitability"><path d="M1528.98,63.901l18.716,-35.965l-0.061,71.96l-18.655,-35.995Z" style="fill:#f9b8b8;"/><rect x="1547.7" y="27.936" width="443.75" height="71.959" style="fill:#f9b8b8;"/><path d="M1584.57,44.522l22.879,0l0,3.846l-18.734,-0l-0,9.527l17.325,0l-0,3.632l-17.325,-0l-0,10.638l19.055,0l-0,3.739l-23.2,-0l0,-31.382Z" style="fill:#333;fill-rule:nonzero;"/><path d="M1610.65,53.025l4.977,-0l5.255,8.053l5.32,-8.053l4.678,0.106l-7.712,11.045l8.054,11.728l-4.914,-0l-5.682,-8.588l-5.512,8.588l-4.87,-0l8.053,-11.728l-7.647,-11.151Z" style="fill:#333;fill-rule:nonzero;"/><path d="M1644.36,73.319c1.795,-0 3.287,-0.751 4.476,-2.254c1.189,-1.502 1.784,-3.749 1.784,-6.74c-0,-1.823 -0.264,-3.389 -0.791,-4.699c-0.997,-2.521 -2.82,-3.782 -5.469,-3.782c-2.663,0 -4.486,1.332 -5.468,3.995c-0.527,1.424 -0.791,3.233 -0.791,5.426c0,1.766 0.264,3.269 0.791,4.508c0.997,2.364 2.82,3.546 5.468,3.546Zm-9.954,-20.188l3.738,0l0,3.034c0.769,-1.04 1.609,-1.844 2.521,-2.414c1.296,-0.855 2.82,-1.282 4.571,-1.282c2.592,0 4.793,0.994 6.601,2.98c1.809,1.987 2.713,4.825 2.713,8.513c0,4.985 -1.303,8.545 -3.909,10.681c-1.652,1.353 -3.575,2.03 -5.768,2.03c-1.723,-0 -3.169,-0.378 -4.336,-1.132c-0.684,-0.428 -1.446,-1.161 -2.286,-2.201l-0,11.685l-3.845,0l-0,-31.894Z" style="fill:#333;fill-rule:nonzero;"/><rect x="1659.14" y="44.522" width="3.845" height="31.381" style="fill:#333;fill-rule:nonzero;"/><path d="M1677.83,73.426c2.549,-0 4.298,-0.965 5.245,-2.895c0.947,-1.93 1.42,-4.077 1.42,-6.441c0,-2.136 -0.342,-3.873 -1.025,-5.212c-1.082,-2.108 -2.948,-3.162 -5.597,-3.162c-2.35,0 -4.059,0.898 -5.127,2.692c-1.068,1.794 -1.602,3.959 -1.602,6.494c-0,2.435 0.534,4.465 1.602,6.088c1.068,1.624 2.763,2.436 5.084,2.436Zm0.15,-21.064c2.948,0 5.44,0.983 7.477,2.948c2.036,1.966 3.054,4.857 3.054,8.674c0,3.688 -0.897,6.736 -2.691,9.143c-1.795,2.406 -4.579,3.61 -8.353,3.61c-3.147,-0 -5.647,-1.065 -7.498,-3.194c-1.852,-2.129 -2.777,-4.988 -2.777,-8.577c-0,-3.845 0.975,-6.907 2.926,-9.186c1.952,-2.278 4.572,-3.418 7.862,-3.418Z" style="fill:#333;fill-rule:nonzero;"/><path d="M1693.09,53.131l3.909,0l0,22.773l-3.909,-0l-0,-22.773Zm-0,-8.609l3.909,0l0,4.358l-3.909,0l-0,-4.358Z" style="fill:#333;fill-rule:nonzero;"/><path d="M1703.58,46.637l3.888,0l-0,6.388l3.653,-0l-0,3.14l-3.653,-0l-0,14.932c-0,0.798 0.27,1.332 0.812,1.602c0.299,0.157 0.797,0.235 1.495,0.235c0.185,0 0.384,-0.003 0.598,-0.01c0.214,-0.007 0.463,-0.025 0.748,-0.054l-0,3.034c-0.442,0.128 -0.901,0.22 -1.378,0.277c-0.477,0.057 -0.994,0.086 -1.549,0.086c-1.794,-0 -3.012,-0.459 -3.653,-1.378c-0.641,-0.919 -0.961,-2.111 -0.961,-3.578l-0,-15.146l-3.098,-0l0,-3.14l3.098,-0l-0,-6.388Z" style="fill:#333;fill-rule:nonzero;"/><path d="M1717.91,69.815c-0,1.111 0.406,1.987 1.218,2.628c0.811,0.641 1.773,0.961 2.883,0.961c1.353,0 2.664,-0.313 3.931,-0.94c2.136,-1.039 3.204,-2.741 3.204,-5.105l0,-3.098c-0.469,0.299 -1.075,0.549 -1.815,0.748c-0.741,0.199 -1.467,0.342 -2.179,0.427l-2.329,0.299c-1.395,0.185 -2.442,0.477 -3.14,0.876c-1.182,0.669 -1.773,1.738 -1.773,3.204Zm9.314,-7.775c0.883,-0.114 1.474,-0.485 1.773,-1.111c0.171,-0.342 0.256,-0.833 0.256,-1.474c0,-1.31 -0.466,-2.261 -1.399,-2.852c-0.933,-0.591 -2.268,-0.887 -4.005,-0.887c-2.008,0 -3.433,0.542 -4.273,1.624c-0.47,0.598 -0.776,1.488 -0.918,2.67l-3.589,0c0.071,-2.82 0.986,-4.781 2.745,-5.885c1.759,-1.104 3.799,-1.656 6.12,-1.656c2.692,0 4.878,0.513 6.558,1.538c1.667,1.026 2.5,2.621 2.5,4.785l-0,13.181c-0,0.399 0.082,0.719 0.245,0.961c0.164,0.242 0.509,0.364 1.036,0.364c0.171,-0 0.364,-0.011 0.577,-0.033c0.214,-0.021 0.442,-0.053 0.684,-0.096l-0,2.842c-0.598,0.17 -1.054,0.277 -1.367,0.32c-0.314,0.043 -0.741,0.064 -1.282,0.064c-1.325,0 -2.286,-0.47 -2.884,-1.41c-0.313,-0.498 -0.534,-1.203 -0.662,-2.115c-0.784,1.026 -1.909,1.916 -3.376,2.671c-1.466,0.754 -3.083,1.132 -4.849,1.132c-2.122,-0 -3.856,-0.645 -5.201,-1.934c-1.346,-1.288 -2.019,-2.901 -2.019,-4.838c-0,-2.122 0.662,-3.767 1.986,-4.935c1.325,-1.168 3.062,-1.887 5.213,-2.157l6.131,-0.769Z" style="fill:#333;fill-rule:nonzero;"/><path d="M1738.99,44.416l3.739,-0l-0,11.386c0.84,-1.097 1.844,-1.934 3.012,-2.51c1.168,-0.577 2.435,-0.865 3.802,-0.865c2.849,-0 5.159,0.979 6.933,2.937c1.773,1.958 2.659,4.846 2.659,8.662c0,3.618 -0.876,6.623 -2.627,9.015c-1.752,2.393 -4.18,3.589 -7.285,3.589c-1.737,0 -3.204,-0.42 -4.401,-1.26c-0.712,-0.499 -1.474,-1.296 -2.285,-2.393l-0,2.927l-3.547,-0l0,-31.488Zm9.998,28.817c2.079,0 3.635,-0.826 4.668,-2.478c1.032,-1.652 1.548,-3.831 1.548,-6.536c0,-2.407 -0.516,-4.401 -1.548,-5.982c-1.033,-1.581 -2.553,-2.371 -4.561,-2.371c-1.752,-0 -3.286,0.648 -4.604,1.944c-1.317,1.296 -1.976,3.432 -1.976,6.409c0,2.15 0.271,3.895 0.812,5.233c1.011,2.521 2.898,3.781 5.661,3.781Z" style="fill:#333;fill-rule:nonzero;"/><path d="M1763.62,53.131l3.91,0l-0,22.773l-3.91,-0l0,-22.773Zm0,-8.609l3.91,0l-0,4.358l-3.91,0l0,-4.358Z" style="fill:#333;fill-rule:nonzero;"/><rect x="1773.45" y="44.522" width="3.845" height="31.381" style="fill:#333;fill-rule:nonzero;"/><path d="M1783.06,53.131l3.909,0l0,22.773l-3.909,-0l-0,-22.773Zm-0,-8.609l3.909,0l0,4.358l-3.909,0l-0,-4.358Z" style="fill:#333;fill-rule:nonzero;"/><path d="M1793.55,46.637l3.888,0l-0,6.388l3.653,-0l-0,3.14l-3.653,-0l-0,14.932c-0,0.798 0.27,1.332 0.812,1.602c0.299,0.157 0.797,0.235 1.495,0.235c0.185,0 0.384,-0.003 0.598,-0.01c0.214,-0.007 0.463,-0.025 0.748,-0.054l-0,3.034c-0.442,0.128 -0.901,0.22 -1.378,0.277c-0.477,0.057 -0.993,0.086 -1.549,0.086c-1.794,-0 -3.012,-0.459 -3.653,-1.378c-0.641,-0.919 -0.961,-2.111 -0.961,-3.578l-0,-15.146l-3.098,-0l0,-3.14l3.098,-0l-0,-6.388Z" style="fill:#333;fill-rule:nonzero;"/><path d="M1819.23,53.025l4.251,-0c-0.541,1.467 -1.744,4.813 -3.61,10.04c-1.395,3.931 -2.563,7.135 -3.503,9.613c-2.222,5.839 -3.788,9.399 -4.7,10.681c-0.911,1.282 -2.478,1.923 -4.7,1.923c-0.541,-0 -0.957,-0.022 -1.249,-0.064c-0.292,-0.043 -0.652,-0.121 -1.079,-0.235l-0,-3.504c0.669,0.185 1.153,0.299 1.452,0.342c0.3,0.043 0.563,0.064 0.791,0.064c0.712,0 1.235,-0.117 1.57,-0.352c0.335,-0.235 0.616,-0.524 0.844,-0.866c0.071,-0.113 0.327,-0.697 0.769,-1.751c0.441,-1.054 0.762,-1.837 0.961,-2.35l-8.459,-23.541l4.358,-0l6.131,18.628l6.173,-18.628Z" style="fill:#333;fill-rule:nonzero;"/><path d="M1849.1,44.01c-2.236,4.343 -3.689,7.541 -4.358,9.591c-1.011,3.119 -1.517,6.722 -1.517,10.81c0,4.13 0.577,7.904 1.731,11.322c0.712,2.108 2.114,5.141 4.208,9.1l-2.585,0c-2.079,-3.247 -3.368,-5.319 -3.867,-6.216c-0.498,-0.898 -1.039,-2.115 -1.623,-3.653c-0.798,-2.108 -1.353,-4.358 -1.666,-6.751c-0.157,-1.239 -0.235,-2.421 -0.235,-3.546c-0,-4.215 0.662,-7.968 1.986,-11.258c0.841,-2.093 2.592,-5.226 5.256,-9.399l2.67,-0Z" style="fill:#333;fill-rule:nonzero;"/><path d="M1856.53,44.522l9.015,26.725l8.908,-26.725l4.764,0l-11.451,31.382l-4.507,-0l-11.429,-31.382l4.7,0Z" style="fill:#333;fill-rule:nonzero;"/><path d="M1883.64,44.522l22.879,0l-0,3.846l-18.735,-0l-0,9.527l17.325,0l-0,3.632l-17.325,-0l-0,10.638l19.055,0l0,3.739l-23.199,-0l-0,-31.382Z" style="fill:#333;fill-rule:nonzero;"/><path d="M1915.1,75.904l-5.127,-0l11.237,-16.086l-10.532,-15.296l5.32,0l8.01,12.006l7.947,-12.006l5.063,0l-10.532,15.296l11.045,16.086l-5.277,-0l-8.459,-12.903l-8.695,12.903Z" style="fill:#333;fill-rule:nonzero;"/><path d="M1939.78,84.833c2.264,-4.415 3.724,-7.633 4.379,-9.656c0.997,-3.062 1.495,-6.65 1.495,-10.766c0,-4.116 -0.576,-7.883 -1.73,-11.301c-0.712,-2.108 -2.115,-5.141 -4.208,-9.1l2.585,-0c2.193,3.503 3.521,5.664 3.984,6.483c0.462,0.819 0.964,1.948 1.506,3.386c0.683,1.78 1.171,3.539 1.463,5.277c0.292,1.737 0.438,3.411 0.438,5.02c-0,4.215 -0.669,7.975 -2.008,11.279c-0.84,2.122 -2.585,5.248 -5.234,9.378l-2.67,0Z" style="fill:#333;fill-rule:nonzero;"/></g><g id="Tag:-Targets-Affected" serif:id="Tag: Targets Affected"><path d="M2029.09,63.901l18.715,-35.965l-0.06,71.96l-18.655,-35.995Z" style="fill:#f9b8b8;"/><rect x="2047.81" y="27.936" width="443.75" height="71.959" style="fill:#f9b8b8;"/><path d="M2107.11,44.522l0,3.739l-10.574,-0l-0,27.643l-4.315,-0l-0,-27.643l-10.575,-0l0,-3.739l25.464,0Z" style="fill:#333;fill-rule:nonzero;"/><path d="M2108.58,69.815c0,1.111 0.406,1.987 1.218,2.628c0.812,0.641 1.773,0.961 2.884,0.961c1.353,0 2.663,-0.313 3.93,-0.94c2.137,-1.039 3.205,-2.741 3.205,-5.105l-0,-3.098c-0.47,0.299 -1.076,0.549 -1.816,0.748c-0.741,0.199 -1.467,0.342 -2.179,0.427l-2.329,0.299c-1.395,0.185 -2.442,0.477 -3.14,0.876c-1.182,0.669 -1.773,1.738 -1.773,3.204Zm9.314,-7.775c0.883,-0.114 1.474,-0.485 1.773,-1.111c0.171,-0.342 0.257,-0.833 0.257,-1.474c-0,-1.31 -0.467,-2.261 -1.4,-2.852c-0.933,-0.591 -2.268,-0.887 -4.005,-0.887c-2.008,0 -3.432,0.542 -4.273,1.624c-0.47,0.598 -0.776,1.488 -0.918,2.67l-3.589,0c0.071,-2.82 0.986,-4.781 2.745,-5.885c1.759,-1.104 3.799,-1.656 6.12,-1.656c2.692,0 4.878,0.513 6.559,1.538c1.666,1.026 2.499,2.621 2.499,4.785l-0,13.181c-0,0.399 0.082,0.719 0.246,0.961c0.163,0.242 0.509,0.364 1.036,0.364c0.171,-0 0.363,-0.011 0.576,-0.033c0.214,-0.021 0.442,-0.053 0.684,-0.096l0,2.842c-0.598,0.17 -1.054,0.277 -1.367,0.32c-0.313,0.043 -0.741,0.064 -1.282,0.064c-1.324,0 -2.286,-0.47 -2.884,-1.41c-0.313,-0.498 -0.534,-1.203 -0.662,-2.115c-0.783,1.026 -1.908,1.916 -3.375,2.671c-1.467,0.754 -3.084,1.132 -4.85,1.132c-2.122,-0 -3.855,-0.645 -5.201,-1.934c-1.346,-1.288 -2.019,-2.901 -2.019,-4.838c0,-2.122 0.662,-3.767 1.987,-4.935c1.324,-1.168 3.062,-1.887 5.212,-2.157l6.131,-0.769Z" style="fill:#333;fill-rule:nonzero;"/><path d="M2130.07,53.025l3.653,-0l-0,3.952c0.299,-0.769 1.032,-1.706 2.2,-2.809c1.168,-1.104 2.514,-1.656 4.037,-1.656c0.072,-0 0.193,0.007 0.364,0.021c0.17,0.015 0.462,0.043 0.875,0.086l0,4.059c-0.227,-0.043 -0.438,-0.072 -0.63,-0.086c-0.192,-0.014 -0.402,-0.021 -0.63,-0.021c-1.937,-0 -3.425,0.623 -4.465,1.869c-1.039,1.246 -1.559,2.681 -1.559,4.305l-0,13.159l-3.845,-0l-0,-22.879Z" style="fill:#333;fill-rule:nonzero;"/><path d="M2152.61,52.619c1.794,-0 3.361,0.441 4.7,1.324c0.726,0.499 1.466,1.225 2.221,2.179l0,-2.884l3.546,0l0,20.807c0,2.905 -0.427,5.198 -1.281,6.879c-1.595,3.104 -4.607,4.657 -9.037,4.657c-2.463,-0 -4.536,-0.552 -6.216,-1.656c-1.681,-1.103 -2.62,-2.83 -2.82,-5.18l3.909,-0c0.186,1.025 0.556,1.816 1.111,2.371c0.869,0.855 2.236,1.282 4.102,1.282c2.948,-0 4.878,-1.04 5.789,-3.119c0.541,-1.225 0.79,-3.411 0.748,-6.558c-0.769,1.168 -1.695,2.036 -2.777,2.606c-1.083,0.57 -2.514,0.854 -4.294,0.854c-2.478,0 -4.647,-0.879 -6.505,-2.638c-1.859,-1.759 -2.788,-4.667 -2.788,-8.726c0,-3.831 0.937,-6.822 2.809,-8.973c1.873,-2.15 4.134,-3.225 6.783,-3.225Zm6.921,11.749c0,-2.834 -0.584,-4.935 -1.751,-6.302c-1.168,-1.367 -2.657,-2.051 -4.465,-2.051c-2.706,0 -4.557,1.268 -5.554,3.803c-0.527,1.353 -0.791,3.126 -0.791,5.319c0,2.578 0.524,4.54 1.57,5.885c1.047,1.346 2.453,2.019 4.219,2.019c2.763,0 4.707,-1.246 5.832,-3.738c0.627,-1.41 0.94,-3.055 0.94,-4.935Z" style="fill:#333;fill-rule:nonzero;"/><path d="M2178.39,52.512c1.624,-0 3.197,0.381 4.721,1.143c1.524,0.762 2.685,1.748 3.482,2.959c0.769,1.153 1.282,2.499 1.538,4.037c0.228,1.054 0.342,2.734 0.342,5.042l-16.769,-0c0.071,2.321 0.619,4.183 1.645,5.586c1.025,1.403 2.613,2.104 4.763,2.104c2.008,-0 3.611,-0.662 4.807,-1.987c0.684,-0.769 1.168,-1.659 1.453,-2.67l3.781,-0c-0.1,0.84 -0.431,1.777 -0.994,2.809c-0.562,1.033 -1.192,1.876 -1.89,2.532c-1.168,1.139 -2.614,1.908 -4.337,2.307c-0.925,0.228 -1.972,0.341 -3.14,0.341c-2.848,0 -5.262,-1.036 -7.242,-3.108c-1.979,-2.072 -2.969,-4.974 -2.969,-8.705c-0,-3.674 0.997,-6.658 2.991,-8.951c1.993,-2.293 4.6,-3.439 7.818,-3.439Zm6.131,10.126c-0.157,-1.667 -0.52,-2.998 -1.089,-3.995c-1.054,-1.851 -2.813,-2.777 -5.277,-2.777c-1.766,-0 -3.247,0.637 -4.443,1.912c-1.196,1.274 -1.83,2.894 -1.901,4.86l12.71,-0Z" style="fill:#333;fill-rule:nonzero;"/><path d="M2193.97,46.637l3.888,0l0,6.388l3.653,-0l0,3.14l-3.653,-0l0,14.932c0,0.798 0.271,1.332 0.812,1.602c0.299,0.157 0.798,0.235 1.495,0.235c0.185,0 0.385,-0.003 0.598,-0.01c0.214,-0.007 0.463,-0.025 0.748,-0.054l0,3.034c-0.441,0.128 -0.901,0.22 -1.378,0.277c-0.477,0.057 -0.993,0.086 -1.548,0.086c-1.795,-0 -3.013,-0.459 -3.653,-1.378c-0.641,-0.919 -0.962,-2.111 -0.962,-3.578l0,-15.146l-3.097,-0l-0,-3.14l3.097,-0l0,-6.388Z" style="fill:#333;fill-rule:nonzero;"/><path d="M2207.64,68.726c0.114,1.282 0.435,2.264 0.961,2.948c0.969,1.239 2.649,1.858 5.042,1.858c1.424,0 2.677,-0.309 3.76,-0.929c1.082,-0.619 1.623,-1.577 1.623,-2.873c0,-0.983 -0.434,-1.73 -1.303,-2.243c-0.555,-0.313 -1.652,-0.677 -3.29,-1.09l-3.054,-0.769c-1.952,-0.484 -3.39,-1.025 -4.316,-1.623c-1.652,-1.04 -2.478,-2.478 -2.478,-4.315c0,-2.165 0.78,-3.917 2.34,-5.255c1.559,-1.339 3.656,-2.008 6.291,-2.008c3.446,-0 5.931,1.011 7.455,3.033c0.954,1.282 1.417,2.663 1.389,4.144l-3.632,0c-0.071,-0.868 -0.377,-1.659 -0.918,-2.371c-0.883,-1.011 -2.414,-1.517 -4.593,-1.517c-1.453,0 -2.553,0.278 -3.301,0.833c-0.748,0.556 -1.121,1.289 -1.121,2.201c-0,0.997 0.491,1.794 1.474,2.392c0.569,0.356 1.41,0.67 2.52,0.94l2.543,0.62c2.762,0.669 4.614,1.317 5.554,1.944c1.495,0.982 2.243,2.528 2.243,4.635c-0,2.037 -0.773,3.796 -2.318,5.277c-1.545,1.481 -3.899,2.222 -7.06,2.222c-3.404,-0 -5.814,-0.773 -7.231,-2.318c-1.417,-1.545 -2.176,-3.457 -2.276,-5.736l3.696,-0Z" style="fill:#333;fill-rule:nonzero;"/><path d="M2253.61,63.044l-4.764,-13.865l-5.063,13.865l9.827,-0Zm-6.986,-18.522l4.807,0l11.386,31.382l-4.657,-0l-3.183,-9.4l-12.411,0l-3.397,9.4l-4.358,-0l11.813,-31.382Z" style="fill:#333;fill-rule:nonzero;"/><path d="M2267.13,49.543c0.057,-1.595 0.335,-2.763 0.833,-3.504c0.898,-1.31 2.628,-1.965 5.191,-1.965c0.242,-0 0.492,0.007 0.748,0.021c0.256,0.014 0.548,0.036 0.876,0.064l-0,3.504c-0.399,-0.029 -0.687,-0.047 -0.865,-0.054c-0.178,-0.007 -0.346,-0.01 -0.502,-0.01c-1.168,-0 -1.866,0.302 -2.094,0.908c-0.228,0.605 -0.342,2.146 -0.342,4.624l3.803,0l-0,3.034l-3.845,-0l-0,19.739l-3.803,-0l0,-19.739l-3.183,-0l0,-3.034l3.183,0l0,-3.588Z" style="fill:#333;fill-rule:nonzero;"/><path d="M2278.52,49.543c0.057,-1.595 0.335,-2.763 0.833,-3.504c0.898,-1.31 2.628,-1.965 5.191,-1.965c0.243,-0 0.492,0.007 0.748,0.021c0.256,0.014 0.548,0.036 0.876,0.064l-0,3.504c-0.399,-0.029 -0.687,-0.047 -0.865,-0.054c-0.178,-0.007 -0.346,-0.01 -0.502,-0.01c-1.168,-0 -1.866,0.302 -2.094,0.908c-0.228,0.605 -0.342,2.146 -0.342,4.624l3.803,0l-0,3.034l-3.845,-0l-0,19.739l-3.803,-0l0,-19.739l-3.183,-0l0,-3.034l3.183,0l0,-3.588Z" style="fill:#333;fill-rule:nonzero;"/><path d="M2299.24,52.512c1.623,-0 3.197,0.381 4.721,1.143c1.524,0.762 2.684,1.748 3.482,2.959c0.769,1.153 1.282,2.499 1.538,4.037c0.228,1.054 0.342,2.734 0.342,5.042l-16.77,-0c0.072,2.321 0.62,4.183 1.645,5.586c1.026,1.403 2.614,2.104 4.764,2.104c2.008,-0 3.61,-0.662 4.807,-1.987c0.683,-0.769 1.167,-1.659 1.452,-2.67l3.781,-0c-0.099,0.84 -0.431,1.777 -0.993,2.809c-0.563,1.033 -1.193,1.876 -1.891,2.532c-1.167,1.139 -2.613,1.908 -4.336,2.307c-0.926,0.228 -1.973,0.341 -3.14,0.341c-2.849,0 -5.263,-1.036 -7.242,-3.108c-1.98,-2.072 -2.97,-4.974 -2.97,-8.705c0,-3.674 0.997,-6.658 2.991,-8.951c1.994,-2.293 4.6,-3.439 7.819,-3.439Zm6.131,10.126c-0.157,-1.667 -0.52,-2.998 -1.09,-3.995c-1.054,-1.851 -2.812,-2.777 -5.276,-2.777c-1.766,-0 -3.247,0.637 -4.444,1.912c-1.196,1.274 -1.83,2.894 -1.901,4.86l12.711,-0Z" style="fill:#333;fill-rule:nonzero;"/><path d="M2322.87,52.362c2.578,0 4.675,0.627 6.292,1.88c1.616,1.254 2.588,3.411 2.916,6.473l-3.739,0c-0.228,-1.41 -0.748,-2.581 -1.559,-3.514c-0.812,-0.933 -2.115,-1.399 -3.91,-1.399c-2.449,-0 -4.201,1.196 -5.255,3.589c-0.683,1.552 -1.025,3.467 -1.025,5.746c-0,2.293 0.484,4.223 1.453,5.789c0.968,1.567 2.492,2.35 4.571,2.35c1.595,0 2.859,-0.488 3.792,-1.463c0.933,-0.976 1.577,-2.311 1.933,-4.006l3.739,0c-0.428,3.034 -1.496,5.252 -3.205,6.655c-1.709,1.403 -3.895,2.104 -6.558,2.104c-2.991,-0 -5.376,-1.093 -7.156,-3.279c-1.781,-2.186 -2.671,-4.917 -2.671,-8.193c0,-4.016 0.976,-7.142 2.927,-9.378c1.951,-2.236 4.436,-3.354 7.455,-3.354Z" style="fill:#333;fill-rule:nonzero;"/><path d="M2336.69,46.637l3.888,0l-0,6.388l3.653,-0l-0,3.14l-3.653,-0l-0,14.932c-0,0.798 0.27,1.332 0.812,1.602c0.299,0.157 0.797,0.235 1.495,0.235c0.185,0 0.384,-0.003 0.598,-0.01c0.214,-0.007 0.463,-0.025 0.748,-0.054l-0,3.034c-0.442,0.128 -0.901,0.22 -1.378,0.277c-0.477,0.057 -0.993,0.086 -1.549,0.086c-1.794,-0 -3.012,-0.459 -3.653,-1.378c-0.641,-0.919 -0.961,-2.111 -0.961,-3.578l-0,-15.146l-3.098,-0l0,-3.14l3.098,-0l-0,-6.388Z" style="fill:#333;fill-rule:nonzero;"/><path d="M2357.6,52.512c1.623,-0 3.197,0.381 4.721,1.143c1.523,0.762 2.684,1.748 3.482,2.959c0.769,1.153 1.281,2.499 1.538,4.037c0.228,1.054 0.342,2.734 0.342,5.042l-16.77,-0c0.071,2.321 0.62,4.183 1.645,5.586c1.025,1.403 2.613,2.104 4.764,2.104c2.008,-0 3.61,-0.662 4.806,-1.987c0.684,-0.769 1.168,-1.659 1.453,-2.67l3.781,-0c-0.1,0.84 -0.431,1.777 -0.993,2.809c-0.563,1.033 -1.193,1.876 -1.891,2.532c-1.168,1.139 -2.613,1.908 -4.336,2.307c-0.926,0.228 -1.973,0.341 -3.141,0.341c-2.848,0 -5.262,-1.036 -7.241,-3.108c-1.98,-2.072 -2.97,-4.974 -2.97,-8.705c0,-3.674 0.997,-6.658 2.991,-8.951c1.994,-2.293 4.6,-3.439 7.819,-3.439Zm6.131,10.126c-0.157,-1.667 -0.52,-2.998 -1.09,-3.995c-1.054,-1.851 -2.813,-2.777 -5.276,-2.777c-1.766,-0 -3.248,0.637 -4.444,1.912c-1.196,1.274 -1.83,2.894 -1.901,4.86l12.711,-0Z" style="fill:#333;fill-rule:nonzero;"/><path d="M2374.84,64.731c-0,2.45 0.52,4.501 1.559,6.153c1.04,1.652 2.706,2.478 4.999,2.478c1.78,-0 3.244,-0.766 4.39,-2.297c1.147,-1.531 1.72,-3.728 1.72,-6.59c-0,-2.891 -0.591,-5.031 -1.773,-6.42c-1.182,-1.388 -2.642,-2.082 -4.38,-2.082c-1.936,-0 -3.507,0.74 -4.71,2.221c-1.203,1.481 -1.805,3.66 -1.805,6.537Zm5.789,-12.112c1.752,-0 3.219,0.37 4.401,1.111c0.683,0.427 1.459,1.175 2.328,2.243l0,-11.557l3.696,-0l-0,31.488l-3.461,-0l0,-3.183c-0.897,1.41 -1.958,2.428 -3.183,3.055c-1.225,0.626 -2.627,0.939 -4.208,0.939c-2.549,0 -4.757,-1.071 -6.622,-3.215c-1.866,-2.143 -2.799,-4.995 -2.799,-8.555c0,-3.333 0.851,-6.22 2.553,-8.663c1.702,-2.442 4.133,-3.663 7.295,-3.663Z" style="fill:#333;fill-rule:nonzero;"/></g><g id="Tag:-Proof-of-Concept" serif:id="Tag: Proof of Concept"><path d="M2529.09,63.901l18.715,-35.965l-0.06,71.96l-18.655,-35.995Z" style="fill:#f9b8b8;"/><rect x="2547.81" y="27.936" width="443.75" height="71.959" style="fill:#f9b8b8;"/><path d="M2584.68,44.522l14.12,0c2.792,0 5.042,0.787 6.751,2.361c1.709,1.574 2.563,3.785 2.563,6.633c0,2.45 -0.762,4.582 -2.286,6.398c-1.523,1.816 -3.866,2.724 -7.028,2.724l-9.869,-0l-0,13.266l-4.251,-0l-0,-31.382Zm19.14,9.015c0,-2.307 -0.854,-3.873 -2.563,-4.699c-0.94,-0.442 -2.229,-0.663 -3.867,-0.663l-8.459,0l-0,10.874l8.459,-0c1.909,-0 3.457,-0.406 4.647,-1.218c1.189,-0.812 1.783,-2.243 1.783,-4.294Z" style="fill:#333;fill-rule:nonzero;"/><path d="M2613.05,53.025l3.653,-0l-0,3.952c0.299,-0.769 1.032,-1.706 2.2,-2.809c1.168,-1.104 2.514,-1.656 4.038,-1.656c0.071,-0 0.192,0.007 0.363,0.021c0.171,0.015 0.463,0.043 0.876,0.086l-0,4.059c-0.228,-0.043 -0.438,-0.072 -0.631,-0.086c-0.192,-0.014 -0.402,-0.021 -0.63,-0.021c-1.937,-0 -3.425,0.623 -4.464,1.869c-1.04,1.246 -1.56,2.681 -1.56,4.305l0,13.159l-3.845,-0l-0,-22.879Z" style="fill:#333;fill-rule:nonzero;"/><path d="M2636.59,73.426c2.549,-0 4.298,-0.965 5.245,-2.895c0.947,-1.93 1.42,-4.077 1.42,-6.441c0,-2.136 -0.342,-3.873 -1.025,-5.212c-1.083,-2.108 -2.948,-3.162 -5.597,-3.162c-2.35,0 -4.059,0.898 -5.127,2.692c-1.068,1.794 -1.602,3.959 -1.602,6.494c-0,2.435 0.534,4.465 1.602,6.088c1.068,1.624 2.763,2.436 5.084,2.436Zm0.15,-21.064c2.948,0 5.44,0.983 7.476,2.948c2.037,1.966 3.055,4.857 3.055,8.674c0,3.688 -0.897,6.736 -2.691,9.143c-1.795,2.406 -4.579,3.61 -8.353,3.61c-3.147,-0 -5.647,-1.065 -7.498,-3.194c-1.852,-2.129 -2.777,-4.988 -2.777,-8.577c-0,-3.845 0.975,-6.907 2.926,-9.186c1.951,-2.278 4.572,-3.418 7.862,-3.418Z" style="fill:#333;fill-rule:nonzero;"/><path d="M2660.92,73.426c2.549,-0 4.297,-0.965 5.244,-2.895c0.947,-1.93 1.421,-4.077 1.421,-6.441c-0,-2.136 -0.342,-3.873 -1.026,-5.212c-1.082,-2.108 -2.948,-3.162 -5.596,-3.162c-2.35,0 -4.059,0.898 -5.127,2.692c-1.069,1.794 -1.603,3.959 -1.603,6.494c0,2.435 0.534,4.465 1.603,6.088c1.068,1.624 2.762,2.436 5.084,2.436Zm0.149,-21.064c2.948,0 5.441,0.983 7.477,2.948c2.037,1.966 3.055,4.857 3.055,8.674c-0,3.688 -0.897,6.736 -2.692,9.143c-1.794,2.406 -4.578,3.61 -8.352,3.61c-3.148,-0 -5.647,-1.065 -7.499,-3.194c-1.851,-2.129 -2.777,-4.988 -2.777,-8.577c0,-3.845 0.976,-6.907 2.927,-9.186c1.951,-2.278 4.572,-3.418 7.861,-3.418Z" style="fill:#333;fill-rule:nonzero;"/><path d="M2677.13,49.543c0.057,-1.595 0.334,-2.763 0.833,-3.504c0.897,-1.31 2.627,-1.965 5.191,-1.965c0.242,-0 0.491,0.007 0.748,0.021c0.256,0.014 0.548,0.036 0.875,0.064l0,3.504c-0.398,-0.029 -0.687,-0.047 -0.865,-0.054c-0.178,-0.007 -0.345,-0.01 -0.502,-0.01c-1.168,-0 -1.865,0.302 -2.093,0.908c-0.228,0.605 -0.342,2.146 -0.342,4.624l3.802,0l0,3.034l-3.845,-0l0,19.739l-3.802,-0l-0,-19.739l-3.183,-0l-0,-3.034l3.183,0l-0,-3.588Z" style="fill:#333;fill-rule:nonzero;"/><path d="M2709.56,73.426c2.549,-0 4.297,-0.965 5.244,-2.895c0.947,-1.93 1.421,-4.077 1.421,-6.441c-0,-2.136 -0.342,-3.873 -1.026,-5.212c-1.082,-2.108 -2.948,-3.162 -5.597,-3.162c-2.349,0 -4.058,0.898 -5.126,2.692c-1.069,1.794 -1.603,3.959 -1.603,6.494c0,2.435 0.534,4.465 1.603,6.088c1.068,1.624 2.762,2.436 5.084,2.436Zm0.149,-21.064c2.948,0 5.441,0.983 7.477,2.948c2.037,1.966 3.055,4.857 3.055,8.674c-0,3.688 -0.897,6.736 -2.692,9.143c-1.794,2.406 -4.578,3.61 -8.352,3.61c-3.148,-0 -5.647,-1.065 -7.499,-3.194c-1.851,-2.129 -2.777,-4.988 -2.777,-8.577c0,-3.845 0.976,-6.907 2.927,-9.186c1.951,-2.278 4.571,-3.418 7.861,-3.418Z" style="fill:#333;fill-rule:nonzero;"/><path d="M2725.77,49.543c0.057,-1.595 0.334,-2.763 0.833,-3.504c0.897,-1.31 2.627,-1.965 5.191,-1.965c0.242,-0 0.491,0.007 0.748,0.021c0.256,0.014 0.548,0.036 0.875,0.064l0,3.504c-0.398,-0.029 -0.687,-0.047 -0.865,-0.054c-0.178,-0.007 -0.345,-0.01 -0.502,-0.01c-1.168,-0 -1.865,0.302 -2.093,0.908c-0.228,0.605 -0.342,2.146 -0.342,4.624l3.802,0l0,3.034l-3.845,-0l0,19.739l-3.802,-0l-0,-19.739l-3.183,-0l-0,-3.034l3.183,0l-0,-3.588Z" style="fill:#333;fill-rule:nonzero;"/><path d="M2762.86,43.668c3.973,-0 7.056,1.047 9.25,3.14c2.193,2.094 3.41,4.472 3.653,7.135l-4.145,0c-0.47,-2.022 -1.406,-3.624 -2.809,-4.806c-1.403,-1.182 -3.372,-1.773 -5.907,-1.773c-3.09,-0 -5.586,1.086 -7.487,3.257c-1.901,2.172 -2.852,5.501 -2.852,9.987c0,3.675 0.858,6.655 2.574,8.94c1.716,2.286 4.276,3.429 7.68,3.429c3.133,0 5.519,-1.203 7.156,-3.61c0.869,-1.268 1.517,-2.934 1.944,-4.999l4.145,0c-0.371,3.304 -1.595,6.074 -3.675,8.31c-2.492,2.692 -5.853,4.037 -10.083,4.037c-3.646,0 -6.707,-1.103 -9.186,-3.311c-3.261,-2.919 -4.891,-7.427 -4.891,-13.522c-0,-4.629 1.224,-8.424 3.674,-11.386c2.649,-3.219 6.302,-4.828 10.959,-4.828Z" style="fill:#333;fill-rule:nonzero;"/><path d="M2789.8,73.426c2.549,-0 4.297,-0.965 5.244,-2.895c0.947,-1.93 1.421,-4.077 1.421,-6.441c-0,-2.136 -0.342,-3.873 -1.026,-5.212c-1.082,-2.108 -2.948,-3.162 -5.597,-3.162c-2.35,0 -4.059,0.898 -5.127,2.692c-1.068,1.794 -1.602,3.959 -1.602,6.494c0,2.435 0.534,4.465 1.602,6.088c1.068,1.624 2.763,2.436 5.085,2.436Zm0.149,-21.064c2.948,0 5.44,0.983 7.477,2.948c2.036,1.966 3.055,4.857 3.055,8.674c-0,3.688 -0.897,6.736 -2.692,9.143c-1.794,2.406 -4.579,3.61 -8.353,3.61c-3.147,-0 -5.646,-1.065 -7.498,-3.194c-1.851,-2.129 -2.777,-4.988 -2.777,-8.577c0,-3.845 0.976,-6.907 2.927,-9.186c1.951,-2.278 4.571,-3.418 7.861,-3.418Z" style="fill:#333;fill-rule:nonzero;"/><path d="M2805.05,53.025l3.653,-0l0,3.247c1.083,-1.339 2.229,-2.3 3.44,-2.884c1.21,-0.584 2.556,-0.876 4.037,-0.876c3.247,-0 5.44,1.132 6.58,3.397c0.626,1.239 0.94,3.012 0.94,5.319l-0,14.676l-3.91,-0l0,-14.42c0,-1.396 -0.206,-2.521 -0.619,-3.375c-0.684,-1.424 -1.923,-2.136 -3.717,-2.136c-0.912,-0 -1.659,0.092 -2.243,0.277c-1.054,0.314 -1.98,0.94 -2.777,1.88c-0.641,0.755 -1.058,1.535 -1.25,2.339c-0.192,0.805 -0.289,1.955 -0.289,3.45l0,11.985l-3.845,-0l0,-22.879Z" style="fill:#333;fill-rule:nonzero;"/><path d="M2838.2,52.362c2.577,0 4.674,0.627 6.291,1.88c1.616,1.254 2.588,3.411 2.916,6.473l-3.739,0c-0.228,-1.41 -0.747,-2.581 -1.559,-3.514c-0.812,-0.933 -2.115,-1.399 -3.909,-1.399c-2.45,-0 -4.202,1.196 -5.256,3.589c-0.683,1.552 -1.025,3.467 -1.025,5.746c0,2.293 0.484,4.223 1.453,5.789c0.968,1.567 2.492,2.35 4.571,2.35c1.595,0 2.859,-0.488 3.792,-1.463c0.933,-0.976 1.577,-2.311 1.933,-4.006l3.739,0c-0.428,3.034 -1.496,5.252 -3.205,6.655c-1.709,1.403 -3.895,2.104 -6.558,2.104c-2.991,-0 -5.376,-1.093 -7.156,-3.279c-1.78,-2.186 -2.671,-4.917 -2.671,-8.193c0,-4.016 0.976,-7.142 2.927,-9.378c1.951,-2.236 4.436,-3.354 7.456,-3.354Z" style="fill:#333;fill-rule:nonzero;"/><path d="M2860.78,52.512c1.623,-0 3.197,0.381 4.721,1.143c1.523,0.762 2.684,1.748 3.482,2.959c0.769,1.153 1.281,2.499 1.538,4.037c0.228,1.054 0.342,2.734 0.342,5.042l-16.77,-0c0.071,2.321 0.62,4.183 1.645,5.586c1.025,1.403 2.613,2.104 4.764,2.104c2.008,-0 3.61,-0.662 4.806,-1.987c0.684,-0.769 1.168,-1.659 1.453,-2.67l3.781,-0c-0.1,0.84 -0.431,1.777 -0.993,2.809c-0.563,1.033 -1.193,1.876 -1.891,2.532c-1.168,1.139 -2.613,1.908 -4.336,2.307c-0.926,0.228 -1.973,0.341 -3.141,0.341c-2.848,0 -5.262,-1.036 -7.241,-3.108c-1.98,-2.072 -2.97,-4.974 -2.97,-8.705c0,-3.674 0.997,-6.658 2.991,-8.951c1.994,-2.293 4.6,-3.439 7.819,-3.439Zm6.13,10.126c-0.156,-1.667 -0.519,-2.998 -1.089,-3.995c-1.054,-1.851 -2.813,-2.777 -5.276,-2.777c-1.766,-0 -3.248,0.637 -4.444,1.912c-1.196,1.274 -1.83,2.894 -1.901,4.86l12.71,-0Z" style="fill:#333;fill-rule:nonzero;"/><path d="M2885.24,73.319c1.795,-0 3.287,-0.751 4.476,-2.254c1.189,-1.502 1.784,-3.749 1.784,-6.74c-0,-1.823 -0.264,-3.389 -0.791,-4.699c-0.997,-2.521 -2.82,-3.782 -5.469,-3.782c-2.663,0 -4.486,1.332 -5.468,3.995c-0.527,1.424 -0.791,3.233 -0.791,5.426c0,1.766 0.264,3.269 0.791,4.508c0.997,2.364 2.819,3.546 5.468,3.546Zm-9.954,-20.188l3.738,0l-0,3.034c0.769,-1.04 1.609,-1.844 2.521,-2.414c1.296,-0.855 2.819,-1.282 4.571,-1.282c2.592,0 4.792,0.994 6.601,2.98c1.809,1.987 2.713,4.825 2.713,8.513c0,4.985 -1.303,8.545 -3.909,10.681c-1.652,1.353 -3.575,2.03 -5.768,2.03c-1.723,-0 -3.169,-0.378 -4.337,-1.132c-0.683,-0.428 -1.445,-1.161 -2.285,-2.201l-0,11.685l-3.845,0l-0,-31.894Z" style="fill:#333;fill-rule:nonzero;"/><path d="M2900.69,46.637l3.888,0l0,6.388l3.653,-0l0,3.14l-3.653,-0l0,14.932c0,0.798 0.271,1.332 0.812,1.602c0.299,0.157 0.798,0.235 1.495,0.235c0.186,0 0.385,-0.003 0.599,-0.01c0.213,-0.007 0.462,-0.025 0.747,-0.054l0,3.034c-0.441,0.128 -0.901,0.22 -1.378,0.277c-0.477,0.057 -0.993,0.086 -1.548,0.086c-1.795,-0 -3.013,-0.459 -3.653,-1.378c-0.641,-0.919 -0.962,-2.111 -0.962,-3.578l0,-15.146l-3.097,-0l-0,-3.14l3.097,-0l0,-6.388Z" style="fill:#333;fill-rule:nonzero;"/></g><g id="Tag:-Recommendations" serif:id="Tag: Recommendations"><path d="M2529.09,186.492l18.715,-35.964l-0.06,71.96l-18.655,-35.996Z" style="fill:#f9b8b8;"/><rect x="2547.81" y="150.528" width="443.75" height="71.959" style="fill:#f9b8b8;"/><path d="M2598.86,181.491c1.994,0 3.571,-0.398 4.732,-1.196c1.161,-0.798 1.741,-2.236 1.741,-4.315c0,-2.236 -0.812,-3.76 -2.435,-4.572c-0.869,-0.427 -2.03,-0.641 -3.482,-0.641l-10.382,0l-0,10.724l9.826,0Zm-14.077,-14.377l14.526,0c2.392,0 4.365,0.349 5.917,1.047c2.948,1.339 4.422,3.81 4.422,7.413c0,1.88 -0.388,3.418 -1.164,4.614c-0.776,1.196 -1.862,2.158 -3.258,2.884c1.225,0.499 2.147,1.154 2.767,1.965c0.619,0.812 0.965,2.13 1.036,3.952l0.149,4.209c0.043,1.196 0.143,2.086 0.299,2.67c0.257,0.997 0.712,1.638 1.368,1.923l-0,0.705l-5.213,-0c-0.142,-0.271 -0.256,-0.62 -0.342,-1.047c-0.085,-0.427 -0.156,-1.253 -0.213,-2.478l-0.257,-5.234c-0.099,-2.051 -0.861,-3.425 -2.285,-4.123c-0.812,-0.384 -2.087,-0.577 -3.824,-0.577l-9.677,0l-0,13.459l-4.251,-0l-0,-31.382Z" style="fill:#333;fill-rule:nonzero;"/><path d="M2624.88,175.104c1.623,-0 3.197,0.381 4.721,1.143c1.523,0.762 2.684,1.748 3.482,2.959c0.769,1.153 1.281,2.499 1.538,4.037c0.228,1.054 0.342,2.734 0.342,5.041l-16.77,0c0.071,2.322 0.62,4.184 1.645,5.587c1.025,1.403 2.613,2.104 4.764,2.104c2.008,-0 3.61,-0.662 4.806,-1.987c0.684,-0.769 1.168,-1.659 1.453,-2.67l3.781,-0c-0.1,0.84 -0.431,1.777 -0.993,2.809c-0.563,1.033 -1.193,1.876 -1.891,2.532c-1.168,1.139 -2.613,1.908 -4.336,2.307c-0.926,0.228 -1.973,0.341 -3.141,0.341c-2.848,0 -5.262,-1.036 -7.241,-3.108c-1.98,-2.072 -2.97,-4.974 -2.97,-8.705c0,-3.674 0.997,-6.658 2.991,-8.951c1.994,-2.293 4.6,-3.439 7.819,-3.439Zm6.131,10.126c-0.157,-1.667 -0.52,-2.998 -1.09,-3.995c-1.054,-1.851 -2.813,-2.777 -5.276,-2.777c-1.766,-0 -3.247,0.637 -4.444,1.912c-1.196,1.274 -1.83,2.894 -1.901,4.86l12.711,-0Z" style="fill:#333;fill-rule:nonzero;"/><path d="M2648.51,174.954c2.578,0 4.675,0.627 6.291,1.88c1.617,1.254 2.589,3.411 2.916,6.473l-3.738,0c-0.228,-1.41 -0.748,-2.581 -1.559,-3.514c-0.812,-0.933 -2.115,-1.399 -3.91,-1.399c-2.449,-0 -4.201,1.196 -5.255,3.589c-0.683,1.552 -1.025,3.467 -1.025,5.746c-0,2.293 0.484,4.223 1.452,5.789c0.969,1.567 2.493,2.35 4.572,2.35c1.595,0 2.859,-0.488 3.792,-1.463c0.933,-0.976 1.577,-2.311 1.933,-4.006l3.738,0c-0.427,3.034 -1.495,5.252 -3.204,6.655c-1.709,1.403 -3.895,2.104 -6.558,2.104c-2.991,-0 -5.376,-1.093 -7.157,-3.279c-1.78,-2.186 -2.67,-4.917 -2.67,-8.193c0,-4.016 0.976,-7.142 2.927,-9.378c1.951,-2.236 4.436,-3.354 7.455,-3.354Z" style="fill:#333;fill-rule:nonzero;"/><path d="M2670.64,196.018c2.549,-0 4.297,-0.965 5.244,-2.895c0.947,-1.93 1.421,-4.077 1.421,-6.441c-0,-2.136 -0.342,-3.873 -1.026,-5.212c-1.082,-2.108 -2.948,-3.162 -5.597,-3.162c-2.349,0 -4.058,0.898 -5.127,2.692c-1.068,1.794 -1.602,3.959 -1.602,6.494c0,2.435 0.534,4.465 1.602,6.088c1.069,1.624 2.763,2.436 5.085,2.436Zm0.149,-21.064c2.948,0 5.44,0.983 7.477,2.948c2.037,1.966 3.055,4.857 3.055,8.674c-0,3.688 -0.897,6.736 -2.692,9.143c-1.794,2.406 -4.579,3.61 -8.353,3.61c-3.147,-0 -5.646,-1.065 -7.498,-3.194c-1.851,-2.129 -2.777,-4.988 -2.777,-8.577c0,-3.845 0.976,-6.907 2.927,-9.186c1.951,-2.278 4.571,-3.418 7.861,-3.418Z" style="fill:#333;fill-rule:nonzero;"/><path d="M2685.89,175.617l3.803,-0l-0,3.247c0.911,-1.125 1.737,-1.944 2.478,-2.457c1.267,-0.869 2.706,-1.303 4.315,-1.303c1.823,-0 3.29,0.449 4.401,1.346c0.626,0.512 1.196,1.267 1.709,2.264c0.854,-1.225 1.858,-2.132 3.012,-2.724c1.153,-0.591 2.449,-0.886 3.888,-0.886c3.076,-0 5.169,1.111 6.28,3.332c0.598,1.197 0.897,2.806 0.897,4.828l0,15.232l-3.994,-0l-0,-15.894c-0,-1.524 -0.381,-2.57 -1.143,-3.14c-0.762,-0.57 -1.691,-0.855 -2.788,-0.855c-1.51,0 -2.809,0.506 -3.899,1.517c-1.089,1.011 -1.634,2.699 -1.634,5.063l0,13.309l-3.909,-0l-0,-14.933c-0,-1.552 -0.185,-2.684 -0.556,-3.396c-0.583,-1.068 -1.673,-1.602 -3.268,-1.602c-1.453,-0 -2.774,0.562 -3.963,1.687c-1.189,1.125 -1.783,3.162 -1.783,6.11l-0,12.134l-3.846,-0l0,-22.879Z" style="fill:#333;fill-rule:nonzero;"/><path d="M2722.33,175.617l3.803,-0l-0,3.247c0.911,-1.125 1.737,-1.944 2.478,-2.457c1.267,-0.869 2.706,-1.303 4.315,-1.303c1.823,-0 3.29,0.449 4.401,1.346c0.626,0.512 1.196,1.267 1.709,2.264c0.854,-1.225 1.858,-2.132 3.012,-2.724c1.153,-0.591 2.449,-0.886 3.888,-0.886c3.076,-0 5.169,1.111 6.28,3.332c0.598,1.197 0.897,2.806 0.897,4.828l0,15.232l-3.994,-0l-0,-15.894c-0,-1.524 -0.381,-2.57 -1.143,-3.14c-0.762,-0.57 -1.691,-0.855 -2.788,-0.855c-1.51,0 -2.809,0.506 -3.899,1.517c-1.089,1.011 -1.634,2.699 -1.634,5.063l0,13.309l-3.909,-0l-0,-14.933c-0,-1.552 -0.185,-2.684 -0.555,-3.396c-0.584,-1.068 -1.674,-1.602 -3.269,-1.602c-1.453,-0 -2.773,0.562 -3.963,1.687c-1.189,1.125 -1.783,3.162 -1.783,6.11l-0,12.134l-3.846,-0l0,-22.879Z" style="fill:#333;fill-rule:nonzero;"/><path d="M2768.31,175.104c1.624,-0 3.197,0.381 4.721,1.143c1.524,0.762 2.685,1.748 3.482,2.959c0.769,1.153 1.282,2.499 1.538,4.037c0.228,1.054 0.342,2.734 0.342,5.041l-16.769,0c0.071,2.322 0.619,4.184 1.645,5.587c1.025,1.403 2.613,2.104 4.763,2.104c2.008,-0 3.611,-0.662 4.807,-1.987c0.683,-0.769 1.168,-1.659 1.453,-2.67l3.781,-0c-0.1,0.84 -0.431,1.777 -0.994,2.809c-0.562,1.033 -1.192,1.876 -1.89,2.532c-1.168,1.139 -2.614,1.908 -4.337,2.307c-0.925,0.228 -1.972,0.341 -3.14,0.341c-2.848,0 -5.262,-1.036 -7.242,-3.108c-1.979,-2.072 -2.969,-4.974 -2.969,-8.705c-0,-3.674 0.997,-6.658 2.99,-8.951c1.994,-2.293 4.601,-3.439 7.819,-3.439Zm6.131,10.126c-0.157,-1.667 -0.52,-2.998 -1.089,-3.995c-1.054,-1.851 -2.813,-2.777 -5.277,-2.777c-1.766,-0 -3.247,0.637 -4.443,1.912c-1.197,1.274 -1.83,2.894 -1.901,4.86l12.71,-0Z" style="fill:#333;fill-rule:nonzero;"/><path d="M2783.11,175.617l3.653,-0l0,3.247c1.082,-1.339 2.229,-2.3 3.439,-2.884c1.211,-0.584 2.557,-0.876 4.038,-0.876c3.247,-0 5.44,1.132 6.58,3.397c0.626,1.239 0.939,3.012 0.939,5.319l0,14.676l-3.909,-0l0,-14.42c0,-1.396 -0.206,-2.521 -0.619,-3.375c-0.684,-1.424 -1.923,-2.136 -3.717,-2.136c-0.912,-0 -1.66,0.092 -2.243,0.277c-1.054,0.314 -1.98,0.94 -2.778,1.88c-0.64,0.755 -1.057,1.535 -1.249,2.339c-0.192,0.805 -0.289,1.955 -0.289,3.45l0,11.985l-3.845,-0l0,-22.879Z" style="fill:#333;fill-rule:nonzero;"/><path d="M2809.88,187.323c0,2.45 0.52,4.501 1.56,6.153c1.039,1.652 2.705,2.478 4.998,2.478c1.781,-0 3.244,-0.766 4.39,-2.297c1.147,-1.531 1.72,-3.728 1.72,-6.59c-0,-2.891 -0.591,-5.031 -1.773,-6.42c-1.182,-1.388 -2.642,-2.082 -4.379,-2.082c-1.937,-0 -3.507,0.74 -4.711,2.221c-1.203,1.481 -1.805,3.66 -1.805,6.537Zm5.789,-12.112c1.752,-0 3.219,0.37 4.401,1.111c0.684,0.427 1.46,1.175 2.328,2.243l0,-11.557l3.696,-0l0,31.488l-3.461,-0l0,-3.183c-0.897,1.41 -1.958,2.428 -3.183,3.054c-1.224,0.627 -2.627,0.94 -4.208,0.94c-2.549,0 -4.757,-1.071 -6.622,-3.215c-1.866,-2.143 -2.799,-4.995 -2.799,-8.555c0,-3.333 0.851,-6.22 2.553,-8.663c1.702,-2.442 4.134,-3.663 7.295,-3.663Z" style="fill:#333;fill-rule:nonzero;"/><path d="M2834.72,192.407c0,1.111 0.406,1.987 1.218,2.628c0.812,0.641 1.773,0.961 2.884,0.961c1.353,0 2.663,-0.313 3.931,-0.94c2.136,-1.039 3.204,-2.741 3.204,-5.105l0,-3.098c-0.47,0.299 -1.075,0.549 -1.816,0.748c-0.74,0.199 -1.467,0.342 -2.179,0.427l-2.328,0.299c-1.396,0.185 -2.443,0.477 -3.14,0.876c-1.182,0.669 -1.774,1.738 -1.774,3.204Zm9.314,-7.775c0.883,-0.114 1.474,-0.485 1.774,-1.111c0.17,-0.342 0.256,-0.833 0.256,-1.474c-0,-1.311 -0.467,-2.261 -1.399,-2.852c-0.933,-0.591 -2.268,-0.887 -4.006,-0.887c-2.008,0 -3.432,0.541 -4.272,1.624c-0.47,0.598 -0.776,1.488 -0.919,2.67l-3.589,0c0.072,-2.82 0.987,-4.781 2.745,-5.885c1.759,-1.104 3.799,-1.656 6.121,-1.656c2.691,0 4.877,0.513 6.558,1.538c1.666,1.026 2.499,2.621 2.499,4.785l0,13.181c0,0.399 0.082,0.719 0.246,0.961c0.164,0.242 0.509,0.363 1.036,0.363c0.171,0 0.363,-0.01 0.577,-0.032c0.213,-0.021 0.441,-0.053 0.683,-0.096l0,2.841c-0.598,0.171 -1.053,0.278 -1.367,0.321c-0.313,0.043 -0.74,0.064 -1.282,0.064c-1.324,-0 -2.285,-0.47 -2.883,-1.41c-0.314,-0.498 -0.534,-1.203 -0.663,-2.115c-0.783,1.026 -1.908,1.916 -3.375,2.671c-1.467,0.754 -3.083,1.132 -4.849,1.132c-2.122,-0 -3.856,-0.645 -5.202,-1.934c-1.346,-1.288 -2.019,-2.901 -2.019,-4.838c0,-2.122 0.663,-3.767 1.987,-4.935c1.325,-1.168 3.062,-1.887 5.212,-2.157l6.131,-0.769Z" style="fill:#333;fill-rule:nonzero;"/><path d="M2856.87,169.229l3.888,0l0,6.388l3.653,-0l0,3.14l-3.653,-0l0,14.932c0,0.798 0.271,1.332 0.812,1.602c0.299,0.157 0.797,0.235 1.495,0.235c0.185,0 0.385,-0.003 0.598,-0.01c0.214,-0.007 0.463,-0.025 0.748,-0.054l0,3.034c-0.441,0.128 -0.901,0.22 -1.378,0.277c-0.477,0.057 -0.993,0.086 -1.549,0.086c-1.794,-0 -3.012,-0.459 -3.652,-1.378c-0.641,-0.919 -0.962,-2.111 -0.962,-3.578l0,-15.146l-3.097,-0l-0,-3.14l3.097,-0l0,-6.388Z" style="fill:#333;fill-rule:nonzero;"/><path d="M2868.26,175.723l3.91,0l-0,22.773l-3.91,-0l0,-22.773Zm0,-8.609l3.91,0l-0,4.358l-3.91,0l0,-4.358Z" style="fill:#333;fill-rule:nonzero;"/><path d="M2887.06,196.018c2.549,-0 4.298,-0.965 5.245,-2.895c0.947,-1.93 1.42,-4.077 1.42,-6.441c0,-2.136 -0.342,-3.873 -1.025,-5.212c-1.083,-2.108 -2.948,-3.162 -5.597,-3.162c-2.35,0 -4.059,0.898 -5.127,2.692c-1.068,1.794 -1.602,3.959 -1.602,6.494c-0,2.435 0.534,4.465 1.602,6.088c1.068,1.624 2.763,2.436 5.084,2.436Zm0.15,-21.064c2.948,0 5.44,0.983 7.476,2.948c2.037,1.966 3.055,4.857 3.055,8.674c0,3.688 -0.897,6.736 -2.691,9.143c-1.795,2.406 -4.579,3.61 -8.353,3.61c-3.147,-0 -5.647,-1.065 -7.498,-3.194c-1.852,-2.129 -2.777,-4.988 -2.777,-8.577c-0,-3.845 0.975,-6.907 2.926,-9.186c1.951,-2.278 4.572,-3.418 7.862,-3.418Z" style="fill:#333;fill-rule:nonzero;"/><path d="M2902.31,175.617l3.653,-0l-0,3.247c1.082,-1.339 2.229,-2.3 3.439,-2.884c1.211,-0.584 2.556,-0.876 4.038,-0.876c3.247,-0 5.44,1.132 6.579,3.397c0.627,1.239 0.94,3.012 0.94,5.319l0,14.676l-3.909,-0l-0,-14.42c-0,-1.396 -0.207,-2.521 -0.62,-3.375c-0.683,-1.424 -1.922,-2.136 -3.717,-2.136c-0.911,-0 -1.659,0.092 -2.243,0.277c-1.054,0.314 -1.979,0.94 -2.777,1.88c-0.641,0.755 -1.057,1.535 -1.25,2.339c-0.192,0.805 -0.288,1.955 -0.288,3.45l0,11.985l-3.845,-0l-0,-22.879Z" style="fill:#333;fill-rule:nonzero;"/><path d="M2928.93,191.318c0.114,1.282 0.435,2.264 0.962,2.948c0.968,1.239 2.648,1.858 5.041,1.858c1.424,0 2.677,-0.309 3.76,-0.929c1.082,-0.619 1.623,-1.577 1.623,-2.873c0,-0.983 -0.434,-1.73 -1.303,-2.243c-0.555,-0.313 -1.652,-0.677 -3.29,-1.09l-3.054,-0.769c-1.951,-0.484 -3.39,-1.025 -4.316,-1.623c-1.652,-1.04 -2.478,-2.478 -2.478,-4.315c0,-2.165 0.78,-3.917 2.34,-5.255c1.559,-1.339 3.656,-2.009 6.291,-2.009c3.446,0 5.931,1.012 7.455,3.034c0.954,1.282 1.417,2.663 1.389,4.144l-3.632,0c-0.071,-0.869 -0.377,-1.659 -0.918,-2.371c-0.883,-1.011 -2.414,-1.517 -4.593,-1.517c-1.453,0 -2.553,0.278 -3.301,0.833c-0.747,0.556 -1.121,1.289 -1.121,2.201c-0,0.997 0.491,1.794 1.474,2.392c0.569,0.356 1.41,0.67 2.521,0.94l2.542,0.62c2.762,0.669 4.614,1.317 5.554,1.944c1.495,0.982 2.243,2.528 2.243,4.635c-0,2.037 -0.773,3.796 -2.318,5.277c-1.545,1.481 -3.899,2.222 -7.06,2.222c-3.404,-0 -5.814,-0.773 -7.231,-2.318c-1.417,-1.545 -2.176,-3.457 -2.275,-5.736l3.695,-0Z" style="fill:#333;fill-rule:nonzero;"/></g><g id="Tag:-Evidence" serif:id="Tag: Evidence"><path d="M1528.98,186.492l18.716,-35.964l-0.061,71.96l-18.655,-35.996Z" style="fill:#f9b8b8;"/><rect x="1547.7" y="150.528" width="443.75" height="71.959" style="fill:#f9b8b8;"/><path d="M1584.57,167.114l22.879,0l0,3.846l-18.734,-0l-0,9.527l17.325,0l-0,3.632l-17.325,-0l-0,10.638l19.055,0l-0,3.739l-23.2,-0l0,-31.382Z" style="fill:#333;fill-rule:nonzero;"/><path d="M1614.71,175.617l6.109,18.628l6.388,-18.628l4.208,-0l-8.63,22.879l-4.102,-0l-8.438,-22.879l4.465,-0Z" style="fill:#333;fill-rule:nonzero;"/><path d="M1634.7,175.723l3.909,0l0,22.773l-3.909,-0l-0,-22.773Zm-0,-8.609l3.909,0l0,4.358l-3.909,0l-0,-4.358Z" style="fill:#333;fill-rule:nonzero;"/><path d="M1646.86,187.323c-0,2.45 0.52,4.501 1.559,6.153c1.04,1.652 2.706,2.478 4.999,2.478c1.78,-0 3.244,-0.766 4.39,-2.297c1.147,-1.531 1.72,-3.728 1.72,-6.59c-0,-2.891 -0.591,-5.031 -1.773,-6.42c-1.182,-1.388 -2.642,-2.082 -4.38,-2.082c-1.936,-0 -3.507,0.74 -4.71,2.221c-1.203,1.481 -1.805,3.66 -1.805,6.537Zm5.789,-12.112c1.752,-0 3.219,0.37 4.401,1.111c0.683,0.427 1.459,1.175 2.328,2.243l0,-11.557l3.696,-0l-0,31.488l-3.461,-0l0,-3.183c-0.897,1.41 -1.958,2.428 -3.183,3.054c-1.225,0.627 -2.627,0.94 -4.208,0.94c-2.549,0 -4.757,-1.071 -6.622,-3.215c-1.866,-2.143 -2.799,-4.995 -2.799,-8.555c0,-3.333 0.851,-6.22 2.553,-8.663c1.702,-2.442 4.133,-3.663 7.295,-3.663Z" style="fill:#333;fill-rule:nonzero;"/><path d="M1678.28,175.104c1.623,-0 3.197,0.381 4.721,1.143c1.524,0.762 2.684,1.748 3.482,2.959c0.769,1.153 1.282,2.499 1.538,4.037c0.228,1.054 0.342,2.734 0.342,5.041l-16.77,0c0.072,2.322 0.62,4.184 1.645,5.587c1.026,1.403 2.614,2.104 4.764,2.104c2.008,-0 3.61,-0.662 4.807,-1.987c0.683,-0.769 1.167,-1.659 1.452,-2.67l3.781,-0c-0.099,0.84 -0.43,1.777 -0.993,2.809c-0.562,1.033 -1.193,1.876 -1.891,2.532c-1.167,1.139 -2.613,1.908 -4.336,2.307c-0.926,0.228 -1.973,0.341 -3.14,0.341c-2.849,0 -5.263,-1.036 -7.242,-3.108c-1.98,-2.072 -2.969,-4.974 -2.969,-8.705c-0,-3.674 0.996,-6.658 2.99,-8.951c1.994,-2.293 4.6,-3.439 7.819,-3.439Zm6.131,10.126c-0.157,-1.667 -0.52,-2.998 -1.09,-3.995c-1.054,-1.851 -2.812,-2.777 -5.276,-2.777c-1.766,-0 -3.247,0.637 -4.444,1.912c-1.196,1.274 -1.83,2.894 -1.901,4.86l12.711,-0Z" style="fill:#333;fill-rule:nonzero;"/><path d="M1693.09,175.617l3.653,-0l-0,3.247c1.082,-1.339 2.229,-2.3 3.439,-2.884c1.211,-0.584 2.557,-0.876 4.038,-0.876c3.247,-0 5.44,1.132 6.579,3.397c0.627,1.239 0.94,3.012 0.94,5.319l0,14.676l-3.909,-0l-0,-14.42c-0,-1.396 -0.207,-2.521 -0.62,-3.375c-0.683,-1.424 -1.922,-2.136 -3.717,-2.136c-0.911,-0 -1.659,0.092 -2.243,0.277c-1.054,0.314 -1.979,0.94 -2.777,1.88c-0.641,0.755 -1.057,1.535 -1.249,2.339c-0.193,0.805 -0.289,1.955 -0.289,3.45l0,11.985l-3.845,-0l-0,-22.879Z" style="fill:#333;fill-rule:nonzero;"/><path d="M1726.24,174.954c2.578,0 4.675,0.627 6.291,1.88c1.617,1.254 2.589,3.411 2.916,6.473l-3.738,0c-0.228,-1.41 -0.748,-2.581 -1.559,-3.514c-0.812,-0.933 -2.115,-1.399 -3.91,-1.399c-2.449,-0 -4.201,1.196 -5.255,3.589c-0.684,1.552 -1.025,3.467 -1.025,5.746c-0,2.293 0.484,4.223 1.452,5.789c0.969,1.567 2.493,2.35 4.572,2.35c1.595,0 2.859,-0.488 3.792,-1.463c0.932,-0.976 1.577,-2.311 1.933,-4.006l3.738,0c-0.427,3.034 -1.495,5.252 -3.204,6.655c-1.709,1.403 -3.895,2.104 -6.558,2.104c-2.991,-0 -5.376,-1.093 -7.157,-3.279c-1.78,-2.186 -2.67,-4.917 -2.67,-8.193c0,-4.016 0.976,-7.142 2.927,-9.378c1.951,-2.236 4.436,-3.354 7.455,-3.354Z" style="fill:#333;fill-rule:nonzero;"/><path d="M1748.82,175.104c1.624,-0 3.197,0.381 4.721,1.143c1.524,0.762 2.685,1.748 3.482,2.959c0.769,1.153 1.282,2.499 1.538,4.037c0.228,1.054 0.342,2.734 0.342,5.041l-16.769,0c0.071,2.322 0.619,4.184 1.645,5.587c1.025,1.403 2.613,2.104 4.763,2.104c2.009,-0 3.611,-0.662 4.807,-1.987c0.684,-0.769 1.168,-1.659 1.453,-2.67l3.781,-0c-0.1,0.84 -0.431,1.777 -0.994,2.809c-0.562,1.033 -1.192,1.876 -1.89,2.532c-1.168,1.139 -2.614,1.908 -4.337,2.307c-0.925,0.228 -1.972,0.341 -3.14,0.341c-2.848,0 -5.262,-1.036 -7.242,-3.108c-1.979,-2.072 -2.969,-4.974 -2.969,-8.705c-0,-3.674 0.997,-6.658 2.991,-8.951c1.993,-2.293 4.6,-3.439 7.818,-3.439Zm6.131,10.126c-0.157,-1.667 -0.52,-2.998 -1.089,-3.995c-1.054,-1.851 -2.813,-2.777 -5.277,-2.777c-1.766,-0 -3.247,0.637 -4.443,1.912c-1.196,1.274 -1.83,2.894 -1.901,4.86l12.71,-0Z" style="fill:#333;fill-rule:nonzero;"/></g><g id="Tag:-Version-Ranges" serif:id="Tag: Version Ranges"><path d="M2029.09,186.492l18.715,-35.964l-0.06,71.96l-18.655,-35.996Z" style="fill:#f9b8b8;"/><rect x="2047.81" y="150.528" width="443.75" height="71.959" style="fill:#f9b8b8;"/><path d="M2086.75,167.114l9.015,26.725l8.908,-26.725l4.764,0l-11.451,31.382l-4.507,-0l-11.429,-31.382l4.7,0Z" style="fill:#333;fill-rule:nonzero;"/><path d="M2120.07,175.104c1.624,-0 3.197,0.381 4.721,1.143c1.524,0.762 2.685,1.748 3.482,2.959c0.769,1.153 1.282,2.499 1.538,4.037c0.228,1.054 0.342,2.734 0.342,5.041l-16.769,0c0.071,2.322 0.619,4.184 1.645,5.587c1.025,1.403 2.613,2.104 4.763,2.104c2.008,-0 3.611,-0.662 4.807,-1.987c0.683,-0.769 1.168,-1.659 1.453,-2.67l3.781,-0c-0.1,0.84 -0.431,1.777 -0.994,2.809c-0.562,1.033 -1.192,1.876 -1.89,2.532c-1.168,1.139 -2.614,1.908 -4.337,2.307c-0.926,0.228 -1.972,0.341 -3.14,0.341c-2.848,0 -5.262,-1.036 -7.242,-3.108c-1.979,-2.072 -2.969,-4.974 -2.969,-8.705c-0,-3.674 0.997,-6.658 2.99,-8.951c1.994,-2.293 4.6,-3.439 7.819,-3.439Zm6.131,10.126c-0.157,-1.667 -0.52,-2.998 -1.089,-3.995c-1.054,-1.851 -2.813,-2.777 -5.277,-2.777c-1.766,-0 -3.247,0.637 -4.443,1.912c-1.197,1.274 -1.83,2.894 -1.902,4.86l12.711,-0Z" style="fill:#333;fill-rule:nonzero;"/><path d="M2134.98,175.617l3.653,-0l-0,3.952c0.299,-0.769 1.032,-1.706 2.2,-2.809c1.168,-1.104 2.514,-1.656 4.038,-1.656c0.071,-0 0.192,0.007 0.363,0.021c0.171,0.015 0.463,0.043 0.876,0.086l-0,4.059c-0.228,-0.043 -0.438,-0.072 -0.63,-0.086c-0.193,-0.014 -0.403,-0.021 -0.631,-0.021c-1.937,-0 -3.425,0.623 -4.464,1.869c-1.04,1.246 -1.56,2.681 -1.56,4.304l0,13.16l-3.845,-0l-0,-22.879Z" style="fill:#333;fill-rule:nonzero;"/><path d="M2151.73,191.318c0.114,1.282 0.434,2.264 0.961,2.948c0.969,1.239 2.649,1.858 5.042,1.858c1.424,0 2.677,-0.309 3.76,-0.929c1.082,-0.619 1.623,-1.577 1.623,-2.873c0,-0.983 -0.434,-1.73 -1.303,-2.243c-0.555,-0.313 -1.652,-0.677 -3.29,-1.09l-3.055,-0.769c-1.951,-0.484 -3.389,-1.025 -4.315,-1.623c-1.652,-1.04 -2.478,-2.478 -2.478,-4.315c0,-2.165 0.78,-3.917 2.339,-5.255c1.56,-1.339 3.657,-2.009 6.292,-2.009c3.446,0 5.931,1.012 7.455,3.034c0.954,1.282 1.417,2.663 1.389,4.144l-3.632,0c-0.071,-0.869 -0.377,-1.659 -0.919,-2.371c-0.883,-1.011 -2.414,-1.517 -4.593,-1.517c-1.452,0 -2.552,0.278 -3.3,0.833c-0.748,0.556 -1.122,1.289 -1.122,2.201c0,0.997 0.492,1.794 1.474,2.392c0.57,0.356 1.41,0.67 2.521,0.94l2.542,0.62c2.763,0.669 4.615,1.317 5.555,1.944c1.495,0.982 2.243,2.528 2.243,4.635c-0,2.037 -0.773,3.796 -2.318,5.277c-1.545,1.481 -3.899,2.222 -7.06,2.222c-3.404,-0 -5.815,-0.773 -7.232,-2.318c-1.417,-1.545 -2.175,-3.457 -2.275,-5.736l3.696,-0Z" style="fill:#333;fill-rule:nonzero;"/><path d="M2171.32,175.723l3.91,0l-0,22.773l-3.91,-0l0,-22.773Zm0,-8.609l3.91,0l-0,4.358l-3.91,0l0,-4.358Z" style="fill:#333;fill-rule:nonzero;"/><path d="M2190.12,196.018c2.549,-0 4.297,-0.965 5.245,-2.895c0.947,-1.93 1.42,-4.077 1.42,-6.441c0,-2.136 -0.342,-3.873 -1.025,-5.212c-1.083,-2.108 -2.948,-3.162 -5.597,-3.162c-2.35,0 -4.059,0.898 -5.127,2.692c-1.068,1.794 -1.602,3.959 -1.602,6.494c-0,2.435 0.534,4.465 1.602,6.088c1.068,1.624 2.763,2.436 5.084,2.436Zm0.15,-21.064c2.948,0 5.44,0.983 7.476,2.948c2.037,1.966 3.055,4.857 3.055,8.674c0,3.688 -0.897,6.736 -2.691,9.143c-1.795,2.406 -4.579,3.61 -8.353,3.61c-3.147,-0 -5.647,-1.065 -7.498,-3.194c-1.852,-2.129 -2.777,-4.988 -2.777,-8.577c-0,-3.845 0.975,-6.907 2.926,-9.186c1.951,-2.278 4.572,-3.418 7.862,-3.418Z" style="fill:#333;fill-rule:nonzero;"/><path d="M2205.37,175.617l3.653,-0l-0,3.247c1.082,-1.339 2.228,-2.3 3.439,-2.884c1.211,-0.584 2.556,-0.876 4.038,-0.876c3.247,-0 5.44,1.132 6.579,3.397c0.627,1.239 0.94,3.012 0.94,5.319l0,14.676l-3.909,-0l-0,-14.42c-0,-1.396 -0.207,-2.521 -0.62,-3.375c-0.683,-1.424 -1.922,-2.136 -3.717,-2.136c-0.911,-0 -1.659,0.092 -2.243,0.277c-1.054,0.314 -1.979,0.94 -2.777,1.88c-0.641,0.755 -1.057,1.535 -1.25,2.339c-0.192,0.805 -0.288,1.955 -0.288,3.45l-0,11.985l-3.845,-0l-0,-22.879Z" style="fill:#333;fill-rule:nonzero;"/><path d="M2256.96,181.491c1.994,0 3.571,-0.398 4.731,-1.196c1.161,-0.798 1.741,-2.236 1.741,-4.315c0,-2.236 -0.811,-3.76 -2.435,-4.572c-0.869,-0.427 -2.029,-0.641 -3.482,-0.641l-10.382,0l0,10.724l9.827,0Zm-14.078,-14.377l14.526,0c2.393,0 4.365,0.349 5.918,1.047c2.948,1.339 4.422,3.81 4.422,7.413c-0,1.88 -0.388,3.418 -1.165,4.614c-0.776,1.196 -1.862,2.158 -3.257,2.884c1.224,0.499 2.147,1.154 2.766,1.965c0.62,0.812 0.965,2.13 1.036,3.952l0.15,4.209c0.042,1.196 0.142,2.086 0.299,2.67c0.256,0.997 0.712,1.638 1.367,1.923l-0,0.705l-5.212,-0c-0.143,-0.271 -0.257,-0.62 -0.342,-1.047c-0.086,-0.427 -0.157,-1.253 -0.214,-2.478l-0.256,-5.234c-0.1,-2.051 -0.862,-3.425 -2.286,-4.123c-0.812,-0.384 -2.086,-0.577 -3.824,-0.577l-9.677,0l0,13.459l-4.251,-0l-0,-31.382Z" style="fill:#333;fill-rule:nonzero;"/><path d="M2276.4,192.407c0,1.111 0.406,1.987 1.218,2.628c0.812,0.641 1.773,0.961 2.884,0.961c1.353,0 2.663,-0.313 3.931,-0.94c2.136,-1.039 3.204,-2.741 3.204,-5.105l-0,-3.098c-0.47,0.299 -1.075,0.549 -1.816,0.748c-0.74,0.199 -1.467,0.342 -2.179,0.427l-2.328,0.299c-1.396,0.185 -2.443,0.477 -3.141,0.876c-1.182,0.669 -1.773,1.738 -1.773,3.204Zm9.314,-7.775c0.883,-0.114 1.474,-0.485 1.773,-1.111c0.171,-0.342 0.257,-0.833 0.257,-1.474c-0,-1.311 -0.467,-2.261 -1.399,-2.852c-0.933,-0.591 -2.268,-0.887 -4.006,-0.887c-2.008,0 -3.432,0.541 -4.272,1.624c-0.47,0.598 -0.776,1.488 -0.919,2.67l-3.589,0c0.071,-2.82 0.986,-4.781 2.745,-5.885c1.759,-1.104 3.799,-1.656 6.121,-1.656c2.691,0 4.877,0.513 6.558,1.538c1.666,1.026 2.499,2.621 2.499,4.785l0,13.181c0,0.399 0.082,0.719 0.246,0.961c0.164,0.242 0.509,0.363 1.036,0.363c0.171,0 0.363,-0.01 0.577,-0.032c0.213,-0.021 0.441,-0.053 0.683,-0.096l0,2.841c-0.598,0.171 -1.054,0.278 -1.367,0.321c-0.313,0.043 -0.74,0.064 -1.282,0.064c-1.324,-0 -2.285,-0.47 -2.884,-1.41c-0.313,-0.498 -0.534,-1.203 -0.662,-2.115c-0.783,1.026 -1.908,1.916 -3.375,2.671c-1.467,0.754 -3.083,1.132 -4.849,1.132c-2.122,-0 -3.856,-0.645 -5.202,-1.934c-1.346,-1.288 -2.019,-2.901 -2.019,-4.838c0,-2.122 0.663,-3.767 1.987,-4.935c1.324,-1.168 3.062,-1.887 5.212,-2.157l6.131,-0.769Z" style="fill:#333;fill-rule:nonzero;"/><path d="M2297.79,175.617l3.653,-0l0,3.247c1.082,-1.339 2.229,-2.3 3.439,-2.884c1.211,-0.584 2.557,-0.876 4.038,-0.876c3.247,-0 5.44,1.132 6.579,3.397c0.627,1.239 0.94,3.012 0.94,5.319l0,14.676l-3.909,-0l0,-14.42c0,-1.396 -0.206,-2.521 -0.619,-3.375c-0.684,-1.424 -1.923,-2.136 -3.717,-2.136c-0.912,-0 -1.66,0.092 -2.244,0.277c-1.053,0.314 -1.979,0.94 -2.777,1.88c-0.64,0.755 -1.057,1.535 -1.249,2.339c-0.193,0.805 -0.289,1.955 -0.289,3.45l0,11.985l-3.845,-0l0,-22.879Z" style="fill:#333;fill-rule:nonzero;"/><path d="M2330.19,175.211c1.794,-0 3.361,0.441 4.699,1.324c0.727,0.499 1.467,1.225 2.222,2.179l0,-2.884l3.546,0l0,20.807c0,2.905 -0.427,5.198 -1.282,6.879c-1.595,3.104 -4.607,4.657 -9.036,4.657c-2.464,-0 -4.536,-0.552 -6.216,-1.656c-1.681,-1.104 -2.621,-2.83 -2.82,-5.18l3.909,-0c0.185,1.025 0.556,1.816 1.111,2.371c0.869,0.855 2.236,1.282 4.102,1.282c2.948,-0 4.877,-1.04 5.789,-3.119c0.541,-1.225 0.79,-3.411 0.748,-6.558c-0.77,1.167 -1.695,2.036 -2.778,2.606c-1.082,0.57 -2.513,0.854 -4.293,0.854c-2.478,0 -4.647,-0.879 -6.505,-2.638c-1.859,-1.759 -2.788,-4.668 -2.788,-8.726c0,-3.831 0.936,-6.822 2.809,-8.973c1.873,-2.15 4.134,-3.225 6.783,-3.225Zm6.921,11.749c0,-2.834 -0.584,-4.935 -1.752,-6.302c-1.167,-1.367 -2.656,-2.051 -4.464,-2.051c-2.706,0 -4.558,1.268 -5.555,3.803c-0.526,1.353 -0.79,3.126 -0.79,5.319c0,2.578 0.523,4.54 1.57,5.885c1.047,1.346 2.453,2.019 4.219,2.019c2.763,0 4.707,-1.246 5.832,-3.738c0.627,-1.41 0.94,-3.055 0.94,-4.935Z" style="fill:#333;fill-rule:nonzero;"/><path d="M2355.98,175.104c1.624,-0 3.197,0.381 4.721,1.143c1.524,0.762 2.685,1.748 3.482,2.959c0.769,1.153 1.282,2.499 1.538,4.037c0.228,1.054 0.342,2.734 0.342,5.041l-16.769,0c0.071,2.322 0.619,4.184 1.644,5.587c1.026,1.403 2.614,2.104 4.764,2.104c2.008,-0 3.611,-0.662 4.807,-1.987c0.683,-0.769 1.168,-1.659 1.452,-2.67l3.782,-0c-0.1,0.84 -0.431,1.777 -0.994,2.809c-0.562,1.033 -1.193,1.876 -1.89,2.532c-1.168,1.139 -2.614,1.908 -4.337,2.307c-0.926,0.228 -1.972,0.341 -3.14,0.341c-2.848,0 -5.262,-1.036 -7.242,-3.108c-1.98,-2.072 -2.969,-4.974 -2.969,-8.705c-0,-3.674 0.997,-6.658 2.99,-8.951c1.994,-2.293 4.6,-3.439 7.819,-3.439Zm6.131,10.126c-0.157,-1.667 -0.52,-2.998 -1.09,-3.995c-1.053,-1.851 -2.812,-2.777 -5.276,-2.777c-1.766,-0 -3.247,0.637 -4.443,1.912c-1.197,1.274 -1.83,2.894 -1.902,4.86l12.711,-0Z" style="fill:#333;fill-rule:nonzero;"/><path d="M2373.07,191.318c0.114,1.282 0.434,2.264 0.961,2.948c0.969,1.239 2.649,1.858 5.042,1.858c1.424,0 2.677,-0.309 3.759,-0.929c1.083,-0.619 1.624,-1.577 1.624,-2.873c-0,-0.983 -0.434,-1.73 -1.303,-2.243c-0.556,-0.313 -1.652,-0.677 -3.29,-1.09l-3.055,-0.769c-1.951,-0.484 -3.389,-1.025 -4.315,-1.623c-1.652,-1.04 -2.478,-2.478 -2.478,-4.315c0,-2.165 0.78,-3.917 2.339,-5.255c1.56,-1.339 3.657,-2.009 6.291,-2.009c3.447,0 5.932,1.012 7.456,3.034c0.954,1.282 1.417,2.663 1.388,4.144l-3.631,0c-0.071,-0.869 -0.378,-1.659 -0.919,-2.371c-0.883,-1.011 -2.414,-1.517 -4.593,-1.517c-1.452,0 -2.552,0.278 -3.3,0.833c-0.748,0.556 -1.122,1.289 -1.122,2.201c0,0.997 0.492,1.794 1.474,2.392c0.57,0.356 1.41,0.67 2.521,0.94l2.542,0.62c2.763,0.669 4.614,1.317 5.554,1.944c1.496,0.982 2.243,2.528 2.243,4.635c0,2.037 -0.772,3.796 -2.317,5.277c-1.546,1.481 -3.899,2.222 -7.061,2.222c-3.403,-0 -5.814,-0.773 -7.231,-2.318c-1.417,-1.545 -2.175,-3.457 -2.275,-5.736l3.696,-0Z" style="fill:#333;fill-rule:nonzero;"/></g><g id="Tag:-Source" serif:id="Tag: Source"><path d="M1029.11,63.901l18.715,-35.965l-0.06,71.96l-18.655,-35.995Z" style="fill:#f9b8b8;"/><rect x="1047.82" y="27.936" width="443.75" height="71.959" style="fill:#f9b8b8;"/><path d="M1087.06,65.778c0.1,1.78 0.52,3.226 1.26,4.337c1.41,2.079 3.895,3.118 7.456,3.118c1.595,0 3.048,-0.227 4.358,-0.683c2.535,-0.883 3.802,-2.464 3.802,-4.743c0,-1.709 -0.534,-2.926 -1.602,-3.653c-1.082,-0.712 -2.777,-1.331 -5.084,-1.858l-4.251,-0.961c-2.777,-0.627 -4.743,-1.318 -5.896,-2.073c-1.994,-1.31 -2.991,-3.268 -2.991,-5.874c-0,-2.82 0.976,-5.134 2.927,-6.943c1.951,-1.809 4.714,-2.713 8.288,-2.713c3.29,0 6.085,0.794 8.385,2.382c2.3,1.588 3.45,4.126 3.45,7.616l-3.995,-0c-0.213,-1.681 -0.669,-2.97 -1.367,-3.867c-1.296,-1.638 -3.496,-2.457 -6.601,-2.457c-2.506,0 -4.308,0.527 -5.405,1.581c-1.096,1.054 -1.645,2.279 -1.645,3.675c0,1.538 0.641,2.663 1.923,3.375c0.84,0.455 2.742,1.025 5.704,1.709l4.4,1.004c2.122,0.484 3.76,1.146 4.914,1.986c1.994,1.467 2.991,3.596 2.991,6.388c-0,3.475 -1.264,5.96 -3.792,7.455c-2.528,1.496 -5.465,2.243 -8.812,2.243c-3.902,0 -6.957,-0.997 -9.165,-2.99c-2.207,-1.98 -3.289,-4.665 -3.247,-8.054l3.995,-0Z" style="fill:#333;fill-rule:nonzero;"/><path d="M1122.03,73.426c2.549,-0 4.297,-0.965 5.245,-2.895c0.947,-1.93 1.42,-4.077 1.42,-6.441c0,-2.136 -0.342,-3.873 -1.025,-5.212c-1.083,-2.108 -2.948,-3.162 -5.597,-3.162c-2.35,0 -4.059,0.898 -5.127,2.692c-1.068,1.794 -1.602,3.959 -1.602,6.494c-0,2.435 0.534,4.465 1.602,6.088c1.068,1.624 2.763,2.436 5.084,2.436Zm0.15,-21.064c2.948,0 5.44,0.983 7.476,2.948c2.037,1.966 3.055,4.857 3.055,8.674c0,3.688 -0.897,6.736 -2.691,9.143c-1.795,2.406 -4.579,3.61 -8.353,3.61c-3.147,-0 -5.647,-1.065 -7.498,-3.194c-1.852,-2.129 -2.777,-4.988 -2.777,-8.577c-0,-3.845 0.975,-6.907 2.926,-9.186c1.951,-2.278 4.572,-3.418 7.862,-3.418Z" style="fill:#333;fill-rule:nonzero;"/><path d="M1141.13,53.025l-0,15.188c-0,1.168 0.185,2.122 0.555,2.863c0.684,1.367 1.959,2.051 3.824,2.051c2.678,-0 4.501,-1.197 5.469,-3.589c0.527,-1.282 0.79,-3.041 0.79,-5.277l0,-11.236l3.846,-0l-0,22.879l-3.632,-0l0.043,-3.376c-0.499,0.869 -1.118,1.603 -1.859,2.201c-1.467,1.196 -3.247,1.794 -5.34,1.794c-3.262,0 -5.483,-1.089 -6.665,-3.268c-0.641,-1.168 -0.962,-2.727 -0.962,-4.679l0,-15.551l3.931,-0Z" style="fill:#333;fill-rule:nonzero;"/><path d="M1161.72,53.025l3.653,-0l0,3.952c0.299,-0.769 1.033,-1.706 2.201,-2.809c1.167,-1.104 2.513,-1.656 4.037,-1.656c0.071,-0 0.192,0.007 0.363,0.021c0.171,0.015 0.463,0.043 0.876,0.086l0,4.059c-0.228,-0.043 -0.438,-0.072 -0.63,-0.086c-0.192,-0.014 -0.403,-0.021 -0.63,-0.021c-1.937,-0 -3.425,0.623 -4.465,1.869c-1.04,1.246 -1.56,2.681 -1.56,4.305l0,13.159l-3.845,-0l0,-22.879Z" style="fill:#333;fill-rule:nonzero;"/><path d="M1185.01,52.362c2.578,0 4.675,0.627 6.291,1.88c1.617,1.254 2.589,3.411 2.916,6.473l-3.738,0c-0.228,-1.41 -0.748,-2.581 -1.56,-3.514c-0.811,-0.933 -2.114,-1.399 -3.909,-1.399c-2.449,-0 -4.201,1.196 -5.255,3.589c-0.684,1.552 -1.025,3.467 -1.025,5.746c-0,2.293 0.484,4.223 1.452,5.789c0.969,1.567 2.493,2.35 4.572,2.35c1.595,0 2.859,-0.488 3.792,-1.463c0.932,-0.976 1.577,-2.311 1.933,-4.006l3.738,0c-0.427,3.034 -1.495,5.252 -3.204,6.655c-1.709,1.403 -3.895,2.104 -6.558,2.104c-2.991,-0 -5.376,-1.093 -7.157,-3.279c-1.78,-2.186 -2.67,-4.917 -2.67,-8.193c0,-4.016 0.976,-7.142 2.927,-9.378c1.951,-2.236 4.436,-3.354 7.455,-3.354Z" style="fill:#333;fill-rule:nonzero;"/><path d="M1207.59,52.512c1.624,-0 3.197,0.381 4.721,1.143c1.524,0.762 2.685,1.748 3.482,2.959c0.769,1.153 1.282,2.499 1.538,4.037c0.228,1.054 0.342,2.734 0.342,5.042l-16.769,-0c0.071,2.321 0.619,4.183 1.645,5.586c1.025,1.403 2.613,2.104 4.763,2.104c2.008,-0 3.611,-0.662 4.807,-1.987c0.684,-0.769 1.168,-1.659 1.453,-2.67l3.781,-0c-0.1,0.84 -0.431,1.777 -0.994,2.809c-0.562,1.033 -1.192,1.876 -1.89,2.532c-1.168,1.139 -2.614,1.908 -4.337,2.307c-0.925,0.228 -1.972,0.341 -3.14,0.341c-2.848,0 -5.262,-1.036 -7.242,-3.108c-1.979,-2.072 -2.969,-4.974 -2.969,-8.705c-0,-3.674 0.997,-6.658 2.991,-8.951c1.993,-2.293 4.6,-3.439 7.818,-3.439Zm6.131,10.126c-0.157,-1.667 -0.52,-2.998 -1.089,-3.995c-1.054,-1.851 -2.813,-2.777 -5.277,-2.777c-1.766,-0 -3.247,0.637 -4.443,1.912c-1.197,1.274 -1.83,2.894 -1.901,4.86l12.71,-0Z" style="fill:#333;fill-rule:nonzero;"/></g></g></svg>